<?xml version="1.0" standalone="no"?>
<!DOCTYPE svg PUBLIC "-//W3C//DTD SVG 1.1//EN" "http://www.w3.org/Graphics/SVG/1.1/DTD/svg11.dtd" >
<svg>
<metadata>
Created by FontForge 20090914 at Thu Aug 20 01:17:43 2020
 By www-data
</metadata>
<defs>
<font id="Navigo-Bold" horiz-adv-x="603" >
  <font-face 
    font-family="Navigo"
    font-weight="700"
    font-stretch="normal"
    units-per-em="1000"
    panose-1="2 7 5 3 7 7 6 4 3 3"
    ascent="750"
    descent="-250"
    x-height="505"
    cap-height="750"
    bbox="-135 -260 1073 1149"
    underline-thickness="50"
    underline-position="-125"
    unicode-range="U+0020-U+2013"
  />
<missing-glyph horiz-adv-x="607" 
 />
    <glyph glyph-name=".notdef" horiz-adv-x="607" 
 />
    <glyph glyph-name="space" unicode=" " horiz-adv-x="232" 
 />
    <glyph glyph-name="exclam" unicode="!" horiz-adv-x="312" 
d="M229 241h-146l-10 509h166zM237 0h-161v161h161v-161z" />
    <glyph glyph-name="comma" unicode="," horiz-adv-x="279" 
d="M159 -140h-100v301h161v-151z" />
    <glyph glyph-name="hyphen" unicode="-" horiz-adv-x="403" 
d="M344 247h-285v123h285v-123z" />
    <glyph glyph-name="period" unicode="." horiz-adv-x="279" 
d="M220 0h-161v161h161v-161z" />
    <glyph glyph-name="zero" unicode="0" horiz-adv-x="672" 
d="M336 -15c-86.667 0 -155.333 26.5 -206 79.5s-76 119.5 -76 199.5v222c0 80 25.5 146.5 76.5 199.5s119.5 79.5 205.5 79.5c87.333 0 156.166 -26.333 206.499 -79s75.5 -119.334 75.5 -200.001v-222c0 -79.333 -25.667 -145.666 -77 -198.999s-119.666 -80 -204.999 -80
zM336.001 126c37.333 0 67 13.167 89 39.5s33 59.166 33 98.499v222c0 40 -10.667 73 -32 99s-51.333 39 -90 39c-37.333 0 -66.833 -13.167 -88.5 -39.5s-32.5 -59.166 -32.5 -98.499v-222c0 -40 10.5 -73 31.5 -99s50.833 -39 89.5 -39z" />
    <glyph glyph-name="one" unicode="1" horiz-adv-x="426" 
d="M341 0h-166v577l-44 -37h-116v75l190 135h136v-750z" />
    <glyph glyph-name="two" unicode="2" horiz-adv-x="587" 
d="M542 151l0.000976562 -150.997h-492v136l220 224c61.333 61.333 92 120.333 92 177c0 27.333 -8 48.666 -24 63.999s-36.333 23 -61 23c-18 0 -33.667 -4 -47 -12s-23.5 -17.833 -30.5 -29.5s-12.333 -22.334 -16 -32.001s-5.83398 -18.5 -6.50098 -26.5h-131v75
c2.66699 14.667 9 30.5 19 47.5s23.833 34.833 41.5 53.5s42.5 34.167 74.5 46.5s67.667 18.5 107 18.5c70 0 127.333 -18.833 172 -56.5s67 -87.834 67 -150.501c0 -52.667 -10.5 -98 -31.5 -136s-58.5 -85.333 -112.5 -142l-120 -129h279z" />
    <glyph glyph-name="three" unicode="3" horiz-adv-x="616" 
d="M304 -13c-39.333 0 -75.8359 6.32812 -109.503 18.9951s-60.667 28.334 -81 47.001s-36.5 37.334 -48.5 56.001s-19.667 36 -23 52v75h131c24 -71.333 67 -107 129 -107c32.667 0 58.334 9.16699 77.001 27.5s28 41.833 28 70.5c0 62 -39 93 -117 93h-82v126h70
c32.667 0 57.834 8.5 75.501 25.5s26.5 39.167 26.5 66.5c0 26 -8.33301 46.833 -25 62.5s-38.334 23.5 -65.001 23.5c-18 0 -34.167 -3.66699 -48.5 -11s-25.166 -16.666 -32.499 -27.999s-13 -21.666 -17 -30.999s-6.33301 -17.666 -7 -24.999h-128v75
c3.33301 14.667 10 30.334 20 47.001s24 34 42 52s42.667 32.833 74 44.5s66.333 17.5 105 17.5c73.333 0 133 -18.5 179 -55.5s69 -85.833 69 -146.5c0 -38.667 -9.83301 -73 -29.5 -103s-46.834 -51.667 -81.501 -65c42.667 -10 76.334 -30.5 101.001 -61.5
s37 -69.167 37 -114.5c0 -68.667 -24.333 -124.334 -73 -167.001c-49.333 -43.333 -114.666 -65 -195.999 -65z" />
    <glyph glyph-name="four" unicode="4" horiz-adv-x="650" 
d="M615 279v-129h-96v-160h-156v160h-343v117l353 483h146v-471h96zM186 279h177v247z" />
    <glyph glyph-name="five" unicode="5" horiz-adv-x="590" 
d="M281 -13c-37.333 0 -71.668 5.83203 -103.001 17.499s-56.666 26.5 -75.999 44.5s-34.833 36.167 -46.5 54.5s-18.834 35.833 -21.501 52.5v75h131c1.33301 -8 3.83301 -16.833 7.5 -26.5s9.33398 -20.667 17.001 -33s19.5 -22.5 35.5 -30.5s34.333 -12 55 -12
c33.333 0 59.833 11.667 79.5 35s29.5 51 29.5 83c0 34 -10.167 62 -30.5 84s-47.833 33 -82.5 33c-20 0 -37.833 -2.66699 -53.5 -8s-26.5 -10.666 -32.5 -15.999l-9 -8l-110 42l37 376h399v-141h-269l-15 -128c1.33301 0 6.33301 1.33301 15 4s19.167 5 31.5 7
s24.5 3 36.5 3c74 0 134 -22.167 180 -66.5s69 -104.833 69 -181.5c0 -77.333 -24.833 -140 -74.5 -188s-116.167 -72 -199.5 -72z" />
    <glyph glyph-name="six" unicode="6" horiz-adv-x="619" 
d="M316 -13c-85.333 0 -152.833 24.667 -202.5 74s-74.5 110.333 -74.5 183c0 60 12.667 115.667 38 167s71 117.666 137 198.999l123 150h137v-68l-75 -89l-61.5 -70.5c-25 -28.333 -38.833 -44.166 -41.5 -47.499c16 6.66699 31.333 10 46 10
c78 -2.66699 139.5 -26.667 184.5 -72s67.5 -103.666 67.5 -174.999c0 -74.667 -25.333 -136.834 -76 -186.501s-118 -74.5 -202 -74.5zM317 128c35.333 0 63.5 11.168 84.5 33.501s31.5 50.166 31.5 83.499c0 34 -10.333 62.167 -31 84.5s-49.334 33.5 -86.001 33.5
c-36 0 -64.333 -11.167 -85 -33.5s-31 -50.5 -31 -84.5s10.333 -62 31 -84s49.334 -33 86.001 -33z" />
    <glyph glyph-name="seven" unicode="7" horiz-adv-x="513" 
d="M240 -10h-141v75l221 539h-295v146h464v-136c-62 -144.667 -145 -352.667 -249 -624z" />
    <glyph glyph-name="eight" unicode="8" horiz-adv-x="639" 
d="M319 -15c-84.667 0 -151.833 22.334 -201.5 67.001s-74.5 100 -74.5 166c0 37.333 9.5 73 28.5 107s47.167 59.667 84.5 77c-56.667 37.333 -85 90 -85 158c0 58.667 22.167 107.667 66.5 147s104.833 59 181.5 59c76 0 136.167 -19.833 180.5 -59.5
s66.5 -88.5 66.5 -146.5c0 -68.667 -28 -121.334 -84 -158.001c40.667 -18 70 -44.667 88 -80c17.333 -36 26 -70.667 26 -104c0 -66.667 -24.833 -122.167 -74.5 -166.5s-117.167 -66.5 -202.5 -66.5zM319.001 460.001c28 0 49.833 8.5 65.5 25.5s23.5 38.5 23.5 64.5
c0 24 -7.83301 44.167 -23.5 60.5s-37.5 24.5 -65.5 24.5s-49.833 -8.16699 -65.5 -24.5s-23.5 -36.5 -23.5 -60.5c0 -26 7.83301 -47.5 23.5 -64.5s37.5 -25.5 65.5 -25.5zM319.001 121.001c34.667 0 61.333 9.66699 80 29s28 44 28 74s-9.5 55 -28.5 75s-45.5 30 -79.5 30
c-33.333 0 -59.5 -10 -78.5 -30s-28.5 -45 -28.5 -75c0 -29.333 9.5 -53.833 28.5 -73.5s45.167 -29.5 78.5 -29.5z" />
    <glyph glyph-name="nine" unicode="9" horiz-adv-x="618" 
d="M284 -10l-137.999 0.00195312v68l49 57.5c29.333 34.333 47.666 56.5 54.999 66.5c39.333 45.333 62.333 72.666 69 81.999c-10.667 -4.66699 -22.334 -7 -35.001 -7c-82.667 3.33301 -146 28 -190 74c-46 47.333 -69 106.333 -69 177c0 73.333 25.167 134.5 75.5 183.5
s117.5 73.5 201.5 73.5c85.333 0 152.833 -24.667 202.5 -74s74.5 -110.333 74.5 -183c0 -58.667 -11.333 -112 -34 -160c-24 -50.667 -60.333 -107.334 -109 -170.001c-5.33301 -8 -18.166 -24.333 -38.499 -49l-66.5 -81zM302.001 389.002c36 0 64.333 10.999 85 32.999
s31 50 31 84c0 34.667 -10.333 63 -31 85s-49.334 33 -86.001 33c-35.333 0 -63.5 -11.167 -84.5 -33.5s-31.5 -50.166 -31.5 -83.499c0 -34 10.333 -62.167 31 -84.5s49.334 -33.5 86.001 -33.5z" />
    <glyph glyph-name="colon" unicode=":" horiz-adv-x="279" 
d="M220 344h-161v161h161v-161zM220 0h-161v161h161v-161z" />
    <glyph glyph-name="semicolon" unicode=";" horiz-adv-x="279" 
d="M220 344h-161v161h161v-161zM159 -161h-100v322h161v-151z" />
    <glyph glyph-name="question" unicode="?" horiz-adv-x="537" 
d="M332 241l-154.003 -0.000976562c-6 18 -9 33 -9 45c0 20 4.83301 38.833 14.5 56.5s19 30.834 28 39.501s22.833 20.334 41.5 35.001c19.333 14.667 33.333 26 42 34s17.834 20.667 27.501 38s14.5 35.666 14.5 54.999c0 23.333 -7.5 42.5 -22.5 57.5
s-34.833 22.5 -59.5 22.5c-32 0 -55.333 -11.667 -70 -35s-22 -45 -22 -65h-131v75c2.66699 14.667 8.83398 30.5 18.501 47.5s23.167 34.833 40.5 53.5s41.333 34.167 72 46.5s65.334 18.5 104.001 18.5c68.667 0 125.167 -18.667 169.5 -56s66.5 -86.666 66.5 -147.999
c0 -69.333 -29.667 -128.333 -89 -177c-5.33301 -4.66699 -14 -11.5 -26 -20.5s-20.667 -15.833 -26 -20.5s-11.5 -10.834 -18.5 -18.501s-12 -15.167 -15 -22.5s-4.5 -15.333 -4.5 -24c0 -10.667 2.66699 -23 8 -37zM337.997 -0.000976562h-161v161h161v-161z" />
    <glyph glyph-name="A" unicode="A" horiz-adv-x="706" 
d="M203 159l-57 -159h-133v70l255 680h169l254 -670v-80h-144l-58 159h-286zM249 295h196l-98 276z" />
    <glyph glyph-name="B" unicode="B" horiz-adv-x="687" 
d="M385 0l-302.999 0.000976562v750h299c72 0 129.5 -18.333 172.5 -55s64.5 -85.334 64.5 -146.001c0 -36 -9 -68 -27 -96s-42.333 -48 -73 -60c40 -12.667 71.333 -34 94 -64s34 -65 34 -105c0 -68.667 -23.333 -123.167 -70 -163.5s-110.334 -60.5 -191.001 -60.5z
M241.001 618.001v-170h114c31.333 0 56 7.5 74 22.5s27 35.5 27 61.5s-8.66699 46.833 -26 62.5s-41 23.5 -71 23.5h-118zM241.001 322.001l0.000976562 -190h127c36 0 64.167 9.33301 84.5 28s30.5 42 30.5 70c0 27.333 -9.83301 49.5 -29.5 66.5
s-47.834 25.5 -84.501 25.5h-128z" />
    <glyph glyph-name="C" unicode="C" horiz-adv-x="729" 
d="M409 -15c-113.333 0 -202.834 35.8311 -268.501 107.498s-98.5 165.834 -98.5 282.501c0 117.333 33.5 211.666 100.5 282.999s155.833 107 266.5 107c46.667 0 88.834 -5.66699 126.501 -17s67 -25.666 88 -42.999s37.167 -34.166 48.5 -50.499
s18.666 -31.5 21.999 -45.5v-76h-131c-3.33301 20.667 -17.666 41 -42.999 61s-61.666 30 -108.999 30c-62 0 -111.333 -22.333 -148 -67s-55 -105 -55 -181s18.333 -136.333 55 -181c37.333 -45.333 86.666 -68 147.999 -68c46.667 0 83 10.5 109 31.5s42 42.167 48 63.5
h131v-76c-10 -38 -40.167 -74.333 -90.5 -109s-116.833 -52 -199.5 -52z" />
    <glyph glyph-name="D" unicode="D" horiz-adv-x="760" 
d="M345 0h-263v750h263c112 0 202.333 -35.667 271 -107s103 -159.666 103 -264.999c0 -106.667 -34.333 -196.334 -103 -269.001s-159 -109 -271 -109zM248 609v-468h94c63.333 0 113.5 22.5 150.5 67.5s55.5 101.5 55.5 169.5c0 66 -18.5 121 -55.5 165
s-87.167 66 -150.5 66h-94z" />
    <glyph glyph-name="E" unicode="E" 
d="M553 0h-471v750h471v-141h-305v-159h270v-130h-270v-179h305v-141z" />
    <glyph glyph-name="F" unicode="F" horiz-adv-x="582" 
d="M248 0h-166v750h461v-141h-295v-169h265v-130h-265v-310z" />
    <glyph glyph-name="G" unicode="G" horiz-adv-x="770" 
d="M428 -15c-119.333 0 -213.668 36.001 -283.001 108.001s-104 166 -104 282c0 114 34.833 207.5 104.5 280.5s162.5 109.5 278.5 109.5c84.667 0 152 -16.667 202 -50s78 -68 84 -104v-75h-130c-6.66699 19.333 -22.667 38.833 -48 58.5s-61 29.5 -107 29.5
c-67.333 0 -120.5 -23.167 -159.5 -69.5s-58.5 -105.833 -58.5 -178.5s20 -132.334 60 -179.001s94.333 -70 163 -70c46 0 89 8.33301 129 25v130h-155v128h310v-324c-14.667 -22 -48.167 -44.333 -100.5 -67s-114.166 -34 -185.499 -34z" />
    <glyph glyph-name="H" unicode="H" horiz-adv-x="790" 
d="M248 0h-166v750h166v-295h294v295h166v-750h-166v315h-294v-315z" />
    <glyph glyph-name="I" unicode="I" horiz-adv-x="330" 
d="M248 0h-166v750h166v-750z" />
    <glyph glyph-name="J" unicode="J" horiz-adv-x="519" 
d="M224 -15c-64.667 0 -113.333 13.833 -146 41.5s-51.667 56.5 -57 86.5v75h130c0 -15.333 5 -29.5 15 -42.5s25.667 -19.5 47 -19.5c22 0 38.333 7 49 21s16 39.333 16 76v527h165v-521c0 -162.667 -73 -244 -219 -244z" />
    <glyph glyph-name="K" unicode="K" horiz-adv-x="694" 
d="M532 0l-284 326v-326h-166v750h166v-322l271 322h131v-75l-245 -285l273 -312v-78h-146z" />
    <glyph glyph-name="L" unicode="L" horiz-adv-x="569" 
d="M548 0h-466v750h166v-609h300v-141z" />
    <glyph glyph-name="M" unicode="M" horiz-adv-x="931" 
d="M516 159h-111l-167 353v-512h-156v750h204l182 -382l178 382h203v-750h-165v512z" />
    <glyph glyph-name="N" unicode="N" horiz-adv-x="795" 
d="M238 0h-156v750h156l319 -477v477h156v-750h-156l-319 469v-469z" />
    <glyph glyph-name="O" unicode="O" horiz-adv-x="826" 
d="M413 -15c-110.667 0 -200.33 36.667 -268.997 110s-103 167.666 -103 282.999c0 114.667 34.167 207.834 102.5 279.501s158.166 107.5 269.499 107.5s201.166 -35.833 269.499 -107.5s102.5 -164.834 102.5 -279.501c0 -115.333 -34.333 -209.666 -103 -282.999
s-158.334 -110 -269.001 -110zM413.004 126c63.333 0 113.333 23.333 150 70c37.333 47.333 56 108 56 182c0 72 -18.667 131.333 -56 178c-37.333 45.333 -87.333 68 -150 68s-112.667 -22.667 -150 -68c-37.333 -46.667 -56 -106 -56 -178c0 -74 18.667 -134.667 56 -182
c36.667 -46.667 86.667 -70 150 -70z" />
    <glyph glyph-name="P" unicode="P" horiz-adv-x="643" 
d="M248 0l-166 0.000976562v750h241c88 0 158.333 -22.333 211 -67c52 -44.667 78 -104.667 78 -180c0 -70.667 -25.333 -131.334 -76 -182.001s-121.667 -76 -213 -76h-75v-245zM245 612.001v-229h77c38 0 68.167 10.833 90.5 32.5s33.5 50.5 33.5 86.5
c0 32.667 -11 59.167 -33 79.5s-52.333 30.5 -91 30.5h-77z" />
    <glyph glyph-name="Q" unicode="Q" horiz-adv-x="826" 
d="M667 80l81.0029 -105.999v-78h-121l-84 110c-42 -14 -85.333 -21 -130 -21c-110.667 0 -200.334 36.667 -269.001 110s-103 167.666 -103 282.999c0 114.667 34.167 207.834 102.5 279.501s158.166 107.5 269.499 107.5s201.166 -35.833 269.499 -107.5
s102.5 -164.834 102.5 -279.501c0 -126 -39.333 -225.333 -118 -298zM207.003 378.001c0 -74 18.667 -134.666 56 -181.999c36.667 -46.667 86.667 -70 150 -70c0.666992 0 13 1 37 3l-72 94v78h121l72 -95c32 45.333 48 102.666 48 171.999c0 72 -18.667 131.333 -56 178
c-37.333 45.333 -87.333 68 -150 68s-112.667 -22.667 -150 -68c-37.333 -46.667 -56 -106 -56 -178z" />
    <glyph glyph-name="R" unicode="R" horiz-adv-x="682" 
d="M248 264l0.000976562 -264h-166v750h246c86.667 0 155.667 -21.667 207 -65s77 -101.333 77 -174c0 -45.333 -11.833 -86 -35.5 -122s-56.834 -64 -99.501 -84l173 -227v-78h-143l-192 264h-67zM245.001 609v-210.999h82c36.667 0 65.667 10.167 87 30.5
s32 47.166 32 80.499c0 29.333 -10.5 53.333 -31.5 72s-50.167 28 -87.5 28h-82z" />
    <glyph glyph-name="S" unicode="S" horiz-adv-x="646" 
d="M324 -15c-78 0 -139.331 14.998 -183.998 44.998c-45.333 30 -76 65.667 -92 107v75h131c22 -60.667 71.333 -91 148 -91c35.333 0 63.666 7.83301 84.999 23.5s32 37.167 32 64.5c0 24.667 -8.83301 44.334 -26.5 59.001s-45.5 26.334 -83.5 35.001l-69 13
c-68.667 14 -121.334 39.5 -158.001 76.5s-55 85.167 -55 144.5c0 71.333 25 127.333 75 168c50 40 116 60 198 60c68.667 0 125.5 -13.333 170.5 -40s72.833 -63 83.5 -109v-76h-130c-15.333 59.333 -58 89 -128 89c-34 0 -60.5 -7.66699 -79.5 -23
s-28.5 -35.333 -28.5 -60c0 -41.333 33.333 -69.333 100 -84l72 -16c70 -14.667 124.167 -41.167 162.5 -79.5s57.5 -87.833 57.5 -148.5c0 -70.667 -26 -127.167 -78 -169.5s-119.667 -63.5 -203 -63.5z" />
    <glyph glyph-name="T" unicode="T" horiz-adv-x="635" 
d="M400 0h-166v609h-214v141h595v-141h-215v-609z" />
    <glyph glyph-name="U" unicode="U" horiz-adv-x="759" 
d="M383 -15c-92 0 -166.499 27.833 -223.499 83.5s-85.5 124.5 -85.5 206.5v475h166v-476c0 -42 12.833 -77.167 38.5 -105.5s60.167 -42.5 103.5 -42.5c45.333 0 81.166 14.167 107.499 42.5s39.5 63.5 39.5 105.5v476h156v-475c0 -82 -28 -150.833 -84 -206.5
s-128.667 -83.5 -218 -83.5z" />
    <glyph glyph-name="V" unicode="V" horiz-adv-x="709" 
d="M445 0h-181l-248 670v80h153l188 -546l193 546h146v-70z" />
    <glyph glyph-name="W" unicode="W" horiz-adv-x="1000" 
d="M797 0h-169l-129 458l-127 -458h-169l-179 670v80h154l119 -515l137 515h141l133 -515l124 515h146v-70z" />
    <glyph glyph-name="X" unicode="X" horiz-adv-x="690" 
d="M158 0h-131v75l220 305l-209 292v78h146l173 -250l162 250h131v-75l-205 -290l219 -307v-78h-146l-181 264z" />
    <glyph glyph-name="Y" unicode="Y" horiz-adv-x="662" 
d="M415 0h-166v300l-242 372v78h146l190 -304l178 304h130v-75l-236 -376v-299z" />
    <glyph glyph-name="Z" unicode="Z" horiz-adv-x="643" 
d="M603 141v-141h-562v131l356 478h-346v141h541v-131l-355 -478h366z" />
    <glyph glyph-name="a" unicode="a" horiz-adv-x="551" 
d="M197 -15c-55.333 0 -96.667 15.668 -124 47.001c-28 30.667 -42 67.334 -42 110.001c0 49.333 18.167 87.833 54.5 115.5s90.5 41.5 162.5 41.5c15.333 0 30.833 -0.833008 46.5 -2.5s27.5 -3.16699 35.5 -4.5l12 -3v22c0 56 -27.667 84 -83 84
c-12 0 -23.167 -1.5 -33.5 -4.5s-18.5 -6.83301 -24.5 -11.5s-11.333 -9.33398 -16 -14.001s-7.66699 -8.33398 -9 -11.001l-3 -5h-114v67l1 1c19.333 40 54.333 69 105 87c28.667 10.667 61 16 97 16c76 0 133.5 -18.167 172.5 -54.5s58.5 -89.5 58.5 -159.5v-306h-136
l-10 64c-32 -52.667 -82 -79 -150 -79zM245.999 101.001c32.667 0 57 9.33301 73 28c15.333 18.667 23 36.667 23 54v22c-23.333 5.33301 -51.333 8 -84 8c-52 0 -78 -19 -78 -57c0 -36.667 22 -55 66 -55z" />
    <glyph glyph-name="b" unicode="b" horiz-adv-x="642" 
d="M378 -15c-74 0 -129 29 -165 87l-8 -72h-141v750h151v-313c35.333 55.333 90.333 83 165 83c68 0 122.5 -25 163.5 -75s61.5 -112.667 61.5 -188c0 -77.333 -20.333 -142 -61 -194s-96 -78 -166 -78zM334 121c37.333 0 66.667 12.5 88 37.5s32 56.167 32 93.5
c0 38 -10.667 69.5 -32 94.5s-51 37.5 -89 37.5c-34.667 0 -63 -12.5 -85 -37.5s-33 -56.167 -33 -93.5c0 -38 11 -69.5 33 -94.5s50.667 -37.5 86 -37.5z" />
    <glyph glyph-name="c" unicode="c" horiz-adv-x="545" 
d="M300 -15c-84.667 0 -149.835 25.002 -195.502 75.002s-68.5 113.667 -68.5 191c0 76.667 24 140.834 72 192.501s112 77.5 192 77.5c18 0 35.333 -1.33301 52 -4s31 -6.33398 43 -11.001s23.333 -9.83398 34 -15.501s19.834 -11.834 27.501 -18.501
s14.334 -13.334 20.001 -20.001s10.5 -12.834 14.5 -18.501s7.16699 -10.834 9.5 -15.501l5.5 -11l1 -4v-67h-113c0.666992 0 0.166992 1.83301 -1.5 5.5s-4.66699 8.16699 -9 13.5s-9.83301 10.666 -16.5 15.999s-15.834 9.83301 -27.501 13.5s-24.834 5.5 -39.501 5.5
c-36.667 0 -64.667 -13.167 -84 -39.5s-29 -59.5 -29 -99.5c0 -39.333 9.66699 -71.666 29 -96.999s47.333 -38 84 -38c24.667 0 44.834 4.5 60.501 13.5s25.5 17.833 29.5 26.5l5 14h113v-67c-1.33301 -3.33301 -3.16602 -7.66602 -5.49902 -12.999
s-8.83301 -14.666 -19.5 -27.999s-23 -25.166 -37 -35.499s-34 -19.833 -60 -28.5s-54.667 -13 -86 -13z" />
    <glyph glyph-name="d" unicode="d" horiz-adv-x="642" 
d="M262 -15c-69.333 0 -124.168 25.333 -164.501 76s-60.5 114.334 -60.5 191.001c0 77.333 20.833 141.333 62.5 192s96.834 76 165.501 76c70.667 0 125 -27.667 163 -83v313h150v-750h-140l-9 72c-16.667 -26.667 -39.667 -47.834 -69 -63.501s-62 -23.5 -98 -23.5z
M307.998 121c35.333 0 64.166 12.5 86.499 37.5s33.5 56.5 33.5 94.5c0 37.333 -11.167 68.5 -33.5 93.5s-51.166 37.5 -86.499 37.5c-37.333 0 -66.666 -12.5 -87.999 -37.5s-32 -56.5 -32 -94.5c0 -37.333 10.667 -68.5 32 -93.5s50.666 -37.5 87.999 -37.5z" />
    <glyph glyph-name="e" unicode="e" horiz-adv-x="583" 
d="M308 -15c-87.333 0 -154.502 24.668 -201.502 74.001s-70.5 113.333 -70.5 192c0 76.667 23.833 140.667 71.5 192s112.5 77 194.5 77s143.333 -21.833 184 -65.5s61 -101.167 61 -172.5c0 -10.667 -0.5 -21.334 -1.5 -32.001s-2.16699 -18.667 -3.5 -24l-2 -8h-352
c4.66699 -34.667 17.5 -62 38.5 -82s49.167 -30 84.5 -30c16.667 0 31.834 1.5 45.501 4.5s24.167 6.83301 31.5 11.5s13.5 9.33398 18.5 14.001s8.16699 8.66699 9.5 12l3 4h118v-67c-1.33301 -2.66699 -3.5 -6.33398 -6.5 -11.001s-10.5 -12.667 -22.5 -24
s-25.833 -21.333 -41.5 -30s-37.667 -16.667 -66 -24s-59.166 -11 -92.499 -11zM190.998 309.001h211c0 26 -8.66699 47.667 -26 65s-42.333 26 -75 26c-59.333 0 -96 -30.333 -110 -91z" />
    <glyph glyph-name="f" unicode="f" horiz-adv-x="438" 
d="M262 0h-150.999v382h-85v123h85v56c0 60.667 18.167 109 54.5 145s86.166 54 149.499 54c84 0 137 -30.333 159 -91v-68h-112c0 6.66699 -3.66699 13.5 -11 20.5s-19 10.5 -35 10.5c-36 0 -54 -23.333 -54 -70v-57h161v-123h-161v-382z" />
    <glyph glyph-name="g" unicode="g" horiz-adv-x="642" 
d="M305 -260c-36 0 -68.833 4.66699 -98.5 14s-52.834 20.333 -69.501 33s-30.834 25.834 -42.501 39.501s-19.5 24.5 -23.5 32.5s-6 12.667 -6 14v67h121l2 -4c0.666992 -2 2.16699 -5 4.5 -9s5.5 -8.5 9.5 -13.5s9 -9.83301 15 -14.5s12.833 -9 20.5 -13
s17 -7.16699 28 -9.5s22.833 -3.5 35.5 -3.5c42 0 73.667 13.167 95 39.5s32 61.833 32 106.5v54c-35.333 -52 -90.666 -78 -165.999 -78c-68 0 -122.5 24.833 -163.5 74.5s-61.5 111.167 -61.5 184.5c0 76 21 139.5 63 190.5s97.333 76.5 166 76.5
c35.333 0 67.333 -7.83301 96 -23.5s51.334 -36.834 68.001 -63.501l8 71h141v-482c0 -86 -25.167 -154.667 -75.5 -206s-116.5 -77 -198.5 -77zM309 125c34.667 0 63.167 12.498 85.5 37.498s33.5 56.167 33.5 93.5c0 36.667 -11.167 67.334 -33.5 92.001
s-51.166 37 -86.499 37c-36.667 0 -65.834 -12.167 -87.501 -36.5s-32.5 -55.166 -32.5 -92.499s10.833 -68.5 32.5 -93.5s51.167 -37.5 88.5 -37.5z" />
    <glyph glyph-name="h" unicode="h" 
d="M215 0h-150.999v750h151v-307c13.333 21.333 32.666 39.5 57.999 54.5s55.333 22.5 90 22.5c62 0 107.667 -19.333 137 -58s44 -88 44 -148v-314h-150v286c0 66 -27.667 99 -83 99c-36 0 -61 -10.667 -75 -32c-14 -20.667 -21 -43.667 -21 -69v-284z" />
    <glyph glyph-name="i" unicode="i" horiz-adv-x="278" 
d="M216 600h-156v140h156v-140zM214 0h-150v505h150v-505z" />
    <glyph glyph-name="j" unicode="j" horiz-adv-x="276" 
d="M216 600h-156v140h156v-140zM22 -260c-42 0 -76.5 8.49805 -103.5 25.498s-44.833 39.167 -53.5 66.5v72h113c0 -7.33301 3.16699 -15.166 9.5 -23.499s16.833 -12.5 31.5 -12.5c16 0 27.333 5.33301 34 16s10 28.334 10 53.001v568h150v-569
c0 -60.667 -16.333 -108.5 -49 -143.5s-80 -52.5 -142 -52.5z" />
    <glyph glyph-name="k" unicode="k" horiz-adv-x="555" 
d="M215 0h-151v750h151v-450l170 205h129v-67l-147 -174l167 -194v-70h-141l-178 218v-218z" />
    <glyph glyph-name="l" unicode="l" horiz-adv-x="279" 
d="M215 0h-151v750h151v-750z" />
    <glyph glyph-name="m" unicode="m" horiz-adv-x="868" 
d="M214 0l-149.997 0.000976562v505h140l7 -64c12.667 22 30.167 40.667 52.5 56s49.166 23 80.499 23c34.667 0 64 -8 88 -24s41.667 -37 53 -63c35.333 58 85.333 87 150 87c59.333 0 103.166 -19.167 131.499 -57.5s42.5 -87.833 42.5 -148.5v-314h-150v295
c0 60 -24 90 -72 90c-26 0 -45.5 -8.83301 -58.5 -26.5s-19.5 -38.167 -19.5 -61.5v-297h-145v299c0 57.333 -24 86 -72 86c-26.667 0 -46.334 -9.33301 -59.001 -28s-19 -41.334 -19 -68.001v-289z" />
    <glyph glyph-name="n" unicode="n" 
d="M215 0h-151v505h141l7 -67c12.667 22 32 41.167 58 57.5s57 24.5 93 24.5c62 0 107.667 -19.333 137 -58s44 -88 44 -148v-314h-150v286c0 66 -27.667 99 -83 99c-36 0 -61 -10.667 -75 -32c-14 -20.667 -21 -43.667 -21 -69v-284z" />
    <glyph glyph-name="o" unicode="o" horiz-adv-x="606" 
d="M303 -15c-81.333 0 -146.166 25.667 -194.499 77s-72.5 115.333 -72.5 192c0 76 24.167 139.333 72.5 190s113.166 76 194.499 76s146.166 -25.333 194.499 -76s72.5 -114 72.5 -190c0 -76.667 -24.167 -140.667 -72.5 -192s-113.166 -77 -194.499 -77zM303 116
c38 0 66.833 13 86.5 39s29.5 59 29.5 99c0 38.667 -10 70.834 -30 96.501s-48.667 38.5 -86 38.5s-66 -12.833 -86 -38.5s-30 -57.834 -30 -96.501c0 -40 9.83301 -73 29.5 -99s48.5 -39 86.5 -39z" />
    <glyph glyph-name="p" unicode="p" horiz-adv-x="642" 
d="M215 -250l-151.003 -0.000976562v755h141l7 -72c16.667 26.667 39.834 47.834 69.501 63.501s62.5 23.5 98.5 23.5c68.667 0 123.334 -25.333 164.001 -76s61 -114 61 -190c0 -76.667 -20.667 -140.667 -62 -192s-95.666 -77 -162.999 -77
c-72.667 0 -127.667 27.667 -165 83v-318zM333.997 120.999c38 0 67.5 12.333 88.5 37s31.5 56.667 31.5 96c0 38 -10.5 69.167 -31.5 93.5s-50.5 36.5 -88.5 36.5c-35.333 0 -64 -12.333 -86 -37s-33 -55.667 -33 -93c0 -38 11 -69.667 33 -95s50.667 -38 86 -38z" />
    <glyph glyph-name="q" unicode="q" horiz-adv-x="641" 
d="M578 -250l-150.002 -0.000976562v318c-38 -55.333 -93.333 -83 -166 -83c-68 0 -122.5 25.5 -163.5 76.5s-61.5 114.5 -61.5 190.5c0 76.667 20.833 140.5 62.5 191.5s96.834 76.5 165.501 76.5c35.333 0 67.333 -7.66699 96 -23s51.334 -36.666 68.001 -63.999l9 72h140
v-755zM307.998 120.999c35.333 0 64.166 12.667 86.499 38s33.5 57 33.5 95c0 37.333 -11.167 68.333 -33.5 93s-51.166 37 -86.499 37c-37.333 0 -66.666 -12.333 -87.999 -37s-32 -55.667 -32 -93c0 -38.667 10.667 -70.5 32 -95.5s50.666 -37.5 87.999 -37.5z" />
    <glyph glyph-name="r" unicode="r" horiz-adv-x="481" 
d="M215 0l-151.003 -0.000976562v505h141l7 -66c12 22.667 29.5 41.834 52.5 57.501s50.5 23.5 82.5 23.5c37.333 0 66.833 -9.66699 88.5 -29s34.5 -45.333 38.5 -78v-72h-115l-1 5c-1.33301 3.33301 -3.33301 7.5 -6 12.5s-6.16699 9.83301 -10.5 14.5
s-10.666 8.66699 -18.999 12s-18.166 5 -29.499 5c-25.333 0 -44.666 -10 -57.999 -30s-20 -46 -20 -78v-282z" />
    <glyph glyph-name="s" unicode="s" horiz-adv-x="508" 
d="M258 -15c-60.667 0 -110.497 11.168 -149.497 33.501s-62.167 44.5 -69.5 66.5v68h113c2 -10.667 13 -23 33 -37s45 -21 75 -21c52 0 78 16 78 48c0 15.333 -6.33301 26.666 -19 33.999s-32 13.333 -58 18l-64 8c-100.667 13.333 -151 63.666 -151 150.999
c0 48.667 18.667 88.5 56 119.5s87.333 46.5 150 46.5c54.667 0 98.667 -9 132 -27s55.666 -41 66.999 -69v-68h-114c-2.66699 10.667 -11.334 22.334 -26.001 35.001s-35.334 19 -62.001 19c-45.333 0 -68 -16 -68 -48c0 -25.333 21.333 -41.666 64 -48.999l64 -9
c109.333 -14.667 164 -64 164 -148c0 -50.667 -19.167 -91.834 -57.5 -123.501s-90.833 -47.5 -157.5 -47.5z" />
    <glyph glyph-name="t" unicode="t" horiz-adv-x="475" 
d="M292 -15c-61.333 0 -109.166 17.166 -143.499 51.499s-51.5 81.833 -51.5 142.5v203h-75v123h77l8 128h141v-128h200v-123h-200v-198c0 -49.333 18.667 -74 56 -74c17.333 0 29.666 4.33301 36.999 13s11 17.334 11 26.001h108v-68c-25.333 -64 -81.333 -96 -168 -96z
" />
    <glyph glyph-name="u" unicode="u" horiz-adv-x="599" 
d="M241 -15c-62.667 0 -108.667 19.333 -138 58s-44 88 -44 148v314h151v-286c0 -66 26.667 -99 80 -99c35.333 0 60 10.667 74 32c13.333 21.333 20 44.333 20 69v284h151v-505h-141l-7 67c-12.667 -22 -31.5 -41.167 -56.5 -57.5s-54.833 -24.5 -89.5 -24.5z" />
    <glyph glyph-name="v" unicode="v" horiz-adv-x="550" 
d="M533 438l-190 -438h-136l-188 435v70h136l126 -307l124 307h128v-67z" />
    <glyph glyph-name="w" unicode="w" horiz-adv-x="800" 
d="M624 0h-136l-92 291l-86 -291h-136l-151 435v70h136l93 -301l91 301h124l94 -300l90 300h128v-67z" />
    <glyph glyph-name="x" unicode="x" horiz-adv-x="559" 
d="M157 0h-126v68l158 189l-155 178v70h138l114 -146l113 146h126v-67l-156 -183l159 -185v-70h-138l-118 151z" />
    <glyph glyph-name="y" unicode="y" horiz-adv-x="556" 
d="M544 438l-340 -688h-128v70l126 226l-182 389v70h136l129 -296l134 296h125v-67z" />
    <glyph glyph-name="z" unicode="z" horiz-adv-x="503" 
d="M462 123v-123h-421v113l236 269h-231v123h411v-113l-236 -269h241z" />
    <glyph glyph-name="uni00A0" unicode="&#xa0;" horiz-adv-x="232" 
 />
    <glyph glyph-name="Agrave" unicode="&#xc0;" horiz-adv-x="706" 
d="M426 805h-136l-92 80v60h156l72 -80v-60zM203 159l-57 -159h-133v70l255 680h169l254 -670v-80h-144l-58 159h-286zM249 295h196l-98 276z" />
    <glyph glyph-name="Aacute" unicode="&#xc1;" horiz-adv-x="706" 
d="M415 805h-136v60l72 80h156v-60zM203 159l-57 -159h-133v70l255 680h169l254 -670v-80h-144l-58 159h-286zM249 295h196l-98 276z" />
    <glyph glyph-name="Acircumflex" unicode="&#xc2;" horiz-adv-x="706" 
d="M523 800h-116l-56 58l-56 -58h-116v60l92 80h160l92 -80v-60zM203 159l-57 -159h-133v70l255 680h169l254 -670v-80h-144l-58 159h-286zM249 295h196l-98 276z" />
    <glyph glyph-name="Atilde" unicode="&#xc3;" horiz-adv-x="706" 
d="M425 792c-27.333 0 -48.999 5 -64.999 15c-17.333 10 -35 15 -53 15c-19.333 0 -31 -8.33301 -35 -25h-100c-2.66699 40.667 5.5 73.667 24.5 99s46.167 38 81.5 38c28 0 49.333 -5 64 -15c14 -10 30.333 -15 49 -15c19.333 0 30.666 8.33301 33.999 25h100
c2.66699 -42 -4.33301 -75.333 -21 -100s-43 -37 -79 -37zM203.001 159l-57 -159h-133v70l255 680h169l254 -670v-80h-144l-58 159h-286zM249.001 295h196l-98 276z" />
    <glyph glyph-name="Adieresis" unicode="&#xc4;" horiz-adv-x="706" 
d="M325 800h-150v135h150v-135zM531 800h-151v135h151v-135zM203 159l-57 -159h-133v70l255 680h169l254 -670v-80h-144l-58 159h-286zM249 295h196l-98 276z" />
    <glyph glyph-name="Aring" unicode="&#xc5;" horiz-adv-x="706" 
d="M350 785c-44.667 0 -78.834 8.5 -102.501 25.5s-35.5 39.5 -35.5 67.5s11.833 50.5 35.5 67.5s57.834 25.5 102.501 25.5c45.333 0 79.833 -8.5 103.5 -25.5s35.5 -39.5 35.5 -67.5s-11.833 -50.5 -35.5 -67.5s-58.167 -25.5 -103.5 -25.5zM350 851
c11.333 0 20.833 2.5 28.5 7.5s11.5 11.5 11.5 19.5s-3.83301 14.5 -11.5 19.5s-17.167 7.5 -28.5 7.5s-20.833 -2.5 -28.5 -7.5s-11.5 -11.5 -11.5 -19.5s3.83301 -14.5 11.5 -19.5s17.167 -7.5 28.5 -7.5zM203 159l-57 -159h-133v70l255 680h169l254 -670v-80h-144
l-58 159h-286zM249 295h196l-98 276z" />
    <glyph glyph-name="AE" unicode="&#xc6;" horiz-adv-x="978" 
d="M7 0v75l381 675h540v-141h-305v-159h270v-130h-270v-179h305v-141h-471v154h-238l-86 -154h-126zM457 586l-163 -296h163v296z" />
    <glyph glyph-name="Ccedilla" unicode="&#xc7;" horiz-adv-x="729" 
d="M549 -123c0 -60 -41.333 -93.666 -124 -100.999h-85v80c45.333 0 68 12 68 36c0 23.333 -21.333 35 -64 35v63c-94 13.333 -167.833 54.666 -221.5 123.999s-80.5 156.333 -80.5 261c0 117.333 33.5 211.666 100.5 282.999s155.833 107 266.5 107
c46.667 0 88.834 -5.66699 126.501 -17s67 -25.666 88 -42.999s37.167 -34.166 48.5 -50.499s18.666 -31.5 21.999 -45.5v-76h-131c-3.33301 20.667 -17.666 41 -42.999 61s-61.666 30 -108.999 30c-62 0 -111.333 -22.333 -148 -67s-55 -105 -55 -181
s18.333 -136.333 55 -181c37.333 -45.333 86.666 -68 147.999 -68c46.667 0 83 10.5 109 31.5s42 42.167 48 63.5h131v-76c-8.66699 -33.333 -33 -65.833 -73 -97.5s-93.667 -51.834 -161 -60.501v-28c25.333 -4 45.666 -13.333 60.999 -28s23 -33 23 -55z" />
    <glyph glyph-name="Egrave" unicode="&#xc8;" 
d="M408 805h-136l-92 80v60h156l72 -80v-60zM553 0h-471v750h471v-141h-305v-159h270v-130h-270v-179h305v-141z" />
    <glyph glyph-name="Eacute" unicode="&#xc9;" 
d="M390 805h-136v60l72 80h156v-60zM553 0h-471v750h471v-141h-305v-159h270v-130h-270v-179h305v-141z" />
    <glyph glyph-name="Ecircumflex" unicode="&#xca;" 
d="M490 800h-116l-56 58l-56 -58h-116v60l92 80h160l92 -80v-60zM553 0h-471v750h471v-141h-305v-159h270v-130h-270v-179h305v-141z" />
    <glyph glyph-name="Edieresis" unicode="&#xcb;" 
d="M291 800h-150v135h150v-135zM497 800h-151v135h151v-135zM553 0h-471v750h471v-141h-305v-159h270v-130h-270v-179h305v-141z" />
    <glyph glyph-name="Igrave" unicode="&#xcc;" horiz-adv-x="330" 
d="M236 805h-136l-92 80v60h156l72 -80v-60zM248 0h-166v750h166v-750z" />
    <glyph glyph-name="Iacute" unicode="&#xcd;" horiz-adv-x="330" 
d="M232 805h-136v60l72 80h156v-60zM248 0h-166v750h166v-750z" />
    <glyph glyph-name="Icircumflex" unicode="&#xce;" horiz-adv-x="330" 
d="M336 800h-116l-56 58l-56 -58h-116v60l92 80h160l92 -80v-60zM248 0h-166v750h166v-750z" />
    <glyph glyph-name="Idieresis" unicode="&#xcf;" horiz-adv-x="330" 
d="M137 800h-150v135h150v-135zM343 800h-151v135h151v-135zM248 0h-166v750h166v-750z" />
    <glyph glyph-name="Ntilde" unicode="&#xd1;" horiz-adv-x="795" 
d="M490 792c-27.333 0 -48.9971 5 -64.9971 15c-16.667 10 -34.334 15 -53.001 15c-19.333 0 -31 -8.33301 -35 -25h-100c-2.66699 40.667 5.5 73.667 24.5 99s46.167 38 81.5 38c27.333 0 48.666 -5 63.999 -15c14 -10 30.333 -15 49 -15
c19.333 0 30.666 8.33301 33.999 25h100c2.66699 -42 -4.33301 -75.333 -21 -100s-43 -37 -79 -37zM238.003 0h-156v750h156l319 -477v477h156v-750h-156l-319 469v-469z" />
    <glyph glyph-name="Ograve" unicode="&#xd2;" horiz-adv-x="826" 
d="M477 805h-136l-92 80v60h156l72 -80v-60zM413 -15c-110.667 0 -200.33 36.667 -268.997 110s-103 167.666 -103 282.999c0 114.667 34.167 207.834 102.5 279.501s158.166 107.5 269.499 107.5s201.166 -35.833 269.499 -107.5s102.5 -164.834 102.5 -279.501
c0 -115.333 -34.333 -209.666 -103 -282.999s-158.334 -110 -269.001 -110zM413.004 126c63.333 0 113.333 23.333 150 70c37.333 47.333 56 108 56 182c0 72 -18.667 131.333 -56 178c-37.333 45.333 -87.333 68 -150 68s-112.667 -22.667 -150 -68
c-37.333 -46.667 -56 -106 -56 -178c0 -74 18.667 -134.667 56 -182c36.667 -46.667 86.667 -70 150 -70z" />
    <glyph glyph-name="Oacute" unicode="&#xd3;" horiz-adv-x="826" 
d="M485 805h-136v60l72 80h156v-60zM413 -15c-110.667 0 -200.33 36.667 -268.997 110s-103 167.666 -103 282.999c0 114.667 34.167 207.834 102.5 279.501s158.166 107.5 269.499 107.5s201.166 -35.833 269.499 -107.5s102.5 -164.834 102.5 -279.501
c0 -115.333 -34.333 -209.666 -103 -282.999s-158.334 -110 -269.001 -110zM413.004 126c63.333 0 113.333 23.333 150 70c37.333 47.333 56 108 56 182c0 72 -18.667 131.333 -56 178c-37.333 45.333 -87.333 68 -150 68s-112.667 -22.667 -150 -68
c-37.333 -46.667 -56 -106 -56 -178c0 -74 18.667 -134.667 56 -182c36.667 -46.667 86.667 -70 150 -70z" />
    <glyph glyph-name="Ocircumflex" unicode="&#xd4;" horiz-adv-x="826" 
d="M585 800h-116l-56 58l-56 -58h-116v60l92 80h160l92 -80v-60zM413 -15c-110.667 0 -200.33 36.667 -268.997 110s-103 167.666 -103 282.999c0 114.667 34.167 207.834 102.5 279.501s158.166 107.5 269.499 107.5s201.166 -35.833 269.499 -107.5
s102.5 -164.834 102.5 -279.501c0 -115.333 -34.333 -209.666 -103 -282.999s-158.334 -110 -269.001 -110zM413.004 126c63.333 0 113.333 23.333 150 70c37.333 47.333 56 108 56 182c0 72 -18.667 131.333 -56 178c-37.333 45.333 -87.333 68 -150 68
s-112.667 -22.667 -150 -68c-37.333 -46.667 -56 -106 -56 -178c0 -74 18.667 -134.667 56 -182c36.667 -46.667 86.667 -70 150 -70z" />
    <glyph glyph-name="Otilde" unicode="&#xd5;" horiz-adv-x="826" 
d="M486 792c-27.333 0 -48.9971 5 -64.9971 15c-16.667 10 -34.334 15 -53.001 15c-19.333 0 -31 -8.33301 -35 -25h-100c-2.66699 40.667 5.5 73.667 24.5 99s46.167 38 81.5 38c27.333 0 48.666 -5 63.999 -15c14 -10 30.333 -15 49 -15
c19.333 0 30.666 8.33301 33.999 25h100c2.66699 -42 -4.33301 -75.333 -21 -100s-43 -37 -79 -37zM413.003 -15c-110.667 0 -200.33 36.667 -268.997 110s-103 167.666 -103 282.999c0 114.667 34.167 207.834 102.5 279.501s158.166 107.5 269.499 107.5
s201.166 -35.833 269.499 -107.5s102.5 -164.834 102.5 -279.501c0 -115.333 -34.333 -209.666 -103 -282.999s-158.334 -110 -269.001 -110zM413.007 126c63.333 0 113.333 23.333 150 70c37.333 47.333 56 108 56 182c0 72 -18.667 131.333 -56 178
c-37.333 45.333 -87.333 68 -150 68s-112.667 -22.667 -150 -68c-37.333 -46.667 -56 -106 -56 -178c0 -74 18.667 -134.667 56 -182c36.667 -46.667 86.667 -70 150 -70z" />
    <glyph glyph-name="Odieresis" unicode="&#xd6;" horiz-adv-x="826" 
d="M383 800h-150v135h150v-135zM589 800h-151v135h151v-135zM413 -15c-110.667 0 -200.33 36.667 -268.997 110s-103 167.666 -103 282.999c0 114.667 34.167 207.834 102.5 279.501s158.166 107.5 269.499 107.5s201.166 -35.833 269.499 -107.5
s102.5 -164.834 102.5 -279.501c0 -115.333 -34.333 -209.666 -103 -282.999s-158.334 -110 -269.001 -110zM413.004 126c63.333 0 113.333 23.333 150 70c37.333 47.333 56 108 56 182c0 72 -18.667 131.333 -56 178c-37.333 45.333 -87.333 68 -150 68
s-112.667 -22.667 -150 -68c-37.333 -46.667 -56 -106 -56 -178c0 -74 18.667 -134.667 56 -182c36.667 -46.667 86.667 -70 150 -70z" />
    <glyph glyph-name="Ugrave" unicode="&#xd9;" horiz-adv-x="759" 
d="M455 805h-136l-92 80v60h156l72 -80v-60zM383 -15c-92 0 -166.499 27.833 -223.499 83.5s-85.5 124.5 -85.5 206.5v475h166v-476c0 -42 12.833 -77.167 38.5 -105.5s60.167 -42.5 103.5 -42.5c45.333 0 81.166 14.167 107.499 42.5s39.5 63.5 39.5 105.5v476h156v-475
c0 -82 -28 -150.833 -84 -206.5s-128.667 -83.5 -218 -83.5z" />
    <glyph glyph-name="Uacute" unicode="&#xda;" horiz-adv-x="759" 
d="M448 805h-136v60l72 80h156v-60zM383 -15c-92 0 -166.499 27.833 -223.499 83.5s-85.5 124.5 -85.5 206.5v475h166v-476c0 -42 12.833 -77.167 38.5 -105.5s60.167 -42.5 103.5 -42.5c45.333 0 81.166 14.167 107.499 42.5s39.5 63.5 39.5 105.5v476h156v-475
c0 -82 -28 -150.833 -84 -206.5s-128.667 -83.5 -218 -83.5z" />
    <glyph glyph-name="Ucircumflex" unicode="&#xdb;" horiz-adv-x="759" 
d="M554 800h-116l-56 58l-56 -58h-116v60l92 80h160l92 -80v-60zM383 -15c-92 0 -166.499 27.833 -223.499 83.5s-85.5 124.5 -85.5 206.5v475h166v-476c0 -42 12.833 -77.167 38.5 -105.5s60.167 -42.5 103.5 -42.5c45.333 0 81.166 14.167 107.499 42.5
s39.5 63.5 39.5 105.5v476h156v-475c0 -82 -28 -150.833 -84 -206.5s-128.667 -83.5 -218 -83.5z" />
    <glyph glyph-name="Udieresis" unicode="&#xdc;" horiz-adv-x="759" 
d="M355 800h-150v135h150v-135zM561 800h-151v135h151v-135zM383 -15c-92 0 -166.499 27.833 -223.499 83.5s-85.5 124.5 -85.5 206.5v475h166v-476c0 -42 12.833 -77.167 38.5 -105.5s60.167 -42.5 103.5 -42.5c45.333 0 81.166 14.167 107.499 42.5s39.5 63.5 39.5 105.5
v476h156v-475c0 -82 -28 -150.833 -84 -206.5s-128.667 -83.5 -218 -83.5z" />
    <glyph glyph-name="Yacute" unicode="&#xdd;" horiz-adv-x="662" 
d="M399 805h-136v60l72 80h156v-60zM415 0h-166v300l-242 372v78h146l190 -304l178 304h130v-75l-236 -376v-299z" />
    <glyph glyph-name="germandbls" unicode="&#xdf;" horiz-adv-x="617" 
d="M366 -15c-14.667 0 -28.832 1.16895 -42.499 3.50195s-25.167 4.83301 -34.5 7.5s-15 4 -17 4v123c32 -8 54.667 -12 68 -12c29.333 0 51.166 8.16699 65.499 24.5s21.5 38.166 21.5 65.499c0 70 -49 107.333 -147 112v120c33.333 4.66699 59.333 17.667 78 39
s28 47.333 28 78c0 25.333 -7 45.666 -21 60.999s-35.667 23 -65 23c-28 0 -49.167 -9.33301 -63.5 -28s-21.5 -44.334 -21.5 -77.001v-529h-151v528c0 72 21.333 128.667 64 170s101.334 62 176.001 62c70 0 127.333 -17.333 172 -52c44 -34.667 66 -85 66 -151
c0 -35.333 -9.83301 -68.166 -29.5 -98.499s-45.834 -53.833 -78.501 -70.5c45.333 -12 81.333 -34.833 108 -68.5s40 -73.5 40 -119.5c0 -28 -4 -54.333 -12 -79s-20.167 -47.5 -36.5 -68.5s-38.833 -37.5 -67.5 -49.5s-62 -18 -100 -18z" />
    <glyph glyph-name="agrave" unicode="&#xe0;" horiz-adv-x="551" 
d="M354 600h-123l-97 90v60h143l77 -90v-60zM197 -15c-55.333 0 -96.667 15.668 -124 47.001c-28 30.667 -42 67.334 -42 110.001c0 49.333 18.167 87.833 54.5 115.5s90.5 41.5 162.5 41.5c15.333 0 30.833 -0.833008 46.5 -2.5s27.5 -3.16699 35.5 -4.5l12 -3v22
c0 56 -27.667 84 -83 84c-12 0 -23.167 -1.5 -33.5 -4.5s-18.5 -6.83301 -24.5 -11.5s-11.333 -9.33398 -16 -14.001s-7.66699 -8.33398 -9 -11.001l-3 -5h-114v67l1 1c19.333 40 54.333 69 105 87c28.667 10.667 61 16 97 16c76 0 133.5 -18.167 172.5 -54.5
s58.5 -89.5 58.5 -159.5v-306h-136l-10 64c-32 -52.667 -82 -79 -150 -79zM245.999 101.001c32.667 0 57 9.33301 73 28c15.333 18.667 23 36.667 23 54v22c-23.333 5.33301 -51.333 8 -84 8c-52 0 -78 -19 -78 -57c0 -36.667 22 -55 66 -55z" />
    <glyph glyph-name="aacute" unicode="&#xe1;" horiz-adv-x="551" 
d="M339 600h-123v60l77 90h144v-60zM197 -15c-55.333 0 -96.667 15.668 -124 47.001c-28 30.667 -42 67.334 -42 110.001c0 49.333 18.167 87.833 54.5 115.5s90.5 41.5 162.5 41.5c15.333 0 30.833 -0.833008 46.5 -2.5s27.5 -3.16699 35.5 -4.5l12 -3v22
c0 56 -27.667 84 -83 84c-12 0 -23.167 -1.5 -33.5 -4.5s-18.5 -6.83301 -24.5 -11.5s-11.333 -9.33398 -16 -14.001s-7.66699 -8.33398 -9 -11.001l-3 -5h-114v67l1 1c19.333 40 54.333 69 105 87c28.667 10.667 61 16 97 16c76 0 133.5 -18.167 172.5 -54.5
s58.5 -89.5 58.5 -159.5v-306h-136l-10 64c-32 -52.667 -82 -79 -150 -79zM245.999 101.001c32.667 0 57 9.33301 73 28c15.333 18.667 23 36.667 23 54v22c-23.333 5.33301 -51.333 8 -84 8c-52 0 -78 -19 -78 -57c0 -36.667 22 -55 66 -55z" />
    <glyph glyph-name="acircumflex" unicode="&#xe2;" horiz-adv-x="551" 
d="M447 600h-106l-61 73l-61 -73h-106v60l92 90h150l92 -90v-60zM197 -15c-55.333 0 -96.667 15.668 -124 47.001c-28 30.667 -42 67.334 -42 110.001c0 49.333 18.167 87.833 54.5 115.5s90.5 41.5 162.5 41.5c15.333 0 30.833 -0.833008 46.5 -2.5
s27.5 -3.16699 35.5 -4.5l12 -3v22c0 56 -27.667 84 -83 84c-12 0 -23.167 -1.5 -33.5 -4.5s-18.5 -6.83301 -24.5 -11.5s-11.333 -9.33398 -16 -14.001s-7.66699 -8.33398 -9 -11.001l-3 -5h-114v67l1 1c19.333 40 54.333 69 105 87c28.667 10.667 61 16 97 16
c76 0 133.5 -18.167 172.5 -54.5s58.5 -89.5 58.5 -159.5v-306h-136l-10 64c-32 -52.667 -82 -79 -150 -79zM245.999 101.001c32.667 0 57 9.33301 73 28c15.333 18.667 23 36.667 23 54v22c-23.333 5.33301 -51.333 8 -84 8c-52 0 -78 -19 -78 -57c0 -36.667 22 -55 66 -55
z" />
    <glyph glyph-name="atilde" unicode="&#xe3;" horiz-adv-x="551" 
d="M361 599c-23.333 0 -46.498 5.83301 -69.498 17.5s-40.833 17.5 -53.5 17.5c-18 0 -29.667 -10 -35 -30h-95c-2.66699 40.667 5.5 73.667 24.5 99s46.167 38 81.5 38c23.333 0 45.666 -5.66699 66.999 -17s38.333 -17 51 -17c19.333 0 30.666 9.66699 33.999 29h95
c2.66699 -42 -4.33301 -75.333 -21 -100s-43 -37 -79 -37zM197.002 -15c-55.333 0 -96.667 15.668 -124 47.001c-28 30.667 -42 67.334 -42 110.001c0 49.333 18.167 87.833 54.5 115.5s90.5 41.5 162.5 41.5c15.333 0 30.833 -0.833008 46.5 -2.5s27.5 -3.16699 35.5 -4.5
l12 -3v22c0 56 -27.667 84 -83 84c-12 0 -23.167 -1.5 -33.5 -4.5s-18.5 -6.83301 -24.5 -11.5s-11.333 -9.33398 -16 -14.001s-7.66699 -8.33398 -9 -11.001l-3 -5h-114v67l1 1c19.333 40 54.333 69 105 87c28.667 10.667 61 16 97 16c76 0 133.5 -18.167 172.5 -54.5
s58.5 -89.5 58.5 -159.5v-306h-136l-10 64c-32 -52.667 -82 -79 -150 -79zM246.001 101.001c32.667 0 57 9.33301 73 28c15.333 18.667 23 36.667 23 54v22c-23.333 5.33301 -51.333 8 -84 8c-52 0 -78 -19 -78 -57c0 -36.667 22 -55 66 -55z" />
    <glyph glyph-name="adieresis" unicode="&#xe4;" horiz-adv-x="551" 
d="M250 600h-145v140h145v-140zM456 600h-146v140h146v-140zM197 -15c-55.333 0 -96.667 15.668 -124 47.001c-28 30.667 -42 67.334 -42 110.001c0 49.333 18.167 87.833 54.5 115.5s90.5 41.5 162.5 41.5c15.333 0 30.833 -0.833008 46.5 -2.5s27.5 -3.16699 35.5 -4.5
l12 -3v22c0 56 -27.667 84 -83 84c-12 0 -23.167 -1.5 -33.5 -4.5s-18.5 -6.83301 -24.5 -11.5s-11.333 -9.33398 -16 -14.001s-7.66699 -8.33398 -9 -11.001l-3 -5h-114v67l1 1c19.333 40 54.333 69 105 87c28.667 10.667 61 16 97 16c76 0 133.5 -18.167 172.5 -54.5
s58.5 -89.5 58.5 -159.5v-306h-136l-10 64c-32 -52.667 -82 -79 -150 -79zM245.999 101.001c32.667 0 57 9.33301 73 28c15.333 18.667 23 36.667 23 54v22c-23.333 5.33301 -51.333 8 -84 8c-52 0 -78 -19 -78 -57c0 -36.667 22 -55 66 -55z" />
    <glyph glyph-name="aring" unicode="&#xe5;" horiz-adv-x="551" 
d="M283 568c-43.333 0 -76.333 9 -99 27s-34 41 -34 69s11.333 51 34 69s55.667 27 99 27s76.5 -9 99.5 -27s34.5 -41 34.5 -69s-11.5 -51 -34.5 -69s-56.167 -27 -99.5 -27zM283 634c10 0 18.333 2.66699 25 8s10 12.666 10 21.999s-3.33301 16.666 -10 21.999s-15 8 -25 8
c-9.33301 0 -17.5 -2.66699 -24.5 -8s-10.5 -12.666 -10.5 -21.999s3.5 -16.666 10.5 -21.999s15.167 -8 24.5 -8zM197 -15c-55.333 0 -96.667 15.668 -124 47.001c-28 30.667 -42 67.334 -42 110.001c0 49.333 18.167 87.833 54.5 115.5s90.5 41.5 162.5 41.5
c15.333 0 30.833 -0.833008 46.5 -2.5s27.5 -3.16699 35.5 -4.5l12 -3v22c0 56 -27.667 84 -83 84c-12 0 -23.167 -1.5 -33.5 -4.5s-18.5 -6.83301 -24.5 -11.5s-11.333 -9.33398 -16 -14.001s-7.66699 -8.33398 -9 -11.001l-3 -5h-114v67l1 1c19.333 40 54.333 69 105 87
c28.667 10.667 61 16 97 16c76 0 133.5 -18.167 172.5 -54.5s58.5 -89.5 58.5 -159.5v-306h-136l-10 64c-32 -52.667 -82 -79 -150 -79zM245.999 101.001c32.667 0 57 9.33301 73 28c15.333 18.667 23 36.667 23 54v22c-23.333 5.33301 -51.333 8 -84 8
c-52 0 -78 -19 -78 -57c0 -36.667 22 -55 66 -55z" />
    <glyph glyph-name="ae" unicode="&#xe6;" horiz-adv-x="897" 
d="M622 -15c-86.667 0 -152.002 28.3369 -196.002 85.0039c-42 -56.667 -108.667 -85 -200 -85c-60.667 0 -108.5 14.667 -143.5 44s-52.5 67 -52.5 113c0 50 18.667 89.167 56 117.5s93.666 42.5 168.999 42.5c16 0 32 -0.833008 48 -2.5s28 -3.5 36 -5.5l12 -2v19
c0 27.333 -8.16699 48.166 -24.5 62.499s-38.833 21.5 -67.5 21.5c-12 0 -23.333 -1.5 -34 -4.5s-19 -6.83301 -25 -11.5s-11.167 -9.33398 -15.5 -14.001s-7.5 -8.33398 -9.5 -11.001l-3 -5h-113v67l1 1c20 40.667 55.333 70 106 88c28 10 59.667 15 95 15
c83.333 0 144 -24.333 182 -73c45.333 48.667 104 73 176 73c80.667 0 141.167 -21.833 181.5 -65.5s60.5 -101.167 60.5 -172.5c0 -10.667 -0.5 -21.334 -1.5 -32.001s-2.16699 -18.667 -3.5 -24l-2 -8h-352c4 -34.667 16.5 -62 37.5 -82s49.167 -30 84.5 -30
c16.667 0 31.834 1.5 45.501 4.5s24.334 6.83301 32.001 11.5s14 9.33398 19 14.001s8.16699 8.66699 9.5 12l3 4h118v-67c-1.33301 -2.66699 -3.5 -6.33398 -6.5 -11.001s-10.5 -12.667 -22.5 -24s-25.833 -21.333 -41.5 -30s-37.667 -16.667 -66 -24
s-59.166 -11 -92.499 -11zM503.998 309.004h212.002c0 25.333 -8.83301 46.833 -26.5 64.5s-42.834 26.5 -75.501 26.5c-58.667 0 -95.334 -30.333 -110.001 -91zM250 96.0039c30.667 0 55.167 8.66797 73.5 26.001s27.5 37.666 27.5 60.999v14c-23.333 5.33301 -52 8 -86 8
c-57.333 0 -86 -18.333 -86 -55c0 -36 23.667 -54 71 -54z" />
    <glyph glyph-name="ccedilla" unicode="&#xe7;" horiz-adv-x="545" 
d="M441 -123c0 -60 -41.332 -93.6631 -123.999 -100.996h-85v80c45.333 0 68 12 68 36c0 23.333 -21.333 35 -64 35v64c-64 11.333 -113.333 41 -148 89s-52 105 -52 171c0 76.667 24 140.834 72 192.501s112 77.5 192 77.5c18 0 35.333 -1.33301 52 -4
s31 -6.33398 43 -11.001s23.333 -9.83398 34 -15.501s19.834 -11.834 27.501 -18.501s14.334 -13.334 20.001 -20.001s10.5 -12.834 14.5 -18.501s7.16699 -10.834 9.5 -15.501l5.5 -11l1 -4v-67h-113c0.666992 0 0.166992 1.83301 -1.5 5.5s-4.66699 8.16699 -9 13.5
s-9.83301 10.666 -16.5 15.999s-15.834 9.83301 -27.501 13.5s-24.834 5.5 -39.501 5.5c-36.667 0 -64.667 -13.167 -84 -39.5s-29 -59.5 -29 -99.5c0 -39.333 9.66699 -71.666 29 -96.999s47.333 -38 84 -38c24.667 0 44.834 4.5 60.501 13.5s25.5 17.833 29.5 26.5l5 14
h113v-67c-0.666992 -2.66699 -2 -6 -4 -10s-6.83301 -11.667 -14.5 -23s-16.667 -21.666 -27 -30.999s-24.833 -18.833 -43.5 -28.5s-39.334 -16.5 -62.001 -20.5v-30c25.333 -4 45.666 -13.333 60.999 -28s23 -33 23 -55z" />
    <glyph glyph-name="egrave" unicode="&#xe8;" horiz-adv-x="583" 
d="M353 600h-123l-97 90v60h143l77 -90v-60zM308 -15c-87.333 0 -154.502 24.668 -201.502 74.001s-70.5 113.333 -70.5 192c0 76.667 23.833 140.667 71.5 192s112.5 77 194.5 77s143.333 -21.833 184 -65.5s61 -101.167 61 -172.5c0 -10.667 -0.5 -21.334 -1.5 -32.001
s-2.16699 -18.667 -3.5 -24l-2 -8h-352c4.66699 -34.667 17.5 -62 38.5 -82s49.167 -30 84.5 -30c16.667 0 31.834 1.5 45.501 4.5s24.167 6.83301 31.5 11.5s13.5 9.33398 18.5 14.001s8.16699 8.66699 9.5 12l3 4h118v-67c-1.33301 -2.66699 -3.5 -6.33398 -6.5 -11.001
s-10.5 -12.667 -22.5 -24s-25.833 -21.333 -41.5 -30s-37.667 -16.667 -66 -24s-59.166 -11 -92.499 -11zM190.998 309.001h211c0 26 -8.66699 47.667 -26 65s-42.333 26 -75 26c-59.333 0 -96 -30.333 -110 -91z" />
    <glyph glyph-name="eacute" unicode="&#xe9;" horiz-adv-x="583" 
d="M356 600h-123v60l77 90h144v-60zM308 -15c-87.333 0 -154.502 24.668 -201.502 74.001s-70.5 113.333 -70.5 192c0 76.667 23.833 140.667 71.5 192s112.5 77 194.5 77s143.333 -21.833 184 -65.5s61 -101.167 61 -172.5c0 -10.667 -0.5 -21.334 -1.5 -32.001
s-2.16699 -18.667 -3.5 -24l-2 -8h-352c4.66699 -34.667 17.5 -62 38.5 -82s49.167 -30 84.5 -30c16.667 0 31.834 1.5 45.501 4.5s24.167 6.83301 31.5 11.5s13.5 9.33398 18.5 14.001s8.16699 8.66699 9.5 12l3 4h118v-67c-1.33301 -2.66699 -3.5 -6.33398 -6.5 -11.001
s-10.5 -12.667 -22.5 -24s-25.833 -21.333 -41.5 -30s-37.667 -16.667 -66 -24s-59.166 -11 -92.499 -11zM190.998 309.001h211c0 26 -8.66699 47.667 -26 65s-42.333 26 -75 26c-59.333 0 -96 -30.333 -110 -91z" />
    <glyph glyph-name="ecircumflex" unicode="&#xea;" horiz-adv-x="583" 
d="M469 600h-106l-61 73l-61 -73h-106v60l92 90h150l92 -90v-60zM308 -15c-87.333 0 -154.502 24.668 -201.502 74.001s-70.5 113.333 -70.5 192c0 76.667 23.833 140.667 71.5 192s112.5 77 194.5 77s143.333 -21.833 184 -65.5s61 -101.167 61 -172.5
c0 -10.667 -0.5 -21.334 -1.5 -32.001s-2.16699 -18.667 -3.5 -24l-2 -8h-352c4.66699 -34.667 17.5 -62 38.5 -82s49.167 -30 84.5 -30c16.667 0 31.834 1.5 45.501 4.5s24.167 6.83301 31.5 11.5s13.5 9.33398 18.5 14.001s8.16699 8.66699 9.5 12l3 4h118v-67
c-1.33301 -2.66699 -3.5 -6.33398 -6.5 -11.001s-10.5 -12.667 -22.5 -24s-25.833 -21.333 -41.5 -30s-37.667 -16.667 -66 -24s-59.166 -11 -92.499 -11zM190.998 309.001h211c0 26 -8.66699 47.667 -26 65s-42.333 26 -75 26c-59.333 0 -96 -30.333 -110 -91z" />
    <glyph glyph-name="edieresis" unicode="&#xeb;" horiz-adv-x="583" 
d="M271 600h-145v140h145v-140zM477 600h-146v140h146v-140zM308 -15c-87.333 0 -154.502 24.668 -201.502 74.001s-70.5 113.333 -70.5 192c0 76.667 23.833 140.667 71.5 192s112.5 77 194.5 77s143.333 -21.833 184 -65.5s61 -101.167 61 -172.5
c0 -10.667 -0.5 -21.334 -1.5 -32.001s-2.16699 -18.667 -3.5 -24l-2 -8h-352c4.66699 -34.667 17.5 -62 38.5 -82s49.167 -30 84.5 -30c16.667 0 31.834 1.5 45.501 4.5s24.167 6.83301 31.5 11.5s13.5 9.33398 18.5 14.001s8.16699 8.66699 9.5 12l3 4h118v-67
c-1.33301 -2.66699 -3.5 -6.33398 -6.5 -11.001s-10.5 -12.667 -22.5 -24s-25.833 -21.333 -41.5 -30s-37.667 -16.667 -66 -24s-59.166 -11 -92.499 -11zM190.998 309.001h211c0 26 -8.66699 47.667 -26 65s-42.333 26 -75 26c-59.333 0 -96 -30.333 -110 -91z" />
    <glyph glyph-name="igrave" unicode="&#xec;" horiz-adv-x="277" 
d="M212 600h-123l-97 90v60h143l77 -90v-60zM213 0h-150v505h150v-505z" />
    <glyph glyph-name="iacute" unicode="&#xed;" horiz-adv-x="277" 
d="M187 600h-123v60l77 90h144v-60zM214 0h-150v505h150v-505z" />
    <glyph glyph-name="icircumflex" unicode="&#xee;" horiz-adv-x="276" 
d="M305 600h-106l-61 73l-61 -73h-106v60l92 90h150l92 -90v-60zM213 0h-150v505h150v-505z" />
    <glyph glyph-name="idieresis" unicode="&#xef;" horiz-adv-x="276" 
d="M107 600h-145v140h145v-140zM313 600h-146v140h146v-140zM213 0h-150v505h150v-505z" />
    <glyph glyph-name="ntilde" unicode="&#xf1;" 
d="M374 599c-23.333 0 -46.498 5.83301 -69.498 17.5s-40.833 17.5 -53.5 17.5c-18 0 -29.667 -10 -35 -30h-95c-2.66699 40.667 5.5 73.667 24.5 99s46.167 38 81.5 38c23.333 0 45.666 -5.66699 66.999 -17s38.333 -17 51 -17c19.333 0 30.666 9.66699 33.999 29h95
c2.66699 -42 -4.33301 -75.333 -21 -100s-43 -37 -79 -37zM215.002 0h-151v505h141l7 -67c12.667 22 32 41.167 58 57.5s57 24.5 93 24.5c62 0 107.667 -19.333 137 -58s44 -88 44 -148v-314h-150v286c0 66 -27.667 99 -83 99c-36 0 -61 -10.667 -75 -32
c-14 -20.667 -21 -43.667 -21 -69v-284z" />
    <glyph glyph-name="ograve" unicode="&#xf2;" horiz-adv-x="606" 
d="M365 600h-123l-97 90v60h143l77 -90v-60zM303 -15c-81.333 0 -146.166 25.667 -194.499 77s-72.5 115.333 -72.5 192c0 76 24.167 139.333 72.5 190s113.166 76 194.499 76s146.166 -25.333 194.499 -76s72.5 -114 72.5 -190c0 -76.667 -24.167 -140.667 -72.5 -192
s-113.166 -77 -194.499 -77zM303 116c38 0 66.833 13 86.5 39s29.5 59 29.5 99c0 38.667 -10 70.834 -30 96.501s-48.667 38.5 -86 38.5s-66 -12.833 -86 -38.5s-30 -57.834 -30 -96.501c0 -40 9.83301 -73 29.5 -99s48.5 -39 86.5 -39z" />
    <glyph glyph-name="oacute" unicode="&#xf3;" horiz-adv-x="606" 
d="M354 600h-123v60l77 90h144v-60zM303 -15c-81.333 0 -146.166 25.667 -194.499 77s-72.5 115.333 -72.5 192c0 76 24.167 139.333 72.5 190s113.166 76 194.499 76s146.166 -25.333 194.499 -76s72.5 -114 72.5 -190c0 -76.667 -24.167 -140.667 -72.5 -192
s-113.166 -77 -194.499 -77zM303 116c38 0 66.833 13 86.5 39s29.5 59 29.5 99c0 38.667 -10 70.834 -30 96.501s-48.667 38.5 -86 38.5s-66 -12.833 -86 -38.5s-30 -57.834 -30 -96.501c0 -40 9.83301 -73 29.5 -99s48.5 -39 86.5 -39z" />
    <glyph glyph-name="ocircumflex" unicode="&#xf4;" horiz-adv-x="606" 
d="M464 600h-106l-61 73l-61 -73h-106v60l92 90h150l92 -90v-60zM303 -15c-81.333 0 -146.166 25.667 -194.499 77s-72.5 115.333 -72.5 192c0 76 24.167 139.333 72.5 190s113.166 76 194.499 76s146.166 -25.333 194.499 -76s72.5 -114 72.5 -190
c0 -76.667 -24.167 -140.667 -72.5 -192s-113.166 -77 -194.499 -77zM303 116c38 0 66.833 13 86.5 39s29.5 59 29.5 99c0 38.667 -10 70.834 -30 96.501s-48.667 38.5 -86 38.5s-66 -12.833 -86 -38.5s-30 -57.834 -30 -96.501c0 -40 9.83301 -73 29.5 -99
s48.5 -39 86.5 -39z" />
    <glyph glyph-name="otilde" unicode="&#xf5;" horiz-adv-x="606" 
d="M379 599c-23.333 0 -46.498 5.83301 -69.498 17.5s-40.833 17.5 -53.5 17.5c-18 0 -29.667 -10 -35 -30h-95c-2.66699 40.667 5.5 73.667 24.5 99s46.167 38 81.5 38c23.333 0 45.666 -5.66699 66.999 -17s38.333 -17 51 -17c19.333 0 30.666 9.66699 33.999 29h95
c2.66699 -42 -4.33301 -75.333 -21 -100s-43 -37 -79 -37zM303.002 -15c-81.333 0 -146.166 25.667 -194.499 77s-72.5 115.333 -72.5 192c0 76 24.167 139.333 72.5 190s113.166 76 194.499 76s146.166 -25.333 194.499 -76s72.5 -114 72.5 -190
c0 -76.667 -24.167 -140.667 -72.5 -192s-113.166 -77 -194.499 -77zM303.002 116c38 0 66.833 13 86.5 39s29.5 59 29.5 99c0 38.667 -10 70.834 -30 96.501s-48.667 38.5 -86 38.5s-66 -12.833 -86 -38.5s-30 -57.834 -30 -96.501c0 -40 9.83301 -73 29.5 -99
s48.5 -39 86.5 -39z" />
    <glyph glyph-name="odieresis" unicode="&#xf6;" horiz-adv-x="606" 
d="M274 600h-145v140h145v-140zM480 600h-146v140h146v-140zM303 -15c-81.333 0 -146.166 25.667 -194.499 77s-72.5 115.333 -72.5 192c0 76 24.167 139.333 72.5 190s113.166 76 194.499 76s146.166 -25.333 194.499 -76s72.5 -114 72.5 -190
c0 -76.667 -24.167 -140.667 -72.5 -192s-113.166 -77 -194.499 -77zM303 116c38 0 66.833 13 86.5 39s29.5 59 29.5 99c0 38.667 -10 70.834 -30 96.501s-48.667 38.5 -86 38.5s-66 -12.833 -86 -38.5s-30 -57.834 -30 -96.501c0 -40 9.83301 -73 29.5 -99
s48.5 -39 86.5 -39z" />
    <glyph glyph-name="ugrave" unicode="&#xf9;" horiz-adv-x="599" 
d="M356 600h-123l-97 90v60h143l77 -90v-60zM241 -15c-62.667 0 -108.667 19.333 -138 58s-44 88 -44 148v314h151v-286c0 -66 26.667 -99 80 -99c35.333 0 60 10.667 74 32c13.333 21.333 20 44.333 20 69v284h151v-505h-141l-7 67c-12.667 -22 -31.5 -41.167 -56.5 -57.5
s-54.833 -24.5 -89.5 -24.5z" />
    <glyph glyph-name="uacute" unicode="&#xfa;" horiz-adv-x="599" 
d="M355 600h-123v60l77 90h144v-60zM241 -15c-62.667 0 -108.667 19.333 -138 58s-44 88 -44 148v314h151v-286c0 -66 26.667 -99 80 -99c35.333 0 60 10.667 74 32c13.333 21.333 20 44.333 20 69v284h151v-505h-141l-7 67c-12.667 -22 -31.5 -41.167 -56.5 -57.5
s-54.833 -24.5 -89.5 -24.5z" />
    <glyph glyph-name="ucircumflex" unicode="&#xfb;" horiz-adv-x="599" 
d="M462 600h-106l-61 73l-61 -73h-106v60l92 90h150l92 -90v-60zM241 -15c-62.667 0 -108.667 19.333 -138 58s-44 88 -44 148v314h151v-286c0 -66 26.667 -99 80 -99c35.333 0 60 10.667 74 32c13.333 21.333 20 44.333 20 69v284h151v-505h-141l-7 67
c-12.667 -22 -31.5 -41.167 -56.5 -57.5s-54.833 -24.5 -89.5 -24.5z" />
    <glyph glyph-name="udieresis" unicode="&#xfc;" horiz-adv-x="599" 
d="M266 600h-145v140h145v-140zM472 600h-146v140h146v-140zM241 -15c-62.667 0 -108.667 19.333 -138 58s-44 88 -44 148v314h151v-286c0 -66 26.667 -99 80 -99c35.333 0 60 10.667 74 32c13.333 21.333 20 44.333 20 69v284h151v-505h-141l-7 67
c-12.667 -22 -31.5 -41.167 -56.5 -57.5s-54.833 -24.5 -89.5 -24.5z" />
    <glyph glyph-name="yacute" unicode="&#xfd;" horiz-adv-x="556" 
d="M349 600h-123v60l77 90h144v-60zM544 438l-340 -688h-128v70l126 226l-182 389v70h136l129 -296l134 296h125v-67z" />
    <glyph glyph-name="ydieresis" unicode="&#xff;" horiz-adv-x="556" 
d="M255 600h-145v140h145v-140zM461 600h-146v140h146v-140zM544 438l-340 -688h-128v70l126 226l-182 389v70h136l129 -296l134 296h125v-67z" />
    <glyph glyph-name="Amacron" unicode="&#x100;" horiz-adv-x="706" 
d="M505 805h-306v110h306v-110zM203 159l-57 -159h-133v70l255 680h169l254 -670v-80h-144l-58 159h-286zM249 295h196l-98 276z" />
    <glyph glyph-name="amacron" unicode="&#x101;" horiz-adv-x="551" 
d="M428 610h-286v116h286v-116zM197 -15c-55.333 0 -96.667 15.668 -124 47.001c-28 30.667 -42 67.334 -42 110.001c0 49.333 18.167 87.833 54.5 115.5s90.5 41.5 162.5 41.5c15.333 0 30.833 -0.833008 46.5 -2.5s27.5 -3.16699 35.5 -4.5l12 -3v22
c0 56 -27.667 84 -83 84c-12 0 -23.167 -1.5 -33.5 -4.5s-18.5 -6.83301 -24.5 -11.5s-11.333 -9.33398 -16 -14.001s-7.66699 -8.33398 -9 -11.001l-3 -5h-114v67l1 1c19.333 40 54.333 69 105 87c28.667 10.667 61 16 97 16c76 0 133.5 -18.167 172.5 -54.5
s58.5 -89.5 58.5 -159.5v-306h-136l-10 64c-32 -52.667 -82 -79 -150 -79zM245.999 101.001c32.667 0 57 9.33301 73 28c15.333 18.667 23 36.667 23 54v22c-23.333 5.33301 -51.333 8 -84 8c-52 0 -78 -19 -78 -57c0 -36.667 22 -55 66 -55z" />
    <glyph glyph-name="Abreve" unicode="&#x102;" horiz-adv-x="706" 
d="M351 790c-24 0 -45.667 2.33008 -65 6.99707s-34.166 10.334 -44.499 17.001s-19 13.334 -26 20.001s-11.5 12.334 -13.5 17.001l-4 7v75h80c0 -1.33301 0.5 -2.83301 1.5 -4.5s3.33301 -5 7 -10s7.83398 -9.33301 12.501 -13s11.667 -7 21 -10s19.666 -4.5 30.999 -4.5
c18.667 0 33.667 3.5 45 10.5s18 13.833 20 20.5l4 11h80v-75c-0.666992 -2 -1.83398 -4.5 -3.50098 -7.5s-6 -8.33301 -13 -16s-15.5 -14.5 -25.5 -20.5s-24.5 -11.5 -43.5 -16.5s-40.167 -7.5 -63.5 -7.5zM203 158.997l-57 -159h-133v70l255 680h169l254 -670v-80h-144
l-58 159h-286zM249 294.997h196l-98 276z" />
    <glyph glyph-name="abreve" unicode="&#x103;" horiz-adv-x="551" 
d="M271 588c-23.333 0 -44.5029 2.50098 -63.5029 7.50098s-33.833 11 -44.5 18s-19.667 14.167 -27 21.5s-12.166 13.166 -14.499 17.499s-3.5 6.83301 -3.5 7.5v75h80c1.33301 -3.33301 3.5 -7.33301 6.5 -12s10.667 -10.834 23 -18.501s26.833 -11.5 43.5 -11.5
s30.667 3.5 42 10.5s18.666 13.833 21.999 20.5l5 11h80v-75c0 -0.666992 -1.16699 -3.16699 -3.5 -7.5s-7.16602 -10.166 -14.499 -17.499s-16.166 -14.5 -26.499 -21.5s-24.666 -13 -42.999 -18s-38.833 -7.5 -61.5 -7.5zM196.997 -14.999
c-55.333 0 -96.667 15.668 -124 47.001c-28 30.667 -42 67.334 -42 110.001c0 49.333 18.167 87.833 54.5 115.5s90.5 41.5 162.5 41.5c15.333 0 30.833 -0.833008 46.5 -2.5s27.5 -3.16699 35.5 -4.5l12 -3v22c0 56 -27.667 84 -83 84c-12 0 -23.167 -1.5 -33.5 -4.5
s-18.5 -6.83301 -24.5 -11.5s-11.333 -9.33398 -16 -14.001s-7.66699 -8.33398 -9 -11.001l-3 -5h-114v67l1 1c19.333 40 54.333 69 105 87c28.667 10.667 61 16 97 16c76 0 133.5 -18.167 172.5 -54.5s58.5 -89.5 58.5 -159.5v-306h-136l-10 64
c-32 -52.667 -82 -79 -150 -79zM245.996 101.002c32.667 0 57 9.33301 73 28c15.333 18.667 23 36.667 23 54v22c-23.333 5.33301 -51.333 8 -84 8c-52 0 -78 -19 -78 -57c0 -36.667 22 -55 66 -55z" />
    <glyph glyph-name="Aogonek" unicode="&#x104;" horiz-adv-x="706" 
d="M501 -91c0 23.333 7.66797 43.334 23.001 60.001s35.666 27 60.999 31h-38l-58 159h-286l-57 -159h-133v70l255 680h169l254 -670v-80c-38 -7.33301 -57 -25.333 -57 -54c0 -35.333 24.333 -53 73 -53v-85h-80c-20.667 1.33301 -39.5 4.66602 -56.5 9.99902
s-32.833 15.833 -47.5 31.5s-22 35.5 -22 59.5zM249.001 295.001h196l-98 276z" />
    <glyph glyph-name="aogonek" unicode="&#x105;" horiz-adv-x="551" 
d="M303 -91c0 23.333 7.66699 43.335 23 60.002s35.666 27 60.999 31h-30l-10 64c-32 -52.667 -82 -79 -150 -79c-55.333 0 -96.666 15.667 -123.999 47c-28 30.667 -42 67.334 -42 110.001c0 49.333 18.167 87.833 54.5 115.5s90.5 41.5 162.5 41.5
c15.333 0 30.833 -0.833008 46.5 -2.5s27.5 -3.16699 35.5 -4.5l12 -3v22c0 56 -27.667 84 -83 84c-12 0 -23.167 -1.5 -33.5 -4.5s-18.5 -6.83301 -24.5 -11.5s-11.333 -9.33398 -16 -14.001s-7.66699 -8.33398 -9 -11.001l-3 -5h-114v67l1 1c19.333 40 54.333 69 105 87
c28.667 10.667 61 16 97 16c76 0 133.5 -18.167 172.5 -54.5s58.5 -89.5 58.5 -159.5v-306c-38 -7.33301 -57 -25.333 -57 -54c0 -35.333 24.333 -53 73 -53v-85h-80c-20.667 1.33301 -39.5 4.66602 -56.5 9.99902s-32.833 15.833 -47.5 31.5s-22 35.5 -22 59.5z
M246 101.002c32.667 0 57 9.33301 73 28c15.333 18.667 23 36.667 23 54v22c-23.333 5.33301 -51.333 8 -84 8c-52 0 -78 -19 -78 -57c0 -36.667 22 -55 66 -55z" />
    <glyph glyph-name="Cacute" unicode="&#x106;" horiz-adv-x="729" 
d="M477 805h-136v60l72 80h156v-60zM409 -15c-113.333 0 -202.834 35.8311 -268.501 107.498s-98.5 165.834 -98.5 282.501c0 117.333 33.5 211.666 100.5 282.999s155.833 107 266.5 107c46.667 0 88.834 -5.66699 126.501 -17s67 -25.666 88 -42.999
s37.167 -34.166 48.5 -50.499s18.666 -31.5 21.999 -45.5v-76h-131c-3.33301 20.667 -17.666 41 -42.999 61s-61.666 30 -108.999 30c-62 0 -111.333 -22.333 -148 -67s-55 -105 -55 -181s18.333 -136.333 55 -181c37.333 -45.333 86.666 -68 147.999 -68
c46.667 0 83 10.5 109 31.5s42 42.167 48 63.5h131v-76c-10 -38 -40.167 -74.333 -90.5 -109s-116.833 -52 -199.5 -52z" />
    <glyph glyph-name="cacute" unicode="&#x107;" horiz-adv-x="545" 
d="M348 600h-123v60l77 90h144v-60zM300 -15c-84.667 0 -149.835 25.002 -195.502 75.002s-68.5 113.667 -68.5 191c0 76.667 24 140.834 72 192.501s112 77.5 192 77.5c18 0 35.333 -1.33301 52 -4s31 -6.33398 43 -11.001s23.333 -9.83398 34 -15.501
s19.834 -11.834 27.501 -18.501s14.334 -13.334 20.001 -20.001s10.5 -12.834 14.5 -18.501s7.16699 -10.834 9.5 -15.501l5.5 -11l1 -4v-67h-113c0.666992 0 0.166992 1.83301 -1.5 5.5s-4.66699 8.16699 -9 13.5s-9.83301 10.666 -16.5 15.999
s-15.834 9.83301 -27.501 13.5s-24.834 5.5 -39.501 5.5c-36.667 0 -64.667 -13.167 -84 -39.5s-29 -59.5 -29 -99.5c0 -39.333 9.66699 -71.666 29 -96.999s47.333 -38 84 -38c24.667 0 44.834 4.5 60.501 13.5s25.5 17.833 29.5 26.5l5 14h113v-67
c-1.33301 -3.33301 -3.16602 -7.66602 -5.49902 -12.999s-8.83301 -14.666 -19.5 -27.999s-23 -25.166 -37 -35.499s-34 -19.833 -60 -28.5s-54.667 -13 -86 -13z" />
    <glyph glyph-name="Ccircumflex" unicode="&#x108;" horiz-adv-x="729" 
d="M577 800h-116l-56 58l-56 -58h-116v60l92 80h160l92 -80v-60zM409 -15c-113.333 0 -202.834 35.8311 -268.501 107.498s-98.5 165.834 -98.5 282.501c0 117.333 33.5 211.666 100.5 282.999s155.833 107 266.5 107c46.667 0 88.834 -5.66699 126.501 -17
s67 -25.666 88 -42.999s37.167 -34.166 48.5 -50.499s18.666 -31.5 21.999 -45.5v-76h-131c-3.33301 20.667 -17.666 41 -42.999 61s-61.666 30 -108.999 30c-62 0 -111.333 -22.333 -148 -67s-55 -105 -55 -181s18.333 -136.333 55 -181
c37.333 -45.333 86.666 -68 147.999 -68c46.667 0 83 10.5 109 31.5s42 42.167 48 63.5h131v-76c-10 -38 -40.167 -74.333 -90.5 -109s-116.833 -52 -199.5 -52z" />
    <glyph glyph-name="ccircumflex" unicode="&#x109;" horiz-adv-x="545" 
d="M461 600h-106l-61 73l-61 -73h-106v60l92 90h150l92 -90v-60zM300 -15c-84.667 0 -149.835 25.002 -195.502 75.002s-68.5 113.667 -68.5 191c0 76.667 24 140.834 72 192.501s112 77.5 192 77.5c18 0 35.333 -1.33301 52 -4s31 -6.33398 43 -11.001
s23.333 -9.83398 34 -15.501s19.834 -11.834 27.501 -18.501s14.334 -13.334 20.001 -20.001s10.5 -12.834 14.5 -18.501s7.16699 -10.834 9.5 -15.501l5.5 -11l1 -4v-67h-113c0.666992 0 0.166992 1.83301 -1.5 5.5s-4.66699 8.16699 -9 13.5s-9.83301 10.666 -16.5 15.999
s-15.834 9.83301 -27.501 13.5s-24.834 5.5 -39.501 5.5c-36.667 0 -64.667 -13.167 -84 -39.5s-29 -59.5 -29 -99.5c0 -39.333 9.66699 -71.666 29 -96.999s47.333 -38 84 -38c24.667 0 44.834 4.5 60.501 13.5s25.5 17.833 29.5 26.5l5 14h113v-67
c-1.33301 -3.33301 -3.16602 -7.66602 -5.49902 -12.999s-8.83301 -14.666 -19.5 -27.999s-23 -25.166 -37 -35.499s-34 -19.833 -60 -28.5s-54.667 -13 -86 -13z" />
    <glyph glyph-name="Cdotaccent" unicode="&#x10a;" horiz-adv-x="729" 
d="M490 810h-166v135h166v-135zM409 -15c-113.333 0 -202.834 35.8311 -268.501 107.498s-98.5 165.834 -98.5 282.501c0 117.333 33.5 211.666 100.5 282.999s155.833 107 266.5 107c46.667 0 88.834 -5.66699 126.501 -17s67 -25.666 88 -42.999
s37.167 -34.166 48.5 -50.499s18.666 -31.5 21.999 -45.5v-76h-131c-3.33301 20.667 -17.666 41 -42.999 61s-61.666 30 -108.999 30c-62 0 -111.333 -22.333 -148 -67s-55 -105 -55 -181s18.333 -136.333 55 -181c37.333 -45.333 86.666 -68 147.999 -68
c46.667 0 83 10.5 109 31.5s42 42.167 48 63.5h131v-76c-10 -38 -40.167 -74.333 -90.5 -109s-116.833 -52 -199.5 -52z" />
    <glyph glyph-name="cdotaccent" unicode="&#x10b;" horiz-adv-x="545" 
d="M370 600h-156v140h156v-140zM300 -15c-84.667 0 -149.835 25.002 -195.502 75.002s-68.5 113.667 -68.5 191c0 76.667 24 140.834 72 192.501s112 77.5 192 77.5c18 0 35.333 -1.33301 52 -4s31 -6.33398 43 -11.001s23.333 -9.83398 34 -15.501
s19.834 -11.834 27.501 -18.501s14.334 -13.334 20.001 -20.001s10.5 -12.834 14.5 -18.501s7.16699 -10.834 9.5 -15.501l5.5 -11l1 -4v-67h-113c0.666992 0 0.166992 1.83301 -1.5 5.5s-4.66699 8.16699 -9 13.5s-9.83301 10.666 -16.5 15.999
s-15.834 9.83301 -27.501 13.5s-24.834 5.5 -39.501 5.5c-36.667 0 -64.667 -13.167 -84 -39.5s-29 -59.5 -29 -99.5c0 -39.333 9.66699 -71.666 29 -96.999s47.333 -38 84 -38c24.667 0 44.834 4.5 60.501 13.5s25.5 17.833 29.5 26.5l5 14h113v-67
c-1.33301 -3.33301 -3.16602 -7.66602 -5.49902 -12.999s-8.83301 -14.666 -19.5 -27.999s-23 -25.166 -37 -35.499s-34 -19.833 -60 -28.5s-54.667 -13 -86 -13z" />
    <glyph glyph-name="Ccaron" unicode="&#x10c;" horiz-adv-x="729" 
d="M574 880l-90 -80h-160l-94 80v60h116l58 -58l54 58h116v-60zM409 -15c-113.333 0 -202.834 35.8311 -268.501 107.498s-98.5 165.834 -98.5 282.501c0 117.333 33.5 211.666 100.5 282.999s155.833 107 266.5 107c46.667 0 88.834 -5.66699 126.501 -17
s67 -25.666 88 -42.999s37.167 -34.166 48.5 -50.499s18.666 -31.5 21.999 -45.5v-76h-131c-3.33301 20.667 -17.666 41 -42.999 61s-61.666 30 -108.999 30c-62 0 -111.333 -22.333 -148 -67s-55 -105 -55 -181s18.333 -136.333 55 -181
c37.333 -45.333 86.666 -68 147.999 -68c46.667 0 83 10.5 109 31.5s42 42.167 48 63.5h131v-76c-10 -38 -40.167 -74.333 -90.5 -109s-116.833 -52 -199.5 -52z" />
    <glyph glyph-name="ccaron" unicode="&#x10d;" horiz-adv-x="545" 
d="M457 690l-90 -90h-150l-94 90v60h106l63 -73l59 73h106v-60zM300 -15c-84.667 0 -149.835 25.002 -195.502 75.002s-68.5 113.667 -68.5 191c0 76.667 24 140.834 72 192.501s112 77.5 192 77.5c18 0 35.333 -1.33301 52 -4s31 -6.33398 43 -11.001
s23.333 -9.83398 34 -15.501s19.834 -11.834 27.501 -18.501s14.334 -13.334 20.001 -20.001s10.5 -12.834 14.5 -18.501s7.16699 -10.834 9.5 -15.501l5.5 -11l1 -4v-67h-113c0.666992 0 0.166992 1.83301 -1.5 5.5s-4.66699 8.16699 -9 13.5s-9.83301 10.666 -16.5 15.999
s-15.834 9.83301 -27.501 13.5s-24.834 5.5 -39.501 5.5c-36.667 0 -64.667 -13.167 -84 -39.5s-29 -59.5 -29 -99.5c0 -39.333 9.66699 -71.666 29 -96.999s47.333 -38 84 -38c24.667 0 44.834 4.5 60.501 13.5s25.5 17.833 29.5 26.5l5 14h113v-67
c-1.33301 -3.33301 -3.16602 -7.66602 -5.49902 -12.999s-8.83301 -14.666 -19.5 -27.999s-23 -25.166 -37 -35.499s-34 -19.833 -60 -28.5s-54.667 -13 -86 -13z" />
    <glyph glyph-name="Emacron" unicode="&#x112;" 
d="M474 805h-306v110h306v-110zM553 0h-471v750h471v-141h-305v-159h270v-130h-270v-179h305v-141z" />
    <glyph glyph-name="emacron" unicode="&#x113;" horiz-adv-x="583" 
d="M443 610h-286v116h286v-116zM308 -15c-87.333 0 -154.502 24.668 -201.502 74.001s-70.5 113.333 -70.5 192c0 76.667 23.833 140.667 71.5 192s112.5 77 194.5 77s143.333 -21.833 184 -65.5s61 -101.167 61 -172.5c0 -10.667 -0.5 -21.334 -1.5 -32.001
s-2.16699 -18.667 -3.5 -24l-2 -8h-352c4.66699 -34.667 17.5 -62 38.5 -82s49.167 -30 84.5 -30c16.667 0 31.834 1.5 45.501 4.5s24.167 6.83301 31.5 11.5s13.5 9.33398 18.5 14.001s8.16699 8.66699 9.5 12l3 4h118v-67c-1.33301 -2.66699 -3.5 -6.33398 -6.5 -11.001
s-10.5 -12.667 -22.5 -24s-25.833 -21.333 -41.5 -30s-37.667 -16.667 -66 -24s-59.166 -11 -92.499 -11zM190.998 309.001h211c0 26 -8.66699 47.667 -26 65s-42.333 26 -75 26c-59.333 0 -96 -30.333 -110 -91z" />
    <glyph glyph-name="Ebreve" unicode="&#x114;" 
d="M319 790c-24 0 -45.667 2.33008 -65 6.99707s-34.166 10.334 -44.499 17.001s-19 13.334 -26 20.001s-11.5 12.334 -13.5 17.001l-4 7v75h80c0 -1.33301 0.5 -2.83301 1.5 -4.5s3.33301 -5 7 -10s7.83398 -9.33301 12.501 -13s11.667 -7 21 -10s19.666 -4.5 30.999 -4.5
c18.667 0 33.667 3.5 45 10.5s18 13.833 20 20.5l4 11h80v-75c-0.666992 -2 -1.83398 -4.5 -3.50098 -7.5s-6 -8.33301 -13 -16s-15.5 -14.5 -25.5 -20.5s-24.5 -11.5 -43.5 -16.5s-40.167 -7.5 -63.5 -7.5zM553 -0.00292969h-471v750h471v-141h-305v-159h270v-130h-270
v-179h305v-141z" />
    <glyph glyph-name="ebreve" unicode="&#x115;" horiz-adv-x="583" 
d="M302 588c-23.333 0 -44.5029 2.50098 -63.5029 7.50098s-33.833 11 -44.5 18s-19.667 14.167 -27 21.5s-12.166 13.166 -14.499 17.499s-3.5 6.83301 -3.5 7.5v75h80c1.33301 -3.33301 3.5 -7.33301 6.5 -12s10.667 -10.834 23 -18.501s26.833 -11.5 43.5 -11.5
s30.667 3.5 42 10.5s18.666 13.833 21.999 20.5l5 11h80v-75c0 -0.666992 -1.16699 -3.16699 -3.5 -7.5s-7.16602 -10.166 -14.499 -17.499s-16.166 -14.5 -26.499 -21.5s-24.666 -13 -42.999 -18s-38.833 -7.5 -61.5 -7.5zM307.997 -14.999
c-87.333 0 -154.502 24.668 -201.502 74.001s-70.5 113.333 -70.5 192c0 76.667 23.833 140.667 71.5 192s112.5 77 194.5 77s143.333 -21.833 184 -65.5s61 -101.167 61 -172.5c0 -10.667 -0.5 -21.334 -1.5 -32.001s-2.16699 -18.667 -3.5 -24l-2 -8h-352
c4.66699 -34.667 17.5 -62 38.5 -82s49.167 -30 84.5 -30c16.667 0 31.834 1.5 45.501 4.5s24.167 6.83301 31.5 11.5s13.5 9.33398 18.5 14.001s8.16699 8.66699 9.5 12l3 4h118v-67c-1.33301 -2.66699 -3.5 -6.33398 -6.5 -11.001s-10.5 -12.667 -22.5 -24
s-25.833 -21.333 -41.5 -30s-37.667 -16.667 -66 -24s-59.166 -11 -92.499 -11zM190.995 309.002h211c0 26 -8.66699 47.667 -26 65s-42.333 26 -75 26c-59.333 0 -96 -30.333 -110 -91z" />
    <glyph glyph-name="Edotaccent" unicode="&#x116;" 
d="M406 800h-166v135h166v-135zM553 0h-471v750h471v-141h-305v-159h270v-130h-270v-179h305v-141z" />
    <glyph glyph-name="edotaccent" unicode="&#x117;" horiz-adv-x="583" 
d="M379 600h-156v140h156v-140zM308 -15c-87.333 0 -154.502 24.668 -201.502 74.001s-70.5 113.333 -70.5 192c0 76.667 23.833 140.667 71.5 192s112.5 77 194.5 77s143.333 -21.833 184 -65.5s61 -101.167 61 -172.5c0 -10.667 -0.5 -21.334 -1.5 -32.001
s-2.16699 -18.667 -3.5 -24l-2 -8h-352c4.66699 -34.667 17.5 -62 38.5 -82s49.167 -30 84.5 -30c16.667 0 31.834 1.5 45.501 4.5s24.167 6.83301 31.5 11.5s13.5 9.33398 18.5 14.001s8.16699 8.66699 9.5 12l3 4h118v-67c-1.33301 -2.66699 -3.5 -6.33398 -6.5 -11.001
s-10.5 -12.667 -22.5 -24s-25.833 -21.333 -41.5 -30s-37.667 -16.667 -66 -24s-59.166 -11 -92.499 -11zM190.998 309.001h211c0 26 -8.66699 47.667 -26 65s-42.333 26 -75 26c-59.333 0 -96 -30.333 -110 -91z" />
    <glyph glyph-name="Eogonek" unicode="&#x118;" 
d="M364 -91c0 23.333 7.66797 43.334 23.001 60.001s35.666 27 60.999 31h-366v750h471v-141h-305v-159h270v-130h-270v-179h305v-141h1c-38 -7.33301 -57 -25.333 -57 -54c0 -35.333 24.333 -53 73 -53v-85h-80c-20.667 1.33301 -39.5 4.66602 -56.5 9.99902
s-32.833 15.833 -47.5 31.5s-22 35.5 -22 59.5z" />
    <glyph glyph-name="eogonek" unicode="&#x119;" horiz-adv-x="583" 
d="M518 -117l-0.000976562 -74.998h-80c-20.667 1.33301 -39.5 4.66602 -56.5 9.99902s-32.833 15.833 -47.5 31.5s-22 35.5 -22 59.5c0 33.333 16.667 59.666 50 78.999c-34 -2 -52 -3 -54 -3c-87.333 0 -154.5 24.667 -201.5 74s-70.5 113.333 -70.5 192
c0 76.667 23.833 140.667 71.5 192s112.5 77 194.5 77s143.333 -21.833 184 -65.5s61 -101.167 61 -172.5c0 -10.667 -0.5 -21.334 -1.5 -32.001s-2.16699 -18.667 -3.5 -24l-2 -8h-352c4.66699 -34.667 17.5 -62 38.5 -82s49.167 -30 84.5 -30
c16.667 0 31.834 1.5 45.501 4.5s24.167 6.83301 31.5 11.5s13.5 9.33398 18.5 14.001s8.16699 8.66699 9.5 12l3 4h118v-67c-8 -14.667 -21.667 -29.667 -41 -45c-34 -34 -51 -68 -51 -102c0 -19.333 8 -33.333 24 -42s32.333 -13 49 -13zM190.999 309.002h211
c0 26 -8.66699 47.667 -26 65s-42.333 26 -75 26c-59.333 0 -96 -30.333 -110 -91z" />
    <glyph glyph-name="Ecaron" unicode="&#x11a;" 
d="M496 880l-90 -80h-160l-94 80v60h116l58 -58l54 58h116v-60zM553 0h-471v750h471v-141h-305v-159h270v-130h-270v-179h305v-141z" />
    <glyph glyph-name="ecaron" unicode="&#x11b;" horiz-adv-x="583" 
d="M466 690l-90 -90h-150l-94 90v60h106l63 -73l59 73h106v-60zM308 -15c-87.333 0 -154.502 24.668 -201.502 74.001s-70.5 113.333 -70.5 192c0 76.667 23.833 140.667 71.5 192s112.5 77 194.5 77s143.333 -21.833 184 -65.5s61 -101.167 61 -172.5
c0 -10.667 -0.5 -21.334 -1.5 -32.001s-2.16699 -18.667 -3.5 -24l-2 -8h-352c4.66699 -34.667 17.5 -62 38.5 -82s49.167 -30 84.5 -30c16.667 0 31.834 1.5 45.501 4.5s24.167 6.83301 31.5 11.5s13.5 9.33398 18.5 14.001s8.16699 8.66699 9.5 12l3 4h118v-67
c-1.33301 -2.66699 -3.5 -6.33398 -6.5 -11.001s-10.5 -12.667 -22.5 -24s-25.833 -21.333 -41.5 -30s-37.667 -16.667 -66 -24s-59.166 -11 -92.499 -11zM190.998 309.001h211c0 26 -8.66699 47.667 -26 65s-42.333 26 -75 26c-59.333 0 -96 -30.333 -110 -91z" />
    <glyph glyph-name="Gcircumflex" unicode="&#x11c;" horiz-adv-x="770" 
d="M584 800h-116l-56 58l-56 -58h-116v60l92 80h160l92 -80v-60zM428 -15c-119.333 0 -213.668 36.001 -283.001 108.001s-104 166 -104 282c0 114 34.833 207.5 104.5 280.5s162.5 109.5 278.5 109.5c84.667 0 152 -16.667 202 -50s78 -68 84 -104v-75h-130
c-6.66699 19.333 -22.667 38.833 -48 58.5s-61 29.5 -107 29.5c-67.333 0 -120.5 -23.167 -159.5 -69.5s-58.5 -105.833 -58.5 -178.5s20 -132.334 60 -179.001s94.333 -70 163 -70c46 0 89 8.33301 129 25v130h-155v128h310v-324c-14.667 -22 -48.167 -44.333 -100.5 -67
s-114.166 -34 -185.499 -34z" />
    <glyph glyph-name="gcircumflex" unicode="&#x11d;" horiz-adv-x="642" 
d="M497 600h-106l-61 73l-61 -73h-106v60l92 90h150l92 -90v-60zM305 -260c-36 0 -68.833 4.66699 -98.5 14s-52.834 20.333 -69.501 33s-30.834 25.834 -42.501 39.501s-19.5 24.5 -23.5 32.5s-6 12.667 -6 14v67h121l2 -4c0.666992 -2 2.16699 -5 4.5 -9
s5.5 -8.5 9.5 -13.5s9 -9.83301 15 -14.5s12.833 -9 20.5 -13s17 -7.16699 28 -9.5s22.833 -3.5 35.5 -3.5c42 0 73.667 13.167 95 39.5s32 61.833 32 106.5v54c-35.333 -52 -90.666 -78 -165.999 -78c-68 0 -122.5 24.833 -163.5 74.5s-61.5 111.167 -61.5 184.5
c0 76 21 139.5 63 190.5s97.333 76.5 166 76.5c35.333 0 67.333 -7.83301 96 -23.5s51.334 -36.834 68.001 -63.501l8 71h141v-482c0 -86 -25.167 -154.667 -75.5 -206s-116.5 -77 -198.5 -77zM309 125c34.667 0 63.167 12.498 85.5 37.498s33.5 56.167 33.5 93.5
c0 36.667 -11.167 67.334 -33.5 92.001s-51.166 37 -86.499 37c-36.667 0 -65.834 -12.167 -87.501 -36.5s-32.5 -55.166 -32.5 -92.499s10.833 -68.5 32.5 -93.5s51.167 -37.5 88.5 -37.5z" />
    <glyph glyph-name="Gbreve" unicode="&#x11e;" horiz-adv-x="770" 
d="M419 790c-24 0 -45.667 2.33008 -65 6.99707s-34.166 10.334 -44.499 17.001s-19 13.334 -26 20.001s-11.5 12.334 -13.5 17.001l-4 7v75h80c0 -1.33301 0.5 -2.83301 1.5 -4.5s3.33301 -5 7 -10s7.83398 -9.33301 12.501 -13s11.667 -7 21 -10s19.666 -4.5 30.999 -4.5
c18.667 0 33.667 3.5 45 10.5s18 13.833 20 20.5l4 11h80v-75c-0.666992 -2 -1.83398 -4.5 -3.50098 -7.5s-6 -8.33301 -13 -16s-15.5 -14.5 -25.5 -20.5s-24.5 -11.5 -43.5 -16.5s-40.167 -7.5 -63.5 -7.5zM428 -15.0029c-119.333 0 -213.668 36.001 -283.001 108.001
s-104 166 -104 282c0 114 34.833 207.5 104.5 280.5s162.5 109.5 278.5 109.5c84.667 0 152 -16.667 202 -50s78 -68 84 -104v-75h-130c-6.66699 19.333 -22.667 38.833 -48 58.5s-61 29.5 -107 29.5c-67.333 0 -120.5 -23.167 -159.5 -69.5s-58.5 -105.833 -58.5 -178.5
s20 -132.334 60 -179.001s94.333 -70 163 -70c46 0 89 8.33301 129 25v130h-155v128h310v-324c-14.667 -22 -48.167 -44.333 -100.5 -67s-114.166 -34 -185.499 -34z" />
    <glyph glyph-name="gbreve" unicode="&#x11f;" horiz-adv-x="642" 
d="M326 588c-23.333 0 -44.5029 2.50098 -63.5029 7.50098s-33.833 11 -44.5 18s-19.667 14.167 -27 21.5s-12.166 13.166 -14.499 17.499s-3.5 6.83301 -3.5 7.5v75h80c1.33301 -3.33301 3.5 -7.33301 6.5 -12s10.667 -10.834 23 -18.501s26.833 -11.5 43.5 -11.5
s30.667 3.5 42 10.5s18.666 13.833 21.999 20.5l5 11h80v-75c0 -0.666992 -1.16699 -3.16699 -3.5 -7.5s-7.16602 -10.166 -14.499 -17.499s-16.166 -14.5 -26.499 -21.5s-24.666 -13 -42.999 -18s-38.833 -7.5 -61.5 -7.5zM304.997 -259.999
c-36 0 -68.833 4.66699 -98.5 14s-52.834 20.333 -69.501 33s-30.834 25.834 -42.501 39.501s-19.5 24.5 -23.5 32.5s-6 12.667 -6 14v67h121l2 -4c0.666992 -2 2.16699 -5 4.5 -9s5.5 -8.5 9.5 -13.5s9 -9.83301 15 -14.5s12.833 -9 20.5 -13s17 -7.16699 28 -9.5
s22.833 -3.5 35.5 -3.5c42 0 73.667 13.167 95 39.5s32 61.833 32 106.5v54c-35.333 -52 -90.666 -78 -165.999 -78c-68 0 -122.5 24.833 -163.5 74.5s-61.5 111.167 -61.5 184.5c0 76 21 139.5 63 190.5s97.333 76.5 166 76.5c35.333 0 67.333 -7.83301 96 -23.5
s51.334 -36.834 68.001 -63.501l8 71h141v-482c0 -86 -25.167 -154.667 -75.5 -206s-116.5 -77 -198.5 -77zM308.997 125.001c34.667 0 63.167 12.498 85.5 37.498s33.5 56.167 33.5 93.5c0 36.667 -11.167 67.334 -33.5 92.001s-51.166 37 -86.499 37
c-36.667 0 -65.834 -12.167 -87.501 -36.5s-32.5 -55.166 -32.5 -92.499s10.833 -68.5 32.5 -93.5s51.167 -37.5 88.5 -37.5z" />
    <glyph glyph-name="Gdotaccent" unicode="&#x120;" horiz-adv-x="770" 
d="M501 800h-166v135h166v-135zM428 -15c-119.333 0 -213.668 36.001 -283.001 108.001s-104 166 -104 282c0 114 34.833 207.5 104.5 280.5s162.5 109.5 278.5 109.5c84.667 0 152 -16.667 202 -50s78 -68 84 -104v-75h-130c-6.66699 19.333 -22.667 38.833 -48 58.5
s-61 29.5 -107 29.5c-67.333 0 -120.5 -23.167 -159.5 -69.5s-58.5 -105.833 -58.5 -178.5s20 -132.334 60 -179.001s94.333 -70 163 -70c46 0 89 8.33301 129 25v130h-155v128h310v-324c-14.667 -22 -48.167 -44.333 -100.5 -67s-114.166 -34 -185.499 -34z" />
    <glyph glyph-name="gdotaccent" unicode="&#x121;" horiz-adv-x="642" 
d="M411 600h-156v140h156v-140zM305 -260c-36 0 -68.833 4.66699 -98.5 14s-52.834 20.333 -69.501 33s-30.834 25.834 -42.501 39.501s-19.5 24.5 -23.5 32.5s-6 12.667 -6 14v67h121l2 -4c0.666992 -2 2.16699 -5 4.5 -9s5.5 -8.5 9.5 -13.5s9 -9.83301 15 -14.5
s12.833 -9 20.5 -13s17 -7.16699 28 -9.5s22.833 -3.5 35.5 -3.5c42 0 73.667 13.167 95 39.5s32 61.833 32 106.5v54c-35.333 -52 -90.666 -78 -165.999 -78c-68 0 -122.5 24.833 -163.5 74.5s-61.5 111.167 -61.5 184.5c0 76 21 139.5 63 190.5s97.333 76.5 166 76.5
c35.333 0 67.333 -7.83301 96 -23.5s51.334 -36.834 68.001 -63.501l8 71h141v-482c0 -86 -25.167 -154.667 -75.5 -206s-116.5 -77 -198.5 -77zM309 125c34.667 0 63.167 12.498 85.5 37.498s33.5 56.167 33.5 93.5c0 36.667 -11.167 67.334 -33.5 92.001
s-51.166 37 -86.499 37c-36.667 0 -65.834 -12.167 -87.501 -36.5s-32.5 -55.166 -32.5 -92.499s10.833 -68.5 32.5 -93.5s51.167 -37.5 88.5 -37.5z" />
    <glyph glyph-name="uni0122" unicode="&#x122;" horiz-adv-x="770" 
d="M428 -15c-119.333 0 -213.668 36.001 -283.001 108.001s-104 166 -104 282c0 114 34.833 207.5 104.5 280.5s162.5 109.5 278.5 109.5c84.667 0 152 -16.667 202 -50s78 -68 84 -104v-75h-130c-6.66699 19.333 -22.667 38.833 -48 58.5s-61 29.5 -107 29.5
c-67.333 0 -120.5 -23.167 -159.5 -69.5s-58.5 -105.833 -58.5 -178.5s20 -132.334 60 -179.001s94.333 -70 163 -70c46 0 89 8.33301 129 25v130h-155v128h310v-324c-14.667 -22 -48.167 -44.333 -100.5 -67s-114.166 -34 -185.499 -34zM456.998 -204.999h-96l-5 153h156
v-72z" />
    <glyph glyph-name="uni0123" unicode="&#x123;" horiz-adv-x="642" 
d="M303 763h96l5 -153h-156v72zM305 -260c-36 0 -68.833 4.66699 -98.5 14s-52.834 20.333 -69.501 33s-30.834 25.834 -42.501 39.501s-19.5 24.5 -23.5 32.5s-6 12.667 -6 14v67h121l2 -4c0.666992 -2 2.16699 -5 4.5 -9s5.5 -8.5 9.5 -13.5s9 -9.83301 15 -14.5
s12.833 -9 20.5 -13s17 -7.16699 28 -9.5s22.833 -3.5 35.5 -3.5c42 0 73.667 13.167 95 39.5s32 61.833 32 106.5v54c-35.333 -52 -90.666 -78 -165.999 -78c-68 0 -122.5 24.833 -163.5 74.5s-61.5 111.167 -61.5 184.5c0 76 21 139.5 63 190.5s97.333 76.5 166 76.5
c35.333 0 67.333 -7.83301 96 -23.5s51.334 -36.834 68.001 -63.501l8 71h141v-482c0 -86 -25.167 -154.667 -75.5 -206s-116.5 -77 -198.5 -77zM309 125c34.667 0 63.167 12.498 85.5 37.498s33.5 56.167 33.5 93.5c0 36.667 -11.167 67.334 -33.5 92.001
s-51.166 37 -86.499 37c-36.667 0 -65.834 -12.167 -87.501 -36.5s-32.5 -55.166 -32.5 -92.499s10.833 -68.5 32.5 -93.5s51.167 -37.5 88.5 -37.5z" />
    <glyph glyph-name="Hcircumflex" unicode="&#x124;" horiz-adv-x="790" 
d="M567 800h-116l-56 58l-56 -58h-116v60l92 80h160l92 -80v-60zM248 0h-166v750h166v-295h294v295h166v-750h-166v315h-294v-315z" />
    <glyph glyph-name="hcircumflex" unicode="&#x125;" 
d="M476 800h-116l-56 58l-56 -58h-116v60l92 80h160l92 -80v-60zM215 0h-150.999v750h151v-307c13.333 21.333 32.666 39.5 57.999 54.5s55.333 22.5 90 22.5c62 0 107.667 -19.333 137 -58s44 -88 44 -148v-314h-150v286c0 66 -27.667 99 -83 99c-36 0 -61 -10.667 -75 -32
c-14 -20.667 -21 -43.667 -21 -69v-284z" />
    <glyph glyph-name="Itilde" unicode="&#x128;" horiz-adv-x="330" 
d="M242 792c-27.333 0 -48.9971 5 -64.9971 15c-16.667 10 -34.334 15 -53.001 15c-19.333 0 -31 -8.33301 -35 -25h-100c-2.66699 40.667 5.5 73.667 24.5 99s46.167 38 81.5 38c27.333 0 48.666 -5 63.999 -15c14 -10 30.333 -15 49 -15
c19.333 0 30.666 8.33301 33.999 25h100c2.66699 -42 -4.33301 -75.333 -21 -100s-43 -37 -79 -37zM249.003 0h-166v750h166v-750z" />
    <glyph glyph-name="itilde" unicode="&#x129;" horiz-adv-x="276" 
d="M216 599c-23.333 0 -46.498 5.83301 -69.498 17.5s-40.833 17.5 -53.5 17.5c-18 0 -29.667 -10 -35 -30h-95c-2.66699 40.667 5.5 73.667 24.5 99s46.167 38 81.5 38c23.333 0 45.666 -5.66699 66.999 -17s38.333 -17 51 -17c19.333 0 30.666 9.66699 33.999 29h95
c2.66699 -42 -4.33301 -75.333 -21 -100s-43 -37 -79 -37zM214.002 0h-150v505h150v-505z" />
    <glyph glyph-name="Imacron" unicode="&#x12a;" horiz-adv-x="330" 
d="M318 805h-306v110h306v-110zM248 0h-166v750h166v-750z" />
    <glyph glyph-name="imacron" unicode="&#x12b;" horiz-adv-x="276" 
d="M281 610h-286v116h286v-116zM213 0h-150v505h150v-505z" />
    <glyph glyph-name="Ibreve" unicode="&#x12c;" horiz-adv-x="330" 
d="M166 790c-24 0 -45.667 2.33008 -65 6.99707s-34.166 10.334 -44.499 17.001s-19 13.334 -26 20.001s-11.833 12.334 -14.5 17.001l-3 7v75h80c0 -1.33301 0.5 -2.83301 1.5 -4.5s3.33301 -5 7 -10s7.83398 -9.33301 12.501 -13s11.667 -7 21 -10
s19.666 -4.5 30.999 -4.5c18.667 0 33.667 3.5 45 10.5s18.333 13.833 21 20.5l3 11h80v-75c-0.666992 -2 -1.83398 -4.5 -3.50098 -7.5s-6 -8.33301 -13 -16s-15.5 -14.5 -25.5 -20.5s-24.5 -11.5 -43.5 -16.5s-40.167 -7.5 -63.5 -7.5zM248 -0.00292969h-166v750h166v-750
z" />
    <glyph glyph-name="ibreve" unicode="&#x12d;" horiz-adv-x="276" 
d="M140 588c-23.333 0 -44.5029 2.50098 -63.5029 7.50098s-33.833 11 -44.5 18s-19.667 14.167 -27 21.5s-12.166 13.166 -14.499 17.499s-3.5 6.83301 -3.5 7.5v75h80c1.33301 -3.33301 3.5 -7.33301 6.5 -12s10.667 -10.834 23 -18.501s26.833 -11.5 43.5 -11.5
s30.667 3.5 42 10.5s18.666 13.833 21.999 20.5l5 11h80v-75c0 -0.666992 -1.16699 -3.16699 -3.5 -7.5s-7.16602 -10.166 -14.499 -17.499s-16.166 -14.5 -26.499 -21.5s-24.666 -13 -42.999 -18s-38.833 -7.5 -61.5 -7.5zM212.997 0.000976562h-150v505h150v-505z" />
    <glyph glyph-name="Iogonek" unicode="&#x12e;" horiz-adv-x="330" 
d="M58 -91c0 23.333 7.66797 43.334 23.001 60.001s35.666 27 60.999 31h-60v750h166v-750c-38 -7.33301 -57 -25.333 -57 -54c0 -35.333 24.333 -53 73 -53v-85h-80c-20.667 1.33301 -39.5 4.66602 -56.5 9.99902s-32.833 15.833 -47.5 31.5s-22 35.5 -22 59.5z" />
    <glyph glyph-name="iogonek" unicode="&#x12f;" horiz-adv-x="278" 
d="M216 600h-156v140h156v-140zM19 -91c0 23.333 7.66797 43.334 23.001 60.001s35.666 27 60.999 31h-39v505h150v-505h-5c-38 -7.33301 -57 -25.333 -57 -54c0 -35.333 24.333 -53 73 -53v-85h-80c-20.667 1.33301 -39.5 4.66602 -56.5 9.99902s-32.833 15.833 -47.5 31.5
s-22 35.5 -22 59.5z" />
    <glyph glyph-name="Idotaccent" unicode="&#x130;" horiz-adv-x="330" 
d="M248 800h-166v135h166v-135zM248 0h-166v750h166v-750z" />
    <glyph glyph-name="dotlessi" unicode="&#x131;" horiz-adv-x="278" 
d="M214 0h-150v505h150v-505z" />
    <glyph glyph-name="uni0136" unicode="&#x136;" horiz-adv-x="694" 
d="M532 0l-284 326v-326h-166v750h166v-322l271 322h131v-75l-245 -285l273 -312v-78h-146zM403 -205h-96l-5 153h156v-72z" />
    <glyph glyph-name="uni0137" unicode="&#x137;" horiz-adv-x="555" 
d="M215 0h-151v750h151v-450l170 205h129v-67l-147 -174l167 -194v-70h-141l-178 218v-218zM321 -205h-96l-5 153h156v-72z" />
    <glyph glyph-name="Lacute" unicode="&#x139;" horiz-adv-x="569" 
d="M222 805h-136v60l72 80h156v-60zM548 0h-466v750h166v-609h300v-141z" />
    <glyph glyph-name="lacute" unicode="&#x13a;" horiz-adv-x="279" 
d="M191 805h-130v60l68 80h149v-60zM215 0h-151v750h151v-750z" />
    <glyph glyph-name="uni013B" unicode="&#x13b;" horiz-adv-x="569" 
d="M548 0h-466v750h166v-609h300v-141zM356 -205h-96l-5 153h156v-72z" />
    <glyph glyph-name="uni013C" unicode="&#x13c;" horiz-adv-x="279" 
d="M215 0h-151v750h151v-750zM158 -205h-92l-5 153h150v-72z" />
    <glyph glyph-name="Nacute" unicode="&#x143;" horiz-adv-x="795" 
d="M461 805h-136v60l72 80h156v-60zM238 0h-156v750h156l319 -477v477h156v-750h-156l-319 469v-469z" />
    <glyph glyph-name="nacute" unicode="&#x144;" 
d="M339 600h-123v60l77 90h144v-60zM215 0h-151v505h141l7 -67c12.667 22 32 41.167 58 57.5s57 24.5 93 24.5c62 0 107.667 -19.333 137 -58s44 -88 44 -148v-314h-150v286c0 66 -27.667 99 -83 99c-36 0 -61 -10.667 -75 -32c-14 -20.667 -21 -43.667 -21 -69v-284z" />
    <glyph glyph-name="uni0145" unicode="&#x145;" horiz-adv-x="795" 
d="M238 0h-156v750h156l319 -477v477h156v-750h-156l-319 469v-469zM413 -205h-96l-5 153h156v-72z" />
    <glyph glyph-name="uni0146" unicode="&#x146;" 
d="M215 0h-151v505h141l7 -67c12.667 22 32 41.167 58 57.5s57 24.5 93 24.5c62 0 107.667 -19.333 137 -58s44 -88 44 -148v-314h-150v286c0 66 -27.667 99 -83 99c-36 0 -61 -10.667 -75 -32c-14 -20.667 -21 -43.667 -21 -69v-284zM325 -205h-96l-5 153h156v-72z" />
    <glyph glyph-name="Ncaron" unicode="&#x147;" horiz-adv-x="795" 
d="M565 880l-90 -80h-160l-94 80v60h116l58 -58l54 58h116v-60zM238 0h-156v750h156l319 -477v477h156v-750h-156l-319 469v-469z" />
    <glyph glyph-name="ncaron" unicode="&#x148;" 
d="M452 690l-90 -90h-150l-94 90v60h106l63 -73l59 73h106v-60zM215 0h-151v505h141l7 -67c12.667 22 32 41.167 58 57.5s57 24.5 93 24.5c62 0 107.667 -19.333 137 -58s44 -88 44 -148v-314h-150v286c0 66 -27.667 99 -83 99c-36 0 -61 -10.667 -75 -32
c-14 -20.667 -21 -43.667 -21 -69v-284z" />
    <glyph glyph-name="Omacron" unicode="&#x14c;" horiz-adv-x="826" 
d="M563 805h-306v110h306v-110zM413 -15c-110.667 0 -200.33 36.667 -268.997 110s-103 167.666 -103 282.999c0 114.667 34.167 207.834 102.5 279.501s158.166 107.5 269.499 107.5s201.166 -35.833 269.499 -107.5s102.5 -164.834 102.5 -279.501
c0 -115.333 -34.333 -209.666 -103 -282.999s-158.334 -110 -269.001 -110zM413.004 126c63.333 0 113.333 23.333 150 70c37.333 47.333 56 108 56 182c0 72 -18.667 131.333 -56 178c-37.333 45.333 -87.333 68 -150 68s-112.667 -22.667 -150 -68
c-37.333 -46.667 -56 -106 -56 -178c0 -74 18.667 -134.667 56 -182c36.667 -46.667 86.667 -70 150 -70z" />
    <glyph glyph-name="omacron" unicode="&#x14d;" horiz-adv-x="606" 
d="M449 610h-286v116h286v-116zM303 -15c-81.333 0 -146.166 25.667 -194.499 77s-72.5 115.333 -72.5 192c0 76 24.167 139.333 72.5 190s113.166 76 194.499 76s146.166 -25.333 194.499 -76s72.5 -114 72.5 -190c0 -76.667 -24.167 -140.667 -72.5 -192
s-113.166 -77 -194.499 -77zM303 116c38 0 66.833 13 86.5 39s29.5 59 29.5 99c0 38.667 -10 70.834 -30 96.501s-48.667 38.5 -86 38.5s-66 -12.833 -86 -38.5s-30 -57.834 -30 -96.501c0 -40 9.83301 -73 29.5 -99s48.5 -39 86.5 -39z" />
    <glyph glyph-name="Obreve" unicode="&#x14e;" horiz-adv-x="826" 
d="M411 790c-24 0 -45.667 2.33008 -65 6.99707s-34.166 10.334 -44.499 17.001s-19 13.334 -26 20.001s-11.5 12.334 -13.5 17.001l-4 7v75h80c0 -1.33301 0.5 -2.83301 1.5 -4.5s3.33301 -5 7 -10s7.83398 -9.33301 12.501 -13s11.667 -7 21 -10s19.666 -4.5 30.999 -4.5
c18.667 0 33.667 3.5 45 10.5s18 13.833 20 20.5l4 11h80v-75c-0.666992 -2 -1.83398 -4.5 -3.50098 -7.5s-6 -8.33301 -13 -16s-15.5 -14.5 -25.5 -20.5s-24.5 -11.5 -43.5 -16.5s-40.167 -7.5 -63.5 -7.5zM413 -15.0029c-110.667 0 -200.33 36.667 -268.997 110
s-103 167.666 -103 282.999c0 114.667 34.167 207.834 102.5 279.501s158.166 107.5 269.499 107.5s201.166 -35.833 269.499 -107.5s102.5 -164.834 102.5 -279.501c0 -115.333 -34.333 -209.666 -103 -282.999s-158.334 -110 -269.001 -110zM413.004 125.997
c63.333 0 113.333 23.333 150 70c37.333 47.333 56 108 56 182c0 72 -18.667 131.333 -56 178c-37.333 45.333 -87.333 68 -150 68s-112.667 -22.667 -150 -68c-37.333 -46.667 -56 -106 -56 -178c0 -74 18.667 -134.667 56 -182c36.667 -46.667 86.667 -70 150 -70z" />
    <glyph glyph-name="obreve" unicode="&#x14f;" horiz-adv-x="606" 
d="M301 588c-23.333 0 -44.5029 2.50098 -63.5029 7.50098s-33.833 11 -44.5 18s-19.667 14.167 -27 21.5s-12.166 13.166 -14.499 17.499s-3.5 6.83301 -3.5 7.5v75h80c1.33301 -3.33301 3.5 -7.33301 6.5 -12s10.667 -10.834 23 -18.501s26.833 -11.5 43.5 -11.5
s30.667 3.5 42 10.5s18.666 13.833 21.999 20.5l5 11h80v-75c0 -0.666992 -1.16699 -3.16699 -3.5 -7.5s-7.16602 -10.166 -14.499 -17.499s-16.166 -14.5 -26.499 -21.5s-24.666 -13 -42.999 -18s-38.833 -7.5 -61.5 -7.5zM302.997 -14.999
c-81.333 0 -146.166 25.667 -194.499 77s-72.5 115.333 -72.5 192c0 76 24.167 139.333 72.5 190s113.166 76 194.499 76s146.166 -25.333 194.499 -76s72.5 -114 72.5 -190c0 -76.667 -24.167 -140.667 -72.5 -192s-113.166 -77 -194.499 -77zM302.997 116.001
c38 0 66.833 13 86.5 39s29.5 59 29.5 99c0 38.667 -10 70.834 -30 96.501s-48.667 38.5 -86 38.5s-66 -12.833 -86 -38.5s-30 -57.834 -30 -96.501c0 -40 9.83301 -73 29.5 -99s48.5 -39 86.5 -39z" />
    <glyph glyph-name="Ohungarumlaut" unicode="&#x150;" horiz-adv-x="826" 
d="M367 803h-120v60l55 80h141l-14 -60zM565 803h-121v60l72 80h141v-60zM413 -15c-110.667 0 -200.33 36.667 -268.997 110s-103 167.666 -103 282.999c0 114.667 34.167 207.834 102.5 279.501s158.166 107.5 269.499 107.5s201.166 -35.833 269.499 -107.5
s102.5 -164.834 102.5 -279.501c0 -115.333 -34.333 -209.666 -103 -282.999s-158.334 -110 -269.001 -110zM413.004 126c63.333 0 113.333 23.333 150 70c37.333 47.333 56 108 56 182c0 72 -18.667 131.333 -56 178c-37.333 45.333 -87.333 68 -150 68
s-112.667 -22.667 -150 -68c-37.333 -46.667 -56 -106 -56 -178c0 -74 18.667 -134.667 56 -182c36.667 -46.667 86.667 -70 150 -70z" />
    <glyph glyph-name="ohungarumlaut" unicode="&#x151;" horiz-adv-x="606" 
d="M265 600h-115v60l55 90h136l-13 -65zM453 600h-111v60l72 90h131v-60zM303 -15c-81.333 0 -146.166 25.667 -194.499 77s-72.5 115.333 -72.5 192c0 76 24.167 139.333 72.5 190s113.166 76 194.499 76s146.166 -25.333 194.499 -76s72.5 -114 72.5 -190
c0 -76.667 -24.167 -140.667 -72.5 -192s-113.166 -77 -194.499 -77zM303 116c38 0 66.833 13 86.5 39s29.5 59 29.5 99c0 38.667 -10 70.834 -30 96.501s-48.667 38.5 -86 38.5s-66 -12.833 -86 -38.5s-30 -57.834 -30 -96.501c0 -40 9.83301 -73 29.5 -99
s48.5 -39 86.5 -39z" />
    <glyph glyph-name="Racute" unicode="&#x154;" horiz-adv-x="682" 
d="M374 805h-136v60l72 80h156v-60zM248 264l0.000976562 -264h-166v750h246c86.667 0 155.667 -21.667 207 -65s77 -101.333 77 -174c0 -45.333 -11.833 -86 -35.5 -122s-56.834 -64 -99.501 -84l173 -227v-78h-143l-192 264h-67zM245.001 609v-210.999h82
c36.667 0 65.667 10.167 87 30.5s32 47.166 32 80.499c0 29.333 -10.5 53.333 -31.5 72s-50.167 28 -87.5 28h-82z" />
    <glyph glyph-name="racute" unicode="&#x155;" horiz-adv-x="481" 
d="M329 600h-123v60l77 90h144v-60zM215 0l-151.003 -0.000976562v505h141l7 -66c12 22.667 29.5 41.834 52.5 57.501s50.5 23.5 82.5 23.5c37.333 0 66.833 -9.66699 88.5 -29s34.5 -45.333 38.5 -78v-72h-115l-1 5c-1.33301 3.33301 -3.33301 7.5 -6 12.5
s-6.16699 9.83301 -10.5 14.5s-10.666 8.66699 -18.999 12s-18.166 5 -29.499 5c-25.333 0 -44.666 -10 -57.999 -30s-20 -46 -20 -78v-282z" />
    <glyph glyph-name="uni0156" unicode="&#x156;" horiz-adv-x="682" 
d="M248 264l0.000976562 -264h-166v750h246c86.667 0 155.667 -21.667 207 -65s77 -101.333 77 -174c0 -45.333 -11.833 -86 -35.5 -122s-56.834 -64 -99.501 -84l173 -227v-78h-143l-192 264h-67zM245.001 609v-210.999h82c36.667 0 65.667 10.167 87 30.5
s32 47.166 32 80.499c0 29.333 -10.5 53.333 -31.5 72s-50.167 28 -87.5 28h-82zM399.001 -204.999h-96l-5 153h156v-72z" />
    <glyph glyph-name="uni0157" unicode="&#x157;" horiz-adv-x="481" 
d="M215 0l-151.003 -0.000976562v505h141l7 -66c12 22.667 29.5 41.834 52.5 57.501s50.5 23.5 82.5 23.5c37.333 0 66.833 -9.66699 88.5 -29s34.5 -45.333 38.5 -78v-72h-115l-1 5c-1.33301 3.33301 -3.33301 7.5 -6 12.5s-6.16699 9.83301 -10.5 14.5
s-10.666 8.66699 -18.999 12s-18.166 5 -29.499 5c-25.333 0 -44.666 -10 -57.999 -30s-20 -46 -20 -78v-282zM162.997 -205.001h-92l-5 153h150v-72z" />
    <glyph glyph-name="Rcaron" unicode="&#x158;" horiz-adv-x="682" 
d="M493 880l-90 -80h-160l-94 80v60h116l58 -58l54 58h116v-60zM248 264l0.000976562 -264h-166v750h246c86.667 0 155.667 -21.667 207 -65s77 -101.333 77 -174c0 -45.333 -11.833 -86 -35.5 -122s-56.834 -64 -99.501 -84l173 -227v-78h-143l-192 264h-67zM245.001 609
v-210.999h82c36.667 0 65.667 10.167 87 30.5s32 47.166 32 80.499c0 29.333 -10.5 53.333 -31.5 72s-50.167 28 -87.5 28h-82z" />
    <glyph glyph-name="rcaron" unicode="&#x159;" horiz-adv-x="481" 
d="M424 690l-90 -90h-150l-94 90v60h106l63 -73l59 73h106v-60zM215 0l-151.003 -0.000976562v505h141l7 -66c12 22.667 29.5 41.834 52.5 57.501s50.5 23.5 82.5 23.5c37.333 0 66.833 -9.66699 88.5 -29s34.5 -45.333 38.5 -78v-72h-115l-1 5
c-1.33301 3.33301 -3.33301 7.5 -6 12.5s-6.16699 9.83301 -10.5 14.5s-10.666 8.66699 -18.999 12s-18.166 5 -29.499 5c-25.333 0 -44.666 -10 -57.999 -30s-20 -46 -20 -78v-282z" />
    <glyph glyph-name="Sacute" unicode="&#x15a;" horiz-adv-x="646" 
d="M387 805h-136v60l72 80h156v-60zM324 -15c-78 0 -139.331 14.998 -183.998 44.998c-45.333 30 -76 65.667 -92 107v75h131c22 -60.667 71.333 -91 148 -91c35.333 0 63.666 7.83301 84.999 23.5s32 37.167 32 64.5c0 24.667 -8.83301 44.334 -26.5 59.001
s-45.5 26.334 -83.5 35.001l-69 13c-68.667 14 -121.334 39.5 -158.001 76.5s-55 85.167 -55 144.5c0 71.333 25 127.333 75 168c50 40 116 60 198 60c68.667 0 125.5 -13.333 170.5 -40s72.833 -63 83.5 -109v-76h-130c-15.333 59.333 -58 89 -128 89
c-34 0 -60.5 -7.66699 -79.5 -23s-28.5 -35.333 -28.5 -60c0 -41.333 33.333 -69.333 100 -84l72 -16c70 -14.667 124.167 -41.167 162.5 -79.5s57.5 -87.833 57.5 -148.5c0 -70.667 -26 -127.167 -78 -169.5s-119.667 -63.5 -203 -63.5z" />
    <glyph glyph-name="sacute" unicode="&#x15b;" horiz-adv-x="508" 
d="M305 600h-123v60l77 90h144v-60zM258 -15c-60.667 0 -110.497 11.168 -149.497 33.501s-62.167 44.5 -69.5 66.5v68h113c2 -10.667 13 -23 33 -37s45 -21 75 -21c52 0 78 16 78 48c0 15.333 -6.33301 26.666 -19 33.999s-32 13.333 -58 18l-64 8
c-100.667 13.333 -151 63.666 -151 150.999c0 48.667 18.667 88.5 56 119.5s87.333 46.5 150 46.5c54.667 0 98.667 -9 132 -27s55.666 -41 66.999 -69v-68h-114c-2.66699 10.667 -11.334 22.334 -26.001 35.001s-35.334 19 -62.001 19c-45.333 0 -68 -16 -68 -48
c0 -25.333 21.333 -41.666 64 -48.999l64 -9c109.333 -14.667 164 -64 164 -148c0 -50.667 -19.167 -91.834 -57.5 -123.501s-90.833 -47.5 -157.5 -47.5z" />
    <glyph glyph-name="Scircumflex" unicode="&#x15c;" horiz-adv-x="646" 
d="M495 800h-116l-56 58l-56 -58h-116v60l92 80h160l92 -80v-60zM324 -15c-78 0 -139.331 14.998 -183.998 44.998c-45.333 30 -76 65.667 -92 107v75h131c22 -60.667 71.333 -91 148 -91c35.333 0 63.666 7.83301 84.999 23.5s32 37.167 32 64.5
c0 24.667 -8.83301 44.334 -26.5 59.001s-45.5 26.334 -83.5 35.001l-69 13c-68.667 14 -121.334 39.5 -158.001 76.5s-55 85.167 -55 144.5c0 71.333 25 127.333 75 168c50 40 116 60 198 60c68.667 0 125.5 -13.333 170.5 -40s72.833 -63 83.5 -109v-76h-130
c-15.333 59.333 -58 89 -128 89c-34 0 -60.5 -7.66699 -79.5 -23s-28.5 -35.333 -28.5 -60c0 -41.333 33.333 -69.333 100 -84l72 -16c70 -14.667 124.167 -41.167 162.5 -79.5s57.5 -87.833 57.5 -148.5c0 -70.667 -26 -127.167 -78 -169.5s-119.667 -63.5 -203 -63.5z" />
    <glyph glyph-name="scircumflex" unicode="&#x15d;" horiz-adv-x="508" 
d="M425 600h-106l-61 73l-61 -73h-106v60l92 90h150l92 -90v-60zM258 -15c-60.667 0 -110.497 11.168 -149.497 33.501s-62.167 44.5 -69.5 66.5v68h113c2 -10.667 13 -23 33 -37s45 -21 75 -21c52 0 78 16 78 48c0 15.333 -6.33301 26.666 -19 33.999s-32 13.333 -58 18
l-64 8c-100.667 13.333 -151 63.666 -151 150.999c0 48.667 18.667 88.5 56 119.5s87.333 46.5 150 46.5c54.667 0 98.667 -9 132 -27s55.666 -41 66.999 -69v-68h-114c-2.66699 10.667 -11.334 22.334 -26.001 35.001s-35.334 19 -62.001 19c-45.333 0 -68 -16 -68 -48
c0 -25.333 21.333 -41.666 64 -48.999l64 -9c109.333 -14.667 164 -64 164 -148c0 -50.667 -19.167 -91.834 -57.5 -123.501s-90.833 -47.5 -157.5 -47.5z" />
    <glyph glyph-name="Scedilla" unicode="&#x15e;" horiz-adv-x="646" 
d="M462 -123c0 -60 -41.3301 -93.6699 -123.997 -101.003h-85v80c45.333 0 68 12 68 36c0 23.333 -21.333 35 -64 35v63c-54 8 -98.667 25.333 -134 52s-60.333 58.334 -75 95.001v75h131c22 -60.667 71.333 -91 148 -91c35.333 0 63.666 7.83301 84.999 23.5
s32 37.167 32 64.5c0 24.667 -8.83301 44.334 -26.5 59.001s-45.5 26.334 -83.5 35.001l-69 13c-68.667 14 -121.334 39.5 -158.001 76.5s-55 85.167 -55 144.5c0 71.333 25 127.333 75 168c50 40 116 60 198 60c68.667 0 125.5 -13.333 170.5 -40s72.833 -63 83.5 -109v-76
h-130c-15.333 59.333 -58 89 -128 89c-34 0 -60.5 -7.66699 -79.5 -23s-28.5 -35.333 -28.5 -60c0 -41.333 33.333 -69.333 100 -84l72 -16c70 -14.667 124.167 -41.167 162.5 -79.5s57.5 -87.833 57.5 -148.5c0 -62.667 -20.667 -114.5 -62 -155.5
s-96.333 -65.833 -165 -74.5v-28c25.333 -4 45.666 -13.333 60.999 -28s23 -33 23 -55z" />
    <glyph glyph-name="scedilla" unicode="&#x15f;" horiz-adv-x="508" 
d="M398 -122c0 -60 -41.3301 -93.667 -123.997 -101h-85v80c45.333 0 68 12 68 36c0 23.333 -21.333 35 -64 35v62c-48.667 9.33301 -85 24 -109 44c-25.333 21.333 -40.333 38.333 -45 51v68h113c2 -10.667 13 -23 33 -37s45 -21 75 -21c52 0 78 16 78 48
c0 15.333 -6.33301 26.666 -19 33.999s-32 13.333 -58 18l-64 8c-100.667 13.333 -151 63.666 -151 150.999c0 48.667 18.667 88.5 56 119.5s87.333 46.5 150 46.5c54.667 0 98.667 -9 132 -27s55.666 -41 66.999 -69v-68h-114
c-2.66699 10.667 -11.334 22.334 -26.001 35.001s-35.334 19 -62.001 19c-45.333 0 -68 -16 -68 -48c0 -25.333 21.333 -41.666 64 -48.999l64 -9c109.333 -14.667 164 -64 164 -148c0 -42.667 -14.167 -79 -42.5 -109s-67.166 -49.333 -116.499 -58v-28
c25.333 -4 45.666 -13.333 60.999 -28s23 -33 23 -55z" />
    <glyph glyph-name="Scaron" unicode="&#x160;" horiz-adv-x="646" 
d="M498 880l-90 -80h-160l-94 80v60h116l58 -58l54 58h116v-60zM324 -15c-78 0 -139.331 14.998 -183.998 44.998c-45.333 30 -76 65.667 -92 107v75h131c22 -60.667 71.333 -91 148 -91c35.333 0 63.666 7.83301 84.999 23.5s32 37.167 32 64.5
c0 24.667 -8.83301 44.334 -26.5 59.001s-45.5 26.334 -83.5 35.001l-69 13c-68.667 14 -121.334 39.5 -158.001 76.5s-55 85.167 -55 144.5c0 71.333 25 127.333 75 168c50 40 116 60 198 60c68.667 0 125.5 -13.333 170.5 -40s72.833 -63 83.5 -109v-76h-130
c-15.333 59.333 -58 89 -128 89c-34 0 -60.5 -7.66699 -79.5 -23s-28.5 -35.333 -28.5 -60c0 -41.333 33.333 -69.333 100 -84l72 -16c70 -14.667 124.167 -41.167 162.5 -79.5s57.5 -87.833 57.5 -148.5c0 -70.667 -26 -127.167 -78 -169.5s-119.667 -63.5 -203 -63.5z" />
    <glyph glyph-name="scaron" unicode="&#x161;" horiz-adv-x="508" 
d="M420 690l-90 -90h-150l-94 90v60h106l63 -73l59 73h106v-60zM258 -15c-60.667 0 -110.497 11.168 -149.497 33.501s-62.167 44.5 -69.5 66.5v68h113c2 -10.667 13 -23 33 -37s45 -21 75 -21c52 0 78 16 78 48c0 15.333 -6.33301 26.666 -19 33.999s-32 13.333 -58 18
l-64 8c-100.667 13.333 -151 63.666 -151 150.999c0 48.667 18.667 88.5 56 119.5s87.333 46.5 150 46.5c54.667 0 98.667 -9 132 -27s55.666 -41 66.999 -69v-68h-114c-2.66699 10.667 -11.334 22.334 -26.001 35.001s-35.334 19 -62.001 19c-45.333 0 -68 -16 -68 -48
c0 -25.333 21.333 -41.666 64 -48.999l64 -9c109.333 -14.667 164 -64 164 -148c0 -50.667 -19.167 -91.834 -57.5 -123.501s-90.833 -47.5 -157.5 -47.5z" />
    <glyph glyph-name="uni0162" unicode="&#x162;" horiz-adv-x="635" 
d="M400 0h-166v609h-214v141h595v-141h-215v-609zM342 -205h-96l-5 153h156v-72z" />
    <glyph glyph-name="uni0163" unicode="&#x163;" horiz-adv-x="475" 
d="M292 -15c-61.333 0 -109.166 17.166 -143.499 51.499s-51.5 81.833 -51.5 142.5v203h-75v123h77l8 128h141v-128h200v-123h-200v-198c0 -49.333 18.667 -74 56 -74c17.333 0 29.666 4.33301 36.999 13s11 17.334 11 26.001h108v-68c-25.333 -64 -81.333 -96 -168 -96z
M315 -205.001h-96l-5 153h156v-72z" />
    <glyph glyph-name="Utilde" unicode="&#x168;" horiz-adv-x="759" 
d="M460 792c-27.333 0 -48.9971 5 -64.9971 15c-16.667 10 -34.334 15 -53.001 15c-19.333 0 -31 -8.33301 -35 -25h-100c-2.66699 40.667 5.5 73.667 24.5 99s46.167 38 81.5 38c27.333 0 48.666 -5 63.999 -15c14 -10 30.333 -15 49 -15
c19.333 0 30.666 8.33301 33.999 25h100c2.66699 -42 -4.33301 -75.333 -21 -100s-43 -37 -79 -37zM383.003 -15c-92 0 -166.499 27.833 -223.499 83.5s-85.5 124.5 -85.5 206.5v475h166v-476c0 -42 12.833 -77.167 38.5 -105.5s60.167 -42.5 103.5 -42.5
c45.333 0 81.166 14.167 107.499 42.5s39.5 63.5 39.5 105.5v476h156v-475c0 -82 -28 -150.833 -84 -206.5s-128.667 -83.5 -218 -83.5z" />
    <glyph glyph-name="utilde" unicode="&#x169;" horiz-adv-x="599" 
d="M377 599c-23.333 0 -46.498 5.83301 -69.498 17.5s-40.833 17.5 -53.5 17.5c-18 0 -29.667 -10 -35 -30h-95c-2.66699 40.667 5.5 73.667 24.5 99s46.167 38 81.5 38c23.333 0 45.666 -5.66699 66.999 -17s38.333 -17 51 -17c19.333 0 30.666 9.66699 33.999 29h95
c2.66699 -42 -4.33301 -75.333 -21 -100s-43 -37 -79 -37zM241.002 -15c-62.667 0 -108.667 19.333 -138 58s-44 88 -44 148v314h151v-286c0 -66 26.667 -99 80 -99c35.333 0 60 10.667 74 32c13.333 21.333 20 44.333 20 69v284h151v-505h-141l-7 67
c-12.667 -22 -31.5 -41.167 -56.5 -57.5s-54.833 -24.5 -89.5 -24.5z" />
    <glyph glyph-name="Umacron" unicode="&#x16a;" horiz-adv-x="759" 
d="M538 805h-306v110h306v-110zM383 -15c-92 0 -166.499 27.833 -223.499 83.5s-85.5 124.5 -85.5 206.5v475h166v-476c0 -42 12.833 -77.167 38.5 -105.5s60.167 -42.5 103.5 -42.5c45.333 0 81.166 14.167 107.499 42.5s39.5 63.5 39.5 105.5v476h156v-475
c0 -82 -28 -150.833 -84 -206.5s-128.667 -83.5 -218 -83.5z" />
    <glyph glyph-name="umacron" unicode="&#x16b;" horiz-adv-x="599" 
d="M440 610h-286v116h286v-116zM241 -15c-62.667 0 -108.667 19.333 -138 58s-44 88 -44 148v314h151v-286c0 -66 26.667 -99 80 -99c35.333 0 60 10.667 74 32c13.333 21.333 20 44.333 20 69v284h151v-505h-141l-7 67c-12.667 -22 -31.5 -41.167 -56.5 -57.5
s-54.833 -24.5 -89.5 -24.5z" />
    <glyph glyph-name="Ubreve" unicode="&#x16c;" horiz-adv-x="759" 
d="M384 790c-24 0 -45.667 2.33008 -65 6.99707s-34.166 10.334 -44.499 17.001s-19 13.334 -26 20.001s-11.833 12.334 -14.5 17.001l-3 7v75h80c0 -1.33301 0.5 -2.83301 1.5 -4.5s3.33301 -5 7 -10s7.83398 -9.33301 12.501 -13s11.667 -7 21 -10
s19.666 -4.5 30.999 -4.5c18.667 0 33.667 3.5 45 10.5s18.333 13.833 21 20.5l3 11h80v-75c-0.666992 -2 -1.83398 -4.5 -3.50098 -7.5s-6 -8.33301 -13 -16s-15.5 -14.5 -25.5 -20.5s-24.5 -11.5 -43.5 -16.5s-40.167 -7.5 -63.5 -7.5zM383 -15.0029
c-92 0 -166.499 27.833 -223.499 83.5s-85.5 124.5 -85.5 206.5v475h166v-476c0 -42 12.833 -77.167 38.5 -105.5s60.167 -42.5 103.5 -42.5c45.333 0 81.166 14.167 107.499 42.5s39.5 63.5 39.5 105.5v476h156v-475c0 -82 -28 -150.833 -84 -206.5
s-128.667 -83.5 -218 -83.5z" />
    <glyph glyph-name="ubreve" unicode="&#x16d;" horiz-adv-x="599" 
d="M296 588c-23.333 0 -44.5029 2.50098 -63.5029 7.50098s-33.833 11 -44.5 18s-19.667 14.167 -27 21.5s-12.166 13.166 -14.499 17.499s-3.5 6.83301 -3.5 7.5v75h80c1.33301 -3.33301 3.5 -7.33301 6.5 -12s10.667 -10.834 23 -18.501s26.833 -11.5 43.5 -11.5
s30.667 3.5 42 10.5s18.666 13.833 21.999 20.5l5 11h80v-75c0 -0.666992 -1.16699 -3.16699 -3.5 -7.5s-7.16602 -10.166 -14.499 -17.499s-16.166 -14.5 -26.499 -21.5s-24.666 -13 -42.999 -18s-38.833 -7.5 -61.5 -7.5zM240.997 -14.999
c-62.667 0 -108.667 19.333 -138 58s-44 88 -44 148v314h151v-286c0 -66 26.667 -99 80 -99c35.333 0 60 10.667 74 32c13.333 21.333 20 44.333 20 69v284h151v-505h-141l-7 67c-12.667 -22 -31.5 -41.167 -56.5 -57.5s-54.833 -24.5 -89.5 -24.5z" />
    <glyph glyph-name="Uring" unicode="&#x16e;" horiz-adv-x="759" 
d="M382 783c-44.667 0 -78.834 8.5 -102.501 25.5s-35.5 39.5 -35.5 67.5s11.833 50.5 35.5 67.5s57.834 25.5 102.501 25.5c45.333 0 79.833 -8.5 103.5 -25.5s35.5 -39.5 35.5 -67.5s-11.833 -50.5 -35.5 -67.5s-58.167 -25.5 -103.5 -25.5zM382 849
c11.333 0 20.833 2.5 28.5 7.5s11.5 11.5 11.5 19.5s-3.83301 14.5 -11.5 19.5s-17.167 7.5 -28.5 7.5s-20.833 -2.5 -28.5 -7.5s-11.5 -11.5 -11.5 -19.5s3.83301 -14.5 11.5 -19.5s17.167 -7.5 28.5 -7.5zM383 -15c-92 0 -166.499 27.833 -223.499 83.5
s-85.5 124.5 -85.5 206.5v475h166v-476c0 -42 12.833 -77.167 38.5 -105.5s60.167 -42.5 103.5 -42.5c45.333 0 81.166 14.167 107.499 42.5s39.5 63.5 39.5 105.5v476h156v-475c0 -82 -28 -150.833 -84 -206.5s-128.667 -83.5 -218 -83.5z" />
    <glyph glyph-name="uring" unicode="&#x16f;" horiz-adv-x="599" 
d="M295 567c-43.333 0 -76.333 9 -99 27s-34 41 -34 69s11.333 51 34 69s55.667 27 99 27s76.5 -9 99.5 -27s34.5 -41 34.5 -69s-11.5 -51 -34.5 -69s-56.167 -27 -99.5 -27zM295 633c10 0 18.333 2.66699 25 8s10 12.666 10 21.999s-3.33301 16.666 -10 21.999s-15 8 -25 8
c-9.33301 0 -17.5 -2.66699 -24.5 -8s-10.5 -12.666 -10.5 -21.999s3.5 -16.666 10.5 -21.999s15.167 -8 24.5 -8zM241 -15c-62.667 0 -108.667 19.333 -138 58s-44 88 -44 148v314h151v-286c0 -66 26.667 -99 80 -99c35.333 0 60 10.667 74 32
c13.333 21.333 20 44.333 20 69v284h151v-505h-141l-7 67c-12.667 -22 -31.5 -41.167 -56.5 -57.5s-54.833 -24.5 -89.5 -24.5z" />
    <glyph glyph-name="Uhungarumlaut" unicode="&#x170;" horiz-adv-x="759" 
d="M335 805h-120v60l55 80h141l-14 -60zM533 805h-121v60l72 80h141v-60zM383 -15c-92 0 -166.499 27.833 -223.499 83.5s-85.5 124.5 -85.5 206.5v475h166v-476c0 -42 12.833 -77.167 38.5 -105.5s60.167 -42.5 103.5 -42.5c45.333 0 81.166 14.167 107.499 42.5
s39.5 63.5 39.5 105.5v476h156v-475c0 -82 -28 -150.833 -84 -206.5s-128.667 -83.5 -218 -83.5z" />
    <glyph glyph-name="uhungarumlaut" unicode="&#x171;" horiz-adv-x="599" 
d="M262 600h-115v60l55 90h136l-13 -65zM450 600h-111v60l72 90h131v-60zM241 -15c-62.667 0 -108.667 19.333 -138 58s-44 88 -44 148v314h151v-286c0 -66 26.667 -99 80 -99c35.333 0 60 10.667 74 32c13.333 21.333 20 44.333 20 69v284h151v-505h-141l-7 67
c-12.667 -22 -31.5 -41.167 -56.5 -57.5s-54.833 -24.5 -89.5 -24.5z" />
    <glyph glyph-name="Uogonek" unicode="&#x172;" horiz-adv-x="759" 
d="M489 -107v-84.999h-80c-20.667 1.33301 -39.5 4.66602 -56.5 9.99902s-32.833 15.833 -47.5 31.5s-22 35.5 -22 59.5c0 38 18.667 64 56 78c-80 9.33301 -144.167 41 -192.5 95s-72.5 118.333 -72.5 193v475h166v-476c0 -42 12.833 -77.167 38.5 -105.5
s60.167 -42.5 103.5 -42.5c45.333 0 81.166 14.167 107.499 42.5s39.5 63.5 39.5 105.5v476h156v-475c0 -68 -20.167 -127.833 -60.5 -179.5s-94.166 -85.5 -161.499 -101.5c-16.667 -6 -28.667 -12.833 -36 -20.5s-11 -18.167 -11 -31.5c0 -32.667 24.333 -49 73 -49z" />
    <glyph glyph-name="uogonek" unicode="&#x173;" horiz-adv-x="599" 
d="M345 -91c0 23.333 7.66797 43.334 23.001 60.001s35.666 27 60.999 31h-35l-7 67c-12.667 -22 -31.5 -41.167 -56.5 -57.5s-54.833 -24.5 -89.5 -24.5c-62.667 0 -108.667 19.333 -138 58s-44 88 -44 148v314h151v-286c0 -66 26.667 -99 80 -99c35.333 0 60 10.667 74 32
c13.333 21.333 20 44.333 20 69v284h151v-505c-38 -7.33301 -57 -25.333 -57 -54c0 -35.333 24.333 -53 73 -53v-85h-80c-20.667 1.33301 -39.5 4.66602 -56.5 9.99902s-32.833 15.833 -47.5 31.5s-22 35.5 -22 59.5z" />
    <glyph glyph-name="Wcircumflex" unicode="&#x174;" horiz-adv-x="1000" 
d="M676 800h-116l-56 58l-56 -58h-116v60l92 80h160l92 -80v-60zM797 0h-169l-129 458l-127 -458h-169l-179 670v80h154l119 -515l137 515h141l133 -515l124 515h146v-70z" />
    <glyph glyph-name="wcircumflex" unicode="&#x175;" horiz-adv-x="800" 
d="M575 600h-106l-61 73l-61 -73h-106v60l92 90h150l92 -90v-60zM624 0h-136l-92 291l-86 -291h-136l-151 435v70h136l93 -301l91 301h124l94 -300l90 300h128v-67z" />
    <glyph glyph-name="Ycircumflex" unicode="&#x176;" horiz-adv-x="662" 
d="M504 800h-116l-56 58l-56 -58h-116v60l92 80h160l92 -80v-60zM415 0h-166v300l-242 372v78h146l190 -304l178 304h130v-75l-236 -376v-299z" />
    <glyph glyph-name="ycircumflex" unicode="&#x177;" horiz-adv-x="556" 
d="M455 600h-106l-61 73l-61 -73h-106v60l92 90h150l92 -90v-60zM544 438l-340 -688h-128v70l126 226l-182 389v70h136l129 -296l134 296h125v-67z" />
    <glyph glyph-name="Ydieresis" unicode="&#x178;" horiz-adv-x="662" 
d="M307 800h-150v135h150v-135zM513 800h-151v135h151v-135zM415 0h-166v300l-242 372v78h146l190 -304l178 304h130v-75l-236 -376v-299z" />
    <glyph glyph-name="Zacute" unicode="&#x179;" horiz-adv-x="643" 
d="M383 805h-136v60l72 80h156v-60zM603 141v-141h-562v131l356 478h-346v141h541v-131l-355 -478h366z" />
    <glyph glyph-name="zacute" unicode="&#x17a;" horiz-adv-x="503" 
d="M309 600h-123v60l77 90h144v-60zM462 123v-123h-421v113l236 269h-231v123h411v-113l-236 -269h241z" />
    <glyph glyph-name="Zdotaccent" unicode="&#x17b;" horiz-adv-x="643" 
d="M403 800h-166v135h166v-135zM603 141v-141h-562v131l356 478h-346v141h541v-131l-355 -478h366z" />
    <glyph glyph-name="zdotaccent" unicode="&#x17c;" horiz-adv-x="503" 
d="M336 600h-156v140h156v-140zM462 123v-123h-421v113l236 269h-231v123h411v-113l-236 -269h241z" />
    <glyph glyph-name="Zcaron" unicode="&#x17d;" horiz-adv-x="643" 
d="M500 880l-90 -80h-160l-94 80v60h116l58 -58l54 58h116v-60zM603 141v-141h-562v131l356 478h-346v141h541v-131l-355 -478h366z" />
    <glyph glyph-name="zcaron" unicode="&#x17e;" horiz-adv-x="503" 
d="M422 690l-90 -90h-150l-94 90v60h106l63 -73l59 73h106v-60zM462 123v-123h-421v113l236 269h-231v123h411v-113l-236 -269h241z" />
    <glyph glyph-name="Aringacute" unicode="&#x1fa;" horiz-adv-x="706" 
d="M420 1009h-136v60l72 80h156v-60zM350 785c-44.667 0 -78.834 8.5 -102.501 25.5s-35.5 39.5 -35.5 67.5s11.833 50.5 35.5 67.5s57.834 25.5 102.501 25.5c45.333 0 79.833 -8.5 103.5 -25.5s35.5 -39.5 35.5 -67.5s-11.833 -50.5 -35.5 -67.5
s-58.167 -25.5 -103.5 -25.5zM350 851c11.333 0 20.833 2.5 28.5 7.5s11.5 11.5 11.5 19.5s-3.83301 14.5 -11.5 19.5s-17.167 7.5 -28.5 7.5s-20.833 -2.5 -28.5 -7.5s-11.5 -11.5 -11.5 -19.5s3.83301 -14.5 11.5 -19.5s17.167 -7.5 28.5 -7.5zM203 159l-57 -159h-133v70
l255 680h169l254 -670v-80h-144l-58 159h-286zM249 295h196l-98 276z" />
    <glyph glyph-name="aringacute" unicode="&#x1fb;" horiz-adv-x="551" 
d="M351 809h-136v60l72 80h156v-60zM283 568c-43.333 0 -76.333 9 -99 27s-34 41 -34 69s11.333 51 34 69s55.667 27 99 27s76.5 -9 99.5 -27s34.5 -41 34.5 -69s-11.5 -51 -34.5 -69s-56.167 -27 -99.5 -27zM283 634c10 0 18.333 2.66699 25 8s10 12.666 10 21.999
s-3.33301 16.666 -10 21.999s-15 8 -25 8c-9.33301 0 -17.5 -2.66699 -24.5 -8s-10.5 -12.666 -10.5 -21.999s3.5 -16.666 10.5 -21.999s15.167 -8 24.5 -8zM197 -15c-55.333 0 -96.667 15.668 -124 47.001c-28 30.667 -42 67.334 -42 110.001
c0 49.333 18.167 87.833 54.5 115.5s90.5 41.5 162.5 41.5c15.333 0 30.833 -0.833008 46.5 -2.5s27.5 -3.16699 35.5 -4.5l12 -3v22c0 56 -27.667 84 -83 84c-12 0 -23.167 -1.5 -33.5 -4.5s-18.5 -6.83301 -24.5 -11.5s-11.333 -9.33398 -16 -14.001
s-7.66699 -8.33398 -9 -11.001l-3 -5h-114v67l1 1c19.333 40 54.333 69 105 87c28.667 10.667 61 16 97 16c76 0 133.5 -18.167 172.5 -54.5s58.5 -89.5 58.5 -159.5v-306h-136l-10 64c-32 -52.667 -82 -79 -150 -79zM245.999 101.001c32.667 0 57 9.33301 73 28
c15.333 18.667 23 36.667 23 54v22c-23.333 5.33301 -51.333 8 -84 8c-52 0 -78 -19 -78 -57c0 -36.667 22 -55 66 -55z" />
    <glyph glyph-name="uni0218" unicode="&#x218;" horiz-adv-x="646" 
d="M324 -15c-78 0 -139.331 14.998 -183.998 44.998c-45.333 30 -76 65.667 -92 107v75h131c22 -60.667 71.333 -91 148 -91c35.333 0 63.666 7.83301 84.999 23.5s32 37.167 32 64.5c0 24.667 -8.83301 44.334 -26.5 59.001s-45.5 26.334 -83.5 35.001l-69 13
c-68.667 14 -121.334 39.5 -158.001 76.5s-55 85.167 -55 144.5c0 71.333 25 127.333 75 168c50 40 116 60 198 60c68.667 0 125.5 -13.333 170.5 -40s72.833 -63 83.5 -109v-76h-130c-15.333 59.333 -58 89 -128 89c-34 0 -60.5 -7.66699 -79.5 -23
s-28.5 -35.333 -28.5 -60c0 -41.333 33.333 -69.333 100 -84l72 -16c70 -14.667 124.167 -41.167 162.5 -79.5s57.5 -87.833 57.5 -148.5c0 -70.667 -26 -127.167 -78 -169.5s-119.667 -63.5 -203 -63.5zM356.002 -205.002h-96l-5 153h156v-72z" />
    <glyph glyph-name="uni0219" unicode="&#x219;" horiz-adv-x="508" 
d="M258 -15c-60.667 0 -110.497 11.168 -149.497 33.501s-62.167 44.5 -69.5 66.5v68h113c2 -10.667 13 -23 33 -37s45 -21 75 -21c52 0 78 16 78 48c0 15.333 -6.33301 26.666 -19 33.999s-32 13.333 -58 18l-64 8c-100.667 13.333 -151 63.666 -151 150.999
c0 48.667 18.667 88.5 56 119.5s87.333 46.5 150 46.5c54.667 0 98.667 -9 132 -27s55.666 -41 66.999 -69v-68h-114c-2.66699 10.667 -11.334 22.334 -26.001 35.001s-35.334 19 -62.001 19c-45.333 0 -68 -16 -68 -48c0 -25.333 21.333 -41.666 64 -48.999l64 -9
c109.333 -14.667 164 -64 164 -148c0 -50.667 -19.167 -91.834 -57.5 -123.501s-90.833 -47.5 -157.5 -47.5zM286.003 -204.999h-96l-5 153h156v-72z" />
    <glyph glyph-name="uni0401" unicode="&#x401;" 
d="M291 800h-150v135h150v-135zM497 800h-151v135h151v-135zM553 0h-471v750h471v-141h-305v-159h270v-130h-270v-179h305v-141z" />
    <glyph glyph-name="uni0403" unicode="&#x403;" horiz-adv-x="559" 
d="M388 805h-136v60l72 80h156v-60zM248 0h-166v750h456v-141h-290v-609z" />
    <glyph glyph-name="uni040E" unicode="&#x40e;" horiz-adv-x="656" 
d="M343 804c-48.667 0 -87.4971 8.66699 -116.497 26s-47.833 34.666 -56.5 51.999v66h116c0 -10.667 4.66699 -23 14 -37s23.666 -21 42.999 -21c17.333 0 31.166 7.16699 41.499 21.5s15.5 26.5 15.5 36.5h116v-66c-8.66699 -17.333 -27.334 -34.666 -56.001 -51.999
s-67.667 -26 -117 -26zM649.003 675l-355 -675h-131v75l88 154l-239 443v78h146l185 -350l175 350h131v-75z" />
    <glyph glyph-name="uni0410" unicode="&#x410;" horiz-adv-x="706" 
d="M203 159l-57 -159h-133v70l255 680h169l254 -670v-80h-144l-58 159h-286zM249 295h196l-98 276z" />
    <glyph glyph-name="uni0411" unicode="&#x411;" horiz-adv-x="662" 
d="M348 0h-266v750h490v-141h-324v-139h100c88 0 157.333 -21.167 208 -63.5s76 -96.833 76 -163.5c0 -70 -25.167 -128 -75.5 -174s-119.833 -69 -208.5 -69zM245 342v-203.998h102c36.667 0 65.667 9.16699 87 27.5s32 44.166 32 77.499
c0 29.333 -10.667 53.166 -32 71.499s-50.333 27.5 -87 27.5h-102z" />
    <glyph glyph-name="uni0412" unicode="&#x412;" horiz-adv-x="687" 
d="M385 0l-302.999 0.000976562v750h299c72 0 129.5 -18.333 172.5 -55s64.5 -85.334 64.5 -146.001c0 -36 -9 -68 -27 -96s-42.333 -48 -73 -60c40 -12.667 71.333 -34 94 -64s34 -65 34 -105c0 -68.667 -23.333 -123.167 -70 -163.5s-110.334 -60.5 -191.001 -60.5z
M241.001 618.001v-170h114c31.333 0 56 7.5 74 22.5s27 35.5 27 61.5s-8.66699 46.833 -26 62.5s-41 23.5 -71 23.5h-118zM241.001 322.001l0.000976562 -190h127c36 0 64.167 9.33301 84.5 28s30.5 42 30.5 70c0 27.333 -9.83301 49.5 -29.5 66.5
s-47.834 25.5 -84.501 25.5h-128z" />
    <glyph glyph-name="uni0413" unicode="&#x413;" horiz-adv-x="559" 
d="M248 0h-166v750h456v-141h-290v-609z" />
    <glyph glyph-name="uni0414" unicode="&#x414;" horiz-adv-x="816" 
d="M162 -150l-151 0.00292969v291h61c8.66699 7.33301 18.5 20.666 29.5 39.999s22.5 51.666 34.5 96.999s18.667 95.666 20 150.999l9 321h522v-609h105v-291h-151v150h-479v-150zM239 141.003h282v468h-209l-6 -188c-2.66699 -54.667 -8.66699 -103.667 -18 -147
s-18 -73.833 -26 -91.5s-15.667 -31.5 -23 -41.5z" />
    <glyph glyph-name="uni0415" unicode="&#x415;" 
d="M553 0h-471v750h471v-141h-305v-159h270v-130h-270v-179h305v-141z" />
    <glyph glyph-name="uni0416" unicode="&#x416;" horiz-adv-x="1011" 
d="M425 0v326l-259 -326h-143v78l245 307l-228 288v77h135l250 -321v321h161v-321l251 321h131v-75l-226 -283l249 -314v-78h-146l-259 326v-326h-161z" />
    <glyph glyph-name="uni0417" unicode="&#x417;" horiz-adv-x="626" 
d="M311 -15c-34.667 0 -66.833 3.6709 -96.5 11.0039s-54.5 16.666 -74.5 27.999s-37.667 24.166 -53 38.499s-26.666 28.166 -33.999 41.499s-12.333 26 -15 38v75h131c2 -20.667 14.5 -41.667 37.5 -63s56.167 -32 99.5 -32c37.333 0 66.166 9.16699 86.499 27.5
s30.5 42.833 30.5 73.5c0 30 -10.167 53.667 -30.5 71s-50.833 26 -91.5 26h-90v126h78c34 0 60.333 9 79 27s28 41 28 69c0 26 -9.66699 47 -29 63s-43.333 24 -72 24c-37.333 0 -65.166 -9.16699 -83.499 -27.5s-28.5 -37.833 -30.5 -58.5h-131v75
c3.33301 14.667 10.166 29.667 20.499 45s25 31 44 47s45 29.167 78 39.5s69.833 15.5 110.5 15.5c76 0 137.167 -18.333 183.5 -55s69.5 -87.334 69.5 -152.001c0 -36 -9.5 -68.333 -28.5 -97s-45.167 -50 -78.5 -64c42 -10.667 75 -31.834 99 -63.501s36 -69.5 36 -113.5
c0 -69.333 -23.667 -125.666 -71 -168.999c-48 -44 -115.333 -66 -202 -66z" />
    <glyph glyph-name="uni0418" unicode="&#x418;" horiz-adv-x="804" 
d="M248 0h-166v750h166v-498l309 498h165v-750h-165v494z" />
    <glyph glyph-name="uni0419" unicode="&#x419;" horiz-adv-x="804" 
d="M406 804c-48.667 0 -87.4971 8.66699 -116.497 26s-47.833 34.666 -56.5 51.999v66h116c0 -10.667 4.66699 -23 14 -37s23.666 -21 42.999 -21c17.333 0 31.166 7.16699 41.499 21.5s15.5 26.5 15.5 36.5h116v-66c-8.66699 -17.333 -27.334 -34.666 -56.001 -51.999
s-67.667 -26 -117 -26zM248.003 0h-166v750h166v-498l309 498h165v-750h-165v494z" />
    <glyph glyph-name="uni041A" unicode="&#x41a;" horiz-adv-x="694" 
d="M532 0l-284 326v-326h-166v750h166v-322l271 322h131v-75l-245 -285l273 -312v-78h-146z" />
    <glyph glyph-name="uni041B" unicode="&#x41b;" horiz-adv-x="736" 
d="M70 0h-51v152h26c31.333 0 54.5 19.667 69.5 59s23.5 101 25.5 185l7 354h507v-750h-166v609h-193l-4 -218c-2.66699 -122 -19.667 -217.667 -51 -287c-32 -69.333 -88.667 -104 -170 -104z" />
    <glyph glyph-name="uni041C" unicode="&#x41c;" horiz-adv-x="931" 
d="M516 159h-111l-167 353v-512h-156v750h204l182 -382l178 382h203v-750h-165v512z" />
    <glyph glyph-name="uni041D" unicode="&#x41d;" horiz-adv-x="790" 
d="M248 0h-166v750h166v-295h294v295h166v-750h-166v315h-294v-315z" />
    <glyph glyph-name="uni041E" unicode="&#x41e;" horiz-adv-x="826" 
d="M413 -15c-110.667 0 -200.33 36.667 -268.997 110s-103 167.666 -103 282.999c0 114.667 34.167 207.834 102.5 279.501s158.166 107.5 269.499 107.5s201.166 -35.833 269.499 -107.5s102.5 -164.834 102.5 -279.501c0 -115.333 -34.333 -209.666 -103 -282.999
s-158.334 -110 -269.001 -110zM413.004 126c63.333 0 113.333 23.333 150 70c37.333 47.333 56 108 56 182c0 72 -18.667 131.333 -56 178c-37.333 45.333 -87.333 68 -150 68s-112.667 -22.667 -150 -68c-37.333 -46.667 -56 -106 -56 -178c0 -74 18.667 -134.667 56 -182
c36.667 -46.667 86.667 -70 150 -70z" />
    <glyph glyph-name="uni041F" unicode="&#x41f;" horiz-adv-x="780" 
d="M248 0h-166v750h616v-750h-166v609h-284v-609z" />
    <glyph glyph-name="uni0420" unicode="&#x420;" horiz-adv-x="643" 
d="M248 0l-166 0.000976562v750h241c88 0 158.333 -22.333 211 -67c52 -44.667 78 -104.667 78 -180c0 -70.667 -25.333 -131.334 -76 -182.001s-121.667 -76 -213 -76h-75v-245zM245 612.001v-229h77c38 0 68.167 10.833 90.5 32.5s33.5 50.5 33.5 86.5
c0 32.667 -11 59.167 -33 79.5s-52.333 30.5 -91 30.5h-77z" />
    <glyph glyph-name="uni0421" unicode="&#x421;" horiz-adv-x="729" 
d="M409 -15c-113.333 0 -202.834 35.8311 -268.501 107.498s-98.5 165.834 -98.5 282.501c0 117.333 33.5 211.666 100.5 282.999s155.833 107 266.5 107c46.667 0 88.834 -5.66699 126.501 -17s67 -25.666 88 -42.999s37.167 -34.166 48.5 -50.499
s18.666 -31.5 21.999 -45.5v-76h-131c-3.33301 20.667 -17.666 41 -42.999 61s-61.666 30 -108.999 30c-62 0 -111.333 -22.333 -148 -67s-55 -105 -55 -181s18.333 -136.333 55 -181c37.333 -45.333 86.666 -68 147.999 -68c46.667 0 83 10.5 109 31.5s42 42.167 48 63.5
h131v-76c-10 -38 -40.167 -74.333 -90.5 -109s-116.833 -52 -199.5 -52z" />
    <glyph glyph-name="uni0422" unicode="&#x422;" horiz-adv-x="635" 
d="M400 0h-166v609h-214v141h595v-141h-215v-609z" />
    <glyph glyph-name="uni0423" unicode="&#x423;" horiz-adv-x="656" 
d="M649 675l-355 -675h-131v75l88 154l-239 443v78h146l185 -350l175 350h131v-75z" />
    <glyph glyph-name="uni0424" unicode="&#x424;" horiz-adv-x="892" 
d="M529 -10h-166v79c-97.333 1.33301 -176.666 31.833 -237.999 91.5s-92 132.167 -92 217.5c0 84.667 30.667 156.667 92 216s140.666 89.666 237.999 90.999v75h166v-75c97.333 -1.33301 176.666 -31.833 237.999 -91.5s92 -132.167 92 -217.5
c0 -84.667 -30.667 -156.667 -92 -216s-140.666 -89.666 -237.999 -90.999v-79zM363 203v348.999c-53.333 -2 -94.666 -20 -123.999 -54c-28.667 -33.333 -43 -73.333 -43 -120c0 -47.333 14.333 -87.666 43 -120.999c29.333 -34 70.666 -52 123.999 -54zM529 550.999
v-348.999c53.333 2 94.666 20 123.999 54c28.667 33.333 43 73.333 43 120c0 47.333 -14.333 87.666 -43 120.999c-29.333 34 -70.666 52 -123.999 54z" />
    <glyph glyph-name="uni0425" unicode="&#x425;" horiz-adv-x="690" 
d="M158 0h-131v75l220 305l-209 292v78h146l173 -250l162 250h131v-75l-205 -290l219 -307v-78h-146l-181 264z" />
    <glyph glyph-name="uni0426" unicode="&#x426;" horiz-adv-x="829" 
d="M803 -150h-151v150h-570v750h166v-609h284v609h166v-609h105v-291z" />
    <glyph glyph-name="uni0427" unicode="&#x427;" horiz-adv-x="715" 
d="M633 0h-166v274h-117c-102.667 0 -179.667 23.167 -231 69.5s-77 119.5 -77 219.5v187h166v-187c0 -52 11.5 -90.167 34.5 -114.5s59.5 -36.5 109.5 -36.5h115v338h166v-750z" />
    <glyph glyph-name="uni0428" unicode="&#x428;" horiz-adv-x="1050" 
d="M968 0h-886v750h166v-609h194v609h166v-609h194v609h166v-750z" />
    <glyph glyph-name="uni0429" unicode="&#x429;" horiz-adv-x="1099" 
d="M1073 -150h-151v150h-840v750h166v-609h194v609h166v-609h194v609h166v-609h105v-291z" />
    <glyph glyph-name="uni042A" unicode="&#x42a;" horiz-adv-x="746" 
d="M432 0h-251.999v609h-160v141h326v-245h86c89.333 0 159.666 -23.333 210.999 -70s77 -105.667 77 -177c0 -74 -25.5 -135.5 -76.5 -184.5s-121.5 -73.5 -211.5 -73.5zM343.001 367l-0.000976562 -228.999h88c38 0 68 10.667 90 32s33 50 33 86
c0 31.333 -11.167 57.666 -33.5 78.999s-52.166 32 -89.499 32h-88z" />
    <glyph glyph-name="uni042B" unicode="&#x42b;" horiz-adv-x="939" 
d="M333 0h-251v750h166v-245h85c89.333 0 159.833 -23.333 211.5 -70s77.5 -105.667 77.5 -177c0 -74 -25.5 -135.5 -76.5 -184.5s-121.833 -73.5 -212.5 -73.5zM857 0h-166v750h166v-750zM245 367v-229h87c38 0 68.167 10.667 90.5 32s33.5 50 33.5 86
c0 32 -11.167 58.5 -33.5 79.5s-52.5 31.5 -90.5 31.5h-87z" />
    <glyph glyph-name="uni042C" unicode="&#x42c;" horiz-adv-x="648" 
d="M333 0h-251v750h166v-245h85c89.333 0 159.833 -23.333 211.5 -70s77.5 -105.667 77.5 -177c0 -74 -25.5 -135.5 -76.5 -184.5s-121.833 -73.5 -212.5 -73.5zM245 367v-229h87c38 0 68.167 10.667 90.5 32s33.5 50 33.5 86c0 32 -11.167 58.5 -33.5 79.5
s-52.5 31.5 -90.5 31.5h-87z" />
    <glyph glyph-name="uni042D" unicode="&#x42d;" horiz-adv-x="737" 
d="M338 -15c-82.667 0 -150.334 16.832 -203.001 50.499s-84.667 70.5 -96 110.5v76h130c6.66699 -20 23.834 -40.833 51.501 -62.5s66.5 -32.5 116.5 -32.5c56 0 99.833 16.667 131.5 50s50.5 79.333 56.5 138h-293v131h293c-6 55.333 -24.667 98.833 -56 130.5
s-74.333 47.5 -129 47.5c-48.667 0 -87 -10.5 -115 -31.5s-44 -40.833 -48 -59.5h-131v76c3.33301 13.333 11.333 28 24 44s30 32.833 52 50.5s52.333 32.334 91 44.001s81 17.5 127 17.5c110 0 196.667 -35.667 260 -107s95 -165 95 -281
c0 -118 -31.5 -212.833 -94.5 -284.5s-150.5 -107.5 -262.5 -107.5z" />
    <glyph glyph-name="uni042E" unicode="&#x42e;" horiz-adv-x="1083" 
d="M684 -15c-96.667 0 -176.667 30.499 -240 91.499s-101 140.5 -113 238.5h-83v-315h-166v750h166v-295h86c14 92 52.5 166.667 115.5 224s141.167 86 234.5 86c107.333 0 193.666 -36.167 258.999 -108.5s98 -165.166 98 -278.499c0 -114 -32.667 -208 -98 -282
s-151.666 -111 -258.999 -111zM684 125.999c59.333 0 106.168 23.5 140.501 70.5s51.5 107.5 51.5 181.5c0 72 -17.333 131 -52 177s-81.334 69 -140.001 69s-105.167 -23 -139.5 -69s-51.5 -105 -51.5 -177c0 -74 17.167 -134.5 51.5 -181.5s80.833 -70.5 139.5 -70.5z" />
    <glyph glyph-name="uni042F" unicode="&#x42f;" horiz-adv-x="685" 
d="M437 0v270.002h-77l-187 -270h-138v78l167 230c-41.333 14.667 -74.833 40.167 -100.5 76.5s-38.5 78.166 -38.5 125.499c0 73.333 25.667 131.666 77 174.999s119.333 65 204 65h259v-750h-166zM345 403.002h95v209h-95c-36 0 -64.333 -9.5 -85 -28.5
s-31 -43.833 -31 -74.5c0 -31.333 10.5 -56.833 31.5 -76.5s49.167 -29.5 84.5 -29.5z" />
    <glyph glyph-name="uni0430" unicode="&#x430;" horiz-adv-x="551" 
d="M197 -15c-55.333 0 -96.667 15.668 -124 47.001c-28 30.667 -42 67.334 -42 110.001c0 49.333 18.167 87.833 54.5 115.5s90.5 41.5 162.5 41.5c15.333 0 30.833 -0.833008 46.5 -2.5s27.5 -3.16699 35.5 -4.5l12 -3v22c0 56 -27.667 84 -83 84
c-12 0 -23.167 -1.5 -33.5 -4.5s-18.5 -6.83301 -24.5 -11.5s-11.333 -9.33398 -16 -14.001s-7.66699 -8.33398 -9 -11.001l-3 -5h-114v67l1 1c19.333 40 54.333 69 105 87c28.667 10.667 61 16 97 16c76 0 133.5 -18.167 172.5 -54.5s58.5 -89.5 58.5 -159.5v-306h-136
l-10 64c-32 -52.667 -82 -79 -150 -79zM245.999 101.001c32.667 0 57 9.33301 73 28c15.333 18.667 23 36.667 23 54v22c-23.333 5.33301 -51.333 8 -84 8c-52 0 -78 -19 -78 -57c0 -36.667 22 -55 66 -55z" />
    <glyph glyph-name="uni0431" unicode="&#x431;" horiz-adv-x="627" 
d="M321 -15c-84.667 0 -150.831 27 -198.498 81s-71.5 128 -71.5 222v82c0 111.333 20.667 198.166 62 260.499s114 98.5 218 108.5l55 5c16.667 1.33301 30.667 4.33301 42 9s18.666 9 21.999 13l4 5h108v-67c-10.667 -27.333 -28 -47.833 -52 -61.5
s-61 -23.167 -111 -28.5l-67 -7c-56 -6 -94 -22.667 -114 -50s-31.667 -72.333 -35 -135c15.333 28.667 38.166 51.334 68.499 68.001s64.166 25 101.499 25c73.333 0 131.333 -24.5 174 -73.5s64 -112.5 64 -190.5c0 -75.333 -24.667 -138.5 -74 -189.5
s-114.666 -76.5 -195.999 -76.5zM321.003 116c38.667 0 68.333 12.667 89 38s31 57.666 31 96.999c0 38 -10.5 69.667 -31.5 95s-50.5 38 -88.5 38c-38.667 0 -68.167 -12.5 -88.5 -37.5s-30.5 -56.833 -30.5 -95.5c0 -39.333 10.167 -71.666 30.5 -96.999
s49.833 -38 88.5 -38z" />
    <glyph glyph-name="uni0432" unicode="&#x432;" horiz-adv-x="556" 
d="M331 0l-267.001 0.000976562v510h256c54 0 97.333 -11.5 130 -34.5s49 -55.833 49 -98.5c0 -24.667 -6.66699 -46.5 -20 -65.5s-31.666 -33.167 -54.999 -42.5c30 -8.66699 53.333 -23.334 70 -44.001s25 -45 25 -73c0 -50 -17 -87.833 -51 -113.5
s-79.667 -38.5 -137 -38.5zM208.999 405.001v-90h81c39.333 0 59 15.333 59 46c0 29.333 -19.667 44 -59 44h-81zM208.999 209.001v-104h90c46.667 0 70 17.333 70 52s-23.333 52 -70 52h-90z" />
    <glyph glyph-name="uni0433" unicode="&#x433;" horiz-adv-x="443" 
d="M215 0h-151v505h360v-123h-209v-382z" />
    <glyph glyph-name="uni0434" unicode="&#x434;" horiz-adv-x="637" 
d="M150 -140h-136v261h49c25.333 19.333 40.333 72.333 45 159l15 225h412v-384h75v-261h-136v140h-324v-140zM204 121l183 0.000976562v265h-141l-9 -122c-4 -62.667 -15 -110.334 -33 -143.001z" />
    <glyph glyph-name="uni0435" unicode="&#x435;" horiz-adv-x="583" 
d="M308 -15c-87.333 0 -154.502 24.668 -201.502 74.001s-70.5 113.333 -70.5 192c0 76.667 23.833 140.667 71.5 192s112.5 77 194.5 77s143.333 -21.833 184 -65.5s61 -101.167 61 -172.5c0 -10.667 -0.5 -21.334 -1.5 -32.001s-2.16699 -18.667 -3.5 -24l-2 -8h-352
c4.66699 -34.667 17.5 -62 38.5 -82s49.167 -30 84.5 -30c16.667 0 31.834 1.5 45.501 4.5s24.167 6.83301 31.5 11.5s13.5 9.33398 18.5 14.001s8.16699 8.66699 9.5 12l3 4h118v-67c-1.33301 -2.66699 -3.5 -6.33398 -6.5 -11.001s-10.5 -12.667 -22.5 -24
s-25.833 -21.333 -41.5 -30s-37.667 -16.667 -66 -24s-59.166 -11 -92.499 -11zM190.998 309.001h211c0 26 -8.66699 47.667 -26 65s-42.333 26 -75 26c-59.333 0 -96 -30.333 -110 -91z" />
    <glyph glyph-name="uni0436" unicode="&#x436;" horiz-adv-x="818" 
d="M169 0h-137v70l152 192l-151 177v66h131l169 -206v206h151v-206l167 206h129v-67l-146 -175l156 -193v-70h-139l-167 219v-219h-151v218z" />
    <glyph glyph-name="uni0437" unicode="&#x437;" horiz-adv-x="507" 
d="M248 -15c-94.667 0 -165.336 33.334 -212.003 100.001v67h119c4.66699 -10 14 -22 28 -36c13.333 -14 35 -21 65 -21c26 0 45.667 5.33301 59 16s20 24.667 20 42c0 35.333 -27 53 -81 53h-75v96h70c45.333 0 68 18.333 68 55c0 16 -5.66699 28.667 -17 38s-28 14 -50 14
c-40 0 -68.333 -18.667 -85 -56h-116v68c44.667 66 115.334 99 212.001 99c62.667 0 111.334 -12.333 146.001 -37s52 -59.667 52 -105c0 -54.667 -26 -91.334 -78 -110.001c64.667 -19.333 97 -60.666 97 -123.999c0 -50.667 -19.167 -89.834 -57.5 -117.501
s-93.166 -41.5 -164.499 -41.5z" />
    <glyph glyph-name="uni0438" unicode="&#x438;" horiz-adv-x="618" 
d="M210 0h-146v505h151v-300l193 300h146v-505h-151v300z" />
    <glyph glyph-name="uni0439" unicode="&#x439;" horiz-adv-x="618" 
d="M310 583c-48.667 0 -86.165 10 -112.498 30s-42.833 39.667 -49.5 59v64h108c0 -8.66699 1 -17 3 -25s7.5 -16 16.5 -24s20.5 -12 34.5 -12c18.667 0 32.5 6.83301 41.5 20.5s13.5 27.167 13.5 40.5h108v-64c-6.66699 -19.333 -23.334 -39 -50.001 -59
s-64.334 -30 -113.001 -30zM210.002 0h-146v505h151v-300l193 300h146v-505h-151v300z" />
    <glyph glyph-name="uni043A" unicode="&#x43a;" horiz-adv-x="559" 
d="M215 0h-151v505h151v-205l173 205h128v-67l-149 -174l167 -194v-70h-141l-178 218v-218z" />
    <glyph glyph-name="uni043B" unicode="&#x43b;" horiz-adv-x="577" 
d="M70 0h-47.002v129h10c27.333 0.666992 46.833 10.667 58.5 30s17.834 50.333 18.501 93l5 253h398v-505h-150v384h-119l-3 -150c-2 -74 -15.667 -131.5 -41 -172.5s-68.666 -61.5 -129.999 -61.5z" />
    <glyph glyph-name="uni043C" unicode="&#x43c;" horiz-adv-x="752" 
d="M426 88h-109l-115 223v-311h-138v505h186l128 -248l125 248h185v-505h-146v313z" />
    <glyph glyph-name="uni043D" unicode="&#x43d;" horiz-adv-x="608" 
d="M215 0h-151v505h151v-187h178v187h151v-505h-151v195h-178v-195z" />
    <glyph glyph-name="uni043E" unicode="&#x43e;" horiz-adv-x="606" 
d="M303 -15c-81.333 0 -146.166 25.667 -194.499 77s-72.5 115.333 -72.5 192c0 76 24.167 139.333 72.5 190s113.166 76 194.499 76s146.166 -25.333 194.499 -76s72.5 -114 72.5 -190c0 -76.667 -24.167 -140.667 -72.5 -192s-113.166 -77 -194.499 -77zM303 116
c38 0 66.833 13 86.5 39s29.5 59 29.5 99c0 38.667 -10 70.834 -30 96.501s-48.667 38.5 -86 38.5s-66 -12.833 -86 -38.5s-30 -57.834 -30 -96.501c0 -40 9.83301 -73 29.5 -99s48.5 -39 86.5 -39z" />
    <glyph glyph-name="uni043F" unicode="&#x43f;" horiz-adv-x="598" 
d="M215 0h-151v505h470v-505h-151v382h-168v-382z" />
    <glyph glyph-name="uni0440" unicode="&#x440;" horiz-adv-x="642" 
d="M215 -250l-151.003 -0.000976562v755h141l7 -72c16.667 26.667 39.834 47.834 69.501 63.501s62.5 23.5 98.5 23.5c68.667 0 123.334 -25.333 164.001 -76s61 -114 61 -190c0 -76.667 -20.667 -140.667 -62 -192s-95.666 -77 -162.999 -77
c-72.667 0 -127.667 27.667 -165 83v-318zM333.997 120.999c38 0 67.5 12.333 88.5 37s31.5 56.667 31.5 96c0 38 -10.5 69.167 -31.5 93.5s-50.5 36.5 -88.5 36.5c-35.333 0 -64 -12.333 -86 -37s-33 -55.667 -33 -93c0 -38 11 -69.667 33 -95s50.667 -38 86 -38z" />
    <glyph glyph-name="uni0441" unicode="&#x441;" horiz-adv-x="547" 
d="M300 -15c-84.667 0 -149.835 25.002 -195.502 75.002s-68.5 113.667 -68.5 191c0 76.667 24 140.834 72 192.501s112 77.5 192 77.5c18 0 35.333 -1.33301 52 -4s31 -6.33398 43 -11.001s23.333 -9.83398 34 -15.501s19.834 -11.834 27.501 -18.501
s14.334 -13.334 20.001 -20.001s10.5 -12.834 14.5 -18.501s7.16699 -10.834 9.5 -15.501l5.5 -11l1 -4v-67h-113c0.666992 0 0.166992 1.83301 -1.5 5.5s-4.66699 8.16699 -9 13.5s-9.83301 10.666 -16.5 15.999s-15.834 9.83301 -27.501 13.5s-24.834 5.5 -39.501 5.5
c-36.667 0 -64.667 -13.167 -84 -39.5s-29 -59.5 -29 -99.5c0 -39.333 9.66699 -71.666 29 -96.999s47.333 -38 84 -38c24.667 0 44.834 4.5 60.501 13.5s25.5 17.833 29.5 26.5l5 14h113v-67c-1.33301 -3.33301 -3.16602 -7.66602 -5.49902 -12.999
s-8.83301 -14.666 -19.5 -27.999s-23 -25.166 -37 -35.499s-34 -19.833 -60 -28.5s-54.667 -13 -86 -13z" />
    <glyph glyph-name="uni0442" unicode="&#x442;" horiz-adv-x="480" 
d="M315 0h-151v382h-144v123h440v-123h-145v-382z" />
    <glyph glyph-name="uni0443" unicode="&#x443;" horiz-adv-x="556" 
d="M544 438l-340 -688h-128v70l126 226l-182 389v70h136l129 -296l134 296h125v-67z" />
    <glyph glyph-name="uni0444" unicode="&#x444;" horiz-adv-x="764" 
d="M457 -250l-150 0.00195312v237c-81.333 2.66699 -147 29.167 -197 79.5s-75 112.833 -75 187.5c0 74 25 136 75 186s115.667 76.333 197 79v181h150v-181c81.333 -2.66699 147 -29.167 197 -79.5s75 -112.833 75 -187.5s-24.833 -136.834 -74.5 -186.501
s-115.5 -75.834 -197.5 -78.501v-237zM307 118.002v270.002c-37.333 -0.666992 -66.833 -13.667 -88.5 -39s-32.5 -57 -32.5 -95c0 -38.667 10.833 -70.834 32.5 -96.501s51.167 -38.834 88.5 -39.501zM457 388.004v-270.002c36.667 0.666992 66 13.667 88 39s33 57 33 95
c0 38.667 -10.833 70.834 -32.5 96.501s-51.167 38.834 -88.5 39.501z" />
    <glyph glyph-name="uni0445" unicode="&#x445;" horiz-adv-x="559" 
d="M157 0h-126v68l158 189l-155 178v70h138l114 -146l113 146h126v-67l-156 -183l159 -185v-70h-138l-118 151z" />
    <glyph glyph-name="uni0446" unicode="&#x446;" horiz-adv-x="636" 
d="M609 -140h-136v140h-409v505h151v-384h168v384h151v-384h75v-261z" />
    <glyph glyph-name="uni0447" unicode="&#x447;" horiz-adv-x="563" 
d="M499 0h-151v163h-82c-78 0 -135.833 16.5 -173.5 49.5s-56.5 84.167 -56.5 153.5v139h151v-139c0 -28.667 6.83301 -49.5 20.5 -62.5s34.5 -19.5 62.5 -19.5h78v221h151v-505z" />
    <glyph glyph-name="uni0448" unicode="&#x448;" horiz-adv-x="819" 
d="M755 0h-691v505h151v-384h119v384h151v-384h119v384h151v-505z" />
    <glyph glyph-name="uni0449" unicode="&#x449;" horiz-adv-x="857" 
d="M830 -140h-136v140h-630v505h151v-384h119v384h151v-384h119v384h151v-384h75v-261z" />
    <glyph glyph-name="uni044A" unicode="&#x44a;" horiz-adv-x="619" 
d="M376 0h-226.001v384h-130v121h281v-152h77c70.667 0 124.5 -15.667 161.5 -47s55.5 -73 55.5 -125c0 -50 -17.667 -92.667 -53 -128s-90.666 -53 -165.999 -53zM300.999 240v-127h63c51.333 0 77 22 77 66c0 40.667 -25.333 61 -76 61h-64z" />
    <glyph glyph-name="uni044B" unicode="&#x44b;" horiz-adv-x="771" 
d="M290 0h-226.001v505h151v-152h77c70.667 0 124.5 -15.667 161.5 -47s55.5 -73 55.5 -125c0 -50 -17.667 -92.667 -53 -128s-90.666 -53 -165.999 -53zM706.999 0h-151v505h151v-505zM214.999 240v-127h63c51.333 0 77 22 77 66c0 40.667 -25.333 61 -76 61h-64z" />
    <glyph glyph-name="uni044C" unicode="&#x44c;" horiz-adv-x="533" 
d="M290 0h-226.001v505h151v-152h77c70.667 0 124.5 -15.667 161.5 -47s55.5 -73 55.5 -125c0 -50 -17.667 -92.667 -53 -128s-90.666 -53 -165.999 -53zM214.999 243v-134h63c53.333 0 80 23.333 80 70c0 20.667 -7 36.5 -21 47.5s-33.333 16.5 -58 16.5h-64z" />
    <glyph glyph-name="uni044D" unicode="&#x44d;" horiz-adv-x="546" 
d="M247 -15c-17.333 0 -33.668 1.16504 -49.001 3.49805s-29.166 5.83301 -41.499 10.5s-23.833 9.83398 -34.5 15.501s-20 11.667 -28 18s-15.167 12.5 -21.5 18.5s-11.666 12 -15.999 18l-10.5 15c-2.66699 4 -4.66699 7.33301 -6 10l-2 4v67h114l3 -6
c1.33301 -2.66699 4.5 -7.33398 9.5 -14.001s10.667 -12.5 17 -17.5s15.333 -9.5 27 -13.5s24.5 -6 38.5 -6c32 0 57 8.83301 75 26.5s28.333 42.167 31 73.5h-168v92h167c-2.66699 30 -13 53.5 -31 70.5s-42.667 25.5 -74 25.5c-22 0 -40.833 -4.66699 -56.5 -14
s-25.834 -18.666 -30.501 -27.999l-7 -13h-114v67l3 6c2 4 5.5 9.5 10.5 16.5s11 14.333 18 22s16.167 15.667 27.5 24s23.833 15.833 37.5 22.5s30.167 12 49.5 16s40 6 62 6c81.333 0 145.5 -25.667 192.5 -77s70.5 -115.666 70.5 -192.999s-22.667 -141 -68 -191
s-110.333 -75 -195 -75z" />
    <glyph glyph-name="uni044E" unicode="&#x44e;" horiz-adv-x="824" 
d="M526 -15c-68 0 -124.332 19.668 -168.999 59.001s-72.334 90.333 -83.001 153h-59v-197h-151v505h151v-187h60c12 57.333 39.667 105.666 83 144.999c42.667 38 98.667 57 168 57c80 0 143.667 -25.333 191 -76s71 -114 71 -190c0 -76.667 -23.667 -140.667 -71 -192
s-111 -77 -191 -77zM526.001 118.001c36 0 63.5 12.667 82.5 38s28.5 58 28.5 98c0 38.667 -9.5 70.5 -28.5 95.5s-46.5 37.5 -82.5 37.5s-63.667 -12.667 -83 -38s-29 -57 -29 -95c0 -40 9.5 -72.667 28.5 -98s46.833 -38 83.5 -38z" />
    <glyph glyph-name="uni044F" unicode="&#x44f;" horiz-adv-x="556" 
d="M341 0l-0.000976562 169h-45l-134 -169h-121v68l109 123c-70.667 26 -106 73.333 -106 142c0 50 18.333 91.167 55 123.5s90.334 48.5 161.001 48.5h232v-505h-151zM271.999 269h69v129h-69c-51.333 0 -77 -22 -77 -66c0 -42 25.667 -63 77 -63z" />
    <glyph glyph-name="uni0451" unicode="&#x451;" horiz-adv-x="583" 
d="M271 600h-145v140h145v-140zM477 600h-146v140h146v-140zM308 -15c-87.333 0 -154.502 24.668 -201.502 74.001s-70.5 113.333 -70.5 192c0 76.667 23.833 140.667 71.5 192s112.5 77 194.5 77s143.333 -21.833 184 -65.5s61 -101.167 61 -172.5
c0 -10.667 -0.5 -21.334 -1.5 -32.001s-2.16699 -18.667 -3.5 -24l-2 -8h-352c4.66699 -34.667 17.5 -62 38.5 -82s49.167 -30 84.5 -30c16.667 0 31.834 1.5 45.501 4.5s24.167 6.83301 31.5 11.5s13.5 9.33398 18.5 14.001s8.16699 8.66699 9.5 12l3 4h118v-67
c-1.33301 -2.66699 -3.5 -6.33398 -6.5 -11.001s-10.5 -12.667 -22.5 -24s-25.833 -21.333 -41.5 -30s-37.667 -16.667 -66 -24s-59.166 -11 -92.499 -11zM190.998 309.001h211c0 26 -8.66699 47.667 -26 65s-42.333 26 -75 26c-59.333 0 -96 -30.333 -110 -91z" />
    <glyph glyph-name="uni0453" unicode="&#x453;" horiz-adv-x="443" 
d="M299 593h-123v60l77 90h144v-60zM215 0h-151v505h360v-123h-209v-382z" />
    <glyph glyph-name="uni045E" unicode="&#x45e;" horiz-adv-x="556" 
d="M287 583c-48.667 0 -86.165 10 -112.498 30s-42.833 39.667 -49.5 59v64h108c0 -8.66699 1 -17 3 -25s7.5 -16 16.5 -24s20.5 -12 34.5 -12c18.667 0 32.5 6.83301 41.5 20.5s13.5 27.167 13.5 40.5h108v-64c-6.66699 -19.333 -23.334 -39 -50.001 -59
s-64.334 -30 -113.001 -30zM544.002 438l-340 -688h-128v70l126 226l-182 389v70h136l129 -296l134 296h125v-67z" />
    <glyph glyph-name="uni0490" unicode="&#x490;" horiz-adv-x="559" 
d="M387 750v150h151v-291h-290v-609h-166v750h305z" />
    <glyph glyph-name="Wgrave" unicode="&#x1e80;" horiz-adv-x="1000" 
d="M576 805h-136l-92 80v60h156l72 -80v-60zM797 0h-169l-129 458l-127 -458h-169l-179 670v80h154l119 -515l137 515h141l133 -515l124 515h146v-70z" />
    <glyph glyph-name="wgrave" unicode="&#x1e81;" horiz-adv-x="800" 
d="M470 600h-123l-97 90v60h143l77 -90v-60zM624 0h-136l-92 291l-86 -291h-136l-151 435v70h136l93 -301l91 301h124l94 -300l90 300h128v-67z" />
    <glyph glyph-name="Wacute" unicode="&#x1e82;" horiz-adv-x="1000" 
d="M569 805h-136v60l72 80h156v-60zM797 0h-169l-129 458l-127 -458h-169l-179 670v80h154l119 -515l137 515h141l133 -515l124 515h146v-70z" />
    <glyph glyph-name="wacute" unicode="&#x1e83;" horiz-adv-x="800" 
d="M472 600h-123v60l77 90h144v-60zM624 0h-136l-92 291l-86 -291h-136l-151 435v70h136l93 -301l91 301h124l94 -300l90 300h128v-67z" />
    <glyph glyph-name="Wdieresis" unicode="&#x1e84;" horiz-adv-x="1000" 
d="M473 800h-150v135h150v-135zM679 800h-151v135h151v-135zM797 0h-169l-129 458l-127 -458h-169l-179 670v80h154l119 -515l137 515h141l133 -515l124 515h146v-70z" />
    <glyph glyph-name="wdieresis" unicode="&#x1e85;" horiz-adv-x="800" 
d="M376 600h-145v140h145v-140zM582 600h-146v140h146v-140zM624 0h-136l-92 291l-86 -291h-136l-151 435v70h136l93 -301l91 301h124l94 -300l90 300h128v-67z" />
    <glyph glyph-name="Ygrave" unicode="&#x1ef2;" horiz-adv-x="662" 
d="M402 805h-136l-92 80v60h156l72 -80v-60zM415 0h-166v300l-242 372v78h146l190 -304l178 304h130v-75l-236 -376v-299z" />
    <glyph glyph-name="ygrave" unicode="&#x1ef3;" horiz-adv-x="556" 
d="M347 600h-123l-97 90v60h143l77 -90v-60zM544 438l-340 -688h-128v70l126 226l-182 389v70h136l129 -296l134 296h125v-67z" />
    <glyph glyph-name="endash" unicode="&#x2013;" horiz-adv-x="583" 
d="M524 247h-465v123h465v-123z" />
    <glyph glyph-name=".null" horiz-adv-x="0" 
 />
    <glyph glyph-name="nonmarkingreturn" horiz-adv-x="333" 
 />
    </font>
</defs>
</svg>
