<svg width="136" height="31" viewBox="0 0 136 31" fill="none" xmlns="http://www.w3.org/2000/svg">
<path d="M34.1312 0.0183498H38.8808C39.4344 -0.00783181 39.9876 0.0782524 40.5069 0.27139C41.0262 0.464528 41.5008 0.760702 41.9019 1.14198C42.3029 1.52326 42.6222 1.9817 42.8404 2.48957C43.0586 2.99743 43.171 3.54414 43.171 4.09659C43.171 4.64905 43.0586 5.19576 42.8404 5.70362C42.6222 6.21149 42.3029 6.66993 41.9019 7.05121C41.5008 7.43249 41.0262 7.72866 40.5069 7.9218C39.9876 8.11494 39.4344 8.20102 38.8808 8.17484H37.2884V12.1934H34.1312V0.0183498ZM37.2884 5.52329H38.2089C39.608 5.52329 39.7461 4.6058 39.7461 4.11953C39.7461 3.63326 39.5528 2.72495 38.2089 2.72495H37.2884V5.52329ZM50.1106 3.78924H52.8076V12.1934H50.1106V11.2026C49.8254 11.6115 49.4436 11.9442 48.999 12.1714C48.5543 12.3986 48.0605 12.5133 47.5609 12.5054C45.5819 12.5054 43.9434 10.8172 43.9434 7.98217C43.9434 5.86276 44.9928 3.47729 47.5609 3.47729C48.0663 3.45868 48.5678 3.5726 49.0152 3.80767C49.4626 4.04273 49.8403 4.3907 50.1106 4.81682V3.78924ZM50.2211 7.98217C50.2211 6.77108 49.5307 5.98204 48.5274 5.98204C48.2825 5.99524 48.0429 6.05857 47.8237 6.1681C47.6044 6.27763 47.4102 6.431 47.253 6.61866C47.0958 6.80631 46.9791 7.02422 46.9101 7.25881C46.8412 7.4934 46.8214 7.73964 46.8521 7.98217C46.8521 8.99141 47.3676 10.0006 48.5274 10.0006C49.5031 10.0006 50.1934 9.22078 50.1934 7.98217H50.2211ZM57.3547 3.78924V8.29411L60.1714 3.78924H62.8776V12.1934H60.0609V7.606L57.2995 12.1934H54.5381V3.78924H57.3547ZM55.7623 0.752342L57.6032 0.0183498C57.6812 0.311863 57.8544 0.571428 58.0958 0.756615C58.3372 0.941803 58.6333 1.04222 58.9379 1.04222C59.2426 1.04222 59.5386 0.941803 59.78 0.756615C60.0214 0.571428 60.1946 0.311863 60.2726 0.0183498L62.1136 0.752342C61.8171 1.33701 61.3638 1.82826 60.8039 2.17147C60.2441 2.51467 59.5998 2.69637 58.9425 2.69637C58.2853 2.69637 57.641 2.51467 57.0811 2.17147C56.5213 1.82826 56.068 1.33701 55.7715 0.752342H55.7623ZM68.6489 12.3127C66.9737 12.3127 64.2122 11.6154 64.2122 7.98217C64.2122 4.34891 66.9737 3.65161 68.6489 3.66996V0H71.4656V3.66996C73.1593 3.66996 75.9115 4.36726 75.9115 7.98217C75.9115 11.5971 73.15 12.3311 71.4656 12.3127V15.8451H68.6489V12.3127ZM68.8238 5.72514C67.9033 5.72514 66.9092 6.44996 66.9092 8.05557C66.9092 9.66117 67.8757 10.4043 68.8238 10.386V5.72514ZM71.2907 10.386C72.2112 10.386 73.2053 9.652 73.2053 8.05557C73.2053 6.45913 72.2848 5.70679 71.2907 5.72514V10.386ZM81.3147 12.3127C79.6394 12.3127 76.8688 11.6154 76.8688 7.98217C76.8688 4.34891 79.6302 3.65161 81.3147 3.66996V0H84.1681V3.66996C85.8526 3.66996 88.6048 4.36726 88.6048 7.98217C88.6048 11.5971 85.8434 12.3311 84.1681 12.3127V15.8451H81.3147V12.3127ZM81.4895 5.72514C80.5691 5.72514 79.575 6.44996 79.575 8.05557C79.575 9.66117 80.5415 10.4043 81.4895 10.386V5.72514ZM83.9564 10.386C84.8769 10.386 85.871 9.652 85.871 8.05557C85.871 6.45913 84.9045 5.70679 83.9564 5.72514V10.386ZM95.7017 3.78924H98.4079V12.1934H95.7017V11.2026C95.4179 11.6107 95.0377 11.9431 94.5947 12.1703C94.1516 12.3975 93.6593 12.5126 93.1611 12.5054C91.1821 12.5054 89.5345 10.8172 89.5345 7.98217C89.5345 5.86276 90.5838 3.47729 93.1611 3.47729C93.6653 3.45845 94.1656 3.57234 94.6116 3.8075C95.0576 4.04266 95.4336 4.39078 95.7017 4.81682V3.78924ZM95.8121 7.98217C95.8121 6.77108 95.1218 5.98204 94.1276 5.98204C92.9494 5.98204 92.4524 7.00963 92.4524 7.98217C92.4524 8.95471 92.9678 10.0006 94.1276 10.0006C95.1218 10.0006 95.8121 9.22078 95.8121 7.98217ZM102.973 3.78924V8.29411L105.79 3.78924H108.496V12.1934H105.68V7.606L102.918 12.1934H100.157V3.78924H102.973ZM101.381 0.752342L103.222 0.0183498C103.3 0.311863 103.473 0.571428 103.715 0.756615C103.956 0.941803 104.252 1.04222 104.557 1.04222C104.861 1.04222 105.157 0.941803 105.399 0.756615C105.64 0.571428 105.813 0.311863 105.891 0.0183498L107.732 0.752342C107.436 1.33701 106.982 1.82826 106.423 2.17147C105.863 2.51467 105.218 2.69637 104.561 2.69637C103.904 2.69637 103.26 2.51467 102.7 2.17147C102.14 1.82826 101.687 1.33701 101.39 0.752342H101.381ZM109.941 4.3122C110.951 3.77643 112.075 3.49009 113.218 3.47729C114.433 3.47729 116.412 3.88098 116.412 5.84441C116.431 6.24861 116.332 6.64955 116.126 6.99823C115.92 7.34692 115.616 7.62825 115.253 7.80784C115.721 7.91018 116.14 8.17238 116.436 8.54922C116.731 8.92606 116.886 9.39394 116.873 9.8722C116.873 10.5236 116.477 12.4687 113.255 12.4687C111.988 12.467 110.746 12.1178 109.665 11.4595L110.392 9.47768C111.095 9.99731 111.947 10.2772 112.822 10.2759C113.798 10.2759 113.964 9.73457 113.964 9.45933C113.964 8.78038 113.209 8.74368 112.804 8.74368H111.598V6.9087H112.979C113.255 6.9087 113.899 6.9087 113.899 6.19306C113.899 5.47742 113.126 5.43154 112.767 5.43154C112.016 5.46188 111.289 5.71064 110.678 6.14719L109.941 4.3122ZM126.326 9.67035C126.065 10.5555 125.506 11.3241 124.743 11.8471C123.98 12.37 123.06 12.6154 122.138 12.5421C119.726 12.5421 117.83 10.9548 117.83 8.01887C117.83 5.35814 119.45 3.51399 122.11 3.51399C125.792 3.51399 126.455 6.81695 126.39 8.69781H120.462C120.425 8.9424 120.439 9.19221 120.505 9.43079C120.571 9.66938 120.687 9.89132 120.845 10.082C121.004 10.2727 121.201 10.4278 121.423 10.5371C121.646 10.6465 121.89 10.7075 122.138 10.7163C122.47 10.752 122.804 10.6654 123.077 10.4728C123.35 10.2802 123.543 9.9948 123.62 9.67035H126.326ZM123.684 7.04633C123.695 6.83078 123.663 6.61518 123.59 6.41214C123.516 6.2091 123.403 6.02269 123.256 5.8638C123.11 5.70491 122.933 5.57673 122.736 5.48676C122.539 5.39679 122.326 5.34683 122.11 5.33979C121.674 5.35888 121.263 5.54887 120.966 5.86844C120.67 6.18801 120.512 6.61132 120.527 7.04633H123.684ZM127.771 3.78924H130.588V6.75273H133.183V3.78924H136V12.1934H133.183V8.83543H130.588V12.1934H127.771V3.78924ZM0 0.183498H29.0041L29.0133 29.1303L0 29.112V0.183498Z" fill="black"/>
<path d="M0.773438 28.3235V1.00977H28.1943L28.1667 28.3326L0.773438 28.3235Z" fill="#FFEE00"/>
<path d="M14.4516 18.1396L23.1869 26.8191L26.6111 23.4152L17.8666 14.7082L19.5695 13.0292V9.67116L20.7845 8.46008V11.2676L21.9811 12.4328L26.2429 8.17565L27.3935 9.31334C27.3503 7.34916 26.5453 5.47805 25.1476 4.09282C24.8131 3.72433 24.4072 3.42736 23.9542 3.21991C23.5012 3.01246 23.0107 2.89886 22.5124 2.886C22.014 2.87313 21.5183 2.96126 21.0551 3.14505C20.592 3.32884 20.1711 3.60446 19.818 3.9552L15.7035 8.05638L16.7252 9.08397L14.4516 11.3318L12.1873 9.08397L13.2182 8.05638L9.09449 3.9552C8.74139 3.60446 8.32051 3.32884 7.85737 3.14505C7.39423 2.96126 6.89847 2.87313 6.40014 2.886C5.90181 2.89886 5.41129 3.01246 4.95832 3.21991C4.50534 3.42736 4.09935 3.72433 3.76495 4.09282C2.37929 5.48142 1.5931 7.35491 1.57422 9.31334L2.67879 8.17565L6.94058 12.4236L8.12799 11.2401V8.4876L9.34302 9.69869V13.0751L11.0459 14.7724L2.39344 23.3876L5.8084 26.7824L14.4516 18.1396Z" fill="black"/>
<path d="M45.2418 17.4969L43.2352 29.8555H40.0688L41.5968 20.4604H39.3324L38.5408 25.3322C38.2554 27.1122 37.6203 30.0114 33.6807 30.0114C33.2426 30.027 32.8047 29.9744 32.3828 29.8555L32.8615 26.8828C33.0778 26.9599 33.3033 27.003 33.5334 27.0112C34.9233 27.0112 35.2639 26.0938 35.54 24.2588L36.6538 17.4418L45.2418 17.4969ZM50.1756 17.4969H54.0231L56.0298 29.8555H52.6332L52.3571 27.7177H48.5095L47.5338 29.8555H44.1373L50.1756 17.4969ZM49.5865 25.0019H52.1638L51.6207 20.4145L49.5865 25.0019ZM61.9945 17.4969L60.7886 24.9194L66.3759 17.4969H69.4411L67.4621 29.8555H64.4153L65.6211 22.433L60.0338 29.8555H56.9318L58.9477 17.4877L61.9945 17.4969ZM68.0328 14.8545C67.6461 15.4759 67.1025 15.9852 66.4564 16.3314C65.8102 16.6776 65.0841 16.8485 64.3509 16.8271C63.6888 16.9019 63.0212 16.7464 62.461 16.3869C61.9007 16.0275 61.4823 15.4861 61.2765 14.8545L63.2095 14.1113C63.2639 14.4323 63.4411 14.7196 63.7037 14.913C63.9664 15.1064 64.2941 15.1907 64.6178 15.1481C64.9808 15.1676 65.3415 15.0796 65.6544 14.8951C65.9672 14.7106 66.2183 14.4379 66.3759 14.1113L68.0328 14.8545ZM74.6141 28.1306C72.6719 28.1306 69.3767 27.5342 70.0854 23.1853C70.7942 18.8364 74.292 18.1758 76.225 18.24L76.4459 16.8821H79.6123L79.3914 18.24C81.3428 18.1758 84.6105 18.8915 83.9109 23.1853C83.2114 27.4792 79.7136 28.1489 77.7806 28.1306L77.4952 29.8646H74.3288L74.6141 28.1306ZM76.0501 20.7173C75.3586 20.6917 74.6843 20.9348 74.1691 21.3952C73.654 21.8556 73.3383 22.4974 73.2887 23.1853C72.9297 25.3781 74.4853 25.6809 75.2769 25.6625L76.0501 20.7173ZM77.9555 25.6625C78.649 25.6903 79.326 25.4468 79.8419 24.984C80.3578 24.5212 80.6718 23.8757 80.7169 23.1853C81.0759 21.0017 79.5295 20.6989 78.7287 20.7173L77.9555 25.6625Z" fill="black"/>
</svg>
