<svg width="18" height="18" viewBox="0 0 18 18" fill="none" xmlns="http://www.w3.org/2000/svg">
<path d="M17.3638 17.3501C17.7158 16.9947 17.7147 16.4218 17.3613 16.0678L13.0883 11.7864C14.2229 10.3119 14.754 8.4594 14.5732 6.60629C14.3925 4.75317 13.5135 3.03877 12.1154 1.81222C10.7172 0.585675 8.90502 -0.0607815 7.04783 0.00450409C5.19063 0.0697896 3.42811 0.841908 2.1192 2.16362C0.810286 3.48533 0.053415 5.25723 0.00272086 7.11848C-0.0479733 8.97973 0.611323 10.7904 1.84634 12.1816C3.08137 13.5729 4.79923 14.4402 6.65011 14.6068C8.50098 14.7735 10.3457 14.2271 11.8085 13.0787L16.0741 17.3526C16.4303 17.7095 17.009 17.7084 17.3638 17.3501ZM7.35156 12.7953C6.27217 12.7953 5.21702 12.4746 4.31955 11.8738C3.42207 11.2729 2.72257 10.4189 2.30951 9.41977C1.89644 8.42061 1.78837 7.32116 1.99894 6.26045C2.20952 5.19975 2.7293 4.22543 3.49254 3.46071C4.25578 2.69598 5.22821 2.1752 6.28686 1.96421C7.3455 1.75322 8.44282 1.86151 9.44004 2.27538C10.4373 2.68924 11.2896 3.3901 11.8893 4.28932C12.489 5.18854 12.809 6.24574 12.809 7.32722C12.8076 8.777 12.2321 10.167 11.209 11.1921C10.1858 12.2173 8.79852 12.7939 7.35156 12.7953Z" fill="#2B2D33"/>
</svg>
