<svg width="23" height="22" viewBox="0 0 23 22" fill="none" xmlns="http://www.w3.org/2000/svg">
<path d="M20.6471 12.9363C20.6583 12.7408 20.6665 12.5524 20.6665 12.4345C20.6665 9.50996 19.3991 6.7998 17.262 4.99522C16.8685 4.66288 16.2913 4.72642 15.9728 5.13708C15.6543 5.54775 15.7152 6.15006 16.1087 6.48239C17.8202 7.92755 18.8331 10.0937 18.8331 12.4346C18.8331 12.4347 18.8331 12.4348 18.8331 12.435C16.8081 12.4351 15.1667 14.1479 15.1667 16.2611C15.1667 18.3743 16.8081 20.0872 18.8333 20.0872C20.8585 20.0872 22.5 18.3743 22.5 16.2611C22.5 14.8366 21.7535 13.5949 20.6471 12.9363ZM18.8333 18.1741C17.8207 18.1741 17 17.3178 17 16.2611C17 15.2043 17.8207 14.348 18.8333 14.348C19.846 14.348 20.6667 15.2043 20.6667 16.2611C20.6667 17.3178 19.846 18.1741 18.8333 18.1741Z" fill="#FEE600"/>
<path d="M3.25159 11.4551C3.7453 11.5719 4.23635 11.249 4.34828 10.7338C4.83778 8.48161 6.2872 6.59121 8.24061 5.57811C8.84977 6.80971 10.0801 7.65225 11.5 7.65225C13.5252 7.65225 15.1667 5.93936 15.1667 3.82612C15.1667 1.71288 13.5252 0 11.5 0C9.52653 0 7.91813 1.62671 7.83721 3.66525C5.18759 4.8716 3.20682 7.33637 2.56035 10.3107C2.44837 10.8259 2.75788 11.3383 3.25159 11.4551ZM11.5 1.91308C12.5126 1.91308 13.3333 2.76944 13.3333 3.82617C13.3333 4.8829 12.5126 5.73921 11.5 5.73921C10.5925 5.73921 9.8396 5.05122 9.69299 4.14788C9.6914 4.13784 9.68973 4.12779 9.68784 4.11779C9.67391 4.02269 9.6667 3.92535 9.6667 3.82617C9.66665 2.76944 10.4874 1.91308 11.5 1.91308Z" fill="#FEE600"/>
<path d="M13.9447 19.652C13.1683 19.9387 12.3452 20.0869 11.4997 20.0869C9.88399 20.0869 8.35318 19.5399 7.10009 18.5568C7.56041 17.9174 7.83335 17.1225 7.83335 16.2611C7.83335 14.1479 6.19186 12.435 4.1667 12.435C2.14154 12.435 0.5 14.1478 0.5 16.2611C0.5 18.3744 2.14149 20.0872 4.16665 20.0872C4.68352 20.0872 5.17513 19.9751 5.6211 19.7738C7.25211 21.1987 9.31603 22 11.4996 22C12.554 22 13.584 21.8146 14.5564 21.4554C15.0336 21.2792 15.2836 20.7326 15.1147 20.2346C14.9457 19.7366 14.422 19.4757 13.9447 19.652ZM2.33335 16.2611C2.33335 15.2044 3.15401 14.348 4.1667 14.348C5.17938 14.348 6 15.2044 6 16.2611C6 17.3178 5.17934 18.1742 4.16665 18.1742C3.15396 18.1742 2.33335 17.3178 2.33335 16.2611Z" fill="#FEE600"/>
</svg>
