<svg width="23" height="22" viewBox="0 0 23 22" fill="none" xmlns="http://www.w3.org/2000/svg">
<path d="M11.5288 6.19523e-05C5.42839 -0.0200553 0.520358 4.86173 0.500063 10.9589C0.479768 17.0561 5.35398 21.9798 11.4476 21.9999C17.5412 22.0201 22.4864 17.0997 22.5 11.0394C22.5135 4.97908 17.6004 0.0201792 11.5288 6.19523e-05ZM11.5119 20.1525C6.41947 20.1642 2.33677 16.0939 2.34861 10.9807C2.36045 5.90782 6.40425 1.8542 11.4662 1.84414C13.8986 1.84591 16.2311 2.80382 17.952 4.50778C19.6729 6.21175 20.6419 8.52268 20.6464 10.9338C20.665 16.0335 16.5924 20.1424 11.5119 20.1525Z" fill="#FEE600"/>
<path d="M5.80385 8.36045L7.06215 8.4426C6.67316 10.8114 6.29939 13.0847 5.9121 15.4233L7.70314 15.7234C7.87227 14.86 8.00926 14.1022 8.16316 13.2841C10.2553 13.2841 12.3084 13.2691 14.3599 13.311C14.5392 13.311 14.803 13.663 14.8673 13.8944C15.0246 14.4744 15.0889 15.0796 15.2056 15.7234L16.9915 15.435C16.6161 13.088 16.2474 10.7812 15.8719 8.43757L17.1657 8.34704V6.61025H5.80385V8.36045ZM8.94452 8.45098H13.9811C14.1502 9.45684 14.2889 10.3906 14.4462 11.3831H8.45744C8.61811 10.394 8.78724 9.44511 8.94452 8.45098Z" fill="#FEE600"/>
</svg>
