<svg width="115" height="24" viewBox="0 0 115 24" fill="none" xmlns="http://www.w3.org/2000/svg">
<path d="M24.0825 0H0V24H24.0825V0Z" fill="black"/>
<path d="M23.4397 0.710938H0.710938V23.3618H23.4397V0.710938Z" fill="#FFEE00"/>
<path d="M1.92359 18.7453L4.9161 21.7275L11.8274 14.6979L19.0236 21.8695L22.0161 18.8873L14.8911 11.7867L16.2449 10.4376V7.59735L17.0999 6.88729V9.23048L18.1686 10.1536L21.4461 6.88729L22.5149 7.66835C23.1561 5.39617 19.5224 0.141727 16.5299 3.05297L13.0386 6.53226L13.7511 7.38433L11.9699 9.08847L10.3311 7.38433L11.2574 6.60327L7.40985 2.91096C4.55985 0.567763 1.56734 4.11806 1.49609 7.66835L2.56484 6.81628L5.7711 10.2956L6.9111 9.3725V7.24232L7.6236 7.81037V10.5796L9.0486 11.9997L1.92359 18.7453Z" fill="black"/>
<path d="M107.09 9.86982H109.441V7.1716H111.65V9.86982H114.001V3.19527H111.65V5.53846H109.441V3.19527H107.09V9.86982ZM92.7688 5.11243C93.2675 4.7574 93.98 4.54438 94.55 4.54438C94.835 4.54438 95.4763 4.61539 95.4763 5.18343C95.4763 5.75148 94.9063 5.75148 94.6925 5.75148H93.5525V7.2426H94.55C94.9063 7.2426 95.5475 7.2426 95.5475 7.81065C95.5475 8.02367 95.405 8.44971 94.6213 8.44971C93.7663 8.44971 93.2675 8.23669 92.555 7.81065L91.9138 9.37278C93.1963 10.0828 94.4075 10.1538 94.9063 10.1538C97.6138 10.1538 97.97 8.59172 97.97 8.09468C97.97 7.38462 97.5425 6.67456 96.6163 6.46154C97.1863 6.17752 97.6138 5.60947 97.6138 4.89941C97.6138 3.33728 95.975 2.98225 94.9063 2.98225C93.98 2.98225 92.84 3.26627 92.1275 3.6213L92.7688 5.11243ZM87.5675 2.27219C88.6363 2.27219 89.7763 1.84615 90.275 0.710059L88.7075 0.142012C88.4938 0.923077 87.8525 0.994083 87.5675 0.994083C87.2825 0.994083 86.6413 0.923077 86.4275 0.142012L84.9313 0.710059C85.43 1.91716 86.57 2.27219 87.5675 2.27219ZM83.9338 3.19527V9.94083H86.2138L88.565 6.24852V9.94083H90.9163V3.19527H88.6363L86.285 6.81657V3.19527H83.9338ZM68.1875 8.44971V4.68639C67.4038 4.68639 66.5488 5.25444 66.5488 6.53255C66.62 7.88166 67.4038 8.44971 68.1875 8.44971ZM70.2538 4.68639V8.44971C71.0375 8.44971 71.8925 7.88166 71.8925 6.60355C71.8925 5.32544 71.0375 4.68639 70.2538 4.68639ZM68.045 12.8521V10.0118C66.62 10.0118 64.34 9.44379 64.34 6.53255C64.34 3.6213 66.6913 3.05325 68.045 3.05325V0.142012H70.3963V3.05325C71.8213 3.05325 74.1013 3.6213 74.1013 6.53255C74.1013 9.44379 71.75 10.0118 70.3963 10.0118V12.8521H68.045ZM57.5713 8.44971V4.68639C56.7875 4.68639 55.9325 5.25444 55.9325 6.53255C55.9325 7.88166 56.7163 8.44971 57.5713 8.44971ZM59.6375 4.68639V8.44971C60.4213 8.44971 61.2763 7.88166 61.2763 6.60355C61.205 5.32544 60.4213 4.68639 59.6375 4.68639ZM57.4288 12.8521V10.0118C56.0037 10.0118 53.7237 9.44379 53.7237 6.53255C53.7237 3.6213 56.0037 3.05325 57.4288 3.05325V0.142012H59.78V3.05325C61.205 3.05325 63.485 3.6213 63.485 6.53255C63.485 9.44379 61.1338 10.0118 59.78 10.0118V12.8521H57.4288ZM49.235 2.27219C50.3037 2.27219 51.4437 1.84615 51.8712 0.710059L50.3037 0.142012C50.09 0.923077 49.4487 0.994083 49.1637 0.994083C48.8787 0.994083 48.2375 0.923077 48.0237 0.142012L46.5275 0.710059C47.0262 1.91716 48.1662 2.27219 49.235 2.27219ZM45.53 3.19527V9.94083H47.81L50.1612 6.24852V9.94083H52.5125V3.19527H50.2325L47.8812 6.81657V3.19527H45.53ZM31.0662 2.13018V4.40237H31.9212C33.1325 4.40237 33.2037 3.69231 33.2037 3.26627C33.2037 2.76923 33.0612 2.13018 31.9212 2.13018H31.0662ZM28.5012 9.86982V0H32.4912C35.1987 0 35.9825 1.91716 35.9825 3.26627C35.9825 4.61539 35.1987 6.53255 32.5625 6.53255H31.1375V9.86982H28.5012ZM82.4375 3.19527V9.94083H80.0863V9.15976C79.6588 9.79882 78.875 10.1538 78.0913 10.1538C76.0963 10.1538 74.7425 8.44971 74.7425 6.53255C74.7425 4.61539 76.0963 2.98225 78.0913 2.98225C78.875 2.98225 79.6588 3.26627 80.1575 3.83432V3.19527H82.4375ZM78.6613 5.04142C77.6638 5.04142 77.165 5.75148 77.165 6.53255C77.165 7.38462 77.735 8.02367 78.6613 8.02367C79.5875 8.02367 80.1575 7.38462 80.1575 6.53255C80.1575 5.68047 79.5875 5.04142 78.6613 5.04142ZM44.0337 3.19527V9.94083H41.6825V9.15976C41.255 9.79882 40.4712 10.1538 39.6875 10.1538C37.6925 10.1538 36.3387 8.44971 36.3387 6.53255C36.3387 4.61539 37.6925 2.98225 39.6875 2.98225C40.4712 2.98225 41.255 3.26627 41.7537 3.83432V3.19527H44.0337ZM40.2575 5.04142C39.26 5.04142 38.7612 5.75148 38.7612 6.53255C38.7612 7.38462 39.3312 8.02367 40.2575 8.02367C41.1837 8.02367 41.7537 7.38462 41.7537 6.53255C41.7537 5.68047 41.1837 5.04142 40.2575 5.04142ZM105.95 6.81657V7.10059H100.963C100.963 8.09468 101.461 8.59172 102.459 8.59172C102.958 8.59172 103.314 8.44971 103.599 7.95266H105.879C105.523 9.5858 104.026 10.2959 102.459 10.2959C100.25 10.2959 98.6113 9.01775 98.6113 6.74556C98.6113 4.47337 100.108 3.12426 102.316 3.12426C104.596 3.05325 105.95 4.54438 105.95 6.81657ZM100.963 5.68047H103.67C103.528 5.04142 102.958 4.61539 102.316 4.61539C101.675 4.61539 101.105 4.97042 100.963 5.68047Z" fill="black"/>
<path d="M31.5647 21.9408H31.9922C32.4197 21.9408 32.7759 21.9408 33.0609 21.8698C33.3459 21.7988 33.5597 21.7278 33.7734 21.5857C33.9872 21.4437 34.1297 21.1597 34.2009 20.8047C34.2722 20.4496 34.2722 20.2366 34.1297 20.0946C33.9872 19.9526 33.7734 19.8106 33.5597 19.8106C33.3459 19.8106 32.9897 19.7396 32.4909 19.7396H32.0634L31.5647 21.9408ZM37.1934 14.0591L36.6947 16.2603H32.7047L32.4197 17.6094H33.9159C34.6997 17.6094 35.2697 17.7514 35.7684 17.9644C36.2672 18.1775 36.5522 18.6035 36.7659 19.0295C36.9084 19.5266 36.9797 20.0946 36.7659 20.8047C36.6234 21.4437 36.3384 22.0828 35.9109 22.5088C35.4834 23.0059 34.9847 23.3609 34.4147 23.5739C33.8447 23.7869 33.1322 23.9289 32.4197 23.9289H28.4297L30.5672 13.9171H37.1934V14.0591Z" fill="black"/>
<path d="M43.4638 17.1124L41.6826 20.3077H43.8201L43.4638 17.1124ZM40.5426 22.2959L39.4738 24H36.6951L42.6801 13.9882H45.5301L47.1688 24H44.3901L44.1051 22.2959H40.5426Z" fill="black"/>
<path d="M56.0036 17.8935L56.7873 14.0592H59.4236L57.2861 24H54.6498L55.5761 19.9526H51.7998L50.9448 24H48.3086L50.4461 14.0592H53.0111L52.2273 17.8935H56.0036Z" fill="black"/>
<path d="M67.1904 14.0592H70.4679L65.4804 18.7455L68.6866 24H65.2666L62.8441 19.6686L61.9179 24H59.2816L61.4191 14.0592H64.0554L63.1291 18.1775H63.2004L67.1904 14.0592Z" fill="black"/>
</svg>
