<svg width="46" height="38" viewBox="0 0 46 38" fill="none" xmlns="http://www.w3.org/2000/svg">
<path d="M26.7332 20.8665C28.2184 20.8665 29.6428 20.2765 30.693 19.2263C31.7432 18.1761 32.3332 16.7517 32.3332 15.2665C32.3332 13.7813 31.7432 12.3569 30.693 11.3067C29.6428 10.2565 28.2184 9.6665 26.7332 9.6665H19.2665V17.7174H15.5332V20.8665H19.2665V23.3753H15.5332V26.4665H19.2665V30.1998H22.4156V26.4665H28.5999V23.3753H22.4156V20.8665H26.7332ZM22.4399 12.8398H26.7332C27.3768 12.8398 27.994 13.0955 28.4491 13.5506C28.9042 14.0057 29.1599 14.6229 29.1599 15.2665C29.1599 15.9101 28.9042 16.5273 28.4491 16.9824C27.994 17.4375 27.3768 17.6932 26.7332 17.6932H22.4399V12.8398Z" fill="#2B2D33"/>
<path d="M11.7996 17.1331H9.55961L8.09054 18.6021C8.18222 15.1016 9.50251 11.7449 11.8202 9.11992C14.1378 6.49494 17.3051 4.76902 20.7674 4.24443C24.2296 3.71985 27.766 4.43004 30.7572 6.25063C33.7485 8.07121 36.0039 10.8861 37.1284 14.2024L39.9993 11.3296C38.2618 7.46064 35.2573 4.29963 31.4814 2.36814C27.7056 0.436648 23.3841 -0.149904 19.23 0.70527C15.0759 1.56044 11.3375 3.80624 8.63163 7.07209C5.92573 10.3379 4.41404 14.4287 4.34601 18.6693L2.79668 17.1331H0.599609V19.4235L6.19961 24.9731L11.7996 19.3731V17.1331Z" fill="#2B2D33"/>
<path d="M39.7998 14.8931L34.1998 20.4931V22.7331H36.4398L37.7054 21.4675C37.1808 24.6167 35.6591 27.5144 33.3643 29.734C31.0695 31.9537 28.1228 33.378 24.9579 33.7975C21.7929 34.217 18.5769 33.6094 15.7831 32.0642C12.9893 30.519 10.7653 28.1177 9.43847 25.2139L6.65527 27.9971C8.56324 31.4696 11.5274 34.2444 15.1181 35.9194C18.7088 37.5943 22.7396 38.0824 26.6264 37.3129C30.5131 36.5435 34.0539 34.5564 36.7355 31.6396C39.4172 28.7228 41.1005 25.028 41.5414 21.0904L43.2027 22.7331H45.3998V20.4427L39.7998 14.8931Z" fill="#2B2D33"/>
</svg>
