<svg width="38" height="38" viewBox="0 0 38 38" fill="none" xmlns="http://www.w3.org/2000/svg">
<path d="M18.9997 0.333008C15.3078 0.333008 11.6988 1.42779 8.62904 3.47891C5.55932 5.53003 3.16677 8.44536 1.75393 11.8562C0.341096 15.2671 -0.0285664 19.0204 0.691691 22.6414C1.41195 26.2623 3.18978 29.5884 5.80036 32.199C8.41094 34.8096 11.737 36.5874 15.358 37.3077C18.979 38.0279 22.7322 37.6583 26.1431 36.2454C29.554 34.8326 32.4693 32.44 34.5204 29.3703C36.5716 26.3006 37.6663 22.6916 37.6663 18.9997C37.6609 14.0506 35.6925 9.30585 32.193 5.80635C28.6935 2.30685 23.9487 0.338443 18.9997 0.333008ZM18.9997 33.933C16.0461 33.933 13.1589 33.0572 10.7032 31.4163C8.24739 29.7754 6.33335 27.4431 5.20308 24.7144C4.07281 21.9857 3.77708 18.9831 4.35329 16.0863C4.9295 13.1895 6.35176 10.5287 8.44022 8.44021C10.5287 6.35175 13.1896 4.92949 16.0863 4.35328C18.9831 3.77708 21.9857 4.07281 24.7144 5.20307C27.4431 6.33334 29.7754 8.24739 31.4163 10.7032C33.0572 13.1589 33.933 16.0461 33.933 18.9997C33.9286 22.9589 32.3538 26.7546 29.5542 29.5542C26.7546 32.3538 22.9589 33.9286 18.9997 33.933Z" fill="#2B2D33"/>
<path d="M20.8661 7.7998H17.1328V17.1331V20.8665H20.8661H28.3328V17.1331H20.8661V7.7998Z" fill="#2B2D33"/>
</svg>
