<svg width="38" height="38" viewBox="0 0 38 38" fill="none" xmlns="http://www.w3.org/2000/svg">
<path d="M37.3212 19.1434L36.9199 17.1498C36.1315 13.3388 34.151 9.87748 31.265 7.26667C28.379 4.65586 24.7372 3.03098 20.8665 2.62714V0.333008H17.1332V5.93301L17.3385 5.85647V5.95167C17.8899 5.88571 18.4446 5.85081 18.9999 5.84714C22.0928 5.85469 25.1079 6.8174 27.6328 8.60363C30.1578 10.3899 32.0694 12.9124 33.1063 15.8263H4.89347C5.73815 13.4597 7.16293 11.3427 9.03741 9.66907C10.9119 7.99548 13.1762 6.81876 15.6231 6.24661V2.84554C12.055 3.52185 8.76809 5.24234 6.17899 7.7889C3.58989 10.3355 1.81519 13.5934 1.07987 17.1498L0.674805 19.1434H17.1332V31.133C17.1332 31.8756 16.8382 32.5878 16.3131 33.1129C15.788 33.638 15.0758 33.933 14.3332 33.933C13.5906 33.933 12.8784 33.638 12.3533 33.1129C11.8282 32.5878 11.5332 31.8756 11.5332 31.133V30.0447H7.79987V31.133C7.79987 32.8658 8.4882 34.5275 9.71344 35.7528C10.9387 36.978 12.6005 37.6663 14.3332 37.6663C16.066 37.6663 17.7277 36.978 18.953 35.7528C20.1782 34.5275 20.8665 32.8658 20.8665 31.133V19.1434H37.3212Z" fill="#2B2D33"/>
</svg>
