<?xml version="1.0" standalone="no"?>
<!DOCTYPE svg PUBLIC "-//W3C//DTD SVG 1.1//EN" "http://www.w3.org/Graphics/SVG/1.1/DTD/svg11.dtd" >
<svg>
<metadata>
Created by FontForge 20090914 at Thu Aug 20 00:43:49 2020
 By www-data
Copyright (c) 2019 by Art. Lebedev Studio. All rights reserved.
</metadata>
<defs>
<font id="ALSHauss-Light" horiz-adv-x="0" >
  <font-face 
    font-family="ALS Hauss Light"
    font-weight="300"
    font-stretch="normal"
    units-per-em="1000"
    panose-1="2 0 0 0 0 0 0 0 0 0"
    ascent="800"
    descent="-200"
    x-height="504"
    cap-height="704"
    bbox="-153 -238 1157 942.999"
    underline-thickness="50"
    underline-position="-150"
    unicode-range="U+000D-U+277E"
  />
<missing-glyph horiz-adv-x="613" 
d="M52 704h509v-704h-509v704zM427 570h-241v-436h241v436z" />
    <glyph glyph-name=".notdef" horiz-adv-x="613" 
d="M52 704h509v-704h-509v704zM427 570h-241v-436h241v436z" />
    <glyph glyph-name="uni0000" 
 />
    <glyph glyph-name="uni0000" 
 />
    <glyph glyph-name="uni000D" unicode="&#xd;" horiz-adv-x="220" 
 />
    <glyph glyph-name="space" unicode=" " horiz-adv-x="220" 
 />
    <glyph glyph-name="exclam" unicode="!" horiz-adv-x="279" 
d="M117 188l-3 516h50l-3 -516h-44zM140 71c11.333 0 20.833 -4 28.5 -12s11.5 -17.667 11.5 -29c0 -10.667 -4 -20 -12 -28s-17.333 -12 -28 -12c-11.333 0 -21 3.83301 -29 11.5s-12 17.167 -12 28.5s4 21 12 29s17.667 12 29 12z" />
    <glyph glyph-name="quotedbl" unicode="&#x22;" horiz-adv-x="356" 
d="M229 466v238h47l-3 -238h-44zM80 466v238h47l-3 -238h-44z" />
    <glyph glyph-name="numbersign" unicode="#" horiz-adv-x="711" 
d="M656 500v-42h-134l-37 -212h126v-42h-134l-35 -204h-43l35 204h-208l-35 -204h-44l35 204h-127v42h135l36 212h-127v42h135l35 204h44l-35 -204h207l36 204h44l-36 -204h127zM270 458l-37 -212h208l37 212h-208z" />
    <glyph glyph-name="dollar" unicode="$" horiz-adv-x="589" 
d="M55 188l48.001 0.00195312c9.33301 -38 28.5 -68.833 57.5 -92.5s66.5 -37.834 112.5 -42.501v286l-50 8c-49.333 8 -87.666 25.833 -114.999 53.5s-41 63.5 -41 107.5c0 54.667 20.167 98.834 60.5 132.501s88.833 51.834 145.5 54.501v91h43v-91
c53.333 -4.66699 98.666 -22 135.999 -52s60.666 -70.667 69.999 -122h-48c-8 38.667 -26.167 69 -54.5 91s-62.833 35 -103.5 39v-273l51 -8c50.667 -8.66699 91.167 -27.334 121.5 -56.001s45.5 -67.667 45.5 -117c0 -56 -20.667 -101 -62 -135s-93.333 -52 -156 -54v-96
h-43v97c-58.667 5.33301 -107.5 23.166 -146.5 53.499s-62.833 72.166 -71.5 125.499zM357.001 325.002l-41.001 7v-280c49.333 1.33301 90 14.833 122 40.5s48 59.5 48 101.5c0 36 -11.167 65.167 -33.5 87.5s-54.166 36.833 -95.499 43.5zM115 511.002
c0 -66.667 39 -106.332 117 -118.999l41 -7v266c-44 -2.66699 -81.333 -16.334 -112 -41.001s-46 -57.667 -46 -99z" />
    <glyph glyph-name="percent" unicode="%" horiz-adv-x="830" 
d="M142 0l491 704h54l-491 -704h-54zM198 671c-32.667 0 -58.667 -12.333 -78 -37s-29 -55.667 -29 -93s9.66699 -68.333 29 -93s45.333 -37 78 -37s58.667 12.333 78 37s29 55.667 29 93s-9.66699 68.333 -29 93s-45.333 37 -78 37zM45 541
c0 50 14.3311 91.167 42.998 123.5s65.334 48.5 110.001 48.5s81.334 -16.167 110.001 -48.5s43 -73.5 43 -123.5s-14.167 -91.167 -42.5 -123.5s-65.166 -48.5 -110.499 -48.5c-44.667 0 -81.334 16.167 -110.001 48.5s-43 73.5 -43 123.5zM631.998 293
c-32.667 0 -58.667 -12.333 -78 -37s-29 -55.667 -29 -93s9.66699 -68.333 29 -93s45.333 -37 78 -37s58.667 12.333 78 37s29 55.667 29 93s-9.66699 68.333 -29 93s-45.333 37 -78 37zM478.998 163c0 50 14.3311 91.167 42.998 123.5s65.334 48.5 110.001 48.5
s81.334 -16.167 110.001 -48.5s43 -73.5 43 -123.5s-14.167 -91.167 -42.5 -123.5s-65.166 -48.5 -110.499 -48.5c-44.667 0 -81.334 16.167 -110.001 48.5s-43 73.5 -43 123.5z" />
    <glyph glyph-name="ampersand" unicode="&#x26;" horiz-adv-x="706" 
d="M667 313l-129 -165.999l138 -147h-60l-107 114l-7 -8c-69.333 -76.667 -144.333 -115 -225 -115c-62.667 0 -114.334 18.333 -155.001 55s-61 83.334 -61 140.001c0 92 61.333 161.667 184 209l-22 22c-17.333 17.333 -30.666 31.5 -39.999 42.5s-18.333 25.833 -27 44.5
s-13 37.667 -13 57c0 42.667 16 78.667 48 108s72 44 120 44c46.667 0 85.5 -14.333 116.5 -43s46.5 -65.334 46.5 -110.001c0 -74.667 -51 -134.334 -153 -179.001l188 -202l102 134h56zM473 137.001l7.00098 8.00098l-204 219c-54.667 -20 -95.834 -44 -123.501 -72
s-41.5 -62.667 -41.5 -104c0 -46.667 15.833 -83.834 47.5 -111.501s72.5 -41.5 122.5 -41.5c70.667 0 134.667 34 192 102zM191.001 563.002c0 -16.667 4.16602 -33.167 12.499 -49.5s15.833 -28.333 22.5 -36s17.334 -18.834 32.001 -33.501l32 -33
c48 20.667 82.833 42.834 104.5 66.501s32.5 51.167 32.5 82.5c0 33.333 -11.333 60.166 -34 80.499s-50.667 30.5 -84 30.5c-34 0 -62.167 -10.167 -84.5 -30.5s-33.5 -46.166 -33.5 -77.499z" />
    <glyph glyph-name="quotesingle" unicode="'" horiz-adv-x="207" 
d="M80 466v238h47l-3 -238h-44z" />
    <glyph glyph-name="parenleft" unicode="(" horiz-adv-x="313" 
d="M283 727c-100.667 -127.333 -151 -275 -151 -443c0 -166.667 50.333 -314 151 -442h-49c-43.333 52 -79.333 116.667 -108 194s-43 160 -43 248s14.333 171 43 249s64.667 142.667 108 194h49z" />
    <glyph glyph-name="parenright" unicode=")" horiz-adv-x="313" 
d="M30 727h49c43.333 -51.333 79.333 -116 108 -194s43 -161 43 -249s-14.333 -170.667 -43 -248s-64.667 -142 -108 -194h-49c100.667 128 151 275.333 151 442c0 168 -50.333 315.667 -151 443z" />
    <glyph glyph-name="asterisk" unicode="*" horiz-adv-x="405" 
d="M224 713l-1 -143l135 45l12 -37l-135 -45l84 -114l-32 -23l-84 117l-84 -117l-32 23l83 114l-134 45l12 37l136 -45l-1 143h41z" />
    <glyph glyph-name="plus" unicode="+" horiz-adv-x="611" 
d="M282 506h47v-214h207v-46h-207v-214h-47v214h-207v46h207v214z" />
    <glyph glyph-name="comma" unicode="," horiz-adv-x="239" 
d="M160 29c0 -8 -1.66797 -17 -5.00098 -27l-53 -162h-41l49 153c-9.33301 1.33301 -17.166 5.33301 -23.499 12s-9.5 15 -9.5 25c0 11.333 3.83301 20.833 11.5 28.5s17.167 11.5 28.5 11.5c12 0 22.167 -3.83301 30.5 -11.5s12.5 -17.5 12.5 -29.5z" />
    <glyph glyph-name="hyphen" unicode="-" horiz-adv-x="426" 
d="M60 246v46h306v-46h-306z" />
    <glyph glyph-name="period" unicode="." horiz-adv-x="239" 
d="M120 71c11.333 0 20.833 -4 28.5 -12s11.5 -17.667 11.5 -29c0 -10.667 -4 -20 -12 -28s-17.333 -12 -28 -12c-11.333 0 -21 3.83301 -29 11.5s-12 17.167 -12 28.5s4 21 12 29s17.667 12 29 12z" />
    <glyph glyph-name="slash" unicode="/" horiz-adv-x="337" 
d="M275 727h47l-260 -885h-47z" />
    <glyph glyph-name="zero" unicode="0" horiz-adv-x="642" 
d="M321 713c78.667 0 140.834 -33.167 186.501 -99.5s68.5 -153.5 68.5 -261.5s-22.833 -195.167 -68.5 -261.5s-107.834 -99.5 -186.501 -99.5s-140.834 33.167 -186.501 99.5s-68.5 153.5 -68.5 261.5s22.833 195.167 68.5 261.5s107.834 99.5 186.501 99.5zM321 37
c64 0 114.167 29 150.5 87s54.5 134 54.5 228s-18.167 170 -54.5 228s-86.5 87 -150.5 87s-114.167 -29 -150.5 -87s-54.5 -134 -54.5 -228s18.167 -170 54.5 -228s86.5 -87 150.5 -87z" />
    <glyph glyph-name="one" unicode="1" horiz-adv-x="429" 
d="M298 704v-704h-49v646l-191 -122v53l195 127h45z" />
    <glyph glyph-name="two" unicode="2" horiz-adv-x="596" 
d="M465 514c0 44.667 -15.834 81.333 -47.501 110s-70.834 43 -117.501 43c-48 0 -88.333 -13.333 -121 -40s-53.667 -61.667 -63 -105h-48c8.66699 56.667 34.334 102.667 77.001 138s94.667 53 156 53s112.333 -19 153 -57s61 -85.333 61 -142
c0 -30.667 -7.33301 -61 -22 -91s-29.667 -53.833 -45 -71.5s-37.666 -40.5 -66.999 -68.5l-244 -237h396v-46h-463v42l280 274c26 26 45.667 46.667 59 62s26 35.333 38 60s18 50 18 76z" />
    <glyph glyph-name="three" unicode="3" horiz-adv-x="610" 
d="M75 533c10.667 56 37.166 100.001 79.499 132.001s92.833 48 151.5 48c64 0 115.667 -17.5 155 -52.5s59 -79.5 59 -133.5c0 -40 -10.5 -73.667 -31.5 -101s-47.5 -47 -79.5 -59c36 -8.66699 68 -27.667 96 -57s42 -68.333 42 -117c0 -55.333 -22 -102.833 -66 -142.5
s-100.333 -59.5 -169 -59.5c-66 0 -122 17.167 -168 51.5s-73 79.5 -81 135.5h49c8.66699 -42 31 -76 67 -102s80.333 -39 133 -39c55.333 0 100 15.167 134 45.5s51 67.5 51 111.5c0 45.333 -16.667 81.166 -50 107.499s-78.666 39.5 -135.999 39.5h-86v45h84
c52 0 91.833 13.333 119.5 40s41.5 60 41.5 100c0 42 -14.833 76 -44.5 102s-69.5 39 -119.5 39c-47.333 0 -87 -12 -119 -36s-53 -56.667 -63 -98h-49z" />
    <glyph glyph-name="four" unicode="4" horiz-adv-x="636" 
d="M474 0h-49v178h-369v41l360 487h58v-483h106v-45h-106v-178zM112 223h313v422z" />
    <glyph glyph-name="five" unicode="5" horiz-adv-x="616" 
d="M316 37c54 0 98.499 17.667 133.499 53s52.5 81 52.5 137c0 56.667 -18 101.667 -54 135s-79.667 50 -131 50c-80 0 -141.667 -34.667 -185 -104h-48l33 396h398v-46h-356l-25 -288c46 58 109.333 87 190 87c62 0 115.5 -20.833 160.5 -62.5s67.5 -97.5 67.5 -167.5
c0 -68.667 -22.5 -125.167 -67.5 -169.5s-101.167 -66.5 -168.5 -66.5c-65.333 0 -119.166 17 -161.499 51s-68.5 76 -78.5 126h50c10 -36.667 31.5 -67.667 64.5 -93s74.833 -38 125.5 -38z" />
    <glyph glyph-name="six" unicode="6" horiz-adv-x="622" 
d="M330 459c63.333 0 117.667 -21.168 163 -63.501s68 -98.166 68 -167.499s-22.5 -126.166 -67.5 -170.499s-100.5 -66.5 -166.5 -66.5c-80.667 0 -144.334 29.167 -191.001 87.5s-70 140.166 -70 245.499c0 128.667 24 225.667 72 291s112 98 192 98
c56.667 0 104.334 -15.833 143.001 -47.5s62.334 -69.834 71.001 -114.501h-49c-9.33301 32.667 -28.333 60.167 -57 82.5s-64.667 33.5 -108 33.5c-66.667 0 -119.334 -28.667 -158.001 -86s-58 -143.666 -58 -258.999v-2c16.667 42 44.5 75.667 83.5 101
s83.167 38 132.5 38zM326.001 36.999c52 0 95.834 17.667 131.501 53s53.5 81.333 53.5 138c0 56 -18.167 101 -54.5 135s-80.5 51 -132.5 51c-53.333 0 -98.333 -17.5 -135 -52.5s-55 -78.833 -55 -131.5c0 -56 18.167 -102.167 54.5 -138.5s82.166 -54.5 137.499 -54.5z
" />
    <glyph glyph-name="seven" unicode="7" horiz-adv-x="555" 
d="M499 662l-302 -662h-54l300 658h-397v46h453v-42z" />
    <glyph glyph-name="eight" unicode="8" horiz-adv-x="623" 
d="M66 187c0 50.667 15.8311 92 47.498 124s64.834 51.333 99.501 58c-30.667 10 -58.667 28.5 -84 55.5s-38 62.5 -38 106.5c0 53.333 20.333 97 61 131s94 51 160 51c65.333 0 118.333 -17.167 159 -51.5s61 -77.833 61 -130.5c0 -44 -12.667 -79.5 -38 -106.5
s-53.333 -45.5 -84 -55.5c34.667 -6.66699 67.834 -26 99.501 -58s47.5 -73.333 47.5 -124c0 -58 -22.833 -105.167 -68.5 -141.5s-104.5 -54.5 -176.5 -54.5s-131 18.167 -177 54.5s-69 83.5 -69 141.5zM482.998 529c0 42 -15.833 75.833 -47.5 101.5
s-72.834 38.5 -123.501 38.5c-51.333 0 -92.833 -12.833 -124.5 -38.5s-47.5 -59.5 -47.5 -101.5c0 -41.333 16.5 -75 49.5 -101s73.833 -39 122.5 -39s89.334 13 122.001 39s49 59.667 49 101zM507.998 189c0 47.333 -18.5 85.333 -55.5 114s-83.833 43 -140.5 43
s-103.667 -14.333 -141 -43s-56 -66.667 -56 -114c0 -44.667 18.167 -81.334 54.5 -110.001s83.833 -43 142.5 -43c58 0 105.167 14.333 141.5 43s54.5 65.334 54.5 110.001z" />
    <glyph glyph-name="nine" unicode="9" horiz-adv-x="622" 
d="M292 245c-63.333 0 -117.667 21.168 -163 63.501s-68 98.166 -68 167.499s22.5 126.166 67.5 170.499s100.5 66.5 166.5 66.5c80.667 0 144.334 -29.167 191.001 -87.5s70 -140.166 70 -245.499c0 -128.667 -24 -225.667 -72 -291s-112 -98 -192 -98
c-56.667 0 -104.334 15.833 -143.001 47.5s-62.334 69.834 -71.001 114.501h49c9.33301 -32.667 28.333 -60.167 57 -82.5s64.667 -33.5 108 -33.5c66.667 0 119.334 28.667 158.001 86s58 143.666 58 258.999v1c-17.333 -42 -45.5 -75.5 -84.5 -100.5
s-82.833 -37.5 -131.5 -37.5zM295.999 667.001c-52 0 -95.834 -17.667 -131.501 -53s-53.5 -81.333 -53.5 -138c0 -56 18.167 -101 54.5 -135s80.5 -51 132.5 -51c53.333 0 98.333 17.5 135 52.5s55 78.833 55 131.5c0 56 -18.167 102.167 -54.5 138.5
s-82.166 54.5 -137.499 54.5z" />
    <glyph glyph-name="colon" unicode=":" horiz-adv-x="239" 
d="M120 71c11.333 0 20.833 -4 28.5 -12s11.5 -17.667 11.5 -29c0 -10.667 -4 -20 -12 -28s-17.333 -12 -28 -12c-11.333 0 -21 3.83301 -29 11.5s-12 17.167 -12 28.5s4 21 12 29s17.667 12 29 12zM120 489c11.333 0 20.833 -4 28.5 -12s11.5 -17.667 11.5 -29
c0 -10.667 -4 -20 -12 -28s-17.333 -12 -28 -12c-11.333 0 -21 3.83301 -29 11.5s-12 17.167 -12 28.5s4 21 12 29s17.667 12 29 12z" />
    <glyph glyph-name="semicolon" unicode=";" horiz-adv-x="239" 
d="M160 29c0 -8 -1.66797 -17 -5.00098 -27l-53 -162h-41l49 153c-9.33301 1.33301 -17.166 5.33301 -23.499 12s-9.5 15 -9.5 25c0 11.333 3.83301 20.833 11.5 28.5s17.167 11.5 28.5 11.5c12 0 22.167 -3.83301 30.5 -11.5s12.5 -17.5 12.5 -29.5zM118.999 489
c11.333 0 20.833 -4 28.5 -12s11.5 -17.667 11.5 -29c0 -10.667 -3.83301 -20 -11.5 -28s-17.167 -12 -28.5 -12s-21 3.83301 -29 11.5s-12 17.167 -12 28.5s4 21 12 29s17.667 12 29 12z" />
    <glyph glyph-name="less" unicode="&#x3c;" horiz-adv-x="611" 
d="M533 27l-454 222v40l454 222v-51l-392 -191l392 -191v-51z" />
    <glyph glyph-name="equal" unicode="=" horiz-adv-x="611" 
d="M88 349v45h435v-45h-435zM88 143v45h435v-45h-435z" />
    <glyph glyph-name="greater" unicode="&#x3e;" horiz-adv-x="611" 
d="M79 27v51l391 191l-391 191v51l454 -222v-40z" />
    <glyph glyph-name="question" unicode="?" horiz-adv-x="523" 
d="M416 532c0 40.667 -13.999 73.499 -41.999 98.499s-65 37.5 -111 37.5c-47.333 0 -85.5 -12.333 -114.5 -37s-48.5 -57.334 -58.5 -98.001h-48c10.667 52.667 35.334 95.834 74.001 129.501s88 50.5 148 50.5s108.5 -16.833 145.5 -50.5s55.5 -76.5 55.5 -128.5
c0 -24 -2.83301 -45.167 -8.5 -63.5s-15.334 -35.5 -29.001 -51.5s-24.667 -27.667 -33 -35s-22.166 -18.666 -41.499 -33.999c-3.33301 -2.66699 -9.5 -7.33398 -18.5 -14.001l-18 -13.5c-3 -2.33301 -8.16699 -6.66602 -15.5 -12.999s-12.333 -11.5 -15 -15.5l-11 -16
c-4.66699 -6.66699 -7.83398 -13 -9.50098 -19s-3.33398 -13.167 -5.00098 -21.5s-2.5 -17.166 -2.5 -26.499v-23h-46v25c0 50 17.667 91.333 53 124c8.66699 8 26.334 22 53.001 42c21.333 16.667 37.666 30.167 48.999 40.5s22.333 25.666 33 45.999s16 42.5 16 66.5z
M238.001 70.999c11.333 0 20.833 -4 28.5 -12s11.5 -17.667 11.5 -29c0 -10.667 -4 -20 -12 -28s-17.333 -12 -28 -12c-11.333 0 -21 3.83301 -29 11.5s-12 17.167 -12 28.5s4 21 12 29s17.667 12 29 12z" />
    <glyph glyph-name="at" unicode="@" horiz-adv-x="905" 
d="M469 692c112.667 0 204.667 -36.834 276 -110.501s107 -164.167 107 -271.5c0 -81.333 -14.667 -140.833 -44 -178.5s-65.333 -56.5 -108 -56.5c-27.333 0 -50.833 7.16699 -70.5 21.5s-33.167 33.5 -40.5 57.5c-32 -54.667 -81.333 -82 -148 -82
c-52 0 -95.667 19 -131 57s-53 89 -53 153c0 62 17.667 112 53 150s79.666 57 132.999 57c61.333 0 108 -25.667 140 -77v67h46v-278c0 -26.667 7.16699 -47.5 21.5 -62.5s31.833 -22.5 52.5 -22.5c29.333 0 53.5 15.333 72.5 46s28.5 80 28.5 148
c0 96.667 -30.667 177.334 -92 242.001s-142.333 97 -243 97c-102 0 -187.333 -34 -256 -102s-103 -159 -103 -273c0 -113.333 35.833 -201.833 107.5 -265.5s160.834 -95.5 267.501 -95.5c62 0 115.667 8.66699 161 26v-44c-43.333 -16.667 -97 -25 -161 -25
c-78.667 0 -149.667 15.5 -213 46.5s-114 77.5 -152 139.5s-57 134.667 -57 218c0 125.333 38.833 226.333 116.5 303s174.167 115 289.5 115zM445 114.999c40.667 0 73.832 14.5 99.499 43.5s38.5 67.5 38.5 115.5v15c0 46 -12.667 83.667 -38 113s-58.666 44 -99.999 44
s-75 -14.833 -101 -44.5s-39 -69.5 -39 -119.5c0 -50.667 13 -91.167 39 -121.5s59.667 -45.5 101 -45.5z" />
    <glyph glyph-name="A" unicode="A" horiz-adv-x="648" 
d="M299 704h50l273 -704h-53l-81 211h-329l-80 -211h-53zM323 642l-147 -386h295z" />
    <glyph glyph-name="B" unicode="B" horiz-adv-x="625" 
d="M92 0v703.997h238c67.333 0 119.5 -16 156.5 -48s55.5 -74.667 55.5 -128c0 -42 -10.5 -77.167 -31.5 -105.5s-45.5 -47.166 -73.5 -56.499c34 -7.33301 64.667 -25.666 92 -54.999s41 -68.666 41 -117.999c0 -58.667 -20 -105.5 -60 -140.5s-94.667 -52.5 -164 -52.5
h-254zM343 340.997l-201.999 0.000976562v-296h202c55.333 0 98.666 13.333 129.999 40s47 63 47 109c0 45.333 -15.5 81.166 -46.5 107.499s-74.5 39.5 -130.5 39.5zM324.001 658.998l-183 -0.000976562v-274h196c52 0 90.833 13 116.5 39s38.5 59.333 38.5 100
c0 42.667 -14.5 75.834 -43.5 99.501s-70.5 35.5 -124.5 35.5z" />
    <glyph glyph-name="C" unicode="C" horiz-adv-x="702" 
d="M599 213h50.001c-10 -60 -39.333 -112 -88 -156s-113.334 -66 -194.001 -66c-89.333 0 -163.166 32.833 -221.499 98.5s-87.5 153.167 -87.5 262.5c0 107.333 28.667 194.333 86 261s131.333 100 222 100c76 0 139 -21.167 189 -63.5s80.667 -94.5 92 -156.5h-50
c-12 49.333 -37.833 90.5 -77.5 123.5s-90.834 49.5 -153.501 49.5c-77.333 0 -139.666 -28.667 -186.999 -86s-71 -133.333 -71 -228c0 -96 24.333 -172.333 73 -229s110.667 -85 186 -85c65.333 0 118.166 17.167 158.499 51.5s64.833 75.5 73.5 123.5z" />
    <glyph glyph-name="D" unicode="D" horiz-adv-x="701" 
d="M290 704c109.333 0 195.5 -30.333 258.5 -91s94.5 -147.667 94.5 -261s-31.5 -200.333 -94.5 -261s-149.167 -91 -258.5 -91h-198v704h198zM284 46c98 0 174 25.832 228 77.499s81 127.834 81 228.501c0 100 -27 176 -81 228s-130 78 -228 78h-143v-612h143z" />
    <glyph glyph-name="E" unicode="E" horiz-adv-x="583" 
d="M520 658h-379v-273h360v-45h-360v-294h379v-46h-428v704h428v-46z" />
    <glyph glyph-name="F" unicode="F" horiz-adv-x="575" 
d="M141 0h-49v704h424v-46h-375v-279h351v-45h-351v-334z" />
    <glyph glyph-name="G" unicode="G" horiz-adv-x="721" 
d="M363 346h294.994v-54c0 -92 -25.333 -165.167 -76 -219.5s-121.667 -81.5 -213 -81.5c-92.667 0 -167.667 33.667 -225 101s-86 154 -86 260c0 108 28.5 195.167 85.5 261.5s132.167 99.5 225.5 99.5c74.667 0 136.834 -20 186.501 -60s81.834 -91.333 96.501 -154h-51
c-14.667 50.667 -41.667 91.167 -81 121.5s-89.666 45.5 -150.999 45.5c-79.333 0 -142.666 -28.5 -189.999 -85.5s-71 -133.167 -71 -228.5c0 -93.333 23.833 -169 71.5 -227s110.834 -87 189.501 -87c76.667 0 135.834 21.833 177.501 65.5s62.5 105.167 62.5 184.5v13
h-246v45z" />
    <glyph glyph-name="H" unicode="H" horiz-adv-x="714" 
d="M141 0h-49v704h49v-318h432v318h49v-704h-49v339h-432v-339z" />
    <glyph glyph-name="I" unicode="I" horiz-adv-x="233" 
d="M141 704v-704h-49v704h49z" />
    <glyph glyph-name="J" unicode="J" horiz-adv-x="526" 
d="M35 171l47.999 0.00195312c6 -40 22.167 -72.167 48.5 -96.5s60.833 -36.5 103.5 -36.5c49.333 0 87.166 16 113.499 48s39.5 76.667 39.5 134v484h49v-485c0 -72.667 -17.833 -128.834 -53.5 -168.501s-85.167 -59.5 -148.5 -59.5
c-57.333 0 -103.666 16.667 -138.999 50s-55.666 76.666 -60.999 129.999z" />
    <glyph glyph-name="K" unicode="K" horiz-adv-x="602" 
d="M141 0h-49v704h49v-322l364 322h69l-381 -338l391 -366h-71l-372 347v-347z" />
    <glyph glyph-name="L" unicode="L" horiz-adv-x="557" 
d="M141 704v-658h379v-46h-428v704h49z" />
    <glyph glyph-name="M" unicode="M" horiz-adv-x="866" 
d="M92 704h56l285 -639l286 639h55v-704h-48v607l-271 -607h-44l-271 607v-607h-48v704z" />
    <glyph glyph-name="N" unicode="N" horiz-adv-x="719" 
d="M144 704l434 -621v621h49v-704h-48l-438 625v-625h-49v704h52z" />
    <glyph glyph-name="O" unicode="O" horiz-adv-x="744" 
d="M372 713c94 0 169.833 -33.5 227.5 -100.5s86.5 -153.833 86.5 -260.5s-28.833 -193.5 -86.5 -260.5s-133.5 -100.5 -227.5 -100.5s-169.833 33.5 -227.5 100.5s-86.5 153.833 -86.5 260.5s28.833 193.5 86.5 260.5s133.5 100.5 227.5 100.5zM372 38
c80 0 144 28.667 192 86s72 133.333 72 228s-24 170.667 -72 228s-112 86 -192 86s-144 -28.667 -192 -86s-72 -133.333 -72 -228s24 -170.667 72 -228s112 -86 192 -86z" />
    <glyph glyph-name="P" unicode="P" horiz-adv-x="602" 
d="M320 704c69.333 0 124.833 -19.834 166.5 -59.501s62.5 -91.167 62.5 -154.5s-20.833 -115.166 -62.5 -155.499s-96.5 -60.5 -164.5 -60.5h-181v-274h-49v704h228zM315 657.999l-174 0.000976562v-338h175c56 0 100.5 15.333 133.5 46s49.5 72 49.5 124
c0 51.333 -16.5 92.166 -49.5 122.499s-77.833 45.5 -134.5 45.5z" />
    <glyph glyph-name="Q" unicode="Q" horiz-adv-x="744" 
d="M372 713c94 0 169.834 -33.5 227.501 -100.5s86.5 -153.833 86.5 -260.5c0 -63.333 -10.833 -120.5 -32.5 -171.5s-51.834 -92.5 -90.501 -124.5l84 -126h-54l-68 100c-46 -26 -97 -39 -153 -39c-94 0 -169.833 33.5 -227.5 100.5s-86.5 153.833 -86.5 260.5
s28.833 193.5 86.5 260.5s133.5 100.5 227.5 100.5zM372.001 38c47.333 0 89.667 10.667 127 32l-89 133h55l71 -107c66.667 56 100 141.333 100 256c0 94.667 -24 170.667 -72 228s-112 86 -192 86s-144 -28.667 -192 -86s-72 -133.333 -72 -228s24 -170.667 72 -228
s112 -86 192 -86z" />
    <glyph glyph-name="R" unicode="R" horiz-adv-x="622" 
d="M554 494c0 -50.667 -15.5 -95.166 -46.5 -133.499s-72.5 -62.833 -124.5 -73.5l208 -287h-59l-205 282h-186v-282h-49v704h237c70 0 125 -19.833 165 -59.5s60 -89.834 60 -150.501zM324 658.001h-183.001v-330h184c55.333 0 99 15.667 131 47s48 71 48 119
c0 48.667 -15.667 88.167 -47 118.5s-75.666 45.5 -132.999 45.5z" />
    <glyph glyph-name="S" unicode="S" horiz-adv-x="613" 
d="M55 180h48.999c10.667 -44.667 34.667 -79.667 72 -105s85 -38 143 -38c54.667 0 99.834 13.5 135.501 40.5s53.5 63.5 53.5 109.5c0 75.333 -46 121 -138 137l-138 23c-52 8.66699 -92.333 27.334 -121 56.001s-43 66.334 -43 113.001c0 60 22.833 107.833 68.5 143.5
s100.167 53.5 163.5 53.5c62.667 0 116.667 -15.833 162 -47.5s73 -76.834 83 -135.501h-49c-10.667 45.333 -33.5 79.5 -68.5 102.5s-77.5 34.5 -127.5 34.5c-49.333 0 -92 -13 -128 -39s-54 -62.333 -54 -109c0 -68 41.333 -109.333 124 -124l139 -24
c54.667 -9.33301 97.834 -29 129.501 -59s47.5 -70.667 47.5 -122c0 -60.667 -22.833 -109 -68.5 -145s-102.834 -54 -171.501 -54c-70.667 0 -129.667 16.167 -177 48.5s-76 79.166 -86 140.499z" />
    <glyph glyph-name="T" unicode="T" horiz-adv-x="615" 
d="M34 658v46h547v-46h-249v-658h-49v658h-249z" />
    <glyph glyph-name="U" unicode="U" horiz-adv-x="706" 
d="M87 270v434h49v-433c0 -74.667 19.833 -132.167 59.5 -172.5s92.167 -60.5 157.5 -60.5s117.833 20.167 157.5 60.5s59.5 97.833 59.5 172.5v433h49v-434c0 -88.667 -24.5 -157.334 -73.5 -206.001s-113.167 -73 -192.5 -73s-143.5 24.333 -192.5 73
s-73.5 117.334 -73.5 206.001z" />
    <glyph glyph-name="V" unicode="V" horiz-adv-x="645" 
d="M619 704l-272 -704h-49l-272 704h53l243 -639l244 639h53z" />
    <glyph glyph-name="W" unicode="W" horiz-adv-x="958" 
d="M924 704l-224 -704h-47l-174 617l-174 -617h-47l-224 704h52l195 -620l175 620h47l174 -618l195 618h52z" />
    <glyph glyph-name="X" unicode="X" horiz-adv-x="642" 
d="M549 0l-229 316l-227 -316h-59l254 352l-252 352h59l226 -314l227 314h58l-252 -352l254 -352h-59z" />
    <glyph glyph-name="Y" unicode="Y" horiz-adv-x="620" 
d="M335 0h-49v291l-265 413h57l232 -364l232 364h57l-264 -411v-293z" />
    <glyph glyph-name="Z" unicode="Z" horiz-adv-x="623" 
d="M63 43l436 615h-436v46h497v-43l-437 -615h437v-46h-497v43z" />
    <glyph glyph-name="bracketleft" unicode="[" horiz-adv-x="341" 
d="M311 684h-153v-799h153v-43h-200v885h200v-43z" />
    <glyph glyph-name="backslash" unicode="\" horiz-adv-x="337" 
d="M62 727l260 -885h-47l-260 885h47z" />
    <glyph glyph-name="bracketright" unicode="]" horiz-adv-x="341" 
d="M30 -158v43h153v799h-153v43h200v-885h-200z" />
    <glyph glyph-name="asciicircum" unicode="^" horiz-adv-x="415" 
d="M379 405h-48l-123 233l-123 -233h-48l151 285h40z" />
    <glyph glyph-name="underscore" unicode="_" horiz-adv-x="472" 
d="M0 -67h472v-43h-472v43z" />
    <glyph glyph-name="grave" unicode="`" horiz-adv-x="520" 
d="M187 727h54l92 -142h-51z" />
    <glyph glyph-name="a" unicode="a" horiz-adv-x="524" 
d="M402 337c0 43.333 -12.833 76.333 -38.5 99s-59.834 34 -102.501 34c-38 0 -69.5 -8.5 -94.5 -25.5s-42.167 -39.5 -51.5 -67.5h-46c10 40 32.167 72.667 66.5 98s76.5 38 126.5 38c56.667 0 101.834 -15.5 135.501 -46.5s50.5 -74.167 50.5 -129.5v-337h-44v78
c-38.667 -58 -99.667 -87 -183 -87c-48.667 0 -89.5 13.5 -122.5 40.5s-49.5 62.833 -49.5 107.5c0 46 17 82.167 51 108.5s81.667 39.5 143 39.5h159v50zM226 34c51.333 0 93.5 13.833 126.5 41.5s49.5 65.167 49.5 112.5v57h-157c-47.333 0 -83.833 -9.16699 -109.5 -27.5
s-38.5 -44.5 -38.5 -78.5c0 -32 12 -57.5 36 -76.5s55 -28.5 93 -28.5z" />
    <glyph glyph-name="b" unicode="b" horiz-adv-x="587" 
d="M310 513c63.333 0 116.833 -23.167 160.5 -69.5s65.5 -110.166 65.5 -191.499c0 -80.667 -21.5 -144.334 -64.5 -191.001s-97.167 -70 -162.5 -70c-40.667 0 -77 9.16699 -109 27.5s-56.667 43.833 -74 76.5v-95h-45v727h47v-316c18 32 42.833 57 74.5 75
s67.5 27 107.5 27zM307 35c54 0 97.667 19.833 131 59.5s50 92.167 50 157.5s-16.833 117.833 -50.5 157.5s-77.167 59.5 -130.5 59.5c-52.667 0 -96 -19.167 -130 -57.5s-51 -88.833 -51 -151.5v-16c0 -61.333 16.667 -111.5 50 -150.5s77 -58.5 131 -58.5z" />
    <glyph glyph-name="c" unicode="c" horiz-adv-x="537" 
d="M281 35c46 0 82.667 11.999 110 35.999s45 52.333 53 85h47c-6.66699 -45.333 -29 -84.166 -67 -116.499s-85.667 -48.5 -143 -48.5c-66 0 -120.833 23.667 -164.5 71s-65.5 110.666 -65.5 189.999c0 78.667 21.833 141.834 65.5 189.501s98.5 71.5 164.5 71.5
c56.667 0 103.5 -15.833 140.5 -47.5s60.167 -70.167 69.5 -115.5h-47c-10 34 -29 62.333 -57 85s-63.333 34 -106 34c-52.667 0 -96.167 -19.667 -130.5 -59s-51.5 -92 -51.5 -158c0 -66.667 17.333 -119.5 52 -158.5s78 -58.5 130 -58.5z" />
    <glyph glyph-name="d" unicode="d" horiz-adv-x="588" 
d="M277 -9c-63.333 0 -116.833 23.168 -160.5 69.501s-65.5 110.166 -65.5 191.499c0 80.667 21.5 144.334 64.5 191.001s97.167 70 162.5 70c40 0 75.833 -9 107.5 -27s56.5 -42.667 74.5 -74v315h47v-727h-45v96c-18 -32.667 -43.167 -58.334 -75.5 -77.001
s-68.833 -28 -109.5 -28zM280 469.001c-54 0 -97.667 -19.833 -131 -59.5s-50 -92.167 -50 -157.5s16.833 -117.833 50.5 -157.5s77.167 -59.5 130.5 -59.5s97 19.167 131 57.5s51 88.833 51 151.5v16c0 60.667 -16.833 110.667 -50.5 150s-77.5 59 -131.5 59z" />
    <glyph glyph-name="e" unicode="e" horiz-adv-x="543" 
d="M492 241h-392.003v-3c0 -62 17.167 -111.333 51.5 -148s77.833 -55 130.5 -55c40.667 0 74.334 9.16699 101.001 27.5s44.334 40.166 53.001 65.499h48c-10 -37.333 -32.333 -69.5 -67 -96.5s-79.667 -40.5 -135 -40.5c-67.333 0 -122.666 23.333 -165.999 70
s-65 110.334 -65 191.001c0 79.333 21.167 142.666 63.5 189.999s96.5 71 162.5 71c64.667 0 116.667 -21.667 156 -65s59 -102.666 59 -177.999v-29zM276.997 469c-50 0 -91.168 -16.8311 -123.501 -50.498s-50.166 -78.834 -53.499 -135.501h344
c-0.666992 59.333 -16 105.166 -46 137.499s-70.333 48.5 -121 48.5z" />
    <glyph glyph-name="f" unicode="f" horiz-adv-x="311" 
d="M158 0l-47 0.000976562v461h-94v43h94v76c0 47.333 12.333 83.666 37 108.999s59.667 38 105 38h30v-43h-28c-64.667 0 -97 -35.333 -97 -106v-74h125v-43h-125v-461z" />
    <glyph glyph-name="g" unicode="g" horiz-adv-x="587" 
d="M461 504h44.999v-490c0 -70 -20.167 -124.5 -60.5 -163.5s-93.166 -58.5 -158.499 -58.5c-57.333 0 -105 13.5 -143 40.5s-60 61.833 -66 104.5h47c8 -31.333 26.167 -56 54.5 -74s64.5 -27 108.5 -27c52 0 93.5 15.667 124.5 47s46.5 75 46.5 131v85
c-39.333 -67.333 -100 -101 -182 -101c-64.667 0 -118.5 23 -161.5 69s-64.5 109 -64.5 189c0 79.333 21.333 142 64 188s97 69 163 69c40.667 0 77 -9.33301 109 -28s56.667 -44 74 -76v95zM279.999 42c54 0 97.667 19.167 131 57.5s50 87.833 50 148.5v16
c0 58.667 -16.5 107.5 -49.5 146.5s-76.833 58.5 -131.5 58.5c-54 0 -97.667 -19.5 -131 -58.5s-50 -90.5 -50 -154.5c0 -64.667 16.667 -116.5 50 -155.5s77 -58.5 131 -58.5z" />
    <glyph glyph-name="h" unicode="h" horiz-adv-x="563" 
d="M299 513c52.667 0 97.166 -16.5 133.499 -49.5s54.5 -81.167 54.5 -144.5v-319h-47v312c0 52 -13.667 91.167 -41 117.5s-62.666 39.5 -105.999 39.5c-44 0 -82.5 -14 -115.5 -42s-49.5 -69 -49.5 -123v-304h-47v727h47v-299c16.667 26 40.5 46.667 71.5 62
s64.167 23 99.5 23z" />
    <glyph glyph-name="i" unicode="i" horiz-adv-x="209" 
d="M128 504v-504h-47v504h47zM105 695c11.333 0 20.833 -3.83301 28.5 -11.5s11.5 -17.167 11.5 -28.5s-3.83301 -20.833 -11.5 -28.5s-17.167 -11.5 -28.5 -11.5s-20.833 3.83301 -28.5 11.5s-11.5 17.167 -11.5 28.5s3.83301 20.833 11.5 28.5s17.167 11.5 28.5 11.5z" />
    <glyph glyph-name="j" unicode="j" horiz-adv-x="210" 
d="M-26 -191v43h17c60.667 0 91 35 91 105v547h47v-549c0 -97.333 -44.333 -146 -133 -146h-22zM106 695c11.333 0 20.833 -3.83301 28.5 -11.5s11.5 -17.167 11.5 -28.5s-3.83301 -20.833 -11.5 -28.5s-17.167 -11.5 -28.5 -11.5s-20.833 3.83301 -28.5 11.5
s-11.5 17.167 -11.5 28.5s3.83301 20.833 11.5 28.5s17.167 11.5 28.5 11.5z" />
    <glyph glyph-name="k" unicode="k" horiz-adv-x="484" 
d="M128 0h-47v727h47v-446l266 223h65l-280 -236l286 -268h-65l-272 253v-253z" />
    <glyph glyph-name="l" unicode="l" horiz-adv-x="209" 
d="M128 727v-727h-47v727h47z" />
    <glyph glyph-name="m" unicode="m" horiz-adv-x="860" 
d="M609 513c48 0 89.1699 -15.8301 123.503 -47.4971s51.5 -78.5 51.5 -140.5v-325h-47v319c0 50 -12.833 87.5 -38.5 112.5s-57.834 37.5 -96.501 37.5c-40.667 0 -75.167 -13.333 -103.5 -40s-42.5 -64.334 -42.5 -113.001v-316h-47v319
c0 49.333 -12.667 86.666 -38 111.999s-57.333 38 -96 38c-40 0 -74.5 -13.833 -103.5 -41.5s-43.5 -64.834 -43.5 -111.501v-316h-47v504h45v-75c15.333 26 37.166 46.5 65.499 61.5s58.5 22.5 90.5 22.5c33.333 0 64.166 -8.33301 92.499 -25s49.5 -41.334 63.5 -74.001
c14.667 30.667 37.667 54.834 69 72.501s65.333 26.5 102 26.5z" />
    <glyph glyph-name="n" unicode="n" horiz-adv-x="563" 
d="M81 504h44.999v-79c16 27.333 39.833 48.833 71.5 64.5s65.5 23.5 101.5 23.5c52.667 0 97.167 -16.5 133.5 -49.5s54.5 -81.167 54.5 -144.5v-319h-47v312c0 52 -13.667 91.167 -41 117.5s-62.666 39.5 -105.999 39.5c-44 0 -82.5 -14 -115.5 -42s-49.5 -69 -49.5 -123
v-304h-47v504z" />
    <glyph glyph-name="o" unicode="o" horiz-adv-x="568" 
d="M284 513c69.333 0 125.5 -24.167 168.5 -72.5s64.5 -111.166 64.5 -188.499s-21.5 -140.166 -64.5 -188.499s-99.167 -72.5 -168.5 -72.5s-125.5 24.167 -168.5 72.5s-64.5 111.166 -64.5 188.499s21.5 140.166 64.5 188.499s99.167 72.5 168.5 72.5zM284 35
c55.333 0 100 19.833 134 59.5s51 92.167 51 157.5s-17 117.833 -51 157.5s-78.667 59.5 -134 59.5s-100 -19.833 -134 -59.5s-51 -92.167 -51 -157.5s17 -117.833 51 -157.5s78.667 -59.5 134 -59.5z" />
    <glyph glyph-name="p" unicode="p" horiz-adv-x="587" 
d="M310 513c63.333 0 116.833 -23.167 160.5 -69.5s65.5 -110.166 65.5 -191.499c0 -80.667 -21.5 -144.334 -64.5 -191.001s-97.167 -70 -162.5 -70c-40 0 -75.833 9 -107.5 27s-56.167 42.667 -73.5 74v-283h-47v695h45v-97c18 33.333 43 59.333 75 78s68.333 28 109 28z
M307 35c54 0 97.667 19.833 131 59.5s50 92.167 50 157.5s-16.833 117.833 -50.5 157.5s-77.167 59.5 -130.5 59.5c-52.667 0 -96 -19.167 -130 -57.5s-51 -88.833 -51 -151.5v-16c0 -61.333 16.667 -111.5 50 -150.5s77 -58.5 131 -58.5z" />
    <glyph glyph-name="q" unicode="q" horiz-adv-x="588" 
d="M277 -9c-63.333 0 -116.833 23.168 -160.5 69.501s-65.5 110.166 -65.5 191.499c0 80.667 21.5 144.334 64.5 191.001s97.167 70 162.5 70c40 0 76.333 -9.33301 109 -28s57.667 -44.334 75 -77.001v96h45v-695h-47v284c-18 -32 -43 -57 -75 -75s-68 -27 -108 -27z
M280 469.001c-54 0 -97.667 -19.833 -131 -59.5s-50 -92.167 -50 -157.5s16.833 -117.833 50.5 -157.5s77.167 -59.5 130.5 -59.5s97 19.167 131 57.5s51 88.833 51 151.5v16c0 60.667 -16.833 110.667 -50.5 150s-77.5 59 -131.5 59z" />
    <glyph glyph-name="r" unicode="r" horiz-adv-x="343" 
d="M293 505h22v-45h-22c-48 0 -87.5 -15.167 -118.5 -45.5s-46.5 -73.5 -46.5 -129.5v-285h-47v504h45v-89c34 60 89.667 90 167 90z" />
    <glyph glyph-name="s" unicode="s" horiz-adv-x="489" 
d="M95 139c19.333 -70 73.332 -104.999 161.999 -104.999c40.667 0 73.5 9.16699 98.5 27.5s37.5 43.166 37.5 74.499c0 51.333 -33 81 -99 89l-94 12c-42 5.33301 -75.5 18.833 -100.5 40.5s-37.5 51.5 -37.5 89.5c0 41.333 17 76 51 104s77 42 129 42
c50 0 91.833 -12.667 125.5 -38s53.834 -59 60.501 -101h-46c-7.33301 30 -23.166 53.5 -47.499 70.5s-55.166 25.5 -92.499 25.5c-40 0 -72 -9.33301 -96 -28s-36 -42.667 -36 -72c0 -50 32.667 -79.333 98 -88l95 -13c43.333 -6 77.166 -19.667 101.499 -41
s36.5 -51 36.5 -89c0 -44.667 -17.333 -80.5 -52 -107.5s-78.334 -40.5 -131.001 -40.5c-54 0 -100 12.167 -138 36.5s-61.667 61.5 -71 111.5h46z" />
    <glyph glyph-name="t" unicode="t" horiz-adv-x="322" 
d="M156 144c0 -67.333 31.333 -101 94 -101h33v-43h-39c-90 -0 -135 47.333 -135 142v319h-92v43h92v134h47v-134h127v-43h-127v-317z" />
    <glyph glyph-name="u" unicode="u" horiz-adv-x="563" 
d="M482 0l-44.999 -0.000976562v78c-16.667 -27.333 -40.667 -48.666 -72 -63.999s-65 -23 -101 -23c-52.667 0 -97.167 16.5 -133.5 49.5s-54.5 81.167 -54.5 144.5v319h47v-312c0 -52 13.667 -91.167 41 -117.5s62.666 -39.5 105.999 -39.5c44 0 82.5 14 115.5 42
s49.5 69 49.5 123v304h47v-504z" />
    <glyph glyph-name="v" unicode="v" horiz-adv-x="500" 
d="M479 504l-205 -504h-49l-204 504h51l177 -444l179 444h51z" />
    <glyph glyph-name="w" unicode="w" horiz-adv-x="756" 
d="M730 504l-170 -504h-47l-136 434l-135 -434h-47l-169 504h50l143 -433l135 433h48l135 -433l143 433h50z" />
    <glyph glyph-name="x" unicode="x" horiz-adv-x="502" 
d="M415 0l-166 218l-162 -218h-56l188 252l-186 252h56l162 -219l162 219h56l-188 -252l190 -252h-56z" />
    <glyph glyph-name="y" unicode="y" horiz-adv-x="506" 
d="M434 504h51l-288 -695h-51l82 198l-207 497h51l181 -440z" />
    <glyph glyph-name="z" unicode="z" horiz-adv-x="490" 
d="M53 0v39l325 422h-324v43h383v-39l-326 -422h326v-43h-384z" />
    <glyph glyph-name="braceleft" unicode="{" horiz-adv-x="353" 
d="M191 417c0 -41.333 -6.16699 -71.999 -18.5 -91.999s-32.5 -33.667 -60.5 -41c28 -6.66699 48.167 -20.334 60.5 -41.001s18.5 -51.667 18.5 -93v-146c0 -43.333 8.83301 -74 26.5 -92s44.5 -27 80.5 -27h25v-43h-27c-101.333 0 -152 52.667 -152 158v145
c0 39.333 -7 68.833 -21 88.5s-38.333 29.5 -73 29.5h-25v41h25c34.667 0 59 9.83301 73 29.5s21 49.167 21 88.5v147c0 105.333 50.667 158 152 158h27v-43h-25c-36 0 -62.833 -9 -80.5 -27s-26.5 -48.667 -26.5 -92v-148z" />
    <glyph glyph-name="bar" unicode="|" horiz-adv-x="247" 
d="M101 727h45v-885h-45v885z" />
    <glyph glyph-name="braceright" unicode="}" horiz-adv-x="353" 
d="M162 417v147.999c0 43.333 -8.83301 74 -26.5 92s-44.5 27 -80.5 27h-25v43h27c101.333 0 152 -52.667 152 -158v-147c0 -39.333 7 -68.833 21 -88.5s38.333 -29.5 73 -29.5h25v-41h-25c-34.667 0 -59 -9.83301 -73 -29.5s-21 -49.167 -21 -88.5v-145
c0 -105.333 -50.667 -158 -152 -158h-27v43h25c36 0 62.833 9 80.5 27s26.5 48.667 26.5 92v146c0 41.333 6.16699 72.333 18.5 93s32.5 34.334 60.5 41.001c-28 7.33301 -48.167 21 -60.5 41s-18.5 50.667 -18.5 92z" />
    <glyph glyph-name="asciitilde" unicode="~" horiz-adv-x="611" 
d="M494 341h44v-25c0 -38 -11.333 -68.833 -34 -92.5s-51.334 -35.5 -86.001 -35.5c-22.667 0 -45 6 -67 18s-40.333 25 -55 39s-31.334 27 -50.001 39s-36.334 18 -53.001 18c-23.333 0 -42 -7.66699 -56 -23s-21 -36 -21 -62v-22h-44v25c0 38 11.333 68.833 34 92.5
s51.334 35.5 86.001 35.5c22.667 0 45 -6 67 -18s40.333 -25 55 -39s31.334 -27 50.001 -39s36.334 -18 53.001 -18c23.333 0 42 7.66699 56 23s21 36 21 62v22z" />
    <glyph glyph-name="uni00A0" unicode="&#xa0;" horiz-adv-x="220" 
 />
    <glyph glyph-name="exclamdown" unicode="&#xa1;" horiz-adv-x="279" 
d="M117 315h44l3 -506h-50zM140 513c11.333 0 20.833 -4 28.5 -12s11.5 -17.667 11.5 -29c0 -10.667 -4 -20 -12 -28s-17.333 -12 -28 -12c-11.333 0 -21 3.83301 -29 11.5s-12 17.167 -12 28.5s4 21 12 29s17.667 12 29 12z" />
    <glyph glyph-name="cent" unicode="&#xa2;" horiz-adv-x="563" 
d="M462 455c-8.66699 31.333 -26.3311 58 -52.998 80s-59.334 34.667 -98.001 38v-443c42 3.33301 76 17 102 41s42.333 51 49 81h48c-6.66699 -42.667 -28 -80 -64 -112s-81 -50 -135 -54v-95h-42v96c-61.333 6 -111.833 32.333 -151.5 79s-59.5 108.667 -59.5 186
c0 76.667 19.667 138.5 59 185.5s90 73.5 152 79.5v96h42v-96c52.667 -3.33301 96.667 -20.5 132 -51.5s57.666 -67.833 66.999 -110.5h-48zM106.003 352c0 -64.667 15.167 -116.167 45.5 -154.5s69.5 -60.5 117.5 -66.5v441c-48 -6 -87.167 -28.333 -117.5 -67
s-45.5 -89.667 -45.5 -153z" />
    <glyph glyph-name="sterling" unicode="&#xa3;" horiz-adv-x="574" 
d="M462 322l-260.001 -0.00195312c5.33301 -20 8 -41 8 -63c0 -78.667 -33.333 -149.667 -100 -213h413v-46h-475v42c76 73.333 114 146 114 218c0 19.333 -3.33301 40 -10 62h-104v44h89c-0.666992 2 -2.83398 7.66699 -6.50098 17s-6 15.166 -7 17.499
s-3.16699 7.83301 -6.5 16.5s-5.5 15 -6.5 19l-4.5 17.5c-2 7.66699 -3.5 14.334 -4.5 20.001s-1.83301 12.167 -2.5 19.5s-1 14.333 -1 21c0 58.667 20.5 106.5 61.5 143.5s90.833 55.5 149.5 55.5c54.667 0 101 -15.667 139 -47s62.667 -73.333 74 -126h-50
c-9.33301 39.333 -28.666 70.333 -57.999 93s-64.666 34 -105.999 34c-46 0 -84.333 -13.833 -115 -41.5s-46 -65.167 -46 -112.5c0 -13.333 1.5 -27.166 4.5 -41.499s5.83301 -25.666 8.5 -33.999s7.5 -21 14.5 -38s11.5 -28.167 13.5 -33.5h274v-44z" />
    <glyph glyph-name="currency" unicode="&#xa4;" horiz-adv-x="598" 
d="M509 352c0 -50 -15.333 -94 -46 -132l93 -93l-33 -31l-92 92c-38 -30.667 -82 -46 -132 -46c-50.667 0 -95 15.333 -133 46l-91 -92l-33 31l93 93c-30.667 38 -46 82 -46 132s15.333 94 46 132l-93 93l33 31l91 -93c38.667 31.333 83 47 133 47
c49.333 0 93.333 -15.667 132 -47l92 93l33 -31l-93 -93c30.667 -38 46 -82 46 -132zM135 352c0 -47.333 15.667 -87 47 -119s70.333 -48 117 -48s85.667 16 117 48s47 71.667 47 119s-15.667 87 -47 119s-70.333 48 -117 48s-85.667 -16 -117 -48s-47 -71.667 -47 -119z
" />
    <glyph glyph-name="yen" unicode="&#xa5;" horiz-adv-x="583" 
d="M501 154h-185v-154h-49v154h-185v42h185v102h-185v42h161l-224 364h55l217 -358l219 358h54l-224 -364h161v-42h-185v-102h185v-42z" />
    <glyph glyph-name="brokenbar" unicode="&#xa6;" horiz-adv-x="247" 
d="M146 209v-367h-45v367h45zM101 360v367h45v-367h-45z" />
    <glyph glyph-name="section" unicode="&#xa7;" horiz-adv-x="519" 
d="M54 302c0 33.333 9.49805 61.832 28.498 85.499s43.5 41.5 73.5 53.5c-50.667 26.667 -76 66.334 -76 119.001c0 43.333 16.833 79.666 50.5 108.999s75.834 44 126.501 44c48.667 0 90.167 -12.667 124.5 -38s54.166 -58.333 59.499 -99h-48
c-6 29.333 -21.333 52.5 -46 69.5s-55 25.5 -91 25.5c-37.333 0 -68.166 -10 -92.499 -30s-36.5 -46 -36.5 -78c0 -53.333 34 -86.666 102 -99.999l89 -17c44.667 -8.66699 80.334 -25 107.001 -49s40 -55.333 40 -94c0 -32.667 -8.83301 -60.667 -26.5 -84
s-40.167 -41 -67.5 -53c46 -28 69 -68.333 69 -121c0 -45.333 -17.167 -82.5 -51.5 -111.5s-76.833 -43.5 -127.5 -43.5c-54 0 -98.833 12.667 -134.5 38s-57.5 61.666 -65.5 108.999h47c7.33301 -34 24.333 -60 51 -78s61 -27 103 -27c38 0 69.333 10.333 94 31
s37 47 37 79c0 27.333 -8.66699 50.333 -26 69s-41.333 30.667 -72 36l-101 18c-42 7.33301 -75.833 22.333 -101.5 45s-38.5 53.334 -38.5 92.001zM310.998 188.999l17 -4.00098c26 8.66699 47.5 22.667 64.5 42s25.5 43 25.5 71c0 56 -37.667 91.333 -113 106l-92 18
c-2.66699 0 -6 0.666992 -10 2c-30 -9.33301 -54.5 -23.666 -73.5 -42.999s-28.5 -43.333 -28.5 -72c0 -55.333 35.333 -89.333 106 -102z" />
    <glyph glyph-name="dieresis" unicode="&#xa8;" horiz-adv-x="520" 
d="M165 695c11.333 0 20.833 -3.83301 28.5 -11.5s11.5 -17.167 11.5 -28.5s-3.83301 -20.833 -11.5 -28.5s-17.167 -11.5 -28.5 -11.5s-20.833 3.83301 -28.5 11.5s-11.5 17.167 -11.5 28.5s3.83301 20.833 11.5 28.5s17.167 11.5 28.5 11.5zM355 695
c11.333 0 20.833 -3.83301 28.5 -11.5s11.5 -17.167 11.5 -28.5s-3.83301 -20.833 -11.5 -28.5s-17.167 -11.5 -28.5 -11.5s-20.833 3.83301 -28.5 11.5s-11.5 17.167 -11.5 28.5s3.83301 20.833 11.5 28.5s17.167 11.5 28.5 11.5z" />
    <glyph glyph-name="copyright" unicode="&#xa9;" horiz-adv-x="882" 
d="M441 -60c98 0 179.667 33.333 245 100s98 151.334 98 254.001s-32.667 187.334 -98 254.001s-147 100 -245 100s-179.667 -33.333 -245 -100s-98 -151.334 -98 -254.001s32.667 -187.334 98 -254.001s147 -100 245 -100zM441 -104c-110 0 -202.167 37.667 -276.5 113
s-111.5 170.333 -111.5 285s37.167 209.667 111.5 285s166.5 113 276.5 113s202.167 -37.667 276.5 -113s111.5 -170.333 111.5 -285s-37.167 -209.667 -111.5 -285s-166.5 -113 -276.5 -113zM434 121c37.333 0 66.834 9.50098 88.501 28.501s35.167 41.5 40.5 67.5h45
c-4.66699 -38 -22.834 -70.333 -54.501 -97s-71.5 -40 -119.5 -40c-54 0 -99.167 19.5 -135.5 58.5s-54.5 91.167 -54.5 156.5c0 64 18.167 115.833 54.5 155.5s81.5 59.5 135.5 59.5c48 0 87.5 -13.167 118.5 -39.5s49.5 -58.166 55.5 -95.499h-45
c-6.66699 27.333 -21.167 49.666 -43.5 66.999s-50.833 26 -85.5 26c-41.333 0 -75.666 -15.5 -102.999 -46.5s-41 -73.167 -41 -126.5c0 -54.667 13.667 -97.334 41 -128.001s61.666 -46 102.999 -46z" />
    <glyph glyph-name="ordfeminine" unicode="&#xaa;" horiz-adv-x="368" 
d="M273 594c0 26.667 -8.00098 46.998 -24.001 60.998s-38 21 -66 21c-24 0 -44 -5.16699 -60 -15.5s-26.667 -24.166 -32 -41.499h-42c6 28 21.333 50.667 46 68s54.667 26 90 26c40 0 71.667 -10.333 95 -31s35 -50 35 -88v-223h-40v50
c-28.667 -37.333 -69.667 -56 -123 -56c-34 0 -62 9 -84 27s-33 42 -33 72c0 30.667 11.833 55.334 35.5 74.001s56.834 28 99.501 28h103v28zM161.999 400.998c32 0 58.501 9.5 79.501 28.5s31.5 41.5 31.5 67.5v34h-98c-30.667 0 -54.334 -5.66699 -71.001 -17
s-25 -27.333 -25 -48c0 -19.333 7.66699 -35 23 -47s35.333 -18 60 -18z" />
    <glyph glyph-name="guillemotleft" unicode="&#xab;" horiz-adv-x="544" 
d="M113 257l177 -206h-57l-178 206l178 205h57zM312 257l177 -206h-57l-178 206l178 205h57z" />
    <glyph glyph-name="logicalnot" unicode="&#xac;" horiz-adv-x="611" 
d="M84 370h435v-241h-47v195h-388v46z" />
    <glyph glyph-name="uni00AD" unicode="&#xad;" horiz-adv-x="426" 
d="M60 246v46h306v-46h-306z" />
    <glyph glyph-name="registered" unicode="&#xae;" horiz-adv-x="602" 
d="M301 220c-70.667 0 -130 24.167 -178 72.5s-72 109.166 -72 182.499s24 134.166 72 182.499s107.333 72.5 178 72.5s130 -24.167 178 -72.5s72 -109.166 72 -182.499s-24 -134.166 -72 -182.499s-107.333 -72.5 -178 -72.5zM301 260c59.333 0 109 20.333 149 61
s60 92 60 154s-20 113.333 -60 154s-89.667 61 -149 61s-109 -20.333 -149 -61s-60 -92 -60 -154s20 -113.333 60 -154s89.667 -61 149 -61zM398 521c0 -34.667 -17.001 -60 -51.001 -76l67 -97h-46l-61 89h-59v-89h-40v255h100c26.667 0 48.334 -7.66699 65.001 -23
s25 -35 25 -59zM304.999 567h-57v-94h57c14.667 0 26.667 4.5 36 13.5s14 20.167 14 33.5c0 14 -4.5 25.333 -13.5 34s-21.167 13 -36.5 13z" />
    <glyph glyph-name="macron" unicode="&#xaf;" horiz-adv-x="520" 
d="M126 677h268v-42h-268v42z" />
    <glyph glyph-name="degree" unicode="&#xb0;" horiz-adv-x="405" 
d="M358 548c0 -44 -15.333 -80.667 -46 -110s-67.334 -44 -110.001 -44s-79.334 14.667 -110.001 44s-46 66 -46 110s15.333 80.667 46 110s67.334 44 110.001 44s79.334 -14.667 110.001 -44s46 -66 46 -110zM90 548c0 -32 11 -58.667 33 -80s48.333 -32 79 -32
s57 10.667 79 32s33 48 33 80s-11 58.667 -33 80s-48.333 32 -79 32s-57 -10.667 -79 -32s-33 -48 -33 -80z" />
    <glyph glyph-name="plusminus" unicode="&#xb1;" horiz-adv-x="611" 
d="M526 263h-199v-196h198v-44h-440v44h196v196h-197v44h197v202h46v-202h199v-44z" />
    <glyph glyph-name="twosuperior" unicode="&#xb2;" horiz-adv-x="370" 
d="M107 401l224.002 -0.00195312v-41h-286v37l165 158l12.5 12l14 13.5c1.66699 1.66699 5.5 5.83398 11.5 12.501s10 11.834 12 15.501l8 15c3.33301 6.33301 5.5 12.333 6.5 18s1.5 11.834 1.5 18.501c0 22.667 -8.83301 41.5 -26.5 56.5s-39.167 22.5 -64.5 22.5
c-26 0 -47.833 -7.16699 -65.5 -21.5s-28.834 -32.5 -33.501 -54.5h-43c4.66699 33.333 20.167 61.166 46.5 83.499s58.833 33.5 97.5 33.5c38 0 69.833 -11.5 95.5 -34.5s38.5 -51.167 38.5 -84.5c0 -18 -5.33301 -36.667 -16 -56s-19.834 -33 -27.501 -41
s-19.5 -19.667 -35.5 -35z" />
    <glyph glyph-name="threesuperior" unicode="&#xb3;" horiz-adv-x="378" 
d="M46 669c5.33301 32 21.001 58.499 47.001 79.499s58 31.5 96 31.5c39.333 0 71.5 -10.5 96.5 -31.5s37.5 -47.167 37.5 -78.5c0 -22.667 -6.66699 -42.5 -20 -59.5s-29.666 -28.5 -48.999 -34.5c22 -4.66699 41.667 -16 59 -34s26 -41 26 -69
c0 -32 -14 -59.833 -42 -83.5s-63 -35.5 -105 -35.5c-39.333 0 -73.666 10.5 -102.999 31.5s-46 48.167 -50 81.5h43c5.33301 -21.333 18.166 -38.666 38.499 -51.999s44.166 -20 71.499 -20c30 0 54.5 7.83301 73.5 23.5s28.5 34.5 28.5 56.5c0 24 -9.5 43.167 -28.5 57.5
s-43.833 21.5 -74.5 21.5h-51v39h48c28 0 50 7.16699 66 21.5s24 31.5 24 51.5c0 20.667 -8.33301 38 -25 52s-38.334 21 -65.001 21c-24.667 0 -46 -6.33301 -64 -19s-29.667 -29.667 -35 -51h-43z" />
    <glyph glyph-name="acute" unicode="&#xb4;" horiz-adv-x="520" 
d="M333 727l-95 -142h-51l92 142h54z" />
    <glyph glyph-name="mu" unicode="&#xb5;" horiz-adv-x="570" 
d="M442 504l47.001 -0.000976562v-504h-45v78c-16.667 -27.333 -40.834 -48.666 -72.501 -63.999s-65.5 -23 -101.5 -23c-58.667 0 -106 20.333 -142 61v-243h-47v695h47v-312c0 -52 13.833 -91.167 41.5 -117.5s63.167 -39.5 106.5 -39.5c44.667 0 83.5 14 116.5 42
s49.5 69 49.5 123v304z" />
    <glyph glyph-name="paragraph" unicode="&#xb6;" horiz-adv-x="566" 
d="M257 704h217v-805h-46v762h-166c-48.667 0 -87.5 -13 -116.5 -39s-43.5 -62.667 -43.5 -110c0 -44.667 14.667 -80.167 44 -106.5s68 -39.5 116 -39.5h62v-467h-46v424h-22c-58 0 -106.167 17.5 -144.5 52.5s-57.5 80.5 -57.5 136.5c0 58 19 104.5 57 139.5
s86.667 52.5 146 52.5z" />
    <glyph glyph-name="periodcentered" unicode="&#xb7;" horiz-adv-x="239" 
d="M120 293c11.333 0 20.833 -4 28.5 -12s11.5 -17.667 11.5 -29c0 -10.667 -4 -20 -12 -28s-17.333 -12 -28 -12c-11.333 0 -21 3.83301 -29 11.5s-12 17.167 -12 28.5s4 21 12 29s17.667 12 29 12z" />
    <glyph glyph-name="cedilla" unicode="&#xb8;" horiz-adv-x="520" 
d="M274 9l-0.000976562 -8.99902l-20 -60c22.667 -0.666992 41.834 -7.83398 57.501 -21.501s23.5 -32.167 23.5 -55.5c0 -24.667 -8.83301 -44.834 -26.5 -60.501s-43.167 -23.5 -76.5 -23.5h-47v37h46c20 0 35.167 4.33301 45.5 13s15.5 20.334 15.5 35.001
c0 30 -19.667 45 -59 45h-24v14l29 86h36z" />
    <glyph glyph-name="onesuperior" unicode="&#xb9;" horiz-adv-x="270" 
d="M189 774v-414h-44v365l-109 -69v46l111 72h42z" />
    <glyph glyph-name="ordmasculine" unicode="&#xba;" horiz-adv-x="394" 
d="M197 713c48 0 87 -16 117 -48s45 -74 45 -126s-15 -94 -45 -126s-69 -48 -117 -48s-87 16 -117 48s-45 74 -45 126s15 94 45 126s69 48 117 48zM197 404c35.333 0 63.833 12.333 85.5 37s32.5 57.334 32.5 98.001s-10.833 73.334 -32.5 98.001s-50.167 37 -85.5 37
s-63.833 -12.333 -85.5 -37s-32.5 -57.334 -32.5 -98.001s10.833 -73.334 32.5 -98.001s50.167 -37 85.5 -37z" />
    <glyph glyph-name="guillemotright" unicode="&#xbb;" horiz-adv-x="544" 
d="M232 257l-177 205h57l178 -205l-178 -206h-57zM431 257l-177 205h57l178 -205l-178 -206h-57z" />
    <glyph glyph-name="onequarter" unicode="&#xbc;" horiz-adv-x="845" 
d="M189 706v-414h-44v365l-109 -69v46l111 72h42zM117 0l491 704h53l-491 -704h-53zM811 138v-39h-62v-99h-43v99h-217v38l203 278h57v-277h62zM536 138h170v229z" />
    <glyph glyph-name="onehalf" unicode="&#xbd;" horiz-adv-x="878" 
d="M189 706v-414h-44v365l-109 -69v46l111 72h42zM117 0l491 704h53l-491 -704h-53zM615 41l224.002 -0.00195312v-41h-286v37l165 158l12.5 12l14 13.5c1.66699 1.66699 5.5 5.83398 11.5 12.501s10 11.834 12 15.501l8 15c3.33301 6.33301 5.5 12.333 6.5 18
s1.5 11.834 1.5 18.501c0 22.667 -8.83301 41.5 -26.5 56.5s-39.167 22.5 -64.5 22.5c-26 0 -47.833 -7.16699 -65.5 -21.5s-28.834 -32.5 -33.501 -54.5h-43c4.66699 33.333 20.167 61.166 46.5 83.499s58.833 33.5 97.5 33.5c38 0 69.833 -11.5 95.5 -34.5
s38.5 -51.167 38.5 -84.5c0 -18 -5.33301 -36.667 -16 -56s-19.834 -33 -27.501 -41s-19.5 -19.667 -35.5 -35z" />
    <glyph glyph-name="threequarters" unicode="&#xbe;" horiz-adv-x="953" 
d="M46 601c5.33301 32 21.001 58.499 47.001 79.499s58 31.5 96 31.5c39.333 0 71.5 -10.5 96.5 -31.5s37.5 -47.167 37.5 -78.5c0 -22.667 -6.66699 -42.5 -20 -59.5s-29.666 -28.5 -48.999 -34.5c22 -4.66699 41.667 -16 59 -34s26 -41 26 -69
c0 -32 -14 -59.833 -42 -83.5s-63 -35.5 -105 -35.5c-39.333 0 -73.666 10.5 -102.999 31.5s-46 48.167 -50 81.5h43c5.33301 -21.333 18.166 -38.666 38.499 -51.999s44.166 -20 71.499 -20c30 0 54.5 7.83301 73.5 23.5s28.5 34.5 28.5 56.5c0 24 -9.5 43.167 -28.5 57.5
s-43.833 21.5 -74.5 21.5h-51v39h48c28 0 50 7.16699 66 21.5s24 31.5 24 51.5c0 20.667 -8.33301 38 -25 52s-38.334 21 -65.001 21c-24.667 0 -46 -6.33301 -64 -19s-29.667 -29.667 -35 -51h-43zM225.001 -0.000976562l491 704h53l-491 -704h-53zM919.001 137.999v-39
h-62v-99h-43v99h-217v38l203 278h57v-277h62zM644.001 137.999h170v229z" />
    <glyph glyph-name="questiondown" unicode="&#xbf;" horiz-adv-x="523" 
d="M285 514c11.333 0 21 -3.83301 29 -11.5s12 -17.167 12 -28.5s-4 -21 -12 -29s-17.667 -12 -29 -12s-20.833 4 -28.5 12s-11.5 17.667 -11.5 29c0 10.667 3.83301 20 11.5 28s17.167 12 28.5 12zM107 -28c0 -40.667 13.998 -73.499 41.998 -98.499s65 -37.5 111 -37.5
c47.333 0 85.5 12.333 114.5 37s48.5 57.334 58.5 98.001h48c-10.667 -52.667 -35.334 -95.834 -74.001 -129.501s-88 -50.5 -148 -50.5s-108.5 16.833 -145.5 50.5s-55.5 76.5 -55.5 128.5c0 24 2.83301 45.167 8.5 63.5s15.334 35.5 29.001 51.5s24.667 27.667 33 35
s22.166 18.666 41.499 33.999c3.33301 2.66699 9.5 7.33398 18.5 14.001l18 13.5c3 2.33301 8.16699 6.66602 15.5 12.999s12.333 11.5 15 15.5l11 16c4.66699 6.66699 7.83398 13 9.50098 19s3.33398 13.167 5.00098 21.5s2.5 17.166 2.5 26.499v23h46v-25
c0 -27.333 -5 -51.333 -15 -72s-20.167 -35.834 -30.5 -45.501s-27.5 -23.5 -51.5 -41.5c-4 -3.33301 -7 -5.66602 -9 -6.99902c-21.333 -16.667 -37.666 -30.167 -48.999 -40.5s-22.333 -25.666 -33 -45.999s-16 -42.5 -16 -66.5z" />
    <glyph glyph-name="Agrave" unicode="&#xc0;" horiz-adv-x="648" 
d="M299 704h50l273 -704h-53l-81 211h-329l-80 -211h-53zM323 642l-147 -386h295zM207 919h54l92 -142h-51z" />
    <glyph glyph-name="Aacute" unicode="&#xc1;" horiz-adv-x="648" 
d="M299 704h50l273 -704h-53l-81 211h-329l-80 -211h-53zM323 642l-147 -386h295zM443 919l-95 -142h-51l92 142h54z" />
    <glyph glyph-name="Acircumflex" unicode="&#xc2;" horiz-adv-x="648" 
d="M299 704h50l273 -704h-53l-81 211h-329l-80 -211h-53zM323 642l-147 -386h295zM227 777h-54l127 142h50l127 -142h-54l-98 106z" />
    <glyph glyph-name="Atilde" unicode="&#xc3;" horiz-adv-x="648" 
d="M299 704h50l273 -704h-53l-81 211h-329l-80 -211h-53zM323 642l-147 -386h295zM436 900l37.998 0.00195312v-17c0 -28 -7.5 -50.5 -22.5 -67.5s-34.5 -25.5 -58.5 -25.5c-20.667 0 -39 6.33301 -55 19s-30.167 25.167 -42.5 37.5s-24.833 18.5 -37.5 18.5
c-14 0 -25 -5 -33 -15s-12 -23.333 -12 -40v-15h-38v17c0 28 7.5 50.5 22.5 67.5s34.5 25.5 58.5 25.5c16.667 0 31.834 -3.83301 45.501 -11.5s24.334 -16.334 32.001 -26.001s16.667 -18.334 27 -26.001s20.5 -11.5 30.5 -11.5c14 0 25 5 33 15s12 23.333 12 40v15z" />
    <glyph glyph-name="Adieresis" unicode="&#xc4;" horiz-adv-x="648" 
d="M299 704h50l273 -704h-53l-81 211h-329l-80 -211h-53zM323 642l-147 -386h295zM226 887c11.333 0 20.833 -3.83301 28.5 -11.5s11.5 -17.167 11.5 -28.5s-3.83301 -20.833 -11.5 -28.5s-17.167 -11.5 -28.5 -11.5s-20.833 3.83301 -28.5 11.5s-11.5 17.167 -11.5 28.5
s3.83301 20.833 11.5 28.5s17.167 11.5 28.5 11.5zM424 887c11.333 0 20.833 -3.83301 28.5 -11.5s11.5 -17.167 11.5 -28.5s-3.83301 -20.833 -11.5 -28.5s-17.167 -11.5 -28.5 -11.5s-20.833 3.83301 -28.5 11.5s-11.5 17.167 -11.5 28.5s3.83301 20.833 11.5 28.5
s17.167 11.5 28.5 11.5z" />
    <glyph glyph-name="Aring" unicode="&#xc5;" horiz-adv-x="648" 
d="M299 704h50l273 -704h-53l-81 211h-329l-80 -211h-53zM323 642l-147 -386h295zM416 853c0 -25.333 -8.83301 -46.666 -26.5 -63.999s-39.167 -26 -64.5 -26c-26 0 -47.833 8.66699 -65.5 26s-26.5 38.666 -26.5 63.999s8.83301 46.666 26.5 63.999s39.5 26 65.5 26
c25.333 0 46.833 -8.66699 64.5 -26s26.5 -38.666 26.5 -63.999zM270 853c0 -16 5.33301 -29.167 16 -39.5s23.667 -15.5 39 -15.5c14.667 0 27.334 5.16699 38.001 15.5s16 23.5 16 39.5s-5.33301 29.167 -16 39.5s-23.334 15.5 -38.001 15.5
c-15.333 0 -28.333 -5.16699 -39 -15.5s-16 -23.5 -16 -39.5z" />
    <glyph glyph-name="AE" unicode="&#xc6;" horiz-adv-x="974" 
d="M466 704h445v-46h-371v-273h352v-45h-352v-294h371v-46h-419v211h-287l-135 -211h-54zM233 256h259v404z" />
    <glyph glyph-name="Ccedilla" unicode="&#xc7;" horiz-adv-x="702" 
d="M599 213l50 0.000976562c-10 -58 -37.833 -108.5 -83.5 -151.5s-106.167 -66.167 -181.5 -69.5l-17 -52c22.667 -0.666992 41.834 -7.83398 57.501 -21.501s23.5 -32.167 23.5 -55.5c0 -24.667 -8.83301 -44.834 -26.5 -60.501s-43.167 -23.5 -76.5 -23.5h-47v37h46
c20 0 35.167 4.33301 45.5 13s15.5 20.334 15.5 35.001c0 30 -19.667 45 -59 45h-24v14l23 69c-84 5.33301 -152.833 40.5 -206.5 105.5s-80.5 149.833 -80.5 254.5c0 107.333 28.667 194.333 86 261s131.333 100 222 100c76 0 139 -21.167 189 -63.5
s80.667 -94.5 92 -156.5h-50c-12 49.333 -37.833 90.5 -77.5 123.5s-90.834 49.5 -153.501 49.5c-77.333 0 -139.666 -28.667 -186.999 -86s-71 -133.333 -71 -228c0 -96 24.333 -172.333 73 -229s110.667 -85 186 -85c65.333 0 118.166 17.167 158.499 51.5
s64.833 75.5 73.5 123.5z" />
    <glyph glyph-name="Egrave" unicode="&#xc8;" horiz-adv-x="583" 
d="M520 658h-379v-273h360v-45h-360v-294h379v-46h-428v704h428v-46zM191 919h54l92 -142h-51z" />
    <glyph glyph-name="Eacute" unicode="&#xc9;" horiz-adv-x="583" 
d="M520 658h-379v-273h360v-45h-360v-294h379v-46h-428v704h428v-46zM427 919l-95 -142h-51l92 142h54z" />
    <glyph glyph-name="Ecircumflex" unicode="&#xca;" horiz-adv-x="583" 
d="M520 658h-379v-273h360v-45h-360v-294h379v-46h-428v704h428v-46zM211 777h-54l127 142h50l127 -142h-54l-98 106z" />
    <glyph glyph-name="Edieresis" unicode="&#xcb;" horiz-adv-x="583" 
d="M520 658h-379v-273h360v-45h-360v-294h379v-46h-428v704h428v-46zM210 887c11.333 0 20.833 -3.83301 28.5 -11.5s11.5 -17.167 11.5 -28.5s-3.83301 -20.833 -11.5 -28.5s-17.167 -11.5 -28.5 -11.5s-20.833 3.83301 -28.5 11.5s-11.5 17.167 -11.5 28.5
s3.83301 20.833 11.5 28.5s17.167 11.5 28.5 11.5zM408 887c11.333 0 20.833 -3.83301 28.5 -11.5s11.5 -17.167 11.5 -28.5s-3.83301 -20.833 -11.5 -28.5s-17.167 -11.5 -28.5 -11.5s-20.833 3.83301 -28.5 11.5s-11.5 17.167 -11.5 28.5s3.83301 20.833 11.5 28.5
s17.167 11.5 28.5 11.5z" />
    <glyph glyph-name="Igrave" unicode="&#xcc;" horiz-adv-x="233" 
d="M141 704v-704h-49v704h49zM-2 919h54l92 -142h-51z" />
    <glyph glyph-name="Iacute" unicode="&#xcd;" horiz-adv-x="233" 
d="M141 704v-704h-49v704h49zM236 919l-95 -142h-51l92 142h54z" />
    <glyph glyph-name="Icircumflex" unicode="&#xce;" horiz-adv-x="233" 
d="M141 704v-704h-49v704h49zM24 777h-54l122 142h50l122 -142h-54l-93 106z" />
    <glyph glyph-name="Idieresis" unicode="&#xcf;" horiz-adv-x="233" 
d="M141 704v-704h-49v704h49zM22 887c11.333 0 20.833 -3.83301 28.5 -11.5s11.5 -17.167 11.5 -28.5s-3.83301 -20.833 -11.5 -28.5s-17.167 -11.5 -28.5 -11.5s-20.833 3.83301 -28.5 11.5s-11.5 17.167 -11.5 28.5s3.83301 20.833 11.5 28.5s17.167 11.5 28.5 11.5z
M212 887c11.333 0 20.833 -3.83301 28.5 -11.5s11.5 -17.167 11.5 -28.5s-3.83301 -20.833 -11.5 -28.5s-17.167 -11.5 -28.5 -11.5s-20.833 3.83301 -28.5 11.5s-11.5 17.167 -11.5 28.5s3.83301 20.833 11.5 28.5s17.167 11.5 28.5 11.5z" />
    <glyph glyph-name="Eth" unicode="&#xd0;" horiz-adv-x="713" 
d="M302 704c109.333 0 195.5 -30.333 258.5 -91s94.5 -147.667 94.5 -261s-31.5 -200.333 -94.5 -261s-149.167 -91 -258.5 -91h-198v340h-86v45h86v319h198zM351 340l-198 -0.000976562v-294h143c98 0 174 25.833 228 77.5s81 127.834 81 228.501c0 100 -27 176 -81 228
s-130 78 -228 78h-143v-273h198v-45z" />
    <glyph glyph-name="Ntilde" unicode="&#xd1;" horiz-adv-x="719" 
d="M144 704l434 -621v621h49v-704h-48l-438 625v-625h-49v704h52zM474 900l37.998 0.00195312v-17c0 -28 -7.5 -50.5 -22.5 -67.5s-34.5 -25.5 -58.5 -25.5c-20.667 0 -39 6.33301 -55 19s-30.167 25.167 -42.5 37.5s-24.833 18.5 -37.5 18.5c-14 0 -25 -5 -33 -15
s-12 -23.333 -12 -40v-15h-38v17c0 28 7.5 50.5 22.5 67.5s34.5 25.5 58.5 25.5c16.667 0 31.834 -3.83301 45.501 -11.5s24.334 -16.334 32.001 -26.001s16.667 -18.334 27 -26.001s20.5 -11.5 30.5 -11.5c14 0 25 5 33 15s12 23.333 12 40v15z" />
    <glyph glyph-name="Ograve" unicode="&#xd2;" horiz-adv-x="744" 
d="M372 713c94 0 169.833 -33.5 227.5 -100.5s86.5 -153.833 86.5 -260.5s-28.833 -193.5 -86.5 -260.5s-133.5 -100.5 -227.5 -100.5s-169.833 33.5 -227.5 100.5s-86.5 153.833 -86.5 260.5s28.833 193.5 86.5 260.5s133.5 100.5 227.5 100.5zM372 38
c80 0 144 28.667 192 86s72 133.333 72 228s-24 170.667 -72 228s-112 86 -192 86s-144 -28.667 -192 -86s-72 -133.333 -72 -228s24 -170.667 72 -228s112 -86 192 -86zM254 919h54l92 -142h-51z" />
    <glyph glyph-name="Oacute" unicode="&#xd3;" horiz-adv-x="744" 
d="M372 713c94 0 169.833 -33.5 227.5 -100.5s86.5 -153.833 86.5 -260.5s-28.833 -193.5 -86.5 -260.5s-133.5 -100.5 -227.5 -100.5s-169.833 33.5 -227.5 100.5s-86.5 153.833 -86.5 260.5s28.833 193.5 86.5 260.5s133.5 100.5 227.5 100.5zM372 38
c80 0 144 28.667 192 86s72 133.333 72 228s-24 170.667 -72 228s-112 86 -192 86s-144 -28.667 -192 -86s-72 -133.333 -72 -228s24 -170.667 72 -228s112 -86 192 -86zM490 919l-95 -142h-51l92 142h54z" />
    <glyph glyph-name="Ocircumflex" unicode="&#xd4;" horiz-adv-x="744" 
d="M372 713c94 0 169.833 -33.5 227.5 -100.5s86.5 -153.833 86.5 -260.5s-28.833 -193.5 -86.5 -260.5s-133.5 -100.5 -227.5 -100.5s-169.833 33.5 -227.5 100.5s-86.5 153.833 -86.5 260.5s28.833 193.5 86.5 260.5s133.5 100.5 227.5 100.5zM372 38
c80 0 144 28.667 192 86s72 133.333 72 228s-24 170.667 -72 228s-112 86 -192 86s-144 -28.667 -192 -86s-72 -133.333 -72 -228s24 -170.667 72 -228s112 -86 192 -86zM274 777h-54l127 142h50l127 -142h-54l-98 106z" />
    <glyph glyph-name="Otilde" unicode="&#xd5;" horiz-adv-x="744" 
d="M372 713c94 0 169.833 -33.5 227.5 -100.5s86.5 -153.833 86.5 -260.5s-28.833 -193.5 -86.5 -260.5s-133.5 -100.5 -227.5 -100.5s-169.833 33.5 -227.5 100.5s-86.5 153.833 -86.5 260.5s28.833 193.5 86.5 260.5s133.5 100.5 227.5 100.5zM372 38
c80 0 144 28.667 192 86s72 133.333 72 228s-24 170.667 -72 228s-112 86 -192 86s-144 -28.667 -192 -86s-72 -133.333 -72 -228s24 -170.667 72 -228s112 -86 192 -86zM483 900l37.998 0.00195312v-17c0 -28 -7.5 -50.5 -22.5 -67.5s-34.5 -25.5 -58.5 -25.5
c-20.667 0 -39 6.33301 -55 19s-30.167 25.167 -42.5 37.5s-24.833 18.5 -37.5 18.5c-14 0 -25 -5 -33 -15s-12 -23.333 -12 -40v-15h-38v17c0 28 7.5 50.5 22.5 67.5s34.5 25.5 58.5 25.5c16.667 0 31.834 -3.83301 45.501 -11.5s24.334 -16.334 32.001 -26.001
s16.667 -18.334 27 -26.001s20.5 -11.5 30.5 -11.5c14 0 25 5 33 15s12 23.333 12 40v15z" />
    <glyph glyph-name="Odieresis" unicode="&#xd6;" horiz-adv-x="744" 
d="M372 713c94 0 169.833 -33.5 227.5 -100.5s86.5 -153.833 86.5 -260.5s-28.833 -193.5 -86.5 -260.5s-133.5 -100.5 -227.5 -100.5s-169.833 33.5 -227.5 100.5s-86.5 153.833 -86.5 260.5s28.833 193.5 86.5 260.5s133.5 100.5 227.5 100.5zM372 38
c80 0 144 28.667 192 86s72 133.333 72 228s-24 170.667 -72 228s-112 86 -192 86s-144 -28.667 -192 -86s-72 -133.333 -72 -228s24 -170.667 72 -228s112 -86 192 -86zM273 887c11.333 0 20.833 -3.83301 28.5 -11.5s11.5 -17.167 11.5 -28.5
s-3.83301 -20.833 -11.5 -28.5s-17.167 -11.5 -28.5 -11.5s-20.833 3.83301 -28.5 11.5s-11.5 17.167 -11.5 28.5s3.83301 20.833 11.5 28.5s17.167 11.5 28.5 11.5zM471 887c11.333 0 20.833 -3.83301 28.5 -11.5s11.5 -17.167 11.5 -28.5s-3.83301 -20.833 -11.5 -28.5
s-17.167 -11.5 -28.5 -11.5s-20.833 3.83301 -28.5 11.5s-11.5 17.167 -11.5 28.5s3.83301 20.833 11.5 28.5s17.167 11.5 28.5 11.5z" />
    <glyph glyph-name="multiply" unicode="&#xd7;" horiz-adv-x="611" 
d="M510 96l-32 -30l-173 172l-171 -172l-33 30l173 173l-173 173l32 31l172 -173l173 173l31 -31l-173 -173z" />
    <glyph glyph-name="Oslash" unicode="&#xd8;" horiz-adv-x="744" 
d="M664 740l-78 -114c66.667 -68 100 -159.333 100 -274c0 -106.667 -28.833 -193.5 -86.5 -260.5s-133.5 -100.5 -227.5 -100.5c-68.667 0 -129 19 -181 57l-58 -84h-53l77 113c-66 67.333 -99 159 -99 275c0 106.667 28.833 193.5 86.5 260.5s133.5 100.5 227.5 100.5
c68.667 0 129 -19.333 181 -58l58 85h53zM108 352c0 -99.333 25.667 -177.333 77 -234l341 498c-44 33.333 -95.333 50 -154 50c-80 0 -144 -28.667 -192 -86s-72 -133.333 -72 -228zM372 38c80 0 144 28.667 192 86s72 133.333 72 228c0 98.667 -25.667 176.667 -77 234
l-341 -499c42 -32.667 93.333 -49 154 -49z" />
    <glyph glyph-name="Ugrave" unicode="&#xd9;" horiz-adv-x="706" 
d="M87 270v434h49v-433c0 -74.667 19.833 -132.167 59.5 -172.5s92.167 -60.5 157.5 -60.5s117.833 20.167 157.5 60.5s59.5 97.833 59.5 172.5v433h49v-434c0 -88.667 -24.5 -157.334 -73.5 -206.001s-113.167 -73 -192.5 -73s-143.5 24.333 -192.5 73
s-73.5 117.334 -73.5 206.001zM235 919h54l92 -142h-51z" />
    <glyph glyph-name="Uacute" unicode="&#xda;" horiz-adv-x="706" 
d="M87 270v434h49v-433c0 -74.667 19.833 -132.167 59.5 -172.5s92.167 -60.5 157.5 -60.5s117.833 20.167 157.5 60.5s59.5 97.833 59.5 172.5v433h49v-434c0 -88.667 -24.5 -157.334 -73.5 -206.001s-113.167 -73 -192.5 -73s-143.5 24.333 -192.5 73
s-73.5 117.334 -73.5 206.001zM471 919l-95 -142h-51l92 142h54z" />
    <glyph glyph-name="Ucircumflex" unicode="&#xdb;" horiz-adv-x="706" 
d="M87 270v434h49v-433c0 -74.667 19.833 -132.167 59.5 -172.5s92.167 -60.5 157.5 -60.5s117.833 20.167 157.5 60.5s59.5 97.833 59.5 172.5v433h49v-434c0 -88.667 -24.5 -157.334 -73.5 -206.001s-113.167 -73 -192.5 -73s-143.5 24.333 -192.5 73
s-73.5 117.334 -73.5 206.001zM255 777h-54l127 142h50l127 -142h-54l-98 106z" />
    <glyph glyph-name="Udieresis" unicode="&#xdc;" horiz-adv-x="706" 
d="M87 270v434h49v-433c0 -74.667 19.833 -132.167 59.5 -172.5s92.167 -60.5 157.5 -60.5s117.833 20.167 157.5 60.5s59.5 97.833 59.5 172.5v433h49v-434c0 -88.667 -24.5 -157.334 -73.5 -206.001s-113.167 -73 -192.5 -73s-143.5 24.333 -192.5 73
s-73.5 117.334 -73.5 206.001zM254 887c11.333 0 20.833 -3.83301 28.5 -11.5s11.5 -17.167 11.5 -28.5s-3.83301 -20.833 -11.5 -28.5s-17.167 -11.5 -28.5 -11.5s-20.833 3.83301 -28.5 11.5s-11.5 17.167 -11.5 28.5s3.83301 20.833 11.5 28.5s17.167 11.5 28.5 11.5z
M452 887c11.333 0 20.833 -3.83301 28.5 -11.5s11.5 -17.167 11.5 -28.5s-3.83301 -20.833 -11.5 -28.5s-17.167 -11.5 -28.5 -11.5s-20.833 3.83301 -28.5 11.5s-11.5 17.167 -11.5 28.5s3.83301 20.833 11.5 28.5s17.167 11.5 28.5 11.5z" />
    <glyph glyph-name="Yacute" unicode="&#xdd;" horiz-adv-x="620" 
d="M335 0h-49v291l-265 413h57l232 -364l232 364h57l-264 -411v-293zM428 919l-95 -142h-51l92 142h54z" />
    <glyph glyph-name="Thorn" unicode="&#xde;" horiz-adv-x="595" 
d="M141 0l-49 0.000976562v704h49v-140h178c67.333 0 121.333 -18.833 162 -56.5s61 -86.834 61 -147.501c0 -60 -20.5 -109.167 -61.5 -147.5s-94.167 -57.5 -159.5 -57.5h-180v-155zM314 518.001l-172.999 -0.000976562v-317h174c53.333 0 96.166 14.333 128.499 43
s48.5 67.334 48.5 116.001s-16.167 87.167 -48.5 115.5s-75.5 42.5 -129.5 42.5z" />
    <glyph glyph-name="germandbls" unicode="&#xdf;" horiz-adv-x="573" 
d="M81 0l0.00195312 501.001c0 70 19.5 125 58.5 165s89.833 60 152.5 60c58 0 104.667 -17.167 140 -51.5s53 -76.5 53 -126.5c0 -42 -10.333 -76.333 -31 -103s-46.334 -44.667 -77.001 -54c38 -7.33301 71.667 -26.833 101 -58.5s44 -74.834 44 -129.501
c0 -61.333 -20.833 -110.5 -62.5 -147.5s-98.5 -55.5 -170.5 -55.5h-71v43h68c58.667 0 104.667 14.667 138 44s50 68.333 50 117c0 49.333 -16.333 88.5 -49 117.5s-77.334 43.5 -134.001 43.5h-56v43h47c50 0 88.333 13 115 39s40 59 40 99
c0 39.333 -13.333 71.833 -40 97.5s-61.667 38.5 -105 38.5c-48.667 0 -88.167 -15.833 -118.5 -47.5s-45.5 -77.167 -45.5 -136.5v-498h-47z" />
    <glyph glyph-name="agrave" unicode="&#xe0;" horiz-adv-x="524" 
d="M402 337c0 43.333 -12.833 76.333 -38.5 99s-59.834 34 -102.501 34c-38 0 -69.5 -8.5 -94.5 -25.5s-42.167 -39.5 -51.5 -67.5h-46c10 40 32.167 72.667 66.5 98s76.5 38 126.5 38c56.667 0 101.834 -15.5 135.501 -46.5s50.5 -74.167 50.5 -129.5v-337h-44v78
c-38.667 -58 -99.667 -87 -183 -87c-48.667 0 -89.5 13.5 -122.5 40.5s-49.5 62.833 -49.5 107.5c0 46 17 82.167 51 108.5s81.667 39.5 143 39.5h159v50zM226 34c51.333 0 93.5 13.833 126.5 41.5s49.5 65.167 49.5 112.5v57h-157c-47.333 0 -83.833 -9.16699 -109.5 -27.5
s-38.5 -44.5 -38.5 -78.5c0 -32 12 -57.5 36 -76.5s55 -28.5 93 -28.5zM145 727h54l92 -142h-51z" />
    <glyph glyph-name="aacute" unicode="&#xe1;" horiz-adv-x="524" 
d="M402 337c0 43.333 -12.833 76.333 -38.5 99s-59.834 34 -102.501 34c-38 0 -69.5 -8.5 -94.5 -25.5s-42.167 -39.5 -51.5 -67.5h-46c10 40 32.167 72.667 66.5 98s76.5 38 126.5 38c56.667 0 101.834 -15.5 135.501 -46.5s50.5 -74.167 50.5 -129.5v-337h-44v78
c-38.667 -58 -99.667 -87 -183 -87c-48.667 0 -89.5 13.5 -122.5 40.5s-49.5 62.833 -49.5 107.5c0 46 17 82.167 51 108.5s81.667 39.5 143 39.5h159v50zM226 34c51.333 0 93.5 13.833 126.5 41.5s49.5 65.167 49.5 112.5v57h-157c-47.333 0 -83.833 -9.16699 -109.5 -27.5
s-38.5 -44.5 -38.5 -78.5c0 -32 12 -57.5 36 -76.5s55 -28.5 93 -28.5zM381 727l-95 -142h-51l92 142h54z" />
    <glyph glyph-name="acircumflex" unicode="&#xe2;" horiz-adv-x="524" 
d="M402 337c0 43.333 -12.833 76.333 -38.5 99s-59.834 34 -102.501 34c-38 0 -69.5 -8.5 -94.5 -25.5s-42.167 -39.5 -51.5 -67.5h-46c10 40 32.167 72.667 66.5 98s76.5 38 126.5 38c56.667 0 101.834 -15.5 135.501 -46.5s50.5 -74.167 50.5 -129.5v-337h-44v78
c-38.667 -58 -99.667 -87 -183 -87c-48.667 0 -89.5 13.5 -122.5 40.5s-49.5 62.833 -49.5 107.5c0 46 17 82.167 51 108.5s81.667 39.5 143 39.5h159v50zM226 34c51.333 0 93.5 13.833 126.5 41.5s49.5 65.167 49.5 112.5v57h-157c-47.333 0 -83.833 -9.16699 -109.5 -27.5
s-38.5 -44.5 -38.5 -78.5c0 -32 12 -57.5 36 -76.5s55 -28.5 93 -28.5zM170 585h-54l122 142h50l122 -142h-54l-93 106z" />
    <glyph glyph-name="atilde" unicode="&#xe3;" horiz-adv-x="524" 
d="M402 337c0 43.333 -12.833 76.333 -38.5 99s-59.834 34 -102.501 34c-38 0 -69.5 -8.5 -94.5 -25.5s-42.167 -39.5 -51.5 -67.5h-46c10 40 32.167 72.667 66.5 98s76.5 38 126.5 38c56.667 0 101.834 -15.5 135.501 -46.5s50.5 -74.167 50.5 -129.5v-337h-44v78
c-38.667 -58 -99.667 -87 -183 -87c-48.667 0 -89.5 13.5 -122.5 40.5s-49.5 62.833 -49.5 107.5c0 46 17 82.167 51 108.5s81.667 39.5 143 39.5h159v50zM226 34c51.333 0 93.5 13.833 126.5 41.5s49.5 65.167 49.5 112.5v57h-157c-47.333 0 -83.833 -9.16699 -109.5 -27.5
s-38.5 -44.5 -38.5 -78.5c0 -32 12 -57.5 36 -76.5s55 -28.5 93 -28.5zM369 708l38 0.00195312v-16c0 -28.667 -7.16699 -51.5 -21.5 -68.5s-33.5 -25.5 -57.5 -25.5c-20.667 0 -38.5 6.33301 -53.5 19s-28.333 25.167 -40 37.5s-23.5 18.5 -35.5 18.5
c-28.667 0 -43 -18.333 -43 -55v-15h-38v16c0 28.667 7.16699 51.5 21.5 68.5s33.5 25.5 57.5 25.5c16 0 30.667 -3.83301 44 -11.5s23.5 -16.334 30.5 -26.001s15.333 -18.334 25 -26.001s19.5 -11.5 29.5 -11.5c28.667 0 43 18.333 43 55v15z" />
    <glyph glyph-name="adieresis" unicode="&#xe4;" horiz-adv-x="524" 
d="M402 337c0 43.333 -12.833 76.333 -38.5 99s-59.834 34 -102.501 34c-38 0 -69.5 -8.5 -94.5 -25.5s-42.167 -39.5 -51.5 -67.5h-46c10 40 32.167 72.667 66.5 98s76.5 38 126.5 38c56.667 0 101.834 -15.5 135.501 -46.5s50.5 -74.167 50.5 -129.5v-337h-44v78
c-38.667 -58 -99.667 -87 -183 -87c-48.667 0 -89.5 13.5 -122.5 40.5s-49.5 62.833 -49.5 107.5c0 46 17 82.167 51 108.5s81.667 39.5 143 39.5h159v50zM226 34c51.333 0 93.5 13.833 126.5 41.5s49.5 65.167 49.5 112.5v57h-157c-47.333 0 -83.833 -9.16699 -109.5 -27.5
s-38.5 -44.5 -38.5 -78.5c0 -32 12 -57.5 36 -76.5s55 -28.5 93 -28.5zM168 695c11.333 0 20.833 -3.83301 28.5 -11.5s11.5 -17.167 11.5 -28.5s-3.83301 -20.833 -11.5 -28.5s-17.167 -11.5 -28.5 -11.5s-20.833 3.83301 -28.5 11.5s-11.5 17.167 -11.5 28.5
s3.83301 20.833 11.5 28.5s17.167 11.5 28.5 11.5zM358 695c11.333 0 20.833 -3.83301 28.5 -11.5s11.5 -17.167 11.5 -28.5s-3.83301 -20.833 -11.5 -28.5s-17.167 -11.5 -28.5 -11.5s-20.833 3.83301 -28.5 11.5s-11.5 17.167 -11.5 28.5s3.83301 20.833 11.5 28.5
s17.167 11.5 28.5 11.5z" />
    <glyph glyph-name="aring" unicode="&#xe5;" horiz-adv-x="524" 
d="M402 337c0 43.333 -12.833 76.333 -38.5 99s-59.834 34 -102.501 34c-38 0 -69.5 -8.5 -94.5 -25.5s-42.167 -39.5 -51.5 -67.5h-46c10 40 32.167 72.667 66.5 98s76.5 38 126.5 38c56.667 0 101.834 -15.5 135.501 -46.5s50.5 -74.167 50.5 -129.5v-337h-44v78
c-38.667 -58 -99.667 -87 -183 -87c-48.667 0 -89.5 13.5 -122.5 40.5s-49.5 62.833 -49.5 107.5c0 46 17 82.167 51 108.5s81.667 39.5 143 39.5h159v50zM226 34c51.333 0 93.5 13.833 126.5 41.5s49.5 65.167 49.5 112.5v57h-157c-47.333 0 -83.833 -9.16699 -109.5 -27.5
s-38.5 -44.5 -38.5 -78.5c0 -32 12 -57.5 36 -76.5s55 -28.5 93 -28.5zM355 661c0 -25.333 -8.83301 -46.666 -26.5 -63.999s-39.167 -26 -64.5 -26c-26 0 -47.833 8.66699 -65.5 26s-26.5 38.666 -26.5 63.999s8.83301 46.666 26.5 63.999s39.5 26 65.5 26
c25.333 0 46.833 -8.66699 64.5 -26s26.5 -38.666 26.5 -63.999zM209 661c0 -16 5.33301 -29.167 16 -39.5s23.667 -15.5 39 -15.5c14.667 0 27.334 5.16699 38.001 15.5s16 23.5 16 39.5s-5.33301 29.167 -16 39.5s-23.334 15.5 -38.001 15.5
c-15.333 0 -28.333 -5.16699 -39 -15.5s-16 -23.5 -16 -39.5z" />
    <glyph glyph-name="ae" unicode="&#xe6;" horiz-adv-x="891" 
d="M262 513c43.333 0 80.167 -9.83301 110.5 -29.5s51.166 -47.5 62.499 -83.5c19.333 36 45.5 63.833 78.5 83.5s70.5 29.5 112.5 29.5c64 0 115.667 -21.5 155 -64.5s59 -101.833 59 -176.5v-29h-392v-5c0 -61.333 17.333 -110.5 52 -147.5s78.334 -55.5 131.001 -55.5
c40.667 0 74.167 9 100.5 27s43.833 40 52.5 66h48c-10 -37.333 -32.167 -69.5 -66.5 -96.5s-79.166 -40.5 -134.499 -40.5c-44.667 0 -84.667 10.667 -120 32s-62.333 52 -81 92c-16 -38.667 -42.5 -69 -79.5 -91s-79.833 -33 -128.5 -33c-49.333 0 -90.5 13.333 -123.5 40
s-49.5 62.334 -49.5 107.001c0 45.333 17.167 81.166 51.5 107.499s81.833 39.5 142.5 39.5h159v52c0 43.333 -12.833 76.333 -38.5 99s-59.834 34 -102.501 34c-38 0 -69.5 -8.5 -94.5 -25.5s-42.167 -39.5 -51.5 -67.5h-46c10 40 32.167 72.667 66.5 98s76.5 38 126.5 38z
M226.001 34c51.333 0 93.5 14.167 126.5 42.5s49.5 64.166 49.5 107.499v59h-157c-46.667 0 -83 -9.16699 -109 -27.5s-39 -44.166 -39 -77.499c0 -32 12 -57.333 36 -76s55 -28 93 -28zM625.001 469c-50 0 -91 -16.667 -123 -50s-49.667 -78 -53 -134h343
c-0.666992 58.667 -16 104 -46 136s-70.333 48 -121 48z" />
    <glyph glyph-name="ccedilla" unicode="&#xe7;" horiz-adv-x="537" 
d="M281 35c46 0 82.666 12.001 109.999 36.001s45 52.333 53 85h47c-6.66699 -43.333 -27.5 -80.833 -62.5 -112.5s-79.5 -48.834 -133.5 -51.501l-17 -52c22.667 -0.666992 41.834 -7.83398 57.501 -21.501s23.5 -32.167 23.5 -55.5
c0 -24.667 -8.83301 -44.834 -26.5 -60.501s-43.167 -23.5 -76.5 -23.5h-47v37h46c20 0 35.167 4.33301 45.5 13s15.5 20.334 15.5 35.001c0 30 -19.667 45 -59 45h-24v14l23 69c-60 6 -109.167 32.333 -147.5 79s-57.5 107 -57.5 181c0 78.667 21.833 141.834 65.5 189.501
s98.5 71.5 164.5 71.5c56.667 0 103.5 -15.833 140.5 -47.5s60.167 -70.167 69.5 -115.5h-47c-10 34 -29 62.333 -57 85s-63.333 34 -106 34c-52.667 0 -96.167 -19.667 -130.5 -59s-51.5 -92 -51.5 -158c0 -66.667 17.333 -119.5 52 -158.5s78 -58.5 130 -58.5z" />
    <glyph glyph-name="egrave" unicode="&#xe8;" horiz-adv-x="543" 
d="M492 241h-392.003v-3c0 -62 17.167 -111.333 51.5 -148s77.833 -55 130.5 -55c40.667 0 74.334 9.16699 101.001 27.5s44.334 40.166 53.001 65.499h48c-10 -37.333 -32.333 -69.5 -67 -96.5s-79.667 -40.5 -135 -40.5c-67.333 0 -122.666 23.333 -165.999 70
s-65 110.334 -65 191.001c0 79.333 21.167 142.666 63.5 189.999s96.5 71 162.5 71c64.667 0 116.667 -21.667 156 -65s59 -102.666 59 -177.999v-29zM276.997 469c-50 0 -91.168 -16.8311 -123.501 -50.498s-50.166 -78.834 -53.499 -135.501h344
c-0.666992 59.333 -16 105.166 -46 137.499s-70.333 48.5 -121 48.5zM158.996 727.002h54l92 -142h-51z" />
    <glyph glyph-name="eacute" unicode="&#xe9;" horiz-adv-x="543" 
d="M492 241h-392.003v-3c0 -62 17.167 -111.333 51.5 -148s77.833 -55 130.5 -55c40.667 0 74.334 9.16699 101.001 27.5s44.334 40.166 53.001 65.499h48c-10 -37.333 -32.333 -69.5 -67 -96.5s-79.667 -40.5 -135 -40.5c-67.333 0 -122.666 23.333 -165.999 70
s-65 110.334 -65 191.001c0 79.333 21.167 142.666 63.5 189.999s96.5 71 162.5 71c64.667 0 116.667 -21.667 156 -65s59 -102.666 59 -177.999v-29zM276.997 469c-50 0 -91.168 -16.8311 -123.501 -50.498s-50.166 -78.834 -53.499 -135.501h344
c-0.666992 59.333 -16 105.166 -46 137.499s-70.333 48.5 -121 48.5zM394.996 727.002l-95 -142h-51l92 142h54z" />
    <glyph glyph-name="ecircumflex" unicode="&#xea;" horiz-adv-x="543" 
d="M492 241h-392.003v-3c0 -62 17.167 -111.333 51.5 -148s77.833 -55 130.5 -55c40.667 0 74.334 9.16699 101.001 27.5s44.334 40.166 53.001 65.499h48c-10 -37.333 -32.333 -69.5 -67 -96.5s-79.667 -40.5 -135 -40.5c-67.333 0 -122.666 23.333 -165.999 70
s-65 110.334 -65 191.001c0 79.333 21.167 142.666 63.5 189.999s96.5 71 162.5 71c64.667 0 116.667 -21.667 156 -65s59 -102.666 59 -177.999v-29zM276.997 469c-50 0 -91.168 -16.8311 -123.501 -50.498s-50.166 -78.834 -53.499 -135.501h344
c-0.666992 59.333 -16 105.166 -46 137.499s-70.333 48.5 -121 48.5zM183.996 585.002h-54l122 142h50l122 -142h-54l-93 106z" />
    <glyph glyph-name="edieresis" unicode="&#xeb;" horiz-adv-x="543" 
d="M492 241h-392.003v-3c0 -62 17.167 -111.333 51.5 -148s77.833 -55 130.5 -55c40.667 0 74.334 9.16699 101.001 27.5s44.334 40.166 53.001 65.499h48c-10 -37.333 -32.333 -69.5 -67 -96.5s-79.667 -40.5 -135 -40.5c-67.333 0 -122.666 23.333 -165.999 70
s-65 110.334 -65 191.001c0 79.333 21.167 142.666 63.5 189.999s96.5 71 162.5 71c64.667 0 116.667 -21.667 156 -65s59 -102.666 59 -177.999v-29zM276.997 469c-50 0 -91.168 -16.8311 -123.501 -50.498s-50.166 -78.834 -53.499 -135.501h344
c-0.666992 59.333 -16 105.166 -46 137.499s-70.333 48.5 -121 48.5zM181.996 695.002c11.333 0 20.833 -3.83301 28.5 -11.5s11.5 -17.167 11.5 -28.5s-3.83301 -20.833 -11.5 -28.5s-17.167 -11.5 -28.5 -11.5s-20.833 3.83301 -28.5 11.5s-11.5 17.167 -11.5 28.5
s3.83301 20.833 11.5 28.5s17.167 11.5 28.5 11.5zM371.996 695.002c11.333 0 20.833 -3.83301 28.5 -11.5s11.5 -17.167 11.5 -28.5s-3.83301 -20.833 -11.5 -28.5s-17.167 -11.5 -28.5 -11.5s-20.833 3.83301 -28.5 11.5s-11.5 17.167 -11.5 28.5
s3.83301 20.833 11.5 28.5s17.167 11.5 28.5 11.5z" />
    <glyph glyph-name="igrave" unicode="&#xec;" horiz-adv-x="209" 
d="M128 504v-504h-47v504h47zM-14 727h54l92 -142h-51z" />
    <glyph glyph-name="iacute" unicode="&#xed;" horiz-adv-x="209" 
d="M128 504v-504h-47v504h47zM224 727l-95 -142h-51l92 142h54z" />
    <glyph glyph-name="icircumflex" unicode="&#xee;" horiz-adv-x="209" 
d="M128 504v-504h-47v504h47zM20 585h-53l113 142h50l113 -142h-53l-85 105z" />
    <glyph glyph-name="idieresis" unicode="&#xef;" horiz-adv-x="209" 
d="M128 504v-504h-47v504h47zM17 695c11.333 0 20.833 -3.83301 28.5 -11.5s11.5 -17.167 11.5 -28.5s-3.83301 -20.833 -11.5 -28.5s-17.167 -11.5 -28.5 -11.5s-20.833 3.83301 -28.5 11.5s-11.5 17.167 -11.5 28.5s3.83301 20.833 11.5 28.5s17.167 11.5 28.5 11.5z
M193 695c11.333 0 20.833 -3.83301 28.5 -11.5s11.5 -17.167 11.5 -28.5s-3.83301 -20.833 -11.5 -28.5s-17.167 -11.5 -28.5 -11.5s-20.833 3.83301 -28.5 11.5s-11.5 17.167 -11.5 28.5s3.83301 20.833 11.5 28.5s17.167 11.5 28.5 11.5z" />
    <glyph glyph-name="eth" unicode="&#xf0;" horiz-adv-x="578" 
d="M266 727c32.667 -21.333 59.666 -41.998 80.999 -61.998l124 49v-40l-95 -38c94.667 -98.667 142 -221 142 -367c0 -84.667 -21.167 -152.167 -63.5 -202.5s-99.833 -75.5 -172.5 -75.5c-71.333 0 -127.666 24.833 -168.999 74.5s-62 110.167 -62 181.5
c0 75.333 21.5 136.666 64.5 183.999s97.833 71 164.5 71c76.667 0 135 -28 175 -84c-20 72 -60 139.333 -120 202l-126 -50v40l97 38c-28 25.333 -62.667 51.666 -104 78.999h64zM282.999 35.002c57.333 0 102.833 20 136.5 60s50.5 91.333 50.5 154
c0 66 -17.667 117.333 -53 154s-80 55 -134 55c-55.333 0 -99.833 -19.833 -133.5 -59.5s-50.5 -90.167 -50.5 -151.5c0 -60.667 16.167 -111.167 48.5 -151.5s77.5 -60.5 135.5 -60.5z" />
    <glyph glyph-name="ntilde" unicode="&#xf1;" horiz-adv-x="563" 
d="M81 504h44.999v-79c16 27.333 39.833 48.833 71.5 64.5s65.5 23.5 101.5 23.5c52.667 0 97.167 -16.5 133.5 -49.5s54.5 -81.167 54.5 -144.5v-319h-47v312c0 52 -13.667 91.167 -41 117.5s-62.666 39.5 -105.999 39.5c-44 0 -82.5 -14 -115.5 -42s-49.5 -69 -49.5 -123
v-304h-47v504zM391.999 708l38.002 0.00195312v-16c0 -28.667 -7.16699 -51.5 -21.5 -68.5s-33.5 -25.5 -57.5 -25.5c-20.667 0 -38.5 6.33301 -53.5 19s-28.333 25.167 -40 37.5s-23.5 18.5 -35.5 18.5c-28.667 0 -43 -18.333 -43 -55v-15h-38v16
c0 28.667 7.16699 51.5 21.5 68.5s33.5 25.5 57.5 25.5c16 0 30.667 -3.83301 44 -11.5s23.666 -16.334 30.999 -26.001s15.666 -18.334 24.999 -26.001s19 -11.5 29 -11.5c28.667 0 43 18.333 43 55v15z" />
    <glyph glyph-name="ograve" unicode="&#xf2;" horiz-adv-x="568" 
d="M284 513c69.333 0 125.5 -24.167 168.5 -72.5s64.5 -111.166 64.5 -188.499s-21.5 -140.166 -64.5 -188.499s-99.167 -72.5 -168.5 -72.5s-125.5 24.167 -168.5 72.5s-64.5 111.166 -64.5 188.499s21.5 140.166 64.5 188.499s99.167 72.5 168.5 72.5zM284 35
c55.333 0 100 19.833 134 59.5s51 92.167 51 157.5s-17 117.833 -51 157.5s-78.667 59.5 -134 59.5s-100 -19.833 -134 -59.5s-51 -92.167 -51 -157.5s17 -117.833 51 -157.5s78.667 -59.5 134 -59.5zM166 727h54l92 -142h-51z" />
    <glyph glyph-name="oacute" unicode="&#xf3;" horiz-adv-x="568" 
d="M284 513c69.333 0 125.5 -24.167 168.5 -72.5s64.5 -111.166 64.5 -188.499s-21.5 -140.166 -64.5 -188.499s-99.167 -72.5 -168.5 -72.5s-125.5 24.167 -168.5 72.5s-64.5 111.166 -64.5 188.499s21.5 140.166 64.5 188.499s99.167 72.5 168.5 72.5zM284 35
c55.333 0 100 19.833 134 59.5s51 92.167 51 157.5s-17 117.833 -51 157.5s-78.667 59.5 -134 59.5s-100 -19.833 -134 -59.5s-51 -92.167 -51 -157.5s17 -117.833 51 -157.5s78.667 -59.5 134 -59.5zM402 727l-95 -142h-51l92 142h54z" />
    <glyph glyph-name="ocircumflex" unicode="&#xf4;" horiz-adv-x="568" 
d="M284 513c69.333 0 125.5 -24.167 168.5 -72.5s64.5 -111.166 64.5 -188.499s-21.5 -140.166 -64.5 -188.499s-99.167 -72.5 -168.5 -72.5s-125.5 24.167 -168.5 72.5s-64.5 111.166 -64.5 188.499s21.5 140.166 64.5 188.499s99.167 72.5 168.5 72.5zM284 35
c55.333 0 100 19.833 134 59.5s51 92.167 51 157.5s-17 117.833 -51 157.5s-78.667 59.5 -134 59.5s-100 -19.833 -134 -59.5s-51 -92.167 -51 -157.5s17 -117.833 51 -157.5s78.667 -59.5 134 -59.5zM191 585h-54l122 142h50l122 -142h-54l-93 106z" />
    <glyph glyph-name="otilde" unicode="&#xf5;" horiz-adv-x="568" 
d="M284 513c69.333 0 125.5 -24.167 168.5 -72.5s64.5 -111.166 64.5 -188.499s-21.5 -140.166 -64.5 -188.499s-99.167 -72.5 -168.5 -72.5s-125.5 24.167 -168.5 72.5s-64.5 111.166 -64.5 188.499s21.5 140.166 64.5 188.499s99.167 72.5 168.5 72.5zM284 35
c55.333 0 100 19.833 134 59.5s51 92.167 51 157.5s-17 117.833 -51 157.5s-78.667 59.5 -134 59.5s-100 -19.833 -134 -59.5s-51 -92.167 -51 -157.5s17 -117.833 51 -157.5s78.667 -59.5 134 -59.5zM390 708l38.002 0.00195312v-16c0 -28.667 -7.16699 -51.5 -21.5 -68.5
s-33.5 -25.5 -57.5 -25.5c-20.667 0 -38.5 6.33301 -53.5 19s-28.333 25.167 -40 37.5s-23.5 18.5 -35.5 18.5c-28.667 0 -43 -18.333 -43 -55v-15h-38v16c0 28.667 7.16699 51.5 21.5 68.5s33.5 25.5 57.5 25.5c16 0 30.667 -3.83301 44 -11.5
s23.666 -16.334 30.999 -26.001s15.666 -18.334 24.999 -26.001s19 -11.5 29 -11.5c28.667 0 43 18.333 43 55v15z" />
    <glyph glyph-name="odieresis" unicode="&#xf6;" horiz-adv-x="568" 
d="M284 513c69.333 0 125.5 -24.167 168.5 -72.5s64.5 -111.166 64.5 -188.499s-21.5 -140.166 -64.5 -188.499s-99.167 -72.5 -168.5 -72.5s-125.5 24.167 -168.5 72.5s-64.5 111.166 -64.5 188.499s21.5 140.166 64.5 188.499s99.167 72.5 168.5 72.5zM284 35
c55.333 0 100 19.833 134 59.5s51 92.167 51 157.5s-17 117.833 -51 157.5s-78.667 59.5 -134 59.5s-100 -19.833 -134 -59.5s-51 -92.167 -51 -157.5s17 -117.833 51 -157.5s78.667 -59.5 134 -59.5zM189 695c11.333 0 20.833 -3.83301 28.5 -11.5s11.5 -17.167 11.5 -28.5
s-3.83301 -20.833 -11.5 -28.5s-17.167 -11.5 -28.5 -11.5s-20.833 3.83301 -28.5 11.5s-11.5 17.167 -11.5 28.5s3.83301 20.833 11.5 28.5s17.167 11.5 28.5 11.5zM379 695c11.333 0 20.833 -3.83301 28.5 -11.5s11.5 -17.167 11.5 -28.5s-3.83301 -20.833 -11.5 -28.5
s-17.167 -11.5 -28.5 -11.5s-20.833 3.83301 -28.5 11.5s-11.5 17.167 -11.5 28.5s3.83301 20.833 11.5 28.5s17.167 11.5 28.5 11.5z" />
    <glyph glyph-name="divide" unicode="&#xf7;" horiz-adv-x="611" 
d="M305 501c11.333 0 20.833 -4 28.5 -12s11.5 -17.667 11.5 -29c0 -10.667 -3.83301 -20 -11.5 -28s-17.167 -12 -28.5 -12s-21 3.83301 -29 11.5s-12 17.167 -12 28.5s4 21 12 29s17.667 12 29 12zM536 246h-460v46h460v-46zM305 117c11.333 0 20.833 -4 28.5 -12
s11.5 -17.667 11.5 -29c0 -10.667 -3.83301 -20 -11.5 -28s-17.167 -12 -28.5 -12s-21 3.83301 -29 11.5s-12 17.167 -12 28.5s4 21 12 29s17.667 12 29 12z" />
    <glyph glyph-name="oslash" unicode="&#xf8;" horiz-adv-x="568" 
d="M502 542l-60 -89.999c50 -48.667 75 -115.334 75 -200.001c0 -77.333 -21.5 -140.166 -64.5 -188.499s-99.167 -72.5 -168.5 -72.5c-48.667 0 -90.667 11.667 -126 35l-42 -64h-50l60 90c-50 48 -75 114.667 -75 200c0 77.333 21.5 140.166 64.5 188.499
s99.167 72.5 168.5 72.5c46 0 87.667 -11.667 125 -35l43 64h50zM99 252.001c0 -68 17.667 -121.667 53 -161l232 349c-28.667 19.333 -62 29 -100 29c-55.333 0 -100 -19.833 -134 -59.5s-51 -92.167 -51 -157.5zM284 35.001c55.333 0 100 19.834 134 59.501
s51 92.167 51 157.5c0 67.333 -17.667 120.666 -53 159.999l-232 -348c28.667 -19.333 62 -29 100 -29z" />
    <glyph glyph-name="ugrave" unicode="&#xf9;" horiz-adv-x="563" 
d="M482 0l-44.999 -0.000976562v78c-16.667 -27.333 -40.667 -48.666 -72 -63.999s-65 -23 -101 -23c-52.667 0 -97.167 16.5 -133.5 49.5s-54.5 81.167 -54.5 144.5v319h47v-312c0 -52 13.667 -91.167 41 -117.5s62.666 -39.5 105.999 -39.5c44 0 82.5 14 115.5 42
s49.5 69 49.5 123v304h47v-504zM163.001 726.999h54l92 -142h-51z" />
    <glyph glyph-name="uacute" unicode="&#xfa;" horiz-adv-x="563" 
d="M482 0l-44.999 -0.000976562v78c-16.667 -27.333 -40.667 -48.666 -72 -63.999s-65 -23 -101 -23c-52.667 0 -97.167 16.5 -133.5 49.5s-54.5 81.167 -54.5 144.5v319h47v-312c0 -52 13.667 -91.167 41 -117.5s62.666 -39.5 105.999 -39.5c44 0 82.5 14 115.5 42
s49.5 69 49.5 123v304h47v-504zM399.001 726.999l-95 -142h-51l92 142h54z" />
    <glyph glyph-name="ucircumflex" unicode="&#xfb;" horiz-adv-x="563" 
d="M482 0l-44.999 -0.000976562v78c-16.667 -27.333 -40.667 -48.666 -72 -63.999s-65 -23 -101 -23c-52.667 0 -97.167 16.5 -133.5 49.5s-54.5 81.167 -54.5 144.5v319h47v-312c0 -52 13.667 -91.167 41 -117.5s62.666 -39.5 105.999 -39.5c44 0 82.5 14 115.5 42
s49.5 69 49.5 123v304h47v-504zM188.001 584.999h-54l122 142h50l122 -142h-54l-93 106z" />
    <glyph glyph-name="udieresis" unicode="&#xfc;" horiz-adv-x="563" 
d="M482 0l-44.999 -0.000976562v78c-16.667 -27.333 -40.667 -48.666 -72 -63.999s-65 -23 -101 -23c-52.667 0 -97.167 16.5 -133.5 49.5s-54.5 81.167 -54.5 144.5v319h47v-312c0 -52 13.667 -91.167 41 -117.5s62.666 -39.5 105.999 -39.5c44 0 82.5 14 115.5 42
s49.5 69 49.5 123v304h47v-504zM186.001 694.999c11.333 0 20.833 -3.83301 28.5 -11.5s11.5 -17.167 11.5 -28.5s-3.83301 -20.833 -11.5 -28.5s-17.167 -11.5 -28.5 -11.5s-20.833 3.83301 -28.5 11.5s-11.5 17.167 -11.5 28.5s3.83301 20.833 11.5 28.5
s17.167 11.5 28.5 11.5zM376.001 694.999c11.333 0 20.833 -3.83301 28.5 -11.5s11.5 -17.167 11.5 -28.5s-3.83301 -20.833 -11.5 -28.5s-17.167 -11.5 -28.5 -11.5s-20.833 3.83301 -28.5 11.5s-11.5 17.167 -11.5 28.5s3.83301 20.833 11.5 28.5s17.167 11.5 28.5 11.5z
" />
    <glyph glyph-name="yacute" unicode="&#xfd;" horiz-adv-x="506" 
d="M434 504h51l-288 -695h-51l82 198l-207 497h51l181 -440zM372 727l-95 -142h-51l92 142h54z" />
    <glyph glyph-name="thorn" unicode="&#xfe;" horiz-adv-x="587" 
d="M310 513c63.333 0 116.833 -23.167 160.5 -69.5s65.5 -110.166 65.5 -191.499c0 -80.667 -21.5 -144.334 -64.5 -191.001s-97.167 -70 -162.5 -70c-40 0 -75.833 9 -107.5 27s-56.167 42.667 -73.5 74v-283h-47v918h47v-316c18 32 42.667 57 74 75s67.333 27 108 27z
M307 35c54 0 97.667 19.833 131 59.5s50 92.167 50 157.5s-16.833 117.833 -50.5 157.5s-77.167 59.5 -130.5 59.5c-52.667 0 -96 -19.167 -130 -57.5s-51 -88.833 -51 -151.5v-16c0 -61.333 16.667 -111.5 50 -150.5s77 -58.5 131 -58.5z" />
    <glyph glyph-name="ydieresis" unicode="&#xff;" horiz-adv-x="506" 
d="M434 504h51l-288 -695h-51l82 198l-207 497h51l181 -440zM159 695c11.333 0 20.833 -3.83301 28.5 -11.5s11.5 -17.167 11.5 -28.5s-3.83301 -20.833 -11.5 -28.5s-17.167 -11.5 -28.5 -11.5s-20.833 3.83301 -28.5 11.5s-11.5 17.167 -11.5 28.5
s3.83301 20.833 11.5 28.5s17.167 11.5 28.5 11.5zM349 695c11.333 0 20.833 -3.83301 28.5 -11.5s11.5 -17.167 11.5 -28.5s-3.83301 -20.833 -11.5 -28.5s-17.167 -11.5 -28.5 -11.5s-20.833 3.83301 -28.5 11.5s-11.5 17.167 -11.5 28.5s3.83301 20.833 11.5 28.5
s17.167 11.5 28.5 11.5z" />
    <glyph glyph-name="Amacron" unicode="&#x100;" horiz-adv-x="648" 
d="M299 704h50l273 -704h-53l-81 211h-329l-80 -211h-53zM323 642l-147 -386h295zM186 869h278v-42h-278v42z" />
    <glyph glyph-name="amacron" unicode="&#x101;" horiz-adv-x="524" 
d="M402 337c0 43.333 -12.833 76.333 -38.5 99s-59.834 34 -102.501 34c-38 0 -69.5 -8.5 -94.5 -25.5s-42.167 -39.5 -51.5 -67.5h-46c10 40 32.167 72.667 66.5 98s76.5 38 126.5 38c56.667 0 101.834 -15.5 135.501 -46.5s50.5 -74.167 50.5 -129.5v-337h-44v78
c-38.667 -58 -99.667 -87 -183 -87c-48.667 0 -89.5 13.5 -122.5 40.5s-49.5 62.833 -49.5 107.5c0 46 17 82.167 51 108.5s81.667 39.5 143 39.5h159v50zM226 34c51.333 0 93.5 13.833 126.5 41.5s49.5 65.167 49.5 112.5v57h-157c-47.333 0 -83.833 -9.16699 -109.5 -27.5
s-38.5 -44.5 -38.5 -78.5c0 -32 12 -57.5 36 -76.5s55 -28.5 93 -28.5zM129 677h268v-42h-268v42z" />
    <glyph glyph-name="Abreve" unicode="&#x102;" horiz-adv-x="648" 
d="M299 704h50l273 -704h-53l-81 211h-329l-80 -211h-53zM323 642l-147 -386h295zM223 919c0 -30.667 9.5 -55.667 28.5 -75s43.5 -29 73.5 -29s54.5 9.66699 73.5 29s28.5 44.333 28.5 75h44c-0.666992 -43.333 -14.5 -78.166 -41.5 -104.499s-61.833 -39.5 -104.5 -39.5
c-42 0 -76.667 13.167 -104 39.5s-41.333 61.166 -42 104.499h44z" />
    <glyph glyph-name="abreve" unicode="&#x103;" horiz-adv-x="524" 
d="M402 337c0 43.333 -12.833 76.333 -38.5 99s-59.834 34 -102.501 34c-38 0 -69.5 -8.5 -94.5 -25.5s-42.167 -39.5 -51.5 -67.5h-46c10 40 32.167 72.667 66.5 98s76.5 38 126.5 38c56.667 0 101.834 -15.5 135.501 -46.5s50.5 -74.167 50.5 -129.5v-337h-44v78
c-38.667 -58 -99.667 -87 -183 -87c-48.667 0 -89.5 13.5 -122.5 40.5s-49.5 62.833 -49.5 107.5c0 46 17 82.167 51 108.5s81.667 39.5 143 39.5h159v50zM226 34c51.333 0 93.5 13.833 126.5 41.5s49.5 65.167 49.5 112.5v57h-157c-47.333 0 -83.833 -9.16699 -109.5 -27.5
s-38.5 -44.5 -38.5 -78.5c0 -32 12 -57.5 36 -76.5s55 -28.5 93 -28.5zM166 727c0 -31.333 8.66895 -56.5 26.002 -75.5s41 -28.5 71 -28.5s53.667 9.5 71 28.5s26 44.167 26 75.5h44c-0.666992 -44 -13.834 -79 -39.501 -105s-59.5 -39 -101.5 -39s-75.833 13 -101.5 39
s-38.834 61 -39.501 105h44z" />
    <glyph glyph-name="Aogonek" unicode="&#x104;" horiz-adv-x="648" 
d="M299 704h49.999l273 -704c-58 -31.333 -87 -67.333 -87 -108c0 -38 22.667 -57 68 -57h31v-39h-39c-33.333 0 -59.166 8 -77.499 24s-27.5 37 -27.5 63c0 24 7.5 46.667 22.5 68s33.167 39 54.5 53l-79 207h-329l-80 -211h-53zM322.999 642l-147 -386h295z" />
    <glyph glyph-name="aogonek" unicode="&#x105;" horiz-adv-x="524" 
d="M402 337c0 43.333 -12.834 76.333 -38.501 99s-59.834 34 -102.501 34c-38 0 -69.5 -8.5 -94.5 -25.5s-42.167 -39.5 -51.5 -67.5h-46c10 40 32.167 72.667 66.5 98s76.5 38 126.5 38c56.667 0 101.834 -15.5 135.501 -46.5s50.5 -74.167 50.5 -129.5v-337
c-58 -31.333 -87 -67.333 -87 -108c0 -38 22.667 -57 68 -57h31v-39h-39c-33.333 0 -59.166 8 -77.499 24s-27.5 37 -27.5 63s8.66699 50.5 26 73.5s38 41.167 62 54.5v67c-38.667 -58 -99.667 -87 -183 -87c-48.667 0 -89.5 13.5 -122.5 40.5s-49.5 62.833 -49.5 107.5
c0 46 17 82.167 51 108.5s81.667 39.5 143 39.5h159v50zM225.999 34c51.333 0 93.5 13.833 126.5 41.5s49.5 65.167 49.5 112.5v57h-157c-47.333 0 -83.833 -9.16699 -109.5 -27.5s-38.5 -44.5 -38.5 -78.5c0 -32 12 -57.5 36 -76.5s55 -28.5 93 -28.5z" />
    <glyph glyph-name="Cacute" unicode="&#x106;" horiz-adv-x="702" 
d="M599 213h50.001c-10 -60 -39.333 -112 -88 -156s-113.334 -66 -194.001 -66c-89.333 0 -163.166 32.833 -221.499 98.5s-87.5 153.167 -87.5 262.5c0 107.333 28.667 194.333 86 261s131.333 100 222 100c76 0 139 -21.167 189 -63.5s80.667 -94.5 92 -156.5h-50
c-12 49.333 -37.833 90.5 -77.5 123.5s-90.834 49.5 -153.501 49.5c-77.333 0 -139.666 -28.667 -186.999 -86s-71 -133.333 -71 -228c0 -96 24.333 -172.333 73 -229s110.667 -85 186 -85c65.333 0 118.166 17.167 158.499 51.5s64.833 75.5 73.5 123.5zM484.001 919
l-95 -142h-51l92 142h54z" />
    <glyph glyph-name="cacute" unicode="&#x107;" horiz-adv-x="537" 
d="M281 35c46 0 82.667 11.999 110 35.999s45 52.333 53 85h47c-6.66699 -45.333 -29 -84.166 -67 -116.499s-85.667 -48.5 -143 -48.5c-66 0 -120.833 23.667 -164.5 71s-65.5 110.666 -65.5 189.999c0 78.667 21.833 141.834 65.5 189.501s98.5 71.5 164.5 71.5
c56.667 0 103.5 -15.833 140.5 -47.5s60.167 -70.167 69.5 -115.5h-47c-10 34 -29 62.333 -57 85s-63.333 34 -106 34c-52.667 0 -96.167 -19.667 -130.5 -59s-51.5 -92 -51.5 -158c0 -66.667 17.333 -119.5 52 -158.5s78 -58.5 130 -58.5zM399 726.999l-95 -142h-51l92 142
h54z" />
    <glyph glyph-name="Ccircumflex" unicode="&#x108;" horiz-adv-x="702" 
d="M599 213h50.001c-10 -60 -39.333 -112 -88 -156s-113.334 -66 -194.001 -66c-89.333 0 -163.166 32.833 -221.499 98.5s-87.5 153.167 -87.5 262.5c0 107.333 28.667 194.333 86 261s131.333 100 222 100c76 0 139 -21.167 189 -63.5s80.667 -94.5 92 -156.5h-50
c-12 49.333 -37.833 90.5 -77.5 123.5s-90.834 49.5 -153.501 49.5c-77.333 0 -139.666 -28.667 -186.999 -86s-71 -133.333 -71 -228c0 -96 24.333 -172.333 73 -229s110.667 -85 186 -85c65.333 0 118.166 17.167 158.499 51.5s64.833 75.5 73.5 123.5zM268.001 777h-54
l127 142h50l127 -142h-54l-98 106z" />
    <glyph glyph-name="ccircumflex" unicode="&#x109;" horiz-adv-x="537" 
d="M281 35c46 0 82.667 11.999 110 35.999s45 52.333 53 85h47c-6.66699 -45.333 -29 -84.166 -67 -116.499s-85.667 -48.5 -143 -48.5c-66 0 -120.833 23.667 -164.5 71s-65.5 110.666 -65.5 189.999c0 78.667 21.833 141.834 65.5 189.501s98.5 71.5 164.5 71.5
c56.667 0 103.5 -15.833 140.5 -47.5s60.167 -70.167 69.5 -115.5h-47c-10 34 -29 62.333 -57 85s-63.333 34 -106 34c-52.667 0 -96.167 -19.667 -130.5 -59s-51.5 -92 -51.5 -158c0 -66.667 17.333 -119.5 52 -158.5s78 -58.5 130 -58.5zM188 584.999h-54l122 142h50
l122 -142h-54l-93 106z" />
    <glyph glyph-name="Cdotaccent" unicode="&#x10a;" horiz-adv-x="702" 
d="M599 213h50.001c-10 -60 -39.333 -112 -88 -156s-113.334 -66 -194.001 -66c-89.333 0 -163.166 32.833 -221.499 98.5s-87.5 153.167 -87.5 262.5c0 107.333 28.667 194.333 86 261s131.333 100 222 100c76 0 139 -21.167 189 -63.5s80.667 -94.5 92 -156.5h-50
c-12 49.333 -37.833 90.5 -77.5 123.5s-90.834 49.5 -153.501 49.5c-77.333 0 -139.666 -28.667 -186.999 -86s-71 -133.333 -71 -228c0 -96 24.333 -172.333 73 -229s110.667 -85 186 -85c65.333 0 118.166 17.167 158.499 51.5s64.833 75.5 73.5 123.5zM367.001 887
c11.333 0 20.833 -3.83301 28.5 -11.5s11.5 -17.167 11.5 -28.5s-3.83301 -20.833 -11.5 -28.5s-17.167 -11.5 -28.5 -11.5s-20.833 3.83301 -28.5 11.5s-11.5 17.167 -11.5 28.5s3.83301 20.833 11.5 28.5s17.167 11.5 28.5 11.5z" />
    <glyph glyph-name="cdotaccent" unicode="&#x10b;" horiz-adv-x="537" 
d="M281 35c46 0 82.667 11.999 110 35.999s45 52.333 53 85h47c-6.66699 -45.333 -29 -84.166 -67 -116.499s-85.667 -48.5 -143 -48.5c-66 0 -120.833 23.667 -164.5 71s-65.5 110.666 -65.5 189.999c0 78.667 21.833 141.834 65.5 189.501s98.5 71.5 164.5 71.5
c56.667 0 103.5 -15.833 140.5 -47.5s60.167 -70.167 69.5 -115.5h-47c-10 34 -29 62.333 -57 85s-63.333 34 -106 34c-52.667 0 -96.167 -19.667 -130.5 -59s-51.5 -92 -51.5 -158c0 -66.667 17.333 -119.5 52 -158.5s78 -58.5 130 -58.5zM282 694.999
c11.333 0 20.833 -3.83301 28.5 -11.5s11.5 -17.167 11.5 -28.5s-3.83301 -20.833 -11.5 -28.5s-17.167 -11.5 -28.5 -11.5s-20.833 3.83301 -28.5 11.5s-11.5 17.167 -11.5 28.5s3.83301 20.833 11.5 28.5s17.167 11.5 28.5 11.5z" />
    <glyph glyph-name="Ccaron" unicode="&#x10c;" horiz-adv-x="702" 
d="M599 213h50.001c-10 -60 -39.333 -112 -88 -156s-113.334 -66 -194.001 -66c-89.333 0 -163.166 32.833 -221.499 98.5s-87.5 153.167 -87.5 262.5c0 107.333 28.667 194.333 86 261s131.333 100 222 100c76 0 139 -21.167 189 -63.5s80.667 -94.5 92 -156.5h-50
c-12 49.333 -37.833 90.5 -77.5 123.5s-90.834 49.5 -153.501 49.5c-77.333 0 -139.666 -28.667 -186.999 -86s-71 -133.333 -71 -228c0 -96 24.333 -172.333 73 -229s110.667 -85 186 -85c65.333 0 118.166 17.167 158.499 51.5s64.833 75.5 73.5 123.5zM268.001 919
l98 -106l98 106h54l-127 -142h-50l-127 142h54z" />
    <glyph glyph-name="ccaron" unicode="&#x10d;" horiz-adv-x="537" 
d="M281 35c46 0 82.667 11.999 110 35.999s45 52.333 53 85h47c-6.66699 -45.333 -29 -84.166 -67 -116.499s-85.667 -48.5 -143 -48.5c-66 0 -120.833 23.667 -164.5 71s-65.5 110.666 -65.5 189.999c0 78.667 21.833 141.834 65.5 189.501s98.5 71.5 164.5 71.5
c56.667 0 103.5 -15.833 140.5 -47.5s60.167 -70.167 69.5 -115.5h-47c-10 34 -29 62.333 -57 85s-63.333 34 -106 34c-52.667 0 -96.167 -19.667 -130.5 -59s-51.5 -92 -51.5 -158c0 -66.667 17.333 -119.5 52 -158.5s78 -58.5 130 -58.5zM188 726.999l93 -106l93 106h54
l-122 -142h-50l-122 142h54z" />
    <glyph glyph-name="Dcaron" unicode="&#x10e;" horiz-adv-x="701" 
d="M290 704c109.333 0 195.5 -30.333 258.5 -91s94.5 -147.667 94.5 -261s-31.5 -200.333 -94.5 -261s-149.167 -91 -258.5 -91h-198v704h198zM284 46c98 0 174 25.832 228 77.499s81 127.834 81 228.501c0 100 -27 176 -81 228s-130 78 -228 78h-143v-612h143zM212 918.999
l98 -106l98 106h54l-127 -142h-50l-127 142h54z" />
    <glyph glyph-name="dcaron" unicode="&#x10f;" horiz-adv-x="655" 
d="M277 -9c-63.333 0 -116.833 23.168 -160.5 69.501s-65.5 110.166 -65.5 191.499c0 80.667 21.5 144.334 64.5 191.001s97.167 70 162.5 70c40 0 75.833 -9 107.5 -27s56.5 -42.667 74.5 -74v315h47v-727h-45v96c-18 -32.667 -43.167 -58.334 -75.5 -77.001
s-68.833 -28 -109.5 -28zM280 469.001c-54 0 -97.667 -19.833 -131 -59.5s-50 -92.167 -50 -157.5s16.833 -117.833 50.5 -157.5s77.167 -59.5 130.5 -59.5s97 19.167 131 57.5s51 88.833 51 151.5v16c0 60.667 -16.833 110.667 -50.5 150s-77.5 59 -131.5 59zM659 692.001
c0 -6 -1.99902 -15 -5.99902 -27l-45 -131h-39l41 124c-21.333 4 -32 16 -32 36c0 11.333 3.66699 20.5 11 27.5s16.666 10.5 27.999 10.5c12 0 22 -3.66699 30 -11s12 -17 12 -29z" />
    <glyph glyph-name="Dcroat" unicode="&#x110;" horiz-adv-x="713" 
d="M302 704c109.333 0 195.5 -30.333 258.5 -91s94.5 -147.667 94.5 -261s-31.5 -200.333 -94.5 -261s-149.167 -91 -258.5 -91h-198v340h-86v45h86v319h198zM351 340l-198 -0.000976562v-294h143c98 0 174 25.833 228 77.5s81 127.834 81 228.501c0 100 -27 176 -81 228
s-130 78 -228 78h-143v-273h198v-45z" />
    <glyph glyph-name="dcroat" unicode="&#x111;" horiz-adv-x="591" 
d="M312 653l148 0.000976562v74h47v-74h75v-41h-75v-612h-45v96c-18 -32.667 -43.167 -58.334 -75.5 -77.001s-68.833 -28 -109.5 -28c-63.333 0 -116.833 23.167 -160.5 69.5s-65.5 110.166 -65.5 191.499c0 80.667 21.5 144.334 64.5 191.001s97.167 70 162.5 70
c40 0 75.833 -9 107.5 -27s56.5 -42.667 74.5 -74v200h-148v41zM280 469.001c-54 0 -97.667 -19.833 -131 -59.5s-50 -92.167 -50 -157.5s16.833 -117.833 50.5 -157.5s77.167 -59.5 130.5 -59.5s97 19.167 131 57.5s51 88.833 51 151.5v16
c0 60.667 -16.833 110.667 -50.5 150s-77.5 59 -131.5 59z" />
    <glyph glyph-name="Emacron" unicode="&#x112;" horiz-adv-x="583" 
d="M520 658h-379v-273h360v-45h-360v-294h379v-46h-428v704h428v-46zM170 869h278v-42h-278v42z" />
    <glyph glyph-name="emacron" unicode="&#x113;" horiz-adv-x="543" 
d="M492 241h-392.003v-3c0 -62 17.167 -111.333 51.5 -148s77.833 -55 130.5 -55c40.667 0 74.334 9.16699 101.001 27.5s44.334 40.166 53.001 65.499h48c-10 -37.333 -32.333 -69.5 -67 -96.5s-79.667 -40.5 -135 -40.5c-67.333 0 -122.666 23.333 -165.999 70
s-65 110.334 -65 191.001c0 79.333 21.167 142.666 63.5 189.999s96.5 71 162.5 71c64.667 0 116.667 -21.667 156 -65s59 -102.666 59 -177.999v-29zM276.997 469c-50 0 -91.168 -16.8311 -123.501 -50.498s-50.166 -78.834 -53.499 -135.501h344
c-0.666992 59.333 -16 105.166 -46 137.499s-70.333 48.5 -121 48.5zM142.996 677.002h268v-42h-268v42z" />
    <glyph glyph-name="Edotaccent" unicode="&#x116;" horiz-adv-x="583" 
d="M520 658h-379v-273h360v-45h-360v-294h379v-46h-428v704h428v-46zM310 887c11.333 0 20.833 -3.83301 28.5 -11.5s11.5 -17.167 11.5 -28.5s-3.83301 -20.833 -11.5 -28.5s-17.167 -11.5 -28.5 -11.5s-20.833 3.83301 -28.5 11.5s-11.5 17.167 -11.5 28.5
s3.83301 20.833 11.5 28.5s17.167 11.5 28.5 11.5z" />
    <glyph glyph-name="edotaccent" unicode="&#x117;" horiz-adv-x="543" 
d="M492 241h-392.003v-3c0 -62 17.167 -111.333 51.5 -148s77.833 -55 130.5 -55c40.667 0 74.334 9.16699 101.001 27.5s44.334 40.166 53.001 65.499h48c-10 -37.333 -32.333 -69.5 -67 -96.5s-79.667 -40.5 -135 -40.5c-67.333 0 -122.666 23.333 -165.999 70
s-65 110.334 -65 191.001c0 79.333 21.167 142.666 63.5 189.999s96.5 71 162.5 71c64.667 0 116.667 -21.667 156 -65s59 -102.666 59 -177.999v-29zM276.997 469c-50 0 -91.168 -16.8311 -123.501 -50.498s-50.166 -78.834 -53.499 -135.501h344
c-0.666992 59.333 -16 105.166 -46 137.499s-70.333 48.5 -121 48.5zM277.996 695.002c11.333 0 20.833 -3.83301 28.5 -11.5s11.5 -17.167 11.5 -28.5s-3.83301 -20.833 -11.5 -28.5s-17.167 -11.5 -28.5 -11.5s-20.833 3.83301 -28.5 11.5s-11.5 17.167 -11.5 28.5
s3.83301 20.833 11.5 28.5s17.167 11.5 28.5 11.5z" />
    <glyph glyph-name="Eogonek" unicode="&#x118;" horiz-adv-x="583" 
d="M520 658h-379.001v-273h360v-45h-360v-294h379v-46c-58 -31.333 -87 -67.333 -87 -108c0 -38 22.667 -57 68 -57h31v-39h-39c-33.333 0 -59.166 8 -77.499 24s-27.5 37 -27.5 63c0 44.667 23.667 83.667 71 117h-367v704h428v-46z" />
    <glyph glyph-name="eogonek" unicode="&#x119;" horiz-adv-x="543" 
d="M492 241l-392.003 0.000976562v-3c0 -62 17.167 -111.333 51.5 -148s77.833 -55 130.5 -55c40.667 0 74.334 9.16699 101.001 27.5s44.334 40.166 53.001 65.499h48c-12.667 -45.333 -39.667 -80.666 -81 -105.999c-0.666992 -0.666992 -5.16699 -3.66699 -13.5 -9
s-13.666 -8.83301 -15.999 -10.5l-15 -10.5c-7.66699 -5.33301 -12.834 -9.33301 -15.501 -12s-7.16699 -6.66699 -13.5 -12s-10.833 -9.83301 -13.5 -13.5l-10.5 -14c-4.33301 -5.66699 -7.33301 -10.834 -9 -15.501s-3.33398 -9.83398 -5.00098 -15.501
s-2.5 -11.5 -2.5 -17.5c0 -38 22.667 -57 68 -57h31v-39h-39c-33.333 0 -59.166 8 -77.499 24s-27.5 37.333 -27.5 64c0 38 20.667 74 62 108c-2.66699 0 -6.66699 -0.166992 -12 -0.5s-9.33301 -0.5 -12 -0.5c-67.333 0 -122.666 23.333 -165.999 70
s-65 110.334 -65 191.001c0 79.333 21.167 142.666 63.5 189.999s96.5 71 162.5 71c64.667 0 116.667 -21.667 156 -65s59 -102.666 59 -177.999v-29zM276.997 469.001c-50 0 -91.168 -16.8311 -123.501 -50.498s-50.166 -78.834 -53.499 -135.501h344
c-0.666992 59.333 -16 105.166 -46 137.499s-70.333 48.5 -121 48.5z" />
    <glyph glyph-name="Ecaron" unicode="&#x11a;" horiz-adv-x="583" 
d="M520 658h-379v-273h360v-45h-360v-294h379v-46h-428v704h428v-46zM211 919l98 -106l98 106h54l-127 -142h-50l-127 142h54z" />
    <glyph glyph-name="ecaron" unicode="&#x11b;" horiz-adv-x="543" 
d="M492 241h-392.003v-3c0 -62 17.167 -111.333 51.5 -148s77.833 -55 130.5 -55c40.667 0 74.334 9.16699 101.001 27.5s44.334 40.166 53.001 65.499h48c-10 -37.333 -32.333 -69.5 -67 -96.5s-79.667 -40.5 -135 -40.5c-67.333 0 -122.666 23.333 -165.999 70
s-65 110.334 -65 191.001c0 79.333 21.167 142.666 63.5 189.999s96.5 71 162.5 71c64.667 0 116.667 -21.667 156 -65s59 -102.666 59 -177.999v-29zM276.997 469c-50 0 -91.168 -16.8311 -123.501 -50.498s-50.166 -78.834 -53.499 -135.501h344
c-0.666992 59.333 -16 105.166 -46 137.499s-70.333 48.5 -121 48.5zM183.996 727.002l93 -106l93 106h54l-122 -142h-50l-122 142h54z" />
    <glyph glyph-name="Gcircumflex" unicode="&#x11c;" horiz-adv-x="721" 
d="M363 346h294.994v-54c0 -92 -25.333 -165.167 -76 -219.5s-121.667 -81.5 -213 -81.5c-92.667 0 -167.667 33.667 -225 101s-86 154 -86 260c0 108 28.5 195.167 85.5 261.5s132.167 99.5 225.5 99.5c74.667 0 136.834 -20 186.501 -60s81.834 -91.333 96.501 -154h-51
c-14.667 50.667 -41.667 91.167 -81 121.5s-89.666 45.5 -150.999 45.5c-79.333 0 -142.666 -28.5 -189.999 -85.5s-71 -133.167 -71 -228.5c0 -93.333 23.833 -169 71.5 -227s110.834 -87 189.501 -87c76.667 0 135.834 21.833 177.501 65.5s62.5 105.167 62.5 184.5v13
h-246v45zM270.994 777h-54l127 142h50l127 -142h-54l-98 106z" />
    <glyph glyph-name="gcircumflex" unicode="&#x11d;" horiz-adv-x="587" 
d="M461 504h44.999v-490c0 -70 -20.167 -124.5 -60.5 -163.5s-93.166 -58.5 -158.499 -58.5c-57.333 0 -105 13.5 -143 40.5s-60 61.833 -66 104.5h47c8 -31.333 26.167 -56 54.5 -74s64.5 -27 108.5 -27c52 0 93.5 15.667 124.5 47s46.5 75 46.5 131v85
c-39.333 -67.333 -100 -101 -182 -101c-64.667 0 -118.5 23 -161.5 69s-64.5 109 -64.5 189c0 79.333 21.333 142 64 188s97 69 163 69c40.667 0 77 -9.33301 109 -28s56.667 -44 74 -76v95zM279.999 42c54 0 97.667 19.167 131 57.5s50 87.833 50 148.5v16
c0 58.667 -16.5 107.5 -49.5 146.5s-76.833 58.5 -131.5 58.5c-54 0 -97.667 -19.5 -131 -58.5s-50 -90.5 -50 -154.5c0 -64.667 16.667 -116.5 50 -155.5s77 -58.5 131 -58.5zM190.999 585h-54l122 142h50l122 -142h-54l-93 106z" />
    <glyph glyph-name="Gbreve" unicode="&#x11e;" horiz-adv-x="721" 
d="M363 346h294.994v-54c0 -92 -25.333 -165.167 -76 -219.5s-121.667 -81.5 -213 -81.5c-92.667 0 -167.667 33.667 -225 101s-86 154 -86 260c0 108 28.5 195.167 85.5 261.5s132.167 99.5 225.5 99.5c74.667 0 136.834 -20 186.501 -60s81.834 -91.333 96.501 -154h-51
c-14.667 50.667 -41.667 91.167 -81 121.5s-89.666 45.5 -150.999 45.5c-79.333 0 -142.666 -28.5 -189.999 -85.5s-71 -133.167 -71 -228.5c0 -93.333 23.833 -169 71.5 -227s110.834 -87 189.501 -87c76.667 0 135.834 21.833 177.501 65.5s62.5 105.167 62.5 184.5v13
h-246v45zM266.994 919c0 -30.667 9.5 -55.667 28.5 -75s43.5 -29 73.5 -29s54.5 9.66699 73.5 29s28.5 44.333 28.5 75h44c-0.666992 -43.333 -14.5 -78.166 -41.5 -104.499s-61.833 -39.5 -104.5 -39.5c-42 0 -76.667 13.167 -104 39.5s-41.333 61.166 -42 104.499h44z" />
    <glyph glyph-name="gbreve" unicode="&#x11f;" horiz-adv-x="587" 
d="M461 504h44.999v-490c0 -70 -20.167 -124.5 -60.5 -163.5s-93.166 -58.5 -158.499 -58.5c-57.333 0 -105 13.5 -143 40.5s-60 61.833 -66 104.5h47c8 -31.333 26.167 -56 54.5 -74s64.5 -27 108.5 -27c52 0 93.5 15.667 124.5 47s46.5 75 46.5 131v85
c-39.333 -67.333 -100 -101 -182 -101c-64.667 0 -118.5 23 -161.5 69s-64.5 109 -64.5 189c0 79.333 21.333 142 64 188s97 69 163 69c40.667 0 77 -9.33301 109 -28s56.667 -44 74 -76v95zM279.999 42c54 0 97.667 19.167 131 57.5s50 87.833 50 148.5v16
c0 58.667 -16.5 107.5 -49.5 146.5s-76.833 58.5 -131.5 58.5c-54 0 -97.667 -19.5 -131 -58.5s-50 -90.5 -50 -154.5c0 -64.667 16.667 -116.5 50 -155.5s77 -58.5 131 -58.5zM186.999 727c0 -31.333 8.66895 -56.5 26.002 -75.5s41 -28.5 71 -28.5s53.667 9.5 71 28.5
s26 44.167 26 75.5h44c-0.666992 -44 -13.834 -79 -39.501 -105s-59.5 -39 -101.5 -39s-75.833 13 -101.5 39s-38.834 61 -39.501 105h44z" />
    <glyph glyph-name="Gdotaccent" unicode="&#x120;" horiz-adv-x="721" 
d="M363 346h294.994v-54c0 -92 -25.333 -165.167 -76 -219.5s-121.667 -81.5 -213 -81.5c-92.667 0 -167.667 33.667 -225 101s-86 154 -86 260c0 108 28.5 195.167 85.5 261.5s132.167 99.5 225.5 99.5c74.667 0 136.834 -20 186.501 -60s81.834 -91.333 96.501 -154h-51
c-14.667 50.667 -41.667 91.167 -81 121.5s-89.666 45.5 -150.999 45.5c-79.333 0 -142.666 -28.5 -189.999 -85.5s-71 -133.167 -71 -228.5c0 -93.333 23.833 -169 71.5 -227s110.834 -87 189.501 -87c76.667 0 135.834 21.833 177.501 65.5s62.5 105.167 62.5 184.5v13
h-246v45zM369.994 887c11.333 0 20.833 -3.83301 28.5 -11.5s11.5 -17.167 11.5 -28.5s-3.83301 -20.833 -11.5 -28.5s-17.167 -11.5 -28.5 -11.5s-20.833 3.83301 -28.5 11.5s-11.5 17.167 -11.5 28.5s3.83301 20.833 11.5 28.5s17.167 11.5 28.5 11.5z" />
    <glyph glyph-name="gdotaccent" unicode="&#x121;" horiz-adv-x="587" 
d="M461 504h44.999v-490c0 -70 -20.167 -124.5 -60.5 -163.5s-93.166 -58.5 -158.499 -58.5c-57.333 0 -105 13.5 -143 40.5s-60 61.833 -66 104.5h47c8 -31.333 26.167 -56 54.5 -74s64.5 -27 108.5 -27c52 0 93.5 15.667 124.5 47s46.5 75 46.5 131v85
c-39.333 -67.333 -100 -101 -182 -101c-64.667 0 -118.5 23 -161.5 69s-64.5 109 -64.5 189c0 79.333 21.333 142 64 188s97 69 163 69c40.667 0 77 -9.33301 109 -28s56.667 -44 74 -76v95zM279.999 42c54 0 97.667 19.167 131 57.5s50 87.833 50 148.5v16
c0 58.667 -16.5 107.5 -49.5 146.5s-76.833 58.5 -131.5 58.5c-54 0 -97.667 -19.5 -131 -58.5s-50 -90.5 -50 -154.5c0 -64.667 16.667 -116.5 50 -155.5s77 -58.5 131 -58.5zM284.999 695c11.333 0 20.833 -3.83301 28.5 -11.5s11.5 -17.167 11.5 -28.5
s-3.83301 -20.833 -11.5 -28.5s-17.167 -11.5 -28.5 -11.5s-20.833 3.83301 -28.5 11.5s-11.5 17.167 -11.5 28.5s3.83301 20.833 11.5 28.5s17.167 11.5 28.5 11.5z" />
    <glyph glyph-name="uni0122" unicode="&#x122;" horiz-adv-x="721" 
d="M363 346h294.994v-54c0 -92 -25.333 -165.167 -76 -219.5s-121.667 -81.5 -213 -81.5c-92.667 0 -167.667 33.667 -225 101s-86 154 -86 260c0 108 28.5 195.167 85.5 261.5s132.167 99.5 225.5 99.5c74.667 0 136.834 -20 186.501 -60s81.834 -91.333 96.501 -154h-51
c-14.667 50.667 -41.667 91.167 -81 121.5s-89.666 45.5 -150.999 45.5c-79.333 0 -142.666 -28.5 -189.999 -85.5s-71 -133.167 -71 -228.5c0 -93.333 23.833 -169 71.5 -227s110.834 -87 189.501 -87c76.667 0 135.834 21.833 177.501 65.5s62.5 105.167 62.5 184.5v13
h-246v45zM409.994 -100c0 -6 -1.99902 -15 -5.99902 -27l-38 -111h-39l34 104c-21.333 4 -32 16 -32 36c0 11.333 3.66699 20.5 11 27.5s16.666 10.5 27.999 10.5c12 0 22 -3.66699 30 -11s12 -17 12 -29z" />
    <glyph glyph-name="uni0123" unicode="&#x123;" horiz-adv-x="587" 
d="M461 504h44.999v-490c0 -70 -20.167 -124.5 -60.5 -163.5s-93.166 -58.5 -158.499 -58.5c-57.333 0 -105 13.5 -143 40.5s-60 61.833 -66 104.5h47c8 -31.333 26.167 -56 54.5 -74s64.5 -27 108.5 -27c52 0 93.5 15.667 124.5 47s46.5 75 46.5 131v85
c-39.333 -67.333 -100 -101 -182 -101c-64.667 0 -118.5 23 -161.5 69s-64.5 109 -64.5 189c0 79.333 21.333 142 64 188s97 69 163 69c40.667 0 77 -9.33301 109 -28s56.667 -44 74 -76v95zM279.999 42c54 0 97.667 19.167 131 57.5s50 87.833 50 148.5v16
c0 58.667 -16.5 107.5 -49.5 146.5s-76.833 58.5 -131.5 58.5c-54 0 -97.667 -19.5 -131 -58.5s-50 -90.5 -50 -154.5c0 -64.667 16.667 -116.5 50 -155.5s77 -58.5 131 -58.5zM242.999 626c0 6 1.99902 15 5.99902 27l38 111h39l-34 -104c21.333 -4 32 -16 32 -36
c0 -11.333 -3.66699 -20.5 -11 -27.5s-16.666 -10.5 -27.999 -10.5c-12 0 -22 3.66699 -30 11s-12 17 -12 29z" />
    <glyph glyph-name="Hcircumflex" unicode="&#x124;" horiz-adv-x="714" 
d="M141 0h-49v704h49v-318h432v318h49v-704h-49v339h-432v-339zM259 777h-54l127 142h50l127 -142h-54l-98 106z" />
    <glyph glyph-name="hcircumflex" unicode="&#x125;" horiz-adv-x="563" 
d="M299 513c52.667 0 97.166 -16.5 133.499 -49.5s54.5 -81.167 54.5 -144.5v-319h-47v312c0 52 -13.667 91.167 -41 117.5s-62.666 39.5 -105.999 39.5c-44 0 -82.5 -14 -115.5 -42s-49.5 -69 -49.5 -123v-304h-47v727h47v-299c16.667 26 40.5 46.667 71.5 62
s64.167 23 99.5 23zM19.999 799h-53l113 142h50l113 -142h-53l-85 105z" />
    <glyph glyph-name="Hbar" unicode="&#x126;" horiz-adv-x="730" 
d="M149 0h-49v540h-75v45h75v119h49v-119h432v119h49v-119h75v-45h-75v-540h-49v333h-432v-333zM149 540v-160h432v160h-432z" />
    <glyph glyph-name="hbar" unicode="&#x127;" horiz-adv-x="566" 
d="M9 653h74.999v74h47v-74h148v-41h-148v-184c16.667 26 40.5 46.667 71.5 62s64.167 23 99.5 23c52.667 0 97.167 -16.5 133.5 -49.5s54.5 -81.167 54.5 -144.5v-319h-47v312c0 52 -13.667 91.167 -41 117.5s-62.666 39.5 -105.999 39.5c-44 0 -82.5 -14 -115.5 -42
s-49.5 -69 -49.5 -123v-304h-47v612h-75v41z" />
    <glyph glyph-name="Itilde" unicode="&#x128;" horiz-adv-x="233" 
d="M141 704v-704h-49v704h49zM223 900l38 0.00195312v-16c0 -28.667 -7.16699 -51.5 -21.5 -68.5s-33.5 -25.5 -57.5 -25.5c-20.667 0 -38.5 6.33301 -53.5 19s-28.333 25.167 -40 37.5s-23.5 18.5 -35.5 18.5c-28.667 0 -43 -18.333 -43 -55v-15h-38v16
c0 28.667 7.16699 51.5 21.5 68.5s33.5 25.5 57.5 25.5c16 0 30.667 -3.83301 44 -11.5s23.5 -16.334 30.5 -26.001s15.333 -18.334 25 -26.001s19.5 -11.5 29.5 -11.5c28.667 0 43 18.333 43 55v15z" />
    <glyph glyph-name="itilde" unicode="&#x129;" horiz-adv-x="209" 
d="M128 504v-504h-47v504h47zM206 708h38v-16c0 -28.667 -7 -51.5 -21 -68.5s-33 -25.5 -57 -25.5c-15.333 0 -29.333 3.83301 -42 11.5s-22.5 16.334 -29.5 26.001s-15 18.334 -24 26.001s-17.833 11.5 -26.5 11.5c-27.333 0 -41 -18.333 -41 -55v-15h-38v16
c0 28.667 7 51.5 21 68.5s33 25.5 57 25.5c15.333 0 29.333 -3.83301 42 -11.5s22.5 -16.334 29.5 -26.001s15 -18.334 24 -26.001s17.833 -11.5 26.5 -11.5c27.333 0 41 18.333 41 55v15z" />
    <glyph glyph-name="Imacron" unicode="&#x12a;" horiz-adv-x="233" 
d="M141 704v-704h-49v704h49zM-17 869h268v-42h-268v42z" />
    <glyph glyph-name="imacron" unicode="&#x12b;" horiz-adv-x="209" 
d="M128 504v-504h-47v504h47zM-4 677h218v-42h-218v42z" />
    <glyph glyph-name="Ibreve" unicode="&#x12c;" horiz-adv-x="233" 
d="M141 704v-704h-49v704h49zM20 919c0 -31.333 8.66895 -56.5 26.002 -75.5s41 -28.5 71 -28.5s53.667 9.5 71 28.5s26 44.167 26 75.5h44c-0.666992 -44 -13.834 -79 -39.501 -105s-59.5 -39 -101.5 -39s-75.833 13 -101.5 39s-38.834 61 -39.501 105h44z" />
    <glyph glyph-name="ibreve" unicode="&#x12d;" horiz-adv-x="209" 
d="M128 504v-504h-47v504h47zM14 727c0 -32 8 -57.333 24 -76s38.333 -28 67 -28s51 9.33301 67 28s24 44 24 76h44c-0.666992 -44 -13 -79 -37 -105s-56.667 -39 -98 -39c-40.667 0 -73.167 13 -97.5 39s-36.833 61 -37.5 105h44z" />
    <glyph glyph-name="Iogonek" unicode="&#x12e;" horiz-adv-x="233" 
d="M141 704l-0.000976562 -703.998c-58 -31.333 -87 -67.333 -87 -108c0 -38 22.667 -57 68 -57h31v-39h-39c-33.333 0 -59.166 8 -77.499 24s-27.5 37 -27.5 63c0 25.333 8.16699 49.166 24.5 71.499s35.833 40.166 58.5 53.499v696h49z" />
    <glyph glyph-name="iogonek" unicode="&#x12f;" horiz-adv-x="209" 
d="M128 504l-0.000976562 -504c-58 -31.333 -87 -67.333 -87 -108c0 -38 22.667 -57 68 -57h31v-39h-39c-33.333 0 -59.166 8 -77.499 24s-27.5 37 -27.5 63c0 25.333 8.33301 49.333 25 72s36.667 40.667 60 54v495h47zM104.999 695c11.333 0 20.833 -3.83301 28.5 -11.5
s11.5 -17.167 11.5 -28.5s-3.83301 -20.833 -11.5 -28.5s-17.167 -11.5 -28.5 -11.5s-20.833 3.83301 -28.5 11.5s-11.5 17.167 -11.5 28.5s3.83301 20.833 11.5 28.5s17.167 11.5 28.5 11.5z" />
    <glyph glyph-name="Idotaccent" unicode="&#x130;" horiz-adv-x="233" 
d="M141 704v-704h-49v704h49zM117 887c11.333 0 20.833 -3.83301 28.5 -11.5s11.5 -17.167 11.5 -28.5s-3.83301 -20.833 -11.5 -28.5s-17.167 -11.5 -28.5 -11.5s-20.833 3.83301 -28.5 11.5s-11.5 17.167 -11.5 28.5s3.83301 20.833 11.5 28.5s17.167 11.5 28.5 11.5z" />
    <glyph glyph-name="dotlessi" unicode="&#x131;" horiz-adv-x="209" 
d="M128 504v-504h-47v504h47z" />
    <glyph glyph-name="Jcircumflex" unicode="&#x134;" horiz-adv-x="526" 
d="M35 171l47.999 0.00195312c6 -40 22.167 -72.167 48.5 -96.5s60.833 -36.5 103.5 -36.5c49.333 0 87.166 16 113.499 48s39.5 76.667 39.5 134v484h49v-485c0 -72.667 -17.833 -128.834 -53.5 -168.501s-85.167 -59.5 -148.5 -59.5
c-57.333 0 -103.666 16.667 -138.999 50s-55.666 76.666 -60.999 129.999zM319.999 777.002h-54l122 142h50l122 -142h-54l-93 106z" />
    <glyph glyph-name="jcircumflex" unicode="&#x135;" horiz-adv-x="210" 
d="M-26 -191v43h17c60.667 0 91 35 91 105v547h47v-549c0 -97.333 -44.333 -146 -133 -146h-22zM21 585h-53l113 142h50l113 -142h-53l-85 105z" />
    <glyph glyph-name="uni0136" unicode="&#x136;" horiz-adv-x="602" 
d="M141 0h-49v704h49v-322l364 322h69l-381 -338l391 -366h-71l-372 347v-347zM363 -100c0 -6 -1.99902 -15 -5.99902 -27l-38 -111h-39l34 104c-21.333 4 -32 16 -32 36c0 11.333 3.66699 20.5 11 27.5s16.666 10.5 27.999 10.5c12 0 22 -3.66699 30 -11s12 -17 12 -29z
" />
    <glyph glyph-name="uni0137" unicode="&#x137;" horiz-adv-x="484" 
d="M128 0h-47v727h47v-446l266 223h65l-280 -236l286 -268h-65l-272 253v-253zM300 -100c0 -6 -1.99902 -15 -5.99902 -27l-38 -111h-39l34 104c-21.333 4 -32 16 -32 36c0 11.333 3.66699 20.5 11 27.5s16.666 10.5 27.999 10.5c12 0 22 -3.66699 30 -11s12 -17 12 -29z
" />
    <glyph glyph-name="Lacute" unicode="&#x139;" horiz-adv-x="557" 
d="M141 704v-658h379v-46h-428v704h49zM235 919l-95 -142h-51l92 142h54z" />
    <glyph glyph-name="lacute" unicode="&#x13a;" horiz-adv-x="209" 
d="M128 727v-727h-47v727h47zM223 941l-95 -142h-51l92 142h54z" />
    <glyph glyph-name="uni013B" unicode="&#x13b;" horiz-adv-x="557" 
d="M141 704v-658h379v-46h-428v704h49zM353 -100c0 -6 -1.99902 -15 -5.99902 -27l-38 -111h-39l34 104c-21.333 4 -32 16 -32 36c0 11.333 3.66699 20.5 11 27.5s16.666 10.5 27.999 10.5c12 0 22 -3.66699 30 -11s12 -17 12 -29z" />
    <glyph glyph-name="uni013C" unicode="&#x13c;" horiz-adv-x="209" 
d="M128 727v-727h-47v727h47zM145 -100c0 -6 -1.99902 -15 -5.99902 -27l-38 -111h-39l34 104c-21.333 4 -32 16 -32 36c0 11.333 3.66699 20.5 11 27.5s16.666 10.5 27.999 10.5c12 0 22 -3.66699 30 -11s12 -17 12 -29z" />
    <glyph glyph-name="Lcaron" unicode="&#x13d;" horiz-adv-x="557" 
d="M141 704v-658h379v-46h-428v704h49zM330 669c0 -6 -1.99902 -15 -5.99902 -27l-45 -131h-39l41 124c-21.333 4 -32 16 -32 36c0 11.333 3.66699 20.5 11 27.5s16.666 10.5 27.999 10.5c12 0 22 -3.66699 30 -11s12 -17 12 -29z" />
    <glyph glyph-name="lcaron" unicode="&#x13e;" horiz-adv-x="276" 
d="M128 727v-727h-47v727h47zM280 692c0 -6 -1.99902 -15 -5.99902 -27l-45 -131h-39l41 124c-21.333 4 -32 16 -32 36c0 11.333 3.66699 20.5 11 27.5s16.666 10.5 27.999 10.5c12 0 22 -3.66699 30 -11s12 -17 12 -29z" />
    <glyph glyph-name="Ldot" unicode="&#x13f;" horiz-adv-x="557" 
d="M141 704v-658h379v-46h-428v704h49zM345 409c11.333 0 20.833 -4 28.5 -12s11.5 -17.667 11.5 -29c0 -10.667 -3.83301 -20 -11.5 -28s-17.167 -12 -28.5 -12s-21 3.83301 -29 11.5s-12 17.167 -12 28.5s4 21 12 29s17.667 12 29 12z" />
    <glyph glyph-name="ldot" unicode="&#x140;" horiz-adv-x="282" 
d="M128 727v-727h-47v727h47zM238 393c11.333 0 20.833 -4 28.5 -12s11.5 -17.667 11.5 -29c0 -10.667 -4 -20 -12 -28s-17.333 -12 -28 -12c-11.333 0 -21 3.83301 -29 11.5s-12 17.167 -12 28.5s4 21 12 29s17.667 12 29 12z" />
    <glyph glyph-name="Lslash" unicode="&#x141;" horiz-adv-x="569" 
d="M354 461l-201 -96v-319h379v-46h-428v341l-87 -41v47l87 41v316h49v-292l201 96v-47z" />
    <glyph glyph-name="lslash" unicode="&#x142;" horiz-adv-x="233" 
d="M6 364l87 43v320h47v-296l87 44v-46l-87 -44v-385h-47v361l-87 -43v46z" />
    <glyph glyph-name="Nacute" unicode="&#x143;" horiz-adv-x="719" 
d="M144 704l434 -621v621h49v-704h-48l-438 625v-625h-49v704h52zM481 919l-95 -142h-51l92 142h54z" />
    <glyph glyph-name="nacute" unicode="&#x144;" horiz-adv-x="563" 
d="M81 504h44.999v-79c16 27.333 39.833 48.833 71.5 64.5s65.5 23.5 101.5 23.5c52.667 0 97.167 -16.5 133.5 -49.5s54.5 -81.167 54.5 -144.5v-319h-47v312c0 52 -13.667 91.167 -41 117.5s-62.666 39.5 -105.999 39.5c-44 0 -82.5 -14 -115.5 -42s-49.5 -69 -49.5 -123
v-304h-47v504zM403.999 727l-95 -142h-51l92 142h54z" />
    <glyph glyph-name="uni0145" unicode="&#x145;" horiz-adv-x="719" 
d="M144 704l434 -621v621h49v-704h-48l-438 625v-625h-49v704h52zM397 -92c0 -6 -1.99902 -15 -5.99902 -27l-38 -111h-39l34 104c-21.333 4 -32 16 -32 36c0 11.333 3.66699 20.5 11 27.5s16.666 10.5 27.999 10.5c12 0 22 -3.66699 30 -11s12 -17 12 -29z" />
    <glyph glyph-name="uni0146" unicode="&#x146;" horiz-adv-x="563" 
d="M81 504h44.999v-79c16 27.333 39.833 48.833 71.5 64.5s65.5 23.5 101.5 23.5c52.667 0 97.167 -16.5 133.5 -49.5s54.5 -81.167 54.5 -144.5v-319h-47v312c0 52 -13.667 91.167 -41 117.5s-62.666 39.5 -105.999 39.5c-44 0 -82.5 -14 -115.5 -42s-49.5 -69 -49.5 -123
v-304h-47v504zM324.999 -100c0 -6 -1.99902 -15 -5.99902 -27l-38 -111h-39l34 104c-21.333 4 -32 16 -32 36c0 11.333 3.66699 20.5 11 27.5s16.666 10.5 27.999 10.5c12 0 22 -3.66699 30 -11s12 -17 12 -29z" />
    <glyph glyph-name="Ncaron" unicode="&#x147;" horiz-adv-x="719" 
d="M144 704l434 -621v621h49v-704h-48l-438 625v-625h-49v704h52zM265 919l98 -106l98 106h54l-127 -142h-50l-127 142h54z" />
    <glyph glyph-name="ncaron" unicode="&#x148;" horiz-adv-x="563" 
d="M81 504h44.999v-79c16 27.333 39.833 48.833 71.5 64.5s65.5 23.5 101.5 23.5c52.667 0 97.167 -16.5 133.5 -49.5s54.5 -81.167 54.5 -144.5v-319h-47v312c0 52 -13.667 91.167 -41 117.5s-62.666 39.5 -105.999 39.5c-44 0 -82.5 -14 -115.5 -42s-49.5 -69 -49.5 -123
v-304h-47v504zM192.999 727l93 -106l93 106h54l-122 -142h-50l-122 142h54z" />
    <glyph glyph-name="Eng" unicode="&#x14a;" horiz-adv-x="719" 
d="M578 704h49v-749c0 -48 -11.833 -84.333 -35.5 -109s-57.167 -37 -100.5 -37h-24v45h19c61.333 0 92 34.333 92 103v43l-437 625v-625h-49v704h52l434 -623v623z" />
    <glyph glyph-name="eng" unicode="&#x14b;" horiz-adv-x="563" 
d="M299 513c52.667 0 97.166 -16.333 133.499 -49s54.5 -80.667 54.5 -144v-365c0 -97.333 -44.333 -146 -133 -146h-22v43h17c60.667 0 91 35 91 105v356c0 52 -13.667 91 -41 117s-62.666 39 -105.999 39c-44 0 -82.5 -14 -115.5 -42s-49.5 -69 -49.5 -123v-304h-47v504
h45v-79c16 27.333 39.833 48.833 71.5 64.5s65.5 23.5 101.5 23.5z" />
    <glyph glyph-name="Omacron" unicode="&#x14c;" horiz-adv-x="744" 
d="M372 713c94 0 169.833 -33.5 227.5 -100.5s86.5 -153.833 86.5 -260.5s-28.833 -193.5 -86.5 -260.5s-133.5 -100.5 -227.5 -100.5s-169.833 33.5 -227.5 100.5s-86.5 153.833 -86.5 260.5s28.833 193.5 86.5 260.5s133.5 100.5 227.5 100.5zM372 38
c80 0 144 28.667 192 86s72 133.333 72 228s-24 170.667 -72 228s-112 86 -192 86s-144 -28.667 -192 -86s-72 -133.333 -72 -228s24 -170.667 72 -228s112 -86 192 -86zM233 869h278v-42h-278v42z" />
    <glyph glyph-name="omacron" unicode="&#x14d;" horiz-adv-x="568" 
d="M284 513c69.333 0 125.5 -24.167 168.5 -72.5s64.5 -111.166 64.5 -188.499s-21.5 -140.166 -64.5 -188.499s-99.167 -72.5 -168.5 -72.5s-125.5 24.167 -168.5 72.5s-64.5 111.166 -64.5 188.499s21.5 140.166 64.5 188.499s99.167 72.5 168.5 72.5zM284 35
c55.333 0 100 19.833 134 59.5s51 92.167 51 157.5s-17 117.833 -51 157.5s-78.667 59.5 -134 59.5s-100 -19.833 -134 -59.5s-51 -92.167 -51 -157.5s17 -117.833 51 -157.5s78.667 -59.5 134 -59.5zM150 677h268v-42h-268v42z" />
    <glyph glyph-name="Obreve" unicode="&#x14e;" horiz-adv-x="744" 
d="M372 713c94 0 169.833 -33.5 227.5 -100.5s86.5 -153.833 86.5 -260.5s-28.833 -193.5 -86.5 -260.5s-133.5 -100.5 -227.5 -100.5s-169.833 33.5 -227.5 100.5s-86.5 153.833 -86.5 260.5s28.833 193.5 86.5 260.5s133.5 100.5 227.5 100.5zM372 38
c80 0 144 28.667 192 86s72 133.333 72 228s-24 170.667 -72 228s-112 86 -192 86s-144 -28.667 -192 -86s-72 -133.333 -72 -228s24 -170.667 72 -228s112 -86 192 -86zM270 919c0 -30.667 9.5 -55.667 28.5 -75s43.5 -29 73.5 -29s54.5 9.66699 73.5 29
s28.5 44.333 28.5 75h44c-0.666992 -43.333 -14.5 -78.166 -41.5 -104.499s-61.833 -39.5 -104.5 -39.5c-42 0 -76.667 13.167 -104 39.5s-41.333 61.166 -42 104.499h44z" />
    <glyph glyph-name="obreve" unicode="&#x14f;" horiz-adv-x="568" 
d="M284 513c69.333 0 125.5 -24.167 168.5 -72.5s64.5 -111.166 64.5 -188.499s-21.5 -140.166 -64.5 -188.499s-99.167 -72.5 -168.5 -72.5s-125.5 24.167 -168.5 72.5s-64.5 111.166 -64.5 188.499s21.5 140.166 64.5 188.499s99.167 72.5 168.5 72.5zM284 35
c55.333 0 100 19.833 134 59.5s51 92.167 51 157.5s-17 117.833 -51 157.5s-78.667 59.5 -134 59.5s-100 -19.833 -134 -59.5s-51 -92.167 -51 -157.5s17 -117.833 51 -157.5s78.667 -59.5 134 -59.5zM187 727c0 -31.333 8.66895 -56.5 26.002 -75.5s41 -28.5 71 -28.5
s53.667 9.5 71 28.5s26 44.167 26 75.5h44c-0.666992 -44 -13.834 -79 -39.501 -105s-59.5 -39 -101.5 -39s-75.833 13 -101.5 39s-38.834 61 -39.501 105h44z" />
    <glyph glyph-name="Ohungarumlaut" unicode="&#x150;" horiz-adv-x="744" 
d="M372 713c94 0 169.833 -33.5 227.5 -100.5s86.5 -153.833 86.5 -260.5s-28.833 -193.5 -86.5 -260.5s-133.5 -100.5 -227.5 -100.5s-169.833 33.5 -227.5 100.5s-86.5 153.833 -86.5 260.5s28.833 193.5 86.5 260.5s133.5 100.5 227.5 100.5zM372 38
c80 0 144 28.667 192 86s72 133.333 72 228s-24 170.667 -72 228s-112 86 -192 86s-144 -28.667 -192 -86s-72 -133.333 -72 -228s24 -170.667 72 -228s112 -86 192 -86zM408 919l-87 -142h-48l83 142h52zM556 919l-86 -142h-49l83 142h52z" />
    <glyph glyph-name="ohungarumlaut" unicode="&#x151;" horiz-adv-x="568" 
d="M284 513c69.333 0 125.5 -24.167 168.5 -72.5s64.5 -111.166 64.5 -188.499s-21.5 -140.166 -64.5 -188.499s-99.167 -72.5 -168.5 -72.5s-125.5 24.167 -168.5 72.5s-64.5 111.166 -64.5 188.499s21.5 140.166 64.5 188.499s99.167 72.5 168.5 72.5zM284 35
c55.333 0 100 19.833 134 59.5s51 92.167 51 157.5s-17 117.833 -51 157.5s-78.667 59.5 -134 59.5s-100 -19.833 -134 -59.5s-51 -92.167 -51 -157.5s17 -117.833 51 -157.5s78.667 -59.5 134 -59.5zM322 727l-87 -142h-48l83 142h52zM466 727l-86 -142h-49l83 142h52z" />
    <glyph glyph-name="OE" unicode="&#x152;" horiz-adv-x="1014" 
d="M951 704v-46h-372v-273h353v-45h-353v-294h372v-46h-527c-108 -0 -196 31.333 -264 94s-102 148.667 -102 258s34 195.333 102 258s156 94 264 94h527zM108 352c0 -96 29.5 -171 88.5 -225s136.5 -81 232.5 -81h101v612h-101c-96 0 -173.5 -27 -232.5 -81
s-88.5 -129 -88.5 -225z" />
    <glyph glyph-name="oe" unicode="&#x153;" horiz-adv-x="959" 
d="M284 513c48.667 0 90.8301 -12.498 126.497 -37.498s62.167 -59.5 79.5 -103.5c17.333 44.667 44 79.334 80 104.001s77.333 37 124 37c64 0 115.667 -21.667 155 -65s59 -102.666 59 -177.999v-29h-392v-3c0 -62 17.167 -111.333 51.5 -148s77.833 -55 130.5 -55
c40.667 0 74.334 9.16699 101.001 27.5s44.334 40.166 53.001 65.499h48c-10 -37.333 -32.333 -69.5 -67 -96.5s-79.667 -40.5 -135 -40.5c-48 0 -90.167 12.167 -126.5 36.5s-63.166 59.166 -80.499 104.499c-17.333 -44 -44 -78.5 -80 -103.5s-78.333 -37.5 -127 -37.5
c-69.333 0 -125.5 24.167 -168.5 72.5s-64.5 111.166 -64.5 188.499s21.5 140.166 64.5 188.499s99.167 72.5 168.5 72.5zM283.996 35.002c55.333 0 100 19.833 134 59.5s51 92.167 51 157.5s-17 117.833 -51 157.5s-78.667 59.5 -134 59.5s-100 -19.833 -134 -59.5
s-51 -92.167 -51 -157.5s17 -117.833 51 -157.5s78.667 -59.5 134 -59.5zM692.996 469.002c-50 0 -91.168 -16.8311 -123.501 -50.498s-50.166 -78.834 -53.499 -135.501h344c-0.666992 59.333 -16 105.166 -46 137.499s-70.333 48.5 -121 48.5z" />
    <glyph glyph-name="Racute" unicode="&#x154;" horiz-adv-x="622" 
d="M554 494c0 -50.667 -15.5 -95.166 -46.5 -133.499s-72.5 -62.833 -124.5 -73.5l208 -287h-59l-205 282h-186v-282h-49v704h237c70 0 125 -19.833 165 -59.5s60 -89.834 60 -150.501zM324 658.001h-183.001v-330h184c55.333 0 99 15.667 131 47s48 71 48 119
c0 48.667 -15.667 88.167 -47 118.5s-75.666 45.5 -132.999 45.5zM427.999 919.001l-95 -142h-51l92 142h54z" />
    <glyph glyph-name="racute" unicode="&#x155;" horiz-adv-x="343" 
d="M293 505h22v-45h-22c-48 0 -87.5 -15.167 -118.5 -45.5s-46.5 -73.5 -46.5 -129.5v-285h-47v504h45v-89c34 60 89.667 90 167 90zM314 727l-95 -142h-51l92 142h54z" />
    <glyph glyph-name="uni0156" unicode="&#x156;" horiz-adv-x="622" 
d="M554 494c0 -50.667 -15.5 -95.166 -46.5 -133.499s-72.5 -62.833 -124.5 -73.5l208 -287h-59l-205 282h-186v-282h-49v704h237c70 0 125 -19.833 165 -59.5s60 -89.834 60 -150.501zM324 658.001h-183.001v-330h184c55.333 0 99 15.667 131 47s48 71 48 119
c0 48.667 -15.667 88.167 -47 118.5s-75.666 45.5 -132.999 45.5zM365.999 -99.999c0 -6 -1.99902 -15 -5.99902 -27l-38 -111h-39l34 104c-21.333 4 -32 16 -32 36c0 11.333 3.66699 20.5 11 27.5s16.666 10.5 27.999 10.5c12 0 22 -3.66699 30 -11s12 -17 12 -29z" />
    <glyph glyph-name="uni0157" unicode="&#x157;" horiz-adv-x="343" 
d="M293 505h22v-45h-22c-48 0 -87.5 -15.167 -118.5 -45.5s-46.5 -73.5 -46.5 -129.5v-285h-47v504h45v-89c34 60 89.667 90 167 90zM145 -100c0 -6 -1.99902 -15 -5.99902 -27l-38 -111h-39l34 104c-21.333 4 -32 16 -32 36c0 11.333 3.66699 20.5 11 27.5
s16.666 10.5 27.999 10.5c12 0 22 -3.66699 30 -11s12 -17 12 -29z" />
    <glyph glyph-name="Rcaron" unicode="&#x158;" horiz-adv-x="622" 
d="M554 494c0 -50.667 -15.5 -95.166 -46.5 -133.499s-72.5 -62.833 -124.5 -73.5l208 -287h-59l-205 282h-186v-282h-49v704h237c70 0 125 -19.833 165 -59.5s60 -89.834 60 -150.501zM324 658.001h-183.001v-330h184c55.333 0 99 15.667 131 47s48 71 48 119
c0 48.667 -15.667 88.167 -47 118.5s-75.666 45.5 -132.999 45.5zM211.999 919.001l98 -106l98 106h54l-127 -142h-50l-127 142h54z" />
    <glyph glyph-name="rcaron" unicode="&#x159;" horiz-adv-x="343" 
d="M293 505h22v-45h-22c-48 0 -87.5 -15.167 -118.5 -45.5s-46.5 -73.5 -46.5 -129.5v-285h-47v504h45v-89c34 60 89.667 90 167 90zM103 727l93 -106l93 106h54l-122 -142h-50l-122 142h54z" />
    <glyph glyph-name="Sacute" unicode="&#x15a;" horiz-adv-x="613" 
d="M55 180h48.999c10.667 -44.667 34.667 -79.667 72 -105s85 -38 143 -38c54.667 0 99.834 13.5 135.501 40.5s53.5 63.5 53.5 109.5c0 75.333 -46 121 -138 137l-138 23c-52 8.66699 -92.333 27.334 -121 56.001s-43 66.334 -43 113.001c0 60 22.833 107.833 68.5 143.5
s100.167 53.5 163.5 53.5c62.667 0 116.667 -15.833 162 -47.5s73 -76.834 83 -135.501h-49c-10.667 45.333 -33.5 79.5 -68.5 102.5s-77.5 34.5 -127.5 34.5c-49.333 0 -92 -13 -128 -39s-54 -62.333 -54 -109c0 -68 41.333 -109.333 124 -124l139 -24
c54.667 -9.33301 97.834 -29 129.501 -59s47.5 -70.667 47.5 -122c0 -60.667 -22.833 -109 -68.5 -145s-102.834 -54 -171.501 -54c-70.667 0 -129.667 16.167 -177 48.5s-76 79.166 -86 140.499zM423.999 919l-95 -142h-51l92 142h54z" />
    <glyph glyph-name="sacute" unicode="&#x15b;" horiz-adv-x="489" 
d="M95 139c19.333 -70 73.332 -104.999 161.999 -104.999c40.667 0 73.5 9.16699 98.5 27.5s37.5 43.166 37.5 74.499c0 51.333 -33 81 -99 89l-94 12c-42 5.33301 -75.5 18.833 -100.5 40.5s-37.5 51.5 -37.5 89.5c0 41.333 17 76 51 104s77 42 129 42
c50 0 91.833 -12.667 125.5 -38s53.834 -59 60.501 -101h-46c-7.33301 30 -23.166 53.5 -47.499 70.5s-55.166 25.5 -92.499 25.5c-40 0 -72 -9.33301 -96 -28s-36 -42.667 -36 -72c0 -50 32.667 -79.333 98 -88l95 -13c43.333 -6 77.166 -19.667 101.499 -41
s36.5 -51 36.5 -89c0 -44.667 -17.333 -80.5 -52 -107.5s-78.334 -40.5 -131.001 -40.5c-54 0 -100 12.167 -138 36.5s-61.667 61.5 -71 111.5h46zM362.999 727.001l-95 -142h-51l92 142h54z" />
    <glyph glyph-name="Scircumflex" unicode="&#x15c;" horiz-adv-x="613" 
d="M55 180h48.999c10.667 -44.667 34.667 -79.667 72 -105s85 -38 143 -38c54.667 0 99.834 13.5 135.501 40.5s53.5 63.5 53.5 109.5c0 75.333 -46 121 -138 137l-138 23c-52 8.66699 -92.333 27.334 -121 56.001s-43 66.334 -43 113.001c0 60 22.833 107.833 68.5 143.5
s100.167 53.5 163.5 53.5c62.667 0 116.667 -15.833 162 -47.5s73 -76.834 83 -135.501h-49c-10.667 45.333 -33.5 79.5 -68.5 102.5s-77.5 34.5 -127.5 34.5c-49.333 0 -92 -13 -128 -39s-54 -62.333 -54 -109c0 -68 41.333 -109.333 124 -124l139 -24
c54.667 -9.33301 97.834 -29 129.501 -59s47.5 -70.667 47.5 -122c0 -60.667 -22.833 -109 -68.5 -145s-102.834 -54 -171.501 -54c-70.667 0 -129.667 16.167 -177 48.5s-76 79.166 -86 140.499zM207.999 777h-54l127 142h50l127 -142h-54l-98 106z" />
    <glyph glyph-name="scircumflex" unicode="&#x15d;" horiz-adv-x="489" 
d="M95 139c19.333 -70 73.332 -104.999 161.999 -104.999c40.667 0 73.5 9.16699 98.5 27.5s37.5 43.166 37.5 74.499c0 51.333 -33 81 -99 89l-94 12c-42 5.33301 -75.5 18.833 -100.5 40.5s-37.5 51.5 -37.5 89.5c0 41.333 17 76 51 104s77 42 129 42
c50 0 91.833 -12.667 125.5 -38s53.834 -59 60.501 -101h-46c-7.33301 30 -23.166 53.5 -47.499 70.5s-55.166 25.5 -92.499 25.5c-40 0 -72 -9.33301 -96 -28s-36 -42.667 -36 -72c0 -50 32.667 -79.333 98 -88l95 -13c43.333 -6 77.166 -19.667 101.499 -41
s36.5 -51 36.5 -89c0 -44.667 -17.333 -80.5 -52 -107.5s-78.334 -40.5 -131.001 -40.5c-54 0 -100 12.167 -138 36.5s-61.667 61.5 -71 111.5h46zM151.999 585.001h-54l122 142h50l122 -142h-54l-93 106z" />
    <glyph glyph-name="Scedilla" unicode="&#x15e;" horiz-adv-x="613" 
d="M55 180h48.9971c10.667 -44.667 34.667 -79.667 72 -105s85 -38 143 -38c54.667 0 99.834 13.5 135.501 40.5s53.5 63.5 53.5 109.5c0 75.333 -46 121 -138 137l-138 23c-52 8.66699 -92.333 27.334 -121 56.001s-43 66.334 -43 113.001c0 60 22.833 107.833 68.5 143.5
s100.167 53.5 163.5 53.5c62.667 0 116.667 -15.833 162 -47.5s73 -76.834 83 -135.501h-49c-10.667 45.333 -33.5 79.5 -68.5 102.5s-77.5 34.5 -127.5 34.5c-49.333 0 -92 -13 -128 -39s-54 -62.333 -54 -109c0 -68 41.333 -109.333 124 -124l139 -24
c54.667 -9.33301 97.834 -29 129.501 -59s47.5 -70.667 47.5 -122c0 -58.667 -21.167 -105.667 -63.5 -141s-96.166 -54.333 -161.499 -57l-17 -52c22.667 -0.666992 41.834 -7.83398 57.501 -21.501s23.5 -32.167 23.5 -55.5c0 -24.667 -8.83301 -44.834 -26.5 -60.501
s-43.167 -23.5 -76.5 -23.5h-47v37h46c20 0 35.167 4.33301 45.5 13s15.5 20.334 15.5 35.001c0 30 -19.667 45 -59 45h-24v14l23 69c-64.667 3.33301 -118.334 21 -161.001 53s-68.667 77 -78 135z" />
    <glyph glyph-name="scedilla" unicode="&#x15f;" horiz-adv-x="489" 
d="M95 139c19.333 -70 73.3311 -104.997 161.998 -104.997c40.667 0 73.5 9.16699 98.5 27.5s37.5 43.166 37.5 74.499c0 51.333 -33 81 -99 89l-94 12c-42 5.33301 -75.5 18.833 -100.5 40.5s-37.5 51.5 -37.5 89.5c0 41.333 17 76 51 104s77 42 129 42
c50 0 91.833 -12.667 125.5 -38s53.834 -59 60.501 -101h-46c-7.33301 30 -23.166 53.5 -47.499 70.5s-55.166 25.5 -92.499 25.5c-40 0 -72 -9.33301 -96 -28s-36 -42.667 -36 -72c0 -50 32.667 -79.333 98 -88l95 -13c43.333 -6 77.166 -19.667 101.499 -41
s36.5 -51 36.5 -89c0 -42.667 -15.833 -77.167 -47.5 -103.5s-71.834 -40.833 -120.501 -43.5l-17 -52c22.667 -0.666992 41.834 -7.83398 57.501 -21.501s23.5 -32.167 23.5 -55.5c0 -24.667 -8.83301 -44.834 -26.5 -60.501s-43.167 -23.5 -76.5 -23.5h-47v37h46
c20 0 35.167 4.33301 45.5 13s15.5 20.334 15.5 35.001c0 30 -19.667 45 -59 45h-24v14l23 69c-48 3.33301 -88.833 17.166 -122.5 41.499s-54.5 59.5 -62.5 105.5h46z" />
    <glyph glyph-name="Scaron" unicode="&#x160;" horiz-adv-x="613" 
d="M55 180h48.999c10.667 -44.667 34.667 -79.667 72 -105s85 -38 143 -38c54.667 0 99.834 13.5 135.501 40.5s53.5 63.5 53.5 109.5c0 75.333 -46 121 -138 137l-138 23c-52 8.66699 -92.333 27.334 -121 56.001s-43 66.334 -43 113.001c0 60 22.833 107.833 68.5 143.5
s100.167 53.5 163.5 53.5c62.667 0 116.667 -15.833 162 -47.5s73 -76.834 83 -135.501h-49c-10.667 45.333 -33.5 79.5 -68.5 102.5s-77.5 34.5 -127.5 34.5c-49.333 0 -92 -13 -128 -39s-54 -62.333 -54 -109c0 -68 41.333 -109.333 124 -124l139 -24
c54.667 -9.33301 97.834 -29 129.501 -59s47.5 -70.667 47.5 -122c0 -60.667 -22.833 -109 -68.5 -145s-102.834 -54 -171.501 -54c-70.667 0 -129.667 16.167 -177 48.5s-76 79.166 -86 140.499zM207.999 919l98 -106l98 106h54l-127 -142h-50l-127 142h54z" />
    <glyph glyph-name="scaron" unicode="&#x161;" horiz-adv-x="489" 
d="M95 139c19.333 -70 73.332 -104.999 161.999 -104.999c40.667 0 73.5 9.16699 98.5 27.5s37.5 43.166 37.5 74.499c0 51.333 -33 81 -99 89l-94 12c-42 5.33301 -75.5 18.833 -100.5 40.5s-37.5 51.5 -37.5 89.5c0 41.333 17 76 51 104s77 42 129 42
c50 0 91.833 -12.667 125.5 -38s53.834 -59 60.501 -101h-46c-7.33301 30 -23.166 53.5 -47.499 70.5s-55.166 25.5 -92.499 25.5c-40 0 -72 -9.33301 -96 -28s-36 -42.667 -36 -72c0 -50 32.667 -79.333 98 -88l95 -13c43.333 -6 77.166 -19.667 101.499 -41
s36.5 -51 36.5 -89c0 -44.667 -17.333 -80.5 -52 -107.5s-78.334 -40.5 -131.001 -40.5c-54 0 -100 12.167 -138 36.5s-61.667 61.5 -71 111.5h46zM151.999 727.001l93 -106l93 106h54l-122 -142h-50l-122 142h54z" />
    <glyph glyph-name="uni0162" unicode="&#x162;" horiz-adv-x="615" 
d="M34 658l-0.000976562 46.001h547v-46h-249v-658h-6l-20 -60c22.667 -0.666992 41.834 -7.83398 57.501 -21.501s23.5 -32.167 23.5 -55.5c0 -24.667 -8.83301 -44.834 -26.5 -60.501s-43.167 -23.5 -76.5 -23.5h-47v37h46c20 0 35.167 4.33301 45.5 13
s15.5 20.334 15.5 35.001c0 30 -19.667 45 -59 45h-24v14l26 77h-4v658h-249z" />
    <glyph glyph-name="uni0163" unicode="&#x163;" horiz-adv-x="322" 
d="M156 144c0 -67.333 31.332 -101 93.999 -101h33v-43h-58l-20 -60c22.667 -0.666992 41.834 -7.83398 57.501 -21.501s23.5 -32.167 23.5 -55.5c0 -24.667 -8.83301 -44.834 -26.5 -60.501s-43.167 -23.5 -76.5 -23.5h-47v37h46c20 0 35.167 4.33301 45.5 13
s15.5 20.334 15.5 35.001c0 30 -19.667 45 -59 45h-24v14l28 85c-52.667 16.667 -79 61.334 -79 134.001v319h-92v43h92v134h47v-134h127v-43h-127v-317z" />
    <glyph glyph-name="Tcaron" unicode="&#x164;" horiz-adv-x="615" 
d="M34 658v46h547v-46h-249v-658h-49v658h-249zM210 919l98 -106l98 106h54l-127 -142h-50l-127 142h54z" />
    <glyph glyph-name="tcaron" unicode="&#x165;" horiz-adv-x="322" 
d="M156 144c0 -67.333 31.333 -101 94 -101h33v-43h-39c-90 -0 -135 47.333 -135 142v319h-92v43h92v134h47v-134h127v-43h-127v-317zM303 713c0 -6 -1.99902 -15 -5.99902 -27l-39 -113h-39l35 106c-21.333 4 -32 16 -32 36c0 11.333 3.66699 20.5 11 27.5
s16.666 10.5 27.999 10.5c12 0 22 -3.66699 30 -11s12 -17 12 -29z" />
    <glyph glyph-name="Tbar" unicode="&#x166;" horiz-adv-x="615" 
d="M521 318h-189v-318h-49v318h-189v46h189v294h-249v46h547v-46h-249v-294h189v-46z" />
    <glyph glyph-name="tbar" unicode="&#x167;" horiz-adv-x="322" 
d="M17 297h92v164h-92v43h92v134h47v-134h127v-43h-127v-164h127v-42h-127v-111c0 -67.333 31.333 -101 94 -101h33v-43h-39c-90 -0 -135 47.333 -135 142v113h-92v42z" />
    <glyph glyph-name="Utilde" unicode="&#x168;" horiz-adv-x="706" 
d="M87 270v434h49v-433c0 -74.667 19.833 -132.167 59.5 -172.5s92.167 -60.5 157.5 -60.5s117.833 20.167 157.5 60.5s59.5 97.833 59.5 172.5v433h49v-434c0 -88.667 -24.5 -157.334 -73.5 -206.001s-113.167 -73 -192.5 -73s-143.5 24.333 -192.5 73
s-73.5 117.334 -73.5 206.001zM464 900l37.998 0.00195312v-17c0 -28 -7.5 -50.5 -22.5 -67.5s-34.5 -25.5 -58.5 -25.5c-20.667 0 -39 6.33301 -55 19s-30.167 25.167 -42.5 37.5s-24.833 18.5 -37.5 18.5c-14 0 -25 -5 -33 -15s-12 -23.333 -12 -40v-15h-38v17
c0 28 7.5 50.5 22.5 67.5s34.5 25.5 58.5 25.5c16.667 0 31.834 -3.83301 45.501 -11.5s24.334 -16.334 32.001 -26.001s16.667 -18.334 27 -26.001s20.5 -11.5 30.5 -11.5c14 0 25 5 33 15s12 23.333 12 40v15z" />
    <glyph glyph-name="utilde" unicode="&#x169;" horiz-adv-x="563" 
d="M482 0l-44.999 -0.000976562v78c-16.667 -27.333 -40.667 -48.666 -72 -63.999s-65 -23 -101 -23c-52.667 0 -97.167 16.5 -133.5 49.5s-54.5 81.167 -54.5 144.5v319h47v-312c0 -52 13.667 -91.167 41 -117.5s62.666 -39.5 105.999 -39.5c44 0 82.5 14 115.5 42
s49.5 69 49.5 123v304h47v-504zM387.001 707.999l38 0.00195312v-16c0 -28.667 -7.16699 -51.5 -21.5 -68.5s-33.5 -25.5 -57.5 -25.5c-20.667 0 -38.5 6.33301 -53.5 19s-28.333 25.167 -40 37.5s-23.5 18.5 -35.5 18.5c-28.667 0 -43 -18.333 -43 -55v-15h-38v16
c0 28.667 7.16699 51.5 21.5 68.5s33.5 25.5 57.5 25.5c16 0 30.667 -3.83301 44 -11.5s23.5 -16.334 30.5 -26.001s15.333 -18.334 25 -26.001s19.5 -11.5 29.5 -11.5c28.667 0 43 18.333 43 55v15z" />
    <glyph glyph-name="Umacron" unicode="&#x16a;" horiz-adv-x="706" 
d="M87 270v434h49v-433c0 -74.667 19.833 -132.167 59.5 -172.5s92.167 -60.5 157.5 -60.5s117.833 20.167 157.5 60.5s59.5 97.833 59.5 172.5v433h49v-434c0 -88.667 -24.5 -157.334 -73.5 -206.001s-113.167 -73 -192.5 -73s-143.5 24.333 -192.5 73
s-73.5 117.334 -73.5 206.001zM214 869h278v-42h-278v42z" />
    <glyph glyph-name="umacron" unicode="&#x16b;" horiz-adv-x="563" 
d="M482 0l-44.999 -0.000976562v78c-16.667 -27.333 -40.667 -48.666 -72 -63.999s-65 -23 -101 -23c-52.667 0 -97.167 16.5 -133.5 49.5s-54.5 81.167 -54.5 144.5v319h47v-312c0 -52 13.667 -91.167 41 -117.5s62.666 -39.5 105.999 -39.5c44 0 82.5 14 115.5 42
s49.5 69 49.5 123v304h47v-504zM147.001 676.999h268v-42h-268v42z" />
    <glyph glyph-name="Ubreve" unicode="&#x16c;" horiz-adv-x="706" 
d="M87 270v434h49v-433c0 -74.667 19.833 -132.167 59.5 -172.5s92.167 -60.5 157.5 -60.5s117.833 20.167 157.5 60.5s59.5 97.833 59.5 172.5v433h49v-434c0 -88.667 -24.5 -157.334 -73.5 -206.001s-113.167 -73 -192.5 -73s-143.5 24.333 -192.5 73
s-73.5 117.334 -73.5 206.001zM251 919c0 -30.667 9.5 -55.667 28.5 -75s43.5 -29 73.5 -29s54.5 9.66699 73.5 29s28.5 44.333 28.5 75h44c-0.666992 -43.333 -14.5 -78.166 -41.5 -104.499s-61.833 -39.5 -104.5 -39.5c-42 0 -76.667 13.167 -104 39.5
s-41.333 61.166 -42 104.499h44z" />
    <glyph glyph-name="ubreve" unicode="&#x16d;" horiz-adv-x="563" 
d="M482 0l-44.999 -0.000976562v78c-16.667 -27.333 -40.667 -48.666 -72 -63.999s-65 -23 -101 -23c-52.667 0 -97.167 16.5 -133.5 49.5s-54.5 81.167 -54.5 144.5v319h47v-312c0 -52 13.667 -91.167 41 -117.5s62.666 -39.5 105.999 -39.5c44 0 82.5 14 115.5 42
s49.5 69 49.5 123v304h47v-504zM184.001 726.999c0 -31.333 8.66895 -56.5 26.002 -75.5s41 -28.5 71 -28.5s53.667 9.5 71 28.5s26 44.167 26 75.5h44c-0.666992 -44 -13.834 -79 -39.501 -105s-59.5 -39 -101.5 -39s-75.833 13 -101.5 39s-38.834 61 -39.501 105h44z" />
    <glyph glyph-name="Uring" unicode="&#x16e;" horiz-adv-x="706" 
d="M87 270v434h49v-433c0 -74.667 19.833 -132.167 59.5 -172.5s92.167 -60.5 157.5 -60.5s117.833 20.167 157.5 60.5s59.5 97.833 59.5 172.5v433h49v-434c0 -88.667 -24.5 -157.334 -73.5 -206.001s-113.167 -73 -192.5 -73s-143.5 24.333 -192.5 73
s-73.5 117.334 -73.5 206.001zM444 853c0 -25.333 -8.83301 -46.666 -26.5 -63.999s-39.167 -26 -64.5 -26c-26 0 -47.833 8.66699 -65.5 26s-26.5 38.666 -26.5 63.999s8.83301 46.666 26.5 63.999s39.5 26 65.5 26c25.333 0 46.833 -8.66699 64.5 -26
s26.5 -38.666 26.5 -63.999zM298 853c0 -16 5.33301 -29.167 16 -39.5s23.667 -15.5 39 -15.5c14.667 0 27.334 5.16699 38.001 15.5s16 23.5 16 39.5s-5.33301 29.167 -16 39.5s-23.334 15.5 -38.001 15.5c-15.333 0 -28.333 -5.16699 -39 -15.5s-16 -23.5 -16 -39.5z" />
    <glyph glyph-name="uring" unicode="&#x16f;" horiz-adv-x="563" 
d="M482 0l-44.999 -0.000976562v78c-16.667 -27.333 -40.667 -48.666 -72 -63.999s-65 -23 -101 -23c-52.667 0 -97.167 16.5 -133.5 49.5s-54.5 81.167 -54.5 144.5v319h47v-312c0 -52 13.667 -91.167 41 -117.5s62.666 -39.5 105.999 -39.5c44 0 82.5 14 115.5 42
s49.5 69 49.5 123v304h47v-504zM373.001 660.999c0 -25.333 -8.83301 -46.666 -26.5 -63.999s-39.167 -26 -64.5 -26c-26 0 -47.833 8.66699 -65.5 26s-26.5 38.666 -26.5 63.999s8.83301 46.666 26.5 63.999s39.5 26 65.5 26c25.333 0 46.833 -8.66699 64.5 -26
s26.5 -38.666 26.5 -63.999zM227.001 660.999c0 -16 5.33301 -29.167 16 -39.5s23.667 -15.5 39 -15.5c14.667 0 27.334 5.16699 38.001 15.5s16 23.5 16 39.5s-5.33301 29.167 -16 39.5s-23.334 15.5 -38.001 15.5c-15.333 0 -28.333 -5.16699 -39 -15.5
s-16 -23.5 -16 -39.5z" />
    <glyph glyph-name="Uhungarumlaut" unicode="&#x170;" horiz-adv-x="706" 
d="M87 270v434h49v-433c0 -74.667 19.833 -132.167 59.5 -172.5s92.167 -60.5 157.5 -60.5s117.833 20.167 157.5 60.5s59.5 97.833 59.5 172.5v433h49v-434c0 -88.667 -24.5 -157.334 -73.5 -206.001s-113.167 -73 -192.5 -73s-143.5 24.333 -192.5 73
s-73.5 117.334 -73.5 206.001zM389 919l-87 -142h-48l83 142h52zM537 919l-86 -142h-49l83 142h52z" />
    <glyph glyph-name="uhungarumlaut" unicode="&#x171;" horiz-adv-x="563" 
d="M482 0l-44.999 -0.000976562v78c-16.667 -27.333 -40.667 -48.666 -72 -63.999s-65 -23 -101 -23c-52.667 0 -97.167 16.5 -133.5 49.5s-54.5 81.167 -54.5 144.5v319h47v-312c0 -52 13.667 -91.167 41 -117.5s62.666 -39.5 105.999 -39.5c44 0 82.5 14 115.5 42
s49.5 69 49.5 123v304h47v-504zM319.001 726.999l-87 -142h-48l83 142h52zM463.001 726.999l-86 -142h-49l83 142h52z" />
    <glyph glyph-name="Uogonek" unicode="&#x172;" horiz-adv-x="706" 
d="M87 270l-0.00292969 433.999h49v-433c0 -74.667 19.833 -132.167 59.5 -172.5s92.167 -60.5 157.5 -60.5s117.833 20.167 157.5 60.5s59.5 97.833 59.5 172.5v433h49v-434c0 -114.667 -40 -195.667 -120 -243c-2.66699 -1.33301 -10.667 -6.5 -24 -15.5
s-22.666 -15.5 -27.999 -19.5s-13.5 -10.667 -24.5 -20s-19.167 -17.5 -24.5 -24.5s-10.166 -15.5 -14.499 -25.5s-6.5 -20 -6.5 -30c0 -38 22.667 -57 68 -57h31v-39h-39c-33.333 0 -59.166 8 -77.499 24s-27.5 37.333 -27.5 64c0 38 21.333 74.667 64 110
c-14 -2 -28.333 -3 -43 -3c-79.333 0 -143.5 24.333 -192.5 73s-73.5 117.334 -73.5 206.001z" />
    <glyph glyph-name="uogonek" unicode="&#x173;" horiz-adv-x="563" 
d="M482 0c-58 -31.333 -86.999 -67.334 -86.999 -108.001c0 -38 22.667 -57 68 -57h31v-39h-39c-33.333 0 -59.166 8 -77.499 24s-27.5 37 -27.5 63c0 25.333 8.66699 49.5 26 72.5s37.666 41.167 60.999 54.5v68c-16.667 -27.333 -40.667 -48.666 -72 -63.999
s-65 -23 -101 -23c-52.667 0 -97.167 16.5 -133.5 49.5s-54.5 81.167 -54.5 144.5v319h47v-312c0 -52 13.667 -91.167 41 -117.5s62.666 -39.5 105.999 -39.5c44 0 82.5 14 115.5 42s49.5 69 49.5 123v304h47v-504z" />
    <glyph glyph-name="Wcircumflex" unicode="&#x174;" horiz-adv-x="958" 
d="M924 704l-224 -704h-47l-174 617l-174 -617h-47l-224 704h52l195 -620l175 620h47l174 -618l195 618h52zM381 777h-54l127 142h50l127 -142h-54l-98 106z" />
    <glyph glyph-name="wcircumflex" unicode="&#x175;" horiz-adv-x="756" 
d="M730 504l-170 -504h-47l-136 434l-135 -434h-47l-169 504h50l143 -433l135 433h48l135 -433l143 433h50zM285 585h-54l122 142h50l122 -142h-54l-93 106z" />
    <glyph glyph-name="Ycircumflex" unicode="&#x176;" horiz-adv-x="620" 
d="M335 0h-49v291l-265 413h57l232 -364l232 364h57l-264 -411v-293zM212 777h-54l127 142h50l127 -142h-54l-98 106z" />
    <glyph glyph-name="ycircumflex" unicode="&#x177;" horiz-adv-x="506" 
d="M434 504h51l-288 -695h-51l82 198l-207 497h51l181 -440zM161 585h-54l122 142h50l122 -142h-54l-93 106z" />
    <glyph glyph-name="Ydieresis" unicode="&#x178;" horiz-adv-x="620" 
d="M335 0h-49v291l-265 413h57l232 -364l232 364h57l-264 -411v-293zM211 887c11.333 0 20.833 -3.83301 28.5 -11.5s11.5 -17.167 11.5 -28.5s-3.83301 -20.833 -11.5 -28.5s-17.167 -11.5 -28.5 -11.5s-20.833 3.83301 -28.5 11.5s-11.5 17.167 -11.5 28.5
s3.83301 20.833 11.5 28.5s17.167 11.5 28.5 11.5zM409 887c11.333 0 20.833 -3.83301 28.5 -11.5s11.5 -17.167 11.5 -28.5s-3.83301 -20.833 -11.5 -28.5s-17.167 -11.5 -28.5 -11.5s-20.833 3.83301 -28.5 11.5s-11.5 17.167 -11.5 28.5s3.83301 20.833 11.5 28.5
s17.167 11.5 28.5 11.5z" />
    <glyph glyph-name="Zacute" unicode="&#x179;" horiz-adv-x="623" 
d="M63 43l436 615h-436v46h497v-43l-437 -615h437v-46h-497v43zM430 919l-95 -142h-51l92 142h54z" />
    <glyph glyph-name="zacute" unicode="&#x17a;" horiz-adv-x="490" 
d="M53 0v39l325 422h-324v43h383v-39l-326 -422h326v-43h-384zM364 727l-95 -142h-51l92 142h54z" />
    <glyph glyph-name="Zdotaccent" unicode="&#x17b;" horiz-adv-x="623" 
d="M63 43l436 615h-436v46h497v-43l-437 -615h437v-46h-497v43zM313 887c11.333 0 20.833 -3.83301 28.5 -11.5s11.5 -17.167 11.5 -28.5s-3.83301 -20.833 -11.5 -28.5s-17.167 -11.5 -28.5 -11.5s-20.833 3.83301 -28.5 11.5s-11.5 17.167 -11.5 28.5
s3.83301 20.833 11.5 28.5s17.167 11.5 28.5 11.5z" />
    <glyph glyph-name="zdotaccent" unicode="&#x17c;" horiz-adv-x="490" 
d="M53 0v39l325 422h-324v43h383v-39l-326 -422h326v-43h-384zM247 695c11.333 0 20.833 -3.83301 28.5 -11.5s11.5 -17.167 11.5 -28.5s-3.83301 -20.833 -11.5 -28.5s-17.167 -11.5 -28.5 -11.5s-20.833 3.83301 -28.5 11.5s-11.5 17.167 -11.5 28.5
s3.83301 20.833 11.5 28.5s17.167 11.5 28.5 11.5z" />
    <glyph glyph-name="Zcaron" unicode="&#x17d;" horiz-adv-x="623" 
d="M63 43l436 615h-436v46h497v-43l-437 -615h437v-46h-497v43zM214 919l98 -106l98 106h54l-127 -142h-50l-127 142h54z" />
    <glyph glyph-name="zcaron" unicode="&#x17e;" horiz-adv-x="490" 
d="M53 0v39l325 422h-324v43h383v-39l-326 -422h326v-43h-384zM153 727l93 -106l93 106h54l-122 -142h-50l-122 142h54z" />
    <glyph glyph-name="uni018F" unicode="&#x18f;" horiz-adv-x="716" 
d="M58 334l-0.000976562 33h550c-0.666992 90 -25 162.333 -73 217s-111 82 -189 82c-58.667 0 -107.334 -13.167 -146.001 -39.5s-66.334 -61.833 -83.001 -106.5h-51c16.667 56 49.5 102.167 98.5 138.5s109.5 54.5 181.5 54.5c94.667 0 170.334 -33 227.001 -99
s85 -153.333 85 -262c0 -107.333 -27.167 -194.333 -81.5 -261s-127.166 -100 -218.499 -100s-164.166 31.5 -218.499 94.5s-81.5 145.833 -81.5 248.5zM356.999 38c75.333 0 135.169 26.167 179.502 78.5s68.166 120.833 71.499 205.5h-501
c1.33301 -86 24.666 -154.833 69.999 -206.5s105.333 -77.5 180 -77.5z" />
    <glyph glyph-name="florin" unicode="&#x192;" horiz-adv-x="514" 
d="M148 425h104l21 126c16 102 70 153 162 153h33v-43h-32c-64.667 0 -103.334 -38.333 -116.001 -115l-20 -121h114v-43h-121l-62 -387c-16 -102 -70 -153 -162 -153h-33v43h32c64.667 0 103.334 38.333 116.001 115l61 382h-97v43z" />
    <glyph glyph-name="uni01CD" unicode="&#x1cd;" horiz-adv-x="648" 
d="M299 704h50l273 -704h-53l-81 211h-329l-80 -211h-53zM323 642l-147 -386h295zM227 919l98 -106l98 106h54l-127 -142h-50l-127 142h54z" />
    <glyph glyph-name="uni01CE" unicode="&#x1ce;" horiz-adv-x="524" 
d="M402 337c0 43.333 -12.833 76.333 -38.5 99s-59.834 34 -102.501 34c-38 0 -69.5 -8.5 -94.5 -25.5s-42.167 -39.5 -51.5 -67.5h-46c10 40 32.167 72.667 66.5 98s76.5 38 126.5 38c56.667 0 101.834 -15.5 135.501 -46.5s50.5 -74.167 50.5 -129.5v-337h-44v78
c-38.667 -58 -99.667 -87 -183 -87c-48.667 0 -89.5 13.5 -122.5 40.5s-49.5 62.833 -49.5 107.5c0 46 17 82.167 51 108.5s81.667 39.5 143 39.5h159v50zM226 34c51.333 0 93.5 13.833 126.5 41.5s49.5 65.167 49.5 112.5v57h-157c-47.333 0 -83.833 -9.16699 -109.5 -27.5
s-38.5 -44.5 -38.5 -78.5c0 -32 12 -57.5 36 -76.5s55 -28.5 93 -28.5zM170 727l93 -106l93 106h54l-122 -142h-50l-122 142h54z" />
    <glyph glyph-name="uni01D1" unicode="&#x1d1;" horiz-adv-x="744" 
d="M372 713c94 0 169.833 -33.5 227.5 -100.5s86.5 -153.833 86.5 -260.5s-28.833 -193.5 -86.5 -260.5s-133.5 -100.5 -227.5 -100.5s-169.833 33.5 -227.5 100.5s-86.5 153.833 -86.5 260.5s28.833 193.5 86.5 260.5s133.5 100.5 227.5 100.5zM372 38
c80 0 144 28.667 192 86s72 133.333 72 228s-24 170.667 -72 228s-112 86 -192 86s-144 -28.667 -192 -86s-72 -133.333 -72 -228s24 -170.667 72 -228s112 -86 192 -86zM274 919l98 -106l98 106h54l-127 -142h-50l-127 142h54z" />
    <glyph glyph-name="uni01D2" unicode="&#x1d2;" horiz-adv-x="568" 
d="M284 513c69.333 0 125.5 -24.167 168.5 -72.5s64.5 -111.166 64.5 -188.499s-21.5 -140.166 -64.5 -188.499s-99.167 -72.5 -168.5 -72.5s-125.5 24.167 -168.5 72.5s-64.5 111.166 -64.5 188.499s21.5 140.166 64.5 188.499s99.167 72.5 168.5 72.5zM284 35
c55.333 0 100 19.833 134 59.5s51 92.167 51 157.5s-17 117.833 -51 157.5s-78.667 59.5 -134 59.5s-100 -19.833 -134 -59.5s-51 -92.167 -51 -157.5s17 -117.833 51 -157.5s78.667 -59.5 134 -59.5zM191 727l93 -106l93 106h54l-122 -142h-50l-122 142h54z" />
    <glyph glyph-name="uni01D3" unicode="&#x1d3;" horiz-adv-x="706" 
d="M87 270v434h49v-433c0 -74.667 19.833 -132.167 59.5 -172.5s92.167 -60.5 157.5 -60.5s117.833 20.167 157.5 60.5s59.5 97.833 59.5 172.5v433h49v-434c0 -88.667 -24.5 -157.334 -73.5 -206.001s-113.167 -73 -192.5 -73s-143.5 24.333 -192.5 73
s-73.5 117.334 -73.5 206.001zM255 919l98 -106l98 106h54l-127 -142h-50l-127 142h54z" />
    <glyph glyph-name="uni01D4" unicode="&#x1d4;" horiz-adv-x="563" 
d="M482 0l-44.999 -0.000976562v78c-16.667 -27.333 -40.667 -48.666 -72 -63.999s-65 -23 -101 -23c-52.667 0 -97.167 16.5 -133.5 49.5s-54.5 81.167 -54.5 144.5v319h47v-312c0 -52 13.667 -91.167 41 -117.5s62.666 -39.5 105.999 -39.5c44 0 82.5 14 115.5 42
s49.5 69 49.5 123v304h47v-504zM188.001 726.999l93 -106l93 106h54l-122 -142h-50l-122 142h54z" />
    <glyph glyph-name="uni0218" unicode="&#x218;" horiz-adv-x="613" 
d="M55 180h48.999c10.667 -44.667 34.667 -79.667 72 -105s85 -38 143 -38c54.667 0 99.834 13.5 135.501 40.5s53.5 63.5 53.5 109.5c0 75.333 -46 121 -138 137l-138 23c-52 8.66699 -92.333 27.334 -121 56.001s-43 66.334 -43 113.001c0 60 22.833 107.833 68.5 143.5
s100.167 53.5 163.5 53.5c62.667 0 116.667 -15.833 162 -47.5s73 -76.834 83 -135.501h-49c-10.667 45.333 -33.5 79.5 -68.5 102.5s-77.5 34.5 -127.5 34.5c-49.333 0 -92 -13 -128 -39s-54 -62.333 -54 -109c0 -68 41.333 -109.333 124 -124l139 -24
c54.667 -9.33301 97.834 -29 129.501 -59s47.5 -70.667 47.5 -122c0 -60.667 -22.833 -109 -68.5 -145s-102.834 -54 -171.501 -54c-70.667 0 -129.667 16.167 -177 48.5s-76 79.166 -86 140.499zM357.999 -100c0 -6 -1.99902 -15 -5.99902 -27l-38 -111h-39l34 104
c-21.333 4 -32 16 -32 36c0 11.333 3.66699 20.5 11 27.5s16.666 10.5 27.999 10.5c12 0 22 -3.66699 30 -11s12 -17 12 -29z" />
    <glyph glyph-name="uni0219" unicode="&#x219;" horiz-adv-x="489" 
d="M95 139c19.333 -70 73.332 -104.999 161.999 -104.999c40.667 0 73.5 9.16699 98.5 27.5s37.5 43.166 37.5 74.499c0 51.333 -33 81 -99 89l-94 12c-42 5.33301 -75.5 18.833 -100.5 40.5s-37.5 51.5 -37.5 89.5c0 41.333 17 76 51 104s77 42 129 42
c50 0 91.833 -12.667 125.5 -38s53.834 -59 60.501 -101h-46c-7.33301 30 -23.166 53.5 -47.499 70.5s-55.166 25.5 -92.499 25.5c-40 0 -72 -9.33301 -96 -28s-36 -42.667 -36 -72c0 -50 32.667 -79.333 98 -88l95 -13c43.333 -6 77.166 -19.667 101.499 -41
s36.5 -51 36.5 -89c0 -44.667 -17.333 -80.5 -52 -107.5s-78.334 -40.5 -131.001 -40.5c-54 0 -100 12.167 -138 36.5s-61.667 61.5 -71 111.5h46zM298.999 -99.999c0 -6 -1.99902 -15 -5.99902 -27l-38 -111h-39l34 104c-21.333 4 -32 16 -32 36
c0 11.333 3.66699 20.5 11 27.5s16.666 10.5 27.999 10.5c12 0 22 -3.66699 30 -11s12 -17 12 -29z" />
    <glyph glyph-name="uni021A" unicode="&#x21a;" horiz-adv-x="615" 
d="M34 658v46h547v-46h-249v-658h-49v658h-249zM349 -100c0 -6 -1.99902 -15 -5.99902 -27l-38 -111h-39l34 104c-21.333 4 -32 16 -32 36c0 11.333 3.66699 20.5 11 27.5s16.666 10.5 27.999 10.5c12 0 22 -3.66699 30 -11s12 -17 12 -29z" />
    <glyph glyph-name="uni021B" unicode="&#x21b;" horiz-adv-x="322" 
d="M156 144c0 -67.333 31.333 -101 94 -101h33v-43h-39c-90 -0 -135 47.333 -135 142v319h-92v43h92v134h47v-134h127v-43h-127v-317zM237 -100c0 -6 -1.99902 -15 -5.99902 -27l-38 -111h-39l34 104c-21.333 4 -32 16 -32 36c0 11.333 3.66699 20.5 11 27.5
s16.666 10.5 27.999 10.5c12 0 22 -3.66699 30 -11s12 -17 12 -29z" />
    <glyph glyph-name="uni0237" unicode="&#x237;" horiz-adv-x="210" 
d="M-26 -191v43h17c60.667 0 91 35 91 105v547h47v-549c0 -97.333 -44.333 -146 -133 -146h-22z" />
    <glyph glyph-name="uni0259" unicode="&#x259;" horiz-adv-x="543" 
d="M51 240l-0.000976562 28.998h392c-0.666992 61.333 -17.667 110 -51 146s-76.333 54 -129 54c-40.667 0 -74.167 -9 -100.5 -27s-43.833 -40 -52.5 -66h-49c10.667 37.333 33.334 69.5 68.001 96.5s79.667 40.5 135 40.5c68 0 123 -23.167 165 -69.5
s63 -110.166 63 -191.499c0 -80 -20.5 -143.5 -61.5 -190.5s-94.5 -70.5 -160.5 -70.5s-119 21.833 -159 65.5s-60 104.834 -60 183.501zM269.999 34.998c50.667 0 91.332 17.332 121.999 51.999s47.334 81.334 50.001 140.001h-343c0.666992 -62 16.5 -109.5 47.5 -142.5
s72.167 -49.5 123.5 -49.5z" />
    <glyph glyph-name="circumflex" unicode="&#x2c6;" horiz-adv-x="520" 
d="M167 585h-54l122 142h50l122 -142h-54l-93 106z" />
    <glyph glyph-name="caron" unicode="&#x2c7;" horiz-adv-x="520" 
d="M167 727l93 -106l93 106h54l-122 -142h-50l-122 142h54z" />
    <glyph glyph-name="breve" unicode="&#x2d8;" horiz-adv-x="520" 
d="M163 727c0 -31.333 8.66895 -56.5 26.002 -75.5s41 -28.5 71 -28.5s53.667 9.5 71 28.5s26 44.167 26 75.5h44c-0.666992 -44 -13.834 -79 -39.501 -105s-59.5 -39 -101.5 -39s-75.833 13 -101.5 39s-38.834 61 -39.501 105h44z" />
    <glyph glyph-name="dotaccent" unicode="&#x2d9;" horiz-adv-x="520" 
d="M260 695c11.333 0 20.833 -3.83301 28.5 -11.5s11.5 -17.167 11.5 -28.5s-3.83301 -20.833 -11.5 -28.5s-17.167 -11.5 -28.5 -11.5s-20.833 3.83301 -28.5 11.5s-11.5 17.167 -11.5 28.5s3.83301 20.833 11.5 28.5s17.167 11.5 28.5 11.5z" />
    <glyph glyph-name="ring" unicode="&#x2da;" horiz-adv-x="520" 
d="M351 661c0 -25.333 -8.83301 -46.666 -26.5 -63.999s-39.167 -26 -64.5 -26c-26 0 -47.833 8.66699 -65.5 26s-26.5 38.666 -26.5 63.999s8.83301 46.666 26.5 63.999s39.5 26 65.5 26c25.333 0 46.833 -8.66699 64.5 -26s26.5 -38.666 26.5 -63.999zM205 661
c0 -16 5.33301 -29.167 16 -39.5s23.667 -15.5 39 -15.5c14.667 0 27.334 5.16699 38.001 15.5s16 23.5 16 39.5s-5.33301 29.167 -16 39.5s-23.334 15.5 -38.001 15.5c-15.333 0 -28.333 -5.16699 -39 -15.5s-16 -23.5 -16 -39.5z" />
    <glyph glyph-name="ogonek" unicode="&#x2db;" horiz-adv-x="520" 
d="M320 0c-58 -31.333 -87 -67.333 -87 -108c0 -38 22.667 -57 68 -57h31v-39h-39c-33.333 0 -59.166 8 -77.499 24s-27.5 37 -27.5 63c0 27.333 9.66699 53 29 77s41.666 42.333 66.999 55z" />
    <glyph glyph-name="tilde" unicode="&#x2dc;" horiz-adv-x="520" 
d="M366 708l38.002 0.00195312v-16c0 -28.667 -7.16699 -51.5 -21.5 -68.5s-33.5 -25.5 -57.5 -25.5c-20.667 0 -38.5 6.33301 -53.5 19s-28.333 25.167 -40 37.5s-23.5 18.5 -35.5 18.5c-28.667 0 -43 -18.333 -43 -55v-15h-38v16c0 28.667 7.16699 51.5 21.5 68.5
s33.5 25.5 57.5 25.5c16 0 30.667 -3.83301 44 -11.5s23.666 -16.334 30.999 -26.001s15.666 -18.334 24.999 -26.001s19 -11.5 29 -11.5c28.667 0 43 18.333 43 55v15z" />
    <glyph glyph-name="hungarumlaut" unicode="&#x2dd;" horiz-adv-x="520" 
d="M255 727l-87 -142h-48l83 142h52zM399 727l-86 -142h-49l83 142h52z" />
    <glyph glyph-name="gravecomb" unicode="&#x300;" 
d="M-119 727h54l92 -142h-51z" />
    <glyph glyph-name="acutecomb" unicode="&#x301;" 
d="M119 727l-95 -142h-51l92 142h54z" />
    <glyph glyph-name="uni0302" unicode="&#x302;" 
d="M-93 585h-54l122 142h50l122 -142h-54l-93 106z" />
    <glyph glyph-name="tildecomb" unicode="&#x303;" 
d="M106 708l38.002 0.00195312v-16c0 -28.667 -7.16699 -51.5 -21.5 -68.5s-33.5 -25.5 -57.5 -25.5c-20.667 0 -38.5 6.33301 -53.5 19s-28.333 25.167 -40 37.5s-23.5 18.5 -35.5 18.5c-28.667 0 -43 -18.333 -43 -55v-15h-38v16c0 28.667 7.16699 51.5 21.5 68.5
s33.5 25.5 57.5 25.5c16 0 30.667 -3.83301 44 -11.5s23.666 -16.334 30.999 -26.001s15.666 -18.334 24.999 -26.001s19 -11.5 29 -11.5c28.667 0 43 18.333 43 55v15z" />
    <glyph glyph-name="uni0304" unicode="&#x304;" 
d="M-134 677h268v-42h-268v42z" />
    <glyph glyph-name="uni0306" unicode="&#x306;" 
d="M-97 727c0 -31.333 8.66895 -56.5 26.002 -75.5s41 -28.5 71 -28.5s53.667 9.5 71 28.5s26 44.167 26 75.5h44c-0.666992 -44 -13.834 -79 -39.501 -105s-59.5 -39 -101.5 -39s-75.833 13 -101.5 39s-38.834 61 -39.501 105h44z" />
    <glyph glyph-name="uni0307" unicode="&#x307;" 
d="M0 695c11.333 0 20.833 -3.83301 28.5 -11.5s11.5 -17.167 11.5 -28.5s-3.83301 -20.833 -11.5 -28.5s-17.167 -11.5 -28.5 -11.5s-20.833 3.83301 -28.5 11.5s-11.5 17.167 -11.5 28.5s3.83301 20.833 11.5 28.5s17.167 11.5 28.5 11.5z" />
    <glyph glyph-name="uni0308" unicode="&#x308;" 
d="M-95 695c11.333 0 20.833 -3.83301 28.5 -11.5s11.5 -17.167 11.5 -28.5s-3.83301 -20.833 -11.5 -28.5s-17.167 -11.5 -28.5 -11.5s-20.833 3.83301 -28.5 11.5s-11.5 17.167 -11.5 28.5s3.83301 20.833 11.5 28.5s17.167 11.5 28.5 11.5zM95 695
c11.333 0 20.833 -3.83301 28.5 -11.5s11.5 -17.167 11.5 -28.5s-3.83301 -20.833 -11.5 -28.5s-17.167 -11.5 -28.5 -11.5s-20.833 3.83301 -28.5 11.5s-11.5 17.167 -11.5 28.5s3.83301 20.833 11.5 28.5s17.167 11.5 28.5 11.5z" />
    <glyph glyph-name="uni030A" unicode="&#x30a;" 
d="M92 661c0 -25.333 -8.83301 -46.666 -26.5 -63.999s-39.167 -26 -64.5 -26c-26 0 -47.833 8.66699 -65.5 26s-26.5 38.666 -26.5 63.999s8.83301 46.666 26.5 63.999s39.5 26 65.5 26c25.333 0 46.833 -8.66699 64.5 -26s26.5 -38.666 26.5 -63.999zM-54 661
c0 -16 5.33301 -29.167 16 -39.5s23.667 -15.5 39 -15.5c14.667 0 27.334 5.16699 38.001 15.5s16 23.5 16 39.5s-5.33301 29.167 -16 39.5s-23.334 15.5 -38.001 15.5c-15.333 0 -28.333 -5.16699 -39 -15.5s-16 -23.5 -16 -39.5z" />
    <glyph glyph-name="uni030B" unicode="&#x30b;" 
d="M38 727l-87 -142h-48l83 142h52zM182 727l-86 -142h-49l83 142h52z" />
    <glyph glyph-name="uni030C" unicode="&#x30c;" 
d="M-93 727l93 -106l93 106h54l-122 -142h-50l-122 142h54z" />
    <glyph glyph-name="uni0312" unicode="&#x312;" 
d="M-41 625c0 6 1.99902 15 5.99902 27l38 111h39l-34 -104c21.333 -4 32 -16 32 -36c0 -11.333 -3.66699 -20.5 -11 -27.5s-16.666 -10.5 -27.999 -10.5c-12 0 -22 3.66699 -30 11s-12 17 -12 29z" />
    <glyph glyph-name="uni0326" unicode="&#x326;" 
d="M41 -100c0 -6 -1.99902 -15 -5.99902 -27l-38 -111h-39l34 104c-21.333 4 -32 16 -32 36c0 11.333 3.66699 20.5 11 27.5s16.666 10.5 27.999 10.5c12 0 22 -3.66699 30 -11s12 -17 12 -29z" />
    <glyph glyph-name="uni0327" unicode="&#x327;" 
d="M18 9l-0.000976562 -8.99902l-20 -60c22.667 -0.666992 41.834 -7.83398 57.501 -21.501s23.5 -32.167 23.5 -55.5c0 -24.667 -8.83301 -44.834 -26.5 -60.501s-43.167 -23.5 -76.5 -23.5h-47v37h46c20 0 35.167 4.33301 45.5 13s15.5 20.334 15.5 35.001
c0 30 -19.667 45 -59 45h-24v14l29 86h36z" />
    <glyph glyph-name="uni0328" unicode="&#x328;" 
d="M0 0c-58 -31.333 -87 -67.333 -87 -108c0 -38 22.667 -57 68 -57h31v-39h-39c-33.333 0 -59.166 8 -77.499 24s-27.5 37 -27.5 63c0 27.333 9.66699 53 29 77s41.666 42.333 66.999 55z" />
    <glyph glyph-name="uni037E" unicode="&#x37e;" horiz-adv-x="239" 
d="M160 29c0 -8 -1.66797 -17 -5.00098 -27l-53 -162h-41l49 153c-9.33301 1.33301 -17.166 5.33301 -23.499 12s-9.5 15 -9.5 25c0 11.333 3.83301 20.833 11.5 28.5s17.167 11.5 28.5 11.5c12 0 22.167 -3.83301 30.5 -11.5s12.5 -17.5 12.5 -29.5zM118.999 489
c11.333 0 20.833 -4 28.5 -12s11.5 -17.667 11.5 -29c0 -10.667 -3.83301 -20 -11.5 -28s-17.167 -12 -28.5 -12s-21 3.83301 -29 11.5s-12 17.167 -12 28.5s4 21 12 29s17.667 12 29 12z" />
    <glyph glyph-name="tonos" unicode="&#x384;" horiz-adv-x="520" 
d="M333 727l-95 -142h-51l92 142h54z" />
    <glyph glyph-name="dieresistonos" unicode="&#x385;" horiz-adv-x="520" 
d="M145 694c11.333 0 20.666 -3.83301 27.999 -11.5s11 -16.834 11 -27.501s-3.66699 -19.667 -11 -27s-16.666 -11 -27.999 -11s-20.666 3.66699 -27.999 11s-11 16.333 -11 27s3.66699 19.834 11 27.501s16.666 11.5 27.999 11.5zM300 727l-37 -142h-42l34 142h45z
M375 694c11.333 0 20.666 -3.83301 27.999 -11.5s11 -16.834 11 -27.501s-3.66699 -19.667 -11 -27s-16.666 -11 -27.999 -11s-20.666 3.66699 -27.999 11s-11 16.333 -11 27s3.66699 19.834 11 27.501s16.666 11.5 27.999 11.5z" />
    <glyph glyph-name="Alphatonos" unicode="&#x386;" horiz-adv-x="648" 
d="M299 704h50l273 -704h-53l-81 211h-329l-80 -211h-53zM323 642l-147 -386h295zM236 704l-95 -142h-51l92 142h54z" />
    <glyph glyph-name="anoteleia" unicode="&#x387;" horiz-adv-x="239" 
d="M120 293c11.333 0 20.833 -4 28.5 -12s11.5 -17.667 11.5 -29c0 -10.667 -4 -20 -12 -28s-17.333 -12 -28 -12c-11.333 0 -21 3.83301 -29 11.5s-12 17.167 -12 28.5s4 21 12 29s17.667 12 29 12z" />
    <glyph glyph-name="Epsilontonos" unicode="&#x388;" horiz-adv-x="649" 
d="M586 658h-379v-273h360v-45h-360v-294h379v-46h-428v704h428v-46zM124 704l-95 -142h-51l92 142h54z" />
    <glyph glyph-name="Etatonos" unicode="&#x389;" horiz-adv-x="780" 
d="M207 0h-49v704h49v-318h432v318h49v-704h-49v339h-432v-339zM124 704l-95 -142h-51l92 142h54z" />
    <glyph glyph-name="Iotatonos" unicode="&#x38a;" horiz-adv-x="299" 
d="M207 704v-704h-49v704h49zM124 704l-95 -142h-51l92 142h54z" />
    <glyph glyph-name="Omicrontonos" unicode="&#x38c;" horiz-adv-x="766" 
d="M394 713c94 0 169.833 -33.5 227.5 -100.5s86.5 -153.833 86.5 -260.5s-28.833 -193.5 -86.5 -260.5s-133.5 -100.5 -227.5 -100.5s-169.833 33.5 -227.5 100.5s-86.5 153.833 -86.5 260.5s28.833 193.5 86.5 260.5s133.5 100.5 227.5 100.5zM394 38
c80 0 144 28.667 192 86s72 133.333 72 228s-24 170.667 -72 228s-112 86 -192 86s-144 -28.667 -192 -86s-72 -133.333 -72 -228s24 -170.667 72 -228s112 -86 192 -86zM144 704l-95 -142h-51l92 142h54z" />
    <glyph glyph-name="Upsilontonos" unicode="&#x38e;" horiz-adv-x="737" 
d="M452 0h-49v291l-265 413h57l232 -364l232 364h57l-264 -411v-293zM124 704l-95 -142h-51l92 142h54z" />
    <glyph glyph-name="Omegatonos" unicode="&#x38f;" horiz-adv-x="782" 
d="M719 364c0 -70 -14.832 -132.667 -44.499 -188s-68.167 -99 -115.5 -131h160v-45h-248v45c55.333 21.333 102.166 59.833 140.499 115.5s57.5 123.167 57.5 202.5c0 90 -24.5 163 -73.5 219s-113.5 84 -193.5 84s-144.5 -28 -193.5 -84s-73.5 -129 -73.5 -219
c0 -79.333 19.167 -146.833 57.5 -202.5s85.166 -94.167 140.499 -115.5v-45h-248v45h159c-47.333 32 -85.666 75.5 -114.999 130.5s-44 117.833 -44 188.5c0 102.667 29.333 186.5 88 251.5s135 97.5 229 97.5s170.333 -32.5 229 -97.5s88 -148.833 88 -251.5zM144.001 704
l-95 -142h-51l92 142h54z" />
    <glyph glyph-name="iotadieresistonos" unicode="&#x390;" horiz-adv-x="272" 
d="M128 144c0 -36.667 7.5 -62.667 22.5 -78s37.167 -23 66.5 -23h23v-43h-29c-86.667 -0 -130 47.333 -130 142v362h47v-360zM2 694c11.333 0 20.666 -3.83301 27.999 -11.5s11 -16.834 11 -27.501s-3.66699 -19.667 -11 -27s-16.666 -11 -27.999 -11
s-20.666 3.66699 -27.999 11s-11 16.333 -11 27s3.66699 19.834 11 27.501s16.666 11.5 27.999 11.5zM157 727l-37 -142h-42l34 142h45zM232 694c11.333 0 20.666 -3.83301 27.999 -11.5s11 -16.834 11 -27.501s-3.66699 -19.667 -11 -27s-16.666 -11 -27.999 -11
s-20.666 3.66699 -27.999 11s-11 16.333 -11 27s3.66699 19.834 11 27.501s16.666 11.5 27.999 11.5z" />
    <glyph glyph-name="Alpha" unicode="&#x391;" horiz-adv-x="648" 
d="M299 704h50l273 -704h-53l-81 211h-329l-80 -211h-53zM323 642l-147 -386h295z" />
    <glyph glyph-name="Beta" unicode="&#x392;" horiz-adv-x="625" 
d="M92 0v703.997h238c67.333 0 119.5 -16 156.5 -48s55.5 -74.667 55.5 -128c0 -42 -10.5 -77.167 -31.5 -105.5s-45.5 -47.166 -73.5 -56.499c34 -7.33301 64.667 -25.666 92 -54.999s41 -68.666 41 -117.999c0 -58.667 -20 -105.5 -60 -140.5s-94.667 -52.5 -164 -52.5
h-254zM343 340.997l-201.999 0.000976562v-296h202c55.333 0 98.666 13.333 129.999 40s47 63 47 109c0 45.333 -15.5 81.166 -46.5 107.499s-74.5 39.5 -130.5 39.5zM324.001 658.998l-183 -0.000976562v-274h196c52 0 90.833 13 116.5 39s38.5 59.333 38.5 100
c0 42.667 -14.5 75.834 -43.5 99.501s-70.5 35.5 -124.5 35.5z" />
    <glyph glyph-name="Gamma" unicode="&#x393;" horiz-adv-x="550" 
d="M513 658h-372v-658h-49v704h421v-46z" />
    <glyph glyph-name="uni0394" unicode="&#x394;" horiz-adv-x="662" 
d="M356 704l281 -704h-612l281 704h50zM331 641l-236 -595h471z" />
    <glyph glyph-name="Epsilon" unicode="&#x395;" horiz-adv-x="583" 
d="M520 658h-379v-273h360v-45h-360v-294h379v-46h-428v704h428v-46z" />
    <glyph glyph-name="Zeta" unicode="&#x396;" horiz-adv-x="623" 
d="M63 43l436 615h-436v46h497v-43l-437 -615h437v-46h-497v43z" />
    <glyph glyph-name="Eta" unicode="&#x397;" horiz-adv-x="714" 
d="M141 0h-49v704h49v-318h432v318h49v-704h-49v339h-432v-339z" />
    <glyph glyph-name="Theta" unicode="&#x398;" horiz-adv-x="744" 
d="M372 713c94.667 0 170.667 -33.5 228 -100.5s86 -153.833 86 -260.5s-28.667 -193.5 -86 -260.5s-133.333 -100.5 -228 -100.5c-94 0 -169.833 33.5 -227.5 100.5s-86.5 153.833 -86.5 260.5s28.833 193.5 86.5 260.5s133.5 100.5 227.5 100.5zM372 38
c80 0 144 28.667 192 86s72 133.333 72 228s-24 170.667 -72 228s-112 86 -192 86s-144 -28.667 -192 -86s-72 -133.333 -72 -228s24 -170.667 72 -228s112 -86 192 -86zM534 339h-324v46h324v-46z" />
    <glyph glyph-name="Iota" unicode="&#x399;" horiz-adv-x="233" 
d="M141 704v-704h-49v704h49z" />
    <glyph glyph-name="Kappa" unicode="&#x39a;" horiz-adv-x="602" 
d="M141 0h-49v704h49v-322l364 322h69l-381 -338l391 -366h-71l-372 347v-347z" />
    <glyph glyph-name="Lambda" unicode="&#x39b;" horiz-adv-x="641" 
d="M29 0l267 704h49l267 -704h-53l-239 637l-238 -637h-53z" />
    <glyph glyph-name="Mu" unicode="&#x39c;" horiz-adv-x="866" 
d="M92 704h56l285 -639l286 639h55v-704h-48v607l-271 -607h-44l-271 607v-607h-48v704z" />
    <glyph glyph-name="Nu" unicode="&#x39d;" horiz-adv-x="719" 
d="M144 704l434 -621v621h49v-704h-48l-438 625v-625h-49v704h52z" />
    <glyph glyph-name="Xi" unicode="&#x39e;" horiz-adv-x="626" 
d="M63 46h500v-46h-500v46zM108 384h409v-45h-409v45zM63 704h500v-46h-500v46z" />
    <glyph glyph-name="Omicron" unicode="&#x39f;" horiz-adv-x="744" 
d="M372 713c94 0 169.833 -33.5 227.5 -100.5s86.5 -153.833 86.5 -260.5s-28.833 -193.5 -86.5 -260.5s-133.5 -100.5 -227.5 -100.5s-169.833 33.5 -227.5 100.5s-86.5 153.833 -86.5 260.5s28.833 193.5 86.5 260.5s133.5 100.5 227.5 100.5zM372 38
c80 0 144 28.667 192 86s72 133.333 72 228s-24 170.667 -72 228s-112 86 -192 86s-144 -28.667 -192 -86s-72 -133.333 -72 -228s24 -170.667 72 -228s112 -86 192 -86z" />
    <glyph glyph-name="Pi" unicode="&#x3a0;" horiz-adv-x="711" 
d="M92 704h527v-704h-49v657h-429v-657h-49v704z" />
    <glyph glyph-name="Rho" unicode="&#x3a1;" horiz-adv-x="602" 
d="M320 704c69.333 0 124.833 -19.834 166.5 -59.501s62.5 -91.167 62.5 -154.5s-20.833 -115.166 -62.5 -155.499s-96.5 -60.5 -164.5 -60.5h-181v-274h-49v704h228zM315 657.999l-174 0.000976562v-338h175c56 0 100.5 15.333 133.5 46s49.5 72 49.5 124
c0 51.333 -16.5 92.166 -49.5 122.499s-77.833 45.5 -134.5 45.5z" />
    <glyph glyph-name="Sigma" unicode="&#x3a3;" horiz-adv-x="609" 
d="M546 704v-45h-423l251 -307l-252 -307h424v-45h-483v41l253 311l-253 311v41h483z" />
    <glyph glyph-name="Tau" unicode="&#x3a4;" horiz-adv-x="615" 
d="M34 658v46h547v-46h-249v-658h-49v658h-249z" />
    <glyph glyph-name="Upsilon" unicode="&#x3a5;" horiz-adv-x="620" 
d="M335 0h-49v291l-265 413h57l232 -364l232 364h57l-264 -411v-293z" />
    <glyph glyph-name="Phi" unicode="&#x3a6;" horiz-adv-x="812" 
d="M430 650c93.333 -1.33301 171.5 -28 234.5 -80s94.5 -123.333 94.5 -214s-31.667 -162 -95 -214s-141.333 -78.333 -234 -79v-74h-48v74c-93.333 0.666992 -171.5 27 -234.5 79s-94.5 123.333 -94.5 214s31.333 162 94 214s141 78.667 235 80v74h48v-74zM382 108v497
c-81.333 -0.666992 -148.333 -23.167 -201 -67.5s-79 -104.833 -79 -181.5s26.333 -137 79 -181s119.667 -66.333 201 -67zM430 108c80.667 0.666992 147.5 23 200.5 67s79.5 104.333 79.5 181s-26.5 137.167 -79.5 181.5s-119.833 66.833 -200.5 67.5v-497z" />
    <glyph glyph-name="Chi" unicode="&#x3a7;" horiz-adv-x="642" 
d="M549 0l-229 316l-227 -316h-59l254 352l-252 352h59l226 -314l227 314h58l-252 -352l254 -352h-59z" />
    <glyph glyph-name="Psi" unicode="&#x3a8;" horiz-adv-x="807" 
d="M129 454c0 -77.333 22.167 -135.998 66.5 -175.998s105.5 -61 183.5 -63v489h49v-489c78 2 139.167 23 183.5 63s66.5 98.667 66.5 176v250h49v-252c0 -90.667 -27.167 -159.834 -81.5 -207.501s-126.833 -72.834 -217.5 -75.501v-169h-49v169c-91.333 2 -164 27 -218 75
s-81 117.333 -81 208v252h49v-250z" />
    <glyph glyph-name="uni03A9" unicode="&#x3a9;" horiz-adv-x="760" 
d="M697 364c0 -70 -14.832 -132.667 -44.499 -188s-68.167 -99 -115.5 -131h160v-45h-248v45c55.333 21.333 102.166 59.833 140.499 115.5s57.5 123.167 57.5 202.5c0 90 -24.5 163 -73.5 219s-113.5 84 -193.5 84s-144.5 -28 -193.5 -84s-73.5 -129 -73.5 -219
c0 -79.333 19.167 -146.833 57.5 -202.5s85.166 -94.167 140.499 -115.5v-45h-248v45h159c-47.333 32 -85.666 75.5 -114.999 130.5s-44 117.833 -44 188.5c0 102.667 29.333 186.5 88 251.5s135 97.5 229 97.5s170.333 -32.5 229 -97.5s88 -148.833 88 -251.5z" />
    <glyph glyph-name="Iotadieresis" unicode="&#x3aa;" horiz-adv-x="233" 
d="M141 704v-704h-49v704h49zM22 887c11.333 0 20.833 -3.83301 28.5 -11.5s11.5 -17.167 11.5 -28.5s-3.83301 -20.833 -11.5 -28.5s-17.167 -11.5 -28.5 -11.5s-20.833 3.83301 -28.5 11.5s-11.5 17.167 -11.5 28.5s3.83301 20.833 11.5 28.5s17.167 11.5 28.5 11.5z
M212 887c11.333 0 20.833 -3.83301 28.5 -11.5s11.5 -17.167 11.5 -28.5s-3.83301 -20.833 -11.5 -28.5s-17.167 -11.5 -28.5 -11.5s-20.833 3.83301 -28.5 11.5s-11.5 17.167 -11.5 28.5s3.83301 20.833 11.5 28.5s17.167 11.5 28.5 11.5z" />
    <glyph glyph-name="Upsilondieresis" unicode="&#x3ab;" horiz-adv-x="620" 
d="M335 0h-49v291l-265 413h57l232 -364l232 364h57l-264 -411v-293zM211 887c11.333 0 20.833 -3.83301 28.5 -11.5s11.5 -17.167 11.5 -28.5s-3.83301 -20.833 -11.5 -28.5s-17.167 -11.5 -28.5 -11.5s-20.833 3.83301 -28.5 11.5s-11.5 17.167 -11.5 28.5
s3.83301 20.833 11.5 28.5s17.167 11.5 28.5 11.5zM409 887c11.333 0 20.833 -3.83301 28.5 -11.5s11.5 -17.167 11.5 -28.5s-3.83301 -20.833 -11.5 -28.5s-17.167 -11.5 -28.5 -11.5s-20.833 3.83301 -28.5 11.5s-11.5 17.167 -11.5 28.5s3.83301 20.833 11.5 28.5
s17.167 11.5 28.5 11.5z" />
    <glyph glyph-name="alphatonos" unicode="&#x3ac;" horiz-adv-x="588" 
d="M277 -9c-63.333 0 -116.833 23.1689 -160.5 69.502s-65.5 110.166 -65.5 191.499c0 80.667 21.5 144.334 64.5 191.001s97.167 70 162.5 70c40 0 76.333 -9.33301 109 -28s57.667 -44.334 75 -77.001v96h45v-504h-45v96c-18 -32.667 -43.167 -58.334 -75.5 -77.001
s-68.833 -28 -109.5 -28zM280 469.002c-54 0 -97.667 -19.833 -131 -59.5s-50 -92.167 -50 -157.5s16.833 -117.833 50.5 -157.5s77.167 -59.5 130.5 -59.5s97 19.167 131 57.5s51 88.833 51 151.5v16c0 60.667 -16.833 110.667 -50.5 150s-77.5 59 -131.5 59zM402 727.002
l-95 -142h-51l92 142h54z" />
    <glyph glyph-name="epsilontonos" unicode="&#x3ad;" horiz-adv-x="502" 
d="M451 374l-46 0.000976562c-13.333 64 -63.666 96 -150.999 96c-42.667 0 -76.5 -9.16699 -101.5 -27.5s-37.5 -42.5 -37.5 -72.5c0 -27.333 11 -49 33 -65s54 -24 96 -24h86v-42h-85c-48 0 -83.5 -9.5 -106.5 -28.5s-34.5 -43.5 -34.5 -73.5
c0 -32.667 13.167 -58 39.5 -76s62.166 -27 107.499 -27c46.667 0 84.167 8.66699 112.5 26s45.166 43.333 50.499 78h47c-5.33301 -48.667 -27 -85.334 -65 -110.001s-86.333 -37 -145 -37c-58 0 -105 12.833 -141 38.5s-54 61.167 -54 106.5c0 34 9.83301 61.667 29.5 83
s41.5 35.333 65.5 42c-21.333 6.66699 -40.5 19.334 -57.5 38.001s-25.5 43 -25.5 73c0 41.333 17.333 75.166 52 101.499s79.334 39.5 134.001 39.5c56 0 101.333 -12.167 136 -36.5s55 -58.5 61 -102.5zM374 727.001l-95 -142h-51l92 142h54z" />
    <glyph glyph-name="etatonos" unicode="&#x3ae;" horiz-adv-x="563" 
d="M81 504h44.999v-79c16 27.333 39.833 48.833 71.5 64.5s65.5 23.5 101.5 23.5c52.667 0 97.167 -16.5 133.5 -49.5s54.5 -81.167 54.5 -144.5v-510h-47v503c0 52 -13.667 91.167 -41 117.5s-62.666 39.5 -105.999 39.5c-44 0 -82.5 -14 -115.5 -42s-49.5 -69 -49.5 -123
v-304h-47v504zM403.999 727l-95 -142h-51l92 142h54z" />
    <glyph glyph-name="iotatonos" unicode="&#x3af;" horiz-adv-x="272" 
d="M128 144c0 -36.667 7.5 -62.667 22.5 -78s37.167 -23 66.5 -23h23v-43h-29c-86.667 -0 -130 47.333 -130 142v362h47v-360zM224 727l-95 -142h-51l92 142h54z" />
    <glyph glyph-name="upsilondieresistonos" unicode="&#x3b0;" horiz-adv-x="557" 
d="M434 504h47v-313c0 -64 -19.5 -113.333 -58.5 -148s-86.833 -52 -143.5 -52s-104.667 17.333 -144 52s-59 84 -59 148v313h47v-310c0 -52 15 -91.5 45 -118.5s67 -40.5 111 -40.5s80.833 13.5 110.5 40.5s44.5 66.5 44.5 118.5v310zM165 694
c11.333 0 20.666 -3.83301 27.999 -11.5s11 -16.834 11 -27.501s-3.66699 -19.667 -11 -27s-16.666 -11 -27.999 -11s-20.666 3.66699 -27.999 11s-11 16.333 -11 27s3.66699 19.834 11 27.501s16.666 11.5 27.999 11.5zM320 727l-37 -142h-42l34 142h45zM395 694
c11.333 0 20.666 -3.83301 27.999 -11.5s11 -16.834 11 -27.501s-3.66699 -19.667 -11 -27s-16.666 -11 -27.999 -11s-20.666 3.66699 -27.999 11s-11 16.333 -11 27s3.66699 19.834 11 27.501s16.666 11.5 27.999 11.5z" />
    <glyph glyph-name="alpha" unicode="&#x3b1;" horiz-adv-x="588" 
d="M277 -9c-63.333 0 -116.833 23.1689 -160.5 69.502s-65.5 110.166 -65.5 191.499c0 80.667 21.5 144.334 64.5 191.001s97.167 70 162.5 70c40 0 76.333 -9.33301 109 -28s57.667 -44.334 75 -77.001v96h45v-504h-45v96c-18 -32.667 -43.167 -58.334 -75.5 -77.001
s-68.833 -28 -109.5 -28zM280 469.002c-54 0 -97.667 -19.833 -131 -59.5s-50 -92.167 -50 -157.5s16.833 -117.833 50.5 -157.5s77.167 -59.5 130.5 -59.5s97 19.167 131 57.5s51 88.833 51 151.5v16c0 60.667 -16.833 110.667 -50.5 150s-77.5 59 -131.5 59z" />
    <glyph glyph-name="beta" unicode="&#x3b2;" horiz-adv-x="586" 
d="M387 391c38 -10.667 71.5 -31.667 100.5 -63s43.5 -74 43.5 -128c0 -59.333 -20.333 -109 -61 -149s-92.334 -60 -155.001 -60c-88 0 -150.333 30.667 -187 92v-274h-47v715c0 62.667 19.833 113 59.5 151s89.834 57 150.501 57c58 0 105.333 -17.333 142 -52
s55 -77 55 -127c0 -76.667 -33.667 -130.667 -101 -162zM311 35c52 0 93.667 15.8311 125 47.498s47 71.167 47 118.5c0 50.667 -17 90.834 -51 120.501s-80.333 44.5 -139 44.5h-34v43h33c48.667 0 85.5 13.333 110.5 40s37.5 60.667 37.5 102
c0 38.667 -14 71.167 -42 97.5s-63.667 39.5 -107 39.5c-47.333 0 -86.333 -14.667 -117 -44s-46 -69.666 -46 -120.999v-319c0 -50.667 17.5 -91.5 52.5 -122.5s78.5 -46.5 130.5 -46.5z" />
    <glyph glyph-name="gamma" unicode="&#x3b3;" horiz-adv-x="506" 
d="M485 504l-209 -502v-193h-47v193l-208 502h51l180 -440l182 440h51z" />
    <glyph glyph-name="delta" unicode="&#x3b4;" horiz-adv-x="570" 
d="M244 678c-26.667 0 -48.168 -6.16602 -64.501 -18.499s-24.5 -28.833 -24.5 -49.5c0 -48.667 40.667 -81.334 122 -98.001c52 -10.667 89.667 -22 113 -34c86 -44 129 -121.333 129 -232c0 -72 -21 -132.5 -63 -181.5s-99 -73.5 -171 -73.5s-129 24.5 -171 73.5
s-63 109.167 -63 180.5c0 62 15 114.333 45 157s71 70.667 123 84c-74.667 26.667 -112 68.334 -112 125.001c0 33.333 12.333 60.166 37 80.499s57.334 30.5 98.001 30.5h222v-44h-220zM284.999 35.001c58 0 103.501 20.167 136.501 60.5s49.5 90.5 49.5 150.5
c0 63.333 -17.167 114.5 -51.5 153.5s-79.166 58.5 -134.499 58.5c-56.667 0 -101.834 -20 -135.501 -60s-50.5 -90.667 -50.5 -152c0 -60 16.667 -110.167 50 -150.5s78.666 -60.5 135.999 -60.5z" />
    <glyph glyph-name="epsilon" unicode="&#x3b5;" horiz-adv-x="502" 
d="M451 374l-46 0.000976562c-13.333 64 -63.666 96 -150.999 96c-42.667 0 -76.5 -9.16699 -101.5 -27.5s-37.5 -42.5 -37.5 -72.5c0 -27.333 11 -49 33 -65s54 -24 96 -24h86v-42h-85c-48 0 -83.5 -9.5 -106.5 -28.5s-34.5 -43.5 -34.5 -73.5
c0 -32.667 13.167 -58 39.5 -76s62.166 -27 107.499 -27c46.667 0 84.167 8.66699 112.5 26s45.166 43.333 50.499 78h47c-5.33301 -48.667 -27 -85.334 -65 -110.001s-86.333 -37 -145 -37c-58 0 -105 12.833 -141 38.5s-54 61.167 -54 106.5c0 34 9.83301 61.667 29.5 83
s41.5 35.333 65.5 42c-21.333 6.66699 -40.5 19.334 -57.5 38.001s-25.5 43 -25.5 73c0 41.333 17.333 75.166 52 101.499s79.334 39.5 134.001 39.5c56 0 101.333 -12.167 136 -36.5s55 -58.5 61 -102.5z" />
    <glyph glyph-name="zeta" unicode="&#x3b6;" horiz-adv-x="458" 
d="M273 511c-61.333 -62 -105.667 -114.169 -133 -156.502s-41 -87.833 -41 -136.5c0 -50.667 14.833 -89.5 44.5 -116.5s72.834 -45.167 129.501 -54.5l35 -6c49.333 -8 83.666 -21 102.999 -39s29 -47.667 29 -89v-39h-45v33c0 28.667 -6 49.334 -18 62.001
s-36 21.667 -72 27l-35 5c-69.333 10 -123.166 33 -161.499 69s-57.5 85.333 -57.5 148c0 30.667 4.5 60 13.5 88s24 56.333 45 85s40.167 52.834 57.5 72.501s42.666 46.5 75.999 80.5l132 134h-297v44h362v-42z" />
    <glyph glyph-name="eta" unicode="&#x3b7;" horiz-adv-x="563" 
d="M81 504h44.999v-79c16 27.333 39.833 48.833 71.5 64.5s65.5 23.5 101.5 23.5c52.667 0 97.167 -16.5 133.5 -49.5s54.5 -81.167 54.5 -144.5v-510h-47v503c0 52 -13.667 91.167 -41 117.5s-62.666 39.5 -105.999 39.5c-44 0 -82.5 -14 -115.5 -42s-49.5 -69 -49.5 -123
v-304h-47v504z" />
    <glyph glyph-name="theta" unicode="&#x3b8;" horiz-adv-x="601" 
d="M301 732c78 0 136.5 -33.167 175.5 -99.5s58.5 -156.5 58.5 -270.5s-19.5 -204.333 -58.5 -271s-97.5 -100 -175.5 -100c-78.667 0 -137.5 33.167 -176.5 99.5s-58.5 156.833 -58.5 271.5c0 114 19.5 204.167 58.5 270.5s97.833 99.5 176.5 99.5zM301 35
c62.667 0 109 28 139 84s45.667 133 47 231h-373c1.33301 -98 17 -175 47 -231s76.667 -84 140 -84zM301 688c-61.333 0 -107.167 -26.167 -137.5 -78.5s-46.833 -124.5 -49.5 -216.5h373c-3.33301 92 -20 164.167 -50 216.5s-75.333 78.5 -136 78.5z" />
    <glyph glyph-name="iota" unicode="&#x3b9;" horiz-adv-x="272" 
d="M128 144c0 -36.667 7.5 -62.667 22.5 -78s37.167 -23 66.5 -23h23v-43h-29c-86.667 -0 -130 47.333 -130 142v362h47v-360z" />
    <glyph glyph-name="kappa" unicode="&#x3ba;" horiz-adv-x="484" 
d="M128 0h-47v504h47v-223l266 223h65l-280 -236l286 -268h-65l-272 253v-253z" />
    <glyph glyph-name="lambda" unicode="&#x3bb;" horiz-adv-x="506" 
d="M88 722c39.333 0 69.5 -9.83301 90.5 -29.5s41.833 -54.167 62.5 -103.5l244 -589h-52l-180 438l-181 -438h-51l206 497l-31 76c-16 38.667 -32 66 -48 82s-37.333 24 -64 24h-16v43h20z" />
    <glyph glyph-name="uni03BC" unicode="&#x3bc;" horiz-adv-x="570" 
d="M442 504l47.001 -0.000976562v-504h-45v78c-16.667 -27.333 -40.834 -48.666 -72.501 -63.999s-65.5 -23 -101.5 -23c-58.667 0 -106 20.333 -142 61v-243h-47v695h47v-312c0 -52 13.833 -91.167 41.5 -117.5s63.167 -39.5 106.5 -39.5c44.667 0 83.5 14 116.5 42
s49.5 69 49.5 123v304z" />
    <glyph glyph-name="nu" unicode="&#x3bd;" horiz-adv-x="500" 
d="M479 504l-205 -504h-49l-204 504h51l177 -444l179 444h51z" />
    <glyph glyph-name="xi" unicode="&#x3be;" horiz-adv-x="482" 
d="M67 722l382.002 -0.00195312v-43h-151c-46.667 0 -84.834 -13.5 -114.501 -40.5s-44.5 -60.167 -44.5 -99.5s13.5 -70.833 40.5 -94.5s65.5 -35.5 115.5 -35.5h118v-43h-127c-57.333 0 -102.833 -15.167 -136.5 -45.5s-50.5 -68.833 -50.5 -115.5
c0 -47.333 16.5 -83.166 49.5 -107.499s79.5 -41.166 139.5 -50.499l39 -6c49.333 -8 83.666 -21 102.999 -39s29 -47.667 29 -89v-39h-45v33c0 28.667 -6 49.334 -18 62.001s-36 21.667 -72 27l-40 6c-155.333 24 -233 91.667 -233 203c0 49.333 14.833 90 44.5 122
s61.5 52.667 95.5 62c-27.333 12 -50.833 30.167 -70.5 54.5s-29.5 55.166 -29.5 92.499c0 31.333 8.16699 59.5 24.5 84.5s36.833 44.5 61.5 58.5h-110v43z" />
    <glyph glyph-name="omicron" unicode="&#x3bf;" horiz-adv-x="568" 
d="M284 513c69.333 0 125.5 -24.167 168.5 -72.5s64.5 -111.166 64.5 -188.499s-21.5 -140.166 -64.5 -188.499s-99.167 -72.5 -168.5 -72.5s-125.5 24.167 -168.5 72.5s-64.5 111.166 -64.5 188.499s21.5 140.166 64.5 188.499s99.167 72.5 168.5 72.5zM284 35
c55.333 0 100 19.833 134 59.5s51 92.167 51 157.5s-17 117.833 -51 157.5s-78.667 59.5 -134 59.5s-100 -19.833 -134 -59.5s-51 -92.167 -51 -157.5s17 -117.833 51 -157.5s78.667 -59.5 134 -59.5z" />
    <glyph glyph-name="pi" unicode="&#x3c0;" horiz-adv-x="603" 
d="M166 0h-47v460h-91v44h547v-44h-91v-460h-47v460h-271v-460z" />
    <glyph glyph-name="rho" unicode="&#x3c1;" horiz-adv-x="576" 
d="M296 513c65.333 0 119.833 -23.168 163.5 -69.501s65.5 -110.166 65.5 -191.499c0 -80 -21.667 -143.5 -65 -190.5s-96.666 -70.5 -159.999 -70.5c-40.667 0 -76.834 9 -108.501 27s-56.5 42.667 -74.5 74v-283h-47v451c0 78.667 21.5 140.5 64.5 185.5
s96.833 67.5 161.5 67.5zM297 34.999c54 0 97.5 19.833 130.5 59.5s49.5 92.167 49.5 157.5s-16.667 117.833 -50 157.5s-77 59.5 -131 59.5c-53.333 0 -96.833 -19.167 -130.5 -57.5s-50.5 -88.833 -50.5 -151.5v-16c0 -61.333 16.833 -111.5 50.5 -150.5
s77.5 -58.5 131.5 -58.5z" />
    <glyph glyph-name="sigmafinal" unicode="&#x3c2;" horiz-adv-x="536" 
d="M325 41c49.333 -8 83.668 -21.002 103.001 -39.002s29 -47.667 29 -89v-39h-45v33c0 28.667 -5.83301 49.334 -17.5 62.001s-35.5 21.667 -71.5 27l-34 5c-158.667 24 -238 108 -238 252c0 78.667 21.667 141.667 65 189s98.333 71 165 71
c56 0 102.5 -15.833 139.5 -47.5s60.167 -70.5 69.5 -116.5h-47c-10 34 -28.833 62.5 -56.5 85.5s-62.834 34.5 -105.501 34.5c-52.667 0 -96.167 -19.667 -130.5 -59s-51.5 -91.666 -51.5 -156.999s16.833 -113.5 50.5 -144.5s80.5 -51.5 140.5 -61.5z" />
    <glyph glyph-name="sigma" unicode="&#x3c3;" horiz-adv-x="587" 
d="M545 504v-43h-134c32 -20.667 57.5 -49.5 76.5 -86.5s28.5 -79.5 28.5 -127.5c0 -75.333 -21.333 -136.833 -64 -184.5s-98.667 -71.5 -168 -71.5s-125.5 24 -168.5 72s-64.5 109.667 -64.5 185s21.5 136.833 64.5 184.5s99.5 71.5 169.5 71.5h260zM468 248
c0 63.333 -16.833 114.5 -50.5 153.5s-77.834 58.5 -132.501 58.5c-55.333 0 -100.166 -19.5 -134.499 -58.5s-51.5 -90.167 -51.5 -153.5s17.167 -114.666 51.5 -153.999s78.833 -59 133.5 -59s99 19.667 133 59s51 90.666 51 153.999z" />
    <glyph glyph-name="tau" unicode="&#x3c4;" horiz-adv-x="480" 
d="M28 461v43h416v-43h-190v-317c0 -36.667 7.5 -62.667 22.5 -78s37.167 -23 66.5 -23h24v-43h-30c-86.667 -0 -130 47.333 -130 142v319h-179z" />
    <glyph glyph-name="upsilon" unicode="&#x3c5;" horiz-adv-x="557" 
d="M434 504h47v-313c0 -64 -19.5 -113.333 -58.5 -148s-86.833 -52 -143.5 -52s-104.667 17.333 -144 52s-59 84 -59 148v313h47v-310c0 -52 15 -91.5 45 -118.5s67 -40.5 111 -40.5s80.833 13.5 110.5 40.5s44.5 66.5 44.5 118.5v310z" />
    <glyph glyph-name="phi" unicode="&#x3c6;" horiz-adv-x="704" 
d="M375 512c85.333 -2 153 -27 203 -75s75 -109.667 75 -185c0 -74.667 -25 -136.167 -75 -184.5s-117.667 -73.5 -203 -75.5v-183h-46v183c-85.333 2 -153 27 -203 75s-75 109.667 -75 185s25 137 75 185s117.667 73 203 75v192h46v-192zM329 36v431.998
c-71.333 -1.33301 -127.5 -21.666 -168.5 -60.999s-61.5 -91 -61.5 -155s20.5 -115.667 61.5 -155s97.167 -59.666 168.5 -60.999zM605 251.998c0 63.333 -20.667 114.833 -62 154.5s-97.333 60.167 -168 61.5v-432c70.667 1.33301 126.667 21.833 168 61.5
s62 91.167 62 154.5z" />
    <glyph glyph-name="chi" unicode="&#x3c7;" horiz-adv-x="507" 
d="M433 -191l-181 310l-179 -310h-52l204 350l-202 345h53l178 -305l178 305h52l-202 -346l204 -349h-53z" />
    <glyph glyph-name="psi" unicode="&#x3c8;" horiz-adv-x="690" 
d="M570 504h47v-263c0 -76 -21.333 -135.5 -64 -178.5s-104.334 -66.167 -185.001 -69.5v-184h-46v184c-81.333 3.33301 -143.166 26.5 -185.499 69.5s-63.5 102.5 -63.5 178.5v263h47v-261c0 -64.667 17 -114.667 51 -150s84.333 -54.333 151 -57v627h46v-627
c66.667 2.66699 117 21.667 151 57s51 85.333 51 150v261z" />
    <glyph glyph-name="omega" unicode="&#x3c9;" horiz-adv-x="756" 
d="M487 513c59.333 0 109.832 -24.166 151.499 -72.499s62.5 -111.166 62.5 -188.499c0 -79.333 -17.667 -142.666 -53 -189.999s-80.333 -71 -135 -71c-33.333 0 -61.333 8.66699 -84 26s-39.667 40.333 -51 69c-11.333 -28.667 -28.666 -51.667 -51.999 -69
s-51 -26 -83 -26c-54.667 0 -99.667 23.5 -135 70.5s-53 110.5 -53 190.5c0 77.333 20.833 140.166 62.5 188.499s92.167 72.5 151.5 72.5v-44c-45.333 0 -84.333 -20 -117 -60s-49 -92.333 -49 -157c0 -66.667 13.333 -119.5 40 -158.5s60.667 -58.5 102 -58.5
c36.667 0 64 13.667 82 41s27 61.666 27 102.999v160h47v-160c0 -40.667 9.16699 -74.834 27.5 -102.501s45.833 -41.5 82.5 -41.5c41.333 0 75.333 19.5 102 58.5s40 91.833 40 158.5c0 64.667 -16.5 117 -49.5 157s-71.833 60 -116.5 60v44z" />
    <glyph glyph-name="iotadieresis" unicode="&#x3ca;" horiz-adv-x="272" 
d="M128 144c0 -36.667 7.5 -62.667 22.5 -78s37.167 -23 66.5 -23h23v-43h-29c-86.667 -0 -130 47.333 -130 142v362h47v-360zM17 695c11.333 0 20.833 -3.83301 28.5 -11.5s11.5 -17.167 11.5 -28.5s-3.83301 -20.833 -11.5 -28.5s-17.167 -11.5 -28.5 -11.5
s-20.833 3.83301 -28.5 11.5s-11.5 17.167 -11.5 28.5s3.83301 20.833 11.5 28.5s17.167 11.5 28.5 11.5zM193 695c11.333 0 20.833 -3.83301 28.5 -11.5s11.5 -17.167 11.5 -28.5s-3.83301 -20.833 -11.5 -28.5s-17.167 -11.5 -28.5 -11.5s-20.833 3.83301 -28.5 11.5
s-11.5 17.167 -11.5 28.5s3.83301 20.833 11.5 28.5s17.167 11.5 28.5 11.5z" />
    <glyph glyph-name="upsilondieresis" unicode="&#x3cb;" horiz-adv-x="557" 
d="M434 504h47v-313c0 -64 -19.5 -113.333 -58.5 -148s-86.833 -52 -143.5 -52s-104.667 17.333 -144 52s-59 84 -59 148v313h47v-310c0 -52 15 -91.5 45 -118.5s67 -40.5 111 -40.5s80.833 13.5 110.5 40.5s44.5 66.5 44.5 118.5v310zM184 695
c11.333 0 20.833 -3.83301 28.5 -11.5s11.5 -17.167 11.5 -28.5s-3.83301 -20.833 -11.5 -28.5s-17.167 -11.5 -28.5 -11.5s-20.833 3.83301 -28.5 11.5s-11.5 17.167 -11.5 28.5s3.83301 20.833 11.5 28.5s17.167 11.5 28.5 11.5zM374 695
c11.333 0 20.833 -3.83301 28.5 -11.5s11.5 -17.167 11.5 -28.5s-3.83301 -20.833 -11.5 -28.5s-17.167 -11.5 -28.5 -11.5s-20.833 3.83301 -28.5 11.5s-11.5 17.167 -11.5 28.5s3.83301 20.833 11.5 28.5s17.167 11.5 28.5 11.5z" />
    <glyph glyph-name="omicrontonos" unicode="&#x3cc;" horiz-adv-x="568" 
d="M284 513c69.333 0 125.5 -24.167 168.5 -72.5s64.5 -111.166 64.5 -188.499s-21.5 -140.166 -64.5 -188.499s-99.167 -72.5 -168.5 -72.5s-125.5 24.167 -168.5 72.5s-64.5 111.166 -64.5 188.499s21.5 140.166 64.5 188.499s99.167 72.5 168.5 72.5zM284 35
c55.333 0 100 19.833 134 59.5s51 92.167 51 157.5s-17 117.833 -51 157.5s-78.667 59.5 -134 59.5s-100 -19.833 -134 -59.5s-51 -92.167 -51 -157.5s17 -117.833 51 -157.5s78.667 -59.5 134 -59.5zM402 727l-95 -142h-51l92 142h54z" />
    <glyph glyph-name="upsilontonos" unicode="&#x3cd;" horiz-adv-x="557" 
d="M434 504h47v-313c0 -64 -19.5 -113.333 -58.5 -148s-86.833 -52 -143.5 -52s-104.667 17.333 -144 52s-59 84 -59 148v313h47v-310c0 -52 15 -91.5 45 -118.5s67 -40.5 111 -40.5s80.833 13.5 110.5 40.5s44.5 66.5 44.5 118.5v310zM397 727l-95 -142h-51l92 142h54z" />
    <glyph glyph-name="omegatonos" unicode="&#x3ce;" horiz-adv-x="756" 
d="M487 513c59.333 0 109.832 -24.166 151.499 -72.499s62.5 -111.166 62.5 -188.499c0 -79.333 -17.667 -142.666 -53 -189.999s-80.333 -71 -135 -71c-33.333 0 -61.333 8.66699 -84 26s-39.667 40.333 -51 69c-11.333 -28.667 -28.666 -51.667 -51.999 -69
s-51 -26 -83 -26c-54.667 0 -99.667 23.5 -135 70.5s-53 110.5 -53 190.5c0 77.333 20.833 140.166 62.5 188.499s92.167 72.5 151.5 72.5v-44c-45.333 0 -84.333 -20 -117 -60s-49 -92.333 -49 -157c0 -66.667 13.333 -119.5 40 -158.5s60.667 -58.5 102 -58.5
c36.667 0 64 13.667 82 41s27 61.666 27 102.999v160h47v-160c0 -40.667 9.16699 -74.834 27.5 -102.501s45.833 -41.5 82.5 -41.5c41.333 0 75.333 19.5 102 58.5s40 91.833 40 158.5c0 64.667 -16.5 117 -49.5 157s-71.833 60 -116.5 60v44zM495.999 727.001l-95 -142h-51
l92 142h54z" />
    <glyph glyph-name="uni0400" unicode="&#x400;" horiz-adv-x="583" 
d="M520 658h-379v-273h360v-45h-360v-294h379v-46h-428v704h428v-46zM191 919h54l92 -142h-51z" />
    <glyph glyph-name="uni0401" unicode="&#x401;" horiz-adv-x="583" 
d="M520 658h-379v-273h360v-45h-360v-294h379v-46h-428v704h428v-46zM210 887c11.333 0 20.833 -3.83301 28.5 -11.5s11.5 -17.167 11.5 -28.5s-3.83301 -20.833 -11.5 -28.5s-17.167 -11.5 -28.5 -11.5s-20.833 3.83301 -28.5 11.5s-11.5 17.167 -11.5 28.5
s3.83301 20.833 11.5 28.5s17.167 11.5 28.5 11.5zM408 887c11.333 0 20.833 -3.83301 28.5 -11.5s11.5 -17.167 11.5 -28.5s-3.83301 -20.833 -11.5 -28.5s-17.167 -11.5 -28.5 -11.5s-20.833 3.83301 -28.5 11.5s-11.5 17.167 -11.5 28.5s3.83301 20.833 11.5 28.5
s17.167 11.5 28.5 11.5z" />
    <glyph glyph-name="uni0402" unicode="&#x402;" horiz-adv-x="802" 
d="M522 430c66 0 120.167 -19.499 162.5 -58.499s63.5 -92.167 63.5 -159.5c0 -64.667 -20.333 -116.334 -61 -155.001s-94 -58 -160 -58h-25v46h22c50.667 0 92.334 14.667 125.001 44s49 70.333 49 123c0 54.667 -16.833 97 -50.5 127s-77.5 45 -131.5 45
c-36.667 0 -71.5 -6.33301 -104.5 -19s-60.5 -28.667 -82.5 -48v-317h-49v658h-243v46h536v-46h-244v-291c51.333 42 115.666 63 192.999 63z" />
    <glyph glyph-name="uni0403" unicode="&#x403;" horiz-adv-x="550" 
d="M513 658h-372v-658h-49v704h421v-46zM424 919l-95 -142h-51l92 142h54z" />
    <glyph glyph-name="uni0404" unicode="&#x404;" horiz-adv-x="702" 
d="M599 209h49.9961c-11.333 -59.333 -41.166 -110.5 -89.499 -153.5s-111.833 -64.5 -190.5 -64.5c-89.333 0 -163.5 32.5 -222.5 97.5s-88.5 152.833 -88.5 263.5c0 109.333 28.833 196.833 86.5 262.5s132.167 98.5 223.5 98.5c74 0 135.833 -20.833 185.5 -62.5
s80.834 -92.834 93.501 -153.501h-50c-14 48 -40.333 88.167 -79 120.5s-88.667 48.5 -150 48.5c-72.667 0 -132.667 -25 -180 -75s-73.666 -118.333 -78.999 -205h325v-47h-326c2 -93.333 27.333 -166.833 76 -220.5s110 -80.5 184 -80.5
c64.667 0 116.834 16.833 156.501 50.5s64.5 73.834 74.5 120.501z" />
    <glyph glyph-name="uni0405" unicode="&#x405;" horiz-adv-x="613" 
d="M55 180h48.999c10.667 -44.667 34.667 -79.667 72 -105s85 -38 143 -38c54.667 0 99.834 13.5 135.501 40.5s53.5 63.5 53.5 109.5c0 75.333 -46 121 -138 137l-138 23c-52 8.66699 -92.333 27.334 -121 56.001s-43 66.334 -43 113.001c0 60 22.833 107.833 68.5 143.5
s100.167 53.5 163.5 53.5c62.667 0 116.667 -15.833 162 -47.5s73 -76.834 83 -135.501h-49c-10.667 45.333 -33.5 79.5 -68.5 102.5s-77.5 34.5 -127.5 34.5c-49.333 0 -92 -13 -128 -39s-54 -62.333 -54 -109c0 -68 41.333 -109.333 124 -124l139 -24
c54.667 -9.33301 97.834 -29 129.501 -59s47.5 -70.667 47.5 -122c0 -60.667 -22.833 -109 -68.5 -145s-102.834 -54 -171.501 -54c-70.667 0 -129.667 16.167 -177 48.5s-76 79.166 -86 140.499z" />
    <glyph glyph-name="uni0406" unicode="&#x406;" horiz-adv-x="233" 
d="M141 704v-704h-49v704h49z" />
    <glyph glyph-name="uni0407" unicode="&#x407;" horiz-adv-x="233" 
d="M141 704v-704h-49v704h49zM22 887c11.333 0 20.833 -3.83301 28.5 -11.5s11.5 -17.167 11.5 -28.5s-3.83301 -20.833 -11.5 -28.5s-17.167 -11.5 -28.5 -11.5s-20.833 3.83301 -28.5 11.5s-11.5 17.167 -11.5 28.5s3.83301 20.833 11.5 28.5s17.167 11.5 28.5 11.5z
M212 887c11.333 0 20.833 -3.83301 28.5 -11.5s11.5 -17.167 11.5 -28.5s-3.83301 -20.833 -11.5 -28.5s-17.167 -11.5 -28.5 -11.5s-20.833 3.83301 -28.5 11.5s-11.5 17.167 -11.5 28.5s3.83301 20.833 11.5 28.5s17.167 11.5 28.5 11.5z" />
    <glyph glyph-name="uni0408" unicode="&#x408;" horiz-adv-x="526" 
d="M35 171l47.999 0.00195312c6 -40 22.167 -72.167 48.5 -96.5s60.833 -36.5 103.5 -36.5c49.333 0 87.166 16 113.499 48s39.5 76.667 39.5 134v484h49v-485c0 -72.667 -17.833 -128.834 -53.5 -168.501s-85.167 -59.5 -148.5 -59.5
c-57.333 0 -103.666 16.667 -138.999 50s-55.666 76.666 -60.999 129.999z" />
    <glyph glyph-name="uni0409" unicode="&#x409;" horiz-adv-x="1048" 
d="M766 428c70 0 125.668 -19.667 167.001 -59s62 -90.666 62 -153.999c0 -62.667 -20.833 -114.167 -62.5 -154.5s-96.5 -60.5 -164.5 -60.5h-229v658h-312l-30 -447c-4.66699 -70.667 -20.334 -123.667 -47.001 -159s-68.667 -53 -126 -53h-17v47h12
c42.667 0 74 13.167 94 39.5s32 69.166 36 128.499l34 490h405v-276h178zM761.001 382h-173v-336h174c56 0 100.5 15.333 133.5 46s49.5 71.667 49.5 123s-16.5 92 -49.5 122s-77.833 45 -134.5 45z" />
    <glyph glyph-name="uni040A" unicode="&#x40a;" horiz-adv-x="1070" 
d="M141 0h-49v704h49v-298h431v298h49v-297h173c67.333 0 121.333 -18.667 162 -56s61 -86.333 61 -147c0 -60 -20.333 -109 -61 -147s-94 -57 -160 -57h-224v360h-431v-360zM789 361h-168v-315h169c54 0 97.167 14.333 129.5 43s48.5 67 48.5 115
c0 48.667 -16.167 87 -48.5 115s-75.833 42 -130.5 42z" />
    <glyph glyph-name="uni040B" unicode="&#x40b;" horiz-adv-x="818" 
d="M37 658v45.999h536v-46h-244v-291c51.333 42 115 63 191 63c68 0 121.833 -19.833 161.5 -59.5s59.5 -99.167 59.5 -178.5v-192h-49v192c0 64.667 -15.833 112.834 -47.5 144.501s-75.5 47.5 -131.5 47.5c-74.667 0 -136 -22.333 -184 -67v-317h-49v658h-243z" />
    <glyph glyph-name="uni040C" unicode="&#x40c;" horiz-adv-x="602" 
d="M141 0h-49v704h49v-322l364 322h69l-381 -338l391 -366h-71l-372 347v-347zM431 919l-95 -142h-51l92 142h54z" />
    <glyph glyph-name="uni040D" unicode="&#x40d;" horiz-adv-x="717" 
d="M625 704v-704h-49v624l-435 -624h-49v704h49v-625l435 625h49zM241 919h54l92 -142h-51z" />
    <glyph glyph-name="uni040E" unicode="&#x40e;" horiz-adv-x="630" 
d="M26 704h54l245 -464l226 464h53l-345 -704h-54l94 189zM216 919c0 -30.667 9.5 -55.667 28.5 -75s43.5 -29 73.5 -29s54.5 9.66699 73.5 29s28.5 44.333 28.5 75h44c-0.666992 -43.333 -14.5 -78.166 -41.5 -104.499s-61.833 -39.5 -104.5 -39.5
c-42 0 -76.667 13.167 -104 39.5s-41.333 61.166 -42 104.499h44z" />
    <glyph glyph-name="uni040F" unicode="&#x40f;" horiz-adv-x="711" 
d="M92 0v704h49v-657h429v657h49v-704h-239v-147h-48v147h-240z" />
    <glyph glyph-name="uni0410" unicode="&#x410;" horiz-adv-x="648" 
d="M299 704h50l273 -704h-53l-81 211h-329l-80 -211h-53zM323 642l-147 -386h295z" />
    <glyph glyph-name="uni0411" unicode="&#x411;" horiz-adv-x="603" 
d="M506 658h-365.001v-245h183c68.667 0 123.334 -18.667 164.001 -56s61 -87 61 -149s-20.5 -112.167 -61.5 -150.5s-95.167 -57.5 -162.5 -57.5h-233v704h414v-46zM318.999 367l-178 0.000976562v-321h178c55.333 0 99.166 14.5 131.499 43.5s48.5 68.5 48.5 118.5
c0 49.333 -16.167 88.166 -48.5 116.499s-76.166 42.5 -131.499 42.5z" />
    <glyph glyph-name="uni0412" unicode="&#x412;" horiz-adv-x="625" 
d="M92 0v703.997h238c67.333 0 119.5 -16 156.5 -48s55.5 -74.667 55.5 -128c0 -42 -10.5 -77.167 -31.5 -105.5s-45.5 -47.166 -73.5 -56.499c34 -7.33301 64.667 -25.666 92 -54.999s41 -68.666 41 -117.999c0 -58.667 -20 -105.5 -60 -140.5s-94.667 -52.5 -164 -52.5
h-254zM343 340.997l-201.999 0.000976562v-296h202c55.333 0 98.666 13.333 129.999 40s47 63 47 109c0 45.333 -15.5 81.166 -46.5 107.499s-74.5 39.5 -130.5 39.5zM324.001 658.998l-183 -0.000976562v-274h196c52 0 90.833 13 116.5 39s38.5 59.333 38.5 100
c0 42.667 -14.5 75.834 -43.5 99.501s-70.5 35.5 -124.5 35.5z" />
    <glyph glyph-name="uni0413" unicode="&#x413;" horiz-adv-x="550" 
d="M513 658h-372v-658h-49v704h421v-46z" />
    <glyph glyph-name="uni0414" unicode="&#x414;" horiz-adv-x="713" 
d="M680 47l-0.000976562 -181h-48v134h-577v-134h-48v181h51c28.667 22.667 49.834 54.167 63.501 94.5s23.5 103.5 29.5 189.5l25 373h419v-657h85zM198.999 331c-6 -86.667 -15 -149.833 -27 -189.5s-30 -71.167 -54 -94.5h428v611h-326z" />
    <glyph glyph-name="uni0415" unicode="&#x415;" horiz-adv-x="583" 
d="M520 658h-379v-273h360v-45h-360v-294h379v-46h-428v704h428v-46z" />
    <glyph glyph-name="uni0416" unicode="&#x416;" horiz-adv-x="892" 
d="M421 0v350l-338 -350h-64l349 365l-342 339h66l329 -325v325h49v-325l329 325h66l-342 -338l350 -366h-65l-338 350v-350h-49z" />
    <glyph glyph-name="uni0417" unicode="&#x417;" horiz-adv-x="594" 
d="M57 528c8.66699 59.333 35.167 104.999 79.5 136.999s96.833 48 157.5 48c66 0 119 -17.833 159 -53.5s60 -80.167 60 -133.5c0 -38 -10.333 -70.667 -31 -98s-47.334 -47.666 -80.001 -60.999c36.667 -9.33301 68.667 -28.5 96 -57.5s41 -67.833 41 -116.5
c0 -56.667 -21.333 -104.5 -64 -143.5s-100 -58.5 -172 -58.5s-130.333 17.167 -175 51.5s-71 81.5 -79 141.5h48c8.66699 -44.667 30.5 -80.334 65.5 -107.001s81.833 -40 140.5 -40c58 0 103.5 15 136.5 45s49.5 67.333 49.5 112c0 46 -16.5 82 -49.5 108
s-78.167 39 -135.5 39h-104v45h101c52.667 0 92.834 13.333 120.501 40s41.5 59.334 41.5 98.001c0 42 -15.5 76.333 -46.5 103s-71.833 40 -122.5 40c-49.333 0 -91 -12 -125 -36s-55.333 -58.333 -64 -103h-48z" />
    <glyph glyph-name="uni0418" unicode="&#x418;" horiz-adv-x="717" 
d="M625 704v-704h-49v624l-435 -624h-49v704h49v-625l435 625h49z" />
    <glyph glyph-name="uni0419" unicode="&#x419;" horiz-adv-x="717" 
d="M625 704v-704h-49v624l-435 -624h-49v704h49v-625l435 625h49zM257 919c0 -30.667 9.5 -55.667 28.5 -75s43.5 -29 73.5 -29s54.5 9.66699 73.5 29s28.5 44.333 28.5 75h44c-0.666992 -43.333 -14.5 -78.166 -41.5 -104.499s-61.833 -39.5 -104.5 -39.5
c-42 0 -76.667 13.167 -104 39.5s-41.333 61.166 -42 104.499h44z" />
    <glyph glyph-name="uni041A" unicode="&#x41a;" horiz-adv-x="602" 
d="M141 0h-49v704h49v-322l364 322h69l-381 -338l391 -366h-71l-372 347v-347z" />
    <glyph glyph-name="uni041B" unicode="&#x41b;" horiz-adv-x="680" 
d="M7 -1l0.000976562 47.001h12c42.667 0 74 13.167 94 39.5s32 69.166 36 128.499l34 490h405v-704h-49v658h-312l-30 -447c-4.66699 -70.667 -20.334 -123.667 -47.001 -159s-68.667 -53 -126 -53h-17z" />
    <glyph glyph-name="uni041C" unicode="&#x41c;" horiz-adv-x="866" 
d="M92 704h56l285 -639l286 639h55v-704h-48v607l-271 -607h-44l-271 607v-607h-48v704z" />
    <glyph glyph-name="uni041D" unicode="&#x41d;" horiz-adv-x="714" 
d="M141 0h-49v704h49v-318h432v318h49v-704h-49v339h-432v-339z" />
    <glyph glyph-name="uni041E" unicode="&#x41e;" horiz-adv-x="744" 
d="M372 713c94 0 169.833 -33.5 227.5 -100.5s86.5 -153.833 86.5 -260.5s-28.833 -193.5 -86.5 -260.5s-133.5 -100.5 -227.5 -100.5s-169.833 33.5 -227.5 100.5s-86.5 153.833 -86.5 260.5s28.833 193.5 86.5 260.5s133.5 100.5 227.5 100.5zM372 38
c80 0 144 28.667 192 86s72 133.333 72 228s-24 170.667 -72 228s-112 86 -192 86s-144 -28.667 -192 -86s-72 -133.333 -72 -228s24 -170.667 72 -228s112 -86 192 -86z" />
    <glyph glyph-name="uni041F" unicode="&#x41f;" horiz-adv-x="711" 
d="M92 704h527v-704h-49v657h-429v-657h-49v704z" />
    <glyph glyph-name="uni0420" unicode="&#x420;" horiz-adv-x="602" 
d="M320 704c69.333 0 124.833 -19.834 166.5 -59.501s62.5 -91.167 62.5 -154.5s-20.833 -115.166 -62.5 -155.499s-96.5 -60.5 -164.5 -60.5h-181v-274h-49v704h228zM315 657.999l-174 0.000976562v-338h175c56 0 100.5 15.333 133.5 46s49.5 72 49.5 124
c0 51.333 -16.5 92.166 -49.5 122.499s-77.833 45.5 -134.5 45.5z" />
    <glyph glyph-name="uni0421" unicode="&#x421;" horiz-adv-x="702" 
d="M599 213h50.001c-10 -60 -39.333 -112 -88 -156s-113.334 -66 -194.001 -66c-89.333 0 -163.166 32.833 -221.499 98.5s-87.5 153.167 -87.5 262.5c0 107.333 28.667 194.333 86 261s131.333 100 222 100c76 0 139 -21.167 189 -63.5s80.667 -94.5 92 -156.5h-50
c-12 49.333 -37.833 90.5 -77.5 123.5s-90.834 49.5 -153.501 49.5c-77.333 0 -139.666 -28.667 -186.999 -86s-71 -133.333 -71 -228c0 -96 24.333 -172.333 73 -229s110.667 -85 186 -85c65.333 0 118.166 17.167 158.499 51.5s64.833 75.5 73.5 123.5z" />
    <glyph glyph-name="uni0422" unicode="&#x422;" horiz-adv-x="615" 
d="M34 658v46h547v-46h-249v-658h-49v658h-249z" />
    <glyph glyph-name="uni0423" unicode="&#x423;" horiz-adv-x="630" 
d="M26 704h54l245 -464l226 464h53l-345 -704h-54l94 189z" />
    <glyph glyph-name="uni0424" unicode="&#x424;" horiz-adv-x="812" 
d="M430 650c93.333 -1.33301 171.5 -28 234.5 -80s94.5 -123.333 94.5 -214s-31.667 -162 -95 -214s-141.333 -78.333 -234 -79v-74h-48v74c-93.333 0.666992 -171.5 27 -234.5 79s-94.5 123.333 -94.5 214s31.333 162 94 214s141 78.667 235 80v74h48v-74zM382 108v497
c-81.333 -0.666992 -148.333 -23.167 -201 -67.5s-79 -104.833 -79 -181.5s26.333 -137 79 -181s119.667 -66.333 201 -67zM430 108c80.667 0.666992 147.5 23 200.5 67s79.5 104.333 79.5 181s-26.5 137.167 -79.5 181.5s-119.833 66.833 -200.5 67.5v-497z" />
    <glyph glyph-name="uni0425" unicode="&#x425;" horiz-adv-x="642" 
d="M549 0l-229 316l-227 -316h-59l254 352l-252 352h59l226 -314l227 314h58l-252 -352l254 -352h-59z" />
    <glyph glyph-name="uni0426" unicode="&#x426;" horiz-adv-x="734" 
d="M701 47v-181h-48v134h-561v704h49v-657h426v657h49v-657h85z" />
    <glyph glyph-name="uni0427" unicode="&#x427;" horiz-adv-x="644" 
d="M503 704l49.001 0.000976562v-704h-49v336c-51.333 -38 -114 -57 -188 -57s-134.167 21.167 -180.5 63.5s-69.5 104.166 -69.5 185.499v176h49v-175c0 -67.333 18.667 -118 56 -152s86.666 -51 147.999 -51c73.333 0 135 19.667 185 59v319z" />
    <glyph glyph-name="uni0428" unicode="&#x428;" horiz-adv-x="969" 
d="M509 704v-657h319v657h49v-704h-785v704h49v-657h319v657h49z" />
    <glyph glyph-name="uni0429" unicode="&#x429;" horiz-adv-x="995" 
d="M962 47v-181h-48v134h-822v704h49v-657h319v657h49v-657h319v657h49v-657h85z" />
    <glyph glyph-name="uni042A" unicode="&#x42a;" horiz-adv-x="708" 
d="M426 428c70 0 125.667 -19.668 167 -59.001s62 -90.666 62 -153.999c0 -62.667 -20.833 -114.167 -62.5 -154.5s-96.5 -60.5 -164.5 -60.5h-229v658h-165v46h214v-276h178zM421 381.999h-173v-336h174c56 0 100.5 15.333 133.5 46s49.5 71.667 49.5 123
s-16.5 92 -49.5 122s-77.833 45 -134.5 45z" />
    <glyph glyph-name="uni042B" unicode="&#x42b;" horiz-adv-x="799" 
d="M319 428c70 0 125.667 -19.668 167 -59.001s62 -90.666 62 -153.999c0 -62.667 -20.833 -114.167 -62.5 -154.5s-96.5 -60.5 -164.5 -60.5h-229v704h49v-276h178zM314 381.999h-173v-336h174c56 0 100.5 15.333 133.5 46s49.5 71.667 49.5 123s-16.5 92 -49.5 122
s-77.833 45 -134.5 45zM707 703.999v-704h-49v704h49z" />
    <glyph glyph-name="uni042C" unicode="&#x42c;" horiz-adv-x="601" 
d="M319 428c70 0 125.667 -19.668 167 -59.001s62 -90.666 62 -153.999c0 -62.667 -20.833 -114.167 -62.5 -154.5s-96.5 -60.5 -164.5 -60.5h-229v704h49v-276h178zM314 381.999h-173v-336h174c56 0 100.5 15.333 133.5 46s49.5 71.667 49.5 123s-16.5 92 -49.5 122
s-77.833 45 -134.5 45z" />
    <glyph glyph-name="uni042D" unicode="&#x42d;" horiz-adv-x="702" 
d="M268 339v47h324c-5.33301 86.667 -31.5 155 -78.5 205s-106.5 75 -178.5 75c-61.333 0 -111.333 -16.167 -150 -48.5s-65 -72.5 -79 -120.5h-50c13.333 60.667 44.666 111.834 93.999 153.501s111 62.5 185 62.5c91.333 0 165.666 -32.833 222.999 -98.5
s86 -153.167 86 -262.5c0 -110.667 -29.5 -198.5 -88.5 -263.5s-133.167 -97.5 -222.5 -97.5c-78.667 0 -142.167 21.5 -190.5 64.5s-78.166 94.167 -89.499 153.5h50c10 -46.667 34.833 -86.834 74.5 -120.501s91.834 -50.5 156.501 -50.5c74 0 135.333 26.833 184 80.5
s74 127.167 76 220.5h-326z" />
    <glyph glyph-name="uni042E" unicode="&#x42e;" horiz-adv-x="947" 
d="M141 0l-49 0.000976562v704h49v-318h132c6 98 36.833 177 92.5 237s127.5 90 215.5 90c92.667 0 167.167 -33.5 223.5 -100.5s84.5 -153.833 84.5 -260.5s-28.167 -193.5 -84.5 -260.5s-130.833 -100.5 -223.5 -100.5c-90.667 0 -164.167 32.167 -220.5 96.5
s-85.833 148.166 -88.5 251.499h-131v-339zM581 38.001c78.667 0 141.334 28.667 188.001 86s70 133.333 70 228s-23.333 170.667 -70 228s-109.334 86 -188.001 86c-79.333 0 -142.333 -28.667 -189 -86s-70 -133.333 -70 -228s23.333 -170.667 70 -228
s109.667 -86 189 -86z" />
    <glyph glyph-name="uni042F" unicode="&#x42f;" horiz-adv-x="618" 
d="M89 0l-58 0.000976562l200 284c-49.333 12 -88.5 36.5 -117.5 73.5s-43.5 81.5 -43.5 133.5c0 63.333 20.833 114.666 62.5 153.999s97.167 59 166.5 59h227v-704h-49v276h-193zM120 491.001c0 -51.333 16.332 -92.333 48.999 -123s77.334 -46 134.001 -46h174v336h-173
c-56.667 0 -101.5 -15.167 -134.5 -45.5s-49.5 -70.833 -49.5 -121.5z" />
    <glyph glyph-name="uni0430" unicode="&#x430;" horiz-adv-x="524" 
d="M402 337c0 43.333 -12.833 76.333 -38.5 99s-59.834 34 -102.501 34c-38 0 -69.5 -8.5 -94.5 -25.5s-42.167 -39.5 -51.5 -67.5h-46c10 40 32.167 72.667 66.5 98s76.5 38 126.5 38c56.667 0 101.834 -15.5 135.501 -46.5s50.5 -74.167 50.5 -129.5v-337h-44v78
c-38.667 -58 -99.667 -87 -183 -87c-48.667 0 -89.5 13.5 -122.5 40.5s-49.5 62.833 -49.5 107.5c0 46 17 82.167 51 108.5s81.667 39.5 143 39.5h159v50zM226 34c51.333 0 93.5 13.833 126.5 41.5s49.5 65.167 49.5 112.5v57h-157c-47.333 0 -83.833 -9.16699 -109.5 -27.5
s-38.5 -44.5 -38.5 -78.5c0 -32 12 -57.5 36 -76.5s55 -28.5 93 -28.5z" />
    <glyph glyph-name="uni0431" unicode="&#x431;" horiz-adv-x="581" 
d="M304 507c67.333 0 121.832 -23.833 163.499 -71.5s62.5 -109.834 62.5 -186.501c0 -72 -20.667 -133 -62 -183s-97.333 -75 -168 -75c-73.333 0 -131.666 25.5 -174.999 76.5s-65 118.833 -65 203.5c0 133.333 16.667 233.333 50 300s93.333 108.334 180 125.001l189 37
v-47l-181 -32c-64 -11.333 -110.167 -38.5 -138.5 -81.5s-45.833 -103.5 -52.5 -181.5c18.667 36.667 45.167 65.167 79.5 85.5s73.5 30.5 117.5 30.5zM297.999 35c57.333 0 102.333 20.5 135 61.5s49 91.833 49 152.5c0 62 -16.5 113.333 -49.5 154s-77.167 61 -132.5 61
c-54 0 -99.167 -19 -135.5 -57s-54.5 -90.333 -54.5 -157c0 -62.667 17 -114.167 51 -154.5s79.667 -60.5 137 -60.5z" />
    <glyph glyph-name="uni0432" unicode="&#x432;" horiz-adv-x="507" 
d="M81 0v504h197c49.333 0 87.5 -11.667 114.5 -35s40.5 -54 40.5 -92c0 -29.333 -7.16699 -53.833 -21.5 -73.5s-30.833 -32.834 -49.5 -39.501c24.667 -5.33301 46.5 -18.666 65.5 -39.999s28.5 -49.333 28.5 -84c0 -41.333 -14.667 -75 -44 -101s-70 -39 -122 -39h-209z
M284 239l-156.999 0.000976562v-197h158c39.333 0 69.666 9.16699 90.999 27.5s32 42.833 32 73.5c0 29.333 -10.333 52.666 -31 69.999s-51.667 26 -93 26zM273.001 462.001h-145.999v-182h147c37.333 0 65.166 8.5 83.499 25.5s27.5 39.5 27.5 67.5
c0 28.667 -9.5 50.667 -28.5 66s-46.833 23 -83.5 23z" />
    <glyph glyph-name="uni0433" unicode="&#x433;" horiz-adv-x="437" 
d="M402 461h-274v-461h-47v504h321v-43z" />
    <glyph glyph-name="uni0434" unicode="&#x434;" horiz-adv-x="583" 
d="M550 44v-171h-46v127h-446v-127h-46v171h42c38 29.333 61 94 69 194l21 266h332v-460h74zM169 237c-4 -48.667 -10 -87.832 -18 -117.499s-21.667 -54.834 -41 -75.501h319v417h-243z" />
    <glyph glyph-name="uni0435" unicode="&#x435;" horiz-adv-x="543" 
d="M492 241h-392.003v-3c0 -62 17.167 -111.333 51.5 -148s77.833 -55 130.5 -55c40.667 0 74.334 9.16699 101.001 27.5s44.334 40.166 53.001 65.499h48c-10 -37.333 -32.333 -69.5 -67 -96.5s-79.667 -40.5 -135 -40.5c-67.333 0 -122.666 23.333 -165.999 70
s-65 110.334 -65 191.001c0 79.333 21.167 142.666 63.5 189.999s96.5 71 162.5 71c64.667 0 116.667 -21.667 156 -65s59 -102.666 59 -177.999v-29zM276.997 469c-50 0 -91.168 -16.8311 -123.501 -50.498s-50.166 -78.834 -53.499 -135.501h344
c-0.666992 59.333 -16 105.166 -46 137.499s-70.333 48.5 -121 48.5z" />
    <glyph glyph-name="uni0436" unicode="&#x436;" horiz-adv-x="694" 
d="M369 504v-227l240 227h61l-250 -237l254 -267h-61l-244 255v-255h-45v255l-244 -255h-60l253 266l-250 238h61l240 -227v227h45z" />
    <glyph glyph-name="uni0437" unicode="&#x437;" horiz-adv-x="487" 
d="M56 371c6.66699 44.667 27.6689 79.498 63.002 104.498s77.666 37.5 126.999 37.5c50.667 0 91.5 -12.667 122.5 -38s46.5 -59 46.5 -101c0 -28.667 -7.33301 -52.667 -22 -72s-32.667 -33 -54 -41c26.667 -6.66699 49.5 -19.667 68.5 -39s28.5 -46 28.5 -80
c0 -46 -17.833 -82.667 -53.5 -110s-80.834 -41 -135.501 -41c-53.333 0 -98.5 13.333 -135.5 40s-58.833 63.667 -65.5 111h47c6 -33.333 23 -59.666 51 -78.999s62.667 -29 104 -29c42 0 75.833 9.83301 101.5 29.5s38.5 46.167 38.5 79.5c0 29.333 -11 52.333 -33 69
s-55.667 25 -101 25h-82v42h75c40 0 70.167 9 90.5 27s30.5 41 30.5 69c0 29.333 -11 52.5 -33 69.5s-52.333 25.5 -91 25.5c-37.333 0 -68.5 -8.66699 -93.5 -26s-41.167 -41.666 -48.5 -72.999h-46z" />
    <glyph glyph-name="uni0438" unicode="&#x438;" horiz-adv-x="568" 
d="M487 504v-504h-46v432l-313 -432h-47v504h46v-432l313 432h47z" />
    <glyph glyph-name="uni0439" unicode="&#x439;" horiz-adv-x="568" 
d="M487 504v-504h-46v432l-313 -432h-47v504h46v-432l313 432h47zM187 727c0 -31.333 8.66895 -56.5 26.002 -75.5s41 -28.5 71 -28.5s53.667 9.5 71 28.5s26 44.167 26 75.5h44c-0.666992 -44 -13.834 -79 -39.501 -105s-59.5 -39 -101.5 -39s-75.833 13 -101.5 39
s-38.834 61 -39.501 105h44z" />
    <glyph glyph-name="uni043A" unicode="&#x43a;" horiz-adv-x="484" 
d="M128 0h-47v504h47v-223l266 223h65l-280 -236l286 -268h-65l-272 253v-253z" />
    <glyph glyph-name="uni043B" unicode="&#x43b;" horiz-adv-x="549" 
d="M12 -1l-0.000976562 44h10c34.667 0 59.334 10.5 74.001 31.5s24 55.5 28 103.5l28 326h316v-504h-47v461h-227l-24 -286c-5.33301 -61.333 -19 -106 -41 -134s-56.333 -42 -103 -42h-14z" />
    <glyph glyph-name="uni043C" unicode="&#x43c;" horiz-adv-x="703" 
d="M81 504h56l215 -446l214 446h56v-504h-46v424l-205 -424h-39l-205 424v-424h-46v504z" />
    <glyph glyph-name="uni043D" unicode="&#x43d;" horiz-adv-x="563" 
d="M128 0h-47v504h47v-220h307v220h47v-504h-47v240h-307v-240z" />
    <glyph glyph-name="uni043E" unicode="&#x43e;" horiz-adv-x="568" 
d="M284 513c69.333 0 125.5 -24.167 168.5 -72.5s64.5 -111.166 64.5 -188.499s-21.5 -140.166 -64.5 -188.499s-99.167 -72.5 -168.5 -72.5s-125.5 24.167 -168.5 72.5s-64.5 111.166 -64.5 188.499s21.5 140.166 64.5 188.499s99.167 72.5 168.5 72.5zM284 35
c55.333 0 100 19.833 134 59.5s51 92.167 51 157.5s-17 117.833 -51 157.5s-78.667 59.5 -134 59.5s-100 -19.833 -134 -59.5s-51 -92.167 -51 -157.5s17 -117.833 51 -157.5s78.667 -59.5 134 -59.5z" />
    <glyph glyph-name="uni043F" unicode="&#x43f;" horiz-adv-x="560" 
d="M81 504h398v-504h-47v460h-304v-460h-47v504z" />
    </font>
</defs>
</svg>
