<?xml version="1.0" standalone="no"?>
<!DOCTYPE svg PUBLIC "-//W3C//DTD SVG 1.1//EN" "http://www.w3.org/Graphics/SVG/1.1/DTD/svg11.dtd" >
<svg>
<metadata>
Created by FontForge 20090914 at Thu Aug 20 00:42:37 2020
 By www-data
Copyright (c) 2019 by Art. Lebedev Studio. All rights reserved.
</metadata>
<defs>
<font id="ALSHauss-Bold" horiz-adv-x="0" >
  <font-face 
    font-family="ALS Hauss Bold"
    font-weight="700"
    font-stretch="normal"
    units-per-em="1000"
    panose-1="2 0 0 0 0 0 0 0 0 0"
    ascent="800"
    descent="-200"
    x-height="517"
    cap-height="704"
    bbox="-202 -305 1335 993"
    underline-thickness="50"
    underline-position="-150"
    unicode-range="U+000D-U+277E"
  />
<missing-glyph horiz-adv-x="588" 
d="M66 704h456v-704h-456v704zM464 647h-342v-590h342v590z" />
    <glyph glyph-name=".notdef" horiz-adv-x="588" 
d="M66 704h456v-704h-456v704zM464 647h-342v-590h342v590z" />
    <glyph glyph-name="NULL" 
 />
    <glyph glyph-name="NULL" 
 />
    <glyph glyph-name="CR" unicode="&#xd;" horiz-adv-x="216" 
 />
    <glyph glyph-name="space" unicode=" " horiz-adv-x="216" 
 />
    <glyph glyph-name="exclam" unicode="!" horiz-adv-x="335" 
d="M102 233l-11 471h151l-11 -471h-129zM168 162c24.667 0 45.334 -8.33301 62.001 -25s25 -37.334 25 -62.001s-8.33301 -45.334 -25 -62.001s-37.334 -25 -62.001 -25c-25.333 0 -46.5 8.33301 -63.5 25s-25.5 37.334 -25.5 62.001s8.5 45.334 25.5 62.001
s38.167 25 63.5 25z" />
    <glyph glyph-name="quotedbl" unicode="&#x22;" horiz-adv-x="492" 
d="M289 408v296h134l-9 -296h-125zM69 408v296h134l-9 -296h-125z" />
    <glyph glyph-name="numbersign" unicode="#" horiz-adv-x="729" 
d="M686 537v-118h-120l-24 -135h99v-118h-119l-29 -166h-123l28 166h-131l-29 -166h-123l29 166h-101v118h121l24 135h-100v118h120l29 167h123l-29 -167h131l29 167h124l-29 -167h100zM309 420l-24 -137h135l23 137h-134z" />
    <glyph glyph-name="dollar" unicode="$" horiz-adv-x="608" 
d="M41 209l146.998 -0.000976562c14.667 -54 56.334 -81 125.001 -81c32.667 0 58.667 7.5 78 22.5s29 34.833 29 59.5c0 40 -26.667 64.333 -80 73l-107 16c-122.667 18.667 -184 81.334 -184 188.001c0 54 18.167 99.833 54.5 137.5s83.833 61.167 142.5 70.5v92h118v-94
c54 -9.33301 98 -30.666 132 -63.999s54.667 -76 62 -128h-145c-14.667 49.333 -53 74 -115 74c-28.667 0 -52.667 -7 -72 -21s-29 -33 -29 -57c0 -36 25 -58 75 -66l106 -16c58.667 -9.33301 105 -30 139 -62s51 -76 51 -132c0 -58 -18 -105.833 -54 -143.5
s-86 -60.834 -150 -69.501v-97h-118v99c-57.333 10 -104.166 32.333 -140.499 67s-57.833 78.667 -64.5 132z" />
    <glyph glyph-name="percent" unicode="%" horiz-adv-x="951" 
d="M158 0l499 704h136l-500 -704h-135zM219 612c-20.667 0 -37 -8 -49 -24s-18 -36.333 -18 -61s6 -45 18 -61s28.333 -24 49 -24s36.834 8 48.501 24s17.5 36.333 17.5 61s-5.83301 45 -17.5 61s-27.834 24 -48.501 24zM33 527c0 55.333 17.5 100.666 52.5 135.999
s79.5 53 133.5 53s98.5 -17.667 133.5 -53s52.5 -80.666 52.5 -135.999s-17.5 -100.833 -52.5 -136.5s-79.5 -53.5 -133.5 -53.5s-98.5 17.833 -133.5 53.5s-52.5 81.167 -52.5 136.5zM732 262c-20.667 0 -37 -8 -49 -24s-18 -36.333 -18 -61s6 -45 18 -61
s28.333 -24 49 -24s37 8 49 24s18 36.333 18 61s-6 45 -18 61s-28.333 24 -49 24zM546 177c0 55.333 17.5 100.833 52.5 136.5s79.5 53.5 133.5 53.5s98.5 -17.833 133.5 -53.5s52.5 -81.167 52.5 -136.5s-17.5 -100.666 -52.5 -135.999s-79.5 -53 -133.5 -53
s-98.5 17.667 -133.5 53s-52.5 80.666 -52.5 135.999z" />
    <glyph glyph-name="ampersand" unicode="&#x26;" horiz-adv-x="735" 
d="M715 325l-137 -168.997l139 -156h-165l-62 69l-7 -7c-52.667 -49.333 -118.667 -74 -198 -74c-72 0 -130 19.5 -174 58.5s-66 89.167 -66 150.5c0 84 50.667 150 152 198l-6 8c-14.667 16 -26 29.167 -34 39.5s-15.833 24.666 -23.5 42.999s-11.5 37.166 -11.5 56.499
c0 48 19.167 89 57.5 123s86.833 51 145.5 51c57.333 0 104 -16.333 140 -49s54 -74.334 54 -125.001c0 -70.667 -43.667 -129 -131 -175l112 -125l66 83h149zM407 152.003l6 5l-140 158c-57.333 -27.333 -86 -64.333 -86 -111c0 -28.667 9.5 -51.667 28.5 -69
s45.5 -26 79.5 -26c42.667 0 80 14.333 112 43zM253 541.003c0 -24 15 -51.001 45 -81.001l17 -17c51.333 27.333 77 60.333 77 99c0 18.667 -6.5 33.667 -19.5 45s-29.167 17 -48.5 17c-20.667 0 -37.667 -5.66699 -51 -17s-20 -26.666 -20 -45.999z" />
    <glyph glyph-name="quotesingle" unicode="'" horiz-adv-x="272" 
d="M69 408v296h134l-9 -296h-125z" />
    <glyph glyph-name="parenleft" unicode="(" horiz-adv-x="388" 
d="M363 727c-97.333 -134 -146 -281.667 -146 -443c0 -160.667 48.667 -308 146 -442h-139c-42.667 53.333 -78.834 117.833 -108.501 193.5s-44.5 158.5 -44.5 248.5s14.833 173 44.5 249s65.834 140.667 108.501 194h139z" />
    <glyph glyph-name="parenright" unicode=")" horiz-adv-x="388" 
d="M24 727l140 -0.000976562c42.667 -53.333 78.667 -118 108 -194s44 -159 44 -249s-14.667 -172.833 -44 -248.5s-65.333 -140.167 -108 -193.5h-140c97.333 132.667 146 280 146 442c0 162.667 -48.667 310.334 -146 443.001z" />
    <glyph glyph-name="asterisk" unicode="*" horiz-adv-x="476" 
d="M288 716l-3 -138l131 45l31 -94l-132 -41l82 -111l-79 -57l-80 112l-79 -112l-81 57l83 111l-132 41l30 94l131 -44l-2 137h100z" />
    <glyph glyph-name="plus" unicode="+" horiz-adv-x="642" 
d="M252 528h137v-189h181v-132h-181v-189h-137v189h-180v132h180v189z" />
    <glyph glyph-name="comma" unicode="," horiz-adv-x="295" 
d="M235 72c0 -19.333 -3.99805 -39.333 -11.998 -60l-66 -170h-106l60 157c-35.333 14.667 -53 40.334 -53 77.001c0 24 8.16699 43.833 24.5 59.5s37.166 23.5 62.499 23.5s46.666 -8.33301 63.999 -25s26 -37.334 26 -62.001z" />
    <glyph glyph-name="hyphen" unicode="-" horiz-adv-x="443" 
d="M59 207v132h325v-132h-325z" />
    <glyph glyph-name="period" unicode="." horiz-adv-x="295" 
d="M148 162c24.667 0 45.334 -8.33301 62.001 -25s25 -37.334 25 -62.001s-8.33301 -45.334 -25 -62.001s-37.334 -25 -62.001 -25c-25.333 0 -46.5 8.33301 -63.5 25s-25.5 37.334 -25.5 62.001s8.5 45.334 25.5 62.001s38.167 25 63.5 25z" />
    <glyph glyph-name="slash" unicode="/" horiz-adv-x="409" 
d="M265 727h138l-258 -885h-139z" />
    <glyph glyph-name="zero" unicode="0" horiz-adv-x="670" 
d="M335 716c86.667 0 155.834 -33.333 207.501 -100s77.5 -154.667 77.5 -264s-25.833 -197.333 -77.5 -264s-120.834 -100 -207.501 -100s-155.834 33.333 -207.501 100s-77.5 154.667 -77.5 264s25.833 197.333 77.5 264s120.834 100 207.501 100zM335 121
c43.333 0 76.333 21.333 99 64s34 98.334 34 167.001s-11.333 124.334 -34 167.001s-55.667 64 -99 64s-76.166 -21.333 -98.499 -64s-33.5 -98.334 -33.5 -167.001s11.167 -124.334 33.5 -167.001s55.166 -64 98.499 -64z" />
    <glyph glyph-name="one" unicode="1" horiz-adv-x="457" 
d="M353 704v-704h-150v539l-159 -101v150l171 116h138z" />
    <glyph glyph-name="two" unicode="2" horiz-adv-x="625" 
d="M409 497c0 25.333 -9.16602 46.166 -27.499 62.499s-41.833 24.5 -70.5 24.5c-30 0 -54.333 -7.66699 -73 -23s-30.334 -36 -35.001 -62h-147c5.33301 64 31.166 116.167 77.499 156.5s106.5 60.5 180.5 60.5c76 0 136.333 -20.333 181 -61s67 -91.667 67 -153
c0 -45.333 -10.667 -84.666 -32 -117.999s-52.666 -68 -93.999 -104l-170 -148h308v-132h-513v124l266 240c28.667 26 49.5 48.667 62.5 68s19.5 41 19.5 65z" />
    <glyph glyph-name="three" unicode="3" horiz-adv-x="631" 
d="M54 509c6.66699 64 34.334 114.497 83.001 151.497s107.667 55.5 177 55.5c73.333 0 132.5 -18.5 177.5 -55.5s67.5 -83.5 67.5 -139.5c0 -38.667 -10.167 -70.667 -30.5 -96s-44.5 -43.666 -72.5 -54.999c33.333 -9.33301 63 -28.166 89 -56.499s39 -66.166 39 -113.499
c0 -62 -24.5 -112.833 -73.5 -152.5s-112.5 -59.5 -190.5 -59.5c-75.333 0 -138.333 19.167 -189 57.5s-78.667 90.5 -84 156.5h148c6 -24.667 19.833 -44.667 41.5 -60s49.5 -23 83.5 -23c32 0 58.5 8.16699 79.5 24.5s31.5 38.5 31.5 66.5s-10.833 49.333 -32.5 64
s-49.834 22 -84.501 22h-78v126h66c32.667 0 58.334 7.66699 77.001 23s28 35.333 28 60c0 24 -8.83301 43.333 -26.5 58s-41.5 22 -71.5 22c-29.333 0 -53.333 -7 -72 -21s-30.334 -32.333 -35.001 -55h-148z" />
    <glyph glyph-name="four" unicode="4" horiz-adv-x="657" 
d="M524 0h-147v139h-336v124l292 441h191v-439h94v-126h-94v-139zM189 265h188v282z" />
    <glyph glyph-name="five" unicode="5" horiz-adv-x="638" 
d="M324 119c33.333 0 60.499 10.501 81.499 31.501s31.5 48.5 31.5 82.5c0 33.333 -10.833 60.166 -32.5 80.499s-48.167 30.5 -79.5 30.5c-49.333 0 -86 -19 -110 -57h-150l34 417h450v-132h-322l-16 -169c36.667 41.333 87.334 62 152.001 62
c62.667 0 116.167 -20.167 160.5 -60.5s66.5 -96.5 66.5 -168.5c0 -76 -25 -136.333 -75 -181s-112.667 -67 -188 -67c-74 0 -135.333 19.5 -184 58.5s-76.334 88.5 -83.001 148.5h151c5.33301 -20 17.833 -37.667 37.5 -53s44.834 -23 75.501 -23z" />
    <glyph glyph-name="six" unicode="6" horiz-adv-x="650" 
d="M376 463c61.333 0 114.831 -20.832 160.498 -62.499s68.5 -96.167 68.5 -163.5c0 -72.667 -24.167 -132.334 -72.5 -179.001s-110.833 -70 -187.5 -70c-92.667 0 -165 32.333 -217 97s-78 151.667 -78 261c0 120.667 26.833 212.5 80.5 275.5s124.5 94.5 212.5 94.5
c69.333 0 126.5 -18.667 171.5 -56s71.167 -83.333 78.5 -138h-149c-5.33301 17.333 -16.666 32.333 -33.999 45s-39.666 19 -66.999 19c-91.333 0 -140.333 -70.667 -147 -212c38 59.333 98 89 180 89zM339.998 119.001c32.667 0 59.501 10.498 80.501 31.498
s31.5 47.833 31.5 80.5s-10.833 59.334 -32.5 80.001s-48.834 31 -81.501 31c-32 0 -59 -10.167 -81 -30.5s-33 -47.166 -33 -80.499c0 -32 11.167 -58.667 33.5 -80s49.833 -32 82.5 -32z" />
    <glyph glyph-name="seven" unicode="7" horiz-adv-x="571" 
d="M531 582l-266 -582h-164l265 572h-333v132h498v-122z" />
    <glyph glyph-name="eight" unicode="8" horiz-adv-x="647" 
d="M50 196c0 44 12.502 80.833 37.502 110.5s54.5 49.5 88.5 59.5c-71.333 30.667 -107 82.334 -107 155.001c0 54.667 23.167 100.834 69.5 138.501s108.166 56.5 185.499 56.5c76.667 0 138.167 -18.833 184.5 -56.5s69.5 -83.834 69.5 -138.501
c0 -72.667 -35.667 -124.334 -107 -155.001c34 -10 63.5 -29.833 88.5 -59.5s37.5 -66.5 37.5 -110.5c0 -60.667 -25.333 -110.5 -76 -149.5s-116.334 -58.5 -197.001 -58.5c-81.333 0 -147.333 19.5 -198 58.5s-76 88.833 -76 149.5zM427.002 504c0 26 -9.5 47 -28.5 63
s-43.833 24 -74.5 24c-31.333 0 -56.5 -8 -75.5 -24s-28.5 -37 -28.5 -63c0 -24.667 10 -45.334 30 -62.001s44.667 -25 74 -25c28.667 0 53 8.33301 73 25s30 37.334 30 62.001zM442.002 208c0 28.667 -11 52 -33 70s-50.333 27 -85 27c-35.333 0 -64 -9 -86 -27
s-33 -41.333 -33 -70c0 -28 11 -50.833 33 -68.5s50.667 -26.5 86 -26.5s63.833 8.83301 85.5 26.5s32.5 40.5 32.5 68.5z" />
    <glyph glyph-name="nine" unicode="9" horiz-adv-x="650" 
d="M274 241c-61.333 0 -114.831 20.832 -160.498 62.499s-68.5 96.167 -68.5 163.5c0 72.667 24.167 132.334 72.5 179.001s110.833 70 187.5 70c92.667 0 165 -32.333 217 -97s78 -151.667 78 -261c0 -120.667 -26.833 -212.5 -80.5 -275.5s-124.5 -94.5 -212.5 -94.5
c-69.333 0 -126.5 18.667 -171.5 56s-71.167 83.333 -78.5 138h149c5.33301 -17.333 16.666 -32.333 33.999 -45s39.666 -19 66.999 -19c92 0 140.667 71 146 213c-37.333 -60 -97 -90 -179 -90zM310.002 584.999c-32.667 0 -59.501 -10.498 -80.501 -31.498
s-31.5 -47.833 -31.5 -80.5s10.833 -59.334 32.5 -80.001s48.834 -31 81.501 -31c32 0 58.833 10.167 80.5 30.5s32.5 47.166 32.5 80.499c0 32 -11 58.667 -33 80s-49.333 32 -82 32z" />
    <glyph glyph-name="colon" unicode=":" horiz-adv-x="295" 
d="M148 162c24.667 0 45.334 -8.33301 62.001 -25s25 -37.334 25 -62.001s-8.33301 -45.334 -25 -62.001s-37.334 -25 -62.001 -25c-25.333 0 -46.5 8.33301 -63.5 25s-25.5 37.334 -25.5 62.001s8.5 45.334 25.5 62.001s38.167 25 63.5 25zM148 502
c24.667 0 45.334 -8.33301 62.001 -25s25 -37.334 25 -62.001s-8.33301 -45.334 -25 -62.001s-37.334 -25 -62.001 -25c-25.333 0 -46.5 8.33301 -63.5 25s-25.5 37.334 -25.5 62.001s8.5 45.334 25.5 62.001s38.167 25 63.5 25z" />
    <glyph glyph-name="semicolon" unicode=";" horiz-adv-x="295" 
d="M235 72c0 -19.333 -3.99805 -39.333 -11.998 -60l-66 -170h-106l60 157c-35.333 14.667 -53 40.334 -53 77.001c0 24 8.16699 43.833 24.5 59.5s37.166 23.5 62.499 23.5s46.666 -8.33301 63.999 -25s26 -37.334 26 -62.001zM148.002 502
c24.667 0 45.334 -8.33301 62.001 -25s25 -37.334 25 -62.001s-8.33301 -45.334 -25 -62.001s-37.334 -25 -62.001 -25c-25.333 0 -46.5 8.33301 -63.5 25s-25.5 37.334 -25.5 62.001s8.5 45.334 25.5 62.001s38.167 25 63.5 25z" />
    <glyph glyph-name="less" unicode="&#x3c;" horiz-adv-x="642" 
d="M568 5l-493 212v111l493 213v-140l-309 -128l309 -128v-140z" />
    <glyph glyph-name="equal" unicode="=" horiz-adv-x="642" 
d="M80 325v126h482v-126h-482zM80 94v126h482v-126h-482z" />
    <glyph glyph-name="greater" unicode="&#x3e;" horiz-adv-x="642" 
d="M75 5v140l308 128l-308 128v140l493 -213v-111z" />
    <glyph glyph-name="question" unicode="?" horiz-adv-x="543" 
d="M357 518c0 21.333 -7.66504 38.166 -22.998 50.499s-36 18.5 -62 18.5c-27.333 0 -49.833 -6.66699 -67.5 -20s-29.167 -32 -34.5 -56h-137c4 59.333 28 108.333 72 147s100.667 58 170 58c70.667 0 126.167 -18 166.5 -54s60.5 -81.333 60.5 -136
c0 -10.667 -0.666992 -20.834 -2 -30.501s-2.83301 -18.334 -4.5 -26.001s-4.66699 -15.5 -9 -23.5s-7.5 -14.333 -9.5 -19s-6.33301 -10.334 -13 -17.001s-11.167 -11.334 -13.5 -14.001s-7.66602 -7 -15.999 -13l-14.5 -10.5c-1.33301 -1 -6.83301 -4.5 -16.5 -10.5
s-14.834 -9.33301 -15.501 -10c-14.667 -9.33301 -24.834 -16.166 -30.501 -20.499s-12.667 -10.666 -21 -18.999s-13.833 -17.166 -16.5 -26.499s-4 -20.666 -4 -33.999v-19h-134v34c0 42 7.66699 73.833 23 95.5s40.666 43.834 75.999 66.501c34 22 55 38.333 63 49
c8.66699 12.667 13 26 13 40zM253.002 162c24.667 0 45.334 -8.33301 62.001 -25s25 -37.334 25 -62.001s-8.33301 -45.334 -25 -62.001s-37.334 -25 -62.001 -25c-25.333 0 -46.5 8.33301 -63.5 25s-25.5 37.334 -25.5 62.001s8.5 45.334 25.5 62.001s38.167 25 63.5 25z
" />
    <glyph glyph-name="at" unicode="@" horiz-adv-x="906" 
d="M471 706c116.667 0 212.168 -36.666 286.501 -109.999s111.5 -166.333 111.5 -279c0 -84 -17.833 -145.167 -53.5 -183.5s-81.834 -57.5 -138.501 -57.5c-60.667 0 -103 23 -127 69c-27.333 -46 -70.666 -69 -129.999 -69c-50.667 0 -93.167 18.833 -127.5 56.5
s-51.5 89.5 -51.5 155.5c0 62.667 17.167 113.5 51.5 152.5s77.166 58.5 128.499 58.5c50.667 0 88.667 -19 114 -57v46h124v-256c0 -15.333 4 -27.833 12 -37.5s18.667 -14.5 32 -14.5c40 0 60 45.667 60 137c0 87.333 -26 157.833 -78 211.5s-124 80.5 -216 80.5
c-89.333 0 -164.333 -29.833 -225 -89.5s-91 -139.167 -91 -238.5c0 -100 31.667 -177.5 95 -232.5s141.333 -82.5 234 -82.5c64 0 121.667 9 173 27v-96c-46 -18 -104 -27 -174 -27c-80 0 -152.5 15.833 -217.5 47.5s-117.333 79 -157 142s-59.5 136.833 -59.5 221.5
c0 84 19.333 158.667 58 224s90 115.166 154 149.499s134.667 51.5 212 51.5zM449.001 185.001c24 0 43.833 8.99902 59.5 26.999s23.5 42 23.5 72v7c0 30 -7.83301 54 -23.5 72s-35.5 27 -59.5 27c-22.667 0 -41.667 -9.16699 -57 -27.5s-23 -43.166 -23 -74.499
c0 -30.667 7.66699 -55.5 23 -74.5s34.333 -28.5 57 -28.5z" />
    <glyph glyph-name="A" unicode="A" horiz-adv-x="699" 
d="M270 704h158l258 -704h-158l-50 145h-258l-49 -145h-158zM348 527l-85 -254h170z" />
    <glyph glyph-name="B" unicode="B" horiz-adv-x="646" 
d="M74 0v703.998h284c72 0 127.167 -17.333 165.5 -52s57.5 -78.667 57.5 -132c0 -38 -8.83301 -69.833 -26.5 -95.5s-39.5 -44.167 -65.5 -55.5c32 -9.33301 59.833 -28.166 83.5 -56.499s35.5 -65.166 35.5 -110.499c0 -59.333 -21.5 -107.833 -64.5 -145.5
s-100.833 -56.5 -173.5 -56.5h-296zM351 299.998l-125.001 -0.000976562v-173h124c31.333 0 56.333 7.66699 75 23s28 36.333 28 63s-9.16699 47.834 -27.5 63.501s-43.166 23.5 -74.499 23.5zM333.999 576.997h-108v-158h112c28.667 0 50.667 7.33301 66 22
s23 33.667 23 57c0 25.333 -8 44.833 -24 58.5s-39 20.5 -69 20.5z" />
    <glyph glyph-name="C" unicode="C" horiz-adv-x="715" 
d="M525 243h151.999c-2 -30.667 -9.66699 -60.667 -23 -90s-32 -56.5 -56 -81.5s-55.667 -45.167 -95 -60.5s-83.333 -23 -132 -23c-95.333 0 -174 32.833 -236 98.5s-93 154.167 -93 265.5c0 108.667 30.667 196.5 92 263.5s140.333 100.5 237 100.5
c88.667 0 159.334 -24 212.001 -72s83.667 -108.667 93 -182h-152c-8.66699 34 -26 62 -52 84s-59.667 33 -101 33c-51.333 0 -93 -20.667 -125 -62s-48 -96.333 -48 -165c0 -68 16 -122.833 48 -164.5s74 -62.5 126 -62.5c43.333 0 78.333 12.167 105 36.5
s42.667 51.5 48 81.5z" />
    <glyph glyph-name="D" unicode="D" horiz-adv-x="716" 
d="M323 704c111.333 0 197.666 -31.167 258.999 -93.5s92 -148.5 92 -258.5s-30.667 -196.167 -92 -258.5s-147.666 -93.5 -258.999 -93.5h-249v704h249zM310 134c68 0 119.667 19 155 57s53 91.667 53 161s-17.667 123 -53 161s-87 57 -155 57h-83v-436h83z" />
    <glyph glyph-name="E" unicode="E" horiz-adv-x="596" 
d="M546 568h-319v-144h300v-131h-300v-157h319v-136h-472v704h472v-136z" />
    <glyph glyph-name="F" unicode="F" horiz-adv-x="589" 
d="M227 0h-153v704h469v-137h-316v-160h293v-131h-293v-276z" />
    <glyph glyph-name="G" unicode="G" horiz-adv-x="734" 
d="M369 386h317.999v-79c0 -95.333 -27.167 -172.333 -81.5 -231s-130.833 -88 -229.5 -88c-98 0 -178.167 33.333 -240.5 100s-93.5 154.667 -93.5 264c0 106.667 30.5 194 91.5 262s142.167 102 243.5 102c83.333 0 151.5 -22.333 204.5 -67
s86.167 -101.334 99.5 -170.001h-155c-22.667 67.333 -72 101 -148 101c-53.333 0 -96.666 -20.167 -129.999 -60.5s-50 -96.166 -50 -167.499c0 -72.667 17 -129.167 51 -169.5s78 -60.5 132 -60.5c48 0 85.5 13.167 112.5 39.5s40.5 58.833 40.5 97.5v3h-165v124z" />
    <glyph glyph-name="H" unicode="H" horiz-adv-x="739" 
d="M227 0h-153v704h153v-275h285v275h153v-704h-153v292h-285v-292z" />
    <glyph glyph-name="I" unicode="I" horiz-adv-x="301" 
d="M227 704v-704h-153v704h153z" />
    <glyph glyph-name="J" unicode="J" horiz-adv-x="578" 
d="M23 204h149c2 -20.667 10.667 -39 26 -55s36.333 -24 63 -24c30 0 53.167 9.83301 69.5 29.5s24.5 47.5 24.5 83.5v466h153v-468c0 -78.667 -22 -139.667 -66 -183s-104.667 -65 -182 -65c-70.667 0 -127.667 20.5 -171 61.5s-65.333 92.5 -66 154.5z" />
    <glyph glyph-name="K" unicode="K" horiz-adv-x="665" 
d="M227 0h-153v704h153v-290l246 290h179l-282 -338l288 -366h-186l-245 307v-307z" />
    <glyph glyph-name="L" unicode="L" horiz-adv-x="581" 
d="M227 704v-568h319v-136h-472v704h153z" />
    <glyph glyph-name="M" unicode="M" horiz-adv-x="916" 
d="M74 704h190l195 -494l194 494h189v-704h-143v473l-185 -467h-112l-184 463v-469h-144v704z" />
    <glyph glyph-name="N" unicode="N" horiz-adv-x="747" 
d="M234 704l292 -446v446h147v-704h-144l-308 468v-468h-147v704h160z" />
    <glyph glyph-name="O" unicode="O" horiz-adv-x="758" 
d="M379 716c100 0 181.167 -33.5 243.5 -100.5s93.5 -154.833 93.5 -263.5s-31.167 -196.5 -93.5 -263.5s-143.5 -100.5 -243.5 -100.5s-181.167 33.5 -243.5 100.5s-93.5 154.833 -93.5 263.5s31.167 196.5 93.5 263.5s143.5 100.5 243.5 100.5zM379 125
c56 0 100.167 21.167 132.5 63.5s48.5 96.833 48.5 163.5s-16.167 121.167 -48.5 163.5s-76.5 63.5 -132.5 63.5s-100.167 -21.167 -132.5 -63.5s-48.5 -96.833 -48.5 -163.5s16.167 -121.167 48.5 -163.5s76.5 -63.5 132.5 -63.5z" />
    <glyph glyph-name="P" unicode="P" horiz-adv-x="631" 
d="M342 704c78.667 0 140.501 -22.167 185.501 -66.5s67.5 -101.5 67.5 -171.5c0 -68 -22.833 -124.5 -68.5 -169.5s-105.834 -67.5 -180.501 -67.5h-119v-229h-153v704h268zM328.001 573h-101v-213h101c34.667 0 62 9.83301 82 29.5s30 45.167 30 76.5
c0 32 -9.83301 57.833 -29.5 77.5s-47.167 29.5 -82.5 29.5z" />
    <glyph glyph-name="Q" unicode="Q" horiz-adv-x="758" 
d="M379 716c100 0 181.167 -33.5 243.5 -100.5s93.5 -154.833 93.5 -263.5c0 -119.333 -38 -213.333 -114 -282l88 -132h-152l-45 68c-38 -12 -76 -18 -114 -18c-100 0 -181.167 33.5 -243.5 100.5s-93.5 154.833 -93.5 263.5s31.167 196.5 93.5 263.5
s143.5 100.5 243.5 100.5zM379 124c11.333 0 22.667 0.999023 34 2.99902l-76 116h151l31 -47c27.333 40.667 41 92.667 41 156c0 67.333 -16.167 122.166 -48.5 164.499s-76.5 63.5 -132.5 63.5s-100.167 -21.167 -132.5 -63.5s-48.5 -97.166 -48.5 -164.499
s16.167 -122.166 48.5 -164.499s76.5 -63.5 132.5 -63.5z" />
    <glyph glyph-name="R" unicode="R" horiz-adv-x="652" 
d="M598 472c0 -44.667 -10.5 -85 -31.5 -121s-50.5 -63.667 -88.5 -83l159 -268h-171l-140 239h-99v-239h-153v704h272c78 0 139.5 -21.833 184.5 -65.5s67.5 -99.167 67.5 -166.5zM333 573h-106v-205h106c34 0 60.833 9.5 80.5 28.5s29.5 43.5 29.5 73.5
c0 30.667 -9.66699 55.5 -29 74.5s-46.333 28.5 -81 28.5z" />
    <glyph glyph-name="S" unicode="S" horiz-adv-x="634" 
d="M41 202l154.001 -0.000976562c15.333 -56.667 59 -85 131 -85c34.667 0 62 7.83301 82 23.5s30 36.5 30 62.5c0 42 -27.667 67.333 -83 76l-113 18c-128.667 19.333 -193 84.666 -193 195.999c0 66 24.667 119.667 74 161s112 62 188 62
c74.667 0 136.5 -18.333 185.5 -55s78.167 -87.667 87.5 -153h-152c-16 52 -56.333 78 -121 78c-30.667 0 -56.167 -7.5 -76.5 -22.5s-30.5 -34.833 -30.5 -59.5c0 -38 26.667 -61 80 -69l111 -17c61.333 -9.33301 109.666 -30.666 144.999 -63.999s53 -79.666 53 -138.999
c0 -70 -24 -125.333 -72 -166s-113.333 -61 -196 -61c-78 0 -142.667 19 -194 57s-81.333 90.333 -90 157z" />
    <glyph glyph-name="T" unicode="T" horiz-adv-x="634" 
d="M31 568v136h572v-136h-209v-568h-153v568h-210z" />
    <glyph glyph-name="U" unicode="U" horiz-adv-x="730" 
d="M69 286v418h153v-414c0 -52.667 12.833 -93.334 38.5 -122.001s60.5 -43 104.5 -43s78.833 14.333 104.5 43s38.5 69.334 38.5 122.001v414h153v-418c0 -97.333 -27.333 -171.333 -82 -222s-126 -76 -214 -76s-159.333 25.333 -214 76s-82 124.667 -82 222z" />
    <glyph glyph-name="V" unicode="V" horiz-adv-x="687" 
d="M674 704l-251 -704h-159l-251 704h161l170 -510l169 510h161z" />
    <glyph glyph-name="W" unicode="W" horiz-adv-x="1012" 
d="M991 704l-208 -704h-145l-133 485l-132 -485h-144l-208 704h155l130 -460l130 460h140l131 -461l130 461h154z" />
    <glyph glyph-name="X" unicode="X" horiz-adv-x="696" 
d="M501 0l-155 241l-154 -241h-171l232 354l-230 350h175l152 -240l154 240h169l-230 -353l232 -351h-174z" />
    <glyph glyph-name="Y" unicode="Y" horiz-adv-x="669" 
d="M411 0h-153v267l-248 437h166l159 -291l159 291h165l-248 -437v-267z" />
    <glyph glyph-name="Z" unicode="Z" horiz-adv-x="629" 
d="M50 121l339 447h-339v136h528v-120l-339 -448h339v-136h-528v121z" />
    <glyph glyph-name="bracketleft" unicode="[" horiz-adv-x="388" 
d="M361 606h-127v-643h127v-121h-267v885h267v-121z" />
    <glyph glyph-name="backslash" unicode="\" horiz-adv-x="409" 
d="M145 727l258 -885h-139l-258 885h139z" />
    <glyph glyph-name="bracketright" unicode="]" horiz-adv-x="388" 
d="M27 -158v121h127v643h-127v121h267v-885h-267z" />
    <glyph glyph-name="asciicircum" unicode="^" horiz-adv-x="486" 
d="M464 343h-131l-88 215l-93 -215h-131l164 353h123z" />
    <glyph glyph-name="underscore" unicode="_" horiz-adv-x="483" 
d="M0 -48h483v-124h-483v124z" />
    <glyph glyph-name="grave" unicode="`" horiz-adv-x="520" 
d="M146 756h134l94 -170h-119z" />
    <glyph glyph-name="a" unicode="a" horiz-adv-x="560" 
d="M359 343c0 23.333 -7.83203 41.333 -23.499 54s-36.167 19 -61.5 19c-46 0 -74 -16.667 -84 -50h-136c7.33301 47.333 30.666 86.333 69.999 117s91.333 46 156 46c68 0 122 -16.5 162 -49.5s60 -80.167 60 -141.5v-338h-135v56c-35.333 -45.333 -86.333 -68 -153 -68
c-52 0 -95 14.667 -129 44s-51 69.333 -51 120c0 52.667 18.833 93.667 56.5 123s89.5 44 155.5 44h113v24zM254.001 101c29.333 0 54.167 8.5 74.5 25.5s30.5 39.833 30.5 68.5v23h-102c-22.667 0 -41.167 -5.33301 -55.5 -16s-21.5 -25 -21.5 -43
s6.66699 -32.167 20 -42.5s31.333 -15.5 54 -15.5z" />
    <glyph glyph-name="b" unicode="b" horiz-adv-x="613" 
d="M354 529c64 0 117.333 -24.166 160 -72.499s64 -114.5 64 -198.5c0 -82.667 -21.667 -148.334 -65 -197.001s-97.666 -73 -162.999 -73c-34.667 0 -64.834 6.5 -90.501 19.5s-44.5 30.167 -56.5 51.5v-59h-140v727h146v-262c32 42.667 80.333 64 145 64zM319 114.001
c34 0 61.167 13 81.5 39s30.5 61 30.5 105s-10.167 79.167 -30.5 105.5s-47.5 39.5 -81.5 39.5s-61.333 -13 -82 -39s-31 -60.667 -31 -104v-4c0 -43.333 10.333 -77.833 31 -103.5s48 -38.5 82 -38.5z" />
    <glyph glyph-name="c" unicode="c" horiz-adv-x="560" 
d="M293 114c51.333 0 83.335 24 96.002 72h139c-4.66699 -57.333 -28.334 -104.666 -71.001 -141.999s-97.667 -56 -165 -56c-78 0 -140.333 25.167 -187 75.5s-70 115.166 -70 194.499c0 78.667 23.333 143.5 70 194.5s109 76.5 187 76.5c68 0 122.667 -19 164 -57
s65 -84.667 71 -140h-140c-14.667 47.333 -46.334 71 -95.001 71c-34 0 -61 -13.167 -81 -39.5s-30 -61.5 -30 -105.5s10.167 -79 30.5 -105s47.5 -39 81.5 -39z" />
    <glyph glyph-name="d" unicode="d" horiz-adv-x="613" 
d="M259 -12c-64 0 -117.333 24.168 -160 72.501s-64 114.166 -64 197.499s21.667 149.333 65 198s97.666 73 162.999 73c64.667 0 111.667 -21 141 -63v261h146v-727h-140v61c-31.333 -48.667 -81.666 -73 -150.999 -73zM294 403.001c-34 0 -61.333 -13.168 -82 -39.501
s-31 -61.5 -31 -105.5c0 -43.333 10.333 -78.166 31 -104.499s48 -39.5 82 -39.5s61.333 13 82 39s31 60.333 31 103v4c0 44 -10.333 78.833 -31 104.5s-48 38.5 -82 38.5z" />
    <glyph glyph-name="e" unicode="e" horiz-adv-x="566" 
d="M531 217l-349.002 0.00195312v-2c0 -32 10.833 -58.667 32.5 -80s49.834 -32 84.501 -32c22.667 0 41.667 4.66699 57 14s25 19.666 29 30.999h141c-8 -42 -31.5 -79.167 -70.5 -111.5s-92.167 -48.5 -159.5 -48.5c-79.333 0 -142.666 23.833 -189.999 71.5
s-71 113.167 -71 196.5s23.167 149.666 69.5 198.999s107.5 74 183.5 74c74 0 133 -23.667 177 -71s66 -111 66 -191v-50zM288.998 415.002c-29.333 0 -53.333 -8.49902 -72 -25.499s-30 -40.5 -34 -70.5h206c-2 29.333 -12 52.666 -30 69.999s-41.333 26 -70 26z" />
    <glyph glyph-name="f" unicode="f" horiz-adv-x="362" 
d="M242 0h-146v398h-80v119h80v34c0 117.333 64.333 176 193 176h47v-116h-26c-47.333 0 -71 -21.667 -71 -65v-29h97v-119h-94v-398z" />
    <glyph glyph-name="g" unicode="g" horiz-adv-x="612" 
d="M409 517h139.998v-480c0 -76 -22.667 -136.167 -68 -180.5s-107.666 -66.5 -186.999 -66.5c-72 0 -128.833 17 -170.5 51s-64.834 74.667 -69.501 122h143c12.667 -38 45.334 -57 98.001 -57c34.667 0 61.334 11.5 80.001 34.5s28 55.5 28 97.5v35
c-31.333 -43.333 -79.666 -65 -144.999 -65c-64 0 -117.167 23.333 -159.5 70s-63.5 110 -63.5 190c0 78 21.5 141 64.5 189s97.167 72 162.5 72c35.333 0 65.666 -6.66699 90.999 -20s44 -30 56 -50v58zM293.998 131c34 0 61.167 12.668 81.5 38.001
s30.5 57.666 30.5 96.999v4c0 39.333 -10 71.833 -30 97.5s-47.333 38.5 -82 38.5c-34 0 -61.333 -13 -82 -39s-31 -59 -31 -99s10.167 -72.833 30.5 -98.5s47.833 -38.5 82.5 -38.5z" />
    <glyph glyph-name="h" unicode="h" horiz-adv-x="597" 
d="M353 529c53.333 0 97.667 -16.501 133 -49.501s53 -82.833 53 -149.5v-330h-146v298c0 32.667 -8 57.5 -24 74.5s-37.667 25.5 -65 25.5c-26 0 -48.333 -8.66699 -67 -26s-28 -42.666 -28 -75.999v-296h-146v727h146v-262c33.333 42.667 81.333 64 144 64z" />
    <glyph glyph-name="i" unicode="i" horiz-adv-x="272" 
d="M209 517v-517h-146v517h146zM135 749c23.333 0 43.166 -8 59.499 -24s24.5 -35.333 24.5 -58c0 -23.333 -8.16699 -43 -24.5 -59s-36.166 -24 -59.499 -24s-43 8 -59 24s-24 35.667 -24 59s8 42.833 24 58.5s35.667 23.5 59 23.5z" />
    <glyph glyph-name="j" unicode="j" horiz-adv-x="272" 
d="M-20 -193v117h21c42 0 63 27.333 63 82v511h145v-516c0 -66.667 -15 -115.667 -45 -147s-79.333 -47 -148 -47h-36zM136 749c23.333 0 43.166 -8 59.499 -24s24.5 -35.333 24.5 -58c0 -23.333 -8.16699 -43 -24.5 -59s-36.166 -24 -59.499 -24s-43 8 -59 24
s-24 35.667 -24 59s8 42.833 24 58.5s35.667 23.5 59 23.5z" />
    <glyph glyph-name="k" unicode="k" horiz-adv-x="552" 
d="M209 0h-146v727h146v-415l169 205h165l-201 -243l205 -274h-170l-168 229v-229z" />
    <glyph glyph-name="l" unicode="l" horiz-adv-x="272" 
d="M209 727v-727h-146v727h146z" />
    <glyph glyph-name="m" unicode="m" horiz-adv-x="900" 
d="M660 529c50 0 92.835 -16.333 128.502 -49s53.5 -81.667 53.5 -147v-333h-146v303c0 32 -7.66699 55.833 -23 71.5s-35.333 23.5 -60 23.5s-45.5 -8.5 -62.5 -25.5s-25.5 -40.5 -25.5 -70.5v-302h-146v303c0 32 -7.66699 55.833 -23 71.5s-35.333 23.5 -60 23.5
s-45.334 -8.5 -62.001 -25.5s-25 -40.5 -25 -70.5v-302h-146v517h140v-60c33.333 48 81.333 72 144 72c67.333 0 116.666 -26.667 147.999 -80c39.333 53.333 94.333 80 165 80z" />
    <glyph glyph-name="n" unicode="n" horiz-adv-x="597" 
d="M63 517l140.001 -0.000976562v-61c13.333 20.667 33 38 59 52s56.333 21 91 21c53.333 0 97.666 -16.5 132.999 -49.5s53 -82.833 53 -149.5v-330h-146v298c0 32.667 -8 57.5 -24 74.5s-37.667 25.5 -65 25.5c-26 0 -48.333 -8.66699 -67 -26s-28 -42.666 -28 -75.999
v-296h-146v517z" />
    <glyph glyph-name="o" unicode="o" horiz-adv-x="591" 
d="M296 529c76.667 0 139.167 -24.833 187.5 -74.5s72.5 -115.167 72.5 -196.5s-24.167 -146.666 -72.5 -195.999s-110.833 -74 -187.5 -74c-77.333 0 -140.166 24.667 -188.499 74s-72.5 114.666 -72.5 195.999s24.167 146.833 72.5 196.5s111.166 74.5 188.499 74.5z
M296 114c34.667 0 62.332 13.333 82.999 40s31 61.334 31 104.001c0 43.333 -10.167 78.333 -30.5 105s-48.166 40 -83.499 40s-63.333 -13.333 -84 -40s-31 -61.667 -31 -105c0 -42.667 10.333 -77.334 31 -104.001s48.667 -40 84 -40z" />
    <glyph glyph-name="p" unicode="p" horiz-adv-x="613" 
d="M354 529c64 0 117.332 -24.166 159.999 -72.499s64 -114.5 64 -198.5c0 -82.667 -21.667 -148.334 -65 -197.001s-97.666 -73 -162.999 -73s-112.333 20.667 -141 62v-241h-146v708h140v-60c32 48 82.333 72 151 72zM318.999 114.001c34 0 61.167 13 81.5 39
s30.5 61 30.5 105s-10.167 79.167 -30.5 105.5s-47.5 39.5 -81.5 39.5s-61.333 -13 -82 -39s-31 -60.667 -31 -104v-4c0 -43.333 10.333 -77.833 31 -103.5s48 -38.5 82 -38.5z" />
    <glyph glyph-name="q" unicode="q" horiz-adv-x="613" 
d="M259 -12c-64 0 -117.333 24.168 -160 72.501s-64 114.166 -64 197.499s21.667 149.333 65 198s97.666 73 162.999 73c34.667 0 64.834 -6.66699 90.501 -20s44.5 -31 56.5 -53v61h140v-708h-146v243c-32 -42.667 -80.333 -64 -145 -64zM294 403.001
c-34 0 -61.333 -13.168 -82 -39.501s-31 -61.5 -31 -105.5c0 -43.333 10.333 -78.166 31 -104.499s48 -39.5 82 -39.5s61.333 13 82 39s31 60.333 31 103v4c0 44 -10.333 78.833 -31 104.5s-48 38.5 -82 38.5z" />
    <glyph glyph-name="r" unicode="r" horiz-adv-x="404" 
d="M353 519h26v-138h-34c-43.333 0 -76.833 -10.5 -100.5 -31.5s-35.5 -50.167 -35.5 -87.5v-262h-146v517h140v-81c30.667 55.333 80.667 83 150 83z" />
    <glyph glyph-name="s" unicode="s" horiz-adv-x="519" 
d="M177 153c8 -36.667 37.998 -55 89.998 -55c24 0 42.667 4.83301 56 14.5s20 22.5 20 38.5c0 24 -19 38.667 -57 44l-88 10c-104 12.667 -156 63.334 -156 152.001c0 50.667 20.333 92 61 124s92.334 48 155.001 48c60.667 0 110.5 -14.333 149.5 -43
s61.833 -68.334 68.5 -119.001h-141c-10 34 -37 51 -81 51c-21.333 0 -38.5 -4.83301 -51.5 -14.5s-19.5 -21.5 -19.5 -35.5c0 -24.667 18 -39 54 -43l92 -11c48 -6 86 -21.667 114 -47s42 -61 42 -107c0 -54 -20.333 -96.167 -61 -126.5s-93 -45.5 -157 -45.5
c-62.667 0 -115.667 14 -159 42s-67.666 69 -72.999 123h142z" />
    <glyph glyph-name="t" unicode="t" horiz-adv-x="374" 
d="M240 192c0 -26 5.66699 -43.833 17 -53.5s28.666 -14.5 51.999 -14.5h30v-125h-56c-65.333 0 -113.166 14.167 -143.499 42.5s-45.5 74.833 -45.5 139.5v217h-79v119h79v132h146v-132h99v-119h-99v-206z" />
    <glyph glyph-name="u" unicode="u" horiz-adv-x="597" 
d="M535 0l-139.999 0.000976562v60c-14 -20.667 -34 -37.834 -60 -51.501s-56.333 -20.5 -91 -20.5c-52.667 0 -96.667 16.333 -132 49s-53 82.667 -53 150v330h145v-298c0 -32.667 8.16699 -57.5 24.5 -74.5s38.166 -25.5 65.499 -25.5c26.667 0 49.167 8.5 67.5 25.5
s27.5 42.5 27.5 76.5v296h146v-517z" />
    <glyph glyph-name="v" unicode="v" horiz-adv-x="543" 
d="M539 517l-192 -517h-152l-191 517h157l111 -339l111 339h156z" />
    <glyph glyph-name="w" unicode="w" horiz-adv-x="814" 
d="M806 517l-161 -517h-143l-96 339l-95 -339h-142l-160 517h148l90 -316l90 316h141l90 -317l89 317h149z" />
    <glyph glyph-name="x" unicode="x" horiz-adv-x="550" 
d="M375 0l-104 159l-102 -159h-159l176 260l-174 257h165l102 -162l103 162h156l-174 -261l176 -256h-165z" />
    <glyph glyph-name="y" unicode="y" horiz-adv-x="550" 
d="M390 517h156l-272 -708h-155l78 205l-193 503h157l114 -333z" />
    <glyph glyph-name="z" unicode="z" horiz-adv-x="511" 
d="M42 0v113l244 278h-244v126h427v-114l-244 -278h244v-125h-427z" />
    <glyph glyph-name="braceleft" unicode="{" horiz-adv-x="400" 
d="M264 418c0 -77.333 -30.333 -122 -91 -134c60.667 -12 91 -57 91 -135v-93c0 -34 5.66699 -58 17 -72s30.666 -21 57.999 -21h33v-121h-40c-139.333 0 -209 62 -209 186v98c0 34 -5.33301 58.667 -16 74s-29.334 23 -56.001 23h-30v120h30
c26.667 0 45.334 7.83301 56.001 23.5s16 40.5 16 74.5v100c0 124 69.667 186 209 186h40v-121h-33c-27.333 0 -46.666 -7 -57.999 -21s-17 -38 -17 -72v-95z" />
    <glyph glyph-name="bar" unicode="|" horiz-adv-x="318" 
d="M90 727h138v-885h-138v885z" />
    <glyph glyph-name="braceright" unicode="}" horiz-adv-x="400" 
d="M136 418v95c0 34 -5.83301 58 -17.5 72s-30.834 21 -57.501 21h-34v121h41c138.667 0 208 -62 208 -186v-100c0 -34 5.33301 -58.833 16 -74.5s29.334 -23.5 56.001 -23.5h30v-120h-30c-26.667 0 -45.334 -7.66699 -56.001 -23s-16 -40 -16 -74v-98
c0 -124 -69.333 -186 -208 -186h-41v121h34c26.667 0 45.834 7 57.501 21s17.5 38 17.5 72v93c0 78 30 123 90 135c-60 12 -90 56.667 -90 134z" />
    <glyph glyph-name="asciitilde" unicode="~" horiz-adv-x="642" 
d="M460 368l117 0.000976562v-31c0 -53.333 -15.167 -95 -45.5 -125s-67.5 -45 -111.5 -45c-27.333 0 -53.166 6.83301 -77.499 20.5s-45.833 27.5 -64.5 41.5s-34.667 21 -48 21c-14 0 -25.5 -5 -34.5 -15s-13.5 -23 -13.5 -39v-20h-116v30c0 53.333 15 95 45 125
s67.333 45 112 45c27.333 0 53.166 -6.83301 77.499 -20.5s45.833 -27.334 64.5 -41.001s34.667 -20.5 48 -20.5s24.5 4.83301 33.5 14.5s13.5 22.5 13.5 38.5v21z" />
    <glyph glyph-name="nonbreakingspace" unicode="&#xa0;" horiz-adv-x="216" 
 />
    <glyph glyph-name="exclamdown" unicode="&#xa1;" horiz-adv-x="335" 
d="M102 282h129l11 -473h-151zM168 529c24.667 0 45.334 -8.33301 62.001 -25s25 -37.334 25 -62.001s-8.33301 -45.334 -25 -62.001s-37.334 -25 -62.001 -25c-25.333 0 -46.5 8.33301 -63.5 25s-25.5 37.334 -25.5 62.001s8.5 45.334 25.5 62.001s38.167 25 63.5 25z" />
    <glyph glyph-name="cent" unicode="&#xa2;" horiz-adv-x="582" 
d="M304 204c28.667 0 51.334 7 68.001 21s27.667 31 33 51h139c-4 -49.333 -22.833 -91.666 -56.5 -126.999s-77.834 -57.666 -132.501 -66.999v-92h-117v95c-60 13.333 -107.667 44.166 -143 92.499s-53 106.5 -53 174.5s17.667 126.167 53 174.5s83 79.166 143 92.499v95
h117v-93c54 -9.33301 97.5 -31.833 130.5 -67.5s52.167 -77.167 57.5 -124.5h-140c-6 19.333 -17.5 36 -34.5 50s-39.167 21 -66.5 21c-34 0 -61.5 -13.5 -82.5 -40.5s-31.5 -62.833 -31.5 -107.5c0 -45.333 10.667 -81.333 32 -108s49.333 -40 84 -40z" />
    <glyph glyph-name="sterling" unicode="&#xa3;" horiz-adv-x="608" 
d="M496 287l-206.005 -0.000976562c0 -56 -23 -108.333 -69 -157h342v-130h-518v121c26.667 22 49.834 47.5 69.501 76.5s29.5 58.167 29.5 87.5v2h-102v111h68c-15.333 40.667 -23 76.667 -23 108c0 60 21.833 110 65.5 150s101.167 60 172.5 60
c68.667 0 124.334 -18.833 167.001 -56.5s67.334 -85.5 74.001 -143.5h-146c-5.33301 21.333 -16.166 38.5 -32.499 51.5s-37.166 19.5 -62.499 19.5c-26.667 0 -48 -7.83301 -64 -23.5s-24 -37.5 -24 -65.5c0 -19.333 9 -52.666 27 -99.999h232v-111z" />
    <glyph glyph-name="currency" unicode="&#xa4;" horiz-adv-x="632" 
d="M548 352c0 -40.667 -11 -78.667 -33 -114l86 -84l-87 -89l-87 88c-34 -18.667 -71 -28 -111 -28s-77 9.33301 -111 28l-87 -88l-87 89l85 83c-21.333 36 -32 74.333 -32 115c0 40 10.667 78 32 114l-85 84l87 89l87 -88c34 18.667 71 28 111 28
c38.667 0 75.667 -9.66699 111 -29l87 89l87 -89l-86 -84c22 -35.333 33 -73.333 33 -114zM213 352c0 -30.667 10.167 -55.8301 30.5 -75.4971s44.5 -29.5 72.5 -29.5c28.667 0 53.167 9.66699 73.5 29s30.5 44.666 30.5 75.999s-10.167 56.666 -30.5 75.999
s-44.833 29 -73.5 29c-28 0 -52.167 -9.83301 -72.5 -29.5s-30.5 -44.834 -30.5 -75.501z" />
    <glyph glyph-name="yen" unicode="&#xa5;" horiz-adv-x="645" 
d="M557 113h-160v-113h-149v113h-160v99h160v61h-160v99h111l-184 332h161l147 -281l147 281h160l-184 -332h111v-99h-160v-61h160v-99z" />
    <glyph glyph-name="brokenbar" unicode="&#xa6;" horiz-adv-x="318" 
d="M228 207v-365h-138v365h138zM90 362v365h138v-365h-138z" />
    <glyph glyph-name="section" unicode="&#xa7;" horiz-adv-x="563" 
d="M39 275c0 32.667 9.00195 60.498 27.002 83.498s40.333 40.833 67 53.5c-44.667 29.333 -67 71 -67 125c0 52.667 20.5 95.667 61.5 129s93.5 50 157.5 50c58 0 107.667 -14.833 149 -44.5s64.333 -69.5 69 -119.5h-143c-9.33301 34 -35.333 51 -78 51
c-21.333 0 -38.5 -5 -51.5 -15s-19.5 -23.333 -19.5 -40c0 -27.333 19.667 -44.333 59 -51l111 -21c44.667 -8.66699 79.667 -26 105 -52s38 -58.333 38 -97c0 -29.333 -8.33301 -55.5 -25 -78.5s-37.334 -40.833 -62.001 -53.5c42 -31.333 63 -73 63 -125
c0 -53.333 -20.833 -97.166 -62.5 -131.499s-94.834 -51.5 -159.501 -51.5c-63.333 0 -115.666 15 -156.999 45s-64.333 71.667 -69 125h144c3.33301 -17.333 12.666 -31 27.999 -41s34.333 -15 57 -15c22 0 39.833 5.33301 53.5 16s20.5 24.334 20.5 41.001
c0 28.667 -19.667 46.667 -59 54l-112 20c-44 8 -79.167 24.333 -105.5 49s-39.5 56 -39.5 94zM183.002 308.998c0 -34 21.667 -54.333 65 -61l86 -16c30 17.333 45 40 45 68c0 34 -23 55.333 -69 64l-75 14c-34.667 -16.667 -52 -39.667 -52 -69z" />
    <glyph glyph-name="dieresis" unicode="&#xa8;" horiz-adv-x="520" 
d="M150 743c21.333 0 39.666 -7.5 54.999 -22.5s23 -33.167 23 -54.5s-7.66699 -39.666 -23 -54.999s-33.666 -23 -54.999 -23c-22 0 -40.667 7.66699 -56 23s-23 33.666 -23 54.999s7.66699 39.5 23 54.5s34 22.5 56 22.5zM369 743c22 0 40.5 -7.5 55.5 -22.5
s22.5 -33.167 22.5 -54.5s-7.5 -39.666 -22.5 -54.999s-33.5 -23 -55.5 -23s-40.5 7.66699 -55.5 23s-22.5 33.666 -22.5 54.999s7.5 39.5 22.5 54.5s33.5 22.5 55.5 22.5z" />
    <glyph glyph-name="copyright" unicode="&#xa9;" horiz-adv-x="876" 
d="M438 -12c86.667 0 158.834 29.167 216.501 87.5s86.5 132.5 86.5 222.5s-28.833 164.167 -86.5 222.5s-129.834 87.5 -216.501 87.5c-86 0 -158 -29.167 -216 -87.5s-87 -132.5 -87 -222.5s29 -164.167 87 -222.5s130 -87.5 216 -87.5zM438 -109
c-113.333 0 -208.833 38.6689 -286.5 116.002s-116.5 174.333 -116.5 291c0 117.333 38.833 214.666 116.5 291.999s173.167 116 286.5 116s208.833 -38.833 286.5 -116.5s116.5 -174.834 116.5 -291.501s-38.833 -213.667 -116.5 -291s-173.167 -116 -286.5 -116z
M439 188.002c41.333 0 66.6689 19.667 76.002 59h116c-4 -49.333 -24.333 -89.5 -61 -120.5s-81 -46.5 -133 -46.5c-60.667 0 -110.834 20.167 -150.501 60.5s-59.5 92.833 -59.5 157.5c0 65.333 19.667 118.333 59 159s89.666 61 150.999 61c54 0 98.333 -15.167 133 -45.5
s55 -69.5 61 -117.5h-119c-10 37.333 -35 56 -75 56c-26 0 -46.833 -10 -62.5 -30s-23.5 -47.667 -23.5 -83c0 -34.667 8 -61.667 24 -81s37.333 -29 64 -29z" />
    <glyph glyph-name="ordfeminine" unicode="&#xaa;" horiz-adv-x="411" 
d="M259 582c0 33.333 -19.333 49.998 -58 49.998c-31.333 0 -50 -10.667 -56 -32h-104c5.33301 34 22.833 61.833 52.5 83.5s67.167 32.5 112.5 32.5c50 0 89.667 -11.667 119 -35s44 -56.666 44 -99.999v-235h-102v40c-25.333 -32.667 -62.333 -49 -111 -49
c-37.333 0 -68.333 10.5 -93 31.5s-37 49.167 -37 84.5c0 36.667 13.833 65.334 41.5 86.001s65.5 31 113.5 31h78v12zM189 421.998c19.333 0 35.834 5.5 49.501 16.5s20.5 25.5 20.5 43.5v14h-70c-34 0 -51 -12.333 -51 -37c0 -10.667 4.66699 -19.5 14 -26.5
s21.666 -10.5 36.999 -10.5z" />
    <glyph glyph-name="guillemotleft" unicode="&#xab;" horiz-adv-x="684" 
d="M204 263l170 -215h-153l-175 215l175 216h153zM467 263l170 -215h-153l-175 215l175 216h153z" />
    <glyph glyph-name="logicalnot" unicode="&#xac;" horiz-adv-x="642" 
d="M74 408h487v-301h-136v168h-351v133z" />
    <glyph glyph-name="uni00AD" unicode="&#xad;" horiz-adv-x="443" 
d="M59 207v132h325v-132h-325z" />
    <glyph glyph-name="registered" unicode="&#xae;" horiz-adv-x="625" 
d="M312 179c-77.333 0 -142.833 26.833 -196.5 80.5s-80.5 120.5 -80.5 200.5s26.667 146.667 80 200s119 80 197 80s143.833 -26.667 197.5 -80s80.5 -120 80.5 -200c0 -80.667 -26.833 -147.667 -80.5 -201s-119.5 -80 -197.5 -80zM312 260c56 0 102.667 18.833 140 56.5
s56 85.5 56 143.5s-18.667 105.833 -56 143.5s-84 56.5 -140 56.5c-55.333 0 -101.666 -18.833 -138.999 -56.5s-56 -85.5 -56 -143.5s18.667 -105.833 56 -143.5s83.666 -56.5 138.999 -56.5zM420 501c0 -29.333 -12.332 -52.999 -36.999 -70.999l55 -99h-83l-44 78h-30
v-78h-75v260h112c31.333 0 56.166 -8.33301 74.499 -25s27.5 -38.334 27.5 -65.001zM311.001 529.001l-30 -0.000976562v-59h30c9.33301 0 16.833 2.83301 22.5 8.5s8.5 12.834 8.5 21.501s-2.83301 15.667 -8.5 21s-13.167 8 -22.5 8z" />
    <glyph glyph-name="macron" unicode="&#xaf;" horiz-adv-x="520" 
d="M99 717h322v-103h-322v103z" />
    <glyph glyph-name="degree" unicode="&#xb0;" horiz-adv-x="476" 
d="M436 516c0 -56 -19.333 -102.667 -58 -140s-85.334 -56 -140.001 -56c-55.333 0 -102.166 18.667 -140.499 56s-57.5 84 -57.5 140c0 55.333 19.167 101.666 57.5 138.999s85.166 56 140.499 56c54.667 0 101.334 -18.667 140.001 -56s58 -83.666 58 -138.999zM154 516
c0 -24.667 8.16699 -45 24.5 -61s36.166 -24 59.499 -24s43 8 59 24s24 36.333 24 61c0 24 -8 44 -24 60s-35.667 24 -59 24s-43.166 -8 -59.499 -24s-24.5 -36 -24.5 -60z" />
    <glyph glyph-name="plusminus" unicode="&#xb1;" horiz-adv-x="642" 
d="M565 275h-180v-153h180v-120h-487v120h179v153h-180v115h180v158h128v-158h180v-115z" />
    <glyph glyph-name="twosuperior" unicode="&#xb2;" horiz-adv-x="411" 
d="M198 433l180.999 0.000976562v-99h-339v93l170 147c30 26 45 47.667 45 65c0 12 -4.83301 22 -14.5 30s-22.167 12 -37.5 12c-31.333 0 -50 -13.667 -56 -41h-112c3.33301 40.667 20.333 74.167 51 100.5s70.667 39.5 120 39.5c50.667 0 91 -13 121 -39
s45 -58.333 45 -97c0 -28 -6.66699 -51.833 -20 -71.5s-32.666 -39.834 -57.999 -60.501z" />
    <glyph glyph-name="threesuperior" unicode="&#xb3;" horiz-adv-x="417" 
d="M34 646c4 40.667 22.5 73.166 55.5 97.499s72.167 36.5 117.5 36.5c48 0 87.167 -11.5 117.5 -34.5s45.5 -51.833 45.5 -86.5c0 -44.667 -21.667 -76.334 -65 -95.001c21.333 -6 40.333 -18.167 57 -36.5s25 -41.166 25 -68.499c0 -38.667 -16.667 -70.667 -50 -96
s-75.666 -38 -126.999 -38c-49.333 0 -91 12.833 -125 38.5s-52.333 59.834 -55 102.501h112c3.33301 -12.667 11.166 -23 23.499 -31s27.166 -12 44.499 -12c16.667 0 30.667 4 42 12s17 19 17 33c0 27.333 -20.667 41 -62 41h-50v95h39c18 0 32.167 3.66699 42.5 11
s15.5 17 15.5 29c0 11.333 -4.83301 20.5 -14.5 27.5s-22.167 10.5 -37.5 10.5c-14.667 0 -27.167 -3.5 -37.5 -10.5s-16.166 -15.5 -17.499 -25.5h-113z" />
    <glyph glyph-name="acute" unicode="&#xb4;" horiz-adv-x="520" 
d="M374 756l-109 -170h-119l94 170h134z" />
    <glyph glyph-name="mu" unicode="&#xb5;" horiz-adv-x="603" 
d="M394 517l146.001 0.000976562v-517h-140v60c-14 -20.667 -34 -37.834 -60 -51.501s-56.333 -20.5 -91 -20.5c-14.667 0 -28 2.66699 -40 8v-187h-146v708h146v-298c0 -32.667 8.16699 -57.5 24.5 -74.5s38.166 -25.5 65.499 -25.5c26.667 0 49.167 8.5 67.5 25.5
s27.5 42.5 27.5 76.5v296z" />
    <glyph glyph-name="paragraph" unicode="&#xb6;" horiz-adv-x="647" 
d="M39 498c0 60.667 20.167 110.168 60.5 148.501s94.166 57.5 161.499 57.5h126v-805h-117v395h-9c-67.333 0 -121.166 19.167 -161.499 57.5s-60.5 87.166 -60.5 146.499zM457 704.001h116v-805h-116v805z" />
    <glyph glyph-name="periodcentered" unicode="&#xb7;" horiz-adv-x="295" 
d="M148 346c24.667 0 45.334 -8.33301 62.001 -25s25 -37.334 25 -62.001s-8.33301 -45.334 -25 -62.001s-37.334 -25 -62.001 -25c-25.333 0 -46.5 8.33301 -63.5 25s-25.5 37.334 -25.5 62.001s8.5 45.334 25.5 62.001s38.167 25 63.5 25z" />
    <glyph glyph-name="cedilla" unicode="&#xb8;" horiz-adv-x="520" 
d="M296 14l0.000976562 -14l-16 -49c23.333 -2.66699 43.666 -12 60.999 -28s26 -37.667 26 -65c0 -34 -13 -61.167 -39 -81.5s-64 -30.5 -114 -30.5h-63v82h51c30.667 0 46 11.667 46 35c0 22 -15 33 -45 33h-30v21l36 97h87z" />
    <glyph glyph-name="onesuperior" unicode="&#xb9;" horiz-adv-x="305" 
d="M239 772v-438h-116v315l-95 -59v113l103 69h108z" />
    <glyph glyph-name="ordmasculine" unicode="&#xba;" horiz-adv-x="432" 
d="M216 716c55.333 0 100.666 -17.5 135.999 -52.5s53 -80.833 53 -137.5s-17.667 -102.334 -53 -137.001s-80.666 -52 -135.999 -52s-100.833 17.5 -136.5 52.5s-53.5 80.833 -53.5 137.5s17.833 102.334 53.5 137.001s81.167 52 136.5 52zM216 433
c23.333 0 42 8.66797 56 26.001s21 39.666 21 66.999s-7 50 -21 68s-32.667 27 -56 27s-42.166 -8.83301 -56.499 -26.5s-21.5 -40.167 -21.5 -67.5s7.16699 -49.833 21.5 -67.5s33.166 -26.5 56.499 -26.5z" />
    <glyph glyph-name="guillemotright" unicode="&#xbb;" horiz-adv-x="684" 
d="M217 263l-171 216h154l174 -216l-174 -215h-154zM479 263l-170 216h153l175 -216l-175 -215h-153z" />
    <glyph glyph-name="onequarter" unicode="&#xbc;" horiz-adv-x="996" 
d="M239 704v-438h-116v315l-95 -59v113l103 69h108zM142 0l499 704h135l-499 -704h-135zM970 172v-93h-58v-79h-112v79h-211v93l173 266h150v-266h58zM700 172h100v151z" />
    <glyph glyph-name="onehalf" unicode="&#xbd;" horiz-adv-x="1024" 
d="M239 704v-438h-116v315l-95 -59v113l103 69h108zM142 0l499 704h135l-499 -704h-135zM811 99l180.999 0.000976562v-99h-339v93l170 147c30 26 45 47.667 45 65c0 12 -4.83301 22 -14.5 30s-22.167 12 -37.5 12c-31.333 0 -50 -13.667 -56 -41h-112
c3.33301 40.667 20.333 74.167 51 100.5s70.667 39.5 120 39.5c50.667 0 91 -13 121 -39s45 -58.333 45 -97c0 -28 -6.66699 -51.833 -20 -71.5s-32.666 -39.834 -57.999 -60.501z" />
    <glyph glyph-name="threequarters" unicode="&#xbe;" horiz-adv-x="1108" 
d="M34 578c4 40.667 22.5 73.166 55.5 97.499s72.167 36.5 117.5 36.5c48 0 87.167 -11.5 117.5 -34.5s45.5 -51.833 45.5 -86.5c0 -44.667 -21.667 -76.334 -65 -95.001c21.333 -6 40.333 -18.167 57 -36.5s25 -41.166 25 -68.499c0 -38.667 -16.667 -70.667 -50 -96
s-75.666 -38 -126.999 -38c-49.333 0 -91 12.833 -125 38.5s-52.333 59.834 -55 102.501h112c3.33301 -12.667 11.166 -23 23.499 -31s27.166 -12 44.499 -12c16.667 0 30.667 4 42 12s17 19 17 33c0 27.333 -20.667 41 -62 41h-50v95h39c18 0 32.167 3.66699 42.5 11
s15.5 17 15.5 29c0 11.333 -4.83301 20.5 -14.5 27.5s-22.167 10.5 -37.5 10.5c-14.667 0 -27.167 -3.5 -37.5 -10.5s-16.166 -15.5 -17.499 -25.5h-113zM254 -0.000976562l499 704h135l-499 -704h-135zM1082 171.999v-93h-58v-79h-112v79h-211v93l173 266h150v-266h58z
M812 171.999h100v151z" />
    <glyph glyph-name="questiondown" unicode="&#xbf;" horiz-adv-x="543" 
d="M290 529c24.667 0 45.5 -8.33301 62.5 -25s25.5 -37.334 25.5 -62.001s-8.5 -45.334 -25.5 -62.001s-37.833 -25 -62.5 -25s-45.5 8.33301 -62.5 25s-25.5 37.334 -25.5 62.001s8.5 45.334 25.5 62.001s37.833 25 62.5 25zM186 -2
c0 -20.667 7.66406 -37.3271 22.9971 -49.9941s36 -19 62 -19c27.333 0 49.833 6.83301 67.5 20.5s29.167 32.5 34.5 56.5h137c-4 -59.333 -28 -108.5 -72 -147.5s-100.667 -58.5 -170 -58.5c-70.667 0 -126.167 18 -166.5 54s-60.5 81.667 -60.5 137
c0 31.333 5.83301 58.666 17.5 81.999s23.834 40.166 36.501 50.499s29.334 22.166 50.001 35.499c4.66699 2.66699 8 4.66699 10 6c14.667 9.33301 24.834 16 30.501 20s12.667 10.167 21 18.5s13.833 17.166 16.5 26.499s4 20.666 4 33.999v19h134v-33
c0 -42 -7.66699 -73.833 -23 -95.5s-40.666 -43.834 -75.999 -66.501c-20 -12.667 -33.333 -21.5 -40 -26.5s-14.334 -13.333 -23.001 -25s-13 -24.5 -13 -38.5z" />
    <glyph glyph-name="Agrave" unicode="&#xc0;" horiz-adv-x="699" 
d="M270 704h158l258 -704h-158l-50 145h-258l-49 -145h-158zM348 527l-85 -254h170zM177 941h134l94 -170h-119z" />
    <glyph glyph-name="Aacute" unicode="&#xc1;" horiz-adv-x="699" 
d="M270 704h158l258 -704h-158l-50 145h-258l-49 -145h-158zM348 527l-85 -254h170zM523 941l-109 -170h-119l94 170h134z" />
    <glyph glyph-name="Acircumflex" unicode="&#xc2;" horiz-adv-x="699" 
d="M270 704h158l258 -704h-158l-50 145h-258l-49 -145h-158zM348 527l-85 -254h170zM274 771h-126l142 170h120l142 -170h-126l-76 84z" />
    <glyph glyph-name="Atilde" unicode="&#xc3;" horiz-adv-x="699" 
d="M270 704h158l258 -704h-158l-50 145h-258l-49 -145h-158zM348 527l-85 -254h170zM445 928l91 0.000976562v-22c0 -44 -10.333 -78 -31 -102s-48.667 -36 -84 -36c-19.333 0 -38 5 -56 15s-33.5 20 -46.5 30s-23.5 15 -31.5 15c-9.33301 0 -17.166 -3.33301 -23.499 -10
s-9.5 -16.334 -9.5 -29.001v-14h-90v22c0 44 10.167 78 30.5 102s48.166 36 83.499 36c19.333 0 38 -4.83301 56 -14.5s33.5 -19.5 46.5 -29.5s23.5 -15 31.5 -15c22 0 33 12.667 33 38v14z" />
    <glyph glyph-name="Adieresis" unicode="&#xc4;" horiz-adv-x="699" 
d="M270 704h158l258 -704h-158l-50 145h-258l-49 -145h-158zM348 527l-85 -254h170zM236 928c22 0 40.5 -7.66699 55.5 -23s22.5 -33.666 22.5 -54.999s-7.5 -39.5 -22.5 -54.5s-33.5 -22.5 -55.5 -22.5s-40.5 7.5 -55.5 22.5s-22.5 33.167 -22.5 54.5
s7.5 39.666 22.5 54.999s33.5 23 55.5 23zM465 928c21.333 0 39.666 -7.66699 54.999 -23s23 -33.666 23 -54.999s-7.66699 -39.5 -23 -54.5s-33.666 -22.5 -54.999 -22.5c-22 0 -40.5 7.5 -55.5 22.5s-22.5 33.167 -22.5 54.5s7.5 39.666 22.5 54.999s33.5 23 55.5 23z" />
    <glyph glyph-name="Aring" unicode="&#xc5;" horiz-adv-x="699" 
d="M270 704h158l258 -704h-158l-50 145h-258l-49 -145h-158zM348 527l-85 -254h170zM472 876c0 -33.333 -11.667 -61.166 -35 -83.499s-52.333 -33.5 -87 -33.5s-63.667 11.167 -87 33.5s-35 50.166 -35 83.499c0 34 11.5 62 34.5 84s52.167 33 87.5 33s64.5 -11 87.5 -33
s34.5 -50 34.5 -84zM307 876c0 -12.667 4.16699 -23 12.5 -31s18.5 -12 30.5 -12s22.167 4 30.5 12s12.5 18.333 12.5 31s-4.16699 23 -12.5 31s-18.5 12 -30.5 12s-22.167 -4 -30.5 -12s-12.5 -18.333 -12.5 -31z" />
    <glyph glyph-name="AE" unicode="&#xc6;" horiz-adv-x="1004" 
d="M399 704h555v-136h-319v-144h300v-131h-300v-157h319v-136h-470v146h-239l-82 -146h-160zM317 273h167v297z" />
    <glyph glyph-name="Ccedilla" unicode="&#xc7;" horiz-adv-x="715" 
d="M525 243h152.001c-4.66699 -61.333 -29.334 -116.666 -74.001 -165.999s-107 -78.333 -187 -87l-13 -39c23.333 -2.66699 43.666 -12 60.999 -28s26 -37.667 26 -65c0 -34 -13 -61.167 -39 -81.5s-64 -30.5 -114 -30.5h-63v82h51c30.667 0 46 11.667 46 35
c0 22 -15 33 -45 33h-30v21l27 74c-83.333 10.667 -151 48.167 -203 112.5s-78 147.166 -78 248.499c0 108.667 30.667 196.5 92 263.5s140.333 100.5 237 100.5c88.667 0 159.334 -24 212.001 -72s83.667 -108.667 93 -182h-152c-8.66699 34 -26 62 -52 84
s-59.667 33 -101 33c-51.333 0 -93 -20.667 -125 -62s-48 -96.333 -48 -165c0 -68 16 -122.833 48 -164.5s74 -62.5 126 -62.5c43.333 0 78.333 12.167 105 36.5s42.667 51.5 48 81.5z" />
    <glyph glyph-name="Egrave" unicode="&#xc8;" horiz-adv-x="596" 
d="M546 568h-319v-144h300v-131h-300v-157h319v-136h-472v704h472v-136zM140 941h134l94 -170h-119z" />
    <glyph glyph-name="Eacute" unicode="&#xc9;" horiz-adv-x="596" 
d="M546 568h-319v-144h300v-131h-300v-157h319v-136h-472v704h472v-136zM486 941l-109 -170h-119l94 170h134z" />
    <glyph glyph-name="Ecircumflex" unicode="&#xca;" horiz-adv-x="596" 
d="M546 568h-319v-144h300v-131h-300v-157h319v-136h-472v704h472v-136zM237 771h-126l142 170h120l142 -170h-126l-76 84z" />
    <glyph glyph-name="Edieresis" unicode="&#xcb;" horiz-adv-x="596" 
d="M546 568h-319v-144h300v-131h-300v-157h319v-136h-472v704h472v-136zM199 928c22 0 40.5 -7.66699 55.5 -23s22.5 -33.666 22.5 -54.999s-7.5 -39.5 -22.5 -54.5s-33.5 -22.5 -55.5 -22.5s-40.5 7.5 -55.5 22.5s-22.5 33.167 -22.5 54.5s7.5 39.666 22.5 54.999
s33.5 23 55.5 23zM428 928c21.333 0 39.666 -7.66699 54.999 -23s23 -33.666 23 -54.999s-7.66699 -39.5 -23 -54.5s-33.666 -22.5 -54.999 -22.5c-22 0 -40.5 7.5 -55.5 22.5s-22.5 33.167 -22.5 54.5s7.5 39.666 22.5 54.999s33.5 23 55.5 23z" />
    <glyph glyph-name="Igrave" unicode="&#xcc;" horiz-adv-x="301" 
d="M227 704v-704h-153v704h153zM-21 941h134l94 -170h-119z" />
    <glyph glyph-name="Iacute" unicode="&#xcd;" horiz-adv-x="301" 
d="M227 704v-704h-153v704h153zM323 941l-109 -170h-119l94 170h134z" />
    <glyph glyph-name="Icircumflex" unicode="&#xce;" horiz-adv-x="301" 
d="M227 704v-704h-153v704h153zM79 771h-126l138 170h120l138 -170h-125l-73 84z" />
    <glyph glyph-name="Idieresis" unicode="&#xcf;" horiz-adv-x="301" 
d="M227 704v-704h-153v704h153zM42 928c21.333 0 39.666 -7.5 54.999 -22.5s23 -33.167 23 -54.5s-7.66699 -39.666 -23 -54.999s-33.666 -23 -54.999 -23c-22 0 -40.667 7.66699 -56 23s-23 33.666 -23 54.999s7.66699 39.5 23 54.5s34 22.5 56 22.5zM261 928
c22 0 40.5 -7.5 55.5 -22.5s22.5 -33.167 22.5 -54.5s-7.5 -39.666 -22.5 -54.999s-33.5 -23 -55.5 -23s-40.5 7.66699 -55.5 23s-22.5 33.666 -22.5 54.999s7.5 39.5 22.5 54.5s33.5 22.5 55.5 22.5z" />
    <glyph glyph-name="Eth" unicode="&#xd0;" horiz-adv-x="736" 
d="M343 704c111.333 0 197.666 -31.167 258.999 -93.5s92 -148.5 92 -258.5s-30.667 -196.167 -92 -258.5s-147.666 -93.5 -258.999 -93.5h-249v303h-73v115h73v286h249zM380 303h-133v-169h84c68 0 119.667 19 155 57s53 91.667 53 161s-17.667 123 -53 161s-87 57 -155 57
h-84v-152h133v-115z" />
    <glyph glyph-name="Ntilde" unicode="&#xd1;" horiz-adv-x="747" 
d="M234 704l292 -446v446h147v-704h-144l-308 468v-468h-147v704h160zM471 928l91 0.000976562v-22c0 -44 -10.333 -78 -31 -102s-48.667 -36 -84 -36c-19.333 0 -38 5 -56 15s-33.5 20 -46.5 30s-23.5 15 -31.5 15c-9.33301 0 -17.166 -3.33301 -23.499 -10
s-9.5 -16.334 -9.5 -29.001v-14h-90v22c0 44 10.167 78 30.5 102s48.166 36 83.499 36c19.333 0 38 -4.83301 56 -14.5s33.5 -19.5 46.5 -29.5s23.5 -15 31.5 -15c22 0 33 12.667 33 38v14z" />
    <glyph glyph-name="Ograve" unicode="&#xd2;" horiz-adv-x="758" 
d="M379 716c100 0 181.167 -33.5 243.5 -100.5s93.5 -154.833 93.5 -263.5s-31.167 -196.5 -93.5 -263.5s-143.5 -100.5 -243.5 -100.5s-181.167 33.5 -243.5 100.5s-93.5 154.833 -93.5 263.5s31.167 196.5 93.5 263.5s143.5 100.5 243.5 100.5zM379 125
c56 0 100.167 21.167 132.5 63.5s48.5 96.833 48.5 163.5s-16.167 121.167 -48.5 163.5s-76.5 63.5 -132.5 63.5s-100.167 -21.167 -132.5 -63.5s-48.5 -96.833 -48.5 -163.5s16.167 -121.167 48.5 -163.5s76.5 -63.5 132.5 -63.5zM206 941h134l94 -170h-119z" />
    <glyph glyph-name="Oacute" unicode="&#xd3;" horiz-adv-x="758" 
d="M379 716c100 0 181.167 -33.5 243.5 -100.5s93.5 -154.833 93.5 -263.5s-31.167 -196.5 -93.5 -263.5s-143.5 -100.5 -243.5 -100.5s-181.167 33.5 -243.5 100.5s-93.5 154.833 -93.5 263.5s31.167 196.5 93.5 263.5s143.5 100.5 243.5 100.5zM379 125
c56 0 100.167 21.167 132.5 63.5s48.5 96.833 48.5 163.5s-16.167 121.167 -48.5 163.5s-76.5 63.5 -132.5 63.5s-100.167 -21.167 -132.5 -63.5s-48.5 -96.833 -48.5 -163.5s16.167 -121.167 48.5 -163.5s76.5 -63.5 132.5 -63.5zM552 941l-109 -170h-119l94 170h134z" />
    <glyph glyph-name="Ocircumflex" unicode="&#xd4;" horiz-adv-x="758" 
d="M379 716c100 0 181.167 -33.5 243.5 -100.5s93.5 -154.833 93.5 -263.5s-31.167 -196.5 -93.5 -263.5s-143.5 -100.5 -243.5 -100.5s-181.167 33.5 -243.5 100.5s-93.5 154.833 -93.5 263.5s31.167 196.5 93.5 263.5s143.5 100.5 243.5 100.5zM379 125
c56 0 100.167 21.167 132.5 63.5s48.5 96.833 48.5 163.5s-16.167 121.167 -48.5 163.5s-76.5 63.5 -132.5 63.5s-100.167 -21.167 -132.5 -63.5s-48.5 -96.833 -48.5 -163.5s16.167 -121.167 48.5 -163.5s76.5 -63.5 132.5 -63.5zM303 771h-126l142 170h120l142 -170h-126
l-76 84z" />
    <glyph glyph-name="Otilde" unicode="&#xd5;" horiz-adv-x="758" 
d="M379 716c100 0 181.167 -33.5 243.5 -100.5s93.5 -154.833 93.5 -263.5s-31.167 -196.5 -93.5 -263.5s-143.5 -100.5 -243.5 -100.5s-181.167 33.5 -243.5 100.5s-93.5 154.833 -93.5 263.5s31.167 196.5 93.5 263.5s143.5 100.5 243.5 100.5zM379 125
c56 0 100.167 21.167 132.5 63.5s48.5 96.833 48.5 163.5s-16.167 121.167 -48.5 163.5s-76.5 63.5 -132.5 63.5s-100.167 -21.167 -132.5 -63.5s-48.5 -96.833 -48.5 -163.5s16.167 -121.167 48.5 -163.5s76.5 -63.5 132.5 -63.5zM474 928l91 0.000976562v-22
c0 -44 -10.333 -78 -31 -102s-48.667 -36 -84 -36c-19.333 0 -38 5 -56 15s-33.5 20 -46.5 30s-23.5 15 -31.5 15c-9.33301 0 -17.166 -3.33301 -23.499 -10s-9.5 -16.334 -9.5 -29.001v-14h-90v22c0 44 10.167 78 30.5 102s48.166 36 83.499 36
c19.333 0 38 -4.83301 56 -14.5s33.5 -19.5 46.5 -29.5s23.5 -15 31.5 -15c22 0 33 12.667 33 38v14z" />
    <glyph glyph-name="Odieresis" unicode="&#xd6;" horiz-adv-x="758" 
d="M379 716c100 0 181.167 -33.5 243.5 -100.5s93.5 -154.833 93.5 -263.5s-31.167 -196.5 -93.5 -263.5s-143.5 -100.5 -243.5 -100.5s-181.167 33.5 -243.5 100.5s-93.5 154.833 -93.5 263.5s31.167 196.5 93.5 263.5s143.5 100.5 243.5 100.5zM379 125
c56 0 100.167 21.167 132.5 63.5s48.5 96.833 48.5 163.5s-16.167 121.167 -48.5 163.5s-76.5 63.5 -132.5 63.5s-100.167 -21.167 -132.5 -63.5s-48.5 -96.833 -48.5 -163.5s16.167 -121.167 48.5 -163.5s76.5 -63.5 132.5 -63.5zM265 928c22 0 40.5 -7.66699 55.5 -23
s22.5 -33.666 22.5 -54.999s-7.5 -39.5 -22.5 -54.5s-33.5 -22.5 -55.5 -22.5s-40.5 7.5 -55.5 22.5s-22.5 33.167 -22.5 54.5s7.5 39.666 22.5 54.999s33.5 23 55.5 23zM494 928c21.333 0 39.666 -7.66699 54.999 -23s23 -33.666 23 -54.999s-7.66699 -39.5 -23 -54.5
s-33.666 -22.5 -54.999 -22.5c-22 0 -40.5 7.5 -55.5 22.5s-22.5 33.167 -22.5 54.5s7.5 39.666 22.5 54.999s33.5 23 55.5 23z" />
    <glyph glyph-name="multiply" unicode="&#xd7;" horiz-adv-x="642" 
d="M567 115l-88 -87l-158 157l-158 -158l-88 88l158 158l-158 159l88 87l158 -158l158 158l89 -87l-159 -159z" />
    <glyph glyph-name="Oslash" unicode="&#xd8;" horiz-adv-x="758" 
d="M702 740l-82 -122.999c64 -68 96 -156.333 96 -265s-31.167 -196.5 -93.5 -263.5s-143.5 -100.5 -243.5 -100.5c-55.333 0 -106.333 11.333 -153 34l-39 -58h-131l82 123c-64 67.333 -96 155.666 -96 264.999c0 108.667 31.167 196.5 93.5 263.5s143.5 100.5 243.5 100.5
c56.667 0 107.667 -11.667 153 -35l39 59h131zM192 352.001c0 -54.667 10 -100.333 30 -137l234 352c-24 11.333 -49.667 17 -77 17c-57.333 0 -102.833 -21.5 -136.5 -64.5s-50.5 -98.833 -50.5 -167.5zM379 120.002c57.333 0 102.832 21.667 136.499 65s50.5 99 50.5 167
c0 52.667 -10.333 98 -31 136l-233 -351c22.667 -11.333 48.334 -17 77.001 -17z" />
    <glyph glyph-name="Ugrave" unicode="&#xd9;" horiz-adv-x="730" 
d="M69 286v418h153v-414c0 -52.667 12.833 -93.334 38.5 -122.001s60.5 -43 104.5 -43s78.833 14.333 104.5 43s38.5 69.334 38.5 122.001v414h153v-418c0 -97.333 -27.333 -171.333 -82 -222s-126 -76 -214 -76s-159.333 25.333 -214 76s-82 124.667 -82 222zM192 941h134
l94 -170h-119z" />
    <glyph glyph-name="Uacute" unicode="&#xda;" horiz-adv-x="730" 
d="M69 286v418h153v-414c0 -52.667 12.833 -93.334 38.5 -122.001s60.5 -43 104.5 -43s78.833 14.333 104.5 43s38.5 69.334 38.5 122.001v414h153v-418c0 -97.333 -27.333 -171.333 -82 -222s-126 -76 -214 -76s-159.333 25.333 -214 76s-82 124.667 -82 222zM538 941
l-109 -170h-119l94 170h134z" />
    <glyph glyph-name="Ucircumflex" unicode="&#xdb;" horiz-adv-x="730" 
d="M69 286v418h153v-414c0 -52.667 12.833 -93.334 38.5 -122.001s60.5 -43 104.5 -43s78.833 14.333 104.5 43s38.5 69.334 38.5 122.001v414h153v-418c0 -97.333 -27.333 -171.333 -82 -222s-126 -76 -214 -76s-159.333 25.333 -214 76s-82 124.667 -82 222zM289 771h-126
l142 170h120l142 -170h-126l-76 84z" />
    <glyph glyph-name="Udieresis" unicode="&#xdc;" horiz-adv-x="730" 
d="M69 286v418h153v-414c0 -52.667 12.833 -93.334 38.5 -122.001s60.5 -43 104.5 -43s78.833 14.333 104.5 43s38.5 69.334 38.5 122.001v414h153v-418c0 -97.333 -27.333 -171.333 -82 -222s-126 -76 -214 -76s-159.333 25.333 -214 76s-82 124.667 -82 222zM251 928
c22 0 40.5 -7.66699 55.5 -23s22.5 -33.666 22.5 -54.999s-7.5 -39.5 -22.5 -54.5s-33.5 -22.5 -55.5 -22.5s-40.5 7.5 -55.5 22.5s-22.5 33.167 -22.5 54.5s7.5 39.666 22.5 54.999s33.5 23 55.5 23zM480 928c21.333 0 39.666 -7.66699 54.999 -23s23 -33.666 23 -54.999
s-7.66699 -39.5 -23 -54.5s-33.666 -22.5 -54.999 -22.5c-22 0 -40.5 7.5 -55.5 22.5s-22.5 33.167 -22.5 54.5s7.5 39.666 22.5 54.999s33.5 23 55.5 23z" />
    <glyph glyph-name="Yacute" unicode="&#xdd;" horiz-adv-x="669" 
d="M411 0h-153v267l-248 437h166l159 -291l159 291h165l-248 -437v-267zM511 941l-109 -170h-119l94 170h134z" />
    <glyph glyph-name="Thorn" unicode="&#xde;" horiz-adv-x="630" 
d="M227 0h-153v704h153v-115h117c77.333 0 138.333 -21.167 183 -63.5s67 -97.833 67 -166.5c0 -67.333 -22.667 -122.5 -68 -165.5s-105 -64.5 -179 -64.5h-120v-129zM330 457h-103v-197h103c32.667 0 59 9 79 27s30 42 30 72c0 31.333 -9.66699 55.5 -29 72.5
s-46 25.5 -80 25.5z" />
    <glyph glyph-name="germandbls" unicode="&#xdf;" horiz-adv-x="620" 
d="M63 0v490c0 74.667 24.167 132.834 72.5 174.501s108.5 62.5 180.5 62.5c70 0 126.833 -18.833 170.5 -56.5s65.5 -84.834 65.5 -141.501c0 -68 -30.333 -116.333 -91 -145c32.667 -9.33301 61.5 -29 86.5 -59s37.5 -68.667 37.5 -116
c0 -60.667 -21.5 -110.667 -64.5 -150s-100.5 -59 -172.5 -59h-75v125h62c31.333 0 56.333 8.5 75 25.5s28 39.5 28 67.5c0 28.667 -9.5 51.667 -28.5 69s-44.167 26 -75.5 26h-49v119h30c28 0 50.333 8 67 24s25 36 25 60c0 24.667 -8.5 45 -25.5 61s-38.833 24 -65.5 24
c-31.333 0 -57 -10.333 -77 -31s-30 -50 -30 -88v-482h-146z" />
    <glyph glyph-name="agrave" unicode="&#xe0;" horiz-adv-x="560" 
d="M359 343c0 23.333 -7.83203 41.333 -23.499 54s-36.167 19 -61.5 19c-46 0 -74 -16.667 -84 -50h-136c7.33301 47.333 30.666 86.333 69.999 117s91.333 46 156 46c68 0 122 -16.5 162 -49.5s60 -80.167 60 -141.5v-338h-135v56c-35.333 -45.333 -86.333 -68 -153 -68
c-52 0 -95 14.667 -129 44s-51 69.333 -51 120c0 52.667 18.833 93.667 56.5 123s89.5 44 155.5 44h113v24zM254.001 101c29.333 0 54.167 8.5 74.5 25.5s30.5 39.833 30.5 68.5v23h-102c-22.667 0 -41.167 -5.33301 -55.5 -16s-21.5 -25 -21.5 -43
s6.66699 -32.167 20 -42.5s31.333 -15.5 54 -15.5zM109.002 756h134l94 -170h-119z" />
    <glyph glyph-name="aacute" unicode="&#xe1;" horiz-adv-x="560" 
d="M359 343c0 23.333 -7.83203 41.333 -23.499 54s-36.167 19 -61.5 19c-46 0 -74 -16.667 -84 -50h-136c7.33301 47.333 30.666 86.333 69.999 117s91.333 46 156 46c68 0 122 -16.5 162 -49.5s60 -80.167 60 -141.5v-338h-135v56c-35.333 -45.333 -86.333 -68 -153 -68
c-52 0 -95 14.667 -129 44s-51 69.333 -51 120c0 52.667 18.833 93.667 56.5 123s89.5 44 155.5 44h113v24zM254.001 101c29.333 0 54.167 8.5 74.5 25.5s30.5 39.833 30.5 68.5v23h-102c-22.667 0 -41.167 -5.33301 -55.5 -16s-21.5 -25 -21.5 -43
s6.66699 -32.167 20 -42.5s31.333 -15.5 54 -15.5zM455.002 756l-109 -170h-119l94 170h134z" />
    <glyph glyph-name="acircumflex" unicode="&#xe2;" horiz-adv-x="560" 
d="M359 343c0 23.333 -7.83203 41.333 -23.499 54s-36.167 19 -61.5 19c-46 0 -74 -16.667 -84 -50h-136c7.33301 47.333 30.666 86.333 69.999 117s91.333 46 156 46c68 0 122 -16.5 162 -49.5s60 -80.167 60 -141.5v-338h-135v56c-35.333 -45.333 -86.333 -68 -153 -68
c-52 0 -95 14.667 -129 44s-51 69.333 -51 120c0 52.667 18.833 93.667 56.5 123s89.5 44 155.5 44h113v24zM254.001 101c29.333 0 54.167 8.5 74.5 25.5s30.5 39.833 30.5 68.5v23h-102c-22.667 0 -41.167 -5.33301 -55.5 -16s-21.5 -25 -21.5 -43
s6.66699 -32.167 20 -42.5s31.333 -15.5 54 -15.5zM210.002 586h-126l138 170h120l138 -170h-125l-73 84z" />
    <glyph glyph-name="atilde" unicode="&#xe3;" horiz-adv-x="560" 
d="M359 343c0 23.333 -7.83203 41.333 -23.499 54s-36.167 19 -61.5 19c-46 0 -74 -16.667 -84 -50h-136c7.33301 47.333 30.666 86.333 69.999 117s91.333 46 156 46c68 0 122 -16.5 162 -49.5s60 -80.167 60 -141.5v-338h-135v56c-35.333 -45.333 -86.333 -68 -153 -68
c-52 0 -95 14.667 -129 44s-51 69.333 -51 120c0 52.667 18.833 93.667 56.5 123s89.5 44 155.5 44h113v24zM254.001 101c29.333 0 54.167 8.5 74.5 25.5s30.5 39.833 30.5 68.5v23h-102c-22.667 0 -41.167 -5.33301 -55.5 -16s-21.5 -25 -21.5 -43
s6.66699 -32.167 20 -42.5s31.333 -15.5 54 -15.5zM375.002 743h90.0029v-22c0 -44 -10.333 -77.833 -31 -101.5s-48.667 -35.5 -84 -35.5c-25.333 0 -51.333 9.83301 -78 29.5s-44 29.5 -52 29.5c-20.667 0 -31 -12.667 -31 -38v-15h-90v22c0 44 10.167 78 30.5 102
s48.166 36 83.499 36c19.333 0 37.666 -5 54.999 -15s32.166 -19.833 44.499 -29.5s22.5 -14.5 30.5 -14.5c21.333 0 32 12.667 32 38v14z" />
    <glyph glyph-name="adieresis" unicode="&#xe4;" horiz-adv-x="560" 
d="M359 343c0 23.333 -7.83203 41.333 -23.499 54s-36.167 19 -61.5 19c-46 0 -74 -16.667 -84 -50h-136c7.33301 47.333 30.666 86.333 69.999 117s91.333 46 156 46c68 0 122 -16.5 162 -49.5s60 -80.167 60 -141.5v-338h-135v56c-35.333 -45.333 -86.333 -68 -153 -68
c-52 0 -95 14.667 -129 44s-51 69.333 -51 120c0 52.667 18.833 93.667 56.5 123s89.5 44 155.5 44h113v24zM254.001 101c29.333 0 54.167 8.5 74.5 25.5s30.5 39.833 30.5 68.5v23h-102c-22.667 0 -41.167 -5.33301 -55.5 -16s-21.5 -25 -21.5 -43
s6.66699 -32.167 20 -42.5s31.333 -15.5 54 -15.5zM173.002 743c21.333 0 39.666 -7.5 54.999 -22.5s23 -33.167 23 -54.5s-7.66699 -39.666 -23 -54.999s-33.666 -23 -54.999 -23c-22 0 -40.667 7.66699 -56 23s-23 33.666 -23 54.999s7.66699 39.5 23 54.5
s34 22.5 56 22.5zM392.002 743c22 0 40.5 -7.5 55.5 -22.5s22.5 -33.167 22.5 -54.5s-7.5 -39.666 -22.5 -54.999s-33.5 -23 -55.5 -23s-40.5 7.66699 -55.5 23s-22.5 33.666 -22.5 54.999s7.5 39.5 22.5 54.5s33.5 22.5 55.5 22.5z" />
    <glyph glyph-name="aring" unicode="&#xe5;" horiz-adv-x="560" 
d="M359 343c0 23.333 -7.83203 41.333 -23.499 54s-36.167 19 -61.5 19c-46 0 -74 -16.667 -84 -50h-136c7.33301 47.333 30.666 86.333 69.999 117s91.333 46 156 46c68 0 122 -16.5 162 -49.5s60 -80.167 60 -141.5v-338h-135v56c-35.333 -45.333 -86.333 -68 -153 -68
c-52 0 -95 14.667 -129 44s-51 69.333 -51 120c0 52.667 18.833 93.667 56.5 123s89.5 44 155.5 44h113v24zM254.001 101c29.333 0 54.167 8.5 74.5 25.5s30.5 39.833 30.5 68.5v23h-102c-22.667 0 -41.167 -5.33301 -55.5 -16s-21.5 -25 -21.5 -43
s6.66699 -32.167 20 -42.5s31.333 -15.5 54 -15.5zM404.002 691c0 -33.333 -11.667 -61.166 -35 -83.499s-52.333 -33.5 -87 -33.5s-63.667 11.167 -87 33.5s-35 50.166 -35 83.499c0 34 11.5 62 34.5 84s52.167 33 87.5 33s64.5 -11 87.5 -33s34.5 -50 34.5 -84z
M239.002 691c0 -12.667 4.16699 -23 12.5 -31s18.5 -12 30.5 -12s22.167 4 30.5 12s12.5 18.333 12.5 31s-4.16699 23 -12.5 31s-18.5 12 -30.5 12s-22.167 -4 -30.5 -12s-12.5 -18.333 -12.5 -31z" />
    <glyph glyph-name="ae" unicode="&#xe6;" horiz-adv-x="886" 
d="M273 529c79.333 0 135.668 -25.332 169.001 -75.999c43.333 50.667 101 76 173 76c71.333 0 128.5 -23.667 171.5 -71s64.5 -111 64.5 -191v-50h-349v-2c0 -32 10.833 -58.667 32.5 -80s49.5 -32 83.5 -32c23.333 0 42.666 4.66699 57.999 14
s24.666 19.666 27.999 30.999h141c-7.33301 -42 -30.166 -79.167 -68.499 -111.5s-90.166 -48.5 -155.499 -48.5c-86.667 0 -151.667 31 -195 93c-45.333 -62 -111.333 -93 -198 -93c-56.667 0 -103.167 14.667 -139.5 44s-54.5 69.333 -54.5 120
c0 52.667 18.833 93.667 56.5 123s89.5 44 155.5 44h113v24c0 23.333 -7.83301 41.333 -23.5 54s-36.5 19 -62.5 19c-45.333 0 -73 -16.667 -83 -50h-136c7.33301 46.667 30.166 85.5 68.499 116.5s88.5 46.5 150.5 46.5zM255.002 101.001c29.333 0 53.999 8.5 73.999 25.5
s30 39.833 30 68.5v23h-102c-22.667 0 -41.167 -5.33301 -55.5 -16s-21.5 -25 -21.5 -43s6.83301 -32.167 20.5 -42.5s31.834 -15.5 54.501 -15.5zM609.001 415.001c-29.333 0 -53.499 -8.49902 -72.499 -25.499s-30.167 -40.5 -33.5 -70.5h205
c-2 29.333 -11.833 52.666 -29.5 69.999s-40.834 26 -69.501 26z" />
    <glyph glyph-name="ccedilla" unicode="&#xe7;" horiz-adv-x="560" 
d="M293 114c51.333 0 83.334 24.001 96.001 72.001h139c-4 -50.667 -23.167 -93.834 -57.5 -129.501s-79.166 -57.5 -134.499 -65.5l-13 -40c23.333 -2.66699 43.666 -12 60.999 -28s26 -37.667 26 -65c0 -34 -13 -61.167 -39 -81.5s-64 -30.5 -114 -30.5h-63v82h51
c30.667 0 46 11.667 46 35c0 22 -15 33 -45 33h-30v21l28 75c-64.667 10.667 -115.667 40 -153 88s-56 107.333 -56 178c0 78.667 23.333 143.5 70 194.5s109 76.5 187 76.5c68 0 122.667 -19 164 -57s65 -84.667 71 -140h-140c-14.667 47.333 -46.334 71 -95.001 71
c-34 0 -61 -13.167 -81 -39.5s-30 -61.5 -30 -105.5s10.167 -79 30.5 -105s47.5 -39 81.5 -39z" />
    <glyph glyph-name="egrave" unicode="&#xe8;" horiz-adv-x="566" 
d="M531 217l-349.002 0.00195312v-2c0 -32 10.833 -58.667 32.5 -80s49.834 -32 84.501 -32c22.667 0 41.667 4.66699 57 14s25 19.666 29 30.999h141c-8 -42 -31.5 -79.167 -70.5 -111.5s-92.167 -48.5 -159.5 -48.5c-79.333 0 -142.666 23.833 -189.999 71.5
s-71 113.167 -71 196.5s23.167 149.666 69.5 198.999s107.5 74 183.5 74c74 0 133 -23.667 177 -71s66 -111 66 -191v-50zM288.998 415.002c-29.333 0 -53.333 -8.49902 -72 -25.499s-30 -40.5 -34 -70.5h206c-2 29.333 -12 52.666 -30 69.999s-41.333 26 -70 26z
M114.998 756.003h134l94 -170h-119z" />
    <glyph glyph-name="eacute" unicode="&#xe9;" horiz-adv-x="566" 
d="M531 217l-349.002 0.00195312v-2c0 -32 10.833 -58.667 32.5 -80s49.834 -32 84.501 -32c22.667 0 41.667 4.66699 57 14s25 19.666 29 30.999h141c-8 -42 -31.5 -79.167 -70.5 -111.5s-92.167 -48.5 -159.5 -48.5c-79.333 0 -142.666 23.833 -189.999 71.5
s-71 113.167 -71 196.5s23.167 149.666 69.5 198.999s107.5 74 183.5 74c74 0 133 -23.667 177 -71s66 -111 66 -191v-50zM288.998 415.002c-29.333 0 -53.333 -8.49902 -72 -25.499s-30 -40.5 -34 -70.5h206c-2 29.333 -12 52.666 -30 69.999s-41.333 26 -70 26z
M460.998 756.003l-109 -170h-119l94 170h134z" />
    <glyph glyph-name="ecircumflex" unicode="&#xea;" horiz-adv-x="566" 
d="M531 217l-349.002 0.00195312v-2c0 -32 10.833 -58.667 32.5 -80s49.834 -32 84.501 -32c22.667 0 41.667 4.66699 57 14s25 19.666 29 30.999h141c-8 -42 -31.5 -79.167 -70.5 -111.5s-92.167 -48.5 -159.5 -48.5c-79.333 0 -142.666 23.833 -189.999 71.5
s-71 113.167 -71 196.5s23.167 149.666 69.5 198.999s107.5 74 183.5 74c74 0 133 -23.667 177 -71s66 -111 66 -191v-50zM288.998 415.002c-29.333 0 -53.333 -8.49902 -72 -25.499s-30 -40.5 -34 -70.5h206c-2 29.333 -12 52.666 -30 69.999s-41.333 26 -70 26z
M215.998 586.003h-126l138 170h120l138 -170h-125l-73 84z" />
    <glyph glyph-name="edieresis" unicode="&#xeb;" horiz-adv-x="566" 
d="M531 217l-349.002 0.00195312v-2c0 -32 10.833 -58.667 32.5 -80s49.834 -32 84.501 -32c22.667 0 41.667 4.66699 57 14s25 19.666 29 30.999h141c-8 -42 -31.5 -79.167 -70.5 -111.5s-92.167 -48.5 -159.5 -48.5c-79.333 0 -142.666 23.833 -189.999 71.5
s-71 113.167 -71 196.5s23.167 149.666 69.5 198.999s107.5 74 183.5 74c74 0 133 -23.667 177 -71s66 -111 66 -191v-50zM288.998 415.002c-29.333 0 -53.333 -8.49902 -72 -25.499s-30 -40.5 -34 -70.5h206c-2 29.333 -12 52.666 -30 69.999s-41.333 26 -70 26z
M178.998 743.003c21.333 0 39.666 -7.5 54.999 -22.5s23 -33.167 23 -54.5s-7.66699 -39.666 -23 -54.999s-33.666 -23 -54.999 -23c-22 0 -40.667 7.66699 -56 23s-23 33.666 -23 54.999s7.66699 39.5 23 54.5s34 22.5 56 22.5zM397.998 743.003c22 0 40.5 -7.5 55.5 -22.5
s22.5 -33.167 22.5 -54.5s-7.5 -39.666 -22.5 -54.999s-33.5 -23 -55.5 -23s-40.5 7.66699 -55.5 23s-22.5 33.666 -22.5 54.999s7.5 39.5 22.5 54.5s33.5 22.5 55.5 22.5z" />
    <glyph glyph-name="igrave" unicode="&#xec;" horiz-adv-x="272" 
d="M209 517v-517h-146v517h146zM-37 756h134l94 -170h-119z" />
    <glyph glyph-name="iacute" unicode="&#xed;" horiz-adv-x="272" 
d="M209 517v-517h-146v517h146zM307 756l-109 -170h-119l94 170h134z" />
    <glyph glyph-name="icircumflex" unicode="&#xee;" horiz-adv-x="272" 
d="M209 517v-517h-146v517h146zM72 586h-123l126 170h120l126 -170h-123l-63 84z" />
    <glyph glyph-name="idieresis" unicode="&#xef;" horiz-adv-x="272" 
d="M209 517v-517h-146v517h146zM31 743c22 0 40.5 -7.5 55.5 -22.5s22.5 -33.167 22.5 -54.5s-7.5 -39.666 -22.5 -54.999s-33.5 -23 -55.5 -23s-40.5 7.66699 -55.5 23s-22.5 33.666 -22.5 54.999s7.5 39.5 22.5 54.5s33.5 22.5 55.5 22.5zM240 743
c21.333 0 39.666 -7.5 54.999 -22.5s23 -33.167 23 -54.5s-7.66699 -39.666 -23 -54.999s-33.666 -23 -54.999 -23c-22 0 -40.5 7.66699 -55.5 23s-22.5 33.666 -22.5 54.999s7.5 39.5 22.5 54.5s33.5 22.5 55.5 22.5z" />
    <glyph glyph-name="eth" unicode="&#xf0;" horiz-adv-x="603" 
d="M319 727c22 -12.667 42.667 -27.001 62 -43.001l128 43v-89l-62 -21c74.667 -93.333 112 -200 112 -320c0 -95.333 -22.833 -170.666 -68.5 -225.999s-110.834 -83 -195.501 -83c-78 0 -140.833 24.5 -188.5 73.5s-71.5 111.5 -71.5 187.5
c0 75.333 21.833 136.333 65.5 183s99.5 70 167.5 70c55.333 0 98.333 -17.333 129 -52c-13.333 42 -36.666 84 -69.999 126l-138 -46v89l73 25c-22 19.333 -59 47 -111 83h168zM296 109.999c36.667 0 65.167 13.168 85.5 39.501s30.5 60.166 30.5 101.499
c0 39.333 -10.333 71.333 -31 96s-49 37 -85 37s-64.167 -12.5 -84.5 -37.5s-30.5 -57.5 -30.5 -97.5c0 -39.333 10.167 -72.333 30.5 -99s48.5 -40 84.5 -40z" />
    <glyph glyph-name="ntilde" unicode="&#xf1;" horiz-adv-x="597" 
d="M63 517l140.001 -0.000976562v-61c13.333 20.667 33 38 59 52s56.333 21 91 21c53.333 0 97.666 -16.5 132.999 -49.5s53 -82.833 53 -149.5v-330h-146v298c0 32.667 -8 57.5 -24 74.5s-37.667 25.5 -65 25.5c-26 0 -48.333 -8.66699 -67 -26s-28 -42.666 -28 -75.999
v-296h-146v517zM397.001 742.999h90.0029v-22c0 -44 -10.333 -77.833 -31 -101.5s-48.667 -35.5 -84 -35.5c-25.333 0 -51.333 9.83301 -78 29.5s-44 29.5 -52 29.5c-20.667 0 -31 -12.667 -31 -38v-15h-90v22c0 44 10.167 78 30.5 102s48.166 36 83.499 36
c19.333 0 37.666 -5 54.999 -15s32.166 -19.833 44.499 -29.5s22.5 -14.5 30.5 -14.5c21.333 0 32 12.667 32 38v14z" />
    <glyph glyph-name="ograve" unicode="&#xf2;" horiz-adv-x="591" 
d="M296 529c76.667 0 139.167 -24.833 187.5 -74.5s72.5 -115.167 72.5 -196.5s-24.167 -146.666 -72.5 -195.999s-110.833 -74 -187.5 -74c-77.333 0 -140.166 24.667 -188.499 74s-72.5 114.666 -72.5 195.999s24.167 146.833 72.5 196.5s111.166 74.5 188.499 74.5z
M296 114c34.667 0 62.332 13.333 82.999 40s31 61.334 31 104.001c0 43.333 -10.167 78.333 -30.5 105s-48.166 40 -83.499 40s-63.333 -13.333 -84 -40s-31 -61.667 -31 -105c0 -42.667 10.333 -77.334 31 -104.001s48.667 -40 84 -40zM122.998 756h134l94 -170h-119z" />
    <glyph glyph-name="oacute" unicode="&#xf3;" horiz-adv-x="591" 
d="M296 529c76.667 0 139.167 -24.833 187.5 -74.5s72.5 -115.167 72.5 -196.5s-24.167 -146.666 -72.5 -195.999s-110.833 -74 -187.5 -74c-77.333 0 -140.166 24.667 -188.499 74s-72.5 114.666 -72.5 195.999s24.167 146.833 72.5 196.5s111.166 74.5 188.499 74.5z
M296 114c34.667 0 62.332 13.333 82.999 40s31 61.334 31 104.001c0 43.333 -10.167 78.333 -30.5 105s-48.166 40 -83.499 40s-63.333 -13.333 -84 -40s-31 -61.667 -31 -105c0 -42.667 10.333 -77.334 31 -104.001s48.667 -40 84 -40zM468.998 756l-109 -170h-119l94 170
h134z" />
    <glyph glyph-name="ocircumflex" unicode="&#xf4;" horiz-adv-x="591" 
d="M296 529c76.667 0 139.167 -24.833 187.5 -74.5s72.5 -115.167 72.5 -196.5s-24.167 -146.666 -72.5 -195.999s-110.833 -74 -187.5 -74c-77.333 0 -140.166 24.667 -188.499 74s-72.5 114.666 -72.5 195.999s24.167 146.833 72.5 196.5s111.166 74.5 188.499 74.5z
M296 114c34.667 0 62.332 13.333 82.999 40s31 61.334 31 104.001c0 43.333 -10.167 78.333 -30.5 105s-48.166 40 -83.499 40s-63.333 -13.333 -84 -40s-31 -61.667 -31 -105c0 -42.667 10.333 -77.334 31 -104.001s48.667 -40 84 -40zM223.998 586h-126l138 170h120
l138 -170h-125l-73 84z" />
    <glyph glyph-name="otilde" unicode="&#xf5;" horiz-adv-x="591" 
d="M296 529c76.667 0 139.167 -24.833 187.5 -74.5s72.5 -115.167 72.5 -196.5s-24.167 -146.666 -72.5 -195.999s-110.833 -74 -187.5 -74c-77.333 0 -140.166 24.667 -188.499 74s-72.5 114.666 -72.5 195.999s24.167 146.833 72.5 196.5s111.166 74.5 188.499 74.5z
M296 114c34.667 0 62.332 13.333 82.999 40s31 61.334 31 104.001c0 43.333 -10.167 78.333 -30.5 105s-48.166 40 -83.499 40s-63.333 -13.333 -84 -40s-31 -61.667 -31 -105c0 -42.667 10.333 -77.334 31 -104.001s48.667 -40 84 -40zM388.998 743h90.0029v-22
c0 -44 -10.333 -77.833 -31 -101.5s-48.667 -35.5 -84 -35.5c-25.333 0 -51.333 9.83301 -78 29.5s-44 29.5 -52 29.5c-20.667 0 -31 -12.667 -31 -38v-15h-90v22c0 44 10.167 78 30.5 102s48.166 36 83.499 36c19.333 0 37.666 -5 54.999 -15s32.166 -19.833 44.499 -29.5
s22.5 -14.5 30.5 -14.5c21.333 0 32 12.667 32 38v14z" />
    <glyph glyph-name="odieresis" unicode="&#xf6;" horiz-adv-x="591" 
d="M296 529c76.667 0 139.167 -24.833 187.5 -74.5s72.5 -115.167 72.5 -196.5s-24.167 -146.666 -72.5 -195.999s-110.833 -74 -187.5 -74c-77.333 0 -140.166 24.667 -188.499 74s-72.5 114.666 -72.5 195.999s24.167 146.833 72.5 196.5s111.166 74.5 188.499 74.5z
M296 114c34.667 0 62.332 13.333 82.999 40s31 61.334 31 104.001c0 43.333 -10.167 78.333 -30.5 105s-48.166 40 -83.499 40s-63.333 -13.333 -84 -40s-31 -61.667 -31 -105c0 -42.667 10.333 -77.334 31 -104.001s48.667 -40 84 -40zM186.998 743
c21.333 0 39.666 -7.5 54.999 -22.5s23 -33.167 23 -54.5s-7.66699 -39.666 -23 -54.999s-33.666 -23 -54.999 -23c-22 0 -40.667 7.66699 -56 23s-23 33.666 -23 54.999s7.66699 39.5 23 54.5s34 22.5 56 22.5zM405.998 743c22 0 40.5 -7.5 55.5 -22.5
s22.5 -33.167 22.5 -54.5s-7.5 -39.666 -22.5 -54.999s-33.5 -23 -55.5 -23s-40.5 7.66699 -55.5 23s-22.5 33.666 -22.5 54.999s7.5 39.5 22.5 54.5s33.5 22.5 55.5 22.5z" />
    <glyph glyph-name="divide" unicode="&#xf7;" horiz-adv-x="642" 
d="M319 550c22.667 0 41.834 -7.66699 57.501 -23s23.5 -34 23.5 -56c0 -22.667 -7.83301 -41.5 -23.5 -56.5s-34.834 -22.5 -57.501 -22.5s-41.834 7.5 -57.501 22.5s-23.5 33.833 -23.5 56.5c0 22 7.83301 40.667 23.5 56s34.834 23 57.501 23zM570 213h-498v120h498v-120
zM319 154c22 0 41.001 -7.66699 57.001 -23s24 -34 24 -56s-7.83301 -40.5 -23.5 -55.5s-34.834 -22.5 -57.501 -22.5s-41.834 7.5 -57.501 22.5s-23.5 33.5 -23.5 55.5s7.83301 40.667 23.5 56s34.834 23 57.501 23z" />
    <glyph glyph-name="oslash" unicode="&#xf8;" horiz-adv-x="591" 
d="M540 556l-61.998 -97.001c52 -50 78 -117 78 -201c0 -81.333 -24.167 -146.666 -72.5 -195.999s-110.833 -74 -187.5 -74c-38.667 0 -74.334 6.66699 -107.001 20l-30 -47h-108l61 96c-51.333 51.333 -77 118.333 -77 201c0 81.333 24.167 146.833 72.5 196.5
s111.166 74.5 188.499 74.5c38 0 73.333 -6.66699 106 -20l30 47h108zM296.002 101.999c37.333 0 67.333 14.332 90 42.999s34 66.334 34 113.001c0 32 -5.66699 60.333 -17 85l-149 -234c12 -4.66699 26 -7 42 -7zM171.002 257.998c0 -30.667 5.33301 -58.667 16 -84
l150 234c-15.333 4.66699 -29 7 -41 7c-38 0 -68.333 -14.333 -91 -43s-34 -66.667 -34 -114z" />
    <glyph glyph-name="ugrave" unicode="&#xf9;" horiz-adv-x="597" 
d="M535 0l-139.999 0.000976562v60c-14 -20.667 -34 -37.834 -60 -51.501s-56.333 -20.5 -91 -20.5c-52.667 0 -96.667 16.333 -132 49s-53 82.667 -53 150v330h145v-298c0 -32.667 8.16699 -57.5 24.5 -74.5s38.166 -25.5 65.499 -25.5c26.667 0 49.167 8.5 67.5 25.5
s27.5 42.5 27.5 76.5v296h146v-517zM123.001 756.001h134l94 -170h-119z" />
    <glyph glyph-name="uacute" unicode="&#xfa;" horiz-adv-x="597" 
d="M535 0l-139.999 0.000976562v60c-14 -20.667 -34 -37.834 -60 -51.501s-56.333 -20.5 -91 -20.5c-52.667 0 -96.667 16.333 -132 49s-53 82.667 -53 150v330h145v-298c0 -32.667 8.16699 -57.5 24.5 -74.5s38.166 -25.5 65.499 -25.5c26.667 0 49.167 8.5 67.5 25.5
s27.5 42.5 27.5 76.5v296h146v-517zM469.001 756.001l-109 -170h-119l94 170h134z" />
    <glyph glyph-name="ucircumflex" unicode="&#xfb;" horiz-adv-x="597" 
d="M535 0l-139.999 0.000976562v60c-14 -20.667 -34 -37.834 -60 -51.501s-56.333 -20.5 -91 -20.5c-52.667 0 -96.667 16.333 -132 49s-53 82.667 -53 150v330h145v-298c0 -32.667 8.16699 -57.5 24.5 -74.5s38.166 -25.5 65.499 -25.5c26.667 0 49.167 8.5 67.5 25.5
s27.5 42.5 27.5 76.5v296h146v-517zM224.001 586.001h-126l138 170h120l138 -170h-125l-73 84z" />
    <glyph glyph-name="udieresis" unicode="&#xfc;" horiz-adv-x="597" 
d="M535 0l-139.999 0.000976562v60c-14 -20.667 -34 -37.834 -60 -51.501s-56.333 -20.5 -91 -20.5c-52.667 0 -96.667 16.333 -132 49s-53 82.667 -53 150v330h145v-298c0 -32.667 8.16699 -57.5 24.5 -74.5s38.166 -25.5 65.499 -25.5c26.667 0 49.167 8.5 67.5 25.5
s27.5 42.5 27.5 76.5v296h146v-517zM187.001 743.001c21.333 0 39.666 -7.5 54.999 -22.5s23 -33.167 23 -54.5s-7.66699 -39.666 -23 -54.999s-33.666 -23 -54.999 -23c-22 0 -40.667 7.66699 -56 23s-23 33.666 -23 54.999s7.66699 39.5 23 54.5s34 22.5 56 22.5z
M406.001 743.001c22 0 40.5 -7.5 55.5 -22.5s22.5 -33.167 22.5 -54.5s-7.5 -39.666 -22.5 -54.999s-33.5 -23 -55.5 -23s-40.5 7.66699 -55.5 23s-22.5 33.666 -22.5 54.999s7.5 39.5 22.5 54.5s33.5 22.5 55.5 22.5z" />
    <glyph glyph-name="yacute" unicode="&#xfd;" horiz-adv-x="550" 
d="M390 517h156l-272 -708h-155l78 205l-193 503h157l114 -333zM448 756l-109 -170h-119l94 170h134z" />
    <glyph glyph-name="thorn" unicode="&#xfe;" horiz-adv-x="613" 
d="M354 529c64 0 117.332 -24.166 159.999 -72.499s64 -114.5 64 -198.5c0 -82.667 -21.667 -148.334 -65 -197.001s-97.666 -73 -162.999 -73s-112.333 20.667 -141 62v-241h-146v918h146v-262c32 42.667 80.333 64 145 64zM318.999 114.001c34 0 61.167 13 81.5 39
s30.5 61 30.5 105s-10.167 79.167 -30.5 105.5s-47.5 39.5 -81.5 39.5s-61.333 -13 -82 -39s-31 -60.667 -31 -104v-4c0 -43.333 10.333 -77.833 31 -103.5s48 -38.5 82 -38.5z" />
    <glyph glyph-name="ydieresis" unicode="&#xff;" horiz-adv-x="550" 
d="M390 517h156l-272 -708h-155l78 205l-193 503h157l114 -333zM166 743c21.333 0 39.666 -7.5 54.999 -22.5s23 -33.167 23 -54.5s-7.66699 -39.666 -23 -54.999s-33.666 -23 -54.999 -23c-22 0 -40.667 7.66699 -56 23s-23 33.666 -23 54.999s7.66699 39.5 23 54.5
s34 22.5 56 22.5zM385 743c22 0 40.5 -7.5 55.5 -22.5s22.5 -33.167 22.5 -54.5s-7.5 -39.666 -22.5 -54.999s-33.5 -23 -55.5 -23s-40.5 7.66699 -55.5 23s-22.5 33.666 -22.5 54.999s7.5 39.5 22.5 54.5s33.5 22.5 55.5 22.5z" />
    <glyph glyph-name="Amacron" unicode="&#x100;" horiz-adv-x="699" 
d="M270 704h158l258 -704h-158l-50 145h-258l-49 -145h-158zM348 527l-85 -254h170zM184 902h332v-104h-332v104z" />
    <glyph glyph-name="amacron" unicode="&#x101;" horiz-adv-x="560" 
d="M359 343c0 23.333 -7.83203 41.333 -23.499 54s-36.167 19 -61.5 19c-46 0 -74 -16.667 -84 -50h-136c7.33301 47.333 30.666 86.333 69.999 117s91.333 46 156 46c68 0 122 -16.5 162 -49.5s60 -80.167 60 -141.5v-338h-135v56c-35.333 -45.333 -86.333 -68 -153 -68
c-52 0 -95 14.667 -129 44s-51 69.333 -51 120c0 52.667 18.833 93.667 56.5 123s89.5 44 155.5 44h113v24zM254.001 101c29.333 0 54.167 8.5 74.5 25.5s30.5 39.833 30.5 68.5v23h-102c-22.667 0 -41.167 -5.33301 -55.5 -16s-21.5 -25 -21.5 -43
s6.66699 -32.167 20 -42.5s31.333 -15.5 54 -15.5zM121.002 717h322v-103h-322v103z" />
    <glyph glyph-name="Abreve" unicode="&#x102;" horiz-adv-x="699" 
d="M270 704h158l258 -704h-158l-50 145h-258l-49 -145h-158zM348 527l-85 -254h170zM276 938c0 -22 6.33301 -40.5 19 -55.5s31 -22.5 55 -22.5s42.333 7.5 55 22.5s19 33.5 19 55.5h110c-0.666992 -52 -17.5 -93.833 -50.5 -125.5s-77.5 -47.5 -133.5 -47.5
s-100.5 15.833 -133.5 47.5s-49.833 73.5 -50.5 125.5h110z" />
    <glyph glyph-name="abreve" unicode="&#x103;" horiz-adv-x="560" 
d="M359 343c0 23.333 -7.83203 41.333 -23.499 54s-36.167 19 -61.5 19c-46 0 -74 -16.667 -84 -50h-136c7.33301 47.333 30.666 86.333 69.999 117s91.333 46 156 46c68 0 122 -16.5 162 -49.5s60 -80.167 60 -141.5v-338h-135v56c-35.333 -45.333 -86.333 -68 -153 -68
c-52 0 -95 14.667 -129 44s-51 69.333 -51 120c0 52.667 18.833 93.667 56.5 123s89.5 44 155.5 44h113v24zM254.001 101c29.333 0 54.167 8.5 74.5 25.5s30.5 39.833 30.5 68.5v23h-102c-22.667 0 -41.167 -5.33301 -55.5 -16s-21.5 -25 -21.5 -43
s6.66699 -32.167 20 -42.5s31.333 -15.5 54 -15.5zM211.002 753c0 -22 6.16699 -40.5 18.5 -55.5s29.833 -22.5 52.5 -22.5s40.167 7.5 52.5 22.5s18.5 33.5 18.5 55.5h109c-0.666992 -52.667 -17 -94.667 -49 -126s-75.667 -47 -131 -47s-99 15.667 -131 47
s-48.333 73.333 -49 126h109z" />
    <glyph glyph-name="Aogonek" unicode="&#x104;" horiz-adv-x="699" 
d="M270 704h158l258 -704c-49.333 -35.333 -74 -68 -74 -98c0 -30.667 17.333 -46 52 -46h39v-96h-68c-48 0 -84.667 10 -110 30s-38 46.667 -38 80c0 48.667 26.333 92 79 130h-38l-50 145h-258l-49 -145h-158zM348 527l-85 -254h170z" />
    <glyph glyph-name="aogonek" unicode="&#x105;" horiz-adv-x="560" 
d="M359 343c0 23.333 -7.83203 41.333 -23.499 54s-36.167 19 -61.5 19c-46 0 -74 -16.667 -84 -50h-136c7.33301 47.333 30.666 86.333 69.999 117s91.333 46 156 46c68 0 122 -16.5 162 -49.5s60 -80.167 60 -141.5v-338c-49.333 -35.333 -74 -68 -74 -98
c0 -30.667 17.333 -46 52 -46h39v-96h-68c-48 0 -84.667 10 -110 30s-38 46.667 -38 80c0 48.667 26.333 92 79 130h-15v56c-35.333 -45.333 -86.333 -68 -153 -68c-52 0 -95 14.667 -129 44s-51 69.333 -51 120c0 52.667 18.833 93.667 56.5 123s89.5 44 155.5 44h113v24z
M254.001 101c29.333 0 54.167 8.5 74.5 25.5s30.5 39.833 30.5 68.5v23h-102c-22.667 0 -41.167 -5.33301 -55.5 -16s-21.5 -25 -21.5 -43s6.66699 -32.167 20 -42.5s31.333 -15.5 54 -15.5z" />
    <glyph glyph-name="Cacute" unicode="&#x106;" horiz-adv-x="715" 
d="M525 243h151.999c-2 -30.667 -9.66699 -60.667 -23 -90s-32 -56.5 -56 -81.5s-55.667 -45.167 -95 -60.5s-83.333 -23 -132 -23c-95.333 0 -174 32.833 -236 98.5s-93 154.167 -93 265.5c0 108.667 30.667 196.5 92 263.5s140.333 100.5 237 100.5
c88.667 0 159.334 -24 212.001 -72s83.667 -108.667 93 -182h-152c-8.66699 34 -26 62 -52 84s-59.667 33 -101 33c-51.333 0 -93 -20.667 -125 -62s-48 -96.333 -48 -165c0 -68 16 -122.833 48 -164.5s74 -62.5 126 -62.5c43.333 0 78.333 12.167 105 36.5
s42.667 51.5 48 81.5zM543.999 941l-109 -170h-119l94 170h134z" />
    <glyph glyph-name="cacute" unicode="&#x107;" horiz-adv-x="560" 
d="M293 114c51.333 0 83.335 24 96.002 72h139c-4.66699 -57.333 -28.334 -104.666 -71.001 -141.999s-97.667 -56 -165 -56c-78 0 -140.333 25.167 -187 75.5s-70 115.166 -70 194.499c0 78.667 23.333 143.5 70 194.5s109 76.5 187 76.5c68 0 122.667 -19 164 -57
s65 -84.667 71 -140h-140c-14.667 47.333 -46.334 71 -95.001 71c-34 0 -61 -13.167 -81 -39.5s-30 -61.5 -30 -105.5s10.167 -79 30.5 -105s47.5 -39 81.5 -39zM465.002 756l-109 -170h-119l94 170h134z" />
    <glyph glyph-name="Ccircumflex" unicode="&#x108;" horiz-adv-x="715" 
d="M525 243h151.999c-2 -30.667 -9.66699 -60.667 -23 -90s-32 -56.5 -56 -81.5s-55.667 -45.167 -95 -60.5s-83.333 -23 -132 -23c-95.333 0 -174 32.833 -236 98.5s-93 154.167 -93 265.5c0 108.667 30.667 196.5 92 263.5s140.333 100.5 237 100.5
c88.667 0 159.334 -24 212.001 -72s83.667 -108.667 93 -182h-152c-8.66699 34 -26 62 -52 84s-59.667 33 -101 33c-51.333 0 -93 -20.667 -125 -62s-48 -96.333 -48 -165c0 -68 16 -122.833 48 -164.5s74 -62.5 126 -62.5c43.333 0 78.333 12.167 105 36.5
s42.667 51.5 48 81.5zM294.999 771h-126l142 170h120l142 -170h-126l-76 84z" />
    <glyph glyph-name="ccircumflex" unicode="&#x109;" horiz-adv-x="560" 
d="M293 114c51.333 0 83.335 24 96.002 72h139c-4.66699 -57.333 -28.334 -104.666 -71.001 -141.999s-97.667 -56 -165 -56c-78 0 -140.333 25.167 -187 75.5s-70 115.166 -70 194.499c0 78.667 23.333 143.5 70 194.5s109 76.5 187 76.5c68 0 122.667 -19 164 -57
s65 -84.667 71 -140h-140c-14.667 47.333 -46.334 71 -95.001 71c-34 0 -61 -13.167 -81 -39.5s-30 -61.5 -30 -105.5s10.167 -79 30.5 -105s47.5 -39 81.5 -39zM220.002 586h-126l138 170h120l138 -170h-125l-73 84z" />
    <glyph glyph-name="Cdotaccent" unicode="&#x10a;" horiz-adv-x="715" 
d="M525 243h151.999c-2 -30.667 -9.66699 -60.667 -23 -90s-32 -56.5 -56 -81.5s-55.667 -45.167 -95 -60.5s-83.333 -23 -132 -23c-95.333 0 -174 32.833 -236 98.5s-93 154.167 -93 265.5c0 108.667 30.667 196.5 92 263.5s140.333 100.5 237 100.5
c88.667 0 159.334 -24 212.001 -72s83.667 -108.667 93 -182h-152c-8.66699 34 -26 62 -52 84s-59.667 33 -101 33c-51.333 0 -93 -20.667 -125 -62s-48 -96.333 -48 -165c0 -68 16 -122.833 48 -164.5s74 -62.5 126 -62.5c43.333 0 78.333 12.167 105 36.5
s42.667 51.5 48 81.5zM370.999 934c23.333 0 43.166 -8 59.499 -24s24.5 -35.333 24.5 -58c0 -23.333 -8.16699 -43 -24.5 -59s-36.166 -24 -59.499 -24s-43 8 -59 24s-24 35.667 -24 59s8 42.833 24 58.5s35.667 23.5 59 23.5z" />
    <glyph glyph-name="cdotaccent" unicode="&#x10b;" horiz-adv-x="560" 
d="M293 114c51.333 0 83.335 24 96.002 72h139c-4.66699 -57.333 -28.334 -104.666 -71.001 -141.999s-97.667 -56 -165 -56c-78 0 -140.333 25.167 -187 75.5s-70 115.166 -70 194.499c0 78.667 23.333 143.5 70 194.5s109 76.5 187 76.5c68 0 122.667 -19 164 -57
s65 -84.667 71 -140h-140c-14.667 47.333 -46.334 71 -95.001 71c-34 0 -61 -13.167 -81 -39.5s-30 -61.5 -30 -105.5s10.167 -79 30.5 -105s47.5 -39 81.5 -39zM292.002 749c23.333 0 43.166 -8 59.499 -24s24.5 -35.333 24.5 -58c0 -23.333 -8.16699 -43 -24.5 -59
s-36.166 -24 -59.499 -24s-43 8 -59 24s-24 35.667 -24 59s8 42.833 24 58.5s35.667 23.5 59 23.5z" />
    <glyph glyph-name="Ccaron" unicode="&#x10c;" horiz-adv-x="715" 
d="M525 243h151.999c-2 -30.667 -9.66699 -60.667 -23 -90s-32 -56.5 -56 -81.5s-55.667 -45.167 -95 -60.5s-83.333 -23 -132 -23c-95.333 0 -174 32.833 -236 98.5s-93 154.167 -93 265.5c0 108.667 30.667 196.5 92 263.5s140.333 100.5 237 100.5
c88.667 0 159.334 -24 212.001 -72s83.667 -108.667 93 -182h-152c-8.66699 34 -26 62 -52 84s-59.667 33 -101 33c-51.333 0 -93 -20.667 -125 -62s-48 -96.333 -48 -165c0 -68 16 -122.833 48 -164.5s74 -62.5 126 -62.5c43.333 0 78.333 12.167 105 36.5
s42.667 51.5 48 81.5zM294.999 941l76 -84l76 84h126l-142 -170h-120l-142 170h126z" />
    <glyph glyph-name="ccaron" unicode="&#x10d;" horiz-adv-x="560" 
d="M293 114c51.333 0 83.335 24 96.002 72h139c-4.66699 -57.333 -28.334 -104.666 -71.001 -141.999s-97.667 -56 -165 -56c-78 0 -140.333 25.167 -187 75.5s-70 115.166 -70 194.499c0 78.667 23.333 143.5 70 194.5s109 76.5 187 76.5c68 0 122.667 -19 164 -57
s65 -84.667 71 -140h-140c-14.667 47.333 -46.334 71 -95.001 71c-34 0 -61 -13.167 -81 -39.5s-30 -61.5 -30 -105.5s10.167 -79 30.5 -105s47.5 -39 81.5 -39zM220.002 756l72 -84l73 84h125l-138 -170h-120l-138 170h126z" />
    <glyph glyph-name="Dcaron" unicode="&#x10e;" horiz-adv-x="716" 
d="M323 704c111.333 0 197.666 -31.167 258.999 -93.5s92 -148.5 92 -258.5s-30.667 -196.167 -92 -258.5s-147.666 -93.5 -258.999 -93.5h-249v704h249zM310 134c68 0 119.667 19 155 57s53 91.667 53 161s-17.667 123 -53 161s-87 57 -155 57h-83v-436h83zM252 941l76 -84
l76 84h126l-142 -170h-120l-142 170h126z" />
    <glyph glyph-name="dcaron" unicode="&#x10f;" horiz-adv-x="770" 
d="M259 -12c-64 0 -117.333 24.168 -160 72.501s-64 114.166 -64 197.499s21.667 149.333 65 198s97.666 73 162.999 73c64.667 0 111.667 -21 141 -63v261h146v-727h-140v61c-31.333 -48.667 -81.666 -73 -150.999 -73zM294 403.001c-34 0 -61.333 -13.168 -82 -39.501
s-31 -61.5 -31 -105.5c0 -43.333 10.333 -78.166 31 -104.499s48 -39.5 82 -39.5s61.333 13 82 39s31 60.333 31 103v4c0 44 -10.333 78.833 -31 104.5s-48 38.5 -82 38.5zM772 652c0 -19.333 -4 -39 -12 -59l-52 -124h-100l47 115c-33.333 13.333 -50 37.666 -50 72.999
c0 22.667 7.66699 41.334 23 56.001s35 22 59 22s44.167 -7.83301 60.5 -23.5s24.5 -35.5 24.5 -59.5z" />
    <glyph glyph-name="Dcroat" unicode="&#x110;" horiz-adv-x="736" 
d="M343 704c111.333 0 197.666 -31.167 258.999 -93.5s92 -148.5 92 -258.5s-30.667 -196.167 -92 -258.5s-147.666 -93.5 -258.999 -93.5h-249v303h-73v115h73v286h249zM380 303h-133v-169h84c68 0 119.667 19 155 57s53 91.667 53 161s-17.667 123 -53 161s-87 57 -155 57
h-84v-152h133v-115z" />
    <glyph glyph-name="dcroat" unicode="&#x111;" horiz-adv-x="615" 
d="M283 668l121 0.000976562v59h146v-59h65v-89h-65v-579h-140v61c-31.333 -48.667 -81.666 -73 -150.999 -73c-64 0 -117.333 24.167 -160 72.5s-64 114.166 -64 197.499s21.667 149.333 65 198s97.666 73 162.999 73c64.667 0 111.667 -21 141 -63v113h-121v89z
M294 403.001c-34 0 -61.333 -13.168 -82 -39.501s-31 -61.5 -31 -105.5c0 -43.333 10.333 -78.166 31 -104.499s48 -39.5 82 -39.5s61.333 13 82 39s31 60.333 31 103v4c0 44 -10.333 78.833 -31 104.5s-48 38.5 -82 38.5z" />
    <glyph glyph-name="Emacron" unicode="&#x112;" horiz-adv-x="596" 
d="M546 568h-319v-144h300v-131h-300v-157h319v-136h-472v704h472v-136zM147 902h332v-104h-332v104z" />
    <glyph glyph-name="emacron" unicode="&#x113;" horiz-adv-x="566" 
d="M531 217l-349.002 0.00195312v-2c0 -32 10.833 -58.667 32.5 -80s49.834 -32 84.501 -32c22.667 0 41.667 4.66699 57 14s25 19.666 29 30.999h141c-8 -42 -31.5 -79.167 -70.5 -111.5s-92.167 -48.5 -159.5 -48.5c-79.333 0 -142.666 23.833 -189.999 71.5
s-71 113.167 -71 196.5s23.167 149.666 69.5 198.999s107.5 74 183.5 74c74 0 133 -23.667 177 -71s66 -111 66 -191v-50zM288.998 415.002c-29.333 0 -53.333 -8.49902 -72 -25.499s-30 -40.5 -34 -70.5h206c-2 29.333 -12 52.666 -30 69.999s-41.333 26 -70 26z
M126.998 717.003h322v-103h-322v103z" />
    <glyph glyph-name="Edotaccent" unicode="&#x116;" horiz-adv-x="596" 
d="M546 568h-319v-144h300v-131h-300v-157h319v-136h-472v704h472v-136zM313 934c23.333 0 43.166 -8 59.499 -24s24.5 -35.333 24.5 -58c0 -23.333 -8.16699 -43 -24.5 -59s-36.166 -24 -59.499 -24s-43 8 -59 24s-24 35.667 -24 59s8 42.833 24 58.5s35.667 23.5 59 23.5z
" />
    <glyph glyph-name="edotaccent" unicode="&#x117;" horiz-adv-x="566" 
d="M531 217l-349.002 0.00195312v-2c0 -32 10.833 -58.667 32.5 -80s49.834 -32 84.501 -32c22.667 0 41.667 4.66699 57 14s25 19.666 29 30.999h141c-8 -42 -31.5 -79.167 -70.5 -111.5s-92.167 -48.5 -159.5 -48.5c-79.333 0 -142.666 23.833 -189.999 71.5
s-71 113.167 -71 196.5s23.167 149.666 69.5 198.999s107.5 74 183.5 74c74 0 133 -23.667 177 -71s66 -111 66 -191v-50zM288.998 415.002c-29.333 0 -53.333 -8.49902 -72 -25.499s-30 -40.5 -34 -70.5h206c-2 29.333 -12 52.666 -30 69.999s-41.333 26 -70 26z
M287.998 749.003c23.333 0 43.166 -8 59.499 -24s24.5 -35.333 24.5 -58c0 -23.333 -8.16699 -43 -24.5 -59s-36.166 -24 -59.499 -24s-43 8 -59 24s-24 35.667 -24 59s8 42.833 24 58.5s35.667 23.5 59 23.5z" />
    <glyph glyph-name="Eogonek" unicode="&#x118;" horiz-adv-x="596" 
d="M546 568h-319v-144h300v-131h-300v-157h319v-136c-49.333 -35.333 -74 -68 -74 -98c0 -30.667 17.333 -46 52 -46h39v-96h-68c-48 0 -84.667 10 -110 30s-38 46.667 -38 80c0 48.667 26.333 92 79 130h-352v704h472v-136z" />
    <glyph glyph-name="eogonek" unicode="&#x119;" horiz-adv-x="566" 
d="M455 36c-1.33301 -1.33301 -8.00195 -6.66406 -20.002 -15.9971s-19.833 -15.666 -23.5 -18.999s-10.667 -9.33301 -21 -18s-17.5 -15.667 -21.5 -21l-15 -19.5c-6 -7.66699 -10.167 -14.667 -12.5 -21s-3.5 -12.833 -3.5 -19.5c0 -30.667 17.333 -46 52 -46h39v-96h-68
c-48 0 -84.667 10 -110 30s-38 46.667 -38 80c0 39.333 22.667 78.666 68 117.999c-75.333 3.33301 -135.166 28.666 -179.499 75.999s-66.5 111.333 -66.5 192c0 83.333 23.167 149.666 69.5 198.999s107.5 74 183.5 74c74 0 133 -23.667 177 -71s66 -111 66 -191v-50h-349
v-2c0 -32 10.833 -58.667 32.5 -80s49.834 -32 84.501 -32c22.667 0 41.667 4.66699 57 14s25 19.666 29 30.999h141c-10 -46.667 -34 -84 -72 -112h1zM288.998 415.002c-29.333 0 -53.333 -8.49902 -72 -25.499s-30 -40.5 -34 -70.5h206c-2 29.333 -12 52.666 -30 69.999
s-41.333 26 -70 26z" />
    <glyph glyph-name="Ecaron" unicode="&#x11a;" horiz-adv-x="596" 
d="M546 568h-319v-144h300v-131h-300v-157h319v-136h-472v704h472v-136zM237 941l76 -84l76 84h126l-142 -170h-120l-142 170h126z" />
    <glyph glyph-name="ecaron" unicode="&#x11b;" horiz-adv-x="566" 
d="M531 217l-349.002 0.00195312v-2c0 -32 10.833 -58.667 32.5 -80s49.834 -32 84.501 -32c22.667 0 41.667 4.66699 57 14s25 19.666 29 30.999h141c-8 -42 -31.5 -79.167 -70.5 -111.5s-92.167 -48.5 -159.5 -48.5c-79.333 0 -142.666 23.833 -189.999 71.5
s-71 113.167 -71 196.5s23.167 149.666 69.5 198.999s107.5 74 183.5 74c74 0 133 -23.667 177 -71s66 -111 66 -191v-50zM288.998 415.002c-29.333 0 -53.333 -8.49902 -72 -25.499s-30 -40.5 -34 -70.5h206c-2 29.333 -12 52.666 -30 69.999s-41.333 26 -70 26z
M215.998 756.003l72 -84l73 84h125l-138 -170h-120l-138 170h126z" />
    <glyph glyph-name="Gcircumflex" unicode="&#x11c;" horiz-adv-x="734" 
d="M369 386h317.999v-79c0 -95.333 -27.167 -172.333 -81.5 -231s-130.833 -88 -229.5 -88c-98 0 -178.167 33.333 -240.5 100s-93.5 154.667 -93.5 264c0 106.667 30.5 194 91.5 262s142.167 102 243.5 102c83.333 0 151.5 -22.333 204.5 -67
s86.167 -101.334 99.5 -170.001h-155c-22.667 67.333 -72 101 -148 101c-53.333 0 -96.666 -20.167 -129.999 -60.5s-50 -96.166 -50 -167.499c0 -72.667 17 -129.167 51 -169.5s78 -60.5 132 -60.5c48 0 85.5 13.167 112.5 39.5s40.5 58.833 40.5 97.5v3h-165v124z
M300.999 771h-126l142 170h120l142 -170h-126l-76 84z" />
    <glyph glyph-name="gcircumflex" unicode="&#x11d;" horiz-adv-x="612" 
d="M409 517h139.998v-480c0 -76 -22.667 -136.167 -68 -180.5s-107.666 -66.5 -186.999 -66.5c-72 0 -128.833 17 -170.5 51s-64.834 74.667 -69.501 122h143c12.667 -38 45.334 -57 98.001 -57c34.667 0 61.334 11.5 80.001 34.5s28 55.5 28 97.5v35
c-31.333 -43.333 -79.666 -65 -144.999 -65c-64 0 -117.167 23.333 -159.5 70s-63.5 110 -63.5 190c0 78 21.5 141 64.5 189s97.167 72 162.5 72c35.333 0 65.666 -6.66699 90.999 -20s44 -30 56 -50v58zM293.998 131c34 0 61.167 12.668 81.5 38.001
s30.5 57.666 30.5 96.999v4c0 39.333 -10 71.833 -30 97.5s-47.333 38.5 -82 38.5c-34 0 -61.333 -13 -82 -39s-31 -59 -31 -99s10.167 -72.833 30.5 -98.5s47.833 -38.5 82.5 -38.5zM226.998 586.001h-126l138 170h120l138 -170h-125l-73 84z" />
    <glyph glyph-name="Gbreve" unicode="&#x11e;" horiz-adv-x="734" 
d="M369 386h317.999v-79c0 -95.333 -27.167 -172.333 -81.5 -231s-130.833 -88 -229.5 -88c-98 0 -178.167 33.333 -240.5 100s-93.5 154.667 -93.5 264c0 106.667 30.5 194 91.5 262s142.167 102 243.5 102c83.333 0 151.5 -22.333 204.5 -67
s86.167 -101.334 99.5 -170.001h-155c-22.667 67.333 -72 101 -148 101c-53.333 0 -96.666 -20.167 -129.999 -60.5s-50 -96.166 -50 -167.499c0 -72.667 17 -129.167 51 -169.5s78 -60.5 132 -60.5c48 0 85.5 13.167 112.5 39.5s40.5 58.833 40.5 97.5v3h-165v124z
M302.999 938c0 -22 6.33301 -40.5 19 -55.5s31 -22.5 55 -22.5s42.333 7.5 55 22.5s19 33.5 19 55.5h110c-0.666992 -52 -17.5 -93.833 -50.5 -125.5s-77.5 -47.5 -133.5 -47.5s-100.5 15.833 -133.5 47.5s-49.833 73.5 -50.5 125.5h110z" />
    <glyph glyph-name="gbreve" unicode="&#x11f;" horiz-adv-x="612" 
d="M409 517h139.998v-480c0 -76 -22.667 -136.167 -68 -180.5s-107.666 -66.5 -186.999 -66.5c-72 0 -128.833 17 -170.5 51s-64.834 74.667 -69.501 122h143c12.667 -38 45.334 -57 98.001 -57c34.667 0 61.334 11.5 80.001 34.5s28 55.5 28 97.5v35
c-31.333 -43.333 -79.666 -65 -144.999 -65c-64 0 -117.167 23.333 -159.5 70s-63.5 110 -63.5 190c0 78 21.5 141 64.5 189s97.167 72 162.5 72c35.333 0 65.666 -6.66699 90.999 -20s44 -30 56 -50v58zM293.998 131c34 0 61.167 12.668 81.5 38.001
s30.5 57.666 30.5 96.999v4c0 39.333 -10 71.833 -30 97.5s-47.333 38.5 -82 38.5c-34 0 -61.333 -13 -82 -39s-31 -59 -31 -99s10.167 -72.833 30.5 -98.5s47.833 -38.5 82.5 -38.5zM227.998 753.001c0 -22 6.16699 -40.5 18.5 -55.5s29.833 -22.5 52.5 -22.5
s40.167 7.5 52.5 22.5s18.5 33.5 18.5 55.5h109c-0.666992 -52.667 -17 -94.667 -49 -126s-75.667 -47 -131 -47s-99 15.667 -131 47s-48.333 73.333 -49 126h109z" />
    <glyph glyph-name="Gdotaccent" unicode="&#x120;" horiz-adv-x="734" 
d="M369 386h317.999v-79c0 -95.333 -27.167 -172.333 -81.5 -231s-130.833 -88 -229.5 -88c-98 0 -178.167 33.333 -240.5 100s-93.5 154.667 -93.5 264c0 106.667 30.5 194 91.5 262s142.167 102 243.5 102c83.333 0 151.5 -22.333 204.5 -67
s86.167 -101.334 99.5 -170.001h-155c-22.667 67.333 -72 101 -148 101c-53.333 0 -96.666 -20.167 -129.999 -60.5s-50 -96.166 -50 -167.499c0 -72.667 17 -129.167 51 -169.5s78 -60.5 132 -60.5c48 0 85.5 13.167 112.5 39.5s40.5 58.833 40.5 97.5v3h-165v124z
M376.999 934c23.333 0 43.166 -8 59.499 -24s24.5 -35.333 24.5 -58c0 -23.333 -8.16699 -43 -24.5 -59s-36.166 -24 -59.499 -24s-43 8 -59 24s-24 35.667 -24 59s8 42.833 24 58.5s35.667 23.5 59 23.5z" />
    <glyph glyph-name="gdotaccent" unicode="&#x121;" horiz-adv-x="612" 
d="M409 517h139.998v-480c0 -76 -22.667 -136.167 -68 -180.5s-107.666 -66.5 -186.999 -66.5c-72 0 -128.833 17 -170.5 51s-64.834 74.667 -69.501 122h143c12.667 -38 45.334 -57 98.001 -57c34.667 0 61.334 11.5 80.001 34.5s28 55.5 28 97.5v35
c-31.333 -43.333 -79.666 -65 -144.999 -65c-64 0 -117.167 23.333 -159.5 70s-63.5 110 -63.5 190c0 78 21.5 141 64.5 189s97.167 72 162.5 72c35.333 0 65.666 -6.66699 90.999 -20s44 -30 56 -50v58zM293.998 131c34 0 61.167 12.668 81.5 38.001
s30.5 57.666 30.5 96.999v4c0 39.333 -10 71.833 -30 97.5s-47.333 38.5 -82 38.5c-34 0 -61.333 -13 -82 -39s-31 -59 -31 -99s10.167 -72.833 30.5 -98.5s47.833 -38.5 82.5 -38.5zM298.998 749.001c23.333 0 43.166 -8 59.499 -24s24.5 -35.333 24.5 -58
c0 -23.333 -8.16699 -43 -24.5 -59s-36.166 -24 -59.499 -24s-43 8 -59 24s-24 35.667 -24 59s8 42.833 24 58.5s35.667 23.5 59 23.5z" />
    <glyph glyph-name="Gcommaaccent" unicode="&#x122;" horiz-adv-x="734" 
d="M369 386h317.999v-79c0 -95.333 -27.167 -172.333 -81.5 -231s-130.833 -88 -229.5 -88c-98 0 -178.167 33.333 -240.5 100s-93.5 154.667 -93.5 264c0 106.667 30.5 194 91.5 262s142.167 102 243.5 102c83.333 0 151.5 -22.333 204.5 -67
s86.167 -101.334 99.5 -170.001h-155c-22.667 67.333 -72 101 -148 101c-53.333 0 -96.666 -20.167 -129.999 -60.5s-50 -96.166 -50 -167.499c0 -72.667 17 -129.167 51 -169.5s78 -60.5 132 -60.5c48 0 85.5 13.167 112.5 39.5s40.5 58.833 40.5 97.5v3h-165v124z
M458.999 -139c0 -19.333 -4 -38.999 -12 -58.999l-45 -107h-100l40 98c-33.333 13.333 -50 37.666 -50 72.999c0 23.333 7.66699 42.333 23 57s35 22 59 22s44.167 -8 60.5 -24s24.5 -36 24.5 -60z" />
    <glyph glyph-name="gcommaaccent" unicode="&#x123;" horiz-adv-x="612" 
d="M409 517h139.998v-480c0 -76 -22.667 -136.167 -68 -180.5s-107.666 -66.5 -186.999 -66.5c-72 0 -128.833 17 -170.5 51s-64.834 74.667 -69.501 122h143c12.667 -38 45.334 -57 98.001 -57c34.667 0 61.334 11.5 80.001 34.5s28 55.5 28 97.5v35
c-31.333 -43.333 -79.666 -65 -144.999 -65c-64 0 -117.167 23.333 -159.5 70s-63.5 110 -63.5 190c0 78 21.5 141 64.5 189s97.167 72 162.5 72c35.333 0 65.666 -6.66699 90.999 -20s44 -30 56 -50v58zM293.998 131c34 0 61.167 12.668 81.5 38.001
s30.5 57.666 30.5 96.999v4c0 39.333 -10 71.833 -30 97.5s-47.333 38.5 -82 38.5c-34 0 -61.333 -13 -82 -39s-31 -59 -31 -99s10.167 -72.833 30.5 -98.5s47.833 -38.5 82.5 -38.5zM215.998 662.001c0 20 4 39.667 12 59l45 107h100l-40 -98
c33.333 -13.333 50 -37.333 50 -72c0 -23.333 -7.66699 -42.333 -23 -57s-35 -22 -59 -22s-44.167 7.83301 -60.5 23.5s-24.5 35.5 -24.5 59.5z" />
    <glyph glyph-name="Hcircumflex" unicode="&#x124;" horiz-adv-x="739" 
d="M227 0h-153v704h153v-275h285v275h153v-704h-153v292h-285v-292zM293 771h-126l142 170h120l142 -170h-126l-76 84z" />
    <glyph glyph-name="hcircumflex" unicode="&#x125;" horiz-adv-x="597" 
d="M353 529c53.333 0 97.667 -16.501 133 -49.501s53 -82.833 53 -149.5v-330h-146v298c0 32.667 -8 57.5 -24 74.5s-37.667 25.5 -65 25.5c-26 0 -48.333 -8.66699 -67 -26s-28 -42.666 -28 -75.999v-296h-146v727h146v-262c33.333 42.667 81.333 64 144 64z
M73.001 783.999h-123l126 170h120l126 -170h-123l-63 84z" />
    <glyph glyph-name="Hbar" unicode="&#x126;" horiz-adv-x="777" 
d="M246 0h-152v509h-67v109h67v86h152v-86h285v86h152v-86h67v-109h-67v-509h-152v269h-285v-269zM246 509v-103h285v103h-285z" />
    <glyph glyph-name="hbar" unicode="&#x127;" horiz-adv-x="600" 
d="M0 668l65.001 -0.000976562v59h146v-59h121v-89h-121v-114c33.333 42.667 81.333 64 144 64c53.333 0 97.666 -16.5 132.999 -49.5s53 -82.833 53 -149.5v-330h-146v298c0 32.667 -8 57.5 -24 74.5s-37.667 25.5 -65 25.5c-26 0 -48.333 -8.66699 -67 -26
s-28 -42.666 -28 -75.999v-296h-146v579h-65v89z" />
    <glyph glyph-name="Itilde" unicode="&#x128;" horiz-adv-x="301" 
d="M227 704v-704h-153v704h153zM244 928h90.001v-22c0 -44 -10.333 -77.833 -31 -101.5s-48.667 -35.5 -84 -35.5c-25.333 0 -51.333 9.83301 -78 29.5s-44 29.5 -52 29.5c-20.667 0 -31 -12.667 -31 -38v-15h-90v22c0 44 10.167 78 30.5 102s48.166 36 83.499 36
c19.333 0 37.5 -4.83301 54.5 -14.5s31.833 -19.5 44.5 -29.5s23 -15 31 -15c21.333 0 32 12.667 32 38v14z" />
    <glyph glyph-name="itilde" unicode="&#x129;" horiz-adv-x="272" 
d="M209 517v-517h-146v517h146zM222 743h89.999v-22c0 -44 -10 -77.833 -30 -101.5s-46.667 -35.5 -80 -35.5c-20.667 0 -39 5 -55 15s-29.5 19.833 -40.5 29.5s-21.167 14.5 -30.5 14.5c-18.667 0 -28 -12.667 -28 -38v-15h-90v22c0 44 10 78 30 102s46.667 36 80 36
c20.667 0 38.834 -5 54.501 -15s29 -19.833 40 -29.5s21.167 -14.5 30.5 -14.5c19.333 0 29 12.667 29 38v14z" />
    <glyph glyph-name="Imacron" unicode="&#x12a;" horiz-adv-x="301" 
d="M227 704v-704h-153v704h153zM-10 901h322v-103h-322v103z" />
    <glyph glyph-name="imacron" unicode="&#x12b;" horiz-adv-x="272" 
d="M209 517v-517h-146v517h146zM-10 717h290v-103h-290v103z" />
    <glyph glyph-name="Ibreve" unicode="&#x12c;" horiz-adv-x="301" 
d="M227 704v-704h-153v704h153zM80 938c0 -22 6.16699 -40.5 18.5 -55.5s29.833 -22.5 52.5 -22.5s40.167 7.5 52.5 22.5s18.5 33.5 18.5 55.5h109c-0.666992 -52.667 -17 -94.667 -49 -126s-75.667 -47 -131 -47s-99 15.667 -131 47s-48.333 73.333 -49 126h109z" />
    <glyph glyph-name="ibreve" unicode="&#x12d;" horiz-adv-x="272" 
d="M209 517v-517h-146v517h146zM69 753c0 -22.667 5.5 -41.334 16.5 -56.001s27.5 -22 49.5 -22s38.5 7.33301 49.5 22s16.5 33.334 16.5 56.001h109c-0.666992 -52.667 -16.5 -94.667 -47.5 -126s-73.5 -47 -127.5 -47s-96.5 15.667 -127.5 47s-46.833 73.333 -47.5 126
h109z" />
    <glyph glyph-name="Iogonek" unicode="&#x12e;" horiz-adv-x="301" 
d="M227 704v-704c-49.333 -35.333 -74 -68 -74 -98c0 -30.667 17.333 -46 52 -46h39v-96h-68c-48 0 -84.667 10 -110 30s-38 46.667 -38 80c0 48.667 26.333 92 79 130h-33v704h153z" />
    <glyph glyph-name="iogonek" unicode="&#x12f;" horiz-adv-x="272" 
d="M209 517v-517c-49.333 -35.333 -74 -68 -74 -98c0 -30.667 17.333 -46 52 -46h39v-96h-68c-48 0 -84.667 10 -110 30s-38 46.667 -38 80c0 48.667 26.333 92 79 130h-26v517h146zM135 749c23.333 0 43.166 -8 59.499 -24s24.5 -35.333 24.5 -58
c0 -23.333 -8.16699 -43 -24.5 -59s-36.166 -24 -59.499 -24s-43 8 -59 24s-24 35.667 -24 59s8 42.833 24 58.5s35.667 23.5 59 23.5z" />
    <glyph glyph-name="Idotaccent" unicode="&#x130;" horiz-adv-x="301" 
d="M227 704v-704h-153v704h153zM151 934c23.333 0 43.166 -8 59.499 -24s24.5 -35.333 24.5 -58c0 -23.333 -8.16699 -43 -24.5 -59s-36.166 -24 -59.499 -24s-43 8 -59 24s-24 35.667 -24 59s8 42.833 24 58.5s35.667 23.5 59 23.5z" />
    <glyph glyph-name="dotlessi" unicode="&#x131;" horiz-adv-x="272" 
d="M209 517v-517h-146v517h146z" />
    <glyph glyph-name="Jcircumflex" unicode="&#x134;" horiz-adv-x="578" 
d="M23 204h149c2 -20.667 10.667 -39 26 -55s36.333 -24 63 -24c30 0 53.167 9.83301 69.5 29.5s24.5 47.5 24.5 83.5v466h153v-468c0 -78.667 -22 -139.667 -66 -183s-104.667 -65 -182 -65c-70.667 0 -127.667 20.5 -171 61.5s-65.333 92.5 -66 154.5zM360 771h-126
l138 170h120l138 -170h-125l-73 84z" />
    <glyph glyph-name="jcircumflex" unicode="&#x135;" horiz-adv-x="272" 
d="M-20 -193v117h21c42 0 63 27.333 63 82v511h145v-516c0 -66.667 -15 -115.667 -45 -147s-79.333 -47 -148 -47h-36zM73 586h-123l126 170h120l126 -170h-123l-63 84z" />
    <glyph glyph-name="Kcommaaccent" unicode="&#x136;" horiz-adv-x="665" 
d="M227 0h-153v704h153v-290l246 290h179l-282 -338l288 -366h-186l-245 307v-307zM428 -139c0 -19.333 -4 -38.999 -12 -58.999l-45 -107h-100l40 98c-33.333 13.333 -50 37.666 -50 72.999c0 23.333 7.66699 42.333 23 57s35 22 59 22s44.167 -8 60.5 -24
s24.5 -36 24.5 -60z" />
    <glyph glyph-name="kcommaaccent" unicode="&#x137;" horiz-adv-x="552" 
d="M209 0h-146v727h146v-415l169 205h165l-201 -243l205 -274h-170l-168 229v-229zM369 -139c0 -19.333 -4 -38.999 -12 -58.999l-45 -107h-100l40 98c-33.333 13.333 -50 37.666 -50 72.999c0 23.333 7.66699 42.333 23 57s35 22 59 22s44.167 -8 60.5 -24
s24.5 -36 24.5 -60z" />
    <glyph glyph-name="Lacute" unicode="&#x139;" horiz-adv-x="581" 
d="M227 704v-568h319v-136h-472v704h153zM324 941l-109 -170h-119l94 170h134z" />
    <glyph glyph-name="lacute" unicode="&#x13a;" horiz-adv-x="272" 
d="M209 727v-727h-146v727h146zM309 954l-109 -170h-119l94 170h134z" />
    <glyph glyph-name="Lcommaaccent" unicode="&#x13b;" horiz-adv-x="581" 
d="M227 704v-568h319v-136h-472v704h153zM404 -139c0 -19.333 -4 -38.999 -12 -58.999l-45 -107h-100l40 98c-33.333 13.333 -50 37.666 -50 72.999c0 23.333 7.66699 42.333 23 57s35 22 59 22s44.167 -8 60.5 -24s24.5 -36 24.5 -60z" />
    <glyph glyph-name="lcommaaccent" unicode="&#x13c;" horiz-adv-x="272" 
d="M209 727v-727h-146v727h146zM219 -139c0 -19.333 -4 -38.999 -12 -58.999l-45 -107h-100l40 98c-33.333 13.333 -50 37.666 -50 72.999c0 23.333 7.66699 42.333 23 57s35 22 59 22s44.167 -8 60.5 -24s24.5 -36 24.5 -60z" />
    <glyph glyph-name="Lcaron" unicode="&#x13d;" horiz-adv-x="581" 
d="M227 704v-568h319v-136h-472v704h153zM463 629c0 -19.333 -4 -39 -12 -59l-52 -124h-100l47 115c-33.333 13.333 -50 37.666 -50 72.999c0 22.667 7.66699 41.334 23 56.001s35 22 59 22s44.167 -7.83301 60.5 -23.5s24.5 -35.5 24.5 -59.5z" />
    <glyph glyph-name="lcaron" unicode="&#x13e;" horiz-adv-x="429" 
d="M209 727v-727h-146v727h146zM431 652c0 -19.333 -4 -39 -12 -59l-52 -124h-100l47 115c-33.333 13.333 -50 37.666 -50 72.999c0 22.667 7.66699 41.334 23 56.001s35 22 59 22s44.167 -7.83301 60.5 -23.5s24.5 -35.5 24.5 -59.5z" />
    <glyph glyph-name="Ldot" unicode="&#x13f;" horiz-adv-x="581" 
d="M227 704v-568h319v-136h-472v704h153zM394 494c24.667 0 45.334 -8.33301 62.001 -25s25 -37.334 25 -62.001s-8.33301 -45.334 -25 -62.001s-37.334 -25 -62.001 -25c-25.333 0 -46.5 8.33301 -63.5 25s-25.5 37.334 -25.5 62.001s8.5 45.334 25.5 62.001
s38.167 25 63.5 25z" />
    <glyph glyph-name="ldot" unicode="&#x140;" horiz-adv-x="443" 
d="M209 727v-727h-146v727h146zM351 439c24.667 0 45.334 -8.33301 62.001 -25s25 -37.334 25 -62.001s-8.33301 -45.334 -25 -62.001s-37.334 -25 -62.001 -25c-25.333 0 -46.5 8.33301 -63.5 25s-25.5 37.334 -25.5 62.001s8.5 45.334 25.5 62.001s38.167 25 63.5 25z" />
    <glyph glyph-name="Lslash" unicode="&#x141;" horiz-adv-x="601" 
d="M394 433l-147 -70v-227h320v-136h-473v291l-74 -35v122l74 35v291h153v-219l147 70v-122z" />
    <glyph glyph-name="lslash" unicode="&#x142;" horiz-adv-x="319" 
d="M10 380l77 37v310h145v-240l77 38v-112l-77 -38v-375h-145v305l-77 -37v112z" />
    <glyph glyph-name="Nacute" unicode="&#x143;" horiz-adv-x="747" 
d="M234 704l292 -446v446h147v-704h-144l-308 468v-468h-147v704h160zM549 941l-109 -170h-119l94 170h134z" />
    <glyph glyph-name="nacute" unicode="&#x144;" horiz-adv-x="597" 
d="M63 517l140.001 -0.000976562v-61c13.333 20.667 33 38 59 52s56.333 21 91 21c53.333 0 97.666 -16.5 132.999 -49.5s53 -82.833 53 -149.5v-330h-146v298c0 32.667 -8 57.5 -24 74.5s-37.667 25.5 -65 25.5c-26 0 -48.333 -8.66699 -67 -26s-28 -42.666 -28 -75.999
v-296h-146v517zM477.001 755.999l-109 -170h-119l94 170h134z" />
    <glyph glyph-name="Ncommaaccent" unicode="&#x145;" horiz-adv-x="747" 
d="M234 704l292 -446v446h147v-704h-144l-308 468v-468h-147v704h160zM454 -129c0 -19.333 -4 -38.999 -12 -58.999l-45 -107h-100l40 98c-33.333 13.333 -50 37.666 -50 72.999c0 23.333 7.66699 42.333 23 57s35 22 59 22s44.167 -8 60.5 -24s24.5 -36 24.5 -60z" />
    <glyph glyph-name="ncommaaccent" unicode="&#x146;" horiz-adv-x="597" 
d="M63 517l140.001 -0.000976562v-61c13.333 20.667 33 38 59 52s56.333 21 91 21c53.333 0 97.666 -16.5 132.999 -49.5s53 -82.833 53 -149.5v-330h-146v298c0 32.667 -8 57.5 -24 74.5s-37.667 25.5 -65 25.5c-26 0 -48.333 -8.66699 -67 -26s-28 -42.666 -28 -75.999
v-296h-146v517zM384.001 -139.001c0 -19.333 -4 -38.999 -12 -58.999l-45 -107h-100l40 98c-33.333 13.333 -50 37.666 -50 72.999c0 23.333 7.66699 42.333 23 57s35 22 59 22s44.167 -8 60.5 -24s24.5 -36 24.5 -60z" />
    <glyph glyph-name="Ncaron" unicode="&#x147;" horiz-adv-x="747" 
d="M234 704l292 -446v446h147v-704h-144l-308 468v-468h-147v704h160zM300 941l76 -84l76 84h126l-142 -170h-120l-142 170h126z" />
    <glyph glyph-name="ncaron" unicode="&#x148;" horiz-adv-x="597" 
d="M63 517l140.001 -0.000976562v-61c13.333 20.667 33 38 59 52s56.333 21 91 21c53.333 0 97.666 -16.5 132.999 -49.5s53 -82.833 53 -149.5v-330h-146v298c0 32.667 -8 57.5 -24 74.5s-37.667 25.5 -65 25.5c-26 0 -48.333 -8.66699 -67 -26s-28 -42.666 -28 -75.999
v-296h-146v517zM232.001 755.999l72 -84l73 84h125l-138 -170h-120l-138 170h126z" />
    <glyph glyph-name="Eng" unicode="&#x14a;" horiz-adv-x="747" 
d="M526 704h147v-703c0 -66.667 -15.333 -115.667 -46 -147s-80.667 -47 -150 -47h-37v120h22c44.667 0 67 21.667 67 65v11l-308 465v-468h-147v704h160l292 -443v443z" />
    <glyph glyph-name="eng" unicode="&#x14b;" horiz-adv-x="597" 
d="M353 529c53.333 0 97.667 -16.501 133 -49.501s53 -82.833 53 -149.5v-329c0 -66.667 -15.167 -115.667 -45.5 -147s-79.833 -47 -148.5 -47h-36v117h21c42 0 63 27.333 63 82v292c0 32.667 -8 57.5 -24 74.5s-37.667 25.5 -65 25.5c-26 0 -48.333 -8.66699 -67 -26
s-28 -42.666 -28 -75.999v-296h-146v517h140v-61c13.333 20.667 33 38 59 52s56.333 21 91 21z" />
    <glyph glyph-name="Omacron" unicode="&#x14c;" horiz-adv-x="758" 
d="M379 716c100 0 181.167 -33.5 243.5 -100.5s93.5 -154.833 93.5 -263.5s-31.167 -196.5 -93.5 -263.5s-143.5 -100.5 -243.5 -100.5s-181.167 33.5 -243.5 100.5s-93.5 154.833 -93.5 263.5s31.167 196.5 93.5 263.5s143.5 100.5 243.5 100.5zM379 125
c56 0 100.167 21.167 132.5 63.5s48.5 96.833 48.5 163.5s-16.167 121.167 -48.5 163.5s-76.5 63.5 -132.5 63.5s-100.167 -21.167 -132.5 -63.5s-48.5 -96.833 -48.5 -163.5s16.167 -121.167 48.5 -163.5s76.5 -63.5 132.5 -63.5zM213 902h332v-104h-332v104z" />
    <glyph glyph-name="omacron" unicode="&#x14d;" horiz-adv-x="591" 
d="M296 529c76.667 0 139.167 -24.833 187.5 -74.5s72.5 -115.167 72.5 -196.5s-24.167 -146.666 -72.5 -195.999s-110.833 -74 -187.5 -74c-77.333 0 -140.166 24.667 -188.499 74s-72.5 114.666 -72.5 195.999s24.167 146.833 72.5 196.5s111.166 74.5 188.499 74.5z
M296 114c34.667 0 62.332 13.333 82.999 40s31 61.334 31 104.001c0 43.333 -10.167 78.333 -30.5 105s-48.166 40 -83.499 40s-63.333 -13.333 -84 -40s-31 -61.667 -31 -105c0 -42.667 10.333 -77.334 31 -104.001s48.667 -40 84 -40zM134.998 717h322v-103h-322v103z" />
    <glyph glyph-name="Obreve" unicode="&#x14e;" horiz-adv-x="758" 
d="M379 716c100 0 181.167 -33.5 243.5 -100.5s93.5 -154.833 93.5 -263.5s-31.167 -196.5 -93.5 -263.5s-143.5 -100.5 -243.5 -100.5s-181.167 33.5 -243.5 100.5s-93.5 154.833 -93.5 263.5s31.167 196.5 93.5 263.5s143.5 100.5 243.5 100.5zM379 125
c56 0 100.167 21.167 132.5 63.5s48.5 96.833 48.5 163.5s-16.167 121.167 -48.5 163.5s-76.5 63.5 -132.5 63.5s-100.167 -21.167 -132.5 -63.5s-48.5 -96.833 -48.5 -163.5s16.167 -121.167 48.5 -163.5s76.5 -63.5 132.5 -63.5zM305 938c0 -22 6.33301 -40.5 19 -55.5
s31 -22.5 55 -22.5s42.333 7.5 55 22.5s19 33.5 19 55.5h110c-0.666992 -52 -17.5 -93.833 -50.5 -125.5s-77.5 -47.5 -133.5 -47.5s-100.5 15.833 -133.5 47.5s-49.833 73.5 -50.5 125.5h110z" />
    <glyph glyph-name="obreve" unicode="&#x14f;" horiz-adv-x="591" 
d="M296 529c76.667 0 139.167 -24.833 187.5 -74.5s72.5 -115.167 72.5 -196.5s-24.167 -146.666 -72.5 -195.999s-110.833 -74 -187.5 -74c-77.333 0 -140.166 24.667 -188.499 74s-72.5 114.666 -72.5 195.999s24.167 146.833 72.5 196.5s111.166 74.5 188.499 74.5z
M296 114c34.667 0 62.332 13.333 82.999 40s31 61.334 31 104.001c0 43.333 -10.167 78.333 -30.5 105s-48.166 40 -83.499 40s-63.333 -13.333 -84 -40s-31 -61.667 -31 -105c0 -42.667 10.333 -77.334 31 -104.001s48.667 -40 84 -40zM224.998 753
c0 -22 6.16699 -40.5 18.5 -55.5s29.833 -22.5 52.5 -22.5s40.167 7.5 52.5 22.5s18.5 33.5 18.5 55.5h109c-0.666992 -52.667 -17 -94.667 -49 -126s-75.667 -47 -131 -47s-99 15.667 -131 47s-48.333 73.333 -49 126h109z" />
    <glyph glyph-name="Ohungarumlaut" unicode="&#x150;" horiz-adv-x="758" 
d="M379 716c100 0 181.167 -33.5 243.5 -100.5s93.5 -154.833 93.5 -263.5s-31.167 -196.5 -93.5 -263.5s-143.5 -100.5 -243.5 -100.5s-181.167 33.5 -243.5 100.5s-93.5 154.833 -93.5 263.5s31.167 196.5 93.5 263.5s143.5 100.5 243.5 100.5zM379 125
c56 0 100.167 21.167 132.5 63.5s48.5 96.833 48.5 163.5s-16.167 121.167 -48.5 163.5s-76.5 63.5 -132.5 63.5s-100.167 -21.167 -132.5 -63.5s-48.5 -96.833 -48.5 -163.5s16.167 -121.167 48.5 -163.5s76.5 -63.5 132.5 -63.5zM444 941l-104 -170h-114l89 170h129z
M637 941l-103 -170h-114l88 170h129z" />
    <glyph glyph-name="ohungarumlaut" unicode="&#x151;" horiz-adv-x="591" 
d="M296 529c76.667 0 139.167 -24.833 187.5 -74.5s72.5 -115.167 72.5 -196.5s-24.167 -146.666 -72.5 -195.999s-110.833 -74 -187.5 -74c-77.333 0 -140.166 24.667 -188.499 74s-72.5 114.666 -72.5 195.999s24.167 146.833 72.5 196.5s111.166 74.5 188.499 74.5z
M296 114c34.667 0 62.332 13.333 82.999 40s31 61.334 31 104.001c0 43.333 -10.167 78.333 -30.5 105s-48.166 40 -83.499 40s-63.333 -13.333 -84 -40s-31 -61.667 -31 -105c0 -42.667 10.333 -77.334 31 -104.001s48.667 -40 84 -40zM361.998 756l-103 -170h-114l88 170
h129zM551.998 756l-103 -170h-114l88 170h129z" />
    <glyph glyph-name="OE" unicode="&#x152;" horiz-adv-x="1020" 
d="M970 704v-136h-319v-144h300v-131h-300v-157h319v-136h-559c-111.333 0 -200.666 31.667 -267.999 95s-101 149 -101 257s33.667 193.667 101 257s156.666 95 267.999 95h559zM198 352c0 -67.333 20.333 -120.5 61 -159.5s95 -58.5 163 -58.5h76v436h-76
c-68 0 -122.333 -19.5 -163 -58.5s-61 -92.167 -61 -159.5z" />
    <glyph glyph-name="oe" unicode="&#x153;" horiz-adv-x="938" 
d="M288 529c84 0 148.334 -30.667 193.001 -92c43.333 61.333 105.333 92 186 92c71.333 0 128.5 -23.667 171.5 -71s64.5 -111 64.5 -191v-50h-349v-2c0 -32 10.833 -58.667 32.5 -80s49.5 -32 83.5 -32c23.333 0 42.666 4.66699 57.999 14s24.666 19.666 27.999 30.999
h142c-8 -42 -31 -79.167 -69 -111.5s-90 -48.5 -156 -48.5c-85.333 0 -149.666 30 -192.999 90c-44 -60 -108 -90 -192 -90c-74 0 -134.667 24.833 -182 74.5s-71 114.834 -71 195.501s23.667 146 71 196s108 75 182 75zM296.001 114c34.667 0 62.334 13.333 83.001 40
s31 61.334 31 104.001s-10.333 77.5 -31 104.5s-48.334 40.5 -83.001 40.5c-35.333 0 -63.333 -13.5 -84 -40.5s-31 -61.833 -31 -104.5s10.333 -77.334 31 -104.001s48.667 -40 84 -40zM661.001 415c-29.333 0 -53.499 -8.49902 -72.499 -25.499s-30.167 -40.5 -33.5 -70.5
h205c-2 29.333 -11.833 52.666 -29.5 69.999s-40.834 26 -69.501 26z" />
    <glyph glyph-name="Racute" unicode="&#x154;" horiz-adv-x="652" 
d="M598 472c0 -44.667 -10.5 -85 -31.5 -121s-50.5 -63.667 -88.5 -83l159 -268h-171l-140 239h-99v-239h-153v704h272c78 0 139.5 -21.833 184.5 -65.5s67.5 -99.167 67.5 -166.5zM333 573h-106v-205h106c34 0 60.833 9.5 80.5 28.5s29.5 43.5 29.5 73.5
c0 30.667 -9.66699 55.5 -29 74.5s-46.333 28.5 -81 28.5zM499 941l-109 -170h-119l94 170h134z" />
    <glyph glyph-name="racute" unicode="&#x155;" horiz-adv-x="404" 
d="M353 519h26v-138h-34c-43.333 0 -76.833 -10.5 -100.5 -31.5s-35.5 -50.167 -35.5 -87.5v-262h-146v517h140v-81c30.667 55.333 80.667 83 150 83zM396 756l-109 -170h-119l94 170h134z" />
    <glyph glyph-name="Rcommaaccent" unicode="&#x156;" horiz-adv-x="652" 
d="M598 472c0 -44.667 -10.5 -85 -31.5 -121s-50.5 -63.667 -88.5 -83l159 -268h-171l-140 239h-99v-239h-153v704h272c78 0 139.5 -21.833 184.5 -65.5s67.5 -99.167 67.5 -166.5zM333 573h-106v-205h106c34 0 60.833 9.5 80.5 28.5s29.5 43.5 29.5 73.5
c0 30.667 -9.66699 55.5 -29 74.5s-46.333 28.5 -81 28.5zM426 -139c0 -19.333 -4 -38.999 -12 -58.999l-45 -107h-100l40 98c-33.333 13.333 -50 37.666 -50 72.999c0 23.333 7.66699 42.333 23 57s35 22 59 22s44.167 -8 60.5 -24s24.5 -36 24.5 -60z" />
    <glyph glyph-name="rcommaaccent" unicode="&#x157;" horiz-adv-x="404" 
d="M353 519h26v-138h-34c-43.333 0 -76.833 -10.5 -100.5 -31.5s-35.5 -50.167 -35.5 -87.5v-262h-146v517h140v-81c30.667 55.333 80.667 83 150 83zM219 -139c0 -19.333 -4 -38.999 -12 -58.999l-45 -107h-100l40 98c-33.333 13.333 -50 37.666 -50 72.999
c0 23.333 7.66699 42.333 23 57s35 22 59 22s44.167 -8 60.5 -24s24.5 -36 24.5 -60z" />
    <glyph glyph-name="Rcaron" unicode="&#x158;" horiz-adv-x="652" 
d="M598 472c0 -44.667 -10.5 -85 -31.5 -121s-50.5 -63.667 -88.5 -83l159 -268h-171l-140 239h-99v-239h-153v704h272c78 0 139.5 -21.833 184.5 -65.5s67.5 -99.167 67.5 -166.5zM333 573h-106v-205h106c34 0 60.833 9.5 80.5 28.5s29.5 43.5 29.5 73.5
c0 30.667 -9.66699 55.5 -29 74.5s-46.333 28.5 -81 28.5zM250 941l76 -84l76 84h126l-142 -170h-120l-142 170h126z" />
    <glyph glyph-name="rcaron" unicode="&#x159;" horiz-adv-x="404" 
d="M353 519h26v-138h-34c-43.333 0 -76.833 -10.5 -100.5 -31.5s-35.5 -50.167 -35.5 -87.5v-262h-146v517h140v-81c30.667 55.333 80.667 83 150 83zM151 756l72 -84l73 84h125l-138 -170h-120l-138 170h126z" />
    <glyph glyph-name="Sacute" unicode="&#x15a;" horiz-adv-x="634" 
d="M41 202l154.001 -0.000976562c15.333 -56.667 59 -85 131 -85c34.667 0 62 7.83301 82 23.5s30 36.5 30 62.5c0 42 -27.667 67.333 -83 76l-113 18c-128.667 19.333 -193 84.666 -193 195.999c0 66 24.667 119.667 74 161s112 62 188 62
c74.667 0 136.5 -18.333 185.5 -55s78.167 -87.667 87.5 -153h-152c-16 52 -56.333 78 -121 78c-30.667 0 -56.167 -7.5 -76.5 -22.5s-30.5 -34.833 -30.5 -59.5c0 -38 26.667 -61 80 -69l111 -17c61.333 -9.33301 109.666 -30.666 144.999 -63.999s53 -79.666 53 -138.999
c0 -70 -24 -125.333 -72 -166s-113.333 -61 -196 -61c-78 0 -142.667 19 -194 57s-81.333 90.333 -90 157zM489.001 940.999l-109 -170h-119l94 170h134z" />
    <glyph glyph-name="sacute" unicode="&#x15b;" horiz-adv-x="519" 
d="M177 153c8 -36.667 37.998 -55 89.998 -55c24 0 42.667 4.83301 56 14.5s20 22.5 20 38.5c0 24 -19 38.667 -57 44l-88 10c-104 12.667 -156 63.334 -156 152.001c0 50.667 20.333 92 61 124s92.334 48 155.001 48c60.667 0 110.5 -14.333 149.5 -43
s61.833 -68.334 68.5 -119.001h-141c-10 34 -37 51 -81 51c-21.333 0 -38.5 -4.83301 -51.5 -14.5s-19.5 -21.5 -19.5 -35.5c0 -24.667 18 -39 54 -43l92 -11c48 -6 86 -21.667 114 -47s42 -61 42 -107c0 -54 -20.333 -96.167 -61 -126.5s-93 -45.5 -157 -45.5
c-62.667 0 -115.667 14 -159 42s-67.666 69 -72.999 123h142zM431.998 756l-109 -170h-119l94 170h134z" />
    <glyph glyph-name="Scircumflex" unicode="&#x15c;" horiz-adv-x="634" 
d="M41 202l154.001 -0.000976562c15.333 -56.667 59 -85 131 -85c34.667 0 62 7.83301 82 23.5s30 36.5 30 62.5c0 42 -27.667 67.333 -83 76l-113 18c-128.667 19.333 -193 84.666 -193 195.999c0 66 24.667 119.667 74 161s112 62 188 62
c74.667 0 136.5 -18.333 185.5 -55s78.167 -87.667 87.5 -153h-152c-16 52 -56.333 78 -121 78c-30.667 0 -56.167 -7.5 -76.5 -22.5s-30.5 -34.833 -30.5 -59.5c0 -38 26.667 -61 80 -69l111 -17c61.333 -9.33301 109.666 -30.666 144.999 -63.999s53 -79.666 53 -138.999
c0 -70 -24 -125.333 -72 -166s-113.333 -61 -196 -61c-78 0 -142.667 19 -194 57s-81.333 90.333 -90 157zM240.001 770.999h-126l142 170h120l142 -170h-126l-76 84z" />
    <glyph glyph-name="scircumflex" unicode="&#x15d;" horiz-adv-x="519" 
d="M177 153c8 -36.667 37.998 -55 89.998 -55c24 0 42.667 4.83301 56 14.5s20 22.5 20 38.5c0 24 -19 38.667 -57 44l-88 10c-104 12.667 -156 63.334 -156 152.001c0 50.667 20.333 92 61 124s92.334 48 155.001 48c60.667 0 110.5 -14.333 149.5 -43
s61.833 -68.334 68.5 -119.001h-141c-10 34 -37 51 -81 51c-21.333 0 -38.5 -4.83301 -51.5 -14.5s-19.5 -21.5 -19.5 -35.5c0 -24.667 18 -39 54 -43l92 -11c48 -6 86 -21.667 114 -47s42 -61 42 -107c0 -54 -20.333 -96.167 -61 -126.5s-93 -45.5 -157 -45.5
c-62.667 0 -115.667 14 -159 42s-67.666 69 -72.999 123h142zM186.998 586h-126l138 170h120l138 -170h-125l-73 84z" />
    <glyph glyph-name="Scedilla" unicode="&#x15e;" horiz-adv-x="634" 
d="M41 202l154.002 -0.000976562c15.333 -56.667 59 -85 131 -85c34.667 0 62 7.83301 82 23.5s30 36.5 30 62.5c0 42 -27.667 67.333 -83 76l-113 18c-128.667 19.333 -193 84.666 -193 195.999c0 66 24.667 119.667 74 161s112 62 188 62
c74.667 0 136.5 -18.333 185.5 -55s78.167 -87.667 87.5 -153h-152c-16 52 -56.333 78 -121 78c-30.667 0 -56.167 -7.5 -76.5 -22.5s-30.5 -34.833 -30.5 -59.5c0 -38 26.667 -61 80 -69l111 -17c61.333 -9.33301 109.666 -30.666 144.999 -63.999s53 -79.666 53 -138.999
c0 -63.333 -19.833 -114.833 -59.5 -154.5s-94.5 -63.167 -164.5 -70.5l-13 -39c23.333 -2.66699 43.666 -12 60.999 -28s26 -37.667 26 -65c0 -34 -13 -61.167 -39 -81.5s-64 -30.5 -114 -30.5h-63v82h51c30.667 0 46 11.667 46 35c0 22 -15 33 -45 33h-30v21l27 74
c-65.333 7.33301 -118.833 29.5 -160.5 66.5s-66.5 85.167 -74.5 144.5z" />
    <glyph glyph-name="scedilla" unicode="&#x15f;" horiz-adv-x="519" 
d="M177 153c8 -36.667 38.002 -55.001 90.002 -55.001c24 0 42.667 4.83301 56 14.5s20 22.5 20 38.5c0 24 -19 38.667 -57 44l-88 10c-104 12.667 -156 63.334 -156 152.001c0 50.667 20.333 92 61 124s92.334 48 155.001 48c60.667 0 110.5 -14.333 149.5 -43
s61.833 -68.334 68.5 -119.001h-141c-10 34 -37 51 -81 51c-21.333 0 -38.5 -4.83301 -51.5 -14.5s-19.5 -21.5 -19.5 -35.5c0 -24.667 18 -39 54 -43l92 -11c48 -6 86 -21.667 114 -47s42 -61 42 -107c0 -47.333 -15.833 -85.666 -47.5 -114.999
s-73.834 -47.333 -126.501 -54l-13 -40c23.333 -2.66699 43.666 -12 60.999 -28s26 -37.667 26 -65c0 -34 -13 -61.167 -39 -81.5s-64 -30.5 -114 -30.5h-63v82h51c30.667 0 46 11.667 46 35c0 22 -15 33 -45 33h-30v21l27 74c-50.667 6.66699 -92.834 23.667 -126.501 51
s-52.5 64.333 -56.5 111h142z" />
    <glyph glyph-name="Scaron" unicode="&#x160;" horiz-adv-x="634" 
d="M41 202l154.001 -0.000976562c15.333 -56.667 59 -85 131 -85c34.667 0 62 7.83301 82 23.5s30 36.5 30 62.5c0 42 -27.667 67.333 -83 76l-113 18c-128.667 19.333 -193 84.666 -193 195.999c0 66 24.667 119.667 74 161s112 62 188 62
c74.667 0 136.5 -18.333 185.5 -55s78.167 -87.667 87.5 -153h-152c-16 52 -56.333 78 -121 78c-30.667 0 -56.167 -7.5 -76.5 -22.5s-30.5 -34.833 -30.5 -59.5c0 -38 26.667 -61 80 -69l111 -17c61.333 -9.33301 109.666 -30.666 144.999 -63.999s53 -79.666 53 -138.999
c0 -70 -24 -125.333 -72 -166s-113.333 -61 -196 -61c-78 0 -142.667 19 -194 57s-81.333 90.333 -90 157zM240.001 940.999l76 -84l76 84h126l-142 -170h-120l-142 170h126z" />
    <glyph glyph-name="scaron" unicode="&#x161;" horiz-adv-x="519" 
d="M177 153c8 -36.667 37.998 -55 89.998 -55c24 0 42.667 4.83301 56 14.5s20 22.5 20 38.5c0 24 -19 38.667 -57 44l-88 10c-104 12.667 -156 63.334 -156 152.001c0 50.667 20.333 92 61 124s92.334 48 155.001 48c60.667 0 110.5 -14.333 149.5 -43
s61.833 -68.334 68.5 -119.001h-141c-10 34 -37 51 -81 51c-21.333 0 -38.5 -4.83301 -51.5 -14.5s-19.5 -21.5 -19.5 -35.5c0 -24.667 18 -39 54 -43l92 -11c48 -6 86 -21.667 114 -47s42 -61 42 -107c0 -54 -20.333 -96.167 -61 -126.5s-93 -45.5 -157 -45.5
c-62.667 0 -115.667 14 -159 42s-67.666 69 -72.999 123h142zM186.998 756l72 -84l73 84h125l-138 -170h-120l-138 170h126z" />
    <glyph glyph-name="Tcedilla" unicode="&#x162;" horiz-adv-x="634" 
d="M31 568l0.000976562 136h572v-136h-209v-568h-29l-16 -49c23.333 -2.66699 43.666 -12 60.999 -28s26 -37.667 26 -65c0 -34 -13 -61.167 -39 -81.5s-64 -30.5 -114 -30.5h-63v82h51c30.667 0 46 11.667 46 35c0 22 -15 33 -45 33h-30v21l31 83h-32v568h-210z" />
    <glyph glyph-name="tcedilla" unicode="&#x163;" horiz-adv-x="374" 
d="M240 192c0 -26 5.66895 -43.833 17.002 -53.5s28.666 -14.5 51.999 -14.5h30v-125h-68l-15 -48c23.333 -2.66699 43.666 -12 60.999 -28s26 -37.667 26 -65c0 -34 -13 -61.167 -39 -81.5s-64 -30.5 -114 -30.5h-63v82h51c30.667 0 46 11.667 46 35c0 22 -15 33 -45 33
h-30v21l36 96c-60.667 22.667 -91 78.667 -91 168v217h-79v119h79v132h146v-132h99v-119h-99v-206z" />
    <glyph glyph-name="Tcaron" unicode="&#x164;" horiz-adv-x="634" 
d="M31 568v136h572v-136h-209v-568h-153v568h-210zM242 941l76 -84l76 84h126l-142 -170h-120l-142 170h126z" />
    <glyph glyph-name="tcaron" unicode="&#x165;" horiz-adv-x="414" 
d="M240 192c0 -26 5.66699 -43.833 17 -53.5s28.666 -14.5 51.999 -14.5h30v-125h-56c-65.333 0 -113.166 14.167 -143.499 42.5s-45.5 74.833 -45.5 139.5v217h-79v119h79v132h146v-132h99v-119h-99v-206zM445 740c0 -17.333 -4.33301 -36.999 -13 -58.999l-45 -107h-99
l40 98c-34 13.333 -51 37.666 -51 72.999c0 22.667 7.83301 41.5 23.5 56.5s35.167 22.5 58.5 22.5c24 0 44.333 -8 61 -24s25 -36 25 -60z" />
    <glyph glyph-name="Tbar" unicode="&#x166;" horiz-adv-x="634" 
d="M537 255h-143v-255h-153v255h-143v118h143v195h-210v136h572v-136h-209v-195h143v-118z" />
    <glyph glyph-name="tbar" unicode="&#x167;" horiz-adv-x="374" 
d="M15 323h78.999v79h-79v115h79v132h145v-132h100v-115h-100v-79h100v-98h-100v-36c0 -26 5.83301 -43.833 17.5 -53.5s29.167 -14.5 52.5 -14.5h30v-122h-56c-65.333 0 -113.166 14.167 -143.499 42.5s-45.5 74.833 -45.5 139.5v44h-79v98z" />
    <glyph glyph-name="Utilde" unicode="&#x168;" horiz-adv-x="730" 
d="M69 286v418h153v-414c0 -52.667 12.833 -93.334 38.5 -122.001s60.5 -43 104.5 -43s78.833 14.333 104.5 43s38.5 69.334 38.5 122.001v414h153v-418c0 -97.333 -27.333 -171.333 -82 -222s-126 -76 -214 -76s-159.333 25.333 -214 76s-82 124.667 -82 222zM460 928
l91 0.000976562v-22c0 -44 -10.333 -78 -31 -102s-48.667 -36 -84 -36c-19.333 0 -38 5 -56 15s-33.5 20 -46.5 30s-23.5 15 -31.5 15c-9.33301 0 -17.166 -3.33301 -23.499 -10s-9.5 -16.334 -9.5 -29.001v-14h-90v22c0 44 10.167 78 30.5 102s48.166 36 83.499 36
c19.333 0 38 -4.83301 56 -14.5s33.5 -19.5 46.5 -29.5s23.5 -15 31.5 -15c22 0 33 12.667 33 38v14z" />
    <glyph glyph-name="utilde" unicode="&#x169;" horiz-adv-x="597" 
d="M535 0l-139.999 0.000976562v60c-14 -20.667 -34 -37.834 -60 -51.501s-56.333 -20.5 -91 -20.5c-52.667 0 -96.667 16.333 -132 49s-53 82.667 -53 150v330h145v-298c0 -32.667 8.16699 -57.5 24.5 -74.5s38.166 -25.5 65.499 -25.5c26.667 0 49.167 8.5 67.5 25.5
s27.5 42.5 27.5 76.5v296h146v-517zM389.001 743.001h90.0029v-22c0 -44 -10.333 -77.833 -31 -101.5s-48.667 -35.5 -84 -35.5c-25.333 0 -51.333 9.83301 -78 29.5s-44 29.5 -52 29.5c-20.667 0 -31 -12.667 -31 -38v-15h-90v22c0 44 10.167 78 30.5 102
s48.166 36 83.499 36c19.333 0 37.666 -5 54.999 -15s32.166 -19.833 44.499 -29.5s22.5 -14.5 30.5 -14.5c21.333 0 32 12.667 32 38v14z" />
    <glyph glyph-name="Umacron" unicode="&#x16a;" horiz-adv-x="730" 
d="M69 286v418h153v-414c0 -52.667 12.833 -93.334 38.5 -122.001s60.5 -43 104.5 -43s78.833 14.333 104.5 43s38.5 69.334 38.5 122.001v414h153v-418c0 -97.333 -27.333 -171.333 -82 -222s-126 -76 -214 -76s-159.333 25.333 -214 76s-82 124.667 -82 222zM199 902h332
v-104h-332v104z" />
    <glyph glyph-name="umacron" unicode="&#x16b;" horiz-adv-x="597" 
d="M535 0l-139.999 0.000976562v60c-14 -20.667 -34 -37.834 -60 -51.501s-56.333 -20.5 -91 -20.5c-52.667 0 -96.667 16.333 -132 49s-53 82.667 -53 150v330h145v-298c0 -32.667 8.16699 -57.5 24.5 -74.5s38.166 -25.5 65.499 -25.5c26.667 0 49.167 8.5 67.5 25.5
s27.5 42.5 27.5 76.5v296h146v-517zM135.001 717.001h322v-103h-322v103z" />
    <glyph glyph-name="Ubreve" unicode="&#x16c;" horiz-adv-x="730" 
d="M69 286v418h153v-414c0 -52.667 12.833 -93.334 38.5 -122.001s60.5 -43 104.5 -43s78.833 14.333 104.5 43s38.5 69.334 38.5 122.001v414h153v-418c0 -97.333 -27.333 -171.333 -82 -222s-126 -76 -214 -76s-159.333 25.333 -214 76s-82 124.667 -82 222zM291 938
c0 -22 6.33301 -40.5 19 -55.5s31 -22.5 55 -22.5s42.333 7.5 55 22.5s19 33.5 19 55.5h110c-0.666992 -52 -17.5 -93.833 -50.5 -125.5s-77.5 -47.5 -133.5 -47.5s-100.5 15.833 -133.5 47.5s-49.833 73.5 -50.5 125.5h110z" />
    <glyph glyph-name="ubreve" unicode="&#x16d;" horiz-adv-x="597" 
d="M535 0l-139.999 0.000976562v60c-14 -20.667 -34 -37.834 -60 -51.501s-56.333 -20.5 -91 -20.5c-52.667 0 -96.667 16.333 -132 49s-53 82.667 -53 150v330h145v-298c0 -32.667 8.16699 -57.5 24.5 -74.5s38.166 -25.5 65.499 -25.5c26.667 0 49.167 8.5 67.5 25.5
s27.5 42.5 27.5 76.5v296h146v-517zM225.001 753.001c0 -22 6.16699 -40.5 18.5 -55.5s29.833 -22.5 52.5 -22.5s40.167 7.5 52.5 22.5s18.5 33.5 18.5 55.5h109c-0.666992 -52.667 -17 -94.667 -49 -126s-75.667 -47 -131 -47s-99 15.667 -131 47s-48.333 73.333 -49 126
h109z" />
    <glyph glyph-name="Uring" unicode="&#x16e;" horiz-adv-x="730" 
d="M69 286v418h153v-414c0 -52.667 12.833 -93.334 38.5 -122.001s60.5 -43 104.5 -43s78.833 14.333 104.5 43s38.5 69.334 38.5 122.001v414h153v-418c0 -97.333 -27.333 -171.333 -82 -222s-126 -76 -214 -76s-159.333 25.333 -214 76s-82 124.667 -82 222zM487 876
c0 -33.333 -11.667 -61.166 -35 -83.499s-52.333 -33.5 -87 -33.5s-63.667 11.167 -87 33.5s-35 50.166 -35 83.499c0 34 11.5 62 34.5 84s52.167 33 87.5 33s64.5 -11 87.5 -33s34.5 -50 34.5 -84zM322 876c0 -12.667 4.16699 -23 12.5 -31s18.5 -12 30.5 -12
s22.167 4 30.5 12s12.5 18.333 12.5 31s-4.16699 23 -12.5 31s-18.5 12 -30.5 12s-22.167 -4 -30.5 -12s-12.5 -18.333 -12.5 -31z" />
    <glyph glyph-name="uring" unicode="&#x16f;" horiz-adv-x="597" 
d="M535 0l-139.999 0.000976562v60c-14 -20.667 -34 -37.834 -60 -51.501s-56.333 -20.5 -91 -20.5c-52.667 0 -96.667 16.333 -132 49s-53 82.667 -53 150v330h145v-298c0 -32.667 8.16699 -57.5 24.5 -74.5s38.166 -25.5 65.499 -25.5c26.667 0 49.167 8.5 67.5 25.5
s27.5 42.5 27.5 76.5v296h146v-517zM418.001 691.001c0 -33.333 -11.667 -61.166 -35 -83.499s-52.333 -33.5 -87 -33.5s-63.667 11.167 -87 33.5s-35 50.166 -35 83.499c0 34 11.5 62 34.5 84s52.167 33 87.5 33s64.5 -11 87.5 -33s34.5 -50 34.5 -84zM253.001 691.001
c0 -12.667 4.16699 -23 12.5 -31s18.5 -12 30.5 -12s22.167 4 30.5 12s12.5 18.333 12.5 31s-4.16699 23 -12.5 31s-18.5 12 -30.5 12s-22.167 -4 -30.5 -12s-12.5 -18.333 -12.5 -31z" />
    <glyph glyph-name="Uhungarumlaut" unicode="&#x170;" horiz-adv-x="730" 
d="M69 286v418h153v-414c0 -52.667 12.833 -93.334 38.5 -122.001s60.5 -43 104.5 -43s78.833 14.333 104.5 43s38.5 69.334 38.5 122.001v414h153v-418c0 -97.333 -27.333 -171.333 -82 -222s-126 -76 -214 -76s-159.333 25.333 -214 76s-82 124.667 -82 222zM430 941
l-104 -170h-114l89 170h129zM623 941l-103 -170h-114l88 170h129z" />
    <glyph glyph-name="uhungarumlaut" unicode="&#x171;" horiz-adv-x="597" 
d="M535 0l-139.999 0.000976562v60c-14 -20.667 -34 -37.834 -60 -51.501s-56.333 -20.5 -91 -20.5c-52.667 0 -96.667 16.333 -132 49s-53 82.667 -53 150v330h145v-298c0 -32.667 8.16699 -57.5 24.5 -74.5s38.166 -25.5 65.499 -25.5c26.667 0 49.167 8.5 67.5 25.5
s27.5 42.5 27.5 76.5v296h146v-517zM362.001 756.001l-103 -170h-114l88 170h129zM552.001 756.001l-103 -170h-114l88 170h129z" />
    <glyph glyph-name="Uogonek" unicode="&#x172;" horiz-adv-x="730" 
d="M545 36c-1.33301 -1.33301 -8 -6.66797 -20 -16.001s-19.833 -15.666 -23.5 -18.999s-10.667 -9.33301 -21 -18s-17.5 -15.667 -21.5 -21l-15 -19.5c-6 -7.66699 -10.167 -14.667 -12.5 -21s-3.5 -12.833 -3.5 -19.5c0 -30.667 17.333 -46 52 -46h39v-96h-68
c-48 0 -84.667 10 -110 30s-38 46.667 -38 80c0 40.667 22.667 80 68 118h-6c-88 0 -159.333 25.333 -214 76s-82 124.667 -82 222v418h153v-414c0 -52.667 12.833 -93.334 38.5 -122.001s60.5 -43 104.5 -43s78.833 14.333 104.5 43s38.5 69.334 38.5 122.001v414h153v-418
c0 -116 -39 -199.333 -117 -250h1z" />
    <glyph glyph-name="uogonek" unicode="&#x173;" horiz-adv-x="597" 
d="M535 0c-49.333 -35.333 -73.999 -67.999 -73.999 -97.999c0 -30.667 17.333 -46 52 -46h39v-96h-68c-48 0 -84.667 10 -110 30s-38 46.667 -38 80c0 48.667 26.333 92 79 130h-20v60c-14 -20.667 -34 -37.834 -60 -51.501s-56.333 -20.5 -91 -20.5
c-52.667 0 -96.667 16.333 -132 49s-53 82.667 -53 150v330h145v-298c0 -32.667 8.16699 -57.5 24.5 -74.5s38.166 -25.5 65.499 -25.5c26.667 0 49.167 8.5 67.5 25.5s27.5 42.5 27.5 76.5v296h146v-517z" />
    <glyph glyph-name="Wcircumflex" unicode="&#x174;" horiz-adv-x="1012" 
d="M991 704l-208 -704h-145l-133 485l-132 -485h-144l-208 704h155l130 -460l130 460h140l131 -461l130 461h154zM429 771h-126l142 170h120l142 -170h-126l-76 84z" />
    <glyph glyph-name="wcircumflex" unicode="&#x175;" horiz-adv-x="814" 
d="M806 517l-161 -517h-143l-96 339l-95 -339h-142l-160 517h148l90 -316l90 316h141l90 -317l89 317h149zM335 586h-126l138 170h120l138 -170h-125l-73 84z" />
    <glyph glyph-name="Ycircumflex" unicode="&#x176;" horiz-adv-x="669" 
d="M411 0h-153v267l-248 437h166l159 -291l159 291h165l-248 -437v-267zM262 771h-126l142 170h120l142 -170h-126l-76 84z" />
    <glyph glyph-name="ycircumflex" unicode="&#x177;" horiz-adv-x="550" 
d="M390 517h156l-272 -708h-155l78 205l-193 503h157l114 -333zM203 586h-126l138 170h120l138 -170h-125l-73 84z" />
    <glyph glyph-name="Ydieresis" unicode="&#x178;" horiz-adv-x="669" 
d="M411 0h-153v267l-248 437h166l159 -291l159 291h165l-248 -437v-267zM224 928c22 0 40.5 -7.66699 55.5 -23s22.5 -33.666 22.5 -54.999s-7.5 -39.5 -22.5 -54.5s-33.5 -22.5 -55.5 -22.5s-40.5 7.5 -55.5 22.5s-22.5 33.167 -22.5 54.5s7.5 39.666 22.5 54.999
s33.5 23 55.5 23zM453 928c21.333 0 39.666 -7.66699 54.999 -23s23 -33.666 23 -54.999s-7.66699 -39.5 -23 -54.5s-33.666 -22.5 -54.999 -22.5c-22 0 -40.5 7.5 -55.5 22.5s-22.5 33.167 -22.5 54.5s7.5 39.666 22.5 54.999s33.5 23 55.5 23z" />
    <glyph glyph-name="Zacute" unicode="&#x179;" horiz-adv-x="629" 
d="M50 121l339 447h-339v136h528v-120l-339 -448h339v-136h-528v121zM488 941l-109 -170h-119l94 170h134z" />
    <glyph glyph-name="zacute" unicode="&#x17a;" horiz-adv-x="511" 
d="M42 0v113l244 278h-244v126h427v-114l-244 -278h244v-125h-427zM429 756l-109 -170h-119l94 170h134z" />
    <glyph glyph-name="Zdotaccent" unicode="&#x17b;" horiz-adv-x="629" 
d="M50 121l339 447h-339v136h528v-120l-339 -448h339v-136h-528v121zM315 934c23.333 0 43.166 -8 59.499 -24s24.5 -35.333 24.5 -58c0 -23.333 -8.16699 -43 -24.5 -59s-36.166 -24 -59.499 -24s-43 8 -59 24s-24 35.667 -24 59s8 42.833 24 58.5s35.667 23.5 59 23.5z
" />
    <glyph glyph-name="zdotaccent" unicode="&#x17c;" horiz-adv-x="511" 
d="M42 0v113l244 278h-244v126h427v-114l-244 -278h244v-125h-427zM256 749c23.333 0 43.166 -8 59.499 -24s24.5 -35.333 24.5 -58c0 -23.333 -8.16699 -43 -24.5 -59s-36.166 -24 -59.499 -24s-43 8 -59 24s-24 35.667 -24 59s8 42.833 24 58.5s35.667 23.5 59 23.5z" />
    <glyph glyph-name="Zcaron" unicode="&#x17d;" horiz-adv-x="629" 
d="M50 121l339 447h-339v136h528v-120l-339 -448h339v-136h-528v121zM239 941l76 -84l76 84h126l-142 -170h-120l-142 170h126z" />
    <glyph glyph-name="zcaron" unicode="&#x17e;" horiz-adv-x="511" 
d="M42 0v113l244 278h-244v126h427v-114l-244 -278h244v-125h-427zM184 756l72 -84l73 84h125l-138 -170h-120l-138 170h126z" />
    <glyph glyph-name="Schwa" unicode="&#x18f;" horiz-adv-x="727" 
d="M42 343l0.000976562 59h483c-0.666992 54.667 -17.5 98.5 -50.5 131.5s-73.833 49.5 -122.5 49.5c-70 0 -119.333 -29 -148 -87h-154c14.667 63.333 48.5 115.833 101.5 157.5s120.167 62.5 201.5 62.5c101.333 0 182 -33.333 242 -100s90 -154.667 90 -264
c0 -110.667 -29.333 -199 -88 -265s-136.334 -99 -233.001 -99c-99.333 0 -177.833 33.333 -235.5 100s-86.5 151.667 -86.5 255zM365.001 121c44.667 0 80.833 14.333 108.5 43s44.167 66.667 49.5 114h-319c2 -44.667 17.5 -82 46.5 -112s67.167 -45 114.5 -45z" />
    <glyph glyph-name="florin" unicode="&#x192;" horiz-adv-x="513" 
d="M119 461h90.001l10 58c10 63.333 32 110 66 140s83.333 45 148 45h47v-123h-33c-47.333 0 -75.666 -26.333 -84.999 -79l-7 -41h84v-119h-104l-51 -315c-10.667 -63.333 -32.834 -110 -66.501 -140s-82.834 -45 -147.501 -45h-47v123h32c48.667 0 77 26.333 85 79l49 298
h-70v119z" />
    <glyph glyph-name="Acaron" unicode="&#x1cd;" horiz-adv-x="699" 
d="M270 704h158l258 -704h-158l-50 145h-258l-49 -145h-158zM348 527l-85 -254h170zM274 941l76 -84l76 84h126l-142 -170h-120l-142 170h126z" />
    <glyph glyph-name="acaron" unicode="&#x1ce;" horiz-adv-x="560" 
d="M359 343c0 23.333 -7.83203 41.333 -23.499 54s-36.167 19 -61.5 19c-46 0 -74 -16.667 -84 -50h-136c7.33301 47.333 30.666 86.333 69.999 117s91.333 46 156 46c68 0 122 -16.5 162 -49.5s60 -80.167 60 -141.5v-338h-135v56c-35.333 -45.333 -86.333 -68 -153 -68
c-52 0 -95 14.667 -129 44s-51 69.333 -51 120c0 52.667 18.833 93.667 56.5 123s89.5 44 155.5 44h113v24zM254.001 101c29.333 0 54.167 8.5 74.5 25.5s30.5 39.833 30.5 68.5v23h-102c-22.667 0 -41.167 -5.33301 -55.5 -16s-21.5 -25 -21.5 -43
s6.66699 -32.167 20 -42.5s31.333 -15.5 54 -15.5zM210.002 756l72 -84l73 84h125l-138 -170h-120l-138 170h126z" />
    <glyph glyph-name="Ocaron" unicode="&#x1d1;" horiz-adv-x="758" 
d="M379 716c100 0 181.167 -33.5 243.5 -100.5s93.5 -154.833 93.5 -263.5s-31.167 -196.5 -93.5 -263.5s-143.5 -100.5 -243.5 -100.5s-181.167 33.5 -243.5 100.5s-93.5 154.833 -93.5 263.5s31.167 196.5 93.5 263.5s143.5 100.5 243.5 100.5zM379 125
c56 0 100.167 21.167 132.5 63.5s48.5 96.833 48.5 163.5s-16.167 121.167 -48.5 163.5s-76.5 63.5 -132.5 63.5s-100.167 -21.167 -132.5 -63.5s-48.5 -96.833 -48.5 -163.5s16.167 -121.167 48.5 -163.5s76.5 -63.5 132.5 -63.5zM303 941l76 -84l76 84h126l-142 -170h-120
l-142 170h126z" />
    <glyph glyph-name="ocaron" unicode="&#x1d2;" horiz-adv-x="591" 
d="M296 529c76.667 0 139.167 -24.833 187.5 -74.5s72.5 -115.167 72.5 -196.5s-24.167 -146.666 -72.5 -195.999s-110.833 -74 -187.5 -74c-77.333 0 -140.166 24.667 -188.499 74s-72.5 114.666 -72.5 195.999s24.167 146.833 72.5 196.5s111.166 74.5 188.499 74.5z
M296 114c34.667 0 62.332 13.333 82.999 40s31 61.334 31 104.001c0 43.333 -10.167 78.333 -30.5 105s-48.166 40 -83.499 40s-63.333 -13.333 -84 -40s-31 -61.667 -31 -105c0 -42.667 10.333 -77.334 31 -104.001s48.667 -40 84 -40zM223.998 756l72 -84l73 84h125
l-138 -170h-120l-138 170h126z" />
    <glyph glyph-name="Ucaron" unicode="&#x1d3;" horiz-adv-x="730" 
d="M69 286v418h153v-414c0 -52.667 12.833 -93.334 38.5 -122.001s60.5 -43 104.5 -43s78.833 14.333 104.5 43s38.5 69.334 38.5 122.001v414h153v-418c0 -97.333 -27.333 -171.333 -82 -222s-126 -76 -214 -76s-159.333 25.333 -214 76s-82 124.667 -82 222zM289 941
l76 -84l76 84h126l-142 -170h-120l-142 170h126z" />
    <glyph glyph-name="ucaron" unicode="&#x1d4;" horiz-adv-x="597" 
d="M535 0l-139.999 0.000976562v60c-14 -20.667 -34 -37.834 -60 -51.501s-56.333 -20.5 -91 -20.5c-52.667 0 -96.667 16.333 -132 49s-53 82.667 -53 150v330h145v-298c0 -32.667 8.16699 -57.5 24.5 -74.5s38.166 -25.5 65.499 -25.5c26.667 0 49.167 8.5 67.5 25.5
s27.5 42.5 27.5 76.5v296h146v-517zM224.001 756.001l72 -84l73 84h125l-138 -170h-120l-138 170h126z" />
    <glyph glyph-name="Scommaaccent" unicode="&#x218;" horiz-adv-x="634" 
d="M41 202l154.001 -0.000976562c15.333 -56.667 59 -85 131 -85c34.667 0 62 7.83301 82 23.5s30 36.5 30 62.5c0 42 -27.667 67.333 -83 76l-113 18c-128.667 19.333 -193 84.666 -193 195.999c0 66 24.667 119.667 74 161s112 62 188 62
c74.667 0 136.5 -18.333 185.5 -55s78.167 -87.667 87.5 -153h-152c-16 52 -56.333 78 -121 78c-30.667 0 -56.167 -7.5 -76.5 -22.5s-30.5 -34.833 -30.5 -59.5c0 -38 26.667 -61 80 -69l111 -17c61.333 -9.33301 109.666 -30.666 144.999 -63.999s53 -79.666 53 -138.999
c0 -70 -24 -125.333 -72 -166s-113.333 -61 -196 -61c-78 0 -142.667 19 -194 57s-81.333 90.333 -90 157zM408.001 -139.001c0 -19.333 -4 -38.999 -12 -58.999l-45 -107h-100l40 98c-33.333 13.333 -50 37.666 -50 72.999c0 23.333 7.66699 42.333 23 57s35 22 59 22
s44.167 -8 60.5 -24s24.5 -36 24.5 -60z" />
    <glyph glyph-name="scommaaccent" unicode="&#x219;" horiz-adv-x="519" 
d="M177 153c8 -36.667 37.998 -55 89.998 -55c24 0 42.667 4.83301 56 14.5s20 22.5 20 38.5c0 24 -19 38.667 -57 44l-88 10c-104 12.667 -156 63.334 -156 152.001c0 50.667 20.333 92 61 124s92.334 48 155.001 48c60.667 0 110.5 -14.333 149.5 -43
s61.833 -68.334 68.5 -119.001h-141c-10 34 -37 51 -81 51c-21.333 0 -38.5 -4.83301 -51.5 -14.5s-19.5 -21.5 -19.5 -35.5c0 -24.667 18 -39 54 -43l92 -11c48 -6 86 -21.667 114 -47s42 -61 42 -107c0 -54 -20.333 -96.167 -61 -126.5s-93 -45.5 -157 -45.5
c-62.667 0 -115.667 14 -159 42s-67.666 69 -72.999 123h142zM349.998 -139c0 -19.333 -4 -38.999 -12 -58.999l-45 -107h-100l40 98c-33.333 13.333 -50 37.666 -50 72.999c0 23.333 7.66699 42.333 23 57s35 22 59 22s44.167 -8 60.5 -24s24.5 -36 24.5 -60z" />
    <glyph glyph-name="Tcommaaccent" unicode="&#x21a;" horiz-adv-x="634" 
d="M31 568v136h572v-136h-209v-568h-153v568h-210zM401 -139c0 -19.333 -4 -38.999 -12 -58.999l-45 -107h-100l40 98c-33.333 13.333 -50 37.666 -50 72.999c0 23.333 7.66699 42.333 23 57s35 22 59 22s44.167 -8 60.5 -24s24.5 -36 24.5 -60z" />
    <glyph glyph-name="tcommaaccent" unicode="&#x21b;" horiz-adv-x="374" 
d="M240 192c0 -26 5.66699 -43.833 17 -53.5s28.666 -14.5 51.999 -14.5h30v-125h-56c-65.333 0 -113.166 14.167 -143.499 42.5s-45.5 74.833 -45.5 139.5v217h-79v119h79v132h146v-132h99v-119h-99v-206zM300 -139c0 -19.333 -4 -38.999 -12 -58.999l-45 -107h-100l40 98
c-33.333 13.333 -50 37.666 -50 72.999c0 23.333 7.66699 42.333 23 57s35 22 59 22s44.167 -8 60.5 -24s24.5 -36 24.5 -60z" />
    <glyph glyph-name="jdotless" unicode="&#x237;" horiz-adv-x="272" 
d="M-20 -193v117h21c42 0 63 27.333 63 82v511h145v-516c0 -66.667 -15 -115.667 -45 -147s-79.333 -47 -148 -47h-36z" />
    <glyph glyph-name="schwa" unicode="&#x259;" horiz-adv-x="567" 
d="M35 251l-0.000976562 55h350v2c0 31.333 -10.167 57 -30.5 77s-47.833 30 -82.5 30c-22.667 0 -42 -4.5 -58 -13.5s-26 -19.167 -30 -30.5h-141c8 42 31.833 78.833 71.5 110.5s93.167 47.5 160.5 47.5c79.333 0 142 -23.667 188 -71s69 -113 69 -197
s-22.667 -150.5 -68 -199.5s-105.666 -73.5 -180.999 -73.5s-135.5 23.667 -180.5 71s-67.5 111.333 -67.5 192zM280.999 102c30 0 53.833 8.99902 71.5 26.999s28.167 43 31.5 75h-206c0.666992 -31.333 10.5 -56.166 29.5 -74.499s43.5 -27.5 73.5 -27.5z" />
    <glyph glyph-name="circumflex" unicode="&#x2c6;" horiz-adv-x="520" 
d="M188 586h-126l138 170h120l138 -170h-125l-73 84z" />
    <glyph glyph-name="caron" unicode="&#x2c7;" horiz-adv-x="520" 
d="M188 756l72 -84l73 84h125l-138 -170h-120l-138 170h126z" />
    <glyph glyph-name="breve" unicode="&#x2d8;" horiz-adv-x="520" 
d="M189 753c0 -22 6.16699 -40.5 18.5 -55.5s29.833 -22.5 52.5 -22.5s40.167 7.5 52.5 22.5s18.5 33.5 18.5 55.5h109c-0.666992 -52.667 -17 -94.667 -49 -126s-75.667 -47 -131 -47s-99 15.667 -131 47s-48.333 73.333 -49 126h109z" />
    <glyph glyph-name="dotaccent" unicode="&#x2d9;" horiz-adv-x="520" 
d="M259 749c23.333 0 43.166 -8 59.499 -24s24.5 -35.333 24.5 -58c0 -23.333 -8.16699 -43 -24.5 -59s-36.166 -24 -59.499 -24s-43 8 -59 24s-24 35.667 -24 59s8 42.833 24 58.5s35.667 23.5 59 23.5z" />
    <glyph glyph-name="ring" unicode="&#x2da;" horiz-adv-x="520" 
d="M382 691c0 -33.333 -11.667 -61.166 -35 -83.499s-52.333 -33.5 -87 -33.5s-63.667 11.167 -87 33.5s-35 50.166 -35 83.499c0 34 11.5 62 34.5 84s52.167 33 87.5 33s64.5 -11 87.5 -33s34.5 -50 34.5 -84zM217 691c0 -12.667 4.16699 -23 12.5 -31s18.5 -12 30.5 -12
s22.167 4 30.5 12s12.5 18.333 12.5 31s-4.16699 23 -12.5 31s-18.5 12 -30.5 12s-22.167 -4 -30.5 -12s-12.5 -18.333 -12.5 -31z" />
    <glyph glyph-name="ogonek" unicode="&#x2db;" horiz-adv-x="520" 
d="M351 0c-49.333 -35.333 -74 -68 -74 -98c0 -30.667 17.333 -46 52 -46h39v-96h-68c-48 0 -84.667 10 -110 30s-38 46.667 -38 80c0 31.333 11.667 61 35 89s51 49.333 83 64z" />
    <glyph glyph-name="tilde" unicode="&#x2dc;" horiz-adv-x="520" 
d="M353 743h90.0029v-22c0 -44 -10.333 -77.833 -31 -101.5s-48.667 -35.5 -84 -35.5c-25.333 0 -51.333 9.83301 -78 29.5s-44 29.5 -52 29.5c-20.667 0 -31 -12.667 -31 -38v-15h-90v22c0 44 10.167 78 30.5 102s48.166 36 83.499 36c19.333 0 37.666 -5 54.999 -15
s32.166 -19.833 44.499 -29.5s22.5 -14.5 30.5 -14.5c21.333 0 32 12.667 32 38v14z" />
    <glyph glyph-name="hungarumlaut" unicode="&#x2dd;" horiz-adv-x="520" 
d="M273 756l-103 -170h-114l88 170h129zM463 756l-103 -170h-114l88 170h129z" />
    <glyph glyph-name="gravecomb" unicode="&#x300;" 
d="M-173 756h134l94 -170h-119z" />
    <glyph glyph-name="acutecomb" unicode="&#x301;" 
d="M173 756l-109 -170h-119l94 170h134z" />
    <glyph glyph-name="circumflexcomb" unicode="&#x302;" 
d="M-72 586h-126l138 170h120l138 -170h-125l-73 84z" />
    <glyph glyph-name="tildecomb" unicode="&#x303;" 
d="M93 743h90.001v-22c0 -44 -10.333 -77.833 -31 -101.5s-48.667 -35.5 -84 -35.5c-25.333 0 -51.333 9.83301 -78 29.5s-44 29.5 -52 29.5c-20.667 0 -31 -12.667 -31 -38v-15h-90v22c0 44 10.167 78 30.5 102s48.166 36 83.499 36c19.333 0 37.5 -5 54.5 -15
s31.833 -19.833 44.5 -29.5s23 -14.5 31 -14.5c21.333 0 32 12.667 32 38v14z" />
    <glyph glyph-name="macroncomb" unicode="&#x304;" 
d="M-161 717h322v-103h-322v103z" />
    <glyph glyph-name="brevecomb" unicode="&#x306;" 
d="M-71 753c0 -22 6.16699 -40.5 18.5 -55.5s29.833 -22.5 52.5 -22.5s40.167 7.5 52.5 22.5s18.5 33.5 18.5 55.5h109c-0.666992 -52.667 -17 -94.667 -49 -126s-75.667 -47 -131 -47s-99 15.667 -131 47s-48.333 73.333 -49 126h109z" />
    <glyph glyph-name="dotaccentcomb" unicode="&#x307;" 
d="M0 749c23.333 0 43.166 -8 59.499 -24s24.5 -35.333 24.5 -58c0 -23.333 -8.16699 -43 -24.5 -59s-36.166 -24 -59.499 -24s-43 8 -59 24s-24 35.667 -24 59s8 42.833 24 58.5s35.667 23.5 59 23.5z" />
    <glyph glyph-name="dieresiscomb" unicode="&#x308;" 
d="M-109 743c21.333 0 39.666 -7.5 54.999 -22.5s23 -33.167 23 -54.5s-7.66699 -39.666 -23 -54.999s-33.666 -23 -54.999 -23c-22 0 -40.667 7.66699 -56 23s-23 33.666 -23 54.999s7.66699 39.5 23 54.5s34 22.5 56 22.5zM110 743c22 0 40.5 -7.5 55.5 -22.5
s22.5 -33.167 22.5 -54.5s-7.5 -39.666 -22.5 -54.999s-33.5 -23 -55.5 -23s-40.5 7.66699 -55.5 23s-22.5 33.666 -22.5 54.999s7.5 39.5 22.5 54.5s33.5 22.5 55.5 22.5z" />
    <glyph glyph-name="ringcomb" unicode="&#x30a;" 
d="M122 691c0 -33.333 -11.667 -61.166 -35 -83.499s-52.333 -33.5 -87 -33.5s-63.667 11.167 -87 33.5s-35 50.166 -35 83.499c0 34 11.5 62 34.5 84s52.167 33 87.5 33s64.5 -11 87.5 -33s34.5 -50 34.5 -84zM-43 691c0 -12.667 4.16699 -23 12.5 -31s18.5 -12 30.5 -12
s22.167 4 30.5 12s12.5 18.333 12.5 31s-4.16699 23 -12.5 31s-18.5 12 -30.5 12s-22.167 -4 -30.5 -12s-12.5 -18.333 -12.5 -31z" />
    <glyph glyph-name="hungarumlautcomb" unicode="&#x30b;" 
d="M66 756l-103 -170h-114l88 170h129zM256 756l-103 -170h-114l88 170h129z" />
    <glyph glyph-name="caroncomb" unicode="&#x30c;" 
d="M-72 756l72 -84l73 84h125l-138 -170h-120l-138 170h126z" />
    <glyph glyph-name="commaturnedabovecomb" unicode="&#x312;" 
d="M-83 662c0 20 4 39.667 12 59l45 107h100l-40 -98c33.333 -13.333 50 -37.333 50 -72c0 -23.333 -7.66699 -42.333 -23 -57s-35 -22 -59 -22s-44.167 7.83301 -60.5 23.5s-24.5 35.5 -24.5 59.5z" />
    <glyph glyph-name="commaaccentcomb" unicode="&#x326;" 
d="M83 -139c0 -19.333 -4 -38.999 -12 -58.999l-45 -107h-100l40 98c-33.333 13.333 -50 37.666 -50 72.999c0 23.333 7.66699 42.333 23 57s35 22 59 22s44.167 -8 60.5 -24s24.5 -36 24.5 -60z" />
    <glyph glyph-name="cedillacomb" unicode="&#x327;" 
d="M47 14l0.000976562 -14l-16 -49c23.333 -2.66699 43.666 -12 60.999 -28s26 -37.667 26 -65c0 -34 -13 -61.167 -39 -81.5s-64 -30.5 -114 -30.5h-63v82h51c30.667 0 46 11.667 46 35c0 22 -15 33 -45 33h-30v21l36 97h87z" />
    <glyph glyph-name="ogonekcomb" unicode="&#x328;" 
d="M0 0c-49.333 -35.333 -74 -68 -74 -98c0 -30.667 17.333 -46 52 -46h39v-96h-68c-48 0 -84.667 10 -110 30s-38 46.667 -38 80c0 31.333 11.667 61 35 89s51 49.333 83 64z" />
    <glyph glyph-name="questiongreek" unicode="&#x37e;" horiz-adv-x="295" 
d="M235 72c0 -19.333 -3.99805 -39.333 -11.998 -60l-66 -170h-106l60 157c-35.333 14.667 -53 40.334 -53 77.001c0 24 8.16699 43.833 24.5 59.5s37.166 23.5 62.499 23.5s46.666 -8.33301 63.999 -25s26 -37.334 26 -62.001zM148.002 502
c24.667 0 45.334 -8.33301 62.001 -25s25 -37.334 25 -62.001s-8.33301 -45.334 -25 -62.001s-37.334 -25 -62.001 -25c-25.333 0 -46.5 8.33301 -63.5 25s-25.5 37.334 -25.5 62.001s8.5 45.334 25.5 62.001s38.167 25 63.5 25z" />
    <glyph glyph-name="tonos" unicode="&#x384;" horiz-adv-x="520" 
d="M374 756l-109 -170h-119l94 170h134z" />
    <glyph glyph-name="dieresistonos" unicode="&#x385;" horiz-adv-x="520" 
d="M109 731c18.667 0 34.5 -6.5 47.5 -19.5s19.5 -28.5 19.5 -46.5c0 -18.667 -6.5 -34.334 -19.5 -47.001s-28.833 -19 -47.5 -19s-34.5 6.33301 -47.5 19s-19.5 28.334 -19.5 47.001c0 18 6.5 33.5 19.5 46.5s28.833 19.5 47.5 19.5zM346 756l-66 -170h-97l50 170h113z
M410 731c18.667 0 34.5 -6.5 47.5 -19.5s19.5 -28.5 19.5 -46.5c0 -18.667 -6.5 -34.334 -19.5 -47.001s-28.833 -19 -47.5 -19s-34.5 6.33301 -47.5 19s-19.5 28.334 -19.5 47.001c0 18 6.5 33.5 19.5 46.5s28.833 19.5 47.5 19.5z" />
    <glyph glyph-name="Alphatonos" unicode="&#x386;" horiz-adv-x="703" 
d="M274 704h158l258 -704h-158l-50 145h-258l-49 -145h-158zM352 527l-85 -254h170zM236 704l-109 -170h-118l94 170h133z" />
    <glyph glyph-name="anoteleia" unicode="&#x387;" horiz-adv-x="295" 
d="M148 346c24.667 0 45.334 -8.33301 62.001 -25s25 -37.334 25 -62.001s-8.33301 -45.334 -25 -62.001s-37.334 -25 -62.001 -25c-25.333 0 -46.5 8.33301 -63.5 25s-25.5 37.334 -25.5 62.001s8.5 45.334 25.5 62.001s38.167 25 63.5 25z" />
    <glyph glyph-name="Epsilontonos" unicode="&#x388;" horiz-adv-x="762" 
d="M712 568h-319v-144h300v-131h-300v-157h319v-136h-472v704h472v-136zM218 704l-109 -170h-118l94 170h133z" />
    <glyph glyph-name="Etatonos" unicode="&#x389;" horiz-adv-x="904" 
d="M393 0h-153v704h153v-275h285v275h153v-704h-153v292h-285v-292zM218 704l-109 -170h-118l94 170h133z" />
    <glyph glyph-name="Iotatonos" unicode="&#x38a;" horiz-adv-x="466" 
d="M393 704v-704h-153v704h153zM218 704l-109 -170h-118l94 170h133z" />
    <glyph glyph-name="Omicrontonos" unicode="&#x38c;" horiz-adv-x="855" 
d="M476 716c100 0 181.167 -33.5 243.5 -100.5s93.5 -154.833 93.5 -263.5s-31.167 -196.5 -93.5 -263.5s-143.5 -100.5 -243.5 -100.5s-181.167 33.5 -243.5 100.5s-93.5 154.833 -93.5 263.5s31.167 196.5 93.5 263.5s143.5 100.5 243.5 100.5zM476 125
c56 0 100.167 21.167 132.5 63.5s48.5 96.833 48.5 163.5s-16.167 121.167 -48.5 163.5s-76.5 63.5 -132.5 63.5s-100.167 -21.167 -132.5 -63.5s-48.5 -96.833 -48.5 -163.5s16.167 -121.167 48.5 -163.5s76.5 -63.5 132.5 -63.5zM218 704l-109 -170h-118l94 170h133z" />
    <glyph glyph-name="Upsilontonos" unicode="&#x38e;" horiz-adv-x="886" 
d="M628 0h-153v267l-248 437h166l159 -291l159 291h165l-248 -437v-267zM218 704l-109 -170h-118l94 170h133z" />
    <glyph glyph-name="Omegatonos" unicode="&#x38f;" horiz-adv-x="868" 
d="M821 385c0 -52 -11.166 -99.667 -33.499 -143s-52.833 -80 -91.5 -110h125v-132h-275v154c31.333 19.333 59.166 49 83.499 89s36.5 83.667 36.5 131c0 60 -16.333 109.167 -49 147.5s-77 57.5 -133 57.5s-100.5 -19.167 -133.5 -57.5s-49.5 -87.5 -49.5 -147.5
c0 -47.333 12.333 -91 37 -131s52.667 -69.667 84 -89v-154h-275v132h124c-82.667 64.667 -124 149 -124 253c0 98 31.167 177.667 93.5 239s143.5 92 243.5 92s181.167 -30.667 243.5 -92s93.5 -141 93.5 -239zM218.001 704l-109 -170h-118l94 170h133z" />
    <glyph glyph-name="iotadieresistonos" unicode="&#x390;" horiz-adv-x="321" 
d="M209 192c0 -25.333 5.66602 -43 16.999 -53s27 -15 47 -15h18v-125h-39c-65.333 0 -113.166 14.167 -143.499 42.5s-45.5 74.833 -45.5 139.5v336h146v-325zM-2.00098 731c18.667 0 34.5 -6.5 47.5 -19.5s19.5 -28.5 19.5 -46.5c0 -18.667 -6.5 -34.334 -19.5 -47.001
s-28.833 -19 -47.5 -19s-34.5 6.33301 -47.5 19s-19.5 28.334 -19.5 47.001c0 18 6.5 33.5 19.5 46.5s28.833 19.5 47.5 19.5zM234.999 756l-66 -170h-97l50 170h113zM298.999 731c18.667 0 34.5 -6.5 47.5 -19.5s19.5 -28.5 19.5 -46.5
c0 -18.667 -6.5 -34.334 -19.5 -47.001s-28.833 -19 -47.5 -19s-34.5 6.33301 -47.5 19s-19.5 28.334 -19.5 47.001c0 18 6.5 33.5 19.5 46.5s28.833 19.5 47.5 19.5z" />
    <glyph glyph-name="Alpha" unicode="&#x391;" horiz-adv-x="699" 
d="M270 704h158l258 -704h-158l-50 145h-258l-49 -145h-158zM348 527l-85 -254h170z" />
    <glyph glyph-name="Beta" unicode="&#x392;" horiz-adv-x="646" 
d="M74 0v703.998h284c72 0 127.167 -17.333 165.5 -52s57.5 -78.667 57.5 -132c0 -38 -8.83301 -69.833 -26.5 -95.5s-39.5 -44.167 -65.5 -55.5c32 -9.33301 59.833 -28.166 83.5 -56.499s35.5 -65.166 35.5 -110.499c0 -59.333 -21.5 -107.833 -64.5 -145.5
s-100.833 -56.5 -173.5 -56.5h-296zM351 299.998l-125.001 -0.000976562v-173h124c31.333 0 56.333 7.66699 75 23s28 36.333 28 63s-9.16699 47.834 -27.5 63.501s-43.166 23.5 -74.499 23.5zM333.999 576.997h-108v-158h112c28.667 0 50.667 7.33301 66 22
s23 33.667 23 57c0 25.333 -8 44.833 -24 58.5s-39 20.5 -69 20.5z" />
    <glyph glyph-name="Gamma" unicode="&#x393;" horiz-adv-x="573" 
d="M538 568h-311v-568h-153v704h464v-136z" />
    <glyph glyph-name="Delta" unicode="&#x394;" horiz-adv-x="715" 
d="M436 704l267 -704h-691l266 704h158zM356 529l-137 -392h277z" />
    <glyph glyph-name="Epsilon" unicode="&#x395;" horiz-adv-x="596" 
d="M546 568h-319v-144h300v-131h-300v-157h319v-136h-472v704h472v-136z" />
    <glyph glyph-name="Zeta" unicode="&#x396;" horiz-adv-x="629" 
d="M50 121l339 447h-339v136h528v-120l-339 -448h339v-136h-528v121z" />
    <glyph glyph-name="Eta" unicode="&#x397;" horiz-adv-x="739" 
d="M227 0h-153v704h153v-275h285v275h153v-704h-153v292h-285v-292z" />
    <glyph glyph-name="Theta" unicode="&#x398;" horiz-adv-x="758" 
d="M379 716c100 0 181.167 -33.5 243.5 -100.5s93.5 -154.833 93.5 -263.5s-31.167 -196.5 -93.5 -263.5s-143.5 -100.5 -243.5 -100.5s-181.167 33.5 -243.5 100.5s-93.5 154.833 -93.5 263.5s31.167 196.5 93.5 263.5s143.5 100.5 243.5 100.5zM379 122
c56.667 0 101.5 21.333 134.5 64s49.5 98 49.5 166s-16.5 123.333 -49.5 166s-77.833 64 -134.5 64s-101.5 -21.333 -134.5 -64s-49.5 -98 -49.5 -166s16.5 -123.333 49.5 -166s77.833 -64 134.5 -64zM513 296h-268v129h268v-129z" />
    <glyph glyph-name="Iota" unicode="&#x399;" horiz-adv-x="301" 
d="M227 704v-704h-153v704h153z" />
    <glyph glyph-name="Kappa" unicode="&#x39a;" horiz-adv-x="665" 
d="M227 0h-153v704h153v-290l246 290h179l-282 -338l288 -366h-186l-245 307v-307z" />
    <glyph glyph-name="Lambda" unicode="&#x39b;" horiz-adv-x="690" 
d="M16 0l249 704h159l250 -704h-162l-168 507l-167 -507h-161z" />
    <glyph glyph-name="Mu" unicode="&#x39c;" horiz-adv-x="916" 
d="M74 704h190l195 -494l194 494h189v-704h-143v473l-185 -467h-112l-184 463v-469h-144v704z" />
    <glyph glyph-name="Nu" unicode="&#x39d;" horiz-adv-x="747" 
d="M234 704l292 -446v446h147v-704h-144l-308 468v-468h-147v704h160z" />
    <glyph glyph-name="Xi" unicode="&#x39e;" horiz-adv-x="619" 
d="M50 138h519v-138h-519v138zM98 425h423v-133h-423v133zM50 704h519v-138h-519v138z" />
    <glyph glyph-name="Omicron" unicode="&#x39f;" horiz-adv-x="758" 
d="M379 716c100 0 181.167 -33.5 243.5 -100.5s93.5 -154.833 93.5 -263.5s-31.167 -196.5 -93.5 -263.5s-143.5 -100.5 -243.5 -100.5s-181.167 33.5 -243.5 100.5s-93.5 154.833 -93.5 263.5s31.167 196.5 93.5 263.5s143.5 100.5 243.5 100.5zM379 125
c56 0 100.167 21.167 132.5 63.5s48.5 96.833 48.5 163.5s-16.167 121.167 -48.5 163.5s-76.5 63.5 -132.5 63.5s-100.167 -21.167 -132.5 -63.5s-48.5 -96.833 -48.5 -163.5s16.167 -121.167 48.5 -163.5s76.5 -63.5 132.5 -63.5z" />
    <glyph glyph-name="Pi" unicode="&#x3a0;" horiz-adv-x="736" 
d="M74 704h588v-704h-153v568h-282v-568h-153v704z" />
    <glyph glyph-name="Rho" unicode="&#x3a1;" horiz-adv-x="631" 
d="M342 704c78.667 0 140.501 -22.167 185.501 -66.5s67.5 -101.5 67.5 -171.5c0 -68 -22.833 -124.5 -68.5 -169.5s-105.834 -67.5 -180.501 -67.5h-119v-229h-153v704h268zM328.001 573h-101v-213h101c34.667 0 62 9.83301 82 29.5s30 45.167 30 76.5
c0 32 -9.83301 57.833 -29.5 77.5s-47.167 29.5 -82.5 29.5z" />
    <glyph glyph-name="Sigma" unicode="&#x3a3;" horiz-adv-x="617" 
d="M566 704v-134h-328l185 -217l-187 -219h330v-134h-516v120l199 232l-198 232v120h515z" />
    <glyph glyph-name="Tau" unicode="&#x3a4;" horiz-adv-x="634" 
d="M31 568v136h572v-136h-209v-568h-153v568h-210z" />
    <glyph glyph-name="Upsilon" unicode="&#x3a5;" horiz-adv-x="669" 
d="M411 0h-153v267l-248 437h166l159 -291l159 291h165l-248 -437v-267z" />
    <glyph glyph-name="Phi" unicode="&#x3a6;" horiz-adv-x="863" 
d="M506 651c88.667 -3.33301 164 -30.833 226 -82.5s93 -122.5 93 -212.5s-31 -160.833 -93 -212.5s-137.333 -79.167 -226 -82.5v-72h-149v72c-89.333 3.33301 -164.833 30.833 -226.5 82.5s-92.5 122.5 -92.5 212.5s30.833 160.833 92.5 212.5s137.167 79.167 226.5 82.5
v73h149v-73zM357 190v330.999c-50 -1.33301 -90.5 -16.666 -121.5 -45.999s-46.5 -69 -46.5 -119c0 -49.333 15.5 -89 46.5 -119s71.5 -45.667 121.5 -47zM506 189.999c49.333 1.33301 89.666 17 120.999 47s47 69.667 47 119s-15.667 88.833 -47 118.5
s-71.666 45.167 -120.999 46.5v-331z" />
    <glyph glyph-name="Chi" unicode="&#x3a7;" horiz-adv-x="696" 
d="M501 0l-155 241l-154 -241h-171l232 354l-230 350h175l152 -240l154 240h169l-230 -353l232 -351h-174z" />
    <glyph glyph-name="Psi" unicode="&#x3a8;" horiz-adv-x="882" 
d="M220 458c0 -49.333 12.667 -88.668 38 -118.001s61 -45.666 107 -48.999v413h153v-412c46 3.33301 81.667 19.5 107 48.5s38 68.167 38 117.5v246h153v-257c0 -89.333 -27.333 -159 -82 -209s-126.667 -77.667 -216 -83v-155h-153v155c-90 5.33301 -162.167 33 -216.5 83
s-81.5 119.667 -81.5 209v257h153v-246z" />
    <glyph glyph-name="Omega" unicode="&#x3a9;" horiz-adv-x="768" 
d="M721 385c0 -52 -11.166 -99.667 -33.499 -143s-52.833 -80 -91.5 -110h125v-132h-275v154c31.333 19.333 59.166 49 83.499 89s36.5 83.667 36.5 131c0 60 -16.333 109.167 -49 147.5s-77 57.5 -133 57.5s-100.5 -19.167 -133.5 -57.5s-49.5 -87.5 -49.5 -147.5
c0 -47.333 12.333 -91 37 -131s52.667 -69.667 84 -89v-154h-275v132h124c-82.667 64.667 -124 149 -124 253c0 98 31.167 177.667 93.5 239s143.5 92 243.5 92s181.167 -30.667 243.5 -92s93.5 -141 93.5 -239z" />
    <glyph glyph-name="Iotadieresis" unicode="&#x3aa;" horiz-adv-x="301" 
d="M227 704v-704h-153v704h153zM42 928c21.333 0 39.666 -7.5 54.999 -22.5s23 -33.167 23 -54.5s-7.66699 -39.666 -23 -54.999s-33.666 -23 -54.999 -23c-22 0 -40.667 7.66699 -56 23s-23 33.666 -23 54.999s7.66699 39.5 23 54.5s34 22.5 56 22.5zM261 928
c22 0 40.5 -7.5 55.5 -22.5s22.5 -33.167 22.5 -54.5s-7.5 -39.666 -22.5 -54.999s-33.5 -23 -55.5 -23s-40.5 7.66699 -55.5 23s-22.5 33.666 -22.5 54.999s7.5 39.5 22.5 54.5s33.5 22.5 55.5 22.5z" />
    <glyph glyph-name="Upsilondieresis" unicode="&#x3ab;" horiz-adv-x="669" 
d="M411 0h-153v267l-248 437h166l159 -291l159 291h165l-248 -437v-267zM224 928c22 0 40.5 -7.66699 55.5 -23s22.5 -33.666 22.5 -54.999s-7.5 -39.5 -22.5 -54.5s-33.5 -22.5 -55.5 -22.5s-40.5 7.5 -55.5 22.5s-22.5 33.167 -22.5 54.5s7.5 39.666 22.5 54.999
s33.5 23 55.5 23zM453 928c21.333 0 39.666 -7.66699 54.999 -23s23 -33.666 23 -54.999s-7.66699 -39.5 -23 -54.5s-33.666 -22.5 -54.999 -22.5c-22 0 -40.5 7.5 -55.5 22.5s-22.5 33.167 -22.5 54.5s7.5 39.666 22.5 54.999s33.5 23 55.5 23z" />
    <glyph glyph-name="alphatonos" unicode="&#x3ac;" horiz-adv-x="613" 
d="M259 -12c-64 0 -117.334 24.168 -160.001 72.501s-64 114.166 -64 197.499s21.667 149.333 65 198s97.666 73 162.999 73c34.667 0 64.834 -6.66699 90.501 -20s44.5 -31 56.5 -53v61h140v-517h-140v61c-31.333 -48.667 -81.666 -73 -150.999 -73zM293.999 403.001
c-34 0 -61.333 -13.168 -82 -39.501s-31 -61.5 -31 -105.5c0 -43.333 10.333 -78.166 31 -104.499s48 -39.5 82 -39.5s61.333 13 82 39s31 60.333 31 103v4c0 44 -10.333 78.833 -31 104.5s-48 38.5 -82 38.5zM471.999 756l-109 -170h-119l94 170h134z" />
    <glyph glyph-name="epsilontonos" unicode="&#x3ad;" horiz-adv-x="533" 
d="M501 363l-141 -0.000976562c-8 35.333 -37 53 -87 53c-24.667 0 -44 -4.83301 -58 -14.5s-21 -22.5 -21 -38.5c0 -31.333 25 -47 75 -47h74v-107h-75c-54.667 0 -82 -18 -82 -54s28.333 -54 85 -54c55.333 0 87 19 95 57h142
c-4.66699 -52.667 -28.167 -94.167 -70.5 -124.5s-97.833 -45.5 -166.5 -45.5c-70.667 0 -126.834 14 -168.501 42s-62.5 65.333 -62.5 112c0 34 9.83301 61.333 29.5 82s42.167 34.667 67.5 42c-58 21.333 -87 58 -87 110c0 44.667 20.333 81.334 61 110.001
s93.334 43 158.001 43c67.333 0 121.5 -14.5 162.5 -43.5s64.167 -69.833 69.5 -122.5zM441 755.999l-109 -170h-119l94 170h134z" />
    <glyph glyph-name="etatonos" unicode="&#x3ae;" horiz-adv-x="597" 
d="M63 517l140.001 -0.000976562v-61c13.333 20.667 33 38 59 52s56.333 21 91 21c53.333 0 97.666 -16.5 132.999 -49.5s53 -82.833 53 -149.5v-521h-146v489c0 32.667 -8 57.5 -24 74.5s-37.667 25.5 -65 25.5c-26 0 -48.333 -8.66699 -67 -26s-28 -42.666 -28 -75.999
v-296h-146v517zM477.001 755.999l-109 -170h-119l94 170h134z" />
    <glyph glyph-name="iotatonos" unicode="&#x3af;" horiz-adv-x="321" 
d="M209 192c0 -25.333 5.66602 -43 16.999 -53s27 -15 47 -15h18v-125h-39c-65.333 0 -113.166 14.167 -143.499 42.5s-45.5 74.833 -45.5 139.5v336h146v-325zM308.999 756l-109 -170h-119l94 170h134z" />
    <glyph glyph-name="upsilondieresistonos" unicode="&#x3b0;" horiz-adv-x="593" 
d="M389 517h146.001v-306c0 -69.333 -22 -123.833 -66 -163.5s-101.667 -59.5 -173 -59.5c-70.667 0 -127.834 19.833 -171.501 59.5s-65.5 94.167 -65.5 163.5v306h145v-301c0 -32.667 8.5 -57.667 25.5 -75s39.167 -26 66.5 -26c28 0 50.5 8.66699 67.5 26
s25.5 42.333 25.5 75v301zM147.001 731c18.667 0 34.5 -6.5 47.5 -19.5s19.5 -28.5 19.5 -46.5c0 -18.667 -6.5 -34.334 -19.5 -47.001s-28.833 -19 -47.5 -19s-34.5 6.33301 -47.5 19s-19.5 28.334 -19.5 47.001c0 18 6.5 33.5 19.5 46.5s28.833 19.5 47.5 19.5z
M384.001 756l-66 -170h-97l50 170h113zM448.001 731c18.667 0 34.5 -6.5 47.5 -19.5s19.5 -28.5 19.5 -46.5c0 -18.667 -6.5 -34.334 -19.5 -47.001s-28.833 -19 -47.5 -19s-34.5 6.33301 -47.5 19s-19.5 28.334 -19.5 47.001c0 18 6.5 33.5 19.5 46.5
s28.833 19.5 47.5 19.5z" />
    <glyph glyph-name="alpha" unicode="&#x3b1;" horiz-adv-x="613" 
d="M259 -12c-64 0 -117.334 24.168 -160.001 72.501s-64 114.166 -64 197.499s21.667 149.333 65 198s97.666 73 162.999 73c34.667 0 64.834 -6.66699 90.501 -20s44.5 -31 56.5 -53v61h140v-517h-140v61c-31.333 -48.667 -81.666 -73 -150.999 -73zM293.999 403.001
c-34 0 -61.333 -13.168 -82 -39.501s-31 -61.5 -31 -105.5c0 -43.333 10.333 -78.166 31 -104.499s48 -39.5 82 -39.5s61.333 13 82 39s31 60.333 31 103v4c0 44 -10.333 78.833 -31 104.5s-48 38.5 -82 38.5z" />
    <glyph glyph-name="beta" unicode="&#x3b2;" horiz-adv-x="618" 
d="M456 390c33.333 -12 62.333 -33.1689 87 -63.502s37 -70.166 37 -119.499c0 -61.333 -20.833 -113.166 -62.5 -155.499s-93.5 -63.5 -155.5 -63.5c-68 0 -119 21.667 -153 65v-244h-146v693c0 74.667 24 133 72 175s107.667 63 179 63c70 0 126.833 -18.833 170.5 -56.5
s65.5 -85.167 65.5 -142.5c0 -38 -9.16699 -69.833 -27.5 -95.5s-40.5 -44.167 -66.5 -55.5zM325 113.998c32 0 57.999 9.83398 77.999 29.501s30 44.5 30 74.5c0 30.667 -10 55.167 -30 73.5s-47.667 27.5 -83 27.5h-35v119h26c30.667 0 54.334 8.66699 71.001 26
s25 38.666 25 63.999s-8.83301 46 -26.5 62s-40.5 24 -68.5 24c-30 0 -54.667 -9.66699 -74 -29s-29 -46.333 -29 -81v-282c0 -32 11.333 -58 34 -78s50 -30 82 -30z" />
    <glyph glyph-name="gamma" unicode="&#x3b3;" horiz-adv-x="550" 
d="M546 517l-198 -515v-193h-146v191l-198 517h157l114 -333l115 333h156z" />
    <glyph glyph-name="delta" unicode="&#x3b4;" horiz-adv-x="595" 
d="M277 610c-15.333 0 -27.333 -3.5 -36 -10.5s-13 -16.167 -13 -27.5c0 -22.667 20.667 -38.667 62 -48c56.667 -12 97.334 -23.667 122.001 -35c98.667 -46 148 -125 148 -237c0 -75.333 -23.667 -138.166 -71 -188.499s-111.333 -75.5 -192 -75.5
s-144.5 24.5 -191.5 73.5s-70.5 110.833 -70.5 185.5c0 54.667 12.5 99.667 37.5 135s59.5 60.666 103.5 75.999c-58 29.333 -87 73 -87 131c0 44 16.167 79.167 48.5 105.5s74.166 39.5 125.499 39.5h240v-124h-226zM297 110c36.667 0 65.333 13.333 86 40
s31 60.667 31 102c0 40.667 -10.667 73.667 -32 99s-50 38 -86 38c-35.333 0 -63.333 -12.667 -84 -38s-31 -58.333 -31 -99s10.333 -74.5 31 -101.5s49 -40.5 85 -40.5z" />
    <glyph glyph-name="epsilon" unicode="&#x3b5;" horiz-adv-x="533" 
d="M501 363l-141 -0.000976562c-8 35.333 -37 53 -87 53c-24.667 0 -44 -4.83301 -58 -14.5s-21 -22.5 -21 -38.5c0 -31.333 25 -47 75 -47h74v-107h-75c-54.667 0 -82 -18 -82 -54s28.333 -54 85 -54c55.333 0 87 19 95 57h142
c-4.66699 -52.667 -28.167 -94.167 -70.5 -124.5s-97.833 -45.5 -166.5 -45.5c-70.667 0 -126.834 14 -168.501 42s-62.5 65.333 -62.5 112c0 34 9.83301 61.333 29.5 82s42.167 34.667 67.5 42c-58 21.333 -87 58 -87 110c0 44.667 20.333 81.334 61 110.001
s93.334 43 158.001 43c67.333 0 121.5 -14.5 162.5 -43.5s64.167 -69.833 69.5 -122.5z" />
    <glyph glyph-name="zeta" unicode="&#x3b6;" horiz-adv-x="498" 
d="M320 460c-50 -48 -85.5 -88.0029 -106.5 -120.003s-31.5 -65.333 -31.5 -100c0 -68 37.667 -107.667 113 -119l28 -3c57.333 -7.33301 98.833 -24.666 124.5 -51.999s38.5 -69.333 38.5 -126v-64h-129v44c0 20 -3.83301 35.667 -11.5 47s-22.5 18.333 -44.5 21l-28 3
c-78 10.667 -137.167 36.334 -177.5 77.001s-60.5 93.334 -60.5 158.001c0 32 4.5 62 13.5 90s23.5 55.833 43.5 83.5s39.5 51.667 58.5 72s44.833 45.833 77.5 76.5l67 64h-230v122h421v-115z" />
    <glyph glyph-name="eta" unicode="&#x3b7;" horiz-adv-x="597" 
d="M63 517l140.001 -0.000976562v-61c13.333 20.667 33 38 59 52s56.333 21 91 21c53.333 0 97.666 -16.5 132.999 -49.5s53 -82.833 53 -149.5v-521h-146v489c0 32.667 -8 57.5 -24 74.5s-37.667 25.5 -65 25.5c-26 0 -48.333 -8.66699 -67 -26s-28 -42.666 -28 -75.999
v-296h-146v517z" />
    <glyph glyph-name="theta" unicode="&#x3b8;" horiz-adv-x="637" 
d="M318 740c86.667 0 153.334 -33.333 200.001 -100s70 -158.667 70 -276s-23.333 -209.333 -70 -276s-113.334 -100 -200.001 -100c-86 0 -152.333 33.333 -199 100s-70 158.667 -70 276s23.333 209.333 70 276s113 100 199 100zM318 113c73.333 0 113.999 66 121.999 198
h-244c8.66699 -132 49.334 -198 122.001 -198zM317.999 614c-68.667 0 -108.668 -59.667 -120.001 -179h241c-11.333 119.333 -51.666 179 -120.999 179z" />
    <glyph glyph-name="iota" unicode="&#x3b9;" horiz-adv-x="321" 
d="M209 192c0 -25.333 5.66602 -43 16.999 -53s27 -15 47 -15h18v-125h-39c-65.333 0 -113.166 14.167 -143.499 42.5s-45.5 74.833 -45.5 139.5v336h146v-325z" />
    <glyph glyph-name="kappa" unicode="&#x3ba;" horiz-adv-x="552" 
d="M209 0h-146v517h146v-205l169 205h165l-201 -243l205 -274h-170l-168 229v-229z" />
    <glyph glyph-name="lambda" unicode="&#x3bb;" horiz-adv-x="550" 
d="M118 734c57.333 0 101.166 -12.5 131.499 -37.5s57.166 -68.167 80.499 -129.5l216 -567h-156l-115 331l-114 -331h-157l194 505l-9 25c-11.333 28 -24.166 48 -38.499 60s-33.166 18 -56.499 18h-15v126h39z" />
    <glyph glyph-name="uni03BC" unicode="&#x3bc;" horiz-adv-x="603" 
d="M394 517l146.001 0.000976562v-517h-140v60c-14 -20.667 -34 -37.834 -60 -51.501s-56.333 -20.5 -91 -20.5c-14.667 0 -28 2.66699 -40 8v-187h-146v708h146v-298c0 -32.667 8.16699 -57.5 24.5 -74.5s38.166 -25.5 65.499 -25.5c26.667 0 49.167 8.5 67.5 25.5
s27.5 42.5 27.5 76.5v296z" />
    <glyph glyph-name="nu" unicode="&#x3bd;" horiz-adv-x="543" 
d="M539 517l-192 -517h-152l-191 517h157l111 -339l111 339h156z" />
    <glyph glyph-name="xi" unicode="&#x3be;" horiz-adv-x="515" 
d="M54 734h434.001v-122h-160c-32.667 0 -58.667 -8.33301 -78 -25s-29 -38 -29 -64c0 -25.333 9.16699 -45.666 27.5 -60.999s43.833 -23 76.5 -23h126v-122h-152c-36 0 -64.5 -9 -85.5 -27s-31.5 -41.333 -31.5 -70c0 -53.333 38.667 -86.333 116 -99l40 -6
c57.333 -8.66699 98.5 -25.834 123.5 -51.501s37.5 -66.834 37.5 -123.501v-64h-129v44c0 40 -19 62.667 -57 68l-44 7c-76.667 11.333 -134.834 35.333 -174.501 72s-59.5 83.667 -59.5 141c0 45.333 12.333 82.333 37 111s53.667 49.334 87 62.001
c-54.667 28 -82 68.333 -82 121c0 47.333 22.667 84 68 110h-91v122z" />
    <glyph glyph-name="omicron" unicode="&#x3bf;" horiz-adv-x="591" 
d="M296 529c76.667 0 139.167 -24.833 187.5 -74.5s72.5 -115.167 72.5 -196.5s-24.167 -146.666 -72.5 -195.999s-110.833 -74 -187.5 -74c-77.333 0 -140.166 24.667 -188.499 74s-72.5 114.666 -72.5 195.999s24.167 146.833 72.5 196.5s111.166 74.5 188.499 74.5z
M296 114c34.667 0 62.332 13.333 82.999 40s31 61.334 31 104.001c0 43.333 -10.167 78.333 -30.5 105s-48.166 40 -83.499 40s-63.333 -13.333 -84 -40s-31 -61.667 -31 -105c0 -42.667 10.333 -77.334 31 -104.001s48.667 -40 84 -40z" />
    <glyph glyph-name="pi" unicode="&#x3c0;" horiz-adv-x="650" 
d="M247 0h-145v391h-76v126h598v-126h-76v-391h-146v391h-155v-391z" />
    <glyph glyph-name="rho" unicode="&#x3c1;" horiz-adv-x="602" 
d="M310 529c76 0 137.834 -23.833 185.501 -71.5s71.5 -114.167 71.5 -199.5c0 -82 -22.333 -147.5 -67 -196.5s-98.334 -73.5 -161.001 -73.5c-64.667 0 -111.667 20.333 -141 61v-240h-145v451c0 84 24.167 149.833 72.5 197.5s109.833 71.5 184.5 71.5zM309.001 114
c34 0 61 13 81 39s30 61 30 105s-10 79.167 -30 105.5s-47 39.5 -81 39.5s-61.5 -13 -82.5 -39s-31.5 -60.667 -31.5 -104v-4c0 -43.333 10.5 -77.833 31.5 -103.5s48.5 -38.5 82.5 -38.5z" />
    <glyph glyph-name="sigmafinal" unicode="&#x3c2;" horiz-adv-x="557" 
d="M338 118c59.333 -8.66699 102 -26.333 128 -53s39 -68.334 39 -125.001v-64h-129v44c0 20 -3.83301 35.667 -11.5 47s-22.5 18.333 -44.5 21l-30 3c-82 9.33301 -145 37 -189 83s-66 107.667 -66 185c0 78.667 23.333 143.334 70 194.001s109 76 187 76
c68 0 122.667 -19 164 -57s65 -85 71 -141h-140c-6 20 -16.833 37 -32.5 51s-36.5 21 -62.5 21c-34 0 -61 -13 -81 -39s-30 -60.667 -30 -104c0 -80 39.667 -125.667 119 -137z" />
    <glyph glyph-name="sigma" unicode="&#x3c3;" horiz-adv-x="615" 
d="M585 517l-0.000976562 -125.999h-104c48 -39.333 72 -90.333 72 -153c0 -72.667 -24.167 -132.5 -72.5 -179.5s-110.166 -70.5 -185.499 -70.5c-76.667 0 -139.167 24.5 -187.5 73.5s-72.5 112.833 -72.5 191.5c0 79.333 24.167 143.166 72.5 191.499
s112.5 72.5 192.5 72.5h285zM407.999 253.001c0 41.333 -10.167 74.668 -30.5 100.001s-47.833 38 -82.5 38s-62.334 -12.833 -83.001 -38.5s-31 -58.834 -31 -99.501c0 -41.333 10.333 -74.833 31 -100.5s48.334 -38.5 83.001 -38.5s62.167 12.833 82.5 38.5
s30.5 59.167 30.5 100.5z" />
    <glyph glyph-name="tau" unicode="&#x3c4;" horiz-adv-x="508" 
d="M22 391v126h456v-126h-160v-199c0 -25.333 5.66699 -43 17 -53s27 -15 47 -15h28v-125h-48c-65.333 0 -113.333 14.167 -144 42.5s-46 74.833 -46 139.5v210h-150z" />
    <glyph glyph-name="upsilon" unicode="&#x3c5;" horiz-adv-x="593" 
d="M389 517h146.001v-306c0 -69.333 -22 -123.833 -66 -163.5s-101.667 -59.5 -173 -59.5c-70.667 0 -127.834 19.833 -171.501 59.5s-65.5 94.167 -65.5 163.5v306h145v-301c0 -32.667 8.5 -57.667 25.5 -75s39.167 -26 66.5 -26c28 0 50.5 8.66699 67.5 26
s25.5 42.333 25.5 75v301z" />
    <glyph glyph-name="phi" unicode="&#x3c6;" horiz-adv-x="769" 
d="M456 529c82.667 -3.33301 149.667 -29.666 201 -78.999s77 -113.333 77 -192c0 -78 -25.667 -141.667 -77 -191s-118.333 -75.666 -201 -78.999v-179h-144v179c-82.667 3.33301 -149.5 29.666 -200.5 78.999s-76.5 113 -76.5 191c0 78.667 25.5 142.667 76.5 192
s117.833 75.666 200.5 78.999v188h144v-188zM312 111v293.999c-38 -1.33301 -69.5 -15.166 -94.5 -41.499s-37.5 -61.5 -37.5 -105.5c0 -43.333 12.5 -78.333 37.5 -105s56.5 -40.667 94.5 -42zM588 257.999c0 44 -12.332 79.168 -36.999 105.501
s-56.334 40.166 -95.001 41.499v-294c38 1.33301 69.5 15.333 94.5 42s37.5 61.667 37.5 105z" />
    <glyph glyph-name="chi" unicode="&#x3c7;" horiz-adv-x="551" 
d="M387 -191l-115 231l-113 -231h-155l189 355l-187 353h160l114 -228l112 228h153l-187 -354l189 -354h-160z" />
    <glyph glyph-name="psi" unicode="&#x3c8;" horiz-adv-x="775" 
d="M573 517h145v-273c0 -76.667 -22.5 -136.667 -67.5 -180s-109.167 -67.666 -192.5 -72.999v-182h-141v182c-84 5.33301 -148.333 29.666 -193 72.999s-67 103.333 -67 180v273h145v-258c0 -84.667 38.333 -131 115 -139v557h141v-557c76.667 8 115 54.333 115 139v258z
" />
    <glyph glyph-name="omega" unicode="&#x3c9;" horiz-adv-x="797" 
d="M506 529c76 0 137.332 -25.667 183.999 -77s70 -116.333 70 -195c0 -79.333 -18.333 -144 -55 -194s-86.667 -75 -150 -75c-76.667 0 -129 34.333 -157 103c-28 -68.667 -80 -103 -156 -103c-62.667 0 -112.334 25 -149.001 75s-55 114.667 -55 194
c0 78.667 23.167 143.667 69.5 195s107.5 77 183.5 77v-126c-32 0 -57.833 -13.5 -77.5 -40.5s-29.5 -62.167 -29.5 -105.5c0 -45.333 6.83301 -80.5 20.5 -105.5s33.167 -37.5 58.5 -37.5c22.667 0 39.334 9.33301 50.001 28s16 42 16 70v134h139v-134
c0 -28 5.33301 -51.333 16 -70s27.334 -28 50.001 -28c52.667 0 79 47.667 79 143c0 43.333 -9.83301 78.5 -29.5 105.5s-45.5 40.5 -77.5 40.5v126z" />
    <glyph glyph-name="iotadieresis" unicode="&#x3ca;" horiz-adv-x="321" 
d="M209 192c0 -25.333 5.66602 -43 16.999 -53s27 -15 47 -15h18v-125h-39c-65.333 0 -113.166 14.167 -143.499 42.5s-45.5 74.833 -45.5 139.5v336h146v-325zM32.999 743c22 0 40.5 -7.5 55.5 -22.5s22.5 -33.167 22.5 -54.5s-7.5 -39.666 -22.5 -54.999
s-33.5 -23 -55.5 -23s-40.5 7.66699 -55.5 23s-22.5 33.666 -22.5 54.999s7.5 39.5 22.5 54.5s33.5 22.5 55.5 22.5zM241.999 743c21.333 0 39.666 -7.5 54.999 -22.5s23 -33.167 23 -54.5s-7.66699 -39.666 -23 -54.999s-33.666 -23 -54.999 -23
c-22 0 -40.5 7.66699 -55.5 23s-22.5 33.666 -22.5 54.999s7.5 39.5 22.5 54.5s33.5 22.5 55.5 22.5z" />
    <glyph glyph-name="upsilondieresis" unicode="&#x3cb;" horiz-adv-x="593" 
d="M389 517h146.001v-306c0 -69.333 -22 -123.833 -66 -163.5s-101.667 -59.5 -173 -59.5c-70.667 0 -127.834 19.833 -171.501 59.5s-65.5 94.167 -65.5 163.5v306h145v-301c0 -32.667 8.5 -57.667 25.5 -75s39.167 -26 66.5 -26c28 0 50.5 8.66699 67.5 26
s25.5 42.333 25.5 75v301zM187.001 743c21.333 0 39.666 -7.5 54.999 -22.5s23 -33.167 23 -54.5s-7.66699 -39.666 -23 -54.999s-33.666 -23 -54.999 -23c-22 0 -40.667 7.66699 -56 23s-23 33.666 -23 54.999s7.66699 39.5 23 54.5s34 22.5 56 22.5zM406.001 743
c22 0 40.5 -7.5 55.5 -22.5s22.5 -33.167 22.5 -54.5s-7.5 -39.666 -22.5 -54.999s-33.5 -23 -55.5 -23s-40.5 7.66699 -55.5 23s-22.5 33.666 -22.5 54.999s7.5 39.5 22.5 54.5s33.5 22.5 55.5 22.5z" />
    <glyph glyph-name="omicrontonos" unicode="&#x3cc;" horiz-adv-x="591" 
d="M296 529c76.667 0 139.167 -24.833 187.5 -74.5s72.5 -115.167 72.5 -196.5s-24.167 -146.666 -72.5 -195.999s-110.833 -74 -187.5 -74c-77.333 0 -140.166 24.667 -188.499 74s-72.5 114.666 -72.5 195.999s24.167 146.833 72.5 196.5s111.166 74.5 188.499 74.5z
M296 114c34.667 0 62.332 13.333 82.999 40s31 61.334 31 104.001c0 43.333 -10.167 78.333 -30.5 105s-48.166 40 -83.499 40s-63.333 -13.333 -84 -40s-31 -61.667 -31 -105c0 -42.667 10.333 -77.334 31 -104.001s48.667 -40 84 -40zM468.998 756l-109 -170h-119l94 170
h134z" />
    <glyph glyph-name="upsilontonos" unicode="&#x3cd;" horiz-adv-x="593" 
d="M389 517h146.001v-306c0 -69.333 -22 -123.833 -66 -163.5s-101.667 -59.5 -173 -59.5c-70.667 0 -127.834 19.833 -171.501 59.5s-65.5 94.167 -65.5 163.5v306h145v-301c0 -32.667 8.5 -57.667 25.5 -75s39.167 -26 66.5 -26c28 0 50.5 8.66699 67.5 26
s25.5 42.333 25.5 75v301zM469.001 756l-109 -170h-119l94 170h134z" />
    <glyph glyph-name="omegatonos" unicode="&#x3ce;" horiz-adv-x="797" 
d="M506 529c76 0 137.332 -25.667 183.999 -77s70 -116.333 70 -195c0 -79.333 -18.333 -144 -55 -194s-86.667 -75 -150 -75c-76.667 0 -129 34.333 -157 103c-28 -68.667 -80 -103 -156 -103c-62.667 0 -112.334 25 -149.001 75s-55 114.667 -55 194
c0 78.667 23.167 143.667 69.5 195s107.5 77 183.5 77v-126c-32 0 -57.833 -13.5 -77.5 -40.5s-29.5 -62.167 -29.5 -105.5c0 -45.333 6.83301 -80.5 20.5 -105.5s33.167 -37.5 58.5 -37.5c22.667 0 39.334 9.33301 50.001 28s16 42 16 70v134h139v-134
c0 -28 5.33301 -51.333 16 -70s27.334 -28 50.001 -28c52.667 0 79 47.667 79 143c0 43.333 -9.83301 78.5 -29.5 105.5s-45.5 40.5 -77.5 40.5v126zM571.999 756l-109 -170h-119l94 170h134z" />
    <glyph glyph-name="cyrIegrave" unicode="&#x400;" horiz-adv-x="596" 
d="M546 568h-319v-144h300v-131h-300v-157h319v-136h-472v704h472v-136zM140 941h134l94 -170h-119z" />
    <glyph glyph-name="afii10023" unicode="&#x401;" horiz-adv-x="596" 
d="M546 568h-319v-144h300v-131h-300v-157h319v-136h-472v704h472v-136zM199 928c22 0 40.5 -7.66699 55.5 -23s22.5 -33.666 22.5 -54.999s-7.5 -39.5 -22.5 -54.5s-33.5 -22.5 -55.5 -22.5s-40.5 7.5 -55.5 22.5s-22.5 33.167 -22.5 54.5s7.5 39.666 22.5 54.999
s33.5 23 55.5 23zM428 928c21.333 0 39.666 -7.66699 54.999 -23s23 -33.666 23 -54.999s-7.66699 -39.5 -23 -54.5s-33.666 -22.5 -54.999 -22.5c-22 0 -40.5 7.5 -55.5 22.5s-22.5 33.167 -22.5 54.5s7.5 39.666 22.5 54.999s33.5 23 55.5 23z" />
    <glyph glyph-name="afii10051" unicode="&#x402;" horiz-adv-x="827" 
d="M549 442c71.333 0 129.333 -20.499 174 -61.499s67 -96.167 67 -165.5s-20.833 -124.5 -62.5 -165.5s-98.834 -61.5 -171.501 -61.5h-42v133h21c28.667 0 52.667 7.83301 72 23.5s29 38.167 29 67.5c0 31.333 -10.667 55.166 -32 71.499s-49.666 24.5 -84.999 24.5
c-48 0 -90.667 -12.667 -128 -38v-270h-153v569h-204v135h566v-135h-209v-167c43.333 26.667 96 40 158 40z" />
    <glyph glyph-name="afii10052" unicode="&#x403;" horiz-adv-x="573" 
d="M538 568h-311v-568h-153v704h464v-136zM493 941l-109 -170h-119l94 170h134z" />
    <glyph glyph-name="afii10053" unicode="&#x404;" horiz-adv-x="717" 
d="M527 232l152.001 -0.00195312c-3.33301 -28 -11.833 -55.667 -25.5 -83s-32.334 -53.333 -56.001 -78s-55 -44.667 -94 -60s-82.5 -23 -130.5 -23c-96 0 -175.167 32.5 -237.5 97.5s-93.5 153.833 -93.5 266.5c0 110 30.833 198.167 92.5 264.5s141.167 99.5 238.5 99.5
c86 0 155.667 -23.5 209 -70.5s85.333 -104.833 96 -173.5h-151c-8.66699 30.667 -26.167 56.334 -52.5 77.001s-60.166 31 -101.499 31c-44.667 0 -82.334 -13.667 -113.001 -41s-50 -66.666 -58 -117.999h248v-127h-250c6.66699 -54 25.5 -95.833 56.5 -125.5
s69.833 -44.5 116.5 -44.5c43.333 0 78 11 104 33s42.667 47 50 75z" />
    <glyph glyph-name="afii10054" unicode="&#x405;" horiz-adv-x="634" 
d="M41 202l154.001 -0.000976562c15.333 -56.667 59 -85 131 -85c34.667 0 62 7.83301 82 23.5s30 36.5 30 62.5c0 42 -27.667 67.333 -83 76l-113 18c-128.667 19.333 -193 84.666 -193 195.999c0 66 24.667 119.667 74 161s112 62 188 62
c74.667 0 136.5 -18.333 185.5 -55s78.167 -87.667 87.5 -153h-152c-16 52 -56.333 78 -121 78c-30.667 0 -56.167 -7.5 -76.5 -22.5s-30.5 -34.833 -30.5 -59.5c0 -38 26.667 -61 80 -69l111 -17c61.333 -9.33301 109.666 -30.666 144.999 -63.999s53 -79.666 53 -138.999
c0 -70 -24 -125.333 -72 -166s-113.333 -61 -196 -61c-78 0 -142.667 19 -194 57s-81.333 90.333 -90 157z" />
    <glyph glyph-name="afii10055" unicode="&#x406;" horiz-adv-x="301" 
d="M227 704v-704h-153v704h153z" />
    <glyph glyph-name="afii10056" unicode="&#x407;" horiz-adv-x="301" 
d="M227 704v-704h-153v704h153zM42 928c21.333 0 39.666 -7.5 54.999 -22.5s23 -33.167 23 -54.5s-7.66699 -39.666 -23 -54.999s-33.666 -23 -54.999 -23c-22 0 -40.667 7.66699 -56 23s-23 33.666 -23 54.999s7.66699 39.5 23 54.5s34 22.5 56 22.5zM261 928
c22 0 40.5 -7.5 55.5 -22.5s22.5 -33.167 22.5 -54.5s-7.5 -39.666 -22.5 -54.999s-33.5 -23 -55.5 -23s-40.5 7.66699 -55.5 23s-22.5 33.666 -22.5 54.999s7.5 39.5 22.5 54.5s33.5 22.5 55.5 22.5z" />
    <glyph glyph-name="afii10057" unicode="&#x408;" horiz-adv-x="578" 
d="M23 204h149c2 -20.667 10.667 -39 26 -55s36.333 -24 63 -24c30 0 53.167 9.83301 69.5 29.5s24.5 47.5 24.5 83.5v466h153v-468c0 -78.667 -22 -139.667 -66 -183s-104.667 -65 -182 -65c-70.667 0 -127.667 20.5 -171 61.5s-65.333 92.5 -66 154.5z" />
    <glyph glyph-name="afii10058" unicode="&#x409;" horiz-adv-x="1048" 
d="M762 466c77.333 0 138.333 -21.667 183 -65s67 -99.333 67 -168c0 -68 -22.667 -123.833 -68 -167.5s-105 -65.5 -179 -65.5h-270v568h-194l-20 -307c-6 -84.667 -26.333 -149.667 -61 -195s-91 -68 -169 -68h-41v137h19c36 0 62 10.5 78 31.5s25.667 55.833 29 104.5
l28 433h484v-238h114zM747 334l-99 -0.000976562v-203h99c33.333 0 60 9.33301 80 28s30 43.334 30 74.001c0 31.333 -9.66699 56 -29 74s-46.333 27 -81 27z" />
    <glyph glyph-name="afii10059" unicode="&#x40a;" horiz-adv-x="1059" 
d="M227 0l-153 -0.000976562v704h153v-260h282v260h153v-258h117c74.667 0 134 -20.167 178 -60.5s66 -94.166 66 -161.499s-21.667 -121.5 -65 -162.5s-102 -61.5 -176 -61.5h-273v308h-282v-308zM765 314.999l-103 -0.000976562v-184h103c31.333 0 56.333 8.33301 75 25
s28 39.334 28 68.001s-9.16699 51 -27.5 67s-43.5 24 -75.5 24z" />
    <glyph glyph-name="afii10060" unicode="&#x40b;" horiz-adv-x="840" 
d="M34 569l-0.00195312 135h566v-135h-209v-170c42 27.333 91.333 41 148 41c74.667 0 133.834 -22 177.501 -66s65.5 -110.667 65.5 -200v-174h-153v171c0 88.667 -40 133 -120 133c-45.333 0 -84.666 -12.333 -117.999 -37v-267h-153v569h-204z" />
    <glyph glyph-name="afii10061" unicode="&#x40c;" horiz-adv-x="665" 
d="M227 0h-153v704h153v-290l246 290h179l-282 -338l288 -366h-186l-245 307v-307zM514 941l-109 -170h-119l94 170h134z" />
    <glyph glyph-name="cyrIgrave" unicode="&#x40d;" horiz-adv-x="747" 
d="M673 704v-704h-150v462l-299 -462h-150v704h150v-464l299 464h150zM200 934h134l94 -170h-119z" />
    <glyph glyph-name="afii10062" unicode="&#x40e;" horiz-adv-x="674" 
d="M13 704h162l171 -349l156 349h159l-324 -704h-160l90 196zM265 938c0 -22 6.33301 -40.5 19 -55.5s31 -22.5 55 -22.5s42.333 7.5 55 22.5s19 33.5 19 55.5h110c-0.666992 -52 -17.5 -93.833 -50.5 -125.5s-77.5 -47.5 -133.5 -47.5s-100.5 15.833 -133.5 47.5
s-49.833 73.5 -50.5 125.5h110z" />
    <glyph glyph-name="afii10145" unicode="&#x40f;" horiz-adv-x="736" 
d="M74 0v704h153v-567h282v567h153v-704h-222v-154h-146v154h-220z" />
    <glyph glyph-name="afii10017" unicode="&#x410;" horiz-adv-x="699" 
d="M270 704h158l258 -704h-158l-50 145h-258l-49 -145h-158zM348 527l-85 -254h170z" />
    <glyph glyph-name="afii10018" unicode="&#x411;" horiz-adv-x="628" 
d="M536 569l-309 -0.000976562v-130h129c72 0 129 -19.667 171 -59s63 -92.666 63 -159.999c0 -63.333 -21.5 -115.833 -64.5 -157.5s-99.5 -62.5 -169.5 -62.5h-282v704h462v-135zM334 314.999h-106.999v-186h107c31.333 0 56.166 8.5 74.499 25.5s27.5 39.833 27.5 68.5
c0 28 -9 50.333 -27 67s-43 25 -75 25z" />
    <glyph glyph-name="afii10019" unicode="&#x412;" horiz-adv-x="646" 
d="M74 0v703.998h284c72 0 127.167 -17.333 165.5 -52s57.5 -78.667 57.5 -132c0 -38 -8.83301 -69.833 -26.5 -95.5s-39.5 -44.167 -65.5 -55.5c32 -9.33301 59.833 -28.166 83.5 -56.499s35.5 -65.166 35.5 -110.499c0 -59.333 -21.5 -107.833 -64.5 -145.5
s-100.833 -56.5 -173.5 -56.5h-296zM351 299.998l-125.001 -0.000976562v-173h124c31.333 0 56.333 7.66699 75 23s28 36.333 28 63s-9.16699 47.834 -27.5 63.501s-43.166 23.5 -74.499 23.5zM333.999 576.997h-108v-158h112c28.667 0 50.667 7.33301 66 22
s23 33.667 23 57c0 25.333 -8 44.833 -24 58.5s-39 20.5 -69 20.5z" />
    <glyph glyph-name="afii10020" unicode="&#x413;" horiz-adv-x="573" 
d="M538 568h-311v-568h-153v704h464v-136z" />
    <glyph glyph-name="afii10021" unicode="&#x414;" horiz-adv-x="766" 
d="M744 136v-270h-147v134h-441v-134h-146v270h55c22 14 38.167 38.5 48.5 73.5s17.5 83.167 21.5 144.5l23 350h500v-568h86zM280 354c-4 -61.333 -9.66797 -107.5 -17.001 -138.5s-19.666 -57.5 -36.999 -79.5h279v432h-210z" />
    <glyph glyph-name="afii10022" unicode="&#x415;" horiz-adv-x="596" 
d="M546 568h-319v-144h300v-131h-300v-157h319v-136h-472v704h472v-136z" />
    <glyph glyph-name="afii10024" unicode="&#x416;" horiz-adv-x="976" 
d="M414 0v317l-228 -317h-176l263 363l-257 341h172l226 -298v298h148v-297l226 297h172l-257 -337l263 -367h-175l-229 316v-316h-148z" />
    <glyph glyph-name="afii10025" unicode="&#x417;" horiz-adv-x="618" 
d="M41 504c6 66 33.5 117.831 82.5 155.498s109.167 56.5 180.5 56.5c75.333 0 135.833 -18 181.5 -54s68.5 -83.667 68.5 -143c0 -37.333 -9.66699 -69.166 -29 -95.499s-42.666 -44.5 -69.999 -54.5c30.667 -7.33301 59.167 -25.166 85.5 -53.499
s39.5 -64.833 39.5 -109.5c0 -66.667 -24.667 -119.667 -74 -159s-114 -59 -194 -59c-79.333 0 -144.333 19.667 -195 59s-78.334 92.666 -83.001 159.999h151c5.33301 -26 19 -46.833 41 -62.5s50.667 -23.5 86 -23.5c34.667 0 62.167 8 82.5 24s30.5 37.667 30.5 65
c0 28 -10.167 48.833 -30.5 62.5s-48.166 20.5 -83.499 20.5h-94v130h80c33.333 0 58.666 7.33301 75.999 22s26 34.334 26 59.001c0 24 -9 43.167 -27 57.5s-41.667 21.5 -71 21.5c-30.667 0 -55.667 -6.83301 -75 -20.5s-31.333 -33.167 -36 -58.5h-149z" />
    <glyph glyph-name="afii10026" unicode="&#x418;" horiz-adv-x="747" 
d="M673 704v-704h-150v462l-299 -462h-150v704h150v-464l299 464h150z" />
    <glyph glyph-name="afii10027" unicode="&#x419;" horiz-adv-x="747" 
d="M673 704v-704h-150v462l-299 -462h-150v704h150v-464l299 464h150zM299 931c0 -22 6.33301 -40.5 19 -55.5s31 -22.5 55 -22.5s42.333 7.5 55 22.5s19 33.5 19 55.5h110c-0.666992 -52 -17.5 -93.833 -50.5 -125.5s-77.5 -47.5 -133.5 -47.5s-100.5 15.833 -133.5 47.5
s-49.833 73.5 -50.5 125.5h110z" />
    <glyph glyph-name="afii10028" unicode="&#x41a;" horiz-adv-x="665" 
d="M227 0h-153v704h153v-290l246 290h179l-282 -338l288 -366h-186l-245 307v-307z" />
    <glyph glyph-name="afii10029" unicode="&#x41b;" horiz-adv-x="722" 
d="M10 -2v137h19c36 0 62 10.5 78 31.5s25.667 55.833 29 104.5l28 433h484v-704h-153v568h-194l-20 -307c-6 -84.667 -26.333 -149.667 -61 -195s-91 -68 -169 -68h-41z" />
    <glyph glyph-name="afii10030" unicode="&#x41c;" horiz-adv-x="916" 
d="M74 704h190l195 -494l194 494h189v-704h-143v473l-185 -467h-112l-184 463v-469h-144v704z" />
    <glyph glyph-name="afii10031" unicode="&#x41d;" horiz-adv-x="739" 
d="M227 0h-153v704h153v-275h285v275h153v-704h-153v292h-285v-292z" />
    <glyph glyph-name="afii10032" unicode="&#x41e;" horiz-adv-x="758" 
d="M379 716c100 0 181.167 -33.5 243.5 -100.5s93.5 -154.833 93.5 -263.5s-31.167 -196.5 -93.5 -263.5s-143.5 -100.5 -243.5 -100.5s-181.167 33.5 -243.5 100.5s-93.5 154.833 -93.5 263.5s31.167 196.5 93.5 263.5s143.5 100.5 243.5 100.5zM379 125
c56 0 100.167 21.167 132.5 63.5s48.5 96.833 48.5 163.5s-16.167 121.167 -48.5 163.5s-76.5 63.5 -132.5 63.5s-100.167 -21.167 -132.5 -63.5s-48.5 -96.833 -48.5 -163.5s16.167 -121.167 48.5 -163.5s76.5 -63.5 132.5 -63.5z" />
    <glyph glyph-name="afii10033" unicode="&#x41f;" horiz-adv-x="736" 
d="M74 704h588v-704h-153v568h-282v-568h-153v704z" />
    <glyph glyph-name="afii10034" unicode="&#x420;" horiz-adv-x="631" 
d="M342 704c78.667 0 140.501 -22.167 185.501 -66.5s67.5 -101.5 67.5 -171.5c0 -68 -22.833 -124.5 -68.5 -169.5s-105.834 -67.5 -180.501 -67.5h-119v-229h-153v704h268zM328.001 573h-101v-213h101c34.667 0 62 9.83301 82 29.5s30 45.167 30 76.5
c0 32 -9.83301 57.833 -29.5 77.5s-47.167 29.5 -82.5 29.5z" />
    <glyph glyph-name="afii10035" unicode="&#x421;" horiz-adv-x="715" 
d="M525 243h151.999c-2 -30.667 -9.66699 -60.667 -23 -90s-32 -56.5 -56 -81.5s-55.667 -45.167 -95 -60.5s-83.333 -23 -132 -23c-95.333 0 -174 32.833 -236 98.5s-93 154.167 -93 265.5c0 108.667 30.667 196.5 92 263.5s140.333 100.5 237 100.5
c88.667 0 159.334 -24 212.001 -72s83.667 -108.667 93 -182h-152c-8.66699 34 -26 62 -52 84s-59.667 33 -101 33c-51.333 0 -93 -20.667 -125 -62s-48 -96.333 -48 -165c0 -68 16 -122.833 48 -164.5s74 -62.5 126 -62.5c43.333 0 78.333 12.167 105 36.5
s42.667 51.5 48 81.5z" />
    <glyph glyph-name="afii10036" unicode="&#x422;" horiz-adv-x="634" 
d="M31 568v136h572v-136h-209v-568h-153v568h-210z" />
    <glyph glyph-name="afii10037" unicode="&#x423;" horiz-adv-x="674" 
d="M13 704h162l171 -349l156 349h159l-324 -704h-160l90 196z" />
    <glyph glyph-name="afii10038" unicode="&#x424;" horiz-adv-x="863" 
d="M506 651c88.667 -3.33301 164 -30.833 226 -82.5s93 -122.5 93 -212.5s-31 -160.833 -93 -212.5s-137.333 -79.167 -226 -82.5v-72h-149v72c-89.333 3.33301 -164.833 30.833 -226.5 82.5s-92.5 122.5 -92.5 212.5s30.833 160.833 92.5 212.5s137.167 79.167 226.5 82.5
v73h149v-73zM357 190v330.999c-50 -1.33301 -90.5 -16.666 -121.5 -45.999s-46.5 -69 -46.5 -119c0 -49.333 15.5 -89 46.5 -119s71.5 -45.667 121.5 -47zM506 189.999c49.333 1.33301 89.666 17 120.999 47s47 69.667 47 119s-15.667 88.833 -47 118.5
s-71.666 45.167 -120.999 46.5v-331z" />
    <glyph glyph-name="afii10039" unicode="&#x425;" horiz-adv-x="696" 
d="M501 0l-155 241l-154 -241h-171l232 354l-230 350h175l152 -240l154 240h169l-230 -353l232 -351h-174z" />
    <glyph glyph-name="afii10040" unicode="&#x426;" horiz-adv-x="770" 
d="M747 137v-271h-147v134h-526v704h153v-567h281v567h153v-567h86z" />
    <glyph glyph-name="afii10041" unicode="&#x427;" horiz-adv-x="692" 
d="M466 704h152.998v-704h-153v277c-38.667 -21.333 -87 -32 -145 -32c-78.667 0 -142.5 23.167 -191.5 69.5s-73.5 115.5 -73.5 207.5v182h153v-178c0 -47.333 12.833 -83.333 38.5 -108s59.834 -37 102.501 -37c44.667 0 83.334 10 116.001 30v293z" />
    <glyph glyph-name="afii10042" unicode="&#x428;" horiz-adv-x="997" 
d="M575 704v-567h196v567h153v-704h-850v704h153v-567h195v567h153z" />
    <glyph glyph-name="afii10043" unicode="&#x429;" horiz-adv-x="1033" 
d="M1010 137v-271h-147v134h-789v704h153v-567h195v567h153v-567h196v567h153v-567h86z" />
    <glyph glyph-name="afii10044" unicode="&#x42a;" horiz-adv-x="734" 
d="M448 466c77.333 0 138.333 -21.667 183 -65s67 -99.333 67 -168c0 -68 -22.5 -123.833 -67.5 -167.5s-104.833 -65.5 -179.5 -65.5h-270v567h-150v137h303v-238h114zM434 334l-100 -0.000976562v-203h100c33.333 0 59.833 9.33301 79.5 28s29.5 43.334 29.5 74.001
c0 31.333 -9.66699 56 -29 74s-46 27 -80 27z" />
    <glyph glyph-name="afii10045" unicode="&#x42b;" horiz-adv-x="877" 
d="M340 466c77.333 0 138.333 -21.667 183 -65s67 -99.333 67 -168c0 -68 -22.5 -123.833 -67.5 -167.5s-104.5 -65.5 -178.5 -65.5h-270v704h153v-238h113zM803 704v-704h-152v704h152zM326 334l-99 -0.000976562v-203h99c33.333 0 59.833 9.33301 79.5 28
s29.5 43.334 29.5 74.001c0 31.333 -9.5 56 -28.5 74s-45.833 27 -80.5 27z" />
    <glyph glyph-name="afii10046" unicode="&#x42c;" horiz-adv-x="627" 
d="M340 466c77.333 0 138.333 -21.667 183 -65s67 -99.333 67 -168c0 -68 -22.5 -123.833 -67.5 -167.5s-104.5 -65.5 -178.5 -65.5h-270v704h153v-238h113zM326 334l-99 -0.000976562v-203h99c33.333 0 59.833 9.33301 79.5 28s29.5 43.334 29.5 74.001
c0 31.333 -9.5 56 -28.5 74s-45.833 27 -80.5 27z" />
    <glyph glyph-name="afii10047" unicode="&#x42d;" horiz-adv-x="717" 
d="M266 294l-0.00292969 127.002h248c-8 51.333 -27.167 90.666 -57.5 117.999s-67.833 41 -112.5 41c-41.333 0 -75.166 -10.333 -101.499 -31s-43.833 -46.334 -52.5 -77.001h-151c10.667 68.667 42.667 126.5 96 173.5s123 70.5 209 70.5c98 0 177.667 -32.5 239 -97.5
s92 -153.833 92 -266.5s-31.167 -201.5 -93.5 -266.5s-141.5 -97.5 -237.5 -97.5c-48 0 -91.667 7.66699 -131 23s-70.833 35.333 -94.5 60s-42.167 50.667 -55.5 78s-21.666 55 -24.999 83h152c7.33301 -28 24 -53 50 -75s60.667 -33 104 -33c46 0 84.333 14.833 115 44.5
s49.334 71.5 56.001 125.5h-249z" />
    <glyph glyph-name="afii10048" unicode="&#x42e;" horiz-adv-x="1020" 
d="M227 0h-153v704h153v-275h90c14 87.333 50.333 157 109 209s131.667 78 219 78c99.333 0 179.666 -33.5 240.999 -100.5s92 -154.833 92 -263.5s-30.667 -196.5 -92 -263.5s-141.666 -100.5 -240.999 -100.5c-89.333 0 -164 27.5 -224 82.5s-95.667 128.833 -107 221.5
h-87v-292zM645 125c55.333 0 98.666 21 129.999 63s47 96.667 47 164s-15.667 122 -47 164s-74.666 63 -129.999 63c-56 0 -99.667 -21 -131 -63s-47 -96.667 -47 -164s15.667 -122 47 -164s75 -63 131 -63z" />
    <glyph glyph-name="afii10049" unicode="&#x42f;" horiz-adv-x="652" 
d="M183 0l-168 -0.000976562l160 268c-37.333 20 -66.5 47.333 -87.5 82s-31.5 74.334 -31.5 119.001c0 71.333 22.833 128.333 68.5 171s107.5 64 185.5 64h268v-704h-152v236h-104zM211 468.999c0 -30 10.3311 -54.667 30.998 -74s48.334 -29 83.001 -29h101v207h-101
c-35.333 0 -63.166 -9.66699 -83.499 -29s-30.5 -44.333 -30.5 -75z" />
    <glyph glyph-name="afii10065" unicode="&#x430;" horiz-adv-x="560" 
d="M359 343c0 23.333 -7.83203 41.333 -23.499 54s-36.167 19 -61.5 19c-46 0 -74 -16.667 -84 -50h-136c7.33301 47.333 30.666 86.333 69.999 117s91.333 46 156 46c68 0 122 -16.5 162 -49.5s60 -80.167 60 -141.5v-338h-135v56c-35.333 -45.333 -86.333 -68 -153 -68
c-52 0 -95 14.667 -129 44s-51 69.333 -51 120c0 52.667 18.833 93.667 56.5 123s89.5 44 155.5 44h113v24zM254.001 101c29.333 0 54.167 8.5 74.5 25.5s30.5 39.833 30.5 68.5v23h-102c-22.667 0 -41.167 -5.33301 -55.5 -16s-21.5 -25 -21.5 -43
s6.66699 -32.167 20 -42.5s31.333 -15.5 54 -15.5z" />
    <glyph glyph-name="afii10066" unicode="&#x431;" horiz-adv-x="607" 
d="M347 508c67.333 0 121.666 -23.332 162.999 -69.999s62 -108.667 62 -186c0 -74 -23.167 -136.5 -69.5 -187.5s-107.833 -76.5 -184.5 -76.5c-87.333 0 -154.833 28.5 -202.5 85.5s-71.5 136.833 -71.5 239.5c0 119.333 20 211.166 60 275.499s109 104.833 207 121.5
l211 35v-127l-197 -29c-48 -7.33301 -83.167 -23.5 -105.5 -48.5s-36.166 -62.167 -41.499 -111.5c38.667 52.667 95 79 169 79zM311 110.001c36 0 64.166 13.5 84.499 40.5s30.5 60.833 30.5 101.5c0 40 -10.167 72.833 -30.5 98.5s-48.166 38.5 -83.499 38.5
c-36.667 0 -65.667 -12.667 -87 -38s-32 -58 -32 -98c0 -42 10.333 -76.333 31 -103s49.667 -40 87 -40z" />
    <glyph glyph-name="afii10067" unicode="&#x432;" horiz-adv-x="542" 
d="M63 0l-0.000976562 516.999h246c58 0 102.333 -12.333 133 -37s46 -57 46 -97c0 -28 -7.16699 -51.5 -21.5 -70.5s-32.5 -32.5 -54.5 -40.5c27.333 -8 50 -22.5 68 -43.5s27 -48.167 27 -81.5c0 -43.333 -16.667 -78.666 -50 -105.999s-80.666 -41 -141.999 -41h-252z
M296.999 212.999h-91v-110h91c20.667 0 36.667 5 48 15s17 23.667 17 41c0 36 -21.667 54 -65 54zM286.999 413.999h-81v-101h81c18 0 32.167 4.5 42.5 13.5s15.5 21.5 15.5 37.5c0 33.333 -19.333 50 -58 50z" />
    <glyph glyph-name="afii10068" unicode="&#x433;" horiz-adv-x="460" 
d="M430 391h-221v-391h-146v517h367v-126z" />
    <glyph glyph-name="afii10069" unicode="&#x434;" horiz-adv-x="644" 
d="M618 126l0.000976562 -254h-140v128h-323v-128h-140v254h40c27.333 16 44.666 63.333 51.999 142l19 249h419v-391h73zM244.001 261c-6 -66.667 -18.667 -111.667 -38 -135h193v265h-146z" />
    <glyph glyph-name="afii10070" unicode="&#x435;" horiz-adv-x="566" 
d="M531 217l-349.002 0.00195312v-2c0 -32 10.833 -58.667 32.5 -80s49.834 -32 84.501 -32c22.667 0 41.667 4.66699 57 14s25 19.666 29 30.999h141c-8 -42 -31.5 -79.167 -70.5 -111.5s-92.167 -48.5 -159.5 -48.5c-79.333 0 -142.666 23.833 -189.999 71.5
s-71 113.167 -71 196.5s23.167 149.666 69.5 198.999s107.5 74 183.5 74c74 0 133 -23.667 177 -71s66 -111 66 -191v-50zM288.998 415.002c-29.333 0 -53.333 -8.49902 -72 -25.499s-30 -40.5 -34 -70.5h206c-2 29.333 -12 52.666 -30 69.999s-41.333 26 -70 26z" />
    <glyph glyph-name="afii10072" unicode="&#x436;" horiz-adv-x="799" 
d="M471 517v-212l155 212h162l-180 -244l182 -273h-165l-154 233v-233h-144v231l-153 -231h-165l182 269l-180 248h161l155 -211v211h144z" />
    <glyph glyph-name="afii10073" unicode="&#x437;" horiz-adv-x="520" 
d="M39 365c5.33301 52 28.999 92.334 70.999 121.001s93.667 43 155 43c58.667 0 106.834 -13.5 144.501 -40.5s56.5 -62.833 56.5 -107.5c0 -54.667 -25.667 -92.334 -77 -113.001c26 -6 48.5 -18.667 67.5 -38s28.5 -46.333 28.5 -81c0 -47.333 -20.333 -86 -61 -116
s-95 -45 -163 -45c-64.667 0 -117.5 15.167 -158.5 45.5s-64.833 71.5 -71.5 123.5h140c11.333 -37.333 41 -56 89 -56c24 0 43.167 5 57.5 15s21.5 24 21.5 42c0 33.333 -26 50 -78 50h-70v107h62c22 0 39 4.5 51 13.5s18 21.5 18 37.5s-6 28.333 -18 37s-28.333 13 -49 13
c-44 0 -70 -17 -78 -51h-138z" />
    <glyph glyph-name="afii10074" unicode="&#x438;" horiz-adv-x="607" 
d="M544 517v-517h-143v302l-200 -302h-138v517h143v-301l200 301h138z" />
    <glyph glyph-name="afii10075" unicode="&#x439;" horiz-adv-x="607" 
d="M544 517v-517h-143v302l-200 -302h-138v517h143v-301l200 301h138zM233 746c0 -22 6.16699 -40.5 18.5 -55.5s29.833 -22.5 52.5 -22.5s40.167 7.5 52.5 22.5s18.5 33.5 18.5 55.5h109c-0.666992 -52.667 -17 -94.667 -49 -126s-75.667 -47 -131 -47s-99 15.667 -131 47
s-48.333 73.333 -49 126h109z" />
    <glyph glyph-name="afii10076" unicode="&#x43a;" horiz-adv-x="552" 
d="M209 0h-146v517h146v-205l169 205h165l-201 -243l205 -274h-170l-168 229v-229z" />
    <glyph glyph-name="afii10077" unicode="&#x43b;" horiz-adv-x="602" 
d="M15 -2l0.000976562 125.999h18c25.333 0 43.666 6.83301 54.999 20.5s18 36.834 20 69.501l24 303h407v-517h-146v391h-133l-14 -187c-5.33301 -72.667 -23.333 -125.167 -54 -157.5s-76.667 -48.5 -138 -48.5h-39z" />
    <glyph glyph-name="afii10078" unicode="&#x43c;" horiz-adv-x="774" 
d="M63 517h187l139 -333l139 333h183v-517h-139v328l-136 -324h-98l-136 323v-327h-139v517z" />
    <glyph glyph-name="afii10079" unicode="&#x43d;" horiz-adv-x="601" 
d="M209 0h-146v517h146v-189h183v189h146v-517h-146v202h-183v-202z" />
    <glyph glyph-name="afii10080" unicode="&#x43e;" horiz-adv-x="591" 
d="M296 529c76.667 0 139.167 -24.833 187.5 -74.5s72.5 -115.167 72.5 -196.5s-24.167 -146.666 -72.5 -195.999s-110.833 -74 -187.5 -74c-77.333 0 -140.166 24.667 -188.499 74s-72.5 114.666 -72.5 195.999s24.167 146.833 72.5 196.5s111.166 74.5 188.499 74.5z
M296 114c34.667 0 62.332 13.333 82.999 40s31 61.334 31 104.001c0 43.333 -10.167 78.333 -30.5 105s-48.166 40 -83.499 40s-63.333 -13.333 -84 -40s-31 -61.667 -31 -105c0 -42.667 10.333 -77.334 31 -104.001s48.667 -40 84 -40z" />
    <glyph glyph-name="afii10081" unicode="&#x43f;" horiz-adv-x="598" 
d="M63 517h472v-517h-146v391h-180v-391h-146v517z" />
    <glyph glyph-name="afii10082" unicode="&#x440;" horiz-adv-x="613" 
d="M354 529c64 0 117.332 -24.166 159.999 -72.499s64 -114.5 64 -198.5c0 -82.667 -21.667 -148.334 -65 -197.001s-97.666 -73 -162.999 -73s-112.333 20.667 -141 62v-241h-146v708h140v-60c32 48 82.333 72 151 72zM318.999 114.001c34 0 61.167 13 81.5 39
s30.5 61 30.5 105s-10.167 79.167 -30.5 105.5s-47.5 39.5 -81.5 39.5s-61.333 -13 -82 -39s-31 -60.667 -31 -104v-4c0 -43.333 10.333 -77.833 31 -103.5s48 -38.5 82 -38.5z" />
    <glyph glyph-name="afii10083" unicode="&#x441;" horiz-adv-x="560" 
d="M293 114c51.333 0 83.335 24 96.002 72h139c-4.66699 -57.333 -28.334 -104.666 -71.001 -141.999s-97.667 -56 -165 -56c-78 0 -140.333 25.167 -187 75.5s-70 115.166 -70 194.499c0 78.667 23.333 143.5 70 194.5s109 76.5 187 76.5c68 0 122.667 -19 164 -57
s65 -84.667 71 -140h-140c-14.667 47.333 -46.334 71 -95.001 71c-34 0 -61 -13.167 -81 -39.5s-30 -61.5 -30 -105.5s10.167 -79 30.5 -105s47.5 -39 81.5 -39z" />
    <glyph glyph-name="afii10084" unicode="&#x442;" horiz-adv-x="508" 
d="M26 391v126h456v-126h-155v-391h-146v391h-155z" />
    <glyph glyph-name="afii10085" unicode="&#x443;" horiz-adv-x="550" 
d="M390 517h156l-272 -708h-155l78 205l-193 503h157l114 -333z" />
    <glyph glyph-name="afii10086" unicode="&#x444;" horiz-adv-x="763" 
d="M453 529c81.333 -3.33301 147.5 -29.666 198.5 -78.999s76.5 -113.333 76.5 -192c0 -78 -25.5 -141.667 -76.5 -191s-117.167 -75.666 -198.5 -78.999v-179h-143v179c-82 3.33301 -148.333 29.666 -199 78.999s-76 113 -76 191c0 78.667 25.5 142.667 76.5 192
s117.167 75.666 198.5 78.999v188h143v-188zM310 110v296c-37.333 -1.33301 -68.333 -15.333 -93 -42s-37 -62 -37 -106c0 -43.333 12.333 -78.5 37 -105.5s55.667 -41.167 93 -42.5zM582 258c0 44 -12.1689 79.333 -36.502 106s-55.166 40.667 -92.499 42v-296
c36.667 1.33301 67.334 15.5 92.001 42.5s37 62.167 37 105.5z" />
    <glyph glyph-name="afii10087" unicode="&#x445;" horiz-adv-x="550" 
d="M375 0l-104 159l-102 -159h-159l176 260l-174 257h165l102 -162l103 162h156l-174 -261l176 -256h-165z" />
    <glyph glyph-name="afii10088" unicode="&#x446;" horiz-adv-x="633" 
d="M607 126v-254h-140v128h-404v517h146v-391h179v391h146v-391h73z" />
    <glyph glyph-name="afii10089" unicode="&#x447;" horiz-adv-x="571" 
d="M362 517h146v-517h-146v195c-33.333 -16.667 -72 -25 -116 -25c-57.333 0 -104.5 17.5 -141.5 52.5s-55.5 86.833 -55.5 155.5v139h145v-124c0 -65.333 32 -98 96 -98c26 0 50 5 72 15v207z" />
    <glyph glyph-name="afii10090" unicode="&#x448;" horiz-adv-x="839" 
d="M492 517v-391h139v391h145v-517h-713v517h146v-391h138v391h145z" />
    <glyph glyph-name="afii10091" unicode="&#x449;" horiz-adv-x="875" 
d="M850 126v-254h-140v128h-647v517h146v-391h138v391h145v-391h139v391h145v-391h74z" />
    <glyph glyph-name="afii10092" unicode="&#x44a;" horiz-adv-x="622" 
d="M302 517l-0.000976562 -147h89c60.667 0 108.834 -17.167 144.501 -51.5s53.5 -78.5 53.5 -132.5s-18 -98.5 -54 -133.5s-84 -52.5 -144 -52.5h-233v394h-132v123h276zM372.999 253h-71v-136h71c22 0 39.667 6.5 53 19.5s20 29.5 20 49.5s-6.66699 36.167 -20 48.5
s-31 18.5 -53 18.5z" />
    <glyph glyph-name="afii10093" unicode="&#x44b;" horiz-adv-x="755" 
d="M207 517l-0.000976562 -147h89c60.667 0 108.834 -17.167 144.501 -51.5s53.5 -78.5 53.5 -132.5s-18 -98.5 -54 -133.5s-84 -52.5 -144 -52.5h-233v517h144zM691.999 517v-517h-143v517h143zM277.999 253h-71v-136h71c22 0 39.667 6.5 53 19.5s20 29.5 20 49.5
s-6.66699 36.167 -20 48.5s-31 18.5 -53 18.5z" />
    <glyph glyph-name="afii10094" unicode="&#x44c;" horiz-adv-x="527" 
d="M207 517l-0.000976562 -147h89c60.667 0 108.834 -17.167 144.501 -51.5s53.5 -78.5 53.5 -132.5s-18 -98.5 -54 -133.5s-84 -52.5 -144 -52.5h-233v517h144zM277.999 253h-71v-136h71c22 0 39.667 6.5 53 19.5s20 29.5 20 49.5s-6.66699 36.167 -20 48.5
s-31 18.5 -53 18.5z" />
    <glyph glyph-name="afii10095" unicode="&#x44d;" horiz-adv-x="558" 
d="M200 317l174.999 -0.000976562c-5.33301 30 -17.5 53.167 -36.5 69.5s-42.5 24.5 -70.5 24.5c-26.667 0 -48.167 -6.33301 -64.5 -19s-27.166 -27.667 -32.499 -45h-137c7.33301 50 31.5 92.833 72.5 128.5s94.833 53.5 161.5 53.5c77.333 0 139.166 -24.667 185.499 -74
s69.5 -115 69.5 -197c0 -81.333 -23.5 -146.666 -70.5 -195.999s-109.5 -74 -187.5 -74c-68 0 -122.667 18 -164 54s-64.666 80 -69.999 132h136c12.667 -45.333 46 -68 100 -68c30.667 0 55.5 9.16699 74.5 27.5s30.5 43.5 34.5 75.5h-176v108z" />
    <glyph glyph-name="afii10096" unicode="&#x44e;" horiz-adv-x="827" 
d="M209 0h-145.999v517h146v-189h75c13.333 61.333 42.5 110.166 87.5 146.499s99.5 54.5 163.5 54.5c76 0 137.833 -24.833 185.5 -74.5s71.5 -115.167 71.5 -196.5s-23.667 -146.666 -71 -195.999s-109.333 -74 -186 -74c-66.667 0 -122.834 19.333 -168.501 58
s-74.167 90.667 -85.5 156h-72v-202zM535.001 114c34.667 0 61.834 13.333 81.501 40s29.5 61.334 29.5 104.001c0 43.333 -9.83301 78.333 -29.5 105s-46.834 40 -81.501 40s-61.834 -13.333 -81.501 -40s-29.5 -61.667 -29.5 -105
c0 -42.667 9.83301 -77.334 29.5 -104.001s46.834 -40 81.501 -40z" />
    <glyph glyph-name="afii10097" unicode="&#x44f;" horiz-adv-x="547" 
d="M484 0h-143.999v158h-62l-101 -158h-161l121 185c-60 32 -90 83 -90 153c0 52.667 17.167 95.667 51.5 129s83.166 50 146.499 50h239v-517zM191.001 337c0 -20 6.66699 -36.334 20 -49.001s31.333 -19 54 -19h75v134h-75c-22.667 0 -40.667 -6.16699 -54 -18.5
s-20 -28.166 -20 -47.499z" />
    <glyph glyph-name="cyriegrave" unicode="&#x450;" horiz-adv-x="566" 
d="M531 217l-349.002 0.00195312v-2c0 -32 10.833 -58.667 32.5 -80s49.834 -32 84.501 -32c22.667 0 41.667 4.66699 57 14s25 19.666 29 30.999h141c-8 -42 -31.5 -79.167 -70.5 -111.5s-92.167 -48.5 -159.5 -48.5c-79.333 0 -142.666 23.833 -189.999 71.5
s-71 113.167 -71 196.5s23.167 149.666 69.5 198.999s107.5 74 183.5 74c74 0 133 -23.667 177 -71s66 -111 66 -191v-50zM288.998 415.002c-29.333 0 -53.333 -8.49902 -72 -25.499s-30 -40.5 -34 -70.5h206c-2 29.333 -12 52.666 -30 69.999s-41.333 26 -70 26z
M114.998 756.003h134l94 -170h-119z" />
    </font>
</defs>
</svg>
